<svg width="588" height="588" viewBox="0 0 588 588" fill="none" xmlns="http://www.w3.org/2000/svg">
<rect x="0.5" y="0.5" width="587" height="587" rx="11.5" fill="white"/>
<path d="M285.951 402.435L283.596 393.828L273.865 394.27C272.965 392.375 271.919 390.578 270.738 388.897L275.889 380.639L269.549 374.363L261.342 379.616C259.634 378.444 257.83 377.414 255.951 376.54L256.287 366.797L247.662 364.535L243.185 373.178C241.139 373.018 239.062 373.033 236.973 373.222L232.396 364.62L223.796 366.977L224.239 376.714C222.346 377.617 220.549 378.662 218.87 379.843L210.619 374.688L204.347 381.033L209.596 389.246C208.424 390.957 207.396 392.76 206.522 394.64L196.785 394.304L194.523 402.935L203.159 407.414C202.999 409.463 203.015 411.54 203.204 413.633L194.606 418.212L196.961 426.819L206.691 426.376C207.592 428.271 208.637 430.068 209.818 431.75L204.667 440.007L211.008 446.284L219.215 441.03C220.923 442.202 222.726 443.232 224.606 444.106L224.27 453.85L232.897 456.111L237.374 447.469C239.42 447.629 241.497 447.613 243.585 447.424L248.162 456.027L256.763 453.67L256.32 443.933C258.215 443.03 260.01 441.985 261.689 440.804L269.94 445.959L276.212 439.614L270.963 431.4C272.135 429.69 273.163 427.886 274.037 426.005L283.773 426.341L286.035 417.709L277.399 413.23C277.56 411.182 277.544 409.105 277.355 407.014L285.953 402.435H285.951ZM246.343 432.479C234.115 435.831 221.487 428.627 218.14 416.39C214.793 404.154 221.99 391.517 234.218 388.168C246.445 384.818 259.073 392.02 262.421 404.258C265.768 416.495 258.571 429.132 246.343 432.481V432.479Z" fill="white"/>
<path d="M232.898 456.603C232.856 456.603 232.814 456.599 232.774 456.588L224.149 454.326C223.927 454.268 223.773 454.064 223.782 453.832L224.107 444.413C222.412 443.608 220.769 442.67 219.212 441.62L211.279 446.698C211.085 446.822 210.829 446.795 210.667 446.633L204.326 440.357C204.162 440.195 204.133 439.941 204.255 439.745L209.235 431.763C208.183 430.235 207.229 428.596 206.395 426.884L196.992 427.311C196.763 427.324 196.556 427.171 196.493 426.948L194.138 418.341C194.078 418.119 194.178 417.885 194.383 417.776L202.694 413.351C202.538 411.453 202.525 409.556 202.652 407.704L194.305 403.374C194.1 403.267 193.996 403.033 194.056 402.811L196.318 394.179C196.376 393.957 196.589 393.799 196.811 393.813L206.224 394.137C207.029 392.443 207.965 390.797 209.015 389.238L203.942 381.298C203.817 381.104 203.844 380.851 204.006 380.686L210.278 374.341C210.44 374.177 210.694 374.148 210.89 374.27L218.865 379.252C220.393 378.2 222.03 377.244 223.742 376.412L223.315 367C223.304 366.771 223.455 366.564 223.678 366.502L232.278 364.144C232.5 364.086 232.736 364.184 232.843 364.389L237.266 372.704C239.164 372.549 241.058 372.535 242.909 372.664L247.237 364.311C247.343 364.106 247.577 364.002 247.799 364.062L256.424 366.324C256.647 366.381 256.8 366.586 256.791 366.817L256.466 376.236C258.161 377.041 259.805 377.98 261.361 379.027L269.295 373.95C269.49 373.825 269.744 373.852 269.906 374.014L276.247 380.29C276.411 380.453 276.44 380.706 276.318 380.902L271.338 388.884C272.393 390.414 273.347 392.053 274.179 393.764L283.582 393.337C283.811 393.321 284.018 393.477 284.08 393.699L286.435 402.306C286.495 402.528 286.395 402.762 286.19 402.871L277.879 407.297C278.035 409.194 278.048 411.091 277.922 412.944L286.268 417.274C286.473 417.38 286.577 417.614 286.517 417.836L284.256 426.468C284.198 426.69 283.998 426.866 283.762 426.835L274.35 426.51C273.545 428.207 272.606 429.851 271.559 431.41L276.632 439.349C276.756 439.543 276.729 439.796 276.567 439.961L270.295 446.306C270.133 446.471 269.88 446.5 269.684 446.377L261.708 441.395C260.181 442.45 258.544 443.404 256.831 444.236L257.258 453.648C257.269 453.877 257.118 454.084 256.896 454.146L248.295 456.503C248.073 456.561 247.837 456.463 247.73 456.259L243.307 447.943C241.41 448.099 239.515 448.112 237.665 447.983L233.337 456.336C233.25 456.503 233.079 456.603 232.898 456.603ZM224.779 453.472L232.643 455.534L236.937 447.24C237.028 447.065 237.22 446.962 237.413 446.976C239.417 447.133 241.479 447.118 243.543 446.931C243.736 446.911 243.93 447.016 244.023 447.191L248.413 455.447L256.253 453.298L255.828 443.955C255.819 443.757 255.93 443.573 256.108 443.488C257.979 442.596 259.76 441.558 261.406 440.401C261.568 440.286 261.782 440.281 261.951 440.386L269.868 445.332L275.584 439.55L270.547 431.668C270.44 431.501 270.444 431.287 270.556 431.123C271.708 429.441 272.728 427.649 273.589 425.798C273.671 425.618 273.845 425.5 274.054 425.514L283.395 425.836L285.457 417.965L277.17 413.666C276.994 413.575 276.89 413.388 276.905 413.19C277.063 411.182 277.048 409.118 276.861 407.057C276.843 406.859 276.945 406.67 277.121 406.576L285.372 402.184L283.226 394.337L273.889 394.762C273.694 394.778 273.507 394.66 273.422 394.482C272.533 392.612 271.494 390.828 270.338 389.182C270.224 389.02 270.218 388.806 270.322 388.637L275.266 380.713L269.486 374.993L261.611 380.032C261.444 380.139 261.23 380.135 261.066 380.024C259.384 378.869 257.594 377.848 255.746 376.99C255.566 376.908 255.454 376.725 255.461 376.527L255.784 367.178L247.92 365.116L243.625 373.409C243.534 373.585 243.347 373.694 243.149 373.674C241.145 373.516 239.083 373.532 237.02 373.718C236.824 373.734 236.633 373.634 236.539 373.458L232.149 365.203L224.309 367.351L224.734 376.694C224.743 376.892 224.632 377.077 224.454 377.161C222.583 378.053 220.802 379.092 219.156 380.248C218.994 380.364 218.78 380.368 218.611 380.264L210.694 375.318L204.978 381.102L210.015 388.982C210.122 389.149 210.118 389.362 210.007 389.527C208.852 391.21 207.832 393.003 206.973 394.851C206.891 395.031 206.717 395.16 206.508 395.136L197.167 394.813L195.106 402.684L203.392 406.983C203.568 407.074 203.673 407.261 203.657 407.459C203.499 409.467 203.515 411.529 203.701 413.593C203.719 413.791 203.617 413.98 203.441 414.073L195.19 418.468L197.336 426.314L206.673 425.89C206.871 425.872 207.055 425.992 207.14 426.17C208.029 428.04 209.068 429.824 210.225 431.47C210.338 431.632 210.345 431.846 210.24 432.015L205.296 439.939L211.076 445.659L218.952 440.619C219.118 440.513 219.332 440.517 219.497 440.628C221.178 441.782 222.968 442.803 224.816 443.664C224.997 443.746 225.108 443.929 225.101 444.127L224.779 453.476V453.472ZM240.244 433.8C236.223 433.8 232.256 432.757 228.668 430.711C223.226 427.607 219.321 422.569 217.666 416.522C214.252 404.043 221.618 391.11 234.091 387.694C240.131 386.04 246.456 386.838 251.896 389.94C257.336 393.045 261.244 398.083 262.898 404.13C266.312 416.609 258.946 429.541 246.476 432.958C244.417 433.522 242.324 433.8 240.247 433.8H240.244ZM240.316 387.837C238.325 387.837 236.321 388.103 234.349 388.644C222.403 391.918 215.344 404.305 218.616 416.262C220.199 422.053 223.945 426.879 229.155 429.853C234.369 432.826 240.425 433.591 246.214 432.006C258.159 428.732 265.218 416.344 261.946 404.388C260.363 398.596 256.618 393.77 251.407 390.797C247.971 388.837 244.168 387.837 240.318 387.837H240.316Z" fill="#161616"/>
<path d="M242.853 95.576C242.798 95.576 242.74 95.5671 242.684 95.5471C242.428 95.4537 242.297 95.1712 242.388 94.9155L243.696 91.3237C243.789 91.0679 244.074 90.9367 244.328 91.0301C244.583 91.1235 244.715 91.406 244.623 91.6617L243.316 95.2535C243.242 95.4537 243.053 95.5782 242.853 95.5782V95.576Z" fill="#161616"/>
<path d="M239.806 103.944C239.751 103.944 239.693 103.935 239.637 103.915C239.381 103.822 239.25 103.539 239.341 103.284L240.649 99.6917C240.743 99.436 241.025 99.3025 241.281 99.3982C241.537 99.4916 241.668 99.774 241.577 100.03L240.269 103.622C240.195 103.822 240.006 103.946 239.806 103.946V103.944Z" fill="#161616"/>
<path d="M239.6 97.0966C239.545 97.0966 239.487 97.0877 239.431 97.0677L235.839 95.76C235.584 95.6666 235.452 95.3841 235.546 95.1284C235.639 94.8726 235.922 94.7414 236.177 94.8348L239.769 96.1425C240.025 96.2359 240.156 96.5184 240.063 96.7741C239.989 96.9743 239.8 97.0988 239.6 97.0988V97.0966Z" fill="#161616"/>
<path d="M247.968 100.14C247.913 100.14 247.855 100.131 247.799 100.111L244.208 98.803C243.952 98.7095 243.821 98.4271 243.912 98.1713C244.005 97.9156 244.288 97.7843 244.543 97.8778L248.135 99.1855C248.391 99.2789 248.522 99.5613 248.431 99.8171C248.358 100.017 248.169 100.142 247.968 100.142V100.14Z" fill="#161616"/>
<path d="M147.406 148.97C146.716 148.97 146.027 148.841 145.366 148.585C143.925 148.025 142.791 146.924 142.17 145.487C140.903 142.552 142.217 139.109 145.1 137.815C146.485 137.192 148.031 137.152 149.445 137.701C150.886 138.262 152.021 139.362 152.641 140.799C153.909 143.735 152.594 147.178 149.712 148.472C148.974 148.803 148.191 148.97 147.406 148.97ZM145.5 138.713C143.107 139.787 142.019 142.652 143.073 145.096C143.589 146.29 144.528 147.202 145.722 147.667C146.89 148.121 148.162 148.087 149.307 147.574C151.7 146.499 152.788 143.635 151.734 141.191C151.218 139.996 150.279 139.084 149.085 138.62C147.917 138.166 146.645 138.199 145.5 138.713Z" fill="#161616"/>
<path d="M210.983 110.529C210.294 110.529 209.604 110.4 208.944 110.144C207.502 109.584 206.368 108.483 205.748 107.046C204.482 104.11 205.794 100.668 208.677 99.3731C210.062 98.7504 211.608 98.7104 213.022 99.2597C214.464 99.8201 215.598 100.921 216.218 102.358C217.484 105.293 216.172 108.736 213.289 110.031C212.551 110.362 211.768 110.529 210.983 110.529ZM210.981 99.8602C210.334 99.8602 209.689 99.9981 209.079 100.272C206.686 101.346 205.599 104.21 206.653 106.655C207.167 107.849 208.107 108.761 209.302 109.226C210.469 109.679 211.741 109.646 212.887 109.132C215.28 108.058 216.367 105.193 215.313 102.749C214.799 101.555 213.859 100.643 212.664 100.178C212.117 99.9669 211.55 99.8602 210.981 99.8602Z" fill="#161616"/>
<path d="M179.273 126.731C179.151 126.731 179.028 126.687 178.933 126.596C178.737 126.407 178.73 126.095 178.917 125.899L180.73 124.007C180.919 123.811 181.23 123.804 181.426 123.991C181.621 124.18 181.628 124.492 181.441 124.687L179.629 126.58C179.533 126.68 179.402 126.731 179.273 126.731Z" fill="#161616"/>
<path d="M172.929 133.357C172.807 133.357 172.684 133.313 172.589 133.219C172.393 133.03 172.386 132.719 172.573 132.523L174.386 130.631C174.575 130.435 174.886 130.426 175.082 130.615C175.278 130.804 175.284 131.116 175.098 131.311L173.285 133.204C173.187 133.304 173.058 133.355 172.929 133.355V133.357Z" fill="#161616"/>
<path d="M174.708 126.831C174.583 126.831 174.459 126.784 174.363 126.689L172.522 124.876C172.328 124.685 172.326 124.374 172.517 124.18C172.708 123.987 173.02 123.984 173.213 124.173L175.055 125.986C175.248 126.177 175.25 126.489 175.059 126.682C174.963 126.78 174.835 126.829 174.708 126.829V126.831Z" fill="#161616"/>
<path d="M181.153 133.175C181.029 133.175 180.904 133.128 180.808 133.032L178.967 131.22C178.773 131.029 178.771 130.717 178.962 130.524C179.154 130.33 179.465 130.328 179.659 130.517L181.5 132.33C181.693 132.521 181.696 132.832 181.504 133.026C181.409 133.124 181.28 133.173 181.153 133.173V133.175Z" fill="#161616"/>
<path d="M442.202 468.88L433.359 469.524L269.362 468.88C261.913 468.88 256.637 462.871 257.577 455.461L300.137 119.841C301.076 112.43 307.875 106.421 315.325 106.421L479.488 104.508C498.332 104.508 499.071 112.43 498.132 119.841L457.39 455.461C456.45 462.871 449.651 468.88 442.202 468.88Z" fill="#161616"/>
<path d="M431.796 469.527H258.956C251.507 469.527 246.231 463.488 247.171 456.041L289.73 118.759C290.67 111.31 297.469 105.273 304.918 105.273H477.758C485.207 105.273 490.483 111.312 489.543 118.759L446.984 456.041C446.044 463.49 439.245 469.527 431.796 469.527Z" fill="white"/>
<path d="M433.52 460.088H259.75C258.784 460.088 257.921 459.711 257.316 459.025C256.707 458.333 256.438 457.417 256.56 456.445L297.197 134.396C297.442 132.45 299.226 130.869 301.171 130.869H474.942C475.905 130.869 476.77 131.246 477.375 131.932C477.985 132.625 478.253 133.541 478.132 134.515L437.496 456.564C437.251 458.51 435.468 460.091 433.522 460.091L433.52 460.088ZM257.031 456.502L257.499 456.562C257.412 457.261 257.597 457.915 258.028 458.401C258.45 458.88 259.063 459.145 259.752 459.145H433.522C435.01 459.145 436.371 457.934 436.561 456.445L477.196 134.396C477.284 133.697 477.096 133.043 476.668 132.557C476.246 132.077 475.632 131.813 474.944 131.813H301.173C299.686 131.813 298.325 133.023 298.135 134.513L257.497 456.562L257.029 456.502H257.031Z" fill="#161616"/>
<path d="M389.178 122.898C387.699 122.898 386.374 122.32 385.451 121.272C384.518 120.213 384.107 118.807 384.294 117.313C384.676 114.3 387.437 111.848 390.452 111.848C391.931 111.848 393.254 112.425 394.179 113.473C395.112 114.532 395.523 115.939 395.334 117.43C394.952 120.443 392.191 122.896 389.176 122.896L389.178 122.898ZM390.452 112.794C387.895 112.794 385.554 114.875 385.232 117.432C385.078 118.653 385.407 119.795 386.159 120.648C386.9 121.489 387.974 121.954 389.178 121.954C391.733 121.954 394.077 119.872 394.398 117.315C394.552 116.094 394.224 114.952 393.471 114.1C392.73 113.258 391.656 112.794 390.452 112.794Z" fill="#161616"/>
<path d="M462.998 329.618C462.978 329.618 462.957 329.618 462.938 329.614C462.68 329.582 462.495 329.346 462.529 329.086L489.076 118.696C489.515 115.21 488.569 111.941 486.41 109.493C484.277 107.073 481.205 105.741 477.759 105.741H304.92C297.714 105.741 291.11 111.605 290.201 118.813L286.058 151.637C286.026 151.897 285.79 152.08 285.53 152.046C285.27 152.014 285.089 151.778 285.121 151.518L289.263 118.694C290.23 111.029 297.253 104.795 304.92 104.795H477.759C481.48 104.795 484.802 106.242 487.118 108.867C489.457 111.522 490.486 115.054 490.011 118.813L463.464 329.203C463.434 329.442 463.232 329.616 462.995 329.616L462.998 329.618Z" fill="#161616"/>
<path d="M258.963 469.998C255.241 469.998 251.917 468.551 249.601 465.926C247.259 463.271 246.232 459.741 246.707 455.982L265.546 301.864C265.578 301.607 265.812 301.421 266.074 301.455C266.334 301.487 266.517 301.724 266.483 301.984L247.645 456.101C247.206 459.587 248.152 462.856 250.31 465.304C252.443 467.724 255.516 469.056 258.961 469.056L340.946 468.57H340.948C341.208 468.57 341.419 468.779 341.421 469.039C341.421 469.299 341.212 469.512 340.952 469.514L258.965 470L258.963 469.998Z" fill="#161616"/>
<path d="M283.887 393.138C283.747 393.138 283.606 393.074 283.512 392.955C283.352 392.748 283.393 392.452 283.597 392.292L319.956 364.311C320.163 364.151 320.459 364.192 320.619 364.396C320.777 364.603 320.738 364.899 320.534 365.059L284.175 393.04C284.09 393.106 283.987 393.138 283.887 393.138Z" fill="#161616"/>
<path d="M326.066 360.681C325.925 360.681 325.785 360.617 325.691 360.498C325.533 360.291 325.572 359.995 325.776 359.835L341.184 347.98C341.39 347.822 341.686 347.861 341.846 348.065C342.004 348.272 341.966 348.568 341.761 348.728L326.354 360.583C326.268 360.649 326.166 360.681 326.066 360.681Z" fill="#161616"/>
<path d="M276.332 417.693C276.192 417.693 276.051 417.629 275.957 417.509C275.798 417.303 275.838 417.006 276.043 416.847L293.73 403.235C293.937 403.076 294.233 403.114 294.393 403.321C294.552 403.527 294.512 403.824 294.307 403.983L276.62 417.595C276.535 417.661 276.433 417.693 276.332 417.693Z" fill="#161616"/>
<path d="M302.332 397.68C302.192 397.68 302.051 397.616 301.957 397.497C301.798 397.29 301.838 396.994 302.043 396.834L333.622 372.531C333.829 372.373 334.125 372.411 334.285 372.616C334.443 372.823 334.404 373.119 334.2 373.279L302.62 397.582C302.535 397.648 302.433 397.68 302.332 397.68Z" fill="#161616"/>
<path d="M312.691 415.803C312.55 415.803 312.41 415.739 312.316 415.619C312.158 415.413 312.197 415.116 312.401 414.957L338.678 394.736C338.886 394.578 339.18 394.617 339.34 394.821C339.498 395.028 339.459 395.324 339.255 395.484L312.979 415.704C312.893 415.771 312.791 415.803 312.691 415.803Z" fill="#161616"/>
<path d="M437.461 292.905H236.094C229.623 292.905 224.456 287.514 224.729 281.047L229.715 163.447C229.945 158.039 234.394 153.773 239.808 153.773H442.393C448.864 153.773 454.031 159.164 453.759 165.631L448.824 282.012C448.566 288.102 443.554 292.905 437.458 292.905H437.461Z" fill="white"/>
<path d="M437.466 293.378H236.099C232.839 293.378 229.801 292.083 227.545 289.728C225.288 287.374 224.123 284.284 224.261 281.028L229.247 163.428C229.488 157.75 234.129 153.301 239.813 153.301H442.398C445.658 153.301 448.697 154.596 450.953 156.951C453.21 159.305 454.375 162.395 454.237 165.651L449.304 282.032C449.033 288.394 443.834 293.378 437.466 293.378ZM239.813 154.247C234.638 154.247 230.413 158.297 230.193 163.467L225.207 281.067C225.079 284.062 226.153 286.907 228.229 289.072C230.304 291.237 233.099 292.43 236.097 292.43H437.466C443.325 292.43 448.109 287.845 448.356 281.991L453.288 165.61C453.416 162.614 452.342 159.77 450.267 157.605C448.192 155.44 445.396 154.247 442.398 154.247H239.813Z" fill="#161616"/>
<path d="M307.382 280.015H241.866C239.925 280.015 238.344 278.434 238.344 276.493V276.442C238.344 274.499 239.925 272.92 241.866 272.92H307.382C309.323 272.92 310.904 274.501 310.904 276.442V276.493C310.904 278.436 309.323 280.015 307.382 280.015ZM241.866 273.868C240.447 273.868 239.292 275.023 239.292 276.442V276.493C239.292 277.912 240.447 279.067 241.866 279.067H307.382C308.801 279.067 309.956 277.912 309.956 276.493V276.442C309.956 275.023 308.801 273.868 307.382 273.868H241.866Z" fill="#161616"/>
<path d="M430.935 280.015H411.897C409.956 280.015 408.375 278.434 408.375 276.493V276.442C408.375 274.499 409.956 272.92 411.897 272.92H430.935C432.876 272.92 434.457 274.501 434.457 276.442V276.493C434.457 278.436 432.876 280.015 430.935 280.015ZM411.897 273.868C410.478 273.868 409.323 275.023 409.323 276.442V276.493C409.323 277.912 410.478 279.067 411.897 279.067H430.935C432.354 279.067 433.509 277.912 433.509 276.493V276.442C433.509 275.023 432.354 273.868 430.935 273.868H411.897Z" fill="#161616"/>
<path d="M279.306 249.09H248.385C245.632 249.09 243.391 246.85 243.391 244.095V242.723C243.391 239.968 245.632 237.729 248.385 237.729H279.306C282.059 237.729 284.301 239.968 284.301 242.723V244.095C284.301 246.85 282.059 249.09 279.306 249.09ZM248.385 238.677C246.154 238.677 244.339 240.492 244.339 242.723V244.095C244.339 246.326 246.154 248.141 248.385 248.141H279.306C281.537 248.141 283.353 246.326 283.353 244.095V242.723C283.353 240.492 281.537 238.677 279.306 238.677H248.385Z" fill="#161616"/>
<path d="M330.064 249.09H299.143C296.39 249.09 294.148 246.85 294.148 244.095V242.723C294.148 239.968 296.39 237.729 299.143 237.729H330.064C332.817 237.729 335.059 239.968 335.059 242.723V244.095C335.059 246.85 332.817 249.09 330.064 249.09ZM299.143 238.677C296.912 238.677 295.097 240.492 295.097 242.723V244.095C295.097 246.326 296.912 248.141 299.143 248.141H330.064C332.295 248.141 334.111 246.326 334.111 244.095V242.723C334.111 240.492 332.295 238.677 330.064 238.677H299.143Z" fill="#161616"/>
<path d="M380.822 249.09H349.901C347.148 249.09 344.906 246.85 344.906 244.095V242.723C344.906 239.968 347.148 237.729 349.901 237.729H380.822C383.575 237.729 385.817 239.968 385.817 242.723V244.095C385.817 246.85 383.575 249.09 380.822 249.09ZM349.901 238.677C347.67 238.677 345.854 240.492 345.854 242.723V244.095C345.854 246.326 347.67 248.141 349.901 248.141H380.822C383.053 248.141 384.868 246.326 384.868 244.095V242.723C384.868 240.492 383.053 238.677 380.822 238.677H349.901Z" fill="#161616"/>
<path d="M431.58 249.09H400.659C397.906 249.09 395.664 246.85 395.664 244.095V242.723C395.664 239.968 397.903 237.729 400.659 237.729H431.58C434.333 237.729 436.574 239.968 436.574 242.723V244.095C436.574 246.85 434.333 249.09 431.58 249.09ZM400.659 238.677C398.428 238.677 396.612 240.492 396.612 242.723V244.095C396.612 246.326 398.428 248.141 400.659 248.141H431.58C433.811 248.141 435.626 246.326 435.626 244.095V242.723C435.626 240.492 433.811 238.677 431.58 238.677H400.659Z" fill="#161616"/>
<path d="M429.867 180.651H394.117C390.423 180.651 387.414 177.645 387.414 173.948V173.844C387.414 170.149 390.421 167.143 394.117 167.143H429.867C433.562 167.143 436.568 170.149 436.568 173.844V173.948C436.568 177.643 433.562 180.651 429.867 180.651ZM394.117 168.091C390.945 168.091 388.362 170.673 388.362 173.846V173.95C388.362 177.123 390.945 179.705 394.117 179.705H429.867C433.04 179.705 435.622 177.123 435.622 173.95V173.846C435.622 170.673 433.04 168.091 429.867 168.091H394.117Z" fill="#161616"/>
<path d="M274.2 190.865H252.563C249.042 190.865 246.188 193.72 246.188 197.24V214.146C246.188 217.667 249.042 220.521 252.563 220.521H274.2C277.721 220.521 280.576 217.667 280.576 214.146V197.24C280.576 193.72 277.721 190.865 274.2 190.865Z" fill="#161616"/>
<path d="M267.99 213.119H258.858C256.851 213.119 255.219 211.487 255.219 209.48V203.19C255.219 201.183 256.851 199.551 258.858 199.551H267.99C269.998 199.551 271.63 201.183 271.63 203.19V209.48C271.63 211.487 269.998 213.119 267.99 213.119ZM258.858 200.499C257.375 200.499 256.167 201.707 256.167 203.19V209.48C256.167 210.963 257.375 212.171 258.858 212.171H267.99C269.473 212.171 270.682 210.963 270.682 209.48V203.19C270.682 201.707 269.473 200.499 267.99 200.499H258.858Z" fill="white"/>
<path d="M255.455 205.795C255.455 205.795 255.44 205.795 255.434 205.795L246.234 205.388C245.971 205.377 245.769 205.155 245.782 204.893C245.795 204.631 246.023 204.433 246.276 204.442L255.477 204.849C255.739 204.859 255.941 205.081 255.928 205.343C255.918 205.597 255.707 205.797 255.455 205.797V205.795Z" fill="white"/>
<path d="M255.458 209.665H255.447L245.886 209.46C245.624 209.454 245.418 209.238 245.422 208.976C245.428 208.714 245.65 208.508 245.906 208.512L255.466 208.716C255.728 208.723 255.935 208.938 255.931 209.2C255.924 209.458 255.713 209.665 255.458 209.665Z" fill="white"/>
<path d="M271.145 205.795C270.887 205.795 270.676 205.591 270.672 205.331C270.666 205.069 270.874 204.851 271.137 204.847L280.697 204.643C280.959 204.651 281.177 204.845 281.181 205.107C281.187 205.369 280.978 205.586 280.716 205.591L271.156 205.795H271.145Z" fill="white"/>
<path d="M280.164 209.664H280.154L271.134 209.46C270.872 209.453 270.666 209.236 270.672 208.976C270.678 208.714 270.894 208.52 271.156 208.514L280.175 208.718C280.437 208.725 280.644 208.942 280.638 209.202C280.631 209.46 280.42 209.664 280.164 209.664Z" fill="white"/>
<path d="M260.328 200.093C260.083 200.093 259.876 199.905 259.857 199.656L259.134 190.696C259.113 190.436 259.307 190.206 259.569 190.185C259.825 190.168 260.059 190.357 260.078 190.619L260.801 199.579C260.822 199.839 260.628 200.069 260.366 200.091C260.353 200.091 260.34 200.091 260.328 200.091V200.093Z" fill="white"/>
<path d="M265.201 199.889C265.182 199.889 265.161 199.889 265.141 199.884C264.881 199.852 264.698 199.614 264.73 199.354L265.813 190.803C265.847 190.543 266.085 190.362 266.343 190.392C266.603 190.424 266.786 190.662 266.754 190.922L265.672 199.473C265.642 199.712 265.438 199.886 265.203 199.886L265.201 199.889Z" fill="white"/>
<path d="M259.607 221.065C259.59 221.065 259.571 221.065 259.554 221.06C259.294 221.031 259.106 220.796 259.136 220.536L260.037 212.595C260.067 212.335 260.306 212.145 260.561 212.177C260.821 212.207 261.009 212.442 260.979 212.701L260.078 220.643C260.05 220.884 259.845 221.063 259.607 221.063V221.065Z" fill="white"/>
<path d="M265.375 221.066C265.127 221.066 264.919 220.874 264.902 220.625L264.36 212.684C264.343 212.421 264.539 212.196 264.801 212.179C265.059 212.164 265.289 212.358 265.306 212.62L265.848 220.561C265.865 220.823 265.669 221.049 265.407 221.066C265.396 221.066 265.385 221.066 265.375 221.066Z" fill="white"/>
<path d="M121.229 453.93L113.802 478.363L102.945 475.236L110.84 449.557L121.229 453.93Z" fill="white"/>
<path d="M113.8 478.927C113.749 478.927 113.696 478.919 113.645 478.904L102.789 475.775C102.645 475.734 102.523 475.636 102.45 475.502C102.379 475.37 102.364 475.213 102.407 475.069L110.301 449.389C110.347 449.238 110.456 449.114 110.6 449.045C110.744 448.98 110.909 448.977 111.055 449.038L121.444 453.411C121.71 453.523 121.846 453.816 121.763 454.092L114.336 478.525C114.263 478.765 114.04 478.922 113.8 478.922V478.927ZM103.646 474.857L113.425 477.675L120.546 454.254L111.194 450.315L103.649 474.857H103.646Z" fill="#161616"/>
<path d="M114.798 474.69L103.97 471.257C103.201 471.015 102.363 471.255 101.847 471.872C100.147 473.903 96.4594 478.74 95.0834 484.001C94.7065 485.438 95.5311 486.918 96.9476 487.368L112.335 492.247C115.714 493.32 119.202 494.021 122.734 494.342C122.734 494.342 134.104 495.541 134.238 491.921C134.43 486.72 126.768 485.683 125.741 484.631C121.805 480.601 117.685 476.84 116.172 475.477C115.775 475.12 115.312 474.854 114.804 474.692L114.798 474.69Z" fill="white"/>
<path d="M126.731 495.098C124.737 495.098 123.055 494.934 122.671 494.893C119.114 494.572 115.575 493.859 112.163 492.776L96.776 487.897C95.0685 487.355 94.0871 485.58 94.5399 483.852C95.964 478.421 99.824 473.41 101.418 471.505C102.083 470.714 103.15 470.403 104.139 470.716L114.968 474.149C115.558 474.336 116.089 474.64 116.544 475.052C118.123 476.473 122.218 480.217 126.139 484.229C126.321 484.416 127.133 484.725 127.846 484.995C130.502 486.002 134.949 487.692 134.795 491.931C134.772 492.564 134.496 493.113 133.975 493.565C132.543 494.807 129.369 495.096 126.733 495.096L126.731 495.098ZM103.363 471.72C102.948 471.72 102.548 471.9 102.275 472.229C100.73 474.073 96.9884 478.927 95.6225 484.14C95.3215 485.289 95.9766 486.47 97.1149 486.832L112.502 491.711C115.838 492.769 119.296 493.467 122.782 493.78C125.079 494.023 131.42 494.304 133.242 492.726C133.527 492.478 133.664 492.215 133.677 491.898C133.803 488.461 129.981 487.011 127.451 486.05C126.432 485.663 125.693 485.382 125.339 485.021C121.441 481.032 117.366 477.308 115.795 475.892C115.459 475.588 115.067 475.363 114.632 475.226L103.803 471.794C103.659 471.748 103.512 471.725 103.368 471.725L103.363 471.72Z" fill="#161616"/>
<path d="M114.31 485.416C114.146 485.416 113.984 485.345 113.873 485.206C113.68 484.966 113.718 484.612 113.959 484.42L120.333 479.31C120.573 479.118 120.927 479.156 121.122 479.396C121.314 479.636 121.276 479.99 121.036 480.183L114.662 485.292C114.558 485.376 114.434 485.416 114.313 485.416H114.31Z" fill="#161616"/>
<path d="M117.716 489.21C117.552 489.21 117.39 489.139 117.279 489C117.087 488.757 117.124 488.405 117.365 488.211L123.739 483.101C123.979 482.909 124.334 482.947 124.526 483.187C124.718 483.43 124.68 483.781 124.44 483.976L118.065 489.086C117.962 489.169 117.838 489.21 117.716 489.21Z" fill="#161616"/>
<path d="M182.701 460.051L182.185 477.49L169.906 477.485L170.766 459.277L182.701 460.051Z" fill="white"/>
<path d="M182.179 478.052L169.903 478.047C169.749 478.047 169.605 477.984 169.499 477.873C169.393 477.761 169.337 477.612 169.344 477.46L170.204 459.253C170.212 459.101 170.278 458.962 170.392 458.861C170.503 458.76 170.647 458.714 170.801 458.719L182.736 459.493C183.037 459.513 183.269 459.766 183.259 460.07L182.741 477.508C182.731 477.812 182.483 478.052 182.182 478.052H182.179ZM170.49 476.927L181.635 476.932L182.121 460.578L171.297 459.875L170.49 476.927Z" fill="#161616"/>
<path d="M181.705 477.23L170.307 477.225C169.498 477.225 168.769 477.713 168.463 478.467C167.452 480.948 165.39 486.746 165.666 492.247C165.742 493.75 166.979 494.929 168.468 494.929L201.914 494.941C203.452 494.941 204.62 493.525 204.314 492.002C203.945 490.181 202.675 487.783 199.007 485.628C193.071 482.137 185.611 478.649 183.259 477.569C182.77 477.344 182.242 477.23 181.705 477.23Z" fill="white"/>
<path d="M201.91 495.505L168.465 495.492C166.669 495.492 165.192 494.081 165.103 492.28C164.82 486.601 166.993 480.583 167.942 478.261C168.336 477.295 169.262 476.67 170.304 476.67L181.702 476.675C182.322 476.675 182.921 476.807 183.488 477.067C185.676 478.071 193.282 481.623 199.287 485.154C203.233 487.474 204.496 490.102 204.857 491.9C205.037 492.788 204.809 493.704 204.235 494.404C203.661 495.108 202.814 495.51 201.91 495.51V495.505ZM170.302 477.788C169.717 477.788 169.199 478.14 168.976 478.683C168.055 480.937 165.946 486.77 166.219 492.224C166.28 493.428 167.264 494.372 168.463 494.372L201.908 494.384C202.475 494.384 203.003 494.131 203.365 493.691C203.727 493.248 203.868 492.677 203.757 492.118C203.302 489.861 201.559 487.787 198.716 486.115C192.756 482.612 185.193 479.081 183.015 478.081C182.598 477.889 182.155 477.793 181.697 477.793L170.299 477.788H170.302Z" fill="#161616"/>
<path d="M184.318 487.758C184.212 487.758 184.105 487.728 184.009 487.665C183.751 487.493 183.68 487.146 183.85 486.888L188.401 480.005C188.573 479.747 188.919 479.677 189.177 479.846C189.435 480.018 189.506 480.365 189.336 480.623L184.786 487.505C184.677 487.667 184.5 487.756 184.318 487.756V487.758Z" fill="#161616"/>
<path d="M188.724 490.381C188.618 490.381 188.512 490.351 188.416 490.288C188.158 490.116 188.087 489.769 188.256 489.511L192.807 482.628C192.979 482.37 193.325 482.3 193.583 482.469C193.841 482.641 193.912 482.988 193.743 483.246L189.192 490.128C189.083 490.29 188.906 490.379 188.724 490.379V490.381Z" fill="#161616"/>
<path d="M131.236 311.708C131.236 311.708 125.63 325.701 124.543 340.046C123.455 354.391 108.561 440.974 104.102 462.791C104.102 462.791 114.096 468.384 119.792 467.466C119.792 467.466 151.968 403.383 157.209 355.646C162.45 307.909 160.92 311.721 160.92 311.721L131.233 311.708H131.236Z" fill="#161616"/>
<path d="M141.118 317.082C141.118 317.082 139.312 342.944 148.281 361.225C157.251 379.506 168.024 450.573 167.273 468.646C167.273 468.646 178.633 471.651 184.021 469.544C184.021 469.544 200.339 367.106 179.556 316.738L141.115 317.087L141.118 317.082Z" fill="#161616"/>
<path d="M153.741 381.136C153.475 381.136 153.24 380.946 153.19 380.678C153.177 380.605 151.771 373.155 148.386 367.175C143.287 358.163 141.369 346.965 141.351 346.853C141.301 346.547 141.506 346.259 141.812 346.208C142.118 346.16 142.406 346.363 142.457 346.669C142.475 346.777 144.362 357.786 149.362 366.624C152.841 372.771 154.234 380.162 154.292 380.473C154.348 380.777 154.148 381.07 153.842 381.126C153.807 381.131 153.774 381.136 153.738 381.136H153.741Z" fill="white"/>
<path d="M142.024 254.045L136.687 248.123C134.385 242.247 127.973 237.158 122.59 233.867C100.259 220.217 103.396 194.305 103.264 183.812L94.7651 185.13C94.7651 185.13 73.8459 239.548 125.352 265.557L142.024 254.045Z" fill="white"/>
<path d="M125.349 266.119C125.263 266.119 125.177 266.099 125.096 266.058C98.2549 252.503 91.2936 231.153 90.1806 215.63C88.9766 198.844 94.1849 185.065 94.238 184.929C94.3113 184.742 94.4757 184.608 94.6756 184.575L103.175 183.257C103.337 183.232 103.499 183.277 103.623 183.383C103.746 183.49 103.82 183.641 103.82 183.803C103.835 184.924 103.812 186.186 103.784 187.646C103.577 199.426 103.187 221.351 122.875 233.387C127.094 235.967 134.541 241.261 137.164 247.82L142.433 253.666C142.542 253.785 142.592 253.947 142.575 254.106C142.557 254.266 142.468 254.41 142.337 254.503L125.665 266.015C125.569 266.081 125.457 266.114 125.346 266.114L125.349 266.119ZM95.1739 185.635C94.4277 187.729 90.2034 200.412 91.3012 215.592C92.3965 230.756 99.1958 251.592 125.303 264.91L141.176 253.949L136.266 248.503C136.22 248.453 136.185 248.395 136.16 248.331C133.691 242.033 126.411 236.868 122.29 234.348C102.054 221.979 102.451 199.633 102.664 187.63C102.684 186.454 102.702 185.409 102.702 184.468L95.1714 185.635H95.1739Z" fill="#161616"/>
<path d="M97.7406 186.173C97.26 186.023 96.7667 185.806 96.2633 185.515C93.8375 184.114 90.7085 179.629 91.9682 176.705C93.7717 172.518 103.394 173.396 105.193 177.114C107.373 181.617 102.61 187.688 97.7406 186.17V186.173Z" fill="white"/>
<path d="M99.2763 186.966C98.7046 186.966 98.1304 186.88 97.5714 186.708C97.0427 186.544 96.5065 186.306 95.9803 186.003C93.2611 184.432 90.0916 179.638 91.4499 176.487C92.2619 174.605 94.5663 173.441 97.6144 173.373C100.759 173.32 104.538 174.483 105.694 176.874C106.834 179.226 106.318 182.203 104.378 184.455C102.979 186.079 101.125 186.966 99.2763 186.966ZM97.9053 185.636C100.215 186.357 102.327 185.12 103.531 183.721C105.178 181.809 105.633 179.31 104.687 177.359C103.86 175.654 100.84 174.415 97.6397 174.491C95.0419 174.549 93.1118 175.46 92.4794 176.927C91.4019 179.426 94.2071 183.681 96.5419 185.029C96.9947 185.292 97.455 185.494 97.9053 185.636Z" fill="#161616"/>
<path d="M226.884 235.765C250.169 250.973 236.997 298.806 200.985 282.098L198.609 257.863C229.735 271.287 227.598 252.872 219.518 233.033L226.884 235.765Z" fill="white"/>
<path d="M215.175 286.164C210.685 286.164 205.861 284.978 200.754 282.608C200.574 282.524 200.45 282.352 200.433 282.155L198.058 257.919C198.037 257.722 198.126 257.53 198.285 257.411C198.445 257.295 198.655 257.269 198.837 257.35C210.589 262.419 218.324 263.249 221.827 259.817C225.619 256.101 224.671 247.161 219.005 233.246C218.921 233.042 218.967 232.804 219.121 232.644C219.275 232.485 219.51 232.432 219.718 232.51L227.084 235.242C227.122 235.257 227.16 235.275 227.195 235.298C240.184 243.779 241.864 262.177 235.285 274.038C232.219 279.562 227.676 283.397 222.146 285.124C219.925 285.818 217.598 286.164 215.172 286.164H215.175ZM201.518 281.725C215.63 288.155 227.873 285.089 234.306 273.494C240.632 262.091 239.054 244.427 226.636 236.272L220.517 234.003C226.021 247.895 226.707 256.609 222.614 260.618C218.792 264.365 211.15 263.753 199.267 258.752L201.518 281.727V281.725Z" fill="#161616"/>
<path d="M221.767 236.093C221.241 235.928 220.699 235.69 220.148 235.374C217.489 233.839 214.062 228.924 215.441 225.724C217.416 221.138 227.957 222.099 229.93 226.172C232.32 231.104 227.102 237.757 221.764 236.093H221.767Z" fill="white"/>
<path d="M223.461 236.911C222.838 236.911 222.216 236.818 221.609 236.631C221.032 236.451 220.451 236.193 219.879 235.862C216.917 234.149 213.461 228.931 214.939 225.503C215.819 223.459 218.326 222.197 221.644 222.124C225.054 222.03 229.187 223.33 230.447 225.928C231.687 228.488 231.125 231.726 229.013 234.177C227.49 235.945 225.474 236.911 223.463 236.911H223.461ZM221.953 223.242C221.857 223.242 221.761 223.242 221.667 223.244C218.799 223.308 216.669 224.317 215.966 225.946C214.777 228.708 217.865 233.403 220.438 234.89C220.939 235.179 221.445 235.404 221.943 235.561C224.498 236.36 226.833 234.992 228.163 233.446C229.982 231.334 230.483 228.574 229.438 226.416C228.548 224.583 225.363 223.239 221.956 223.239L221.953 223.242Z" fill="#161616"/>
<path d="M204.098 258.452C204.068 257.807 203.764 257.208 203.261 256.8C201.452 255.331 194.906 252.06 189.275 248.838C183.057 245.279 177.548 243.048 170.385 243.136L146.139 241.821C139.378 241.79 135.492 240.523 129.874 237.197C123.31 233.309 119.152 227.817 117.497 226.006C117.194 225.675 116.657 225.748 116.45 226.148L102.312 253.196C102.312 253.196 113.243 263.175 127.656 274.264C128.114 274.618 128.721 285.65 128.657 286.224L124.142 327.369C123.768 330.228 187.767 334.826 187.583 331.846C186.986 322.239 183.619 314.256 185.038 284.021C185.089 282.936 186.08 282.146 187.145 282.351C190.219 282.948 196.396 284.124 202.638 285.184C204.07 285.427 205.358 284.281 205.287 282.832L204.095 258.455L204.098 258.452Z" fill="white"/>
<path d="M179.094 333.32C162.411 333.32 127.463 330.441 124.069 328.172C123.611 327.866 123.553 327.525 123.583 327.292L128.098 286.16C128.164 285.282 127.567 275.819 127.213 274.628C112.992 263.682 102.042 253.706 101.933 253.607C101.746 253.435 101.695 253.159 101.814 252.934L115.952 225.886C116.136 225.535 116.478 225.294 116.87 225.244C117.259 225.196 117.646 225.337 117.909 225.626C118.157 225.896 118.458 226.248 118.815 226.663C120.851 229.033 124.64 233.444 130.157 236.71C135.99 240.165 139.727 241.228 146.139 241.255L170.412 242.571C177.76 242.454 183.376 244.812 189.551 248.346C191.617 249.527 193.765 250.696 195.844 251.824C199.378 253.741 202.428 255.401 203.612 256.362C204.234 256.868 204.616 257.619 204.654 258.421L205.846 282.798C205.889 283.66 205.542 284.485 204.895 285.057C204.25 285.628 203.392 285.874 202.542 285.73C196.277 284.665 190.137 283.493 187.036 282.891C186.687 282.826 186.341 282.907 186.062 283.127C185.784 283.347 185.612 283.678 185.597 284.035C184.565 306.001 186.08 316.289 187.188 323.801C187.613 326.68 187.977 329.164 188.142 331.797C188.154 331.987 188.104 332.344 187.638 332.612C186.786 333.103 183.609 333.312 179.096 333.312L179.094 333.32ZM124.714 327.262C126.034 328.215 137.157 329.9 155.749 331.226C174.295 332.549 185.526 332.452 187.006 331.691C186.839 329.172 186.485 326.756 186.072 323.971C184.959 316.413 183.434 306.062 184.471 283.989C184.504 283.306 184.828 282.674 185.364 282.251C185.895 281.834 186.581 281.667 187.244 281.796C190.34 282.398 196.469 283.564 202.724 284.627C203.238 284.713 203.754 284.566 204.143 284.219C204.533 283.873 204.743 283.375 204.718 282.853L203.526 258.476C203.503 257.991 203.273 257.538 202.896 257.232C201.793 256.337 198.786 254.702 195.3 252.81C193.216 251.68 191.061 250.508 188.984 249.32C183.083 245.943 177.71 243.689 170.779 243.689C170.647 243.689 170.513 243.689 170.379 243.691L146.096 242.376C139.557 242.348 135.538 241.205 129.576 237.674C123.902 234.312 120.034 229.812 117.955 227.394C117.606 226.989 117.312 226.645 117.07 226.379C117.062 226.372 117.044 226.352 117.001 226.354C116.981 226.357 116.951 226.367 116.933 226.402L102.995 253.066C104.903 254.786 115.109 263.91 127.984 273.813C128.837 274.468 129.211 286.172 129.201 286.278L124.704 327.259L124.714 327.262ZM124.699 327.411V327.426C124.699 327.426 124.699 327.416 124.699 327.411Z" fill="#161616"/>
<path d="M152.231 224.776L150.263 244.223C149.984 246.603 151.793 248.715 154.188 248.809L159.991 249.034C162.339 249.125 164.284 247.238 164.264 244.888L164.122 226.316L152.228 224.773L152.231 224.776Z" fill="white"/>
<path d="M160.155 249.601C160.091 249.601 160.031 249.601 159.968 249.596L154.165 249.371C152.867 249.32 151.64 248.726 150.795 247.739C149.951 246.753 149.553 245.448 149.703 244.157L151.668 224.718C151.683 224.566 151.759 224.43 151.878 224.336C151.997 224.243 152.149 224.2 152.298 224.22L164.192 225.763C164.47 225.798 164.677 226.033 164.68 226.314L164.822 244.886C164.832 246.176 164.328 247.383 163.403 248.281C162.522 249.136 161.374 249.601 160.155 249.601ZM152.728 225.409L150.818 244.284C150.702 245.288 150.995 246.254 151.648 247.016C152.298 247.777 153.209 248.217 154.21 248.255L160.013 248.48C160.995 248.521 161.92 248.164 162.626 247.481C163.329 246.798 163.714 245.883 163.706 244.901L163.57 226.818L152.733 225.411L152.728 225.409Z" fill="#161616"/>
<path d="M161.587 200.832C156.925 201.462 156.288 206.726 150.718 207.34C148.165 207.624 146.883 206.675 144.621 207.76C143.124 208.479 140.944 210.211 140.721 212.503C140.435 215.422 143.637 216.054 146.906 221.675C149.2 225.624 149.339 228.265 151.165 228.553C153.012 228.841 153.839 226.291 155.88 226.456C158.521 226.668 158.865 231.08 161.653 232.395C163.411 233.225 167.089 233.053 172.287 229.165C173.129 228.535 173.402 227.392 172.934 226.451C172.335 225.244 171.568 223.724 170.713 222.333C166.643 215.7 163.77 214.582 164.337 212.549C165.207 209.435 170.923 210.014 171.364 207.507C171.821 204.904 166.378 200.184 161.59 200.832H161.587Z" fill="#161616"/>
<path d="M155.172 213.517C155.172 213.517 159.267 222.125 160.838 224.276C162.411 226.426 169.441 222.062 169.441 222.062L169.613 220.512L170.453 219.965C170.713 219.796 170.883 219.518 170.916 219.206C170.946 218.898 170.837 218.589 170.617 218.372C168.922 216.69 165.325 212.875 163.577 209.162C163.577 209.162 158.825 207.953 155.172 213.52V213.517Z" fill="white"/>
<path d="M162.328 225.424C161.509 225.424 160.816 225.194 160.386 224.604C158.8 222.437 154.833 214.109 154.664 213.758C154.58 213.581 154.593 213.373 154.702 213.209C158.531 207.376 163.504 208.56 163.714 208.615C163.876 208.656 164.013 208.767 164.084 208.919C165.819 212.609 169.507 216.477 171.01 217.969C171.354 218.311 171.52 218.781 171.472 219.259C171.424 219.74 171.164 220.168 170.759 220.431L170.139 220.833L169.995 222.12C169.977 222.292 169.879 222.444 169.735 222.535C168.786 223.125 164.916 225.421 162.326 225.421L162.328 225.424ZM155.815 213.563C156.541 215.073 159.928 222.077 161.291 223.944C162.131 225.09 166.244 223.34 168.915 221.726L169.057 220.448C169.074 220.281 169.168 220.132 169.307 220.041L170.147 219.495C170.266 219.416 170.342 219.292 170.357 219.151C170.372 219.009 170.321 218.87 170.22 218.769C168.343 216.907 164.977 213.285 163.193 209.657C162.24 209.516 158.736 209.329 155.812 213.566L155.815 213.563Z" fill="#161616"/>
<path d="M156.661 220.51C156.661 220.51 153.428 216.552 151.939 218.403C150.449 220.255 154.116 224.522 156.661 220.51Z" fill="white"/>
<path d="M489.96 380.571L421.789 398.753L353.814 380.487C353.687 380.454 353.687 380.273 353.814 380.238L422.592 361.865L489.96 380.38C490.057 380.407 490.055 380.545 489.96 380.571Z" fill="white"/>
<path d="M421.791 399.247C421.749 399.247 421.704 399.24 421.662 399.229L353.687 380.963C353.418 380.892 353.227 380.645 353.227 380.363C353.227 380.08 353.416 379.836 353.689 379.762L422.465 361.39C422.549 361.367 422.638 361.367 422.723 361.39L490.091 379.905C490.349 379.976 490.527 380.212 490.527 380.479C490.527 380.745 490.344 380.979 490.086 381.048L421.918 399.229C421.875 399.24 421.833 399.247 421.791 399.247ZM355.257 380.365L421.791 398.244L488.427 380.472L422.589 362.379L355.255 380.367L355.257 380.365ZM353.94 380.011H353.943C353.943 380.011 353.943 380.011 353.94 380.011Z" fill="#161616"/>
<path d="M421.734 495.53L421.799 398.6L490.59 380.412L490.526 476.915L421.734 495.53Z" fill="white"/>
<path d="M449.766 488.431L449.83 391.501L468.757 386.41L468.692 482.913L449.766 488.431Z" fill="#161616"/>
<path d="M421.736 496.024C421.629 496.024 421.522 495.988 421.436 495.922C421.313 495.828 421.242 495.684 421.242 495.53L421.307 398.601C421.307 398.378 421.458 398.182 421.674 398.125L490.465 379.937C490.616 379.897 490.772 379.93 490.892 380.023C491.014 380.117 491.083 380.261 491.083 380.415L491.019 476.917C491.019 477.14 490.87 477.335 490.654 477.393L421.863 496.008C421.82 496.019 421.776 496.026 421.734 496.026L421.736 496.024ZM422.294 398.981L422.23 494.887L490.036 476.539L490.1 381.053L422.294 398.981Z" fill="#161616"/>
<path d="M421.731 495.532L421.795 398.603L353.627 380.299L353.562 476.917L421.731 495.532Z" fill="white"/>
<path d="M374.846 385.707L374.781 482.074L392.989 487.747L393.054 391.332L374.846 385.707Z" fill="#161616"/>
<path d="M420.746 495.717C420.615 495.717 420.482 495.7 420.35 495.664L353.441 477.394C353.227 477.336 353.078 477.14 353.078 476.918L353.143 380.882C353.143 380.589 353.278 380.317 353.512 380.137C353.745 379.957 354.041 379.899 354.326 379.977L421.934 398.13C422.15 398.187 422.299 398.383 422.299 398.606L422.234 494.23C422.234 494.699 422.021 495.13 421.647 495.413C421.382 495.613 421.069 495.72 420.746 495.72V495.717ZM354.063 476.54L420.611 494.712C420.762 494.752 420.924 494.723 421.049 494.628C421.173 494.532 421.247 494.385 421.247 494.227L421.311 398.981L354.128 380.945L354.063 476.542V476.54Z" fill="#161616"/>
<path d="M375.108 398.658L388.652 393.957C389.927 393.514 391.203 394.617 390.95 395.943L388.897 406.676C388.566 408.404 390.703 409.487 391.902 408.199L414.271 384.169C415.174 383.199 414.716 381.618 413.437 381.28L395.191 376.44C394.608 376.284 393.986 376.44 393.545 376.854L373.333 395.722C371.948 397.015 373.316 399.283 375.106 398.66L375.108 398.658Z" fill="white"/>
<path d="M390.642 409.261C390.295 409.261 389.944 409.178 389.608 409.007C388.692 408.542 388.225 407.59 388.418 406.583L390.471 395.85C390.558 395.403 390.402 394.958 390.057 394.66C389.713 394.362 389.25 394.273 388.819 394.422L375.274 399.124C374.087 399.537 373.081 398.937 372.614 398.161C372.145 397.384 372.085 396.217 373.006 395.358L393.218 376.49C393.787 375.958 394.574 375.762 395.326 375.96L413.572 380.8C414.341 381.004 414.933 381.583 415.153 382.348C415.373 383.113 415.182 383.918 414.639 384.501L392.27 408.531C391.825 409.007 391.245 409.256 390.644 409.256L390.642 409.261ZM389.241 393.363C389.768 393.363 390.284 393.552 390.702 393.913C391.316 394.444 391.592 395.236 391.441 396.034L389.388 406.768C389.257 407.455 389.646 407.922 390.055 408.129C390.464 408.335 391.071 408.375 391.547 407.864L413.917 383.833C414.221 383.506 414.33 383.055 414.206 382.626C414.081 382.197 413.75 381.872 413.318 381.756L395.072 376.917C394.648 376.803 394.207 376.917 393.889 377.212L373.677 396.081C373.126 396.595 373.215 397.249 373.457 397.653C373.7 398.058 374.238 398.439 374.95 398.194L388.494 393.492C388.738 393.408 388.992 393.366 389.239 393.366L389.241 393.363Z" fill="#161616"/>
<path d="M445.441 345.165L432.017 353.338C431.065 353.919 429.849 353.209 429.884 352.095L430.344 337.695C430.391 336.225 428.432 335.682 427.716 336.967L409.521 369.647C409.125 370.359 409.416 371.26 410.157 371.602L426.337 379.117C426.984 379.417 427.753 379.184 428.125 378.577L447.369 347.098C448.137 345.841 446.7 344.402 445.441 345.167V345.165Z" fill="white"/>
<path d="M426.927 379.741C426.658 379.741 426.387 379.683 426.129 379.563L409.949 372.05C409.473 371.828 409.106 371.416 408.944 370.916C408.782 370.416 408.835 369.866 409.091 369.408L427.285 336.728C427.719 335.95 428.586 335.587 429.447 335.823C430.306 336.061 430.866 336.819 430.837 337.711L430.377 352.112C430.366 352.452 430.535 352.757 430.828 352.928C431.122 353.099 431.471 353.095 431.76 352.919L445.184 344.746C445.947 344.281 446.881 344.394 447.513 345.026C448.142 345.658 448.254 346.594 447.789 347.355L428.544 378.833C428.188 379.414 427.568 379.741 426.925 379.741H426.927ZM428.922 336.737C428.642 336.737 428.34 336.859 428.146 337.209L409.951 369.888C409.827 370.113 409.802 370.369 409.88 370.613C409.958 370.858 410.132 371.049 410.363 371.158L426.543 378.671C426.963 378.867 427.461 378.716 427.704 378.32L446.948 346.841C447.224 346.389 447.061 345.967 446.815 345.722C446.57 345.478 446.147 345.313 445.696 345.589L432.272 353.762C431.667 354.131 430.942 354.138 430.33 353.78C429.719 353.424 429.367 352.788 429.389 352.081L429.85 337.68C429.865 337.153 429.516 336.866 429.183 336.773C429.1 336.751 429.011 336.737 428.92 336.737H428.922Z" fill="#161616"/>
<path d="M411.086 382.712L422.139 373.524C422.139 373.524 417.189 347.639 396.025 343.921C387.903 342.493 379.069 345.371 371.294 357.701C365.091 367.535 376.978 378.847 411.086 382.714V382.712Z" fill="white"/>
<path d="M411.091 383.203C411.073 383.203 411.053 383.203 411.035 383.199C388.888 380.688 373.994 374.683 370.171 366.723C368.714 363.69 368.961 360.478 370.881 357.434C377.826 346.42 386.315 341.712 396.114 343.431C417.367 347.165 422.578 373.166 422.627 373.429C422.66 373.604 422.596 373.785 422.458 373.9L411.404 383.088C411.315 383.161 411.204 383.201 411.089 383.201L411.091 383.203ZM392.278 344.076C384.438 344.076 377.537 348.731 371.715 357.961C369.96 360.743 369.74 363.55 371.058 366.299C374.719 373.922 389.246 379.714 410.935 382.198L421.597 373.335C420.974 370.533 415.343 347.815 395.941 344.405C394.698 344.187 393.474 344.076 392.273 344.076H392.278Z" fill="#161616"/>
<path d="M411.092 382.707C411.092 382.707 407.442 359.51 386.843 354.687C366.244 349.863 355.193 376.371 411.092 382.707Z" fill="white"/>
<path d="M411.088 383.199C411.071 383.199 411.051 383.199 411.033 383.194C378.847 379.547 371.737 369.821 370.173 365.809C369.028 362.871 369.504 359.976 371.516 357.658C374.612 354.089 380.673 352.734 386.953 354.204C407.635 359.048 411.54 382.391 411.576 382.627C411.6 382.778 411.551 382.934 411.444 383.045C411.351 383.143 411.222 383.197 411.088 383.197V383.199ZM381.983 354.602C377.908 354.602 374.339 355.908 372.259 358.305C370.5 360.334 370.084 362.871 371.092 365.451C372.048 367.906 374.739 371.569 382.121 375.063C389.106 378.37 398.645 380.75 410.479 382.138C409.694 378.388 404.848 359.408 386.729 355.165C385.112 354.787 383.511 354.602 381.985 354.602H381.983Z" fill="#161616"/>
<path d="M411.211 382.318L423.75 370.391C423.75 370.391 439.078 354.178 454.59 361.083C463.607 365.098 466.658 373.771 467.505 381.2C467.514 381.269 467.521 381.337 467.528 381.406C468.059 386.615 464.781 391.461 459.797 393.069L444.927 397.866C444.927 397.866 430.524 400.344 411.211 382.316V382.318Z" fill="white"/>
<path d="M442.891 398.491C438.177 398.491 426.085 396.876 410.874 382.678C410.774 382.585 410.719 382.456 410.719 382.32C410.719 382.185 410.774 382.053 410.872 381.96L423.411 370.032C423.549 369.886 439.142 353.661 454.792 360.632C464.253 364.844 467.193 374.109 467.996 381.141L468.018 381.357C468.566 386.728 465.172 391.852 459.947 393.538L445.078 398.335C445.055 398.342 445.033 398.349 445.011 398.351C444.884 398.373 444.152 398.489 442.891 398.489V398.491ZM411.931 382.313C430.197 399.16 444.066 397.492 444.813 397.386L459.645 392.602C464.429 391.058 467.538 386.372 467.035 381.459L467.015 381.266C466.241 374.48 463.424 365.558 454.39 361.534C439.38 354.856 424.259 370.571 424.107 370.731L411.931 382.313Z" fill="#161616"/>
<path d="M411.211 382.325C411.211 382.325 427.228 366.737 443.188 375.773C464.819 388.02 448.103 414.649 411.211 382.325Z" fill="white"/>
<path d="M441.762 398.261C433.437 398.261 422.393 392.774 410.888 382.695C410.783 382.604 410.723 382.475 410.719 382.337C410.715 382.199 410.77 382.066 410.868 381.97C411.03 381.812 427.335 366.228 443.432 375.342C449.902 379.005 453.578 384.274 453.271 389.436C453.062 392.926 450.972 395.752 447.535 397.187C445.81 397.907 443.872 398.261 441.762 398.261ZM411.951 382.315C432.634 400.269 444.115 397.549 447.155 396.277C450.231 394.992 452.101 392.476 452.288 389.376C452.568 384.67 448.99 379.622 442.947 376.199C428.854 368.219 414.495 380.046 411.951 382.313V382.315Z" fill="#161616"/>
<path d="M187.266 189.068C195.354 180.979 195.354 167.865 187.266 159.776C179.177 151.687 166.063 151.687 157.974 159.776C149.885 167.865 149.885 180.979 157.974 189.068C166.063 197.156 179.177 197.156 187.266 189.068Z" fill="white"/>
<path d="M172.62 195.629C160.928 195.629 151.414 186.117 151.414 174.423C151.414 162.729 160.926 153.217 172.62 153.217C184.314 153.217 193.826 162.729 193.826 174.423C193.826 186.117 184.314 195.629 172.62 195.629ZM172.62 154.204C161.471 154.204 152.402 163.274 152.402 174.423C152.402 185.572 161.471 194.641 172.62 194.641C183.769 194.641 192.839 185.572 192.839 174.423C192.839 163.274 183.769 154.204 172.62 154.204Z" fill="#161616"/>
<path d="M172.736 184.843C172.532 184.969 172.274 184.976 172.065 184.858C170.239 183.837 161.772 178.735 162.103 172.063C162.452 165.011 170.107 166.234 171.998 169.704C172.069 169.835 172.211 169.915 172.36 169.906C172.509 169.897 172.643 169.806 172.698 169.666C173.626 167.437 176.619 165.823 179.439 166.881C182.802 168.145 186.221 176.487 172.738 184.843H172.736Z" fill="#161616"/>
<rect x="0.5" y="0.5" width="587" height="587" rx="11.5" stroke="#F2F2F2"/>
</svg>
