<svg width="16" height="16" viewBox="0 0 16 16" fill="none" xmlns="http://www.w3.org/2000/svg">
<path d="M8 14C7.17 14 6.39 13.8424 5.66 13.5272C4.93 13.212 4.295 12.7846 3.755 12.245C3.215 11.705 2.7876 11.07 2.4728 10.34C2.158 9.61 2.0004 8.83 2 8C2 7.17 2.1576 6.39 2.4728 5.66C2.788 4.93 3.2154 4.295 3.755 3.755C4.295 3.215 4.93 2.7876 5.66 2.4728C6.39 2.158 7.17 2.0004 8 2C8.83 2 9.61 2.1576 10.34 2.4728C11.07 2.788 11.705 3.2154 12.245 3.755C12.785 4.295 13.2126 4.93 13.5278 5.66C13.843 6.39 14.0004 7.17 14 8V8.87C14 9.46 13.7976 9.9626 13.3928 10.3778C12.988 10.793 12.4904 11.0004 11.9 11C11.55 11 11.22 10.925 10.91 10.775C10.6 10.625 10.34 10.41 10.13 10.13C9.84 10.42 9.5124 10.6376 9.1472 10.7828C8.782 10.928 8.3996 11.0004 8 11C7.17 11 6.4624 10.7074 5.8772 10.1222C5.292 9.537 4.9996 8.8296 5 8C5 7.17 5.2926 6.4624 5.8778 5.8772C6.463 5.292 7.1704 4.9996 8 5C8.83 5 9.5376 5.2926 10.1228 5.8778C10.708 6.463 11.0004 7.1704 11 8V8.87C11 9.13 11.085 9.35 11.255 9.53C11.425 9.71 11.64 9.8 11.9 9.8C12.16 9.8 12.375 9.71 12.545 9.53C12.715 9.35 12.8 9.13 12.8 8.87V8C12.8 6.66 12.335 5.525 11.405 4.595C10.475 3.665 9.34 3.2 8 3.2C6.66 3.2 5.525 3.665 4.595 4.595C3.665 5.525 3.2 6.66 3.2 8C3.2 9.34 3.665 10.475 4.595 11.405C5.525 12.335 6.66 12.8 8 12.8H11V14H8ZM8 9.8C8.5 9.8 8.925 9.625 9.275 9.275C9.625 8.925 9.8 8.5 9.8 8C9.8 7.5 9.625 7.075 9.275 6.725C8.925 6.375 8.5 6.2 8 6.2C7.5 6.2 7.075 6.375 6.725 6.725C6.375 7.075 6.2 7.5 6.2 8C6.2 8.5 6.375 8.925 6.725 9.275C7.075 9.625 7.5 9.8 8 9.8Z" fill="white"/>
</svg>
