<svg xmlns="http://www.w3.org/2000/svg" width="82" height="82" fill="none"><path fill="#f5f8f6" d="M0 0h82v82H0z"/><g fill="#c0cfc8"><path d="M82 1h-6V0h6zm0 80h-6v1h6zM0 1h6V0H0zm0 80h6v1H0z"/><path d="M82 0v6h-1V0zm0 82v-6h-1v6zM0 0v6h1V0zm0 82v-6h1v6z"/></g><path d="M56.687 29.428l-4.433-3.868v2.003l-9.043.074v3.52l9.014.191-.03 2.209 4.492-4.129z" fill="#c9ffe8"/><g fill="#0f5251"><path d="M56.466 35.56h-8.704v-2.003l-4.551 3.737 4.58 3.878v-2.136l8.675.044v-3.52zm-19.791-2.339h1.282v1.182c1.431.172 2.358.982 2.78 2.43l-1.765.724c-.344-.993-.877-1.49-1.598-1.49-.361 0-.651.111-.87.333s-.329.491-.329.807c0 .322.105.569.316.741s.663.386 1.357.641c.76.278 1.357.54 1.79.787s.778.588 1.036 1.024.387.944.387 1.527c0 .893-.267 1.638-.799 2.235s-1.302.947-2.305 1.053v1.532h-1.282v-1.523c-1.675-.172-2.713-1.146-3.113-2.921l1.981-.516c.183 1.115.791 1.673 1.823 1.673.483 0 .838-.119 1.065-.358a1.21 1.21 0 0 0 .341-.866c0-.35-.114-.614-.341-.795s-.733-.409-1.515-.686c-.705-.244-1.255-.485-1.652-.724a2.72 2.72 0 0 1-.965-1.003c-.246-.43-.37-.931-.37-1.502a3.33 3.33 0 0 1 .662-2.023c.441-.6 1.136-.965 2.085-1.099v-1.183zm15.564.842a.7.7 0 0 1-.296-.065c-.248-.115-.407-.364-.407-.638v-1.48h-8.379c-.388 0-.703-.315-.703-.703v-3.5c0-.389.315-.703.703-.703h8.379v-1.48c0-.274.159-.523.407-.638s.541-.076.75.101l4.644 3.931c.158.134.249.33.249.537s-.091.403-.248.537l-4.644 3.936a.71.71 0 0 1-.455.167zm-8.378-3.59h8.379c.388 0 .703.315.703.703v.665l2.852-2.417-2.852-2.414v.666c0 .389-.315.703-.703.703h-8.38v2.093z"/><path d="M47.816 41.931a.7.7 0 0 1-.454-.166l-4.644-3.931c-.158-.134-.249-.33-.249-.537s.091-.403.248-.537l4.644-3.936a.7.7 0 0 1 .751-.101c.248.115.407.364.407.638v1.48h8.379c.389 0 .703.315.703.703v3.5c0 .389-.315.703-.703.703h-8.379v1.48c0 .274-.159.523-.407.638a.7.7 0 0 1-.296.065zm-3.556-4.634l2.852 2.414v-.666c0-.389.315-.703.703-.703h8.379v-2.093h-8.379c-.388 0-.703-.315-.703-.703v-.665l-2.852 2.417zm6.102-11.425V23.1a4.11 4.11 0 0 0-4.104-4.1H29.097C26.838 19 25 20.838 25 23.1v35.255C25 60.918 27.086 63 29.652 63h16.062a4.65 4.65 0 0 0 4.648-4.645V41.732c0-.389-.315-.703-.703-.703s-.703.315-.703.703V56.84H26.407V25.872h23.955zM26.407 23.1c0-1.485 1.209-2.693 2.69-2.693h17.161a2.7 2.7 0 0 1 2.697 2.694v1.364H26.407V23.1zm22.548 35.146v.109c0 1.785-1.453 3.238-3.241 3.238H29.652c-1.789 0-3.245-1.453-3.245-3.238v-.109h22.548z"/></g></svg>