<svg xmlns="http://www.w3.org/2000/svg" width="82" height="82" fill="none"><path fill="#fafafa" d="M0 0h82v82H0z"/><path d="M27.945 68c-2.207 0-3.997-1.787-3.997-3.98V17.984c0-2.196 1.79-3.984 3.997-3.984H52.62c2.204 0 3.994 1.787 3.994 3.984V64.02c0 2.193-1.79 3.98-3.994 3.98H27.945zm24.675-1.973a2.02 2.02 0 0 0 2.021-2.007V17.984c0-1.114-.91-2.007-2.021-2.007H27.945a2.01 2.01 0 0 0-2.018 2.007V64.02c0 1.107.904 2.007 2.018 2.007H52.62zM39.1 64.295a.99.99 0 0 1-.99-.99c0-.543.441-.983.99-.983h2.118a.99.99 0 0 1 .993.983c0 .547-.445.99-.993.99H39.1zm-7.822-3.63a3.31 3.31 0 0 1-3.314-3.303V23.384c0-1.829 1.486-3.31 3.314-3.31h17.849c1.831 0 3.318 1.482 3.318 3.31v33.978c0 1.825-1.487 3.303-3.318 3.303H31.277zm17.849-1.97a1.34 1.34 0 0 0 1.345-1.334V23.384c0-.742-.604-1.341-1.345-1.341H31.277a1.34 1.34 0 0 0-1.338 1.341v33.978a1.34 1.34 0 0 0 1.338 1.334h17.849zm-29.214-8.332a.63.63 0 0 1-.193-.031C13.822 48.882 10.976 43.482 11 38.36c.017-5.139 2.921-10.374 8.781-11.429a.99.99 0 0 1 1.145.797c.097.533-.262 1.045-.8 1.141-4.674.842-7.133 5.008-7.153 9.494-.017 4.472 2.411 8.872 7.222 10.061.528.131.852.667.717 1.196-.117.457-.535.763-1 .742zm41.172 0a.99.99 0 0 1-1-.742c-.134-.529.193-1.066.724-1.196 4.801-1.186 7.233-5.579 7.215-10.061-.017-4.465-2.459-8.648-7.153-9.494-.538-.096-.897-.609-.8-1.141a.99.99 0 0 1 1.149-.797c5.867 1.055 8.757 6.307 8.781 11.429.017 5.132-2.828 10.525-8.719 11.972-.066.021-.128.031-.197.031zm-20.667-1.2a.92.92 0 0 1-.921-.921l-.003-.182-1.787-.426c-.635-.227-1.245-.526-1.814-.89a1.03 1.03 0 0 1-.303-1.423c.31-.474.949-.612 1.425-.303.41.265.848.481 1.293.65l1.19.316-.003-4.987-1.083-.471c-.39-.192-.759-.416-1.1-.677-.966-.749-1.638-1.822-1.638-3.348 0-2.062 1.58-3.437 3.37-3.877l.455-.093v-.344a.92.92 0 0 1 .921-.921.93.93 0 0 1 .924.921l.024.354 1.7.457a6.95 6.95 0 0 1 1.776 1.107 1.02 1.02 0 0 1 .11 1.44c-.369.433-1.021.485-1.449.113a5.1 5.1 0 0 0-1.128-.718l-1.035-.326-.003 4.874.048.017c.859.299 1.828.65 2.601 1.155.952.626 1.711 1.567 1.711 2.994 0 2.482-1.656 3.915-3.673 4.348l-.683.103v.138c0 .509-.417.921-.924.921zm-20.022-3.056c-.062 0-.131-.01-.2-.027-3.746-.928-5.567-4.341-5.56-7.617.017-3.31 1.897-6.603 5.625-7.273.535-.1 1.052.258 1.149.794.096.529-.262 1.045-.797 1.145-2.656.478-3.987 2.877-3.997 5.345-.014 2.544 1.369 5.029 4.056 5.696a.99.99 0 0 1 .724 1.196c-.114.461-.542.763-1 .742zm40.206 0a.99.99 0 0 1-1.004-.742.99.99 0 0 1 .728-1.196c2.697-.667 4.066-3.166 4.06-5.696-.01-2.461-1.338-4.867-4.001-5.345a.99.99 0 0 1-.793-1.145.98.98 0 0 1 1.145-.794c3.718.667 5.612 3.953 5.625 7.273.014 3.265-1.793 6.689-5.56 7.617-.069.017-.135.027-.2.027zm-19.26-.065l.248-.048c1.262-.268 2.042-1.011 2.042-2.341 0-.56-.234-.921-.779-1.286-.231-.148-.493-.282-.79-.409l-.71-.278-.01 4.362zm-1.845-7.29v-4.125l-.738.285c-.669.364-1.028.938-1.028 1.588 0 .818.314 1.313.845 1.729l.921.523zm-6.991-9.545c-.303 0-.604-.117-.838-.34a1.19 1.19 0 0 1 0-1.667l3.249-3.231c.462-.464 1.207-.464 1.669 0a1.17 1.17 0 0 1 0 1.664l-3.245 3.235c-.231.223-.535.34-.835.34zm15.793-10.281a.99.99 0 0 1-.99-.986.99.99 0 0 1 .99-.986h2.125a.99.99 0 0 1 .99.986.99.99 0 0 1-.99.986h-2.125z" fill="#161616"/><g fill="#d0d0d0"><path d="M82 1h-6V0h6zm0 80h-6v1h6zM0 1h6V0H0zm0 80h6v1H0z"/><path d="M82 0v6h-1V0zm0 82v-6h-1v6zM0 0v6h1V0zm0 82v-6h1v6z"/></g></svg>