<svg width="215" height="28" viewBox="0 0 215 28" fill="none" xmlns="http://www.w3.org/2000/svg">
<path d="M207.539 5.24023V5.56973H208.835V9.40956H209.155V5.56973H210.451V5.24023H207.539ZM211.162 5.24023V9.40323H211.475V5.68379L213.025 8.95334H213.211L214.773 5.68379L214.785 9.40323H215.086V5.24023H214.64L213.127 8.4401L211.602 5.24023H211.156H211.162Z" fill="white"/>
<path d="M91.3513 0.132812H90.4531V28.1079H91.3513V0.132812Z" fill="white"/>
<path d="M23.2731 11.0229C22.0675 9.92671 20.5967 9.37544 18.8727 9.37544C17.1487 9.37544 15.6477 9.99007 14.3758 11.2193C13.1039 12.4486 12.471 14.1024 12.471 16.1807C12.471 16.2377 12.471 16.2948 12.477 16.3518C12.2841 15.5217 11.9285 14.8311 11.3739 14.3115C10.518 13.5068 9.31236 12.9111 7.76317 12.5056C6.21399 12.1064 5.2254 11.7579 4.79742 11.4601C4.36943 11.1686 4.15243 10.7694 4.15243 10.2689C4.15243 9.7683 4.32724 9.36911 4.67686 9.06497C5.02648 8.76082 5.50872 8.60875 6.11152 8.60875C7.62453 8.60875 9.0833 9.17268 10.4999 10.3006L12.3444 7.49988C11.5367 6.77754 10.5843 6.22627 9.4932 5.83342C8.40214 5.44056 7.31108 5.24414 6.22002 5.24414C4.5563 5.24414 3.16384 5.68768 2.04867 6.56844C0.933498 7.44919 0.378924 8.71013 0.378924 10.3386C0.378924 11.967 0.818966 13.1646 1.69905 13.925C2.57913 14.6853 3.96556 15.3063 5.87039 15.7815C7.06996 16.092 7.87168 16.4025 8.27555 16.7003C8.67942 17.0044 8.88437 17.41 8.88437 17.9295C8.88437 18.4491 8.69148 18.8546 8.31172 19.1588C7.93196 19.4629 7.40753 19.615 6.7324 19.615C5.23746 19.615 3.60991 18.804 1.84975 17.1818L-0.320312 19.9825C1.7533 21.9975 4.08009 23.005 6.66609 23.005C8.45639 23.005 9.9031 22.5234 11.0002 21.5666C12.0671 20.6352 12.6097 19.4313 12.6398 17.9549C12.905 19.2222 13.4596 20.293 14.3276 21.1548C15.5754 22.3903 17.1487 23.0113 19.0596 23.0113C20.9704 23.0113 22.6281 22.308 24.0447 20.9013L22.0796 18.6646C21.2839 19.5326 20.2712 19.9635 19.0415 19.9635C18.2759 19.9635 17.5948 19.7354 16.9859 19.2792C16.3771 18.823 16.0215 18.2337 15.913 17.5113H25.0694V15.5471C25.0694 13.6335 24.4666 12.1254 23.2611 11.0292L23.2731 11.0229ZM16.0215 14.8754C16.1119 14.1214 16.4495 13.5258 17.0281 13.0822C17.6008 12.6387 18.2398 12.4169 18.933 12.4169C19.6262 12.4169 20.2109 12.6323 20.6992 13.0569C21.1814 13.4814 21.4647 14.0897 21.5431 14.8754H16.0335H16.0215Z" fill="white"/>
<path d="M82.0778 5.23828V11.0677C81.1133 9.93987 79.8656 9.37593 78.3405 9.37593C76.8154 9.37593 75.4832 10.0032 74.3439 11.2515C73.4759 12.2083 72.9394 13.3805 72.7345 14.7555C72.5958 13.1968 72.0051 11.9422 70.9622 10.9917C69.7567 9.89551 68.2858 9.34425 66.5618 9.34425C64.8378 9.34425 63.3369 9.95887 62.065 11.1881C60.7931 12.4174 60.1602 14.0712 60.1602 16.1495C60.1602 18.2278 60.781 19.888 62.0288 21.1236C63.2766 22.3591 64.8499 22.9801 66.7608 22.9801C68.6716 22.9801 70.3293 22.2768 71.7459 20.8701L69.7868 18.6334C68.9911 19.5014 67.9784 19.9323 66.7487 19.9323C65.9832 19.9323 65.302 19.7042 64.6932 19.248C64.0843 18.7918 63.7287 18.2025 63.6202 17.4801H72.7525C72.9696 18.8425 73.5181 20.021 74.3982 21.0158C75.5676 22.3401 76.8938 23.0055 78.3827 23.0055C79.8716 23.0055 81.1013 22.3591 82.0838 21.0665V23.0055H85.5861V5.23828H82.0838H82.0778ZM63.7106 14.8505C63.801 14.0965 64.1386 13.5009 64.7173 13.0574C65.2899 12.6138 65.9289 12.392 66.6221 12.392C67.3153 12.392 67.9 12.6075 68.3883 13.032C68.8706 13.4565 69.1539 14.0648 69.2322 14.8505H63.7227H63.7106ZM81.2701 18.8425C80.7034 19.5204 80.0102 19.8626 79.2025 19.8626C78.3947 19.8626 77.6834 19.5204 77.0746 18.8425C76.4658 18.1645 76.1644 17.2901 76.1644 16.2255C76.1644 15.161 76.4597 14.2676 77.0505 13.5516C77.6412 12.8293 78.3525 12.4681 79.1784 12.4681C80.0042 12.4681 80.7034 12.8229 81.2701 13.5389C81.8367 14.2486 82.12 15.142 82.12 16.2129C82.12 17.2837 81.8367 18.1581 81.2701 18.8425Z" fill="white"/>
<path d="M60.2367 19.1914C59.8449 19.5779 59.3988 19.7871 58.8804 19.7871C58.5368 19.7871 58.2414 19.6413 57.9943 19.3562C57.7471 19.071 57.6205 18.6719 57.6205 18.1649V12.3925H60.6586V9.37007H57.6205V5.63795C57.6205 5.50489 57.6205 5.36549 57.6205 5.23242H54.0942V9.37007H52.6234V11.252C52.0326 10.707 51.3695 10.2698 50.6341 9.95935C49.7058 9.5665 48.7956 9.37007 47.8914 9.37007C46.083 9.37007 44.5218 10.0037 43.2077 11.271C42.2794 12.1644 41.6887 13.2479 41.4114 14.5215C41.2305 13.0832 40.6518 11.911 39.6693 11.0175C38.4637 9.92133 36.9929 9.37007 35.2689 9.37007C33.5449 9.37007 32.0439 9.9847 30.772 11.214C29.5001 12.4432 28.8672 14.097 28.8672 16.1753C28.8672 18.2537 29.4881 19.9138 30.7358 21.1494C31.9836 22.385 33.5569 23.0059 35.4678 23.0059C37.3787 23.0059 39.0364 22.3026 40.4529 20.8959L38.4878 18.6592C37.6921 19.5273 36.6794 19.9581 35.4497 19.9581C34.6842 19.9581 34.003 19.73 33.3942 19.2738C32.7854 18.8176 32.4297 18.2283 32.3212 17.506H41.333C41.556 18.9443 42.1709 20.1546 43.1836 21.1304C44.4856 22.385 46.077 23.0059 47.9577 23.0059C49.8384 23.0059 51.5926 22.1188 53.2141 20.351L51.1345 17.8988C50.2001 19.1281 49.1513 19.7427 47.9818 19.7427C47.0957 19.7427 46.3181 19.4322 45.6551 18.8112C44.992 18.1903 44.6604 17.3159 44.6604 16.1943C44.6604 15.0728 44.992 14.1984 45.6551 13.5647C46.3181 12.9374 47.1078 12.6206 48.024 12.6206C48.5967 12.6206 49.1814 12.76 49.7661 13.0388C50.3508 13.3176 50.8451 13.7105 51.249 14.2174L52.5691 12.3988H54.0882V18.3424C54.0882 19.7807 54.5041 20.9213 55.3359 21.7577C56.1678 22.5941 57.1865 23.0123 58.3981 23.0123C59.6098 23.0123 60.6888 22.5054 61.7557 21.5105C61.7437 21.4979 61.7316 21.4852 61.7135 21.4725C61.0625 20.8262 60.5682 20.0658 60.2306 19.1978L60.2367 19.1914ZM32.4177 14.8764C32.5141 14.1223 32.8456 13.5267 33.4243 13.0832C33.997 12.6396 34.6359 12.4179 35.3292 12.4179C36.0224 12.4179 36.6071 12.6333 37.0953 13.0578C37.5836 13.4824 37.8609 14.0907 37.9393 14.8764H32.4297H32.4177Z" fill="white"/>
<path d="M28.721 5.23828H25.2188V23.0055H28.721V5.23828Z" fill="white"/>
<path d="M107.597 6.84386C106.356 5.78568 104.644 5.25977 102.456 5.25977H96.2227V23.0016H97.4885V17.1975H102.456C104.644 17.1975 106.356 16.6716 107.597 15.6134C108.839 14.5552 109.46 13.0979 109.46 11.2413C109.46 9.38474 108.839 7.90203 107.597 6.84386ZM106.705 14.7897C105.729 15.6197 104.312 16.0316 102.456 16.0316H97.4885V6.42566H102.456C104.312 6.42566 105.723 6.84386 106.705 7.68026C107.682 8.51666 108.17 9.70156 108.17 11.2413C108.17 12.781 107.682 13.9596 106.705 14.7897Z" fill="white"/>
<path d="M119.909 10.6525C119.047 9.80345 117.817 9.37891 116.208 9.37891C115.213 9.37891 114.261 9.54366 113.35 9.87948C112.44 10.2153 111.663 10.6779 111.018 11.2798L111.638 12.2049C112.187 11.6917 112.85 11.2798 113.64 10.9693C114.423 10.6589 115.249 10.5068 116.111 10.5068C117.371 10.5068 118.323 10.8299 118.981 11.4826C119.632 12.1352 119.963 13.0857 119.963 14.3339V15.4111H115.514C113.827 15.4111 112.597 15.7596 111.825 16.4503C111.054 17.141 110.668 18.0471 110.668 19.1623C110.668 20.2775 111.084 21.2342 111.922 21.9376C112.76 22.6409 113.899 22.9894 115.34 22.9894C116.449 22.9894 117.401 22.7677 118.197 22.3368C118.993 21.8996 119.595 21.2849 120.011 20.4992V22.9958H121.205V14.3846C121.205 12.7372 120.777 11.4889 119.915 10.6462L119.909 10.6525ZM119.957 18.9468C119.577 19.9226 119.011 20.6703 118.257 21.1836C117.504 21.6968 116.587 21.9566 115.514 21.9566C114.369 21.9566 113.483 21.7031 112.856 21.1962C112.229 20.6893 111.91 19.9987 111.91 19.1242C111.91 18.2498 112.193 17.6225 112.766 17.1473C113.338 16.6657 114.261 16.425 115.533 16.425H119.951V18.9468H119.957Z" fill="white"/>
<path d="M135.385 9.37743L128.73 24.8128C128.236 26.0104 127.657 26.8595 127.006 27.3664C126.355 27.8669 125.578 28.1204 124.686 28.1204C124.089 28.1204 123.528 28.019 123.01 27.8099C122.485 27.6008 122.045 27.2967 121.684 26.8975L122.304 25.909C122.968 26.6187 123.769 26.9735 124.716 26.9735C125.343 26.9735 125.885 26.7898 126.331 26.4286C126.777 26.0611 127.193 25.4401 127.573 24.553L128.266 22.9119L122.431 9.37109H123.745L128.935 21.5306L134.125 9.37109H135.391L135.385 9.37743Z" fill="white"/>
<path d="M156.52 10.8538C157.436 11.8359 157.9 13.2553 157.9 15.1055V23.007H156.659V15.2069C156.659 13.6862 156.303 12.5329 155.592 11.7346C154.88 10.9425 153.886 10.5433 152.614 10.5433C151.155 10.5433 150.004 11.0186 149.148 11.969C148.298 12.9195 147.87 14.1994 147.87 15.8025V23.007H146.628V15.2069C146.628 13.6862 146.273 12.5329 145.561 11.7346C144.85 10.9425 143.855 10.5433 142.583 10.5433C141.125 10.5433 139.973 11.0186 139.117 11.969C138.261 12.9195 137.839 14.1994 137.839 15.8025V23.007H136.598V9.37743H137.791V12.3809C138.219 11.4304 138.864 10.6954 139.714 10.1631C140.564 9.63722 141.583 9.37109 142.758 9.37109C143.934 9.37109 144.928 9.64989 145.748 10.2012C146.568 10.7524 147.153 11.5635 147.496 12.6343C147.924 11.6332 148.599 10.8411 149.522 10.2518C150.438 9.66257 151.511 9.37109 152.741 9.37109C154.344 9.37109 155.61 9.86533 156.526 10.8475L156.52 10.8538Z" fill="white"/>
<path d="M171.499 16.0889C171.499 14.7773 171.228 13.5987 170.691 12.5659C170.155 11.5268 169.413 10.722 168.479 10.1454C167.545 9.56881 166.49 9.27734 165.314 9.27734C164.139 9.27734 163.078 9.56882 162.138 10.1581C161.191 10.7474 160.456 11.5648 159.913 12.6039C159.377 13.6494 159.105 14.828 159.105 16.1396C159.105 17.4513 159.389 18.6552 159.961 19.688C160.534 20.7271 161.324 21.5382 162.33 22.1211C163.337 22.7104 164.488 23.0019 165.784 23.0019C166.779 23.0019 167.701 22.8118 168.551 22.4316C169.401 22.0515 170.113 21.5065 170.673 20.7968L169.956 19.9414C169.474 20.5624 168.877 21.0376 168.153 21.3545C167.436 21.6776 166.652 21.836 165.809 21.836C164.784 21.836 163.862 21.6142 163.042 21.1644C162.222 20.7145 161.571 20.0808 161.095 19.2571C160.612 18.4397 160.359 17.5019 160.323 16.4438H171.475L171.499 16.0826V16.0889ZM160.347 15.4426C160.414 14.4732 160.667 13.6051 161.107 12.8384C161.547 12.0717 162.132 11.4761 162.861 11.0515C163.59 10.627 164.41 10.4179 165.32 10.4179C166.231 10.4179 167.05 10.6333 167.78 11.0642C168.509 11.4951 169.094 12.0907 169.546 12.8511C169.992 13.6114 170.239 14.4732 170.293 15.4426H160.359H160.347Z" fill="white"/>
<path d="M182.886 10.8538C183.833 11.8359 184.303 13.2553 184.303 15.1055V23.007H183.061V15.2069C183.061 13.6862 182.693 12.5329 181.958 11.7346C181.222 10.9425 180.192 10.5433 178.865 10.5433C177.34 10.5433 176.141 11.0186 175.267 11.969C174.393 12.9195 173.953 14.1994 173.953 15.8025V23.007H172.711V9.37743H173.904V12.4062C174.351 11.4558 175.02 10.7144 175.906 10.1758C176.792 9.63722 177.841 9.37109 179.046 9.37109C180.668 9.37109 181.952 9.86533 182.898 10.8475L182.886 10.8538Z" fill="white"/>
<path d="M194.076 22.0453C193.762 22.3558 193.37 22.5965 192.894 22.7613C192.418 22.926 191.93 23.0084 191.417 23.0084C190.29 23.0084 189.422 22.6852 188.807 22.0326C188.192 21.3863 187.891 20.4802 187.891 19.3206V10.4751H185.504V9.37888H187.891V5.25391H189.133V9.37888H193.256V10.4751H189.133V19.1939C189.133 20.0747 189.338 20.7463 189.742 21.2025C190.145 21.6588 190.748 21.8869 191.544 21.8869C192.34 21.8869 193.027 21.6334 193.557 21.1328L194.082 22.0389L194.076 22.0453Z" fill="white"/>
<path d="M197.009 22.5137C196.063 22.1906 195.327 21.7787 194.797 21.2781L195.37 20.2516C195.9 20.7142 196.581 21.1007 197.419 21.4112C198.257 21.7217 199.131 21.8737 200.041 21.8737C201.349 21.8737 202.314 21.652 202.935 21.2084C203.556 20.7649 203.863 20.1439 203.863 19.3582C203.863 18.7943 203.694 18.3444 203.357 18.0212C203.019 17.6981 202.597 17.4573 202.103 17.2989C201.608 17.1405 200.921 16.9821 200.041 16.811C199.016 16.6209 198.185 16.4181 197.558 16.1964C196.931 15.9746 196.388 15.6134 195.942 15.1192C195.496 14.6249 195.273 13.9343 195.273 13.0599C195.273 11.9953 195.701 11.1209 196.551 10.4239C197.401 9.72693 198.619 9.38477 200.192 9.38477C201.018 9.38477 201.838 9.50515 202.651 9.74593C203.465 9.98672 204.122 10.3035 204.641 10.6964L204.068 11.7229C203.537 11.33 202.935 11.0259 202.253 10.8231C201.572 10.6204 200.879 10.5126 200.168 10.5126C198.962 10.5126 198.046 10.7471 197.437 11.2096C196.822 11.6722 196.521 12.2805 196.521 13.0345C196.521 13.6365 196.696 14.099 197.039 14.4348C197.389 14.7707 197.811 15.0178 198.317 15.1825C198.824 15.3473 199.529 15.5184 200.439 15.7085C201.452 15.8985 202.266 16.1013 202.886 16.3104C203.507 16.5258 204.032 16.8743 204.466 17.3496C204.894 17.8311 205.111 18.4901 205.111 19.3265C205.111 20.4417 204.665 21.3288 203.772 22.0005C202.88 22.6721 201.621 23.0016 199.999 23.0016C198.956 23.0016 197.962 22.8369 197.021 22.5137H197.009Z" fill="white"/>
</svg>
