<svg width="588" height="588" viewBox="0 0 588 588" fill="none" xmlns="http://www.w3.org/2000/svg">
<rect x="0.5" y="0.5" width="587" height="587" rx="11.5" fill="white"/>
<g clip-path="url(#clip0_1034_9639)">
<path d="M345.004 446.914H276.258V224.649H345.004V446.914Z" fill="white"/>
<path d="M276.256 447.429H345.002C345.285 447.429 345.516 447.199 345.516 446.915V224.65C345.516 224.367 345.285 224.137 345.002 224.137H276.256C275.973 224.137 275.743 224.367 275.743 224.65V446.915C275.743 447.199 275.973 447.429 276.256 447.429ZM344.489 446.4H276.77V225.164H344.489V446.4Z" fill="#161616"/>
<path d="M276.305 446.916H245.649V243.869L276.305 224.65V446.916Z" fill="white"/>
<path d="M245.649 447.429H276.307C276.59 447.429 276.82 447.199 276.82 446.915V224.65C276.82 224.464 276.718 224.292 276.555 224.201C276.391 224.11 276.19 224.117 276.032 224.214L245.374 243.433C245.224 243.528 245.133 243.692 245.133 243.869V446.913C245.133 447.196 245.363 447.427 245.646 447.427L245.649 447.429ZM275.791 446.4H246.162V244.154L275.791 225.58V446.4Z" fill="#161616"/>
<path d="M284.453 427.484H296.377C296.66 427.484 296.891 427.254 296.891 426.971V239.316C296.891 239.033 296.66 238.803 296.377 238.803H284.453C284.17 238.803 283.939 239.033 283.939 239.316V426.971C283.939 427.254 284.17 427.484 284.453 427.484ZM295.864 426.455H284.969V239.832H295.864V426.457V426.455Z" fill="#161616"/>
<path d="M316.596 426.971H304.672V239.316H316.596V426.971Z" fill="white"/>
<path d="M336.815 426.971H324.891V239.316H336.815V426.971Z" fill="white"/>
<path d="M246.881 328.568H203.906L203.906 174.117H246.881L246.881 328.568Z" fill="white"/>
<path d="M203.903 329.082H246.877C247.16 329.082 247.391 328.852 247.391 328.568V174.115C247.391 173.832 247.16 173.602 246.877 173.602H203.903C203.62 173.602 203.389 173.832 203.389 174.115V328.566C203.389 328.849 203.62 329.079 203.903 329.079V329.082ZM246.362 328.053H204.416V174.631H246.362V328.055V328.053Z" fill="#161616"/>
<path d="M212.93 193.057H238.635C238.918 193.057 239.148 192.827 239.148 192.544V181.963C239.148 181.679 238.918 181.449 238.635 181.449H212.93C212.646 181.449 212.416 181.679 212.416 181.963V192.544C212.416 192.827 212.646 193.057 212.93 193.057ZM238.122 192.028H213.443V182.476H238.122V192.028Z" fill="#161616"/>
<path d="M203.938 328.57H184.774V185.962L203.938 174.117V328.57Z" fill="white"/>
<path d="M184.776 329.083H203.94C204.223 329.083 204.453 328.853 204.453 328.569V174.116C204.453 173.93 204.351 173.757 204.19 173.667C204.026 173.576 203.827 173.58 203.67 173.678L184.506 185.52C184.354 185.613 184.263 185.779 184.263 185.958V328.567C184.263 328.85 184.493 329.08 184.776 329.08V329.083ZM203.426 328.054H185.292V186.246L203.426 175.039V328.054Z" fill="#161616"/>
<path d="M265.504 446.914H196.758L196.758 199.829H265.504V446.914Z" fill="white"/>
<path d="M196.756 447.429H265.502C265.785 447.429 266.016 447.199 266.016 446.915V199.83C266.016 199.547 265.785 199.316 265.502 199.316H196.756C196.473 199.316 196.243 199.547 196.243 199.83V446.915C196.243 447.199 196.473 447.429 196.756 447.429ZM264.989 446.4H197.27V200.343H264.989V446.4Z" fill="#161616"/>
<path d="M196.805 446.917H166.146V218.776L196.805 199.832V446.917Z" fill="white"/>
<path d="M166.151 447.43H196.807C197.09 447.43 197.32 447.199 197.32 446.916V199.831C197.32 199.645 197.219 199.472 197.057 199.382C196.893 199.291 196.694 199.295 196.537 199.393L165.881 218.339C165.728 218.432 165.637 218.598 165.637 218.777V446.916C165.637 447.199 165.868 447.43 166.151 447.43ZM196.293 446.401H166.664V219.063L196.293 200.754V446.401Z" fill="#161616"/>
<path d="M205.798 223.562H254.838C255.121 223.562 255.352 223.332 255.352 223.048V212.293C255.352 212.009 255.121 211.779 254.838 211.779H205.798C205.514 211.779 205.284 212.009 205.284 212.293V223.048C205.284 223.332 205.514 223.562 205.798 223.562ZM254.325 222.533H206.311V212.804H254.325V222.533Z" fill="#161616"/>
<path d="M205.798 245.9H254.838C255.121 245.9 255.352 245.67 255.352 245.386V234.631C255.352 234.347 255.121 234.117 254.838 234.117H205.798C205.514 234.117 205.284 234.347 205.284 234.631V245.386C205.284 245.67 205.514 245.9 205.798 245.9ZM254.325 244.871H206.311V235.142H254.325V244.871Z" fill="#161616"/>
<path d="M254.837 267.723H205.797V256.967H254.837V267.723Z" fill="white"/>
<path d="M205.798 290.574H254.838C255.121 290.574 255.352 290.343 255.352 290.06V279.304C255.352 279.021 255.121 278.791 254.838 278.791H205.798C205.514 278.791 205.284 279.021 205.284 279.304V290.06C205.284 290.343 205.514 290.574 205.798 290.574ZM254.325 289.545H206.311V279.816H254.325V289.545Z" fill="#161616"/>
<path d="M205.798 312.91H254.838C255.121 312.91 255.352 312.679 255.352 312.396V301.64C255.352 301.357 255.121 301.127 254.838 301.127H205.798C205.514 301.127 205.284 301.357 205.284 301.64V312.396C205.284 312.679 205.514 312.91 205.798 312.91ZM254.325 311.88H206.311V302.152H254.325V311.88Z" fill="#161616"/>
<path d="M205.798 335.249H254.838C255.121 335.249 255.352 335.019 255.352 334.736V323.98C255.352 323.697 255.121 323.467 254.838 323.467H205.798C205.514 323.467 205.284 323.697 205.284 323.98V334.736C205.284 335.019 205.514 335.249 205.798 335.249ZM254.325 334.22H206.311V324.491H254.325V334.22Z" fill="#161616"/>
<path d="M205.798 357.587H254.838C255.121 357.587 255.352 357.357 255.352 357.074V346.318C255.352 346.035 255.121 345.805 254.838 345.805H205.798C205.514 345.805 205.284 346.035 205.284 346.318V357.074C205.284 357.357 205.514 357.587 205.798 357.587ZM254.325 356.558H206.311V346.829H254.325V356.558Z" fill="#161616"/>
<path d="M205.798 379.923H254.838C255.121 379.923 255.352 379.693 255.352 379.41V368.654C255.352 368.371 255.121 368.141 254.838 368.141H205.798C205.514 368.141 205.284 368.371 205.284 368.654V379.41C205.284 379.693 205.514 379.923 205.798 379.923ZM254.325 378.894H206.311V369.165H254.325V378.894Z" fill="#161616"/>
<path d="M254.837 401.746H205.797V390.99H254.837V401.746Z" fill="white"/>
<path d="M205.798 424.599H254.838C255.121 424.599 255.352 424.369 255.352 424.086V413.33C255.352 413.047 255.121 412.816 254.838 412.816H205.798C205.514 412.816 205.284 413.047 205.284 413.33V424.086C205.284 424.369 205.514 424.599 205.798 424.599ZM254.325 423.57H206.311V413.841H254.325V423.57Z" fill="#161616"/>
<path d="M180.637 446.912H111.891L111.891 248.347H180.637L180.637 446.912Z" fill="white"/>
<path d="M111.889 447.428H180.635C180.918 447.428 181.148 447.198 181.148 446.914V248.349C181.148 248.066 180.918 247.836 180.635 247.836H111.889C111.606 247.836 111.376 248.066 111.376 248.349V446.914C111.376 447.198 111.606 447.428 111.889 447.428ZM180.122 446.399H112.402V248.863H180.122V446.399Z" fill="#161616"/>
<path d="M113.355 248.863H161.658C161.942 248.863 162.172 248.633 162.172 248.349C162.172 248.066 161.942 247.836 161.658 247.836H113.355C113.072 247.836 112.842 248.066 112.842 248.349C112.842 248.633 113.072 248.863 113.355 248.863Z" fill="white"/>
<path d="M111.938 446.917H81.2814V267.296L111.938 248.352V446.917Z" fill="white"/>
<path d="M81.2814 447.429H111.94C112.223 447.429 112.453 447.199 112.453 446.915V248.35C112.453 248.164 112.351 247.992 112.19 247.901C112.026 247.81 111.827 247.815 111.67 247.912L81.0114 266.859C80.8587 266.952 80.768 267.118 80.768 267.297V446.915C80.768 447.199 80.9981 447.429 81.2814 447.429ZM111.424 446.4H81.7948V267.582L111.424 249.273V446.402V446.4Z" fill="#161616"/>
<path d="M120.086 286.365H132.01C132.293 286.365 132.523 286.135 132.523 285.852V263.019C132.523 262.736 132.293 262.506 132.01 262.506H120.086C119.802 262.506 119.572 262.736 119.572 263.019V285.852C119.572 286.135 119.802 286.365 120.086 286.365ZM131.494 285.336H120.599V263.531H131.494V285.336Z" fill="#161616"/>
<path d="M152.229 285.85H140.305V263.017H152.229V285.85Z" fill="white"/>
<path d="M160.515 286.365H172.44C172.723 286.365 172.953 286.135 172.953 285.852V263.019C172.953 262.736 172.723 262.506 172.44 262.506H160.515C160.232 262.506 160.002 262.736 160.002 263.019V285.852C160.002 286.135 160.232 286.365 160.515 286.365ZM171.924 285.336H161.029V263.531H171.924V285.336Z" fill="#161616"/>
<path d="M120.086 323.99H132.01C132.293 323.99 132.523 323.76 132.523 323.477V300.644C132.523 300.361 132.293 300.131 132.01 300.131H120.086C119.802 300.131 119.572 300.361 119.572 300.644V323.477C119.572 323.76 119.802 323.99 120.086 323.99ZM131.494 322.961H120.599V301.156H131.494V322.961Z" fill="#161616"/>
<path d="M140.304 323.99H152.229C152.512 323.99 152.742 323.76 152.742 323.477V300.644C152.742 300.361 152.512 300.131 152.229 300.131H140.304C140.021 300.131 139.791 300.361 139.791 300.644V323.477C139.791 323.76 140.021 323.99 140.304 323.99ZM151.713 322.961H140.818V301.156H151.713V322.961Z" fill="#161616"/>
<path d="M160.515 323.99H172.44C172.723 323.99 172.953 323.76 172.953 323.477V300.644C172.953 300.361 172.723 300.131 172.44 300.131H160.515C160.232 300.131 160.002 300.361 160.002 300.644V323.477C160.002 323.76 160.232 323.99 160.515 323.99ZM171.924 322.961H161.029V301.156H171.924V322.961Z" fill="#161616"/>
<path d="M120.086 361.621H132.01C132.293 361.621 132.523 361.391 132.523 361.108V338.275C132.523 337.992 132.293 337.762 132.01 337.762H120.086C119.802 337.762 119.572 337.992 119.572 338.275V361.108C119.572 361.391 119.802 361.621 120.086 361.621ZM131.494 360.592H120.599V338.789H131.494V360.592Z" fill="#161616"/>
<path d="M140.304 361.621H152.229C152.512 361.621 152.742 361.391 152.742 361.108V338.275C152.742 337.992 152.512 337.762 152.229 337.762H140.304C140.021 337.762 139.791 337.992 139.791 338.275V361.108C139.791 361.391 140.021 361.621 140.304 361.621ZM151.713 360.592H140.818V338.789H151.713V360.592Z" fill="#161616"/>
<path d="M160.515 361.619H172.44C172.723 361.619 172.953 361.389 172.953 361.106V338.273C172.953 337.99 172.723 337.76 172.44 337.76H160.515C160.232 337.76 160.002 337.99 160.002 338.273V361.106C160.002 361.389 160.232 361.619 160.515 361.619ZM171.924 360.59H161.029V338.787H171.924V360.59Z" fill="#161616"/>
<path d="M120.086 399.246H132.01C132.293 399.246 132.523 399.016 132.523 398.733V375.9C132.523 375.617 132.293 375.387 132.01 375.387H120.086C119.802 375.387 119.572 375.617 119.572 375.9V398.733C119.572 399.016 119.802 399.246 120.086 399.246ZM131.494 398.217H120.599V376.414H131.494V398.217Z" fill="#161616"/>
<path d="M140.304 399.246H152.229C152.512 399.246 152.742 399.016 152.742 398.733V375.9C152.742 375.617 152.512 375.387 152.229 375.387H140.304C140.021 375.387 139.791 375.617 139.791 375.9V398.733C139.791 399.016 140.021 399.246 140.304 399.246ZM151.713 398.217H140.818V376.414H151.713V398.217Z" fill="#161616"/>
<path d="M160.515 399.246H172.44C172.723 399.246 172.953 399.016 172.953 398.733V375.9C172.953 375.617 172.723 375.387 172.44 375.387H160.515C160.232 375.387 160.002 375.617 160.002 375.9V398.733C160.002 399.016 160.232 399.246 160.515 399.246ZM171.924 398.217H161.029V376.414H171.924V398.217Z" fill="#161616"/>
<path d="M305.272 492.999C320.655 492.999 335.655 490.268 349.308 484.852C349.571 484.748 349.702 484.45 349.596 484.184C349.492 483.921 349.193 483.79 348.927 483.896C325.382 493.238 297.767 494.517 271.174 487.504C270.904 487.431 270.619 487.594 270.546 487.869C270.473 488.143 270.636 488.424 270.911 488.497C282.306 491.503 293.894 492.997 305.269 492.997L305.272 492.999Z" fill="#161616"/>
<path d="M302.338 484.447C314.152 484.447 325.711 482.696 336.542 479.222C336.812 479.135 336.96 478.845 336.874 478.575C336.788 478.305 336.498 478.157 336.228 478.243C318.527 483.922 298.853 484.951 279.331 481.218C279.052 481.167 278.782 481.348 278.729 481.627C278.676 481.906 278.859 482.176 279.138 482.229C286.888 483.712 294.668 484.451 302.338 484.451V484.447Z" fill="#161616"/>
<path d="M357.409 483.472C357.44 483.472 357.469 483.47 357.5 483.463C357.672 483.432 357.816 483.315 357.883 483.153C357.894 483.129 358.914 480.659 359.711 478.134C359.764 477.963 359.726 477.78 359.611 477.645C359.496 477.51 359.319 477.446 359.142 477.47L353.51 478.337C353.321 478.366 353.164 478.497 353.102 478.676C353.04 478.855 353.082 479.055 353.211 479.194L357.031 483.306C357.128 483.412 357.265 483.47 357.407 483.47L357.409 483.472ZM358.476 478.616C358.02 479.98 357.535 481.248 357.234 482.016L354.627 479.209L358.476 478.616Z" fill="#161616"/>
<path d="M238.829 148.523C231.676 141.369 231.676 129.771 238.829 122.618C245.983 115.464 257.581 115.464 264.735 122.618C271.888 129.771 271.888 141.369 264.735 148.523C257.581 155.677 245.983 155.677 238.829 148.523Z" fill="#161616"/>
<path d="M251.793 154.401C256.74 154.401 261.403 152.502 264.946 149.038C268.544 145.524 270.558 140.817 270.616 135.789C270.676 130.758 268.77 126.007 265.256 122.41C261.741 118.812 257.034 116.798 252.006 116.74C251.931 116.74 251.855 116.74 251.78 116.74C246.834 116.74 242.171 118.639 238.627 122.103C235.029 125.617 233.015 130.324 232.957 135.353C232.898 140.383 234.803 145.134 238.318 148.733C241.832 152.332 246.539 154.345 251.568 154.403C251.643 154.403 251.718 154.403 251.793 154.403V154.401ZM251.78 117.765C251.851 117.765 251.922 117.765 251.992 117.765C256.748 117.82 261.197 119.724 264.519 123.125C267.843 126.527 269.642 131.019 269.587 135.773C269.531 140.529 267.628 144.977 264.227 148.299C260.876 151.572 256.467 153.367 251.791 153.367C251.72 153.367 251.649 153.367 251.579 153.367C246.823 153.312 242.374 151.409 239.052 148.007C235.728 144.606 233.929 140.113 233.984 135.359C234.04 130.603 235.943 126.155 239.345 122.833C242.695 119.56 247.104 117.765 251.78 117.765Z" fill="white"/>
<path d="M252.04 144.611C251.662 144.611 251.31 144.403 251.131 144.06L245.102 132.576C244.839 132.074 245.031 131.452 245.534 131.189C246.036 130.923 246.658 131.118 246.921 131.62L251.682 140.692C253.337 134.358 255.495 129.591 258.246 126.176C258.602 125.733 259.248 125.665 259.691 126.021C260.134 126.377 260.202 127.026 259.846 127.466C256.965 131.043 254.674 136.542 253.041 143.808C252.946 144.228 252.6 144.545 252.171 144.602C252.127 144.609 252.08 144.611 252.036 144.611H252.04Z" fill="white"/>
<path d="M313.926 88H493.631C501.014 88 507 93.9857 507 101.369V450.973C507 458.357 501.014 464.342 493.631 464.342H313.926C306.542 464.342 300.556 458.357 300.556 450.973V101.369C300.556 93.9857 306.542 88 313.926 88Z" fill="#161616"/>
<path d="M304.668 88.7715H484.373C491.756 88.7715 497.742 94.7572 497.742 102.141V451.744C497.742 459.128 491.756 465.114 484.373 465.114H304.668C297.284 465.114 291.298 459.128 291.298 451.744V102.141C291.298 94.7572 297.284 88.7715 304.668 88.7715Z" fill="white"/>
<path d="M304.67 465.629H484.373C492.028 465.629 498.258 459.402 498.258 451.744V102.143C498.256 94.4855 492.028 88.2578 484.373 88.2578H304.67C297.015 88.2578 290.785 94.4855 290.785 102.143V451.744C290.785 459.399 297.013 465.629 304.67 465.629ZM484.373 89.2869C491.461 89.2869 497.229 95.0543 497.229 102.143V451.744C497.229 458.833 491.461 464.6 484.373 464.6H304.67C297.581 464.6 291.814 458.833 291.814 451.744V102.143C291.814 95.0543 297.581 89.2869 304.67 89.2869H484.373Z" fill="#161616"/>
<path d="M301.539 451.79V118.796C301.539 117.091 302.921 115.709 304.626 115.709L484.422 115.709C486.127 115.709 487.509 117.091 487.509 118.796V451.79C487.509 453.495 486.127 454.878 484.422 454.878H304.626C302.921 454.878 301.539 453.495 301.539 451.79Z" fill="white"/>
<path d="M304.627 455.391H484.423C486.408 455.391 488.023 453.775 488.023 451.79V118.796C488.023 116.811 486.408 115.195 484.423 115.195H304.627C302.642 115.195 301.026 116.811 301.026 118.796V451.79C301.026 453.775 302.642 455.391 304.627 455.391ZM484.423 116.222C485.841 116.222 486.994 117.375 486.994 118.794V451.79C486.994 453.209 485.841 454.364 484.423 454.364H304.627C303.208 454.364 302.055 453.211 302.055 451.792V118.796C302.055 117.377 303.211 116.222 304.627 116.222H484.423Z" fill="#161616"/>
<path d="M394.524 107.007C397.686 107.007 400.258 104.436 400.258 101.273C400.258 98.1107 397.686 95.5391 394.524 95.5391C391.361 95.5391 388.789 98.1107 388.789 101.273C388.789 104.436 391.361 107.007 394.524 107.007ZM394.524 96.5682C397.117 96.5682 399.229 98.6795 399.229 101.273C399.229 103.867 397.117 105.978 394.524 105.978C391.93 105.978 389.819 103.867 389.819 101.273C389.819 98.6795 391.93 96.5682 394.524 96.5682Z" fill="#161616"/>
<path d="M323.789 146.104H465.698C470.022 146.104 473.539 142.587 473.539 138.263C473.539 133.939 470.022 130.422 465.698 130.422H323.789C319.464 130.422 315.948 133.939 315.948 138.263C315.948 142.587 319.464 146.104 323.789 146.104ZM465.698 131.451C469.454 131.451 472.51 134.507 472.51 138.263C472.51 142.019 469.454 145.075 465.698 145.075H323.789C320.033 145.075 316.977 142.019 316.977 138.263C316.977 134.507 320.033 131.451 323.789 131.451H465.698Z" fill="#161616"/>
<rect x="316.5" y="187.5" width="157" height="11" rx="5.5" stroke="#161616"/>
<rect x="316.5" y="212.5" width="157" height="10" rx="5" stroke="#161616"/>
<rect x="316.5" y="235.5" width="157" height="12" rx="5.5" stroke="#161616"/>
<rect x="316.5" y="260.5" width="157" height="12" rx="5.5" stroke="#161616"/>
<rect x="316.5" y="284.5" width="157" height="11" rx="5.5" stroke="#161616"/>
<rect x="316.5" y="356.5" width="74" height="10" rx="5" stroke="#161616"/>
<path d="M438.948 375.607C433.012 375.607 427.042 373.401 423.279 369.654C422.355 368.731 422.355 367.225 423.279 366.301C424.203 365.378 425.708 365.361 426.632 366.301C430.139 369.791 436.485 371.57 442.028 370.612C445.244 370.065 448.237 368.354 449.674 366.284C450.376 365.275 450.632 364.266 450.444 363.308C450.016 361.169 447.553 358.963 443.67 357.269C442.113 356.602 440.505 356.037 438.794 355.439C436.434 354.618 433.97 353.762 431.695 352.582C426.426 349.845 423.535 345.791 423.946 341.702C424.408 336.964 429.146 333.765 433.628 332.67C439.273 331.301 447.981 331.917 453.917 338.144C454.823 339.085 454.789 340.59 453.831 341.497C452.89 342.403 451.385 342.369 450.478 341.411C445.62 336.314 438.298 336.416 434.74 337.289C431.422 338.093 428.873 340.145 428.667 342.164C428.462 344.183 430.515 346.612 433.885 348.357C435.869 349.383 438.042 350.136 440.351 350.957C442.079 351.556 443.841 352.171 445.569 352.924C450.991 355.285 454.379 358.655 455.114 362.401C455.559 364.642 455.029 366.917 453.609 368.987C451.453 372.118 447.331 374.53 442.849 375.299C441.566 375.522 440.266 375.624 438.966 375.624L438.948 375.607Z" fill="#161616"/>
<path d="M442.862 381.085C442.862 381.085 442.828 381.085 442.811 381.085C441.494 381.051 440.467 379.973 440.485 378.656L441.528 329.03C441.562 327.713 442.674 326.686 443.957 326.703C445.274 326.738 446.301 327.815 446.284 329.132L445.24 378.759C445.206 380.059 444.162 381.085 442.862 381.085Z" fill="#161616"/>
<path d="M434.651 380.708C434.651 380.708 434.617 380.708 434.6 380.708C433.283 380.674 432.257 379.596 432.274 378.279L433.317 328.653C433.351 327.336 434.515 326.309 435.746 326.326C437.063 326.361 438.09 327.438 438.073 328.756L437.029 378.382C436.995 379.682 435.952 380.708 434.651 380.708Z" fill="#161616"/>
<path d="M143.938 301.292C143.938 301.292 141.109 311.005 183.34 313.372C225.571 315.738 218.506 303.726 218.506 303.726L174.17 290.795L143.938 301.292Z" fill="#161616"/>
<path d="M186.159 453.603L185.62 473.552L178.585 474.314L175.102 452.846L186.159 453.603Z" fill="white"/>
<path d="M178.563 475.356C178.058 475.356 177.617 474.988 177.536 474.479L174.053 453.011C174.001 452.698 174.096 452.377 174.314 452.142C174.528 451.907 174.836 451.778 175.157 451.804L186.214 452.561C186.77 452.6 187.203 453.071 187.185 453.631L186.651 473.581C186.638 474.103 186.24 474.535 185.722 474.59L178.683 475.352C178.644 475.352 178.606 475.356 178.572 475.356H178.563ZM176.321 453.974L179.436 473.17L184.584 472.613L185.067 454.577L176.321 453.978V453.974Z" fill="#161616"/>
<path d="M226.107 460.152L227.233 476.041L217.93 476.802L214.609 460.152H226.107Z" fill="white"/>
<path d="M217.91 477.845C217.418 477.845 216.986 477.499 216.887 477.007L213.567 460.357C213.507 460.048 213.584 459.732 213.785 459.492C213.982 459.253 214.277 459.111 214.589 459.111H226.087C226.635 459.111 227.089 459.535 227.127 460.083L228.248 475.971C228.287 476.54 227.863 477.037 227.294 477.084L217.991 477.845C217.961 477.845 217.936 477.845 217.906 477.845H217.91ZM215.86 461.195L218.749 475.689L226.096 475.085L225.116 461.195H215.86Z" fill="#161616"/>
<path d="M215.439 483.65C214.793 483.222 214.403 482.495 214.382 481.72C214.322 479.388 214.314 474.424 215.255 472.554C216.5 470.077 221.644 473.53 221.644 473.53C221.644 473.53 224.652 469.354 226.415 468.476C227.326 468.023 232.662 471.579 238.046 476.427C243.942 481.742 246.604 483.436 247.875 488.015C248.47 490.163 246.895 492.328 244.67 492.487C239.252 492.876 228.323 492.226 215.439 483.646V483.65Z" fill="white"/>
<path d="M242.269 493.618C236.236 493.618 226.274 492.133 214.845 484.52C213.92 483.904 213.351 482.868 213.321 481.752C213.236 478.405 213.334 474.015 214.305 472.089C214.652 471.396 215.238 470.925 215.991 470.729C217.729 470.275 220.069 471.396 221.362 472.145C222.376 470.823 224.438 468.294 225.932 467.549C228.302 466.372 237.665 474.704 238.726 475.658C239.655 476.493 240.502 477.241 241.277 477.922C245.423 481.576 247.713 483.587 248.864 487.742C249.227 489.052 248.979 490.451 248.188 491.576C247.379 492.719 246.121 493.434 244.73 493.536C244.007 493.588 243.185 493.622 242.274 493.622L242.269 493.618ZM216.881 472.706C216.749 472.706 216.625 472.718 216.518 472.748C216.342 472.795 216.244 472.872 216.167 473.031C215.581 474.195 215.298 477.438 215.405 481.7C215.418 482.141 215.641 482.547 216 482.787C228.641 491.204 239.33 491.833 244.576 491.457C245.338 491.401 246.031 491.007 246.48 490.378C246.912 489.766 247.045 489.013 246.852 488.307C245.864 484.747 243.994 483.104 239.899 479.492C239.12 478.808 238.264 478.054 237.331 477.211C231.987 472.393 227.785 469.766 226.706 469.509C225.555 470.215 223.531 472.684 222.474 474.148C222.145 474.601 221.516 474.717 221.049 474.404C219.915 473.647 218.007 472.71 216.89 472.71L216.881 472.706Z" fill="#161616"/>
<path d="M239.603 489.357C233.891 489.357 224.729 487.97 215.696 480.751C215.246 480.392 215.174 479.737 215.533 479.284C215.893 478.834 216.547 478.762 217.001 479.121C230.587 489.973 244.76 486.819 244.901 486.789C245.457 486.656 246.022 487.007 246.154 487.568C246.287 488.129 245.936 488.689 245.376 488.822C245.145 488.877 242.979 489.361 239.607 489.361L239.603 489.357Z" fill="#161616"/>
<path d="M188.932 478.4L188.83 467.476C188.83 467.476 186.643 464.164 183.643 466.855C183.643 466.855 180.871 462.961 175.723 467.814C175.723 467.814 168.478 481.331 165.273 489.368C164.413 491.52 165.949 493.878 168.264 493.933C171.589 494.01 175.89 493.831 177.76 492.564C180.687 490.583 185.697 484.34 187.88 481.524C188.573 480.63 188.945 479.53 188.932 478.396V478.4Z" fill="white"/>
<path d="M169.556 494.996C169.124 494.996 168.679 494.991 168.217 494.978C166.796 494.944 165.482 494.217 164.695 493.031C163.903 491.833 163.749 490.323 164.28 488.983C167.472 480.981 174.708 467.455 174.781 467.322C174.832 467.224 174.901 467.134 174.986 467.057C177.087 465.076 179.12 464.169 181.054 464.361C182.252 464.481 183.142 465.007 183.716 465.474C184.606 464.9 185.526 464.669 186.459 464.789C188.401 465.037 189.557 466.715 189.681 466.903C189.792 467.07 189.852 467.267 189.852 467.468L189.955 478.392C189.968 479.753 189.514 481.097 188.684 482.171C186.086 485.517 181.285 491.431 178.324 493.434C176.788 494.473 173.844 495 169.556 495V494.996ZM176.54 468.461C175.735 469.971 169.188 482.321 166.218 489.758C165.936 490.468 166.013 491.243 166.437 491.88C166.852 492.505 167.515 492.877 168.264 492.894C172.706 492.993 175.864 492.574 177.152 491.705C179.976 489.792 185.004 483.506 187.032 480.887C187.58 480.181 187.875 479.304 187.867 478.41L187.768 467.836C187.494 467.515 186.912 466.946 186.181 466.856C185.594 466.783 184.97 467.044 184.319 467.63C184.097 467.827 183.801 467.921 183.506 467.892C183.211 467.857 182.941 467.703 182.77 467.459C182.749 467.429 182.068 466.539 180.815 466.432C179.569 466.325 178.097 467.023 176.54 468.461Z" fill="#161616"/>
<path d="M183.653 473.793C183.076 473.793 182.609 473.326 182.609 472.749V466.861C182.609 466.283 183.072 465.816 183.649 465.816C184.227 465.816 184.693 466.283 184.693 466.861V472.749C184.693 473.326 184.231 473.793 183.653 473.793Z" fill="#161616"/>
<path d="M228.948 461.052C228.948 461.052 231.601 420.939 227.249 384.862C222.893 348.784 206.696 297.259 206.696 297.259C206.696 297.259 189.267 296.468 176.584 298.175C163.896 299.883 158.877 298.128 158.877 298.128C158.877 298.128 149.407 308.984 150.177 329.391C150.952 349.799 173.049 435.886 172.211 456.088C172.211 456.088 179.643 459.828 189.267 457.966L185.279 341.946C185.279 341.946 193.534 365.828 197.41 382.192C200.568 395.53 206.05 404.161 206.05 404.161C206.05 404.161 205.819 435.167 212.927 460.902C212.927 460.902 221.322 463.534 228.952 461.047L228.948 461.052Z" fill="white"/>
<path d="M221.622 463.173C216.714 463.173 212.828 461.979 212.589 461.906C212.251 461.799 211.99 461.53 211.896 461.188C205.203 436.963 204.985 407.754 204.98 404.463C204.026 402.889 199.268 394.673 196.371 382.443C193.808 371.625 189.276 357.363 186.546 349.074L190.29 457.94C190.307 458.453 189.948 458.902 189.447 459.001C179.588 460.905 172.04 457.187 171.723 457.028C171.355 456.844 171.133 456.463 171.15 456.053C171.603 445.141 165.309 414.892 159.219 385.635C154.204 361.539 149.472 338.779 149.116 329.437C148.338 308.85 157.675 297.904 158.073 297.447C158.351 297.126 158.8 297.006 159.202 297.147C159.245 297.16 164.239 298.79 176.426 297.147C189.058 295.448 206.551 296.218 206.726 296.223C207.163 296.244 207.544 296.535 207.676 296.95C207.839 297.468 223.954 348.976 228.267 384.737C232.585 420.497 230.001 460.717 229.975 461.119C229.945 461.543 229.662 461.911 229.256 462.043C226.676 462.886 224.031 463.169 221.631 463.169L221.622 463.173ZM213.753 460.066C215.614 460.55 221.977 461.958 227.929 460.272C228.255 454.709 230.167 417.934 226.192 384.993C222.174 351.689 207.843 304.58 205.896 298.281C202.469 298.157 187.688 297.738 176.7 299.218C166.451 300.596 161.085 299.753 159.245 299.321C157.491 301.653 150.541 312.034 151.2 329.36C151.547 338.531 156.267 361.206 161.261 385.216C167.247 413.989 173.435 443.724 173.251 455.432C175.082 456.189 180.945 458.261 188.172 457.114L184.214 342.001C184.197 341.483 184.56 341.034 185.065 340.94C185.575 340.846 186.075 341.137 186.242 341.624C186.323 341.864 194.561 365.746 198.403 381.972C201.484 394.989 206.855 403.535 206.91 403.62C207.017 403.792 207.073 403.988 207.073 404.185C207.073 404.493 206.927 434.888 213.757 460.075L213.753 460.066Z" fill="#161616"/>
<path d="M214.995 418.522C214.661 418.522 214.336 418.363 214.135 418.068L208.05 409.202C207.725 408.727 207.845 408.076 208.32 407.751C208.795 407.426 209.445 407.546 209.77 408.021L215.855 416.887C216.18 417.362 216.061 418.013 215.586 418.338C215.406 418.462 215.201 418.522 214.995 418.522Z" fill="#161616"/>
<path d="M174.061 396.962C171.862 396.962 169.059 396.53 166.718 394.793C166.256 394.45 166.158 393.796 166.504 393.334C166.847 392.871 167.501 392.773 167.964 393.12C171.699 395.893 177.228 394.545 177.279 394.532C177.836 394.395 178.405 394.729 178.546 395.285C178.687 395.841 178.349 396.41 177.793 396.551C177.664 396.586 176.128 396.967 174.061 396.967V396.962Z" fill="#161616"/>
<path d="M203.039 264.285C203.039 264.285 212.813 286.296 228.752 290.794C244.692 295.291 255.792 281.705 255.719 267.678L250.302 265.881C250.302 265.881 244.743 280.254 232.343 276.514C219.942 272.774 214.186 243.535 214.186 243.535L203.039 264.289V264.285Z" fill="white"/>
<path d="M234.863 292.721C232.899 292.721 230.764 292.447 228.453 291.792C212.231 287.218 202.478 265.621 202.068 264.705C201.935 264.41 201.948 264.072 202.102 263.789L213.249 243.036C213.459 242.646 213.887 242.437 214.323 242.496C214.76 242.561 215.106 242.894 215.192 243.327C215.247 243.613 220.969 271.992 232.625 275.51C243.973 278.929 249.1 266.049 249.314 265.497C249.515 264.979 250.088 264.705 250.614 264.885L256.032 266.682C256.455 266.823 256.746 267.221 256.746 267.666C256.789 275.968 253.058 283.987 247.011 288.587C244.307 290.645 240.242 292.721 234.859 292.721H234.863ZM204.19 264.316C205.692 267.461 214.995 285.831 229.018 289.785C236.844 291.993 242.433 289.451 245.749 286.927C251.107 282.853 254.474 275.814 254.654 268.424L250.854 267.161C249.305 270.388 243.28 280.902 232.026 277.508C221.367 274.295 215.568 254.016 213.763 246.497L204.19 264.316Z" fill="#161616"/>
<path d="M143.914 243.049C143.914 243.049 153.713 230.246 181.404 232.638C214.468 235.496 216.989 242.035 216.989 242.035L208.358 259.541L218.486 303.727C218.486 303.727 211.567 309.465 195.354 306.243C179.144 303.021 151.283 299.067 143.918 301.292L154.188 259.13L143.914 243.049Z" fill="#161616"/>
<path d="M250.286 284.447H207.688L235.626 233.812H278.225L250.286 284.447Z" fill="#161616"/>
<path d="M250.267 285.491H207.668C207.3 285.491 206.958 285.294 206.769 284.977C206.581 284.661 206.577 284.267 206.757 283.942L234.695 233.307C234.879 232.973 235.23 232.768 235.607 232.768H278.205C278.573 232.768 278.916 232.964 279.104 233.281C279.292 233.598 279.296 233.991 279.117 234.317L251.178 284.952C250.994 285.285 250.643 285.491 250.267 285.491ZM209.435 283.403H249.651L276.438 234.852H236.223L209.435 283.403Z" fill="white"/>
<path d="M251.246 282.851C251.246 282.851 250.446 278.653 251.246 275.85C252.046 273.047 257.01 264.716 258.427 262.974C259.847 261.233 261.05 279.847 251.246 282.851Z" fill="white"/>
<path d="M251.23 283.891C251.041 283.891 250.857 283.84 250.69 283.741C250.438 283.587 250.258 283.335 250.203 283.044C250.168 282.864 249.364 278.568 250.224 275.559C251.063 272.624 256.035 264.233 257.601 262.311C257.965 261.862 258.513 261.699 259.018 261.888C260.032 262.264 260.494 264.22 260.391 267.694C260.199 274.25 257.772 281.931 251.533 283.844C251.435 283.874 251.332 283.891 251.23 283.891ZM258.226 265.033C256.266 268.002 252.851 273.968 252.231 276.133C251.76 277.776 251.906 280.01 252.068 281.392C254.062 280.399 255.628 278.503 256.732 275.739C258.307 271.798 258.444 267.326 258.226 265.033Z" fill="#161616"/>
<path d="M162.114 271.979L194.914 256.155L211.954 259.176C211.954 259.176 210.76 260.952 208.338 260.537C205.916 260.121 202.693 260.815 200.665 263.048C198.637 265.282 195.218 263.861 195.218 263.861C195.218 263.861 176.668 287.722 160.009 290.803C146.466 293.306 144.977 244.674 144.977 244.674L161.267 259.137L162.114 271.983V271.979Z" fill="white"/>
<path d="M158.99 291.935C157.518 291.935 156.127 291.413 154.835 290.374C145.185 282.59 143.962 246.247 143.915 244.702C143.902 244.287 144.137 243.902 144.514 243.727C144.89 243.551 145.335 243.616 145.648 243.889L161.938 258.353C162.144 258.537 162.268 258.789 162.285 259.063L163.029 270.364L194.434 255.212C194.631 255.118 194.853 255.084 195.067 255.126L212.111 258.147C212.458 258.207 212.753 258.443 212.89 258.768C213.027 259.093 212.993 259.465 212.796 259.756C212.732 259.851 211.191 262.084 208.14 261.566C206.099 261.216 203.228 261.755 201.418 263.753C199.556 265.803 196.873 265.431 195.564 265.08C192.543 268.845 175.773 288.949 160.175 291.828C159.773 291.901 159.375 291.94 158.981 291.94L158.99 291.935ZM146.114 247.09C146.563 255.456 148.592 282.658 156.144 288.748C157.295 289.676 158.494 290.01 159.803 289.77C175.875 286.801 194.194 263.454 194.378 263.218C194.665 262.846 195.17 262.718 195.602 262.897C195.628 262.906 198.375 264.001 199.877 262.345C201.837 260.189 204.721 259.358 207.143 259.384L195.046 257.24L162.55 272.919C162.238 273.069 161.87 273.056 161.57 272.88C161.271 272.705 161.078 272.393 161.052 272.046L160.235 259.628L146.11 247.09H146.114Z" fill="#161616"/>
<path d="M199.686 212.804C189.938 221.995 172.501 230.117 162.017 221.88C151.528 213.647 149.89 194.553 159.637 185.362C169.385 176.17 187.597 174.244 198.085 182.477C208.574 190.71 209.438 203.608 199.69 212.799L199.686 212.804Z" fill="#161616"/>
<path d="M157.941 193.382C156.824 194.435 154.92 194.512 153.696 193.549C152.472 192.586 152.386 190.952 153.503 189.895C154.62 188.842 156.524 188.765 157.748 189.728C158.972 190.691 159.058 192.325 157.941 193.382Z" fill="#161616"/>
<path d="M151.843 195.275C150.144 196.875 150.272 199.362 152.134 200.825C153.995 202.288 156.879 202.177 158.582 200.573C160.281 198.972 160.153 196.486 158.291 195.023C156.43 193.559 153.546 193.67 151.843 195.275Z" fill="#161616"/>
<path d="M155.464 200.104C152.447 200.22 150.111 202.424 150.248 205.017C150.385 207.614 152.939 209.621 155.961 209.506C158.977 209.39 161.314 207.186 161.177 204.593C161.04 201.996 158.485 199.989 155.464 200.104Z" fill="#161616"/>
<path d="M155.202 209.201C152.891 211.379 153.067 214.755 155.6 216.745C158.129 218.735 162.057 218.58 164.368 216.402C166.679 214.224 166.503 210.848 163.97 208.858C161.441 206.868 157.513 207.023 155.202 209.201Z" fill="#161616"/>
<path d="M159.587 214.867C157.336 217.482 157.978 221.174 161.016 223.109C164.054 225.043 168.342 224.495 170.592 221.876C172.843 219.262 172.201 215.569 169.163 213.635C166.125 211.7 161.837 212.248 159.587 214.867Z" fill="#161616"/>
<path d="M166.756 188.251C164.676 190.211 161.142 190.347 158.865 188.559C156.589 186.77 156.426 183.728 158.51 181.768C160.59 179.808 164.124 179.671 166.401 181.46C168.677 183.248 168.84 186.291 166.756 188.251Z" fill="#161616"/>
<path d="M169.699 187.85C166.352 187.978 163.515 185.753 163.366 182.873C163.216 179.993 165.805 177.554 169.151 177.421C172.497 177.293 175.334 179.518 175.484 182.398C175.634 185.278 173.045 187.717 169.699 187.85Z" fill="#161616"/>
<path d="M161.095 190.899C159.802 192.115 157.612 192.2 156.199 191.092C154.787 189.979 154.685 188.092 155.977 186.877C157.269 185.662 159.46 185.576 160.872 186.684C162.284 187.797 162.387 189.684 161.095 190.899Z" fill="#161616"/>
<path d="M200.868 213.332C199.118 214.979 196.144 215.095 194.231 213.588C192.319 212.082 192.182 209.523 193.932 207.876C195.682 206.228 198.656 206.113 200.569 207.619C202.482 209.125 202.618 211.684 200.868 213.332Z" fill="#161616"/>
<path d="M175.096 225.55C173.346 227.198 170.372 227.313 168.459 225.807C166.542 224.301 166.41 221.742 168.16 220.094C169.91 218.447 172.884 218.331 174.797 219.838C176.714 221.344 176.847 223.903 175.096 225.55Z" fill="#161616"/>
<path d="M201.453 211.748C204.202 211.748 206.43 209.831 206.43 207.465C206.43 205.099 204.202 203.182 201.453 203.182C198.705 203.182 196.477 205.099 196.477 207.465C196.477 209.831 198.705 211.748 201.453 211.748Z" fill="#161616"/>
<path d="M206.672 205.426C204.712 207.275 201.379 207.403 199.231 205.717C197.082 204.031 196.933 201.164 198.893 199.315C200.852 197.467 204.186 197.338 206.334 199.024C208.482 200.71 208.632 203.577 206.672 205.426Z" fill="#161616"/>
<path d="M199.73 193.243C197.89 194.976 198.031 197.659 200.047 199.242C202.058 200.825 205.182 200.701 207.017 198.972C208.857 197.239 208.716 194.556 206.701 192.973C204.69 191.39 201.566 191.514 199.73 193.243Z" fill="#161616"/>
<path d="M205.541 192.287C204.283 193.473 202.143 193.558 200.765 192.471C199.387 191.389 199.289 189.549 200.547 188.359C201.805 187.174 203.945 187.088 205.323 188.175C206.7 189.258 206.799 191.098 205.541 192.287Z" fill="#161616"/>
<path d="M202.509 188.597C200.917 190.095 198.217 190.202 196.476 188.833C194.734 187.463 194.614 185.14 196.202 183.642C197.794 182.144 200.494 182.037 202.235 183.407C203.977 184.776 204.097 187.099 202.509 188.597Z" fill="#161616"/>
<path d="M192.574 188.775C195.764 188.775 198.351 186.549 198.351 183.802C198.351 181.056 195.764 178.83 192.574 178.83C189.383 178.83 186.797 181.056 186.797 183.802C186.797 186.549 189.383 188.775 192.574 188.775Z" fill="#161616"/>
<path d="M190.83 176.78C192.935 178.436 193.08 181.243 191.159 183.054C189.238 184.864 185.973 184.992 183.867 183.336C181.762 181.68 181.617 178.873 183.538 177.063C185.459 175.253 188.724 175.124 190.83 176.78Z" fill="#161616"/>
<path d="M185.475 175.265C187.764 177.062 187.923 180.117 185.834 182.09C183.742 184.058 180.194 184.2 177.905 182.398C175.616 180.601 175.458 177.545 177.546 175.573C179.638 173.604 183.186 173.463 185.475 175.265Z" fill="#161616"/>
<path d="M175.982 179.59C174.561 180.929 172.152 181.023 170.594 179.799C169.037 178.576 168.93 176.5 170.35 175.165C171.771 173.826 174.18 173.732 175.738 174.955C177.291 176.179 177.402 178.255 175.982 179.59Z" fill="#161616"/>
<path d="M199.068 218.382C199.436 217.801 197.69 214.643 197.63 213.491C197.57 212.34 198.469 211.378 198.845 210.171C199.222 208.964 198.802 206.812 198.802 206.812C198.289 192.404 182.61 195.823 182.61 195.823C179.011 196.914 176.889 200.962 176.196 203.654C174.852 208.866 177.33 215.169 177.33 215.169C177.223 215.404 174.655 232.277 174.54 232.495C172.909 235.627 183.83 237.681 187.262 234.523C188.421 233.458 186.936 225.618 187.262 225.61C188.55 225.576 190.124 226.958 191.746 226.526C194.134 225.892 195.931 219.902 196.274 219.457C196.436 219.247 196.992 219.123 197.57 218.99C198.212 218.845 198.875 218.686 199.072 218.378L199.068 218.382Z" fill="white"/>
<path d="M181.715 237.136C178.878 237.136 175.989 236.4 174.543 235.291C173.4 234.419 173.028 233.25 173.533 232.146C173.679 231.402 174.389 226.883 174.962 223.224C175.801 217.871 176.101 215.984 176.233 215.261C175.75 213.913 173.914 208.282 175.172 203.395C175.998 200.186 178.36 196.018 182.292 194.828C182.695 194.738 190.371 193.121 195.498 197.1C198.202 199.201 199.657 202.428 199.828 206.698C199.914 207.178 200.239 209.167 199.828 210.481C199.657 211.025 199.409 211.512 199.186 211.945C198.891 212.514 198.639 213.006 198.66 213.438C198.677 213.78 199.062 214.747 199.345 215.453C200.077 217.289 200.406 218.205 199.94 218.941C199.512 219.617 198.634 219.818 197.791 220.011C197.539 220.071 197.231 220.139 197.051 220.199C197.004 220.323 196.919 220.546 196.812 220.811C195.549 223.977 194.09 226.981 192.002 227.538C190.722 227.88 189.55 227.414 188.604 227.041C188.514 227.007 188.424 226.969 188.335 226.934C188.356 227.153 188.382 227.384 188.407 227.602C188.899 232.181 188.951 234.38 187.958 235.291C186.537 236.597 184.15 237.136 181.723 237.136H181.715ZM178.313 215.453C178.214 215.924 177.577 219.972 177.021 223.545C175.583 232.711 175.57 232.737 175.446 232.972C175.395 233.075 175.305 233.242 175.81 233.631C177.816 235.167 184.325 235.784 186.533 233.755C186.884 233.101 186.473 229.266 186.319 227.824C186.097 225.745 186.054 225.368 186.439 224.932C186.631 224.714 186.922 224.577 187.213 224.568C187.975 224.555 188.673 224.829 189.362 225.099C190.123 225.398 190.842 225.681 191.458 225.518C192.823 225.154 194.36 221.303 194.865 220.036C195.168 219.275 195.271 219.027 195.425 218.825C195.81 218.32 196.486 218.166 197.265 217.991C197.462 217.944 197.757 217.88 197.98 217.811C197.851 217.371 197.578 216.682 197.394 216.224C196.97 215.158 196.602 214.234 196.563 213.549C196.512 212.552 196.94 211.722 197.316 210.99C197.518 210.601 197.706 210.233 197.821 209.861C198.065 209.082 197.847 207.503 197.749 207.015C197.74 206.964 197.732 206.908 197.732 206.852C197.603 203.189 196.414 200.464 194.206 198.748C189.845 195.363 182.874 196.831 182.806 196.848C179.567 197.832 177.735 201.76 177.179 203.921C175.938 208.735 178.249 214.735 178.27 214.794C178.351 215.008 178.364 215.24 178.304 215.458L178.313 215.453Z" fill="#161616"/>
<path d="M202.955 196.386C201.38 194.79 199.776 196.386 193.515 195.504C188.307 194.772 186.801 193.3 182.86 193.951C181.752 194.135 179.771 194.46 177.815 195.894C174.918 198.016 173.844 200.994 173.271 203.215C172.154 207.55 173.553 212.604 174.182 214.516C174.336 214.987 174.794 215.287 175.29 215.244C176.604 215.133 177.768 214.961 178.804 214.735C179.296 214.628 179.574 214.11 179.386 213.643C179.334 213.515 179.287 213.382 179.249 213.245C178.727 211.418 179.604 209.565 181.2 209.108C182.8 208.65 184.516 209.767 185.038 211.594C185.072 211.722 185.102 211.846 185.124 211.975C187.426 210.233 188.607 208.256 190.734 207.195C190.99 207.066 192.107 206.557 193.81 206.497C197.508 206.365 198.736 208.56 200.486 208.136C203.541 207.396 205.783 199.257 202.955 196.386Z" fill="#161616"/>
<path d="M187.572 226.658C187.469 226.658 187.362 226.641 187.259 226.611C181.345 224.75 180.421 220.757 180.383 220.591C180.263 220.026 180.618 219.474 181.183 219.35C181.743 219.23 182.295 219.581 182.419 220.141C182.454 220.282 183.211 223.154 187.884 224.626C188.432 224.797 188.74 225.383 188.564 225.935C188.423 226.38 188.012 226.667 187.572 226.667V226.658Z" fill="#161616"/>
</g>
<rect x="0.5" y="0.5" width="587" height="587" rx="11.5" stroke="#F2F2F2"/>
<defs>
<clipPath id="clip0_1034_9639">
<rect width="426" height="412" fill="white" transform="matrix(-1 0 0 1 507 88)"/>
</clipPath>
</defs>
</svg>
