<svg width="82" height="82" viewBox="0 0 82 82" fill="none" xmlns="http://www.w3.org/2000/svg">
<path d="M30.1876 37.2421C32.0993 33.8844 35.6568 31.5122 39.7903 31.0834L40.0776 14.668C28.204 14.7085 17.7255 21.4239 12.9531 31.3503L30.1876 37.2434V37.2421Z" fill="white"/>
<path d="M30.188 37.5244C30.1577 37.5244 30.1275 37.5194 30.0972 37.5093L12.8628 31.6162C12.7871 31.5896 12.7254 31.5327 12.6939 31.458C12.6624 31.3834 12.6649 31.2999 12.7002 31.2265C17.5998 21.0344 28.3455 14.424 40.0767 14.3848C40.1599 14.3886 40.2242 14.4151 40.2771 14.4683C40.33 14.5227 40.359 14.5948 40.3577 14.6707L40.0704 31.0861C40.0679 31.229 39.9595 31.3467 39.8184 31.3619C35.8513 31.7743 32.3416 34.0238 30.4299 37.3802C30.3782 37.47 30.285 37.5219 30.1867 37.5219L30.188 37.5244ZM13.3454 31.186L30.0607 36.9007C32.0442 33.5683 35.5476 31.3176 39.5134 30.8305L39.7907 14.9516C28.4955 15.0945 18.1732 21.4329 13.3441 31.186H13.3454Z" fill="#161616"/>
<path d="M29.3751 19.4099C29.2642 19.4099 29.1596 19.3428 29.1142 19.234C29.0563 19.0898 29.1256 18.9253 29.2692 18.8671C31.9497 17.7778 34.7738 17.0984 37.6634 16.8467C37.8184 16.834 37.9533 16.9479 37.9671 17.1035C37.981 17.2591 37.8663 17.3945 37.7113 17.4084C34.8771 17.6551 32.1072 18.3206 29.4784 19.3896C29.4444 19.4035 29.4078 19.4099 29.3738 19.4099H29.3751Z" fill="#161616"/>
<path d="M19.9214 25.7409C19.8508 25.7409 19.7802 25.7143 19.7248 25.6599C19.6139 25.5511 19.6126 25.3727 19.721 25.2614C21.7436 23.1878 24.0914 21.4393 26.6974 20.0654C26.8348 19.9933 27.0037 20.0464 27.0768 20.1843C27.1486 20.3222 27.0957 20.493 26.9583 20.5651C24.4039 21.9112 22.104 23.6243 20.1217 25.6561C20.0663 25.713 19.9944 25.7409 19.9214 25.7409Z" fill="#161616"/>
<path d="M53.097 44.5176C52.1241 49.9109 47.2295 54.1517 41.2335 54.339C39.4452 54.3946 37.7377 54.0847 36.1876 53.4787L26.8281 68.0267C31.1783 69.9978 36.0931 70.9644 41.2335 70.6671C56.1832 69.8055 67.9358 58.5064 69.2414 44.906L53.097 44.5176Z" fill="white"/>
<path d="M39.4387 71C35.0255 71 30.6602 70.0714 26.712 68.2824C26.6376 68.2483 26.5809 68.1838 26.5582 68.1053C26.5355 68.0269 26.5469 67.9421 26.5922 67.8725L35.9517 53.3245C36.0236 53.2119 36.1647 53.1664 36.2895 53.2145C37.8534 53.8268 39.5131 54.1089 41.2244 54.0558C46.9734 53.8761 51.8504 49.8428 52.8207 44.4659C52.846 44.3293 52.9707 44.2331 53.103 44.2344L69.2474 44.6228C69.3256 44.6253 69.3986 44.6595 69.4503 44.7177C69.502 44.7759 69.5272 44.8543 69.5196 44.9315C68.1775 58.9102 56.0242 70.0954 41.2484 70.9469C40.6447 70.9823 40.0411 70.9987 39.4387 70.9987V71ZM27.2412 67.9016C31.57 69.8044 36.3953 70.6635 41.2168 70.3851C55.6121 69.5552 67.4718 58.7444 68.9311 45.1795L53.3273 44.8037C52.2108 50.3223 47.1688 54.4341 41.242 54.6188C39.532 54.6719 37.871 54.4037 36.2996 53.8205L27.2412 67.9004V67.9016Z" fill="#161616"/>
<path d="M39.4117 68.6464C36.2574 68.6464 33.1788 68.1454 30.2614 67.1561C30.114 67.1067 30.0358 66.946 30.085 66.7993C30.1341 66.6513 30.2929 66.5728 30.4404 66.6222C33.2998 67.5913 36.3179 68.0821 39.4105 68.0821C39.9662 68.0821 40.5295 68.0657 41.0827 68.0341C41.2365 68.0239 41.3701 68.1441 41.3789 68.2985C41.3877 68.4541 41.2692 68.5869 41.1142 68.5958C40.5497 68.6287 39.975 68.6451 39.4092 68.6451L39.4117 68.6464Z" fill="#161616"/>
<path d="M47.0151 67.6295C46.8916 67.6295 46.7782 67.5473 46.7441 67.422C46.7038 67.2715 46.792 67.1171 46.9407 67.0766C56.7615 64.3882 64.3453 56.5619 66.2621 47.1378C66.2936 46.9847 66.441 46.8873 66.5935 46.9176C66.7447 46.9493 66.843 47.0973 66.8128 47.2504C64.8532 56.8807 57.1118 64.8765 47.0894 67.6206C47.0642 67.627 47.0403 67.6308 47.0151 67.6308V67.6295Z" fill="#161616"/>
<path d="M23.8989 66.4954L33.3441 51.9044C30.5188 49.8042 28.7028 46.5363 28.7028 42.8294C28.7028 41.9337 28.8099 41.0607 29.0116 40.2207L11.7116 34.3984C10.7828 37.1324 10.2812 40.0423 10.2812 43.0572C10.2812 53.038 15.7366 61.6309 23.9002 66.4954H23.8989Z" fill="white"/>
<path d="M23.8987 66.776C23.8496 66.776 23.8004 66.7634 23.7563 66.7368C15.1429 61.6041 10 52.7518 10 43.0557C10 40.0737 10.4864 37.1297 11.4454 34.3058C11.4946 34.1591 11.6534 34.0806 11.8008 34.13L29.1008 39.9522C29.2394 39.999 29.3188 40.1433 29.2848 40.285C29.0857 41.1174 28.9836 41.9727 28.9836 42.8279C28.9836 46.3122 30.6332 49.537 33.5115 51.6764C33.6312 51.765 33.6602 51.932 33.5796 52.056L24.1344 66.647C24.0802 66.7292 23.9907 66.7748 23.8987 66.7748V66.776ZM11.8878 34.7537C11.0069 37.4371 10.5608 40.2293 10.5608 43.0557C10.5608 52.4633 15.5083 61.0626 23.8105 66.1131L32.9658 51.9699C30.075 49.7243 28.4216 46.4083 28.4216 42.8292C28.4216 42.0157 28.5085 41.2022 28.6799 40.4064L11.8865 34.755L11.8878 34.7537Z" fill="#161616"/>
<path d="M72.7698 43C72.7698 43 72.7668 43 72.7657 43L51.4292 42.367C51.3151 42.3639 51.2204 42.2731 51.2102 42.1574C50.817 37.9338 47.5201 34.5226 43.1936 33.8636C43.0805 33.8469 42.998 33.7468 43 33.63L43.382 11.2284C43.383 11.1638 43.4105 11.1022 43.4584 11.0584C43.5062 11.0157 43.5684 10.9948 43.6325 11.0011C51.7317 11.8573 59.184 15.5792 64.6157 21.4786C70.0219 27.3509 73 34.9022 73 42.7403C73 42.8029 72.9756 42.8769 72.9307 42.9207C72.888 42.9635 72.8299 43 72.7698 43ZM51.64 41.9081L72.5447 42.5286C72.4368 26.6168 60.1465 13.334 43.8301 11.4891L43.4553 33.4349C47.8227 34.1858 51.1481 37.6293 51.639 41.9081H51.64Z" fill="#161616"/>
</svg>
