<svg width="82" height="82" viewBox="0 0 82 82" fill="none" xmlns="http://www.w3.org/2000/svg">
<path d="M11.4543 46.352L13.0259 51.9117L19.3276 51.5731C19.9216 52.7948 20.6086 53.953 21.3817 55.0351L18.0876 60.4086L22.2295 64.4376L27.5198 60.9926C28.6329 61.7431 29.8066 62.3991 31.0297 62.9549L30.8646 69.2652L36.4653 70.6844L39.3192 65.064C40.6467 65.1571 41.9911 65.1359 43.344 65.0019L46.3545 70.5475L51.9142 68.976L51.5756 62.6742C52.7973 62.0803 53.9556 61.3933 55.0376 60.6202L60.4125 63.9142L64.4415 59.7723L60.9965 54.4821C61.747 53.369 62.403 52.1953 62.9589 50.9736L69.2691 51.1386L70.6883 45.538L65.0679 42.6841C65.161 41.3566 65.1399 40.0108 65.0058 38.6593L70.5514 35.6488L68.9799 30.0891L62.6781 30.4276C62.0842 29.2059 61.3972 28.0477 60.6241 26.9657L63.9182 21.5922L59.7762 17.5631L54.486 21.0082C53.3729 20.2576 52.1992 19.6017 50.9775 19.0458L51.1425 12.7356L45.5419 11.3164L42.688 16.9368C41.3605 16.8437 40.0147 16.8648 38.6632 16.9988L35.6527 11.4532L30.093 13.0248L30.4315 19.3266C29.2098 19.9205 28.0516 20.6075 26.9696 21.3806L21.5961 18.0865L17.567 22.2284L21.0121 27.5173C20.2616 28.6304 19.6056 29.8041 19.0497 31.0272L12.7395 30.8621L11.3203 36.4628L16.9407 39.3167C16.8476 40.6442 16.8687 41.9886 17.0028 43.3415L11.4572 46.352H11.4543ZM36.9576 26.6864C44.8619 24.4518 53.0823 29.0479 55.3169 36.9537C57.5515 44.858 52.9553 53.0784 45.0496 55.313C37.1452 57.5476 28.9249 52.9514 26.6903 45.0457C24.4557 37.1413 29.0518 28.921 36.9576 26.6864Z" fill="white"/>
<path d="M36.4624 71C36.437 71 36.4116 70.9972 36.3848 70.9901L30.7842 69.5709C30.6417 69.5342 30.5429 69.4045 30.5472 69.2577L30.7066 63.1549C29.602 62.6414 28.5312 62.0418 27.5141 61.3703L22.3988 64.7025C22.2746 64.7829 22.1138 64.7674 22.008 64.6644L17.8661 60.6353C17.7603 60.5323 17.7405 60.3715 17.8167 60.246L21.0021 55.0488C20.3109 54.0627 19.6831 53.0047 19.1329 51.8986L13.0385 52.2259C12.8932 52.2344 12.7592 52.1385 12.7197 51.9974L11.1482 46.4377C11.1087 46.2966 11.1721 46.1457 11.3005 46.0765L16.6641 43.1648C16.5527 41.9346 16.5343 40.7045 16.6077 39.5025L11.1721 36.7417C11.0409 36.6754 10.9732 36.5273 11.0099 36.3848L12.4291 30.7842C12.4644 30.6417 12.5899 30.5415 12.7423 30.5472L18.8451 30.7066C19.3586 29.602 19.9582 28.5298 20.6297 27.5141L17.2975 22.3988C17.2171 22.276 17.2327 22.1138 17.3356 22.008L21.3647 17.8661C21.4677 17.7603 21.6285 17.7405 21.7541 17.8167L26.9512 21.0021C27.9359 20.3109 28.994 19.6831 30.1014 19.1329L29.7741 13.0385C29.7656 12.8918 29.8616 12.7592 30.0026 12.7197L35.5623 11.1482C35.7034 11.1087 35.8544 11.1721 35.9235 11.3005L38.8352 16.6641C40.0654 16.5527 41.2956 16.5343 42.4975 16.6077L45.2583 11.1721C45.3246 11.0409 45.4727 10.9732 45.6152 11.0099L51.2158 12.4291C51.3583 12.4658 51.4571 12.5956 51.4529 12.7423L51.2934 18.8451C52.398 19.3586 53.4702 19.9582 54.4845 20.6297L59.5998 17.2975C59.724 17.2171 59.8848 17.2327 59.9906 17.3356L64.1325 21.3647C64.2383 21.4677 64.2581 21.6285 64.1819 21.7541L60.9965 26.9512C61.6877 27.9359 62.3155 28.9939 62.8657 30.1014L68.9601 29.7741C69.1054 29.7656 69.2394 29.8616 69.2789 30.0026L70.8505 35.5623C70.89 35.7034 70.8265 35.8544 70.6981 35.9235L65.3345 38.8352C65.4459 40.0654 65.4643 41.2956 65.3909 42.4975L70.8251 45.2583C70.9563 45.3246 71.024 45.4727 70.9873 45.6152L69.5681 51.2158C69.5314 51.3583 69.3988 51.4585 69.2549 51.4529L63.1521 51.2934C62.6386 52.3966 62.039 53.4688 61.3675 54.4859L64.6997 59.6013C64.7801 59.724 64.7645 59.8862 64.6616 59.992L60.6325 64.1339C60.5295 64.2397 60.3687 64.2595 60.2431 64.1833L55.046 60.9979C54.0599 61.6906 53.0018 62.3169 51.8958 62.8671L52.2231 68.9615C52.2316 69.1082 52.1357 69.2408 51.9946 69.2803L46.4349 70.8519C46.2938 70.8914 46.1428 70.8279 46.0737 70.6995L43.162 65.3359C41.9318 65.4473 40.7031 65.4657 39.4997 65.3923L36.7389 70.8279C36.6839 70.9351 36.5752 71 36.4582 71H36.4624ZM31.182 69.0236L36.2959 70.3186L39.037 64.9226C39.0948 64.8097 39.2133 64.7434 39.3389 64.7518C40.6396 64.8435 41.9769 64.8224 43.3115 64.6898C43.4356 64.6771 43.5584 64.742 43.619 64.852L46.5096 70.1775L51.5869 68.7428L51.2624 62.6922C51.2554 62.5666 51.3245 62.4481 51.4387 62.3931C52.6449 61.8062 53.7947 61.1249 54.8555 60.3659C54.9585 60.2925 55.0954 60.2883 55.2026 60.3532L60.3631 63.516L64.0422 59.7353L60.7341 54.6566C60.665 54.5508 60.6664 54.414 60.7369 54.3096C61.4761 53.2134 62.1279 52.0482 62.6738 50.8462C62.726 50.732 62.8431 50.6586 62.9687 50.6628L69.0278 50.8223L70.3228 45.7083L64.9268 42.9673C64.8139 42.9094 64.7462 42.7909 64.7561 42.6654C64.8478 41.3647 64.8266 40.0287 64.6954 38.6928C64.6827 38.5672 64.7476 38.4459 64.8577 38.3852L70.1832 35.4946L68.7485 30.4174L62.6978 30.7419C62.5709 30.7489 62.4538 30.6798 62.3987 30.5655C61.8119 29.3579 61.1291 28.2082 60.3715 27.1487C60.2982 27.0457 60.2939 26.9089 60.3588 26.8017L63.5217 21.6412L59.7409 17.962L54.6623 21.2702C54.5565 21.3393 54.4196 21.3379 54.3152 21.2674C53.2191 20.5295 52.0538 19.8778 50.8519 19.3304C50.7376 19.2782 50.6642 19.1625 50.6685 19.0356L50.8279 12.9765L45.714 11.6814L42.9729 17.0775C42.9165 17.1903 42.798 17.258 42.671 17.2482C41.3703 17.1565 40.0344 17.1776 38.6984 17.3088C38.5743 17.3215 38.4515 17.2566 38.3909 17.1466L35.4988 11.8211L30.4216 13.2558L30.7461 19.3064C30.7531 19.432 30.684 19.5505 30.5697 19.6055C29.3622 20.1924 28.2124 20.8752 27.1529 21.6327C27.05 21.7061 26.9131 21.7117 26.8059 21.6454L21.6454 18.4826L17.9662 22.2633L21.2744 27.342C21.3435 27.4478 21.3421 27.5846 21.2716 27.689C20.5338 28.7837 19.882 29.949 19.3346 31.1524C19.2825 31.2666 19.1696 31.34 19.0398 31.3358L12.9807 31.1764L11.6856 36.2903L17.0817 39.0313C17.1946 39.0892 17.2623 39.2077 17.2524 39.3332C17.1607 40.6339 17.1819 41.9699 17.3131 43.3059C17.3258 43.4314 17.2609 43.5527 17.1508 43.6134L11.8253 46.504L13.26 51.5812L19.3107 51.2568C19.4405 51.2497 19.5547 51.3202 19.6097 51.4331C20.1966 52.6393 20.878 53.789 21.637 54.8499C21.7103 54.9529 21.7146 55.0897 21.6497 55.1969L18.4868 60.3574L22.2676 64.0366L27.3462 60.7284C27.452 60.6593 27.5889 60.6607 27.6933 60.7313C28.7894 61.4691 29.9547 62.1208 31.1566 62.6682C31.2709 62.7204 31.3442 62.8361 31.34 62.963L31.1806 69.0221L31.182 69.0236ZM41.0064 56.1901C34.3801 56.1901 28.2745 51.8154 26.3855 45.1313C24.1072 37.0718 28.8106 28.6624 36.8687 26.3841C40.7722 25.2809 44.8732 25.7634 48.4141 27.7426C51.9551 29.7233 54.5127 32.9638 55.6173 36.8673C56.7205 40.7708 56.2381 44.8718 54.2588 48.4127C52.2781 51.9537 49.0377 54.5113 45.1342 55.6159C43.7587 56.0053 42.372 56.1901 41.0078 56.1901H41.0064ZM41.0233 26.4335C39.693 26.4335 38.3556 26.6169 37.0408 26.9893C29.3156 29.1731 24.8069 37.2355 26.9907 44.9621C29.1745 52.6872 37.2369 57.196 44.9635 55.0121C48.7062 53.9541 51.8126 51.5022 53.71 48.108C55.6075 44.7138 56.0702 40.7835 55.0121 37.0408C53.9541 33.2981 51.5022 30.1917 48.108 28.2942C45.9058 27.0627 43.478 26.4363 41.0233 26.4363V26.4335Z" fill="#161616"/>
</svg>
