<svg width="82" height="82" viewBox="0 0 82 82" fill="none" xmlns="http://www.w3.org/2000/svg">
<path d="M11.3594 41.3067L46.038 52.3427L70.6511 22.3906L11.3594 41.3067Z" fill="white"/>
<path d="M46.0336 52.7289C46 52.7289 45.968 52.7236 45.9345 52.7131L11.2558 41.677C11.1039 41.6298 11 41.4776 11 41.3044C11 41.1312 11.1039 40.9807 11.2558 40.9317L70.5475 22.0157C70.6994 21.9667 70.8625 22.035 70.9457 22.1819C71.0304 22.3289 71.0144 22.5178 70.9089 22.6473L46.2958 52.5977C46.2271 52.6799 46.1311 52.7254 46.032 52.7254L46.0336 52.7289ZM12.6214 41.3061L45.9185 51.9014L69.5514 23.1424L12.6214 41.3044V41.3061Z" fill="#161616"/>
<path d="M28.6292 59.1126L23.7891 45.265L62.1118 27.5859L29.8844 47.2035L37.1341 49.5112L28.6292 59.1126Z" fill="white"/>
<path d="M28.6306 59.4981C28.6066 59.4981 28.5827 59.4964 28.5603 59.4894C28.4419 59.4632 28.3444 59.3722 28.3012 59.248L23.4611 45.4004C23.3924 45.2044 23.4787 44.9857 23.6546 44.9052L61.9773 27.2261C62.1516 27.1457 62.3515 27.2279 62.433 27.4133C62.5162 27.5988 62.4506 27.821 62.2875 27.9225L30.802 47.0887L37.2363 49.1356C37.3563 49.1741 37.4474 49.2773 37.4794 49.4085C37.5114 49.5398 37.4778 49.6797 37.3914 49.7777L28.8865 59.3792C28.8193 59.4544 28.7266 59.4964 28.6322 59.4964L28.6306 59.4981ZM24.2446 45.4738L28.7633 58.4047L36.472 49.7025L29.7883 47.575C29.6508 47.5313 29.5516 47.4018 29.5356 47.2461C29.5197 47.0904 29.59 46.9399 29.7147 46.8647L56.2546 30.7095L24.2446 45.4756V45.4738Z" fill="#161616"/>
<path d="M29.0745 55.3201C29.0601 55.3201 29.0473 55.3201 29.0329 55.3183C28.8394 55.2939 28.6987 55.1014 28.7211 54.8897L29.5366 47.1637C29.559 46.9503 29.7349 46.7998 29.9283 46.8226C30.1218 46.8471 30.2625 47.0395 30.2401 47.2512L29.4246 54.9772C29.4039 55.1749 29.2503 55.3201 29.0729 55.3201H29.0745Z" fill="#161616"/>
</svg>
