<svg width="588" height="588" viewBox="0 0 588 588" fill="none" xmlns="http://www.w3.org/2000/svg">
<path d="M209.089 306.758H337.861C340.264 306.758 342.217 304.803 342.217 302.4V220.934C342.217 218.53 340.264 216.576 337.861 216.576H209.089C206.688 216.576 204.734 218.53 204.734 220.934V302.4C204.734 304.803 206.688 306.758 209.089 306.758ZM206.248 220.932C206.248 219.363 207.523 218.089 209.089 218.089H337.861C339.43 218.089 340.704 219.365 340.704 220.932V302.399C340.704 303.968 339.428 305.243 337.861 305.243H209.089C207.523 305.243 206.248 303.967 206.248 302.399V220.932Z" fill="#161616"/>
<path d="M307.903 184.039H238.913C238.495 184.039 238.156 184.378 238.156 184.796C238.156 185.215 238.495 185.554 238.913 185.554H307.903C308.32 185.554 308.659 185.215 308.659 184.796C308.659 184.378 308.32 184.039 307.903 184.039Z" fill="#161616"/>
<path d="M308.429 166.34H298.085C297.667 166.34 297.328 166.678 297.328 167.097C297.328 167.516 297.667 167.855 298.085 167.855H308.429C308.847 167.855 309.185 167.516 309.185 167.097C309.185 166.678 308.847 166.34 308.429 166.34Z" fill="#161616"/>
<path d="M238.992 167.855H283.353C283.771 167.855 284.109 167.516 284.109 167.097C284.109 166.678 283.771 166.34 283.353 166.34H238.992C238.573 166.34 238.234 166.678 238.234 167.097C238.234 167.516 238.573 167.855 238.992 167.855Z" fill="#161616"/>
<path d="M292.959 150.156H308.517C308.935 150.156 309.274 149.818 309.274 149.4C309.274 148.982 308.936 148.643 308.517 148.643H292.959C292.542 148.643 292.203 148.981 292.203 149.4C292.203 149.819 292.542 150.156 292.959 150.156Z" fill="#161616"/>
<path d="M239.07 150.156H283.43C283.848 150.156 284.187 149.818 284.187 149.4C284.187 148.982 283.849 148.643 283.43 148.643H239.07C238.651 148.643 238.312 148.981 238.312 149.4C238.312 149.819 238.651 150.156 239.07 150.156Z" fill="#161616"/>
<path d="M308.592 130.943H299.796C299.379 130.943 299.039 131.282 299.039 131.701C299.039 132.12 299.377 132.458 299.796 132.458H308.592C309.01 132.458 309.349 132.12 309.349 131.701C309.349 131.282 309.011 130.943 308.592 130.943Z" fill="#161616"/>
<path d="M239.154 132.456H283.516C283.934 132.456 284.273 132.118 284.273 131.699C284.273 131.28 283.935 130.941 283.516 130.941H239.154C238.737 130.941 238.398 131.28 238.398 131.699C238.398 132.118 238.737 132.456 239.154 132.456Z" fill="#161616"/>
<path d="M297.648 114.759H308.666C309.084 114.759 309.423 114.421 309.423 114.002C309.423 113.583 309.085 113.244 308.666 113.244H297.648C297.229 113.244 296.891 113.583 296.891 114.002C296.891 114.421 297.229 114.759 297.648 114.759Z" fill="#161616"/>
<path d="M238.148 114.759H283.595C284.013 114.759 284.353 114.421 284.353 114.002C284.353 113.583 284.014 113.244 283.595 113.244H238.148C237.73 113.244 237.391 113.583 237.391 114.002C237.391 114.421 237.729 114.759 238.148 114.759Z" fill="#161616"/>
<path d="M234.603 319.949H207.182C205.837 319.949 204.742 321.043 204.742 322.388V336.452C204.742 337.798 205.837 338.892 207.182 338.892H234.603C235.948 338.892 237.041 337.798 237.041 336.452V322.388C237.041 321.043 235.948 319.949 234.603 319.949ZM235.528 336.452C235.528 336.963 235.113 337.379 234.603 337.379H207.182C206.671 337.379 206.255 336.963 206.255 336.452V322.388C206.255 321.878 206.671 321.463 207.182 321.463H234.603C235.113 321.463 235.528 321.878 235.528 322.388V336.452Z" fill="#161616"/>
<path d="M287.189 319.949H259.767C258.421 319.949 257.328 321.043 257.328 322.388V336.452C257.328 337.798 258.421 338.892 259.767 338.892H287.189C288.534 338.892 289.627 337.798 289.627 336.452V322.388C289.627 321.043 288.534 319.949 287.189 319.949ZM288.114 336.452C288.114 336.963 287.699 337.379 287.189 337.379H259.767C259.257 337.379 258.841 336.963 258.841 336.452V322.388C258.841 321.878 259.257 321.463 259.767 321.463H287.189C287.699 321.463 288.114 321.878 288.114 322.388V336.452Z" fill="#161616"/>
<path d="M339.766 319.949H312.345C310.999 319.949 309.906 321.043 309.906 322.388V336.452C309.906 337.798 310.999 338.892 312.345 338.892H339.766C341.111 338.892 342.205 337.798 342.205 336.452V322.388C342.205 321.043 341.111 319.949 339.766 319.949ZM340.692 336.452C340.692 336.963 340.277 337.379 339.766 337.379H312.345C311.835 337.379 311.419 336.963 311.419 336.452V322.388C311.419 321.878 311.835 321.463 312.345 321.463H339.766C340.277 321.463 340.692 321.878 340.692 322.388V336.452Z" fill="#161616"/>
<path d="M234.603 352.025H207.182C205.837 352.025 204.742 353.12 204.742 354.466V368.529C204.742 369.875 205.837 370.968 207.182 370.968H234.603C235.948 370.968 237.041 369.875 237.041 368.529V354.466C237.041 353.12 235.948 352.025 234.603 352.025ZM235.528 368.529C235.528 369.039 235.113 369.455 234.603 369.455H207.182C206.671 369.455 206.255 369.039 206.255 368.529V354.466C206.255 353.954 206.671 353.539 207.182 353.539H234.603C235.113 353.539 235.528 353.954 235.528 354.466V368.529Z" fill="#161616"/>
<path d="M287.189 352.025H259.767C258.421 352.025 257.328 353.12 257.328 354.466V368.529C257.328 369.875 258.421 370.968 259.767 370.968H287.189C288.534 370.968 289.627 369.875 289.627 368.529V354.466C289.627 353.12 288.534 352.025 287.189 352.025ZM288.114 368.529C288.114 369.039 287.699 369.455 287.189 369.455H259.767C259.257 369.455 258.841 369.039 258.841 368.529V354.466C258.841 353.954 259.257 353.539 259.767 353.539H287.189C287.699 353.539 288.114 353.954 288.114 354.466V368.529Z" fill="#161616"/>
<path d="M339.766 352.025H312.345C310.999 352.025 309.906 353.12 309.906 354.466V368.529C309.906 369.875 310.999 370.968 312.345 370.968H339.766C341.111 370.968 342.205 369.875 342.205 368.529V354.466C342.205 353.12 341.111 352.025 339.766 352.025ZM340.692 368.529C340.692 369.039 340.277 369.455 339.766 369.455H312.345C311.835 369.455 311.419 369.039 311.419 368.529V354.466C311.419 353.954 311.835 353.539 312.345 353.539H339.766C340.277 353.539 340.692 353.954 340.692 354.466V368.529Z" fill="#161616"/>
<path d="M234.603 384.105H207.182C205.837 384.105 204.742 385.199 204.742 386.545V400.608C204.742 401.954 205.837 403.049 207.182 403.049H234.603C235.948 403.049 237.041 401.954 237.041 400.608V386.545C237.041 385.199 235.948 384.105 234.603 384.105Z" fill="#161616"/>
<path d="M287.189 384.105H259.767C258.421 384.105 257.328 385.199 257.328 386.545V400.608C257.328 401.954 258.421 403.049 259.767 403.049H287.189C288.534 403.049 289.627 401.954 289.627 400.608V386.545C289.627 385.199 288.534 384.105 287.189 384.105ZM288.114 400.608C288.114 401.12 287.699 401.535 287.189 401.535H259.767C259.257 401.535 258.841 401.12 258.841 400.608V386.545C258.841 386.034 259.257 385.619 259.767 385.619H287.189C287.699 385.619 288.114 386.034 288.114 386.545V400.608Z" fill="#161616"/>
<path d="M339.766 384.105H312.345C310.999 384.105 309.906 385.199 309.906 386.545V400.608C309.906 401.954 310.999 403.049 312.345 403.049H339.766C341.111 403.049 342.205 401.954 342.205 400.608V386.545C342.205 385.199 341.111 384.105 339.766 384.105ZM340.692 400.608C340.692 401.12 340.277 401.535 339.766 401.535H312.345C311.835 401.535 311.419 401.12 311.419 400.608V386.545C311.419 386.034 311.835 385.619 312.345 385.619H339.766C340.277 385.619 340.692 386.034 340.692 386.545V400.608Z" fill="#161616"/>
<path d="M233.748 417.537H208.031C207.612 417.537 207.273 417.876 207.273 418.295C207.273 418.713 207.612 419.052 208.031 419.052H233.748C234.165 419.052 234.504 418.713 234.504 418.295C234.504 417.876 234.165 417.537 233.748 417.537Z" fill="#161616"/>
<path d="M286.333 417.537H260.615C260.198 417.537 259.859 417.876 259.859 418.295C259.859 418.713 260.198 419.052 260.615 419.052H286.333C286.751 419.052 287.09 418.713 287.09 418.295C287.09 417.876 286.751 417.537 286.333 417.537Z" fill="#161616"/>
<path d="M338.911 417.537H313.194C312.776 417.537 312.438 417.876 312.438 418.295C312.438 418.713 312.776 419.052 313.194 419.052H338.911C339.33 419.052 339.668 418.713 339.668 418.295C339.668 417.876 339.33 417.537 338.911 417.537Z" fill="#161616"/>
<path d="M275.168 274.151C275.244 274.151 275.321 274.15 275.396 274.15C288.197 274.025 298.515 263.583 298.329 250.677C298.143 237.91 287.643 227.588 274.889 227.588H274.717C261.867 227.713 251.598 238.23 251.784 251.091C251.97 263.853 262.439 274.151 275.169 274.151H275.168ZM274.729 229.103H274.889C286.82 229.103 296.641 238.759 296.815 250.699C296.993 262.69 287.417 272.52 275.381 272.637C275.31 272.637 275.239 272.638 275.168 272.638C263.262 272.638 253.471 263.006 253.296 251.071C253.122 239.056 262.718 229.218 274.729 229.102V229.103Z" fill="#161616"/>
<path d="M269.361 258.554C270.492 259.926 272.313 260.04 273.651 259.122L286.212 250.071C286.212 250.071 286.216 250.069 286.218 250.067C287.644 249.019 287.878 247.033 286.875 245.713C285.855 244.326 283.953 244.019 282.529 245.018L272.395 252.305L270.756 250.202C269.695 248.859 267.734 248.603 266.367 249.64C264.992 250.724 264.788 252.697 265.836 254.028L269.361 258.554Z" fill="#161616"/>
<path d="M236.089 295.22C236.154 295.979 235.935 296.454 236.383 296.454C236.749 296.412 237.219 296.596 237.215 296.162L237.208 295.226C240.245 294.888 240.897 292.104 239.698 290.852C238.213 289.316 233.68 289.662 234.609 287.473C235.051 286.419 236.998 285.851 238.913 287.525C239.253 287.864 239.351 287.45 239.705 287.187C239.915 286.977 239.763 286.837 239.551 286.626C238.951 286.048 238.049 285.576 237.123 285.437L237.115 284.551C237.115 284.136 236.58 284.305 236.278 284.266C235.837 284.266 236.049 284.819 236.004 285.436C234.433 285.615 233.292 286.579 233.304 288.066C233.334 291.35 240.191 290.048 239.033 292.905C238.588 294.014 236.729 294.739 234.731 293.49C233.933 292.984 233.964 292.6 233.603 292.84C233.313 293.165 232.876 293.223 233.183 293.621C233.545 294.087 234.941 295.087 236.088 295.218L236.089 295.22Z" fill="#161616"/>
<path d="M254.049 294.997C256.735 293.848 256.664 290.072 253.998 288.93C253.44 288.694 252.652 288.564 252.033 288.804C252.081 288.72 253.735 285.824 253.749 285.728C253.81 285.411 253.484 285.578 252.847 285.528C252.656 285.528 252.56 285.572 252.423 285.812L249.901 290.271C248.266 293.181 251.268 296.185 254.05 294.996L254.049 294.997ZM253.569 289.927C254.992 290.574 255.304 292.426 254.278 293.524C253.45 294.391 252.052 294.375 251.221 293.524C249.535 291.799 251.432 288.96 253.569 289.927Z" fill="#161616"/>
<path d="M262.772 286.387C262.372 285.993 261.883 285.7 261.308 285.544C258.098 284.658 255.714 288.645 258.148 291.056C258.903 291.8 260.188 292.257 261.172 291.875C259.4 295.067 259.182 295.137 259.687 295.137C260.383 295.098 260.559 295.272 260.79 294.859C262.894 291.087 265.063 288.66 262.773 286.386L262.772 286.387ZM258.946 290.283C258.142 289.46 258.078 288.048 258.919 287.155C259.928 286.097 261.807 286.35 262.446 287.86C263.409 290.109 260.581 291.981 258.946 290.282V290.283Z" fill="#161616"/>
<path d="M265.156 294.524C265.165 295.206 266.009 295.626 266.553 295.093C266.795 294.846 266.837 294.494 266.717 294.207C266.367 293.397 265.157 293.633 265.157 294.524H265.156Z" fill="#161616"/>
<path d="M273.229 285.408C270.956 285.408 269.054 286.942 268.493 289.036C267.367 293.262 271.963 296.843 275.798 294.605C280.143 292.055 278.187 285.408 273.229 285.408ZM275.981 293.041C273.639 295.425 269.479 293.759 269.45 290.338C269.425 287.4 272.627 285.582 275.159 287.06C277.307 288.313 277.741 291.243 275.981 293.043V293.041Z" fill="#161616"/>
<path d="M281.781 286.085C276.782 289 280.205 296.613 285.662 295.1C287.408 294.617 288.648 293.282 289.085 291.666C290.219 287.429 285.602 283.841 281.781 286.085ZM287.829 291.827C286.49 294.955 282.142 294.912 280.802 291.827C280.012 290.023 280.719 287.743 282.792 286.84C285.933 285.48 289.126 288.749 287.829 291.827Z" fill="#161616"/>
<path d="M293.994 285.585C288.386 287.171 289.761 295.273 295.381 295.273C299.826 295.273 301.925 289.923 298.808 286.852C297.461 285.53 295.611 285.129 293.994 285.585ZM295.385 294.156C294.319 294.156 293.367 293.732 292.669 293.041C289.52 289.904 293.357 284.792 297.241 287.058C300.596 289.016 299.255 294.155 295.385 294.155V294.156Z" fill="#161616"/>
<path d="M302.915 293.829C306.068 296.952 311.364 294.701 311.322 290.356C311.273 285.336 304.605 283.508 302.098 287.857C300.999 289.757 301.299 292.227 302.915 293.829ZM303.657 287.653C306.628 284.693 311.494 288.053 309.903 291.825C308.805 294.391 305.597 294.91 303.704 293.04C302.198 291.54 302.184 289.125 303.657 287.652V287.653Z" fill="#161616"/>
<path d="M175.738 121.191C149.604 121.191 128.344 142.458 128.344 168.6C128.344 169.019 128.682 169.357 129.101 169.357C129.52 169.357 129.858 169.019 129.858 168.6C129.858 143.294 150.441 122.705 175.739 122.705C176.158 122.705 176.496 122.367 176.496 121.948C176.496 121.529 176.158 121.191 175.739 121.191H175.738Z" fill="#161616"/>
<path d="M176.493 132.463C176.493 132.045 176.155 131.705 175.736 131.705C155.398 131.705 138.852 148.256 138.852 168.601C138.852 169.02 139.19 169.358 139.609 169.358C140.028 169.358 140.365 169.02 140.365 168.601C140.365 149.091 156.232 133.219 175.736 133.219C176.155 133.219 176.493 132.88 176.493 132.461V132.463Z" fill="#161616"/>
<path d="M150.115 169.359C150.534 169.359 150.873 169.021 150.873 168.602C150.873 154.889 162.025 143.732 175.734 143.732C176.153 143.732 176.491 143.394 176.491 142.976C176.491 142.558 176.153 142.219 175.734 142.219C161.191 142.219 149.359 154.054 149.359 168.602C149.359 169.021 149.698 169.359 150.115 169.359Z" fill="#161616"/>
<path d="M160.631 169.358C161.05 169.358 161.388 169.019 161.388 168.601C161.388 160.685 167.826 154.244 175.741 154.244C176.16 154.244 176.499 153.906 176.499 153.488C176.499 153.07 176.16 152.73 175.741 152.73C166.993 152.73 159.875 159.85 159.875 168.601C159.875 169.019 160.213 169.358 160.631 169.358Z" fill="#161616"/>
<path d="M178.68 171.544C181.024 169.199 181.024 165.385 178.68 163.04C176.327 160.683 172.517 160.702 170.18 163.04C167.836 165.385 167.836 169.198 170.18 171.544C172.521 173.886 176.337 173.888 178.68 171.544ZM171.249 164.11C172.98 162.378 175.83 162.33 177.61 164.11C179.364 165.865 179.364 168.719 177.61 170.473C175.858 172.228 173.004 172.224 171.249 170.473C169.497 168.718 169.497 165.862 171.249 164.11Z" fill="#161616"/>
<path d="M113.95 473.862C115.732 465.668 111.762 449.163 111.6 448.495C109.424 437.515 104.498 430.075 96.9588 426.384C82.3056 419.212 63.2256 428.62 62.4168 429.023C62.1036 429.182 61.9392 429.534 62.0208 429.874C62.1 430.215 62.4048 430.457 62.7564 430.457C62.9148 430.457 78.768 430.571 87.6744 439.296C90.21 441.781 94.512 449.292 98.6712 456.554C105.905 469.183 109.555 475.097 111.985 475.537L112.056 477.554H91.932C90.6852 477.554 89.6712 478.57 89.6712 479.817V488.737C89.6712 489.984 90.6852 490.999 91.932 490.999H152.603C153.85 490.999 154.865 489.984 154.865 488.737V479.817C154.865 478.57 153.85 477.554 152.603 477.554H137.258C137.362 472.364 137.628 467.126 138.035 461.933C141.092 460.277 159.647 449.705 163.808 434.603C168.238 418.525 185.534 415.294 185.708 415.262C186.433 415.134 186.565 414.144 185.898 413.831C164.413 403.754 154.249 405.535 142.397 421.455C132.404 434.875 136.366 460.509 136.54 461.594C136.54 461.597 136.543 461.597 136.543 461.599C136.123 466.903 135.851 472.255 135.746 477.556H128.863C128.186 455.022 128.596 436.769 130.08 423.286C132.56 421.688 149.587 409.971 152.285 387.779C155.057 364.969 169.123 350.736 169.266 350.595C169.74 350.124 169.412 349.312 168.742 349.301C168.564 349.328 148.768 349.219 136.189 364.583C125.665 377.439 123.115 397.035 128.606 422.822C127.091 436.392 126.67 454.813 127.351 477.554H120.62C120.449 450.706 122.45 448.511 121.949 444.595C124.867 406.365 119.203 381.54 105.112 370.814C93.336 361.851 79.7976 366.58 79.662 366.629C78.9804 366.877 79.0044 367.856 79.6992 368.066C89.0772 370.915 98.976 394.909 102.769 415.504C106.332 434.852 118.296 443.555 120.463 444.991C120.838 448.528 118.94 451.619 119.107 477.553H113.575L113.484 474.948C113.674 474.688 113.846 474.359 113.954 473.858L113.95 473.862ZM143.611 422.36C154.339 407.951 163.199 405.261 183.311 414.31C178.326 415.778 166.072 420.693 162.349 434.203C158.684 447.505 142.736 457.49 138.182 460.109C140.378 436.629 166.812 416.092 167.08 415.885C167.412 415.631 167.474 415.157 167.22 414.825C166.966 414.489 166.486 414.428 166.16 414.685C165.905 414.881 142.31 433.21 137.413 455.339C136.823 446.867 136.853 431.437 143.612 422.361L143.611 422.36ZM137.346 365.557C147.274 353.418 161.91 351.274 166.946 350.895C163.352 355.042 153.124 368.336 150.782 387.595C148.412 407.087 134.652 418.228 130.321 421.291C134.246 390.692 151.417 361.807 151.592 361.515C151.807 361.156 151.692 360.691 151.334 360.475C150.976 360.265 150.512 360.374 150.295 360.734C150.124 361.021 133.872 388.355 129.236 418.161C125.021 395.005 127.732 377.315 137.346 365.557ZM104.255 415.23C100.562 395.186 91.5276 372.912 82.1712 367.519C86.2188 366.633 95.706 365.548 104.21 372.035C117.185 381.928 122.842 405.621 120.683 440.619C113.286 423.427 108.374 389.637 108.325 389.291C108.265 388.877 107.874 388.602 107.468 388.65C107.054 388.709 106.768 389.093 106.828 389.507C106.879 389.862 112.016 425.23 119.747 442.262C119.81 442.404 119.85 442.554 119.905 442.698C116.155 439.721 107.183 431.13 104.256 415.231L104.255 415.23ZM153.353 479.818V488.738C153.353 489.151 153.017 489.486 152.604 489.486H91.932C91.5192 489.486 91.1844 489.15 91.1844 488.738V479.818C91.1844 479.404 91.5204 479.069 91.932 479.069C95.6028 479.069 156.203 479.069 152.603 479.069C153.017 479.069 153.352 479.405 153.352 479.818H153.353ZM99.9864 455.802C95.5812 448.112 91.4196 440.847 88.734 438.215C81.8172 431.439 71.2728 429.614 65.9904 429.124C71.8728 426.794 85.5744 422.495 96.3012 427.746C103.39 431.219 108.038 438.299 110.124 448.821C110.158 448.959 112.908 460.425 112.886 468.825C109.464 446.264 92.172 434.546 91.9836 434.42C91.6332 434.186 91.1652 434.288 90.936 434.635C90.7056 434.984 90.8016 435.453 91.1508 435.683C91.3476 435.815 110.609 448.881 111.894 473.994C109.742 472.832 103.924 462.675 99.9876 455.802H99.9864Z" fill="#161616"/>
<path d="M379.063 147.795C381.385 147.795 383.273 145.905 383.273 143.582V137.072C383.273 134.75 381.384 132.861 379.063 132.861H372.556C370.234 132.861 368.344 134.751 368.344 137.072V143.582C368.344 145.905 370.234 147.795 372.556 147.795H379.063ZM369.857 143.582V137.072C369.857 135.585 371.068 134.375 372.556 134.375H379.063C380.55 134.375 381.76 135.586 381.76 137.072V143.582C381.76 145.07 380.549 146.281 379.063 146.281H372.556C371.068 146.281 369.857 145.07 369.857 143.582Z" fill="#161616"/>
<path d="M472.598 109.055C464.97 110.42 459.121 116.93 458.766 124.862H468.933C469.027 118.538 470.287 112.089 472.598 109.055Z" fill="#161616"/>
<path d="M470.469 126.377C470.607 135.922 473.223 142.532 475.598 142.539C475.6 142.539 475.602 142.539 475.606 142.539C477.992 142.53 480.62 135.921 480.758 126.378H470.469V126.377Z" fill="#161616"/>
<path d="M480.758 124.863C480.618 115.363 477.992 108.788 475.606 108.779C475.604 108.779 475.601 108.779 475.598 108.779C473.223 108.785 470.607 115.363 470.469 124.864H480.756L480.758 124.863Z" fill="#161616"/>
<path d="M472.603 142.26C470.288 139.216 469.026 132.733 468.933 126.377H458.766C459.118 134.347 464.971 140.892 472.603 142.26Z" fill="#161616"/>
<path d="M478.603 142.252C486.242 140.861 492.092 134.328 492.446 126.377H482.28C482.186 132.727 480.921 139.204 478.602 142.252H478.603Z" fill="#161616"/>
<path d="M492.448 124.864C492.093 116.951 486.245 110.451 478.609 109.064C480.925 112.103 482.188 118.545 482.283 124.864H492.448Z" fill="#161616"/>
<path d="M96.5961 290.703C96.5961 308.637 111.173 323.229 129.09 323.229C147.007 323.229 161.604 308.637 161.604 290.703C161.604 272.768 147.425 258.648 129.851 258.239V220.081H132.362C134.682 220.081 136.569 218.193 136.569 215.874V213.058H191.892V426.514C191.892 429.601 193.841 432.313 196.749 433.26C221.484 441.069 247.472 444.973 273.47 444.973C299.468 444.973 325.475 441.068 350.228 433.257C353.127 432.301 355.075 429.591 355.075 426.514V407.487H361.681C363.891 407.487 365.69 405.687 365.69 403.477V206.66C365.69 204.449 363.891 202.649 361.681 202.649H355.075V189.865H395.084C395.503 189.865 395.841 189.527 395.841 189.109V126.415H447C447.434 141.883 459.989 154.316 475.547 154.316C491.105 154.316 504.258 141.446 504.258 125.596C504.258 109.747 491.378 97 475.545 97C459.713 97 447.363 109.401 446.993 124.901H395.084C394.665 124.901 394.327 125.24 394.327 125.659V188.353H355.075V180.605C355.075 177.559 353.078 174.798 350.219 173.89C341.173 171.029 331.73 168.647 322.149 166.79L322.511 113.736C322.541 107.246 317.325 101.985 310.827 101.985C132.031 101.985 272.528 101.976 216.227 102.009C209.769 102.042 204.497 107.286 204.464 113.733L204.375 130.081C204.372 130.494 204.707 130.842 205.131 130.842H226.31L226.08 166.547C216.151 168.422 206.286 170.886 196.748 173.89C193.842 174.802 191.889 177.5 191.889 180.605V211.544H136.567V209.334C136.567 207.014 134.679 205.126 132.36 205.126H125.853C123.534 205.126 121.646 207.014 121.646 209.334V215.874C121.646 218.193 123.534 220.081 125.853 220.081H128.335V258.239C110.767 258.643 96.5938 273.036 96.5938 290.703H96.5961ZM475.568 107.264C475.575 107.264 475.581 107.264 475.587 107.264C475.59 107.264 475.592 107.264 475.595 107.264C475.599 107.264 475.604 107.267 475.61 107.267C485.751 107.29 493.995 115.513 493.995 125.62C493.995 135.728 485.751 144.028 475.61 144.051C475.605 144.051 475.601 144.053 475.595 144.053C465.337 144.053 457.218 135.682 457.218 125.62C457.218 115.559 465.45 107.264 475.568 107.264ZM225.882 197.269H218.796C218.377 197.269 218.039 197.608 218.039 198.027C218.039 198.446 218.377 198.783 218.796 198.783C218.493 198.783 221.076 198.831 328.161 198.783C328.579 198.783 328.917 198.445 328.917 198.027C328.917 197.609 328.579 197.269 328.161 197.269H321.944L321.99 191.988H334.646C337.985 191.988 340.699 194.69 340.699 198.011C340.699 201.333 337.985 204.066 334.646 204.066H212.291C208.985 204.066 206.238 201.391 206.238 198.011C206.238 194.631 208.952 191.988 212.291 191.988H225.907L225.883 197.269H225.882ZM310.829 103.499C316.476 103.499 321.026 108.067 320.999 113.726C320.952 120.605 321.187 86.013 320.431 197.268H227.395C227.796 127.397 226.776 285.595 227.958 113.742V113.736C227.958 109.565 225.815 105.633 222.035 103.498C235.712 103.498 229.536 103.529 310.829 103.498V103.499ZM205.895 129.327L205.979 113.742C206.006 108.103 210.631 103.517 216.285 103.517C221.94 103.517 226.475 108.312 226.423 113.727L226.322 129.328H205.895V129.327ZM193.405 180.605C193.405 178.165 194.931 176.046 197.204 175.331C206.592 172.374 216.3 169.937 226.073 168.079L225.927 190.474H212.291C208.119 190.474 204.725 193.854 204.725 198.011C204.725 202.168 208.107 205.58 212.291 205.58H334.646C338.817 205.58 342.212 202.184 342.212 198.011C342.212 193.839 338.817 190.474 334.646 190.474H321.989L322.141 168.322C331.571 170.16 340.857 172.517 349.761 175.333C351.998 176.043 353.561 178.212 353.561 180.606V426.514C353.561 428.936 352.031 431.068 349.763 431.817C300.557 447.339 246.378 447.341 197.21 431.818C194.933 431.076 193.404 428.944 193.404 426.512V180.605H193.405ZM123.163 215.874V209.334C123.163 207.848 124.371 206.639 125.857 206.639H132.363C133.849 206.639 135.057 207.848 135.057 209.334V215.874C135.057 217.36 133.849 218.568 132.363 218.568H125.857C124.371 218.568 123.163 217.36 123.163 215.874ZM160.092 290.703C160.092 307.802 146.185 321.715 129.091 321.715C111.997 321.715 98.1105 307.803 98.1105 290.703C98.1105 273.602 112.009 259.714 129.091 259.714C146.173 259.714 160.092 273.614 160.092 290.703Z" fill="#161616"/>
<path d="M102.688 290.704C102.688 305.278 114.532 317.133 129.089 317.133C143.646 317.133 155.509 305.278 155.509 290.704C155.509 276.131 143.658 264.295 129.089 264.295C114.52 264.295 102.688 276.143 102.688 290.704ZM129.089 265.809C142.823 265.809 153.996 276.977 153.996 290.704C153.996 304.432 142.823 315.619 129.089 315.619C115.355 315.619 104.201 304.443 104.201 290.704C104.201 276.966 115.366 265.809 129.089 265.809Z" fill="#161616"/>
<path d="M128.428 301.745C128.559 303.531 128.208 304.285 128.9 304.274L129.597 304.262C130.29 304.252 129.914 303.505 129.986 301.735C132.892 301.532 135.694 300.447 136.928 297.831C137.599 296.401 137.623 294.471 137.106 293.271C134.877 288.084 123.541 290.422 123.456 285.113C123.418 282.797 125.181 281.469 127.465 281.077C132.758 280.181 134.274 282.611 135.174 283.038C135.54 283.214 135.694 282.776 136.112 282.386C136.346 282.101 136.309 281.814 136.086 281.599C134.668 280.133 132.766 279.144 129.606 279.122L129.574 277.252C129.565 276.62 128.937 276.894 128.455 276.841C128.168 276.846 128.028 276.99 128.032 277.277L128.064 279.192C123.428 279.678 121.509 282.17 121.556 285.085C121.687 292.939 135.414 289.063 135.519 295.144C135.532 295.986 135.381 296.707 135.066 297.311C133.306 300.651 127.018 300.789 123.931 298.376C122.71 297.418 122.396 296.573 121.914 297.028C121.384 297.636 120.883 297.735 121.461 298.415C123.313 300.493 125.535 301.61 128.428 301.745Z" fill="#161616"/>
<path d="M441.024 276.461C449.051 284.752 449.349 282.082 462.545 292.368C474.374 301.589 474.901 306.977 482.662 308.274C488.043 309.174 492.489 307.372 500.27 304.221C509.225 300.592 514.963 298.268 516.108 293.616C517.967 286.071 505.774 280.436 507.818 273.64C509.546 267.897 518.837 269.991 523.366 262.893C528.31 255.146 524.602 241.122 516.815 235.758C512.208 232.584 509.898 235.007 503.059 231.201C495.176 226.813 495.621 222.129 489.95 220.516C482.491 218.395 479.404 225.836 472.173 224.358C462.499 222.38 462.849 208.01 452.726 206.321C447.172 205.395 441.558 206.651 437.738 207.837C433.902 209.027 431.544 209.797 430.263 212.05C428.666 214.859 430.37 217.113 428.819 222.074C428.034 224.585 427.248 225.125 426.209 227.334C423.952 232.131 424.3 236.718 424.606 240.734C426.153 261.099 441.026 276.461 441.026 276.461H441.024Z" fill="#161616"/>
<path d="M457.035 416.961C457.035 416.961 386.131 427.175 379.953 413.006C379.953 413.006 382.521 402.392 398.423 401.083C414.326 399.774 457.035 416.959 457.035 416.959V416.961Z" fill="#161616"/>
<path d="M400.111 377.781C400.111 377.781 406.175 415.003 438.539 453.445C441.592 457.072 444.051 461.158 445.898 465.524L447.009 468.152C447.009 468.152 454.615 466.839 455.829 463.095C457.046 459.352 426.35 402.709 426.35 402.709L400.109 377.783L400.111 377.781Z" fill="white"/>
<path d="M447.015 468.619C446.83 468.619 446.659 468.509 446.585 468.334L445.473 465.706C443.608 461.298 441.158 457.274 438.187 453.748C406.111 415.648 399.715 378.231 399.654 377.858C399.622 377.661 399.721 377.464 399.898 377.369C400.075 377.275 400.293 377.305 400.44 377.444L426.681 402.37C426.717 402.404 426.747 402.442 426.769 402.486C429.921 408.302 457.523 459.415 456.283 463.241C454.996 467.208 447.418 468.559 447.096 468.615C447.07 468.619 447.042 468.621 447.017 468.621L447.015 468.619ZM400.855 379.129C402.357 386.3 410.525 419.44 438.902 453.144C441.933 456.742 444.434 460.846 446.335 465.341L447.299 467.619C448.792 467.305 454.422 465.935 455.393 462.949C456.232 460.363 437.815 424.831 425.982 402.996L400.855 379.129Z" fill="#161616"/>
<path d="M452.968 464.798L451.254 459.802C443.594 457.134 444.696 462.907 444.829 465.915C444.96 468.926 440.042 480.739 437.319 483.054C434.597 485.37 436.103 489.015 436.103 489.015C436.103 489.015 445.346 492.412 452.223 487.527C459.1 482.642 464.179 462.19 464.179 462.19C460.397 455.672 452.612 453.992 452.612 453.992C452.612 453.992 456.381 458.861 452.97 464.798H452.968Z" fill="#161616"/>
<path d="M443.2 490.65C439.274 490.65 436.169 489.536 435.947 489.456C435.824 489.411 435.726 489.317 435.675 489.196C435.659 489.156 434.072 485.209 437.02 482.702C439.616 480.492 444.489 468.803 444.364 465.939C444.352 465.679 444.334 465.4 444.314 465.106C444.185 463.188 444.012 460.563 445.639 459.322C446.833 458.412 448.722 458.426 451.412 459.362C451.547 459.409 451.654 459.515 451.7 459.652L453.058 463.611C455.394 458.478 452.381 454.461 452.242 454.282C452.123 454.127 452.113 453.911 452.218 453.746C452.323 453.581 452.522 453.5 452.711 453.539C453.038 453.609 460.744 455.339 464.584 461.958C464.645 462.063 464.663 462.188 464.633 462.306C464.423 463.148 459.433 482.981 452.494 487.911C449.505 490.034 446.122 490.652 443.196 490.652L443.2 490.65ZM436.473 488.646C437.848 489.091 445.917 491.439 451.958 487.146C458.275 482.657 463.157 464.308 463.682 462.262C460.873 457.57 455.855 455.492 453.63 454.769C454.574 456.587 455.957 460.542 453.378 465.031C453.287 465.19 453.116 465.285 452.927 465.263C452.744 465.245 452.589 465.122 452.528 464.948L450.889 460.168C448.664 459.423 447.089 459.389 446.205 460.061C444.979 460.996 445.128 463.237 445.246 465.039C445.267 465.341 445.285 465.629 445.297 465.895C445.436 469.061 440.506 480.96 437.622 483.41C435.524 485.195 436.223 487.903 436.467 488.644L436.473 488.646Z" fill="#161616"/>
<path d="M456.336 477.092C459.822 470.714 460.979 463.179 461.362 458.67C462.409 459.647 463.39 460.806 464.191 462.188C464.191 462.188 459.113 482.637 452.236 487.525C445.359 492.41 436.116 489.013 436.116 489.013C436.116 489.013 435.554 487.646 435.741 486.055C448.692 488.852 451.187 486.506 456.334 477.09L456.336 477.092Z" fill="#161616"/>
<path d="M435.734 486.059C435.853 485.052 436.268 483.954 437.325 483.056C440.048 480.741 444.965 468.928 444.834 465.917C444.704 462.907 443.602 457.136 451.26 459.804L452.974 464.8C456.385 458.863 452.615 453.994 452.615 453.994C452.615 453.994 457.452 455.039 461.353 458.674C460.97 463.183 459.813 470.718 456.327 477.096C451.18 486.512 448.685 488.856 435.734 486.061V486.059Z" fill="white"/>
<path d="M443.972 487.643C441.741 487.643 439.041 487.253 435.635 486.516C435.4 486.465 435.241 486.244 435.269 486.004C435.426 484.667 436.016 483.554 437.021 482.7C439.616 480.491 444.49 468.801 444.365 465.937C444.353 465.678 444.335 465.398 444.315 465.104C444.186 463.187 444.012 460.561 445.64 459.32C446.834 458.41 448.723 458.424 451.413 459.361C451.548 459.407 451.655 459.514 451.701 459.651L453.058 463.608C455.392 458.446 452.279 454.324 452.245 454.28C452.124 454.125 452.114 453.909 452.218 453.744C452.323 453.577 452.523 453.499 452.712 453.537C452.915 453.581 457.72 454.652 461.671 458.332C461.776 458.43 461.83 458.569 461.818 458.714C461.391 463.742 460.163 471.052 456.735 477.319C452.78 484.554 450.233 487.643 443.97 487.643H443.972ZM436.268 485.694C448.324 488.24 450.801 486.232 455.918 476.87C459.377 470.541 460.505 462.963 460.869 458.863C458.258 456.497 455.227 455.285 453.632 454.769C454.577 456.588 455.962 460.543 453.38 465.033C453.29 465.192 453.119 465.287 452.929 465.265C452.746 465.247 452.591 465.124 452.531 464.951L450.891 460.17C448.666 459.425 447.091 459.391 446.207 460.063C444.981 460.998 445.13 463.239 445.249 465.041C445.269 465.343 445.287 465.631 445.299 465.897C445.438 469.063 440.509 480.962 437.627 483.413C436.914 484.019 436.457 484.786 436.266 485.694H436.268Z" fill="#161616"/>
<path d="M449.625 479.053C449.578 479.053 449.532 479.047 449.486 479.033C449.238 478.956 449.101 478.693 449.177 478.447C449.198 478.384 451.147 472.092 452.146 465.817C452.186 465.563 452.424 465.386 452.681 465.428C452.937 465.468 453.11 465.708 453.07 465.964C452.061 472.305 450.092 478.662 450.072 478.725C450.009 478.924 449.824 479.053 449.625 479.053Z" fill="#161616"/>
<path d="M433.964 479.172C434.504 478.935 433.338 472.144 434.344 469.269C435.351 466.391 446.985 440.293 447.758 413.043C448.531 385.795 424.892 390.884 424.892 390.884C424.892 390.884 431.6 454.391 417.578 475.974C417.578 475.974 422.266 484.335 433.966 479.172H433.964Z" fill="white"/>
<path d="M426.861 481.314C420.133 481.314 417.205 476.271 417.169 476.205C417.084 476.054 417.09 475.867 417.185 475.722C430.957 454.523 424.493 391.57 424.426 390.935C424.402 390.698 424.559 390.478 424.793 390.428C425.198 390.341 434.763 388.364 441.628 394.069C446.253 397.915 448.474 404.303 448.227 413.056C447.767 429.271 443.462 447.676 435.435 467.763C435.119 468.555 434.892 469.127 434.787 469.423C434.221 471.038 434.384 474.076 434.505 476.294C434.638 478.785 434.652 479.381 434.155 479.6C431.349 480.839 428.929 481.312 426.865 481.312L426.861 481.314ZM418.129 475.981C418.985 477.286 423.54 483.183 433.623 478.813C433.679 478.43 433.621 477.329 433.569 476.346C433.446 474.05 433.277 470.905 433.903 469.117C434.014 468.8 434.245 468.222 434.565 467.419C442.552 447.435 446.833 429.136 447.29 413.032C447.53 404.58 445.423 398.445 441.03 394.792C435.29 390.021 427.294 390.966 425.403 391.272C426.015 397.333 431.428 454.99 418.131 475.983L418.129 475.981Z" fill="#161616"/>
<path d="M397.523 487.011C397.926 485.984 398.609 484.854 399.763 483.799C403.101 480.738 419.542 470.363 419.542 470.363C419.542 470.363 427.76 471.555 423.801 477.093C423.801 477.093 432.327 475.271 434.395 475.81C435.913 476.205 435.778 483.96 435.599 488.052C435.539 489.441 434.393 490.533 433.001 490.533H399.952C398.134 490.533 396.859 488.706 397.521 487.015L397.523 487.011Z" fill="white"/>
<path d="M432.997 490.997H399.948C398.931 490.997 397.981 490.494 397.405 489.652C396.839 488.823 396.718 487.769 397.082 486.839C397.58 485.57 398.373 484.431 399.441 483.452C402.771 480.399 418.613 470.389 419.286 469.966C419.381 469.906 419.491 469.884 419.602 469.9C419.781 469.926 424.01 470.566 425.092 473.103C425.512 474.09 425.402 475.2 424.765 476.414C427.196 475.929 432.77 474.904 434.508 475.357C435.078 475.506 436.594 475.901 436.06 488.072C435.988 489.713 434.643 491 432.995 491L432.997 490.997ZM397.954 487.181C397.699 487.834 397.781 488.543 398.18 489.125C398.581 489.711 399.241 490.061 399.95 490.061H432.999C434.143 490.061 435.08 489.167 435.13 488.027C435.527 478.998 434.745 476.382 434.276 476.259C432.665 475.838 426.237 477.046 423.897 477.546C423.71 477.588 423.515 477.505 423.408 477.344C423.301 477.183 423.305 476.974 423.418 476.815C424.35 475.51 424.626 474.384 424.236 473.466C423.462 471.654 420.389 470.987 419.638 470.848C417.973 471.901 403.178 481.295 400.077 484.139C399.114 485.021 398.401 486.042 397.956 487.177L397.954 487.181Z" fill="#161616"/>
<path d="M435.597 488.008C435.597 488.022 435.597 488.036 435.597 488.05C435.536 489.44 434.39 490.531 432.999 490.531H399.95C398.488 490.531 397.38 489.351 397.344 488.008H435.597Z" fill="#161616"/>
<path d="M406.514 484.64C406.335 484.64 406.164 484.537 406.087 484.362C405.983 484.126 406.087 483.851 406.325 483.744L422.227 476.664C422.465 476.559 422.741 476.664 422.846 476.901C422.95 477.137 422.846 477.413 422.608 477.519L406.706 484.6C406.643 484.628 406.579 484.64 406.516 484.64H406.514Z" fill="#161616"/>
<path d="M446.714 295.213C446.714 295.213 461.872 353.844 468.829 422.964C468.829 422.964 450.818 429.827 417.586 414.309C384.353 398.791 379.953 413.004 379.953 413.004L410.242 292.82L446.712 295.211L446.714 295.213Z" fill="#161616"/>
<path d="M457.245 424.903C448.497 424.903 435.032 422.974 417.387 414.734C398.986 406.141 389.612 406.779 384.986 408.827C381.263 410.477 380.409 413.119 380.399 413.145C380.325 413.386 380.073 413.525 379.825 413.457C379.581 413.388 379.436 413.139 379.499 412.893L409.787 292.709C409.842 292.49 410.049 292.339 410.273 292.357L446.743 294.747C446.945 294.761 447.116 294.902 447.166 295.098C447.317 295.684 462.412 354.555 469.295 422.919C469.315 423.131 469.195 423.328 468.997 423.405C468.913 423.437 464.875 424.905 457.247 424.905L457.245 424.903ZM392.065 406.604C397.717 406.604 405.933 408.354 417.784 413.886C448.022 428.006 465.713 423.451 468.327 422.639C461.702 357.153 447.567 300.48 446.345 295.659L410.601 293.315L381.094 410.398C381.869 409.574 382.997 408.686 384.608 407.973C386.37 407.192 388.786 406.604 392.065 406.604Z" fill="white"/>
<path d="M433.787 244.299C433.912 244.017 433.976 243.864 433.976 243.864C433.976 243.864 429.405 243.77 423.702 245.322C422.991 245.463 422.274 245.618 421.551 245.794L421.455 246.009C418.076 247.151 414.475 248.897 411.283 251.575C401.76 259.565 386.599 275.798 384.044 289.244C381.758 301.27 395.872 300.791 405.095 294.393C405.141 294.419 405.184 294.449 405.23 294.474C411.589 297.834 425.337 302.456 448.664 298.04C452.436 297.325 455.326 294.266 455.825 290.458L461.006 250.925C461.006 250.925 449.665 244.168 433.785 244.299H433.787Z" fill="white"/>
<path d="M430.602 300.315C417.801 300.315 409.54 297.262 405.118 294.946C398.614 299.352 390.601 300.617 386.38 297.876C384.572 296.702 382.619 294.235 383.583 289.161C386.251 275.119 402.061 258.705 410.982 251.22C413.799 248.856 417.207 246.977 421.111 245.634L421.125 245.604C421.184 245.471 421.303 245.374 421.441 245.342C422.132 245.175 422.841 245.02 423.61 244.867C429.279 243.32 433.794 243.393 433.985 243.399C434.142 243.403 434.285 243.483 434.37 243.614C434.412 243.681 434.436 243.755 434.442 243.832C449.932 243.89 461.134 250.457 461.247 250.525C461.408 250.622 461.495 250.803 461.47 250.988L456.289 290.522C455.764 294.541 452.735 297.747 448.752 298.502C441.903 299.799 435.868 300.317 430.602 300.317V300.315ZM405.094 293.927C405.175 293.927 405.253 293.947 405.326 293.988L405.448 294.062C411.528 297.276 425.215 302.004 448.579 297.582C452.163 296.904 454.888 294.018 455.363 290.401L460.504 251.18C458.73 250.201 448.25 244.768 434.237 244.768C434.088 244.768 433.941 244.768 433.792 244.768H433.788C433.631 244.768 433.484 244.689 433.397 244.557C433.355 244.49 433.329 244.416 433.323 244.339C431.877 244.377 428.165 244.593 423.828 245.775C423.125 245.916 422.495 246.053 421.887 246.196V246.202C421.83 246.321 421.729 246.411 421.607 246.453C417.732 247.762 414.361 249.607 411.586 251.935C402.76 259.339 387.125 275.55 384.506 289.332C383.819 292.945 384.645 295.629 386.894 297.089C390.801 299.626 398.68 298.275 404.83 294.01C404.911 293.953 405.003 293.925 405.098 293.925L405.094 293.927Z" fill="#161616"/>
<path d="M390.057 264.34C390.057 264.34 383.199 286.477 383.839 290.752C384.479 295.029 385.506 300.233 391.217 296.666C396.928 293.1 394.868 270.282 394.868 270.282L390.057 264.34Z" fill="white"/>
<path d="M387.932 298.326C387.445 298.326 386.994 298.23 386.573 298.036C384.472 297.068 383.84 293.942 383.373 290.823C382.724 286.49 389.326 265.11 389.607 264.202C389.658 264.037 389.797 263.914 389.966 263.879C390.135 263.847 390.308 263.91 390.417 264.045L395.226 269.987C395.284 270.06 395.32 270.146 395.328 270.239C395.413 271.183 397.346 293.387 391.46 297.064C390.111 297.908 388.943 298.324 387.93 298.324L387.932 298.326ZM390.246 265.319C389.009 269.393 383.751 287.025 384.299 290.684C384.71 293.425 385.288 296.413 386.965 297.187C387.934 297.634 389.279 297.326 390.967 296.27C396.146 293.036 394.569 272.379 394.41 270.464L390.244 265.317L390.246 265.319Z" fill="#161616"/>
<path d="M400.176 279.537L401.463 279.042L391.998 251.911L382.258 250.135L380.969 250.63L400.176 279.537Z" fill="white"/>
<path d="M390.433 277.762L400.176 279.538L390.711 252.407L380.969 250.631L390.433 277.762Z" fill="#161616"/>
<path d="M408.452 284.958C408.396 284.958 408.337 284.948 408.283 284.926C408.041 284.831 407.922 284.561 408.017 284.32L417.953 258.824C418.047 258.582 418.319 258.463 418.559 258.558C418.8 258.653 418.919 258.922 418.825 259.164L408.889 284.66C408.816 284.845 408.639 284.958 408.454 284.958H408.452Z" fill="#161616"/>
<path d="M427.882 292.348C430.955 292.721 434.139 292.644 437.328 291.889C454.532 287.819 449.304 260.217 449.304 260.217L461.01 250.924C484.005 276.285 468.823 307.23 444.541 310.975C436.076 312.28 428.653 310.534 422.398 307.431C429.251 302.312 428.977 296.144 427.882 292.346V292.348Z" fill="white"/>
<path d="M438.915 311.88C433.198 311.88 427.594 310.533 422.189 307.853C422.044 307.78 421.946 307.637 421.931 307.476C421.917 307.313 421.988 307.156 422.117 307.059C428.593 302.222 428.581 296.461 427.431 292.48C427.387 292.329 427.423 292.166 427.524 292.047C427.626 291.928 427.781 291.868 427.936 291.886C431.174 292.28 434.298 292.127 437.22 291.437C443.927 289.85 447.957 284.427 449.197 275.317C449.232 275.061 449.469 274.884 449.725 274.916C449.981 274.95 450.16 275.188 450.126 275.444C448.845 284.842 444.459 290.688 437.437 292.349C434.614 293.015 431.613 293.201 428.51 292.893C429.36 296.409 429.499 302.339 423.283 307.345C430.091 310.569 437.216 311.638 444.473 310.519C456.175 308.714 465.956 300.504 470.001 289.093C474.464 276.503 471.063 262.709 460.668 251.245C460.494 251.053 460.509 250.757 460.7 250.584C460.891 250.411 461.187 250.425 461.36 250.616C471.993 262.344 475.465 276.483 470.883 289.407C466.723 301.143 456.658 309.588 444.616 311.445C442.707 311.739 440.806 311.886 438.919 311.886L438.915 311.88Z" fill="#161616"/>
<path d="M391.859 269.647L393.394 265.086L400.061 275.523L398.468 270.704C398.468 270.704 400.335 271.701 401.63 273.65C402.885 275.541 403.906 280.829 403.966 281.147C406.908 283.586 416.64 290.989 427.885 292.352C428.983 296.148 429.877 301.835 423.024 306.953C408.175 299.587 399.288 285.058 399.288 285.058C392.737 280.288 391.861 269.647 391.861 269.647H391.859Z" fill="white"/>
<path d="M423.022 307.422C422.951 307.422 422.879 307.406 422.814 307.373C408.587 300.315 399.68 286.561 398.935 285.383C392.356 280.518 391.428 270.129 391.392 269.686C391.388 269.622 391.394 269.559 391.414 269.499L392.948 264.938C393.007 264.767 393.156 264.646 393.335 264.624C393.516 264.598 393.689 264.684 393.786 264.837L398.442 272.127L398.021 270.854C397.961 270.673 398.017 270.474 398.164 270.351C398.311 270.228 398.518 270.206 398.686 270.296C398.766 270.339 400.671 271.372 402.016 273.396C403.22 275.208 404.181 279.836 404.388 280.899C407.284 283.279 416.928 290.557 427.935 291.894C428.122 291.916 428.275 292.049 428.328 292.228C429.582 296.574 430.144 302.218 423.297 307.333C423.215 307.395 423.116 307.426 423.017 307.426L423.022 307.422ZM392.334 269.702C392.443 270.752 393.583 280.327 399.559 284.681C399.61 284.717 399.65 284.763 399.682 284.813C399.771 284.956 408.571 299.147 422.969 306.405C428.964 301.793 428.61 296.741 427.516 292.778C416.215 291.292 406.418 283.788 403.666 281.507C403.581 281.438 403.525 281.342 403.504 281.235C403.462 281.012 402.445 275.723 401.239 273.909C400.649 273.021 399.932 272.34 399.346 271.873L400.504 275.377C400.578 275.601 400.474 275.844 400.26 275.947C400.047 276.048 399.793 275.975 399.664 275.776L393.522 266.162L392.33 269.702H392.334Z" fill="#161616"/>
<path d="M439.162 234.181L438.818 242.896L431.5 244.358C431.5 244.358 435.904 253.329 455.367 248.299L448.434 243.72L446.641 231.748L439.162 234.181Z" fill="white"/>
<path d="M444.568 250.313C434.056 250.313 431.225 244.864 431.08 244.566C431.015 244.435 431.015 244.284 431.08 244.153C431.144 244.023 431.265 243.93 431.408 243.902L438.365 242.512L438.696 234.163C438.704 233.968 438.832 233.797 439.018 233.736L446.497 231.304C446.628 231.262 446.771 231.28 446.887 231.35C447.004 231.423 447.083 231.543 447.105 231.678L448.867 243.445L455.627 247.909C455.782 248.012 455.861 248.193 455.83 248.376C455.8 248.559 455.665 248.706 455.486 248.751C451.152 249.87 447.552 250.309 444.57 250.309L444.568 250.313ZM432.272 244.683C433.599 246.437 439.018 251.741 454.221 248.104L448.176 244.111C448.065 244.039 447.991 243.922 447.971 243.791L446.259 232.365L439.616 234.526L439.284 242.917C439.275 243.132 439.12 243.316 438.907 243.358L432.27 244.685L432.272 244.683Z" fill="#161616"/>
<path d="M433.357 221.543C435.319 216.35 438.766 219.242 440.975 220.269C443.184 221.296 445.12 216.696 447.627 218.003C450.134 219.31 447.091 222.76 446.584 224.258C446.078 225.756 448.972 224.258 450.003 224.943C450.684 225.394 450.798 226.445 449.852 227.695C449.258 228.479 448.366 229.19 447.629 229.478C446.255 234.017 441.376 237.784 437.337 236.262C433.269 234.729 433.291 221.727 433.359 221.546L433.357 221.543Z" fill="white"/>
<path d="M439.254 237.075C438.538 237.075 437.839 236.95 437.172 236.698C435.306 235.995 434.013 233.222 433.334 228.462C432.869 225.2 432.815 221.661 432.921 221.38C433.56 219.688 434.399 218.667 435.489 218.26C437.098 217.66 438.818 218.592 440.199 219.34C440.547 219.527 440.876 219.706 441.174 219.843C441.915 220.189 442.646 219.67 443.761 218.774C444.935 217.831 446.264 216.764 447.845 217.588C448.437 217.898 448.822 218.337 448.985 218.897C449.365 220.191 448.447 221.794 447.71 223.081C447.416 223.595 447.138 224.08 447.028 224.406C447.017 224.434 447.011 224.459 447.005 224.479C447.215 224.501 447.666 224.438 447.978 224.394C448.769 224.281 449.668 224.154 450.26 224.549C450.642 224.803 450.898 225.2 450.976 225.667C451.059 226.156 450.997 226.954 450.223 227.974C449.633 228.754 448.786 229.457 448.008 229.819C447.112 232.564 445.02 235.019 442.505 236.259C441.407 236.801 440.31 237.073 439.25 237.073L439.254 237.075ZM433.817 221.655C433.743 222.785 433.999 234.503 437.503 235.824C439.273 236.491 440.978 235.975 442.096 235.423C444.416 234.279 446.411 231.891 447.183 229.342C447.225 229.205 447.326 229.094 447.46 229.042C448.119 228.784 448.951 228.113 449.482 227.413C449.927 226.825 450.133 226.261 450.058 225.826C450.022 225.61 449.917 225.443 449.746 225.33C449.448 225.133 448.677 225.242 448.113 225.322C447.307 225.437 446.611 225.536 446.242 225.091C446.039 224.845 446.005 224.515 446.143 224.106C446.282 223.693 446.568 223.194 446.901 222.616C447.549 221.482 448.357 220.073 448.089 219.158C447.998 218.848 447.777 218.607 447.414 218.417C446.448 217.914 445.612 218.492 444.349 219.505C443.296 220.35 442.104 221.307 440.781 220.693C440.457 220.542 440.116 220.357 439.756 220.163C438.477 219.47 437.029 218.685 435.817 219.138C435.018 219.436 434.345 220.282 433.819 221.655H433.817Z" fill="#161616"/>
<rect x="0.5" y="0.5" width="587" height="587" rx="11.5" stroke="#F2F2F2"/>
</svg>
