<svg width="215" height="28" viewBox="0 0 215 28" fill="none" xmlns="http://www.w3.org/2000/svg">
<g id="Frame 26085919" clip-path="url(#clip0_876_4286)">
<g id="Group">
<path id="Vector" d="M207.539 5.24023V5.56973H208.835V9.40956H209.155V5.56973H210.451V5.24023H207.539ZM211.162 5.24023V9.40323H211.475V5.68379L213.025 8.95334H213.211L214.773 5.68379L214.785 9.40323H215.086V5.24023H214.64L213.127 8.4401L211.602 5.24023H211.156H211.162Z" fill="#161616"/>
<path id="Vector_2" d="M91.3513 0.132812H90.4531V28.1079H91.3513V0.132812Z" fill="#161616"/>
<g id="Group_2">
<path id="Vector_3" d="M23.2731 11.0239C22.0675 9.92769 20.5967 9.37642 18.8727 9.37642C17.1487 9.37642 15.6477 9.99105 14.3758 11.2203C13.1039 12.4496 12.471 14.1034 12.471 16.1817C12.471 16.2387 12.471 16.2957 12.477 16.3528C12.2841 15.5227 11.9285 14.832 11.3739 14.3125C10.518 13.5077 9.31236 12.9121 7.76317 12.5066C6.21399 12.1074 5.2254 11.7589 4.79742 11.4611C4.36943 11.1696 4.15243 10.7704 4.15243 10.2698C4.15243 9.76928 4.32724 9.37009 4.67686 9.06594C5.02648 8.7618 5.50872 8.60972 6.11152 8.60972C7.62453 8.60972 9.0833 9.17366 10.4999 10.3015L12.3444 7.50086C11.5367 6.77852 10.5843 6.22725 9.4932 5.83439C8.40214 5.44154 7.31108 5.24512 6.22002 5.24512C4.5563 5.24512 3.16384 5.68866 2.04867 6.56941C0.933498 7.45017 0.378924 8.7111 0.378924 10.3395C0.378924 11.968 0.818966 13.1656 1.69905 13.9259C2.57913 14.6863 3.96556 15.3073 5.87039 15.7825C7.06996 16.093 7.87168 16.4035 8.27555 16.7013C8.67942 17.0054 8.88437 17.4109 8.88437 17.9305C8.88437 18.4501 8.69148 18.8556 8.31172 19.1598C7.93196 19.4639 7.40753 19.616 6.7324 19.616C5.23746 19.616 3.60991 18.8049 1.84975 17.1828L-0.320312 19.9835C1.7533 21.9985 4.08009 23.0059 6.66609 23.0059C8.45639 23.0059 9.9031 22.5244 11.0002 21.5676C12.0671 20.6361 12.6097 19.4322 12.6398 17.9559C12.905 19.2231 13.4596 20.294 14.3276 21.1557C15.5754 22.3913 17.1487 23.0123 19.0596 23.0123C20.9704 23.0123 22.6281 22.3089 24.0447 20.9023L22.0796 18.6655C21.2839 19.5336 20.2712 19.9645 19.0415 19.9645C18.2759 19.9645 17.5948 19.7364 16.9859 19.2802C16.3771 18.8239 16.0215 18.2347 15.913 17.5123H25.0694V15.548C25.0694 13.6345 24.4666 12.1264 23.2611 11.0302L23.2731 11.0239ZM16.0215 14.8764C16.1119 14.1224 16.4495 13.5267 17.0281 13.0832C17.6008 12.6397 18.2398 12.4179 18.933 12.4179C19.6262 12.4179 20.2109 12.6333 20.6992 13.0579C21.1814 13.4824 21.4647 14.0907 21.5431 14.8764H16.0335H16.0215Z" fill="#161616"/>
<path id="Vector_4" d="M82.0778 5.23828V11.0677C81.1133 9.93987 79.8656 9.37593 78.3405 9.37593C76.8154 9.37593 75.4832 10.0032 74.3439 11.2515C73.4759 12.2083 72.9394 13.3805 72.7345 14.7555C72.5958 13.1968 72.0051 11.9422 70.9622 10.9917C69.7567 9.89551 68.2858 9.34425 66.5618 9.34425C64.8378 9.34425 63.3369 9.95887 62.065 11.1881C60.7931 12.4174 60.1602 14.0712 60.1602 16.1495C60.1602 18.2278 60.781 19.888 62.0288 21.1236C63.2766 22.3591 64.8499 22.9801 66.7608 22.9801C68.6716 22.9801 70.3293 22.2768 71.7459 20.8701L69.7868 18.6334C68.9911 19.5014 67.9784 19.9323 66.7487 19.9323C65.9832 19.9323 65.302 19.7042 64.6932 19.248C64.0843 18.7918 63.7287 18.2025 63.6202 17.4801H72.7525C72.9696 18.8425 73.5181 20.021 74.3982 21.0158C75.5676 22.3401 76.8938 23.0055 78.3827 23.0055C79.8716 23.0055 81.1013 22.3591 82.0838 21.0665V23.0055H85.5861V5.23828H82.0838H82.0778ZM63.7106 14.8505C63.801 14.0965 64.1386 13.5009 64.7173 13.0574C65.2899 12.6138 65.9289 12.392 66.6221 12.392C67.3153 12.392 67.9 12.6075 68.3883 13.032C68.8706 13.4565 69.1539 14.0648 69.2322 14.8505H63.7227H63.7106ZM81.2701 18.8425C80.7034 19.5204 80.0102 19.8626 79.2025 19.8626C78.3947 19.8626 77.6834 19.5204 77.0746 18.8425C76.4658 18.1645 76.1644 17.2901 76.1644 16.2255C76.1644 15.161 76.4597 14.2676 77.0505 13.5516C77.6412 12.8293 78.3525 12.4681 79.1784 12.4681C80.0042 12.4681 80.7034 12.8229 81.2701 13.5389C81.8367 14.2486 82.12 15.142 82.12 16.2129C82.12 17.2837 81.8367 18.1581 81.2701 18.8425Z" fill="#161616"/>
<path id="Vector_5" d="M60.2367 19.1914C59.8449 19.5779 59.3988 19.7871 58.8804 19.7871C58.5368 19.7871 58.2414 19.6413 57.9943 19.3562C57.7471 19.071 57.6205 18.6719 57.6205 18.1649V12.3925H60.6586V9.37007H57.6205V5.63795C57.6205 5.50489 57.6205 5.36549 57.6205 5.23242H54.0942V9.37007H52.6234V11.252C52.0326 10.707 51.3695 10.2698 50.6341 9.95935C49.7058 9.5665 48.7956 9.37007 47.8914 9.37007C46.083 9.37007 44.5218 10.0037 43.2077 11.271C42.2794 12.1644 41.6887 13.2479 41.4114 14.5215C41.2305 13.0832 40.6518 11.911 39.6693 11.0175C38.4637 9.92133 36.9929 9.37007 35.2689 9.37007C33.5449 9.37007 32.0439 9.9847 30.772 11.214C29.5001 12.4432 28.8672 14.097 28.8672 16.1753C28.8672 18.2537 29.4881 19.9138 30.7358 21.1494C31.9836 22.385 33.5569 23.0059 35.4678 23.0059C37.3787 23.0059 39.0364 22.3026 40.4529 20.8959L38.4878 18.6592C37.6921 19.5273 36.6794 19.9581 35.4497 19.9581C34.6842 19.9581 34.003 19.73 33.3942 19.2738C32.7854 18.8176 32.4297 18.2283 32.3212 17.506H41.333C41.556 18.9443 42.1709 20.1546 43.1836 21.1304C44.4856 22.385 46.077 23.0059 47.9577 23.0059C49.8384 23.0059 51.5926 22.1188 53.2141 20.351L51.1345 17.8988C50.2001 19.1281 49.1513 19.7427 47.9818 19.7427C47.0957 19.7427 46.3181 19.4322 45.6551 18.8112C44.992 18.1903 44.6604 17.3159 44.6604 16.1943C44.6604 15.0728 44.992 14.1984 45.6551 13.5647C46.3181 12.9374 47.1078 12.6206 48.024 12.6206C48.5967 12.6206 49.1814 12.76 49.7661 13.0388C50.3508 13.3176 50.8451 13.7105 51.249 14.2174L52.5691 12.3988H54.0882V18.3424C54.0882 19.7807 54.5041 20.9213 55.3359 21.7577C56.1678 22.5941 57.1865 23.0123 58.3981 23.0123C59.6098 23.0123 60.6888 22.5054 61.7557 21.5105C61.7437 21.4979 61.7316 21.4852 61.7135 21.4725C61.0625 20.8262 60.5682 20.0658 60.2306 19.1978L60.2367 19.1914ZM32.4177 14.8764C32.5141 14.1223 32.8456 13.5267 33.4243 13.0832C33.997 12.6396 34.6359 12.4179 35.3292 12.4179C36.0224 12.4179 36.6071 12.6333 37.0953 13.0578C37.5836 13.4824 37.8609 14.0907 37.9393 14.8764H32.4297H32.4177Z" fill="#161616"/>
<path id="Vector_6" d="M28.721 5.23828H25.2188V23.0055H28.721V5.23828Z" fill="#161616"/>
</g>
<g id="Group_3">
<path id="Vector_7" d="M107.597 6.84288C106.356 5.78471 104.644 5.25879 102.456 5.25879H96.2227V23.0006H97.4885V17.1965H102.456C104.644 17.1965 106.356 16.6706 107.597 15.6124C108.839 14.5542 109.46 13.0969 109.46 11.2403C109.46 9.38376 108.839 7.90105 107.597 6.84288ZM106.705 14.7887C105.729 15.6188 104.312 16.0306 102.456 16.0306H97.4885V6.42469H102.456C104.312 6.42469 105.723 6.84288 106.705 7.67929C107.682 8.51569 108.17 9.70058 108.17 11.2403C108.17 12.7801 107.682 13.9586 106.705 14.7887Z" fill="#161616"/>
<path id="Vector_8" d="M119.909 10.6515C119.047 9.80247 117.817 9.37793 116.208 9.37793C115.213 9.37793 114.261 9.54268 113.35 9.87851C112.44 10.2143 111.663 10.6769 111.018 11.2788L111.638 12.204C112.187 11.6907 112.85 11.2788 113.64 10.9684C114.423 10.6579 115.249 10.5058 116.111 10.5058C117.371 10.5058 118.323 10.829 118.981 11.4816C119.632 12.1343 119.963 13.0847 119.963 14.333V15.4102H115.514C113.827 15.4102 112.597 15.7587 111.825 16.4493C111.054 17.14 110.668 18.0461 110.668 19.1613C110.668 20.2765 111.084 21.2333 111.922 21.9366C112.76 22.6399 113.899 22.9884 115.34 22.9884C116.449 22.9884 117.401 22.7667 118.197 22.3358C118.993 21.8986 119.595 21.284 120.011 20.4983V22.9948H121.205V14.3837C121.205 12.7362 120.777 11.4879 119.915 10.6452L119.909 10.6515ZM119.957 18.9458C119.577 19.9216 119.011 20.6693 118.257 21.1826C117.504 21.6958 116.587 21.9556 115.514 21.9556C114.369 21.9556 113.483 21.7022 112.856 21.1953C112.229 20.6883 111.91 19.9977 111.91 19.1233C111.91 18.2488 112.193 17.6215 112.766 17.1463C113.338 16.6648 114.261 16.424 115.533 16.424H119.951V18.9458H119.957Z" fill="#161616"/>
<path id="Vector_9" d="M135.385 9.37743L128.73 24.8128C128.236 26.0104 127.657 26.8595 127.006 27.3664C126.355 27.8669 125.578 28.1204 124.686 28.1204C124.089 28.1204 123.528 28.019 123.01 27.8099C122.485 27.6008 122.045 27.2967 121.684 26.8975L122.304 25.909C122.968 26.6187 123.769 26.9735 124.716 26.9735C125.343 26.9735 125.885 26.7898 126.331 26.4286C126.777 26.0611 127.193 25.4401 127.573 24.553L128.266 22.9119L122.431 9.37109H123.745L128.935 21.5306L134.125 9.37109H135.391L135.385 9.37743Z" fill="#161616"/>
<path id="Vector_10" d="M156.52 10.8538C157.436 11.8359 157.9 13.2553 157.9 15.1055V23.007H156.659V15.2069C156.659 13.6862 156.303 12.5329 155.592 11.7346C154.88 10.9425 153.886 10.5433 152.614 10.5433C151.155 10.5433 150.004 11.0186 149.148 11.969C148.298 12.9195 147.87 14.1994 147.87 15.8025V23.007H146.628V15.2069C146.628 13.6862 146.273 12.5329 145.561 11.7346C144.85 10.9425 143.855 10.5433 142.583 10.5433C141.125 10.5433 139.973 11.0186 139.117 11.969C138.261 12.9195 137.839 14.1994 137.839 15.8025V23.007H136.598V9.37743H137.791V12.3809C138.219 11.4304 138.864 10.6954 139.714 10.1631C140.564 9.63722 141.583 9.37109 142.758 9.37109C143.934 9.37109 144.928 9.64989 145.748 10.2012C146.568 10.7524 147.153 11.5635 147.496 12.6343C147.924 11.6332 148.599 10.8411 149.522 10.2518C150.438 9.66257 151.511 9.37109 152.741 9.37109C154.344 9.37109 155.61 9.86533 156.526 10.8475L156.52 10.8538Z" fill="#161616"/>
<path id="Vector_11" d="M171.499 16.088C171.499 14.7763 171.228 13.5978 170.691 12.5649C170.155 11.5258 169.413 10.7211 168.479 10.1444C167.545 9.56784 166.49 9.27637 165.314 9.27637C164.139 9.27637 163.078 9.56784 162.138 10.1571C161.191 10.7464 160.456 11.5638 159.913 12.603C159.377 13.6485 159.105 14.827 159.105 16.1387C159.105 17.4503 159.389 18.6542 159.961 19.687C160.534 20.7262 161.324 21.5372 162.33 22.1202C163.337 22.7095 164.488 23.0009 165.784 23.0009C166.779 23.0009 167.701 22.8108 168.551 22.4307C169.401 22.0505 170.113 21.5055 170.673 20.7959L169.956 19.9405C169.474 20.5614 168.877 21.0367 168.153 21.3535C167.436 21.6766 166.652 21.835 165.809 21.835C164.784 21.835 163.862 21.6133 163.042 21.1634C162.222 20.7135 161.571 20.0799 161.095 19.2561C160.612 18.4387 160.359 17.501 160.323 16.4428H171.475L171.499 16.0816V16.088ZM160.347 15.4416C160.414 14.4722 160.667 13.6041 161.107 12.8374C161.547 12.0707 162.132 11.4751 162.861 11.0505C163.59 10.626 164.41 10.4169 165.32 10.4169C166.231 10.4169 167.05 10.6323 167.78 11.0632C168.509 11.4941 169.094 12.0897 169.546 12.8501C169.992 13.6104 170.239 14.4722 170.293 15.4416H160.359H160.347Z" fill="#161616"/>
<path id="Vector_12" d="M182.886 10.8538C183.833 11.8359 184.303 13.2553 184.303 15.1055V23.007H183.061V15.2069C183.061 13.6862 182.693 12.5329 181.958 11.7346C181.222 10.9425 180.192 10.5433 178.865 10.5433C177.34 10.5433 176.141 11.0186 175.267 11.969C174.393 12.9195 173.953 14.1994 173.953 15.8025V23.007H172.711V9.37743H173.904V12.4062C174.351 11.4558 175.02 10.7144 175.906 10.1758C176.792 9.63722 177.841 9.37109 179.046 9.37109C180.668 9.37109 181.952 9.86533 182.898 10.8475L182.886 10.8538Z" fill="#161616"/>
<path id="Vector_13" d="M194.076 22.0443C193.762 22.3548 193.37 22.5956 192.894 22.7603C192.418 22.9251 191.93 23.0074 191.417 23.0074C190.29 23.0074 189.422 22.6843 188.807 22.0316C188.192 21.3853 187.891 20.4792 187.891 19.3197V10.4741H185.504V9.3779H187.891V5.25293H189.133V9.3779H193.256V10.4741H189.133V19.1929C189.133 20.0737 189.338 20.7453 189.742 21.2016C190.145 21.6578 190.748 21.8859 191.544 21.8859C192.34 21.8859 193.027 21.6324 193.557 21.1319L194.082 22.038L194.076 22.0443Z" fill="#161616"/>
<path id="Vector_14" d="M197.009 22.5127C196.063 22.1896 195.327 21.7777 194.797 21.2771L195.37 20.2507C195.9 20.7132 196.581 21.0997 197.419 21.4102C198.257 21.7207 199.131 21.8728 200.041 21.8728C201.349 21.8728 202.314 21.651 202.935 21.2074C203.556 20.7639 203.863 20.1429 203.863 19.3572C203.863 18.7933 203.694 18.3434 203.357 18.0202C203.019 17.6971 202.597 17.4563 202.103 17.2979C201.608 17.1395 200.921 16.9811 200.041 16.81C199.016 16.6199 198.185 16.4172 197.558 16.1954C196.931 15.9736 196.388 15.6124 195.942 15.1182C195.496 14.624 195.273 13.9333 195.273 13.0589C195.273 11.9944 195.701 11.12 196.551 10.423C197.401 9.72595 198.619 9.38379 200.192 9.38379C201.018 9.38379 201.838 9.50417 202.651 9.74496C203.465 9.98574 204.122 10.3026 204.641 10.6954L204.068 11.7219C203.537 11.3291 202.935 11.0249 202.253 10.8221C201.572 10.6194 200.879 10.5117 200.168 10.5117C198.962 10.5117 198.046 10.7461 197.437 11.2087C196.822 11.6712 196.521 12.2795 196.521 13.0335C196.521 13.6355 196.696 14.098 197.039 14.4339C197.389 14.7697 197.811 15.0168 198.317 15.1816C198.824 15.3463 199.529 15.5174 200.439 15.7075C201.452 15.8976 202.266 16.1003 202.886 16.3094C203.507 16.5249 204.032 16.8734 204.466 17.3486C204.894 17.8302 205.111 18.4891 205.111 19.3255C205.111 20.4407 204.665 21.3278 203.772 21.9995C202.88 22.6711 201.621 23.0006 199.999 23.0006C198.956 23.0006 197.962 22.8359 197.021 22.5127H197.009Z" fill="#161616"/>
</g>
</g>
</g>
<defs>
<clipPath id="clip0_876_4286">
<rect width="215" height="28" fill="white"/>
</clipPath>
</defs>
</svg>
