<svg width="82" height="82" viewBox="0 0 82 82" fill="none" xmlns="http://www.w3.org/2000/svg">
<rect x="32.7359" y="32.5758" width="16.5335" height="16.8471" rx="5.6" stroke="#161616" stroke-width="0.8"/>
<rect x="37.0719" y="11.4" width="7.86674" height="8.02353" rx="3.93337" stroke="#161616" stroke-width="0.8"/>
<rect x="0.4" y="-0.4" width="7.86674" height="8.02353" rx="3.93337" transform="matrix(1 0 0 -1 36.6719 70.2)" stroke="#161616" stroke-width="0.8"/>
<rect x="58.7281" y="23.8707" width="7.86674" height="8.02353" rx="3.93337" stroke="#161616" stroke-width="0.8"/>
<rect x="0.4" y="-0.4" width="7.86674" height="8.02353" rx="3.93337" transform="matrix(1 0 0 -1 58.3281 57.7293)" stroke="#161616" stroke-width="0.8"/>
<rect x="15.4" y="23.8707" width="7.86674" height="8.02353" rx="3.93337" stroke="#161616" stroke-width="0.8"/>
<rect x="0.4" y="-0.4" width="7.86674" height="8.02353" rx="3.93337" transform="matrix(1 0 0 -1 15 57.7293)" stroke="#161616" stroke-width="0.8"/>
<line x1="41.4" y1="19.8242" x2="41.4" y2="32.1772" stroke="#161616" stroke-width="0.8"/>
<line y1="-0.4" x2="12.3529" y2="-0.4" transform="matrix(0 -1 -1 0 41 62.1309)" stroke="#161616" stroke-width="0.8"/>
<line y1="-0.4" x2="12.1887" y2="-0.4" transform="matrix(0.8621 -0.506738 0.493292 0.869864 48.75 36.2656)" stroke="#161616" stroke-width="0.8"/>
<line y1="-0.4" x2="12.1887" y2="-0.4" transform="matrix(0.8621 0.506738 0.493292 -0.869864 48.75 45.7344)" stroke="#161616" stroke-width="0.8"/>
<line y1="-0.4" x2="12.1887" y2="-0.4" transform="matrix(-0.8621 -0.506738 -0.493292 0.869864 33.25 36.2656)" stroke="#161616" stroke-width="0.8"/>
<line y1="-0.4" x2="12.1887" y2="-0.4" transform="matrix(-0.8621 0.506738 -0.493292 -0.869864 33.25 45.7344)" stroke="#161616" stroke-width="0.8"/>
</svg>
