<svg width="387" height="244" viewBox="0 0 387 244" fill="none" xmlns="http://www.w3.org/2000/svg">
<g clip-path="url(#clip0_1034_7943)">
<path d="M187.787 128.59C196.277 104.051 194.065 93.8084 189.895 89.0999C188.651 87.6943 185.783 85.1251 183.785 80.4323C181.195 74.3458 182.588 70.6041 181.955 65.4294C180.718 55.3081 172.524 46.193 163.93 42.1789C157.927 39.3746 146.595 36.6618 140.25 42.5655C137.566 45.0618 135.052 49.7704 136.582 52.8953C138.769 57.3668 147.6 54.0973 152.423 59.9576C154.466 62.4402 153.801 64.1291 154.723 66.3382C155.065 67.1566 155.444 67.6425 156.017 68.4068C157.54 70.4409 158.9 72.5959 160.447 74.6123C164.925 80.4481 161.011 89.4186 166.177 93.9727C170 97.3415 175.294 95.211 176.501 98.2523C177.453 100.653 174.092 102.118 174.237 105.919C174.414 110.535 178.785 112.115 183.249 118.636C185.752 122.292 186.961 125.848 187.787 128.589V128.59Z" fill="white"/>
<path d="M187.785 128.809H187.781C187.686 128.807 187.603 128.744 187.575 128.653C186.694 125.731 185.468 122.27 183.066 118.76C181.305 116.187 179.587 114.419 178.073 112.86C175.781 110.5 174.125 108.795 174.015 105.928C173.939 103.95 174.766 102.61 175.494 101.427C176.184 100.309 176.728 99.4256 176.295 98.3338C175.737 96.9272 174.208 96.7168 172.271 96.4502C170.263 96.1738 167.986 95.86 166.03 94.1368C163.268 91.7023 163.043 88.122 162.804 84.3312C162.593 80.9653 162.373 77.4853 160.27 74.7459C159.44 73.664 158.652 72.5259 157.89 71.4253C157.229 70.4702 156.545 69.4827 155.838 68.5384L155.751 68.4213C155.229 67.7259 154.853 67.2243 154.518 66.4236C154.169 65.5876 154.041 64.8223 153.917 64.0817C153.705 62.8168 153.505 61.6217 152.251 60.0971C149.764 57.0745 146.163 56.5295 142.987 56.0476C140.026 55.5991 137.469 55.2105 136.383 52.9915C134.73 49.6118 137.561 44.7666 140.098 42.405C146.649 36.3095 158.217 39.2702 164.021 41.98C171.83 45.6272 180.839 54.5132 182.171 65.4027C182.387 67.1633 182.369 68.7705 182.352 70.3246C182.319 73.4259 182.287 76.3551 183.985 80.3466C185.658 84.2771 187.98 86.7391 189.368 88.2105C189.634 88.4918 189.863 88.7348 190.058 88.9551C192.533 91.7505 193.794 95.9407 193.805 101.409C193.82 108.302 191.864 117.471 187.992 128.661C187.962 128.75 187.878 128.809 187.786 128.809H187.785ZM150.549 39.2574C146.809 39.2574 143.142 40.1712 140.396 42.7256C137.572 45.3548 135.383 49.9532 136.776 52.7997C137.761 54.8132 140.214 55.185 143.052 55.6148C146.307 56.1086 149.995 56.6672 152.588 59.8187C153.916 61.4328 154.136 62.743 154.348 64.0089C154.468 64.724 154.592 65.4646 154.921 66.2545C155.235 67.005 155.579 67.4643 156.1 68.1587L156.187 68.2758C156.899 69.2269 157.585 70.2174 158.249 71.1764C159.008 72.2732 159.792 73.4063 160.616 74.4804C162.8 77.3259 163.023 80.8738 163.24 84.3046C163.473 88.002 163.692 91.4948 166.318 93.8092C168.174 95.445 170.382 95.7489 172.329 96.0174C174.325 96.2918 176.048 96.5289 176.7 98.1725C177.214 99.4679 176.589 100.482 175.865 101.656C175.169 102.786 174.38 104.066 174.451 105.912C174.554 108.611 176.16 110.265 178.384 112.555C179.911 114.128 181.642 115.909 183.425 118.513C185.687 121.816 186.917 125.069 187.794 127.882C191.505 117.026 193.378 108.122 193.365 101.409C193.354 96.0509 192.129 91.9581 189.727 89.2443C189.537 89.0289 189.31 88.7889 189.047 88.5095C187.639 87.0174 185.283 84.5191 183.58 80.5168C181.846 76.4417 181.878 73.4673 181.912 70.3187C181.928 68.7784 181.946 67.1859 181.734 65.4548C180.422 54.7305 171.535 45.9735 163.833 42.3754C160.584 40.8577 155.5 39.2554 150.547 39.2554L150.549 39.2574Z" fill="#161616"/>
<path d="M187.856 126.362C187.736 126.362 187.639 126.265 187.638 126.145C187.453 105.818 182.446 84.6291 174.245 69.4658C163.412 49.4386 149.423 44.5294 149.282 44.4822C149.168 44.4438 149.106 44.3199 149.144 44.2048C149.183 44.0897 149.306 44.0288 149.422 44.0671C149.457 44.0789 153.033 45.3094 157.902 49.0186C162.386 52.4347 168.929 58.7189 174.629 69.2573C178.34 76.1179 181.536 84.6025 183.871 93.7953C186.562 104.384 187.976 115.267 188.074 126.141C188.075 126.262 187.978 126.361 187.858 126.362H187.856Z" fill="#161616"/>
<path d="M171.765 146.255C184.882 122.449 184.238 113.088 180.67 109.125C176.793 104.817 170.593 108.147 164.489 102.559C156.356 95.1144 160.185 82.6314 153.617 80.0849C149.476 78.4786 146.771 82.9836 141.76 81.1501C137.03 79.42 137.478 74.7714 132.666 69.9921C127.75 65.1095 118.152 61.3127 111.064 65.1645C104.885 68.5226 102.956 76.4229 103.247 81.8288C103.676 89.8177 109.166 96.3488 114.914 99.3645C123.177 103.699 131.544 100.544 132.65 103.683C133.678 106.606 126.468 109.466 126.84 114.939C127.101 118.76 130.967 122.496 134.917 123.463C140.392 124.802 143.572 120.22 146.838 121.967C150.264 123.798 148.355 129.685 150.804 135.024C152.823 139.428 158.097 144.092 171.766 146.255H171.765Z" fill="white"/>
<path d="M171.767 146.475C171.756 146.475 171.745 146.475 171.733 146.472C160.344 144.669 153.236 140.848 150.607 135.116C149.528 132.762 149.284 130.313 149.069 128.152C148.79 125.353 148.57 123.142 146.736 122.161C145.253 121.368 143.743 121.977 141.996 122.683C140.016 123.482 137.773 124.388 134.866 123.677C130.578 122.627 126.88 118.715 126.624 114.955C126.413 111.866 128.561 109.565 130.289 107.716C131.672 106.234 132.867 104.955 132.445 103.756C131.976 102.425 129.917 102.337 127.067 102.217C123.768 102.078 119.251 101.886 114.815 99.5587C111.79 97.9721 108.983 95.4964 106.909 92.5888C104.574 89.3124 103.233 85.5954 103.03 81.841C102.703 75.7672 105.03 68.1954 110.963 64.9721C117.825 61.2432 127.467 64.5177 132.823 69.837C134.941 71.94 136.043 74.0036 137.016 75.8242C138.261 78.1554 139.244 79.9967 141.837 80.9449C144.368 81.8705 146.295 81.1298 148.16 80.4137C149.946 79.7272 151.634 79.08 153.699 79.8806C157.02 81.1682 157.763 84.8636 158.623 89.1432C159.518 93.5941 160.533 98.639 164.64 102.398C167.816 105.306 171.061 105.767 173.924 106.173C176.511 106.541 178.955 106.888 180.836 108.979C182.978 111.359 183.603 115.164 182.692 120.287C181.544 126.746 177.934 135.518 171.959 146.361C171.92 146.431 171.846 146.474 171.767 146.474V146.475ZM145.229 121.344C145.801 121.344 146.369 121.468 146.943 121.775C148.983 122.866 149.224 125.296 149.504 128.109C149.716 130.235 149.956 132.646 151.004 134.934C153.557 140.5 160.502 144.228 171.649 146.015C182.204 126.827 185.186 114.465 180.511 109.272C178.735 107.3 176.477 106.979 173.862 106.607C170.936 106.191 167.62 105.72 164.344 102.721C160.132 98.8652 159.102 93.7455 158.195 89.2298C157.359 85.077 156.638 81.4898 153.541 80.2888C151.633 79.5482 150.023 80.1678 148.317 80.8219C146.377 81.5665 144.372 82.3377 141.688 81.356C138.937 80.3498 137.868 78.3482 136.63 76.0308C135.672 74.2367 134.586 72.2046 132.516 70.1478C127.273 64.9406 117.856 61.7252 111.172 65.3567C105.406 68.4885 103.148 75.8813 103.468 81.8173C103.929 90.3954 109.978 96.5272 115.018 99.1711C119.368 101.453 123.829 101.642 127.086 101.78C130.108 101.908 132.291 102 132.858 103.61C133.367 105.059 132.09 106.428 130.609 108.014C128.854 109.894 126.864 112.025 127.061 114.925C127.301 118.448 130.924 122.26 134.972 123.251C137.74 123.928 139.914 123.05 141.832 122.277C143.043 121.788 144.146 121.344 145.229 121.344Z" fill="#161616"/>
<path d="M256.692 206.198H174.038C170.477 206.198 167.954 203.329 168.403 199.789L188.755 39.5105C189.205 35.9714 192.457 33.1013 196.018 33.1013L274.522 32.1875C283.533 32.1875 284.755 35.9714 284.306 39.5105L263.954 199.79C263.504 203.329 260.253 206.199 256.691 206.199L256.692 206.198Z" fill="#161616"/>
<path d="M251.714 206.199H169.062C165.5 206.199 162.977 203.315 163.427 199.757L183.778 38.6604C184.227 35.1027 187.479 32.2188 191.041 32.2188H273.694C277.256 32.2188 279.779 35.1027 279.329 38.6604L258.977 199.758C258.528 203.316 255.276 206.2 251.714 206.2V206.199Z" fill="white"/>
<path d="M251.715 206.418H169.063C167.284 206.418 165.696 205.728 164.59 204.472C163.474 203.207 162.984 201.522 163.21 199.73L183.562 38.6325C184.023 34.9754 187.379 32 191.041 32H273.695C275.473 32 277.062 32.6905 278.167 33.9456C279.284 35.2115 279.773 36.8954 279.547 38.6875L259.195 199.786C258.733 203.443 255.378 206.418 251.715 206.418ZM191.041 32.4377C187.592 32.4377 184.431 35.241 183.996 38.6875L163.644 199.786C163.433 201.451 163.886 203.013 164.918 204.184C165.94 205.343 167.411 205.981 169.062 205.981H251.715C255.165 205.981 258.326 203.177 258.761 199.731L279.113 38.6325C279.324 36.9672 278.872 35.4052 277.84 34.2348C276.818 33.0761 275.346 32.4377 273.696 32.4377H191.041Z" fill="#161616"/>
<path d="M168.137 199.991L187.569 47.4042C187.672 46.5898 188.424 45.9288 189.246 45.9288H272.344C272.755 45.9288 273.862 45.7793 273.862 45.7793C273.862 45.7793 273.697 46.997 273.644 47.4042L254.212 199.992C254.109 200.807 253.358 201.467 252.535 201.467H169.438C168.616 201.467 168.034 200.808 168.137 199.992V199.991Z" fill="white"/>
<path d="M172.168 199.267L190.536 46.453C190.635 45.6376 191.344 44.9756 192.121 44.9756H270.671C270.671 44.9756 270.679 44.9756 270.683 44.9756C271.422 44.9697 272.005 45.6051 271.914 46.3389C271.909 46.3812 271.904 46.4196 271.9 46.453L253.532 199.267C253.433 200.083 252.724 200.744 251.947 200.744H173.397C172.62 200.744 172.069 200.084 172.168 199.267Z" fill="white"/>
<path d="M251.947 200.963H173.397C172.972 200.963 172.588 200.793 172.315 200.486C172.027 200.161 171.894 199.708 171.95 199.241L190.319 46.4272C190.43 45.5065 191.238 44.757 192.121 44.757H270.671C271.101 44.7501 271.503 44.9311 271.78 45.2429C272.054 45.5498 272.182 45.959 272.131 46.3662L272.118 46.4783L253.749 199.292C253.638 200.213 252.83 200.963 251.947 200.963ZM192.121 45.1947C191.452 45.1947 190.838 45.7711 190.753 46.4793L172.384 199.293C172.343 199.641 172.434 199.961 172.642 200.195C172.83 200.409 173.098 200.526 173.396 200.526H251.946C252.615 200.526 253.228 199.949 253.314 199.241L271.698 46.3131C271.733 46.0269 271.646 45.7505 271.455 45.5351C271.261 45.3167 270.975 45.1957 270.685 45.1957H192.121V45.1947Z" fill="#161616"/>
<path d="M244.729 108.667H202.727L206.922 127.219C207.226 128.561 208.514 129.513 210.029 129.513H236.297C237.812 129.513 239.152 128.561 239.529 127.219L244.729 108.667Z" fill="white"/>
<path d="M236.297 129.731H210.029C208.402 129.731 207.036 128.717 206.708 127.266L202.513 108.714C202.499 108.649 202.513 108.581 202.556 108.529C202.597 108.477 202.66 108.446 202.727 108.446H244.729C244.798 108.446 244.862 108.479 244.903 108.533C244.944 108.588 244.958 108.658 244.939 108.724L239.74 127.275C239.335 128.72 237.919 129.73 236.297 129.73V129.731ZM203 108.885L207.135 127.169C207.418 128.419 208.608 129.293 210.029 129.293H236.297C237.724 129.293 238.966 128.415 239.318 127.158L244.44 108.885H203Z" fill="#161616"/>
<path d="M244.914 107.393H202.617C201.74 107.393 201.047 106.682 201.071 105.803C201.095 104.926 201.825 104.214 202.703 104.214H245C245.877 104.214 246.57 104.925 246.546 105.803C246.522 106.681 245.792 107.393 244.914 107.393Z" fill="white"/>
<path d="M244.914 107.611H202.617C202.133 107.611 201.682 107.422 201.349 107.08C201.016 106.736 200.839 106.281 200.852 105.797C200.879 104.804 201.709 103.995 202.703 103.995H245.001C245.484 103.995 245.935 104.184 246.268 104.526C246.602 104.87 246.779 105.325 246.765 105.809C246.739 106.802 245.908 107.611 244.914 107.611ZM202.703 104.432C201.944 104.432 201.311 105.05 201.29 105.808C201.28 106.173 201.413 106.516 201.664 106.774C201.915 107.032 202.253 107.173 202.618 107.173H244.915C245.674 107.173 246.308 106.555 246.328 105.797C246.338 105.432 246.205 105.089 245.955 104.831C245.704 104.573 245.365 104.432 245.001 104.432H202.703Z" fill="#161616"/>
<path d="M215.622 126.559H214.397C213.702 126.559 213.121 126.131 212.984 125.518L210.271 113.363C210.189 112.997 210.283 112.612 210.529 112.305C210.814 111.949 211.271 111.736 211.753 111.736H216.062C216.48 111.736 216.876 111.898 217.148 112.178C217.387 112.425 217.514 112.745 217.504 113.077L217.134 125.231C217.111 125.963 216.434 126.558 215.624 126.558L215.622 126.559ZM211.752 112.174C211.402 112.174 211.073 112.326 210.87 112.578C210.706 112.784 210.645 113.028 210.698 113.267L213.411 125.421C213.501 125.826 213.916 126.121 214.397 126.121H215.622C216.198 126.121 216.679 125.715 216.695 125.218L217.066 113.063C217.073 112.85 216.99 112.643 216.834 112.482C216.643 112.285 216.362 112.173 216.062 112.173H211.753L211.752 112.174Z" fill="#161616"/>
<path d="M232.527 126.559H231.298C230.878 126.559 230.481 126.398 230.207 126.116C229.968 125.869 229.842 125.55 229.852 125.219L230.224 113.064C230.247 112.332 230.925 111.737 231.739 111.737H236.061C236.543 111.737 236.989 111.949 237.258 112.304C237.492 112.615 237.567 113.005 237.46 113.376L233.994 125.53C233.821 126.136 233.218 126.559 232.527 126.559ZM231.739 112.174C231.16 112.174 230.676 112.579 230.662 113.077L230.29 125.231C230.283 125.444 230.366 125.649 230.522 125.811C230.714 126.007 230.996 126.121 231.299 126.121H232.528C233.016 126.121 233.457 125.822 233.575 125.408L237.041 113.254C237.11 113.013 237.063 112.769 236.91 112.566C236.725 112.32 236.408 112.172 236.063 112.172H231.741L231.739 112.174Z" fill="#161616"/>
<path d="M225.279 126.559H221.976C221.712 126.559 221.459 126.448 221.262 126.247C221.013 125.993 220.874 125.619 220.883 125.221L221.149 113.066C221.165 112.333 221.677 111.737 222.291 111.737H225.594C225.857 111.737 226.111 111.848 226.308 112.049C226.557 112.304 226.695 112.679 226.686 113.076L226.421 125.23C226.405 125.963 225.893 126.559 225.279 126.559ZM222.29 112.174C221.912 112.174 221.596 112.578 221.586 113.075L221.32 125.229C221.314 125.51 221.406 125.769 221.574 125.941C221.654 126.023 221.789 126.122 221.975 126.122H225.278C225.656 126.122 225.971 125.717 225.982 125.221L226.248 113.066C226.254 112.786 226.161 112.526 225.994 112.355C225.913 112.272 225.779 112.174 225.593 112.174H222.29Z" fill="#161616"/>
<path d="M208.127 107.128C209.048 106.22 209.078 104.757 208.194 103.86C207.309 102.964 205.846 102.973 204.925 103.882C204.004 104.79 203.975 106.253 204.859 107.15C205.743 108.046 207.207 108.036 208.127 107.128Z" fill="#161616"/>
<path d="M206.501 106.432C206.274 106.432 206.048 106.349 205.874 106.181C205.512 105.831 205.51 105.246 205.87 104.875L222.027 88.1902C222.387 87.8184 222.972 87.8007 223.334 88.1509C223.696 88.5011 223.698 89.0863 223.338 89.4571L207.181 106.142C206.995 106.335 206.747 106.433 206.5 106.433L206.501 106.432Z" fill="white"/>
<path d="M206.501 106.651C206.208 106.651 205.932 106.54 205.722 106.338C205.509 106.132 205.388 105.852 205.383 105.552C205.378 105.242 205.495 104.947 205.713 104.722L221.87 88.0372C222.313 87.5798 223.039 87.5601 223.487 87.9919C223.701 88.1985 223.822 88.4778 223.827 88.7788C223.831 89.0886 223.714 89.3837 223.496 89.609L207.339 106.294C207.119 106.521 206.814 106.651 206.501 106.651ZM222.709 88.1178C222.52 88.1178 222.33 88.1926 222.185 88.3421L206.028 105.027C205.891 105.169 205.818 105.353 205.822 105.545C205.825 105.729 205.897 105.898 206.027 106.024C206.294 106.281 206.759 106.265 207.026 105.99L223.182 89.305C223.319 89.1634 223.393 88.9795 223.389 88.7867C223.386 88.6027 223.313 88.4336 223.183 88.3077C223.052 88.1808 222.881 88.1178 222.708 88.1178H222.709Z" fill="#161616"/>
<path d="M242.706 107.128C243.626 106.22 243.656 104.757 242.772 103.86C241.887 102.964 240.424 102.973 239.503 103.882C238.582 104.79 238.553 106.253 239.437 107.15C240.321 108.046 241.785 108.036 242.706 107.128Z" fill="#161616"/>
<path d="M241.083 106.432C241.31 106.432 241.541 106.349 241.724 106.181C242.105 105.831 242.139 105.246 241.798 104.875L226.545 88.1902C226.205 87.8184 225.62 87.8007 225.239 88.1509C224.858 88.5011 224.824 89.0863 225.165 89.4571L240.418 106.142C240.595 106.335 240.837 106.433 241.083 106.433V106.432Z" fill="white"/>
<path d="M241.083 106.651C240.768 106.651 240.466 106.519 240.256 106.289L225.002 89.6039C224.581 89.1436 224.622 88.4197 225.091 87.9889C225.322 87.7764 225.619 87.6662 225.93 87.681C226.23 87.6938 226.505 87.8226 226.706 88.042L241.96 104.727C242.381 105.187 242.34 105.911 241.871 106.342C241.655 106.542 241.374 106.651 241.083 106.651ZM225.879 88.1177C225.698 88.1177 225.524 88.1856 225.387 88.3115C225.095 88.58 225.067 89.0276 225.326 89.3099L240.58 105.995C240.829 106.268 241.294 106.28 241.576 106.02C241.868 105.752 241.896 105.304 241.637 105.022L226.383 88.3371C226.261 88.2043 226.094 88.1266 225.91 88.1177C225.899 88.1177 225.888 88.1177 225.879 88.1177Z" fill="#161616"/>
<path d="M222.631 141.711C214.48 141.711 206.902 138.536 201.294 132.774C195.682 127.008 192.713 119.341 192.933 111.186C193.389 94.3617 207.447 80.6738 224.272 80.6738C232.423 80.6738 240.001 83.8479 245.609 89.6109C251.221 95.3768 254.19 103.043 253.97 111.198C253.515 128.023 239.456 141.711 222.631 141.711ZM224.272 81.1115C207.682 81.1115 193.821 94.6086 193.371 111.198C193.154 119.234 196.079 126.788 201.608 132.469C207.134 138.146 214.6 141.273 222.631 141.273C239.221 141.273 253.083 127.776 253.532 111.186C253.75 103.15 250.824 95.5971 245.296 89.9158C239.77 84.2384 232.303 81.1115 224.271 81.1115H224.272Z" fill="#161616"/>
<path d="M231.333 40.4115C229.999 40.4115 229.054 39.3315 229.223 37.9987C229.391 36.6659 230.609 35.5859 231.943 35.5859C233.277 35.5859 234.222 36.6659 234.054 37.9987C233.886 39.3315 232.667 40.4115 231.333 40.4115Z" fill="white"/>
<path d="M244.635 64.3672L245.832 64.499C249.446 64.8974 252.413 62.6174 252.458 59.4069L252.543 53.4207L238.236 53.3164L238.172 57.8351C238.127 61.0456 241.02 63.9708 244.635 64.3682V64.3672Z" fill="white"/>
<path d="M246.636 64.7622C246.363 64.7622 246.086 64.7475 245.808 64.717L244.611 64.5852C240.893 64.176 237.906 61.1465 237.954 57.8308L238.018 53.3131C238.02 53.1931 238.117 53.0977 238.236 53.0977H238.238L252.544 53.2019C252.603 53.2019 252.659 53.2265 252.699 53.2678C252.739 53.3091 252.762 53.3652 252.761 53.4242L252.676 59.4104C252.656 60.8908 252.028 62.2501 250.911 63.2377C249.792 64.2262 248.267 64.7632 246.635 64.7632L246.636 64.7622ZM238.451 53.5363L238.39 57.8367C238.346 60.9321 241.158 63.7649 244.658 64.1495L245.855 64.2813C247.671 64.4809 249.407 63.9803 250.622 62.9081C251.645 62.0032 252.22 60.759 252.239 59.4036L252.32 53.6377L238.451 53.5363Z" fill="#161616"/>
<path d="M230.424 64.4616L231.621 64.5934C235.236 64.9918 238.202 62.7118 238.247 59.5013L238.332 53.5151L224 53.1826L223.961 57.9285C223.916 61.139 226.809 64.0643 230.424 64.4616Z" fill="#161616"/>
<path d="M232.425 64.8568C232.152 64.8568 231.875 64.842 231.597 64.8115L230.4 64.6797C226.682 64.2705 223.696 61.2401 223.743 57.9253L223.781 53.1804C223.781 53.1214 223.806 53.0663 223.848 53.025C223.89 52.9837 223.945 52.961 224.005 52.963L238.337 53.2955C238.457 53.2984 238.553 53.3978 238.551 53.5168L238.466 59.503C238.446 60.9833 237.818 62.3427 236.701 63.3292C235.581 64.3178 234.056 64.8558 232.425 64.8558V64.8568ZM230.448 64.244L231.645 64.3758C233.46 64.5745 235.197 64.0748 236.412 63.0027C237.436 62.0987 238.01 60.8535 238.029 59.4981L238.11 53.7283L224.217 53.4056L224.18 57.9292C224.136 61.0266 226.948 63.8584 230.448 64.244Z" fill="#161616"/>
<path d="M216.214 64.5574L217.411 64.6892C221.026 65.0876 223.992 62.8076 224.037 59.5971L224.137 53.4062L209.814 53.5056L209.751 58.0243C209.705 61.2348 212.598 64.16 216.213 64.5574H216.214Z" fill="white"/>
<path d="M218.214 64.9514C217.941 64.9514 217.664 64.9367 217.386 64.9062L216.189 64.7744C212.471 64.3652 209.485 61.3357 209.532 58.0209L209.596 53.5023C209.598 53.3832 209.694 53.2878 209.813 53.2868L224.135 53.1875H224.137C224.195 53.1875 224.251 53.2111 224.293 53.2524C224.334 53.2947 224.357 53.3508 224.356 53.4098L224.256 59.6006C224.236 61.0809 223.608 62.4393 222.491 63.4268C221.372 64.4154 219.847 64.9524 218.215 64.9524L218.214 64.9514ZM210.03 53.7216L209.969 58.0259C209.925 61.1213 212.736 63.9531 216.236 64.3386L217.433 64.4705C219.248 64.6691 220.986 64.1695 222.2 63.0973C223.224 62.1934 223.798 60.9482 223.817 59.5927L223.913 53.6252L210.03 53.7216Z" fill="#161616"/>
<path d="M202.002 64.652L203.199 64.7838C206.814 65.1822 209.78 62.9022 209.825 59.6917L209.915 53.3799L195.604 53.6002L195.54 58.1189C195.494 61.3294 198.387 64.2546 202.002 64.652Z" fill="#161616"/>
<path d="M204.003 65.0461C203.73 65.0461 203.453 65.0313 203.175 65.0008L201.978 64.869C198.26 64.4598 195.274 61.4293 195.321 58.1146L195.385 53.5969C195.387 53.4788 195.482 53.3834 195.6 53.3815L209.912 53.1611C209.976 53.1661 210.028 53.1838 210.07 53.2251C210.112 53.2674 210.135 53.3244 210.134 53.3834L210.044 59.6952C210.024 61.1756 209.396 62.5349 208.279 63.5224C207.161 64.511 205.635 65.048 204.003 65.048V65.0461ZM195.82 53.8152L195.759 58.1205C195.715 61.2159 198.526 64.0477 202.026 64.4333L203.223 64.5651C205.038 64.7647 206.775 64.2641 207.99 63.192C209.014 62.287 209.588 61.0428 209.607 59.6874L209.692 53.6008L195.819 53.8142L195.82 53.8152Z" fill="#161616"/>
<path d="M187.791 64.7468L188.988 64.8786C192.603 65.277 195.569 62.997 195.615 59.7865L195.705 53.3556L181.399 53.1953L181.329 58.2137C181.283 61.4242 184.176 64.3494 187.791 64.7468Z" fill="white"/>
<path d="M189.792 65.1418C189.519 65.1418 189.242 65.1271 188.964 65.0966L187.767 64.9648C184.049 64.5556 181.063 61.5251 181.11 58.2103L181.181 53.192C181.183 53.072 181.28 52.9766 181.399 52.9766H181.402L195.708 53.1369C195.766 53.1369 195.821 53.1615 195.862 53.2028C195.902 53.2441 195.925 53.3002 195.924 53.3582L195.834 59.789C195.813 61.2693 195.185 62.6287 194.068 63.6153C192.949 64.6038 191.423 65.1408 189.791 65.1418H189.792ZM181.616 53.4162L181.548 58.2162C181.504 61.3116 184.316 64.1434 187.815 64.529L189.012 64.6608C190.827 64.8605 192.565 64.3598 193.779 63.2877C194.803 62.3838 195.377 61.1385 195.396 59.7831L195.483 53.5716L181.616 53.4162Z" fill="#161616"/>
<path d="M173.58 64.8405L174.777 64.9723C178.392 65.3707 181.358 63.0907 181.404 59.8802L181.493 53.5291L167.187 53.4248L167.118 58.3074C167.072 61.5179 169.965 64.4432 173.58 64.8405Z" fill="#161616"/>
<path d="M175.581 65.2356C175.308 65.2356 175.031 65.2208 174.753 65.1903L173.556 65.0585C169.838 64.6493 166.852 61.6198 166.899 58.3041L166.968 53.4215C166.97 53.3015 167.067 53.2061 167.186 53.2061H167.188L181.495 53.3103C181.553 53.3103 181.609 53.3349 181.649 53.3762C181.689 53.4175 181.712 53.4736 181.711 53.5326L181.622 59.8838C181.601 61.3641 180.973 62.7234 179.856 63.71C178.738 64.6985 177.212 65.2356 175.58 65.2356H175.581ZM167.403 53.6447L167.337 58.31C167.293 61.4054 170.105 64.2382 173.604 64.6228L174.801 64.7546C176.616 64.9533 178.354 64.4536 179.568 63.3815C180.592 62.4775 181.166 61.2323 181.185 59.8769L181.271 53.7461L167.403 53.6447Z" fill="#161616"/>
<path d="M273.177 33.0742L252.572 53.6355L238.203 53.6178L258.791 33.0742H273.177Z" fill="white"/>
<path d="M252.571 53.8535L238.202 53.8358C238.114 53.8358 238.034 53.7827 238.001 53.701C237.967 53.6194 237.986 53.525 238.048 53.463L258.636 32.9194C258.677 32.8791 258.732 32.8555 258.79 32.8555H273.177C273.265 32.8555 273.345 32.9086 273.379 32.9902C273.413 33.0719 273.394 33.1663 273.332 33.2283L252.726 53.7896C252.685 53.8299 252.63 53.8535 252.572 53.8535H252.571ZM238.731 53.3991L252.48 53.4158L272.647 33.2932H258.88L238.73 53.4001L238.731 53.3991Z" fill="#161616"/>
<path d="M258.731 33.0742L238.259 53.5037L223.891 53.486L244.347 33.0742H258.731Z" fill="#161616"/>
<path d="M238.258 53.7227L223.89 53.705C223.801 53.705 223.722 53.6519 223.688 53.5702C223.655 53.4886 223.674 53.3942 223.735 53.3322L244.192 32.9194C244.233 32.8791 244.288 32.8555 244.346 32.8555H258.73C258.819 32.8555 258.898 32.9086 258.933 32.9902C258.966 33.0719 258.948 33.1663 258.886 33.2283L238.414 53.6578C238.373 53.6981 238.317 53.7217 238.259 53.7217L238.258 53.7227ZM224.418 53.2683L238.168 53.285L258.201 33.2932H244.436L224.418 53.2683Z" fill="#161616"/>
<path d="M224.105 53.3768L223.954 53.5273L209.586 53.5096L230.065 33.0742H244.452L224.105 53.3768Z" fill="white"/>
<path d="M223.954 53.7453L209.585 53.7276C209.497 53.7276 209.417 53.6745 209.384 53.5928C209.35 53.5112 209.369 53.4168 209.431 53.3548L229.909 32.9194C229.951 32.8791 230.006 32.8555 230.064 32.8555H244.45C244.539 32.8555 244.618 32.9086 244.653 32.9902C244.686 33.0719 244.668 33.1663 244.606 33.2283L224.108 53.6814C224.067 53.7217 224.012 53.7453 223.954 53.7453ZM210.113 53.2909L223.863 53.3076L223.95 53.221L243.922 33.2932H230.155L210.113 53.2909Z" fill="#161616"/>
<path d="M230.186 33.0742L209.658 53.55L195.289 53.5323L215.791 33.0742H230.186Z" fill="#161616"/>
<path d="M209.657 53.7679L195.288 53.7502C195.2 53.7502 195.12 53.6971 195.087 53.6155C195.053 53.5338 195.072 53.4394 195.134 53.3774L215.636 32.9194C215.678 32.8791 215.733 32.8555 215.791 32.8555H230.186C230.274 32.8555 230.354 32.9086 230.388 32.9902C230.422 33.0719 230.403 33.1663 230.34 33.2283L209.811 53.704C209.77 53.7443 209.715 53.7679 209.657 53.7679ZM195.817 53.3135L209.566 53.3302L229.657 33.2932H215.881L195.817 53.3145V53.3135Z" fill="#161616"/>
<path d="M215.903 33.0742L195.361 53.5726L180.992 53.5549L201.517 33.0742H215.903Z" fill="white"/>
<path d="M195.36 53.7906L180.991 53.7728C180.903 53.7728 180.823 53.7197 180.79 53.6381C180.756 53.5565 180.775 53.462 180.837 53.4001L201.362 32.9194C201.403 32.8791 201.458 32.8555 201.516 32.8555H215.903C215.991 32.8555 216.071 32.9086 216.105 32.9902C216.139 33.0719 216.12 33.1663 216.058 33.2283L195.515 53.7266C195.474 53.7669 195.419 53.7906 195.361 53.7906H195.36ZM181.52 53.3361L195.27 53.3528L215.373 33.2932H201.607L181.52 53.3371V53.3361Z" fill="#161616"/>
<path d="M201.814 33.0742L181.212 53.6109L166.844 53.5942L187.408 33.0742H201.814Z" fill="#161616"/>
<path d="M181.212 53.8299L166.843 53.8122C166.755 53.8122 166.675 53.7591 166.641 53.6774C166.608 53.5958 166.627 53.5014 166.689 53.4394L187.252 32.9194C187.293 32.8791 187.348 32.8555 187.406 32.8555H201.811C201.9 32.8555 201.979 32.9086 202.014 32.9902C202.047 33.0719 202.029 33.1663 201.966 33.2283L181.365 53.765C181.324 53.8063 181.269 53.8289 181.211 53.8289L181.212 53.8299ZM167.371 53.3755L181.121 53.3922L201.282 33.2932H187.497L167.37 53.3755H167.371Z" fill="#161616"/>
<path d="M167.656 53.7698C167.535 53.7698 167.438 53.6724 167.438 53.5515C167.438 53.4305 167.535 53.3321 167.656 53.3321L181.718 53.3203C181.839 53.3203 181.937 53.4177 181.937 53.5387C181.937 53.6597 181.839 53.758 181.718 53.758L167.656 53.7698Z" fill="white"/>
<path d="M195.539 53.7464C195.418 53.7464 195.32 53.649 195.32 53.528C195.32 53.407 195.418 53.3087 195.539 53.3087L209.814 53.2969C209.935 53.2969 210.032 53.3943 210.032 53.5152C210.032 53.6362 209.935 53.7346 209.814 53.7346L195.539 53.7464Z" fill="white"/>
<path d="M223.961 53.7239C223.84 53.7239 223.742 53.6265 223.742 53.5056C223.742 53.3846 223.84 53.2862 223.961 53.2862L238.335 53.2744C238.456 53.2744 238.553 53.3718 238.553 53.4928C238.553 53.6138 238.456 53.7121 238.335 53.7121L223.961 53.7239Z" fill="white"/>
<path d="M249.874 176.322L249.085 173.441L245.824 173.59C245.522 172.955 245.172 172.353 244.777 171.792L246.503 169.028L244.378 166.927L241.628 168.686C241.056 168.293 240.451 167.949 239.821 167.656L239.933 164.394L237.043 163.637L235.543 166.529C234.857 166.475 234.161 166.481 233.46 166.544L231.927 163.664L229.044 164.453L229.192 167.713C228.558 168.015 227.956 168.365 227.393 168.76L224.627 167.035L222.526 169.159L224.284 171.908C223.892 172.48 223.547 173.084 223.254 173.714L219.992 173.602L219.234 176.491L222.129 177.991C222.075 178.677 222.081 179.372 222.144 180.073L219.263 181.605L220.052 184.486L223.312 184.338C223.614 184.972 223.965 185.574 224.36 186.136L222.634 188.9L224.758 191.001L227.508 189.242C228.081 189.634 228.686 189.979 229.315 190.272L229.203 193.533L232.094 194.291L233.594 191.398C234.28 191.452 234.976 191.446 235.676 191.383L237.21 194.263L240.093 193.474L239.944 190.215C240.579 189.913 241.181 189.563 241.743 189.167L244.509 190.892L246.611 188.769L244.852 186.02C245.245 185.447 245.59 184.843 245.882 184.214L249.145 184.326L249.902 181.436L247.008 179.936C247.062 179.25 247.056 178.555 246.993 177.855L249.874 176.322ZM236.599 186.38C232.501 187.501 228.269 185.09 227.147 180.993C226.024 176.898 228.437 172.667 232.535 171.546C236.632 170.425 240.865 172.835 241.987 176.932C243.109 181.028 240.697 185.258 236.599 186.38Z" fill="white"/>
<path d="M232.094 194.509C232.075 194.509 232.056 194.507 232.039 194.502L229.148 193.744C229.049 193.718 228.981 193.627 228.985 193.525L229.092 190.408C228.543 190.145 228.011 189.842 227.505 189.504L224.876 191.185C224.79 191.24 224.677 191.228 224.605 191.156L222.48 189.055C222.407 188.984 222.394 188.87 222.449 188.784L224.099 186.142C223.759 185.646 223.45 185.116 223.179 184.562L220.062 184.704C219.96 184.712 219.869 184.642 219.841 184.544L219.052 181.663C219.026 181.564 219.07 181.46 219.16 181.412L221.914 179.946C221.866 179.331 221.861 178.719 221.901 178.119L219.134 176.686C219.043 176.638 218.997 176.535 219.023 176.436L219.78 173.546C219.806 173.448 219.902 173.377 219.999 173.383L223.118 173.49C223.381 172.942 223.685 172.41 224.023 171.904L222.342 169.276C222.287 169.19 222.299 169.077 222.371 169.005L224.473 166.881C224.545 166.808 224.658 166.795 224.744 166.85L227.387 168.499C227.884 168.159 228.415 167.85 228.968 167.579L228.826 164.464C228.821 164.362 228.888 164.27 228.987 164.243L231.87 163.454C231.969 163.428 232.072 163.472 232.12 163.562L233.586 166.315C234.2 166.267 234.813 166.262 235.414 166.302L236.849 163.537C236.896 163.446 236.999 163.401 237.098 163.426L239.989 164.183C240.089 164.209 240.156 164.3 240.152 164.402L240.045 167.519C240.593 167.782 241.126 168.085 241.632 168.423L244.261 166.742C244.348 166.687 244.46 166.699 244.532 166.771L246.657 168.872C246.73 168.944 246.743 169.057 246.689 169.143L245.039 171.785C245.379 172.282 245.688 172.812 245.959 173.365L249.076 173.223C249.177 173.214 249.269 173.285 249.297 173.384L250.086 176.265C250.112 176.363 250.068 176.467 249.978 176.515L247.224 177.981C247.272 178.595 247.277 179.209 247.237 179.809L250.004 181.242C250.095 181.289 250.141 181.392 250.115 181.491L249.358 184.381C249.332 184.481 249.237 184.558 249.139 184.545L246.02 184.437C245.757 184.985 245.453 185.517 245.115 186.023L246.796 188.651C246.851 188.738 246.839 188.85 246.767 188.923L244.665 191.046C244.593 191.119 244.48 191.132 244.394 191.078L241.75 189.428C241.254 189.768 240.723 190.076 240.169 190.348L240.311 193.463C240.316 193.565 240.249 193.657 240.15 193.684L237.268 194.473C237.168 194.5 237.065 194.455 237.017 194.365L235.551 191.613C234.937 191.661 234.323 191.666 233.723 191.627L232.289 194.391C232.25 194.465 232.174 194.51 232.095 194.51L232.094 194.509ZM229.427 193.366L231.98 194.034L233.399 191.297C233.439 191.219 233.524 191.175 233.61 191.18C234.28 191.232 234.968 191.227 235.655 191.165C235.741 191.156 235.827 191.203 235.868 191.28L237.32 194.006L239.865 193.31L239.725 190.225C239.721 190.137 239.77 190.055 239.85 190.017C240.474 189.72 241.068 189.374 241.617 188.989C241.689 188.938 241.784 188.935 241.859 188.982L244.476 190.614L246.331 188.74L244.666 186.138C244.619 186.064 244.62 185.969 244.67 185.896C245.055 185.335 245.395 184.738 245.682 184.122C245.72 184.042 245.798 183.992 245.888 183.996L248.976 184.102L249.645 181.551L246.906 180.131C246.828 180.091 246.782 180.007 246.789 179.92C246.841 179.251 246.836 178.562 246.774 177.875C246.766 177.787 246.811 177.704 246.889 177.662L249.616 176.211L248.918 173.668L245.833 173.809C245.745 173.811 245.664 173.763 245.625 173.684C245.328 173.06 244.982 172.466 244.596 171.917C244.546 171.845 244.543 171.75 244.589 171.675L246.223 169.06L244.348 167.205L241.744 168.869C241.67 168.916 241.575 168.914 241.502 168.865C240.94 168.48 240.343 168.14 239.727 167.854C239.647 167.816 239.597 167.736 239.6 167.648L239.706 164.562L237.153 163.893L235.734 166.63C235.694 166.709 235.611 166.754 235.523 166.747C234.854 166.695 234.165 166.7 233.478 166.762C233.39 166.771 233.307 166.725 233.265 166.647L231.813 163.921L229.268 164.618L229.408 167.702C229.411 167.79 229.362 167.871 229.283 167.91C228.66 168.206 228.065 168.552 227.515 168.939C227.443 168.989 227.348 168.992 227.273 168.946L224.656 167.313L222.8 169.188L224.465 171.789C224.512 171.863 224.511 171.958 224.461 172.031C224.076 172.592 223.736 173.189 223.449 173.806C223.411 173.885 223.331 173.939 223.243 173.931L220.155 173.825L219.486 176.377L222.225 177.796C222.303 177.836 222.349 177.92 222.342 178.008C222.29 178.676 222.295 179.364 222.357 180.052C222.365 180.14 222.32 180.224 222.242 180.265L219.515 181.716L220.212 184.259L223.297 184.12C223.384 184.113 223.467 184.165 223.505 184.245C223.802 184.868 224.148 185.462 224.534 186.011C224.584 186.083 224.587 186.178 224.541 186.253L222.907 188.87L224.783 190.725L227.386 189.06C227.46 189.013 227.555 189.015 227.628 189.064C228.189 189.449 228.787 189.789 229.404 190.075C229.483 190.113 229.533 190.193 229.53 190.281L229.424 193.368L229.427 193.366ZM234.569 186.873C231.092 186.873 227.898 184.562 226.936 181.052C226.378 179.015 226.647 176.881 227.693 175.046C228.74 173.21 230.439 171.892 232.477 171.335C236.685 170.183 241.046 172.669 242.198 176.874C242.757 178.911 242.488 181.045 241.441 182.88C240.394 184.716 238.695 186.034 236.657 186.591C235.96 186.782 235.259 186.873 234.569 186.873ZM234.566 171.491C233.913 171.491 233.251 171.577 232.593 171.758C230.668 172.285 229.062 173.529 228.074 175.263C227.085 176.997 226.83 179.012 227.358 180.937C228.447 184.91 232.567 187.258 236.541 186.17C238.467 185.642 240.072 184.398 241.06 182.664C242.049 180.93 242.304 178.915 241.776 176.99C240.869 173.675 237.849 171.491 234.565 171.491H234.566Z" fill="#161616"/>
<path d="M201.699 211.782H108.744C105.756 211.782 103.371 209.294 103.497 206.308L105.799 152.021C105.905 149.525 107.959 147.556 110.458 147.556H203.976C206.964 147.556 209.349 150.044 209.223 153.029L206.945 206.754C206.826 209.565 204.512 211.782 201.698 211.782H201.699Z" fill="white"/>
<path d="M201.699 212H108.743C107.239 212 105.836 211.402 104.794 210.315C103.753 209.228 103.215 207.802 103.279 206.299L105.58 152.012C105.691 149.391 107.834 147.337 110.458 147.337H203.976C205.481 147.337 206.884 147.935 207.925 149.022C208.967 150.109 209.505 151.535 209.441 153.038L207.164 206.762C207.039 209.7 204.639 212 201.699 212ZM110.458 147.774C108.069 147.774 106.118 149.643 106.017 152.03L103.715 206.317C103.656 207.7 104.152 209.013 105.11 210.012C106.068 211.012 107.359 211.562 108.742 211.562H201.699C204.404 211.562 206.612 209.446 206.726 206.744L209.003 153.019C209.062 151.636 208.567 150.323 207.609 149.324C206.651 148.324 205.36 147.774 203.976 147.774H110.458Z" fill="#161616"/>
<path d="M141.643 205.832H111.399C110.503 205.832 109.773 205.102 109.773 204.206V204.183C109.773 203.285 110.503 202.557 111.399 202.557H141.643C142.539 202.557 143.269 203.286 143.269 204.183V204.206C143.269 205.103 142.539 205.832 141.643 205.832ZM111.399 202.994C110.744 202.994 110.211 203.527 110.211 204.183V204.206C110.211 204.861 110.744 205.394 111.399 205.394H141.643C142.298 205.394 142.831 204.861 142.831 204.206V204.183C142.831 203.527 142.298 202.994 141.643 202.994H111.399Z" fill="#161616"/>
<path d="M198.688 205.832H189.899C189.003 205.832 188.273 205.102 188.273 204.206V204.183C188.273 203.285 189.003 202.557 189.899 202.557H198.688C199.584 202.557 200.314 203.286 200.314 204.183V204.206C200.314 205.103 199.584 205.832 198.688 205.832ZM189.899 202.994C189.244 202.994 188.711 203.527 188.711 204.183V204.206C188.711 204.861 189.244 205.394 189.899 205.394H198.688C199.343 205.394 199.876 204.861 199.876 204.206V204.183C199.876 203.527 199.343 202.994 198.688 202.994H189.899Z" fill="#161616"/>
<path d="M128.689 191.556H114.415C113.144 191.556 112.109 190.522 112.109 189.251V188.617C112.109 187.345 113.144 186.312 114.415 186.312H128.689C129.96 186.312 130.995 187.345 130.995 188.617V189.251C130.995 190.522 129.96 191.556 128.689 191.556ZM114.415 186.749C113.385 186.749 112.547 187.587 112.547 188.617V189.251C112.547 190.28 113.385 191.118 114.415 191.118H128.689C129.719 191.118 130.557 190.28 130.557 189.251V188.617C130.557 187.587 129.719 186.749 128.689 186.749H114.415Z" fill="#161616"/>
<path d="M152.119 191.556H137.845C136.574 191.556 135.539 190.522 135.539 189.251V188.617C135.539 187.345 136.574 186.312 137.845 186.312H152.119C153.39 186.312 154.424 187.345 154.424 188.617V189.251C154.424 190.522 153.39 191.556 152.119 191.556ZM137.845 186.749C136.815 186.749 135.977 187.587 135.977 188.617V189.251C135.977 190.28 136.815 191.118 137.845 191.118H152.119C153.149 191.118 153.987 190.28 153.987 189.251V188.617C153.987 187.587 153.149 186.749 152.119 186.749H137.845Z" fill="#161616"/>
<path d="M175.548 191.556H161.274C160.004 191.556 158.969 190.522 158.969 189.251V188.617C158.969 187.345 160.004 186.312 161.274 186.312H175.548C176.819 186.312 177.854 187.345 177.854 188.617V189.251C177.854 190.522 176.819 191.556 175.548 191.556ZM161.274 186.749C160.244 186.749 159.406 187.587 159.406 188.617V189.251C159.406 190.28 160.244 191.118 161.274 191.118H175.548C176.578 191.118 177.416 190.28 177.416 189.251V188.617C177.416 187.587 176.578 186.749 175.548 186.749H161.274Z" fill="#161616"/>
<path d="M198.978 191.556H184.704C183.433 191.556 182.398 190.522 182.398 189.251V188.617C182.398 187.345 183.432 186.312 184.704 186.312H198.978C200.249 186.312 201.284 187.345 201.284 188.617V189.251C201.284 190.522 200.249 191.556 198.978 191.556ZM184.704 186.749C183.674 186.749 182.836 187.587 182.836 188.617V189.251C182.836 190.28 183.674 191.118 184.704 191.118H198.978C200.008 191.118 200.846 190.28 200.846 189.251V188.617C200.846 187.587 200.008 186.749 198.978 186.749H184.704Z" fill="#161616"/>
<path d="M198.191 159.963H181.688C179.983 159.963 178.594 158.575 178.594 156.868V156.82C178.594 155.114 179.982 153.727 181.688 153.727H198.191C199.897 153.727 201.285 155.114 201.285 156.82V156.868C201.285 158.574 199.897 159.963 198.191 159.963ZM181.688 154.164C180.224 154.164 179.031 155.356 179.031 156.821V156.869C179.031 158.334 180.224 159.526 181.688 159.526H198.191C199.656 159.526 200.848 158.334 200.848 156.869V156.821C200.848 155.356 199.656 154.164 198.191 154.164H181.688Z" fill="#161616"/>
<path d="M126.33 164.677H116.341C114.716 164.677 113.398 165.994 113.398 167.62V175.424C113.398 177.049 114.716 178.367 116.341 178.367H126.33C127.955 178.367 129.273 177.049 129.273 175.424V167.62C129.273 165.994 127.955 164.677 126.33 164.677Z" fill="#161616"/>
<path d="M123.466 174.95H119.25C118.324 174.95 117.57 174.197 117.57 173.27V170.367C117.57 169.44 118.324 168.687 119.25 168.687H123.466C124.393 168.687 125.146 169.44 125.146 170.367V173.27C125.146 174.197 124.393 174.95 123.466 174.95ZM119.25 169.124C118.566 169.124 118.008 169.682 118.008 170.367V173.27C118.008 173.955 118.566 174.512 119.25 174.512H123.466C124.151 174.512 124.708 173.955 124.708 173.27V170.367C124.708 169.682 124.151 169.124 123.466 169.124H119.25Z" fill="white"/>
<path d="M117.677 171.569C117.677 171.569 117.67 171.569 117.667 171.569L113.42 171.381C113.299 171.376 113.205 171.274 113.211 171.153C113.217 171.032 113.322 170.941 113.439 170.944L117.687 171.132C117.808 171.137 117.901 171.24 117.895 171.361C117.89 171.478 117.793 171.57 117.677 171.57V171.569Z" fill="white"/>
<path d="M117.68 173.355H117.675L113.261 173.261C113.14 173.258 113.045 173.159 113.047 173.038C113.05 172.917 113.152 172.821 113.27 172.823L117.684 172.918C117.805 172.921 117.9 173.02 117.898 173.141C117.895 173.26 117.798 173.355 117.68 173.355Z" fill="white"/>
<path d="M124.922 171.568C124.803 171.568 124.705 171.474 124.703 171.354C124.7 171.233 124.797 171.133 124.918 171.131L129.331 171.036C129.452 171.04 129.552 171.13 129.554 171.251C129.557 171.372 129.461 171.472 129.34 171.474L124.926 171.568H124.922Z" fill="white"/>
<path d="M129.085 173.355H129.08L124.917 173.261C124.796 173.258 124.7 173.158 124.703 173.038C124.706 172.917 124.805 172.827 124.926 172.824L129.09 172.919C129.211 172.922 129.306 173.022 129.304 173.142C129.301 173.261 129.203 173.355 129.085 173.355Z" fill="white"/>
<path d="M119.927 168.937C119.813 168.937 119.718 168.85 119.709 168.735L119.376 164.599C119.366 164.479 119.455 164.373 119.576 164.363C119.694 164.355 119.803 164.442 119.811 164.563L120.145 168.7C120.155 168.82 120.065 168.926 119.944 168.936C119.938 168.936 119.932 168.936 119.927 168.936V168.937Z" fill="white"/>
<path d="M122.18 168.843C122.171 168.843 122.161 168.843 122.152 168.841C122.032 168.827 121.948 168.717 121.963 168.597L122.462 164.649C122.478 164.529 122.588 164.446 122.707 164.459C122.827 164.474 122.912 164.584 122.897 164.704L122.397 168.652C122.384 168.762 122.289 168.842 122.181 168.842L122.18 168.843Z" fill="white"/>
<path d="M119.594 178.618C119.586 178.618 119.577 178.618 119.569 178.616C119.449 178.602 119.363 178.494 119.376 178.374L119.793 174.708C119.806 174.588 119.916 174.501 120.034 174.515C120.154 174.529 120.241 174.637 120.227 174.757L119.811 178.423C119.798 178.534 119.704 178.617 119.594 178.617V178.618Z" fill="white"/>
<path d="M122.258 178.619C122.144 178.619 122.047 178.53 122.039 178.415L121.79 174.749C121.782 174.628 121.872 174.524 121.993 174.516C122.112 174.509 122.218 174.599 122.226 174.72L122.476 178.386C122.484 178.506 122.393 178.611 122.272 178.619C122.268 178.619 122.263 178.619 122.258 178.619Z" fill="white"/>
<path d="M148.712 94.7171C147.012 92.8767 144.483 92.4892 142.582 93.0085C140.177 93.6656 138.965 95.7459 138.109 97.2135C136.597 99.8072 137.327 100.748 136.139 102.254C134.034 104.923 130.735 103.255 128.17 105.205C124.257 108.18 123.725 118.272 129.019 122.116C132.551 124.68 137.353 123.197 138.661 122.794C142.627 121.571 147.561 118.154 148.27 113.524C148.855 109.694 146.332 106.509 148.444 103.299C148.982 102.482 149.427 102.26 149.827 101.237C150.475 99.578 150.621 96.7826 148.713 94.718L148.712 94.7171Z" fill="#161616"/>
<path d="M143.585 95.1718C144.489 94.4391 143.917 92.2771 143.338 91.1105C143.122 90.6738 142.152 88.7174 140.876 88.7932C139.566 88.8709 138.312 91.0702 138.779 92.8122C139.364 94.9899 142.526 96.0305 143.585 95.1709V95.1718Z" fill="#161616"/>
<path d="M161.524 172.308C160.701 169.592 160.841 167.877 161.587 166.091L162.844 163.59L159.063 162.073L157.905 164.921C157.532 165.837 156.992 166.678 156.312 167.398L155.688 168.061L161.524 172.309V172.308Z" fill="white"/>
<path d="M161.525 172.526C161.48 172.526 161.434 172.512 161.396 172.483L155.559 168.236C155.508 168.199 155.476 168.142 155.47 168.08C155.464 168.017 155.485 167.955 155.529 167.91L156.153 167.247C156.817 166.543 157.339 165.732 157.702 164.837L158.861 161.989C158.906 161.878 159.033 161.823 159.145 161.868L162.926 163.385C162.983 163.408 163.028 163.454 163.049 163.511C163.071 163.568 163.068 163.632 163.041 163.687L161.783 166.188C161.13 167.751 160.869 169.386 161.734 172.243C161.762 172.333 161.728 172.43 161.652 172.485C161.613 172.512 161.569 172.526 161.525 172.526ZM156.018 168.029L161.14 171.757C160.54 169.493 160.619 167.838 161.386 166.005L162.543 163.703L159.185 162.355L158.108 165.001C157.723 165.947 157.172 166.803 156.472 167.547L156.018 168.029Z" fill="#161616"/>
<path d="M157.402 166.671C157.307 166.375 156.92 166.304 156.708 166.529C156.11 167.165 155.063 168.23 154.268 168.779C153.527 169.292 153.296 170.279 153.715 171.07C154.902 173.307 157.905 178.159 161.069 181.861C161.285 182.115 161.823 182.454 162.598 182.105C165.201 180.935 162.727 175.646 161.316 170.139C161.261 169.922 161.085 169.757 160.866 169.717L160.08 169.572C158.627 169.283 158.018 168.599 157.402 166.672V166.671Z" fill="#161616"/>
<path d="M154.446 168.658C154.446 168.658 154.326 168.74 154.268 168.78C153.527 169.293 153.296 170.28 153.715 171.071C154.902 173.308 157.905 178.16 161.069 181.862C161.285 182.116 161.823 182.454 162.598 182.106C162.835 181.999 163.194 181.708 163.194 181.708L162.982 181.437C159.95 177.578 157.207 173.5 154.776 169.237L154.446 168.659V168.658Z" fill="white"/>
<path d="M161.958 182.471C161.487 182.471 161.116 182.253 160.903 182.003C157.743 178.305 154.757 173.499 153.523 171.172C153.049 170.278 153.315 169.173 154.145 168.599L154.325 168.476C154.375 168.442 154.437 168.431 154.497 168.444C154.556 168.457 154.607 168.496 154.637 168.549L154.967 169.126C157.385 173.366 160.141 177.461 163.155 181.299L163.368 181.57C163.442 181.664 163.427 181.799 163.333 181.875C163.294 181.906 162.945 182.188 162.689 182.303C162.427 182.421 162.182 182.469 161.958 182.469V182.471ZM154.374 168.972C153.742 169.421 153.542 170.275 153.908 170.967C155.135 173.277 158.098 178.048 161.235 181.718C161.314 181.81 161.743 182.25 162.509 181.904C162.617 181.856 162.766 181.755 162.886 181.666L162.809 181.569C159.782 177.713 157.014 173.6 154.584 169.342L154.373 168.971L154.374 168.972Z" fill="#161616"/>
<path d="M162.396 174.474C162.384 174.474 162.372 174.474 162.36 174.471L159.753 174.034C159.634 174.015 159.554 173.902 159.573 173.783C159.593 173.664 159.705 173.583 159.825 173.603L162.432 174.039C162.551 174.059 162.631 174.172 162.612 174.291C162.594 174.398 162.501 174.474 162.396 174.474Z" fill="white"/>
<path d="M162.818 175.96C162.807 175.96 162.796 175.96 162.786 175.958L160.655 175.642C160.536 175.624 160.453 175.513 160.471 175.393C160.489 175.273 160.601 175.193 160.72 175.209L162.849 175.525C162.969 175.542 163.051 175.654 163.033 175.774C163.018 175.883 162.924 175.96 162.817 175.96L162.818 175.96Z" fill="white"/>
<path d="M147.976 182.287L148.49 184.73C149.178 188.287 146.578 190.107 146.578 190.107L154.263 191.042C154.263 191.042 152.585 190.022 152.927 185.082L153.367 180.949L147.976 182.288V182.287Z" fill="white"/>
<path d="M154.263 191.26C154.254 191.26 154.246 191.26 154.237 191.258L146.552 190.323C146.462 190.312 146.388 190.247 146.366 190.159C146.344 190.071 146.378 189.979 146.452 189.927C146.554 189.855 148.926 188.139 148.275 184.772L147.762 182.332C147.737 182.217 147.809 182.103 147.923 182.074L153.314 180.736C153.384 180.719 153.457 180.736 153.511 180.783C153.565 180.83 153.592 180.9 153.585 180.971L153.145 185.104C152.816 189.848 154.362 190.844 154.377 190.854C154.465 190.907 154.504 191.015 154.471 191.113C154.44 191.201 154.357 191.26 154.264 191.26H154.263ZM147.095 189.948L153.685 190.751C153.179 190.053 152.475 188.45 152.709 185.067L153.116 181.236L148.234 182.449L148.705 184.686C149.243 187.471 147.818 189.251 147.096 189.949L147.095 189.948Z" fill="#161616"/>
<path d="M147.821 186.818C147.187 187.547 146.039 188.917 145.158 190.242C144.604 191.074 144.936 192.033 145.529 192.83C146.739 194.456 148.399 195.707 150.349 196.994C152.054 198.119 153.959 199.305 156.251 200.353C156.874 200.638 158.276 201.028 159.215 200.56C162.047 199.146 157.324 194.721 153.608 189.622C153.463 189.422 153.215 189.324 152.972 189.372L152.102 189.545C151.232 189.718 150.346 189.353 149.853 188.617L148.683 186.869C148.484 186.571 148.057 186.546 147.821 186.818Z" fill="#161616"/>
<path d="M145.612 189.626C145.612 189.626 145.199 190.178 145.155 190.242C145.017 190.449 144.935 190.693 144.89 190.941C144.744 191.742 145.023 192.562 145.585 193.15C145.721 193.292 145.906 193.474 146.12 193.678C148.35 195.8 150.856 197.609 153.557 199.084C154.927 199.833 157.969 201.371 159.211 200.559C159.595 200.308 159.83 199.544 159.83 199.544C159.83 199.544 159.104 199.979 156.917 198.894C153.224 197.058 150.723 194.997 147.673 192.535C147.073 192.05 146.659 191.605 146.232 191.077C145.895 190.66 145.679 190.157 145.611 189.625L145.612 189.626Z" fill="white"/>
<path d="M158.278 201.009C157.179 201.009 155.562 200.431 153.453 199.278C150.7 197.773 148.181 195.944 145.969 193.839C145.74 193.62 145.557 193.44 145.426 193.304C144.802 192.649 144.521 191.752 144.674 190.904C144.729 190.6 144.829 190.337 144.972 190.122C145.016 190.055 145.366 189.588 145.435 189.495C145.488 189.424 145.58 189.392 145.666 189.414C145.753 189.437 145.816 189.51 145.828 189.598C145.891 190.089 146.09 190.553 146.403 190.94C146.879 191.528 147.286 191.941 147.812 192.365L148.106 192.603C150.98 194.926 153.462 196.933 157.014 198.699C159.017 199.694 159.716 199.358 159.723 199.355C159.801 199.314 159.899 199.323 159.967 199.379C160.035 199.436 160.064 199.526 160.039 199.609C160.012 199.696 159.767 200.457 159.331 200.744C159.059 200.921 158.708 201.009 158.277 201.009H158.278ZM145.498 190.143C145.414 190.257 145.35 190.344 145.337 190.364C145.228 190.528 145.149 190.736 145.105 190.981C144.976 191.692 145.214 192.447 145.743 193.001C145.869 193.132 146.047 193.307 146.271 193.521C148.456 195.6 150.942 197.408 153.663 198.893C156.367 200.371 158.296 200.897 159.093 200.377C159.243 200.278 159.378 200.053 159.476 199.846C159.017 199.874 158.185 199.768 156.821 199.09C153.225 197.303 150.726 195.283 147.831 192.944L147.537 192.705C146.987 192.261 146.561 191.829 146.064 191.215C145.806 190.897 145.614 190.532 145.499 190.143H145.498Z" fill="#161616"/>
<path d="M152.914 193.392C152.812 193.392 152.722 193.322 152.7 193.219C152.675 193.101 152.75 192.985 152.868 192.959L155.735 192.34C155.853 192.314 155.969 192.389 155.994 192.508C156.02 192.626 155.945 192.743 155.826 192.768L152.959 193.387C152.943 193.39 152.928 193.392 152.913 193.392H152.914Z" fill="white"/>
<path d="M154.5 194.678C154.4 194.678 154.311 194.61 154.287 194.51C154.26 194.393 154.332 194.275 154.449 194.246L156.775 193.697C156.892 193.67 157.01 193.742 157.037 193.86C157.065 193.978 156.992 194.096 156.875 194.124L154.55 194.673C154.533 194.677 154.516 194.679 154.5 194.679V194.678Z" fill="white"/>
<path d="M140.228 132.87C140.228 132.87 166.47 127.115 174.468 131.671C175.673 132.357 176.815 133.795 177.067 135.16C177.835 139.311 175.523 148.359 162.881 165.366C162.703 165.606 162.384 165.7 162.105 165.593L158.093 164.072C157.768 163.949 157.592 163.597 157.687 163.262L163.042 144.52C163.182 144.032 162.777 143.56 162.274 143.622L137.266 146.695L140.227 132.87H140.228Z" fill="white"/>
<path d="M162.338 165.855C162.233 165.855 162.128 165.836 162.026 165.798L158.014 164.276C157.58 164.111 157.348 163.65 157.475 163.202L162.83 144.46C162.876 144.298 162.84 144.134 162.732 144.007C162.624 143.88 162.466 143.819 162.3 143.839L137.292 146.913C137.221 146.922 137.151 146.896 137.104 146.843C137.056 146.791 137.037 146.719 137.052 146.649L140.013 132.824C140.031 132.74 140.097 132.674 140.181 132.655C141.256 132.419 166.596 126.935 174.575 131.48C175.892 132.231 177.03 133.761 177.282 135.119C177.904 138.48 176.883 146.896 163.056 165.496C162.885 165.726 162.616 165.855 162.34 165.855H162.338ZM162.36 143.397C162.63 143.397 162.886 143.514 163.064 143.722C163.267 143.959 163.337 144.28 163.251 144.58L157.896 163.322C157.831 163.55 157.95 163.784 158.17 163.868L162.181 165.39C162.369 165.461 162.583 165.398 162.703 165.236C176.431 146.769 177.459 138.491 176.85 135.2C176.62 133.958 175.572 132.554 174.357 131.862C166.819 127.567 142.471 132.616 140.41 133.055L137.543 146.442L162.246 143.406C162.284 143.401 162.323 143.399 162.36 143.399V143.397Z" fill="#161616"/>
<path d="M157.204 140.372C149.559 133.834 124.956 133.627 124.956 133.627C124.956 133.627 121.883 137.292 123.35 144.662C123.834 147.093 125.552 149.273 128.269 149.273L143.362 149.401C144.468 149.411 145.346 150.332 145.304 151.437C145.024 158.734 144.773 173.818 146.859 184.097C146.944 184.514 147.257 184.845 147.667 184.956C148.631 185.218 150.521 185.641 152.569 185.614C153.207 185.605 153.742 185.124 153.827 184.491L158.832 147.111C158.983 145.985 158.987 144.84 158.798 143.719C158.597 142.521 158.155 141.185 157.204 140.372H157.204Z" fill="white"/>
<path d="M152.38 185.833C150.374 185.833 148.543 185.42 147.614 185.167C147.119 185.033 146.749 184.64 146.648 184.14C144.586 173.984 144.786 159.286 145.089 151.428C145.107 150.953 144.936 150.502 144.609 150.158C144.281 149.815 143.839 149.623 143.365 149.619L128.271 149.492C125.187 149.492 123.579 146.912 123.14 144.704C121.669 137.315 124.664 133.639 124.793 133.486C124.835 133.436 124.896 133.4 124.962 133.409C125.97 133.417 149.732 133.69 157.351 140.205C158.191 140.923 158.753 142.094 159.02 143.682C159.204 144.777 159.215 145.941 159.055 147.14L154.049 184.52C153.95 185.257 153.318 185.822 152.577 185.832C152.512 185.832 152.447 185.833 152.382 185.833H152.38ZM125.065 133.848C124.646 134.419 122.256 138.033 123.567 144.621C123.975 146.667 125.451 149.056 128.272 149.056L143.367 149.184C143.962 149.189 144.515 149.429 144.925 149.858C145.336 150.288 145.549 150.853 145.526 151.447C145.224 159.285 145.025 173.943 147.078 184.054C147.145 184.391 147.395 184.655 147.729 184.746C148.666 185.001 150.548 185.427 152.57 185.395C153.095 185.388 153.544 184.987 153.615 184.463L158.62 147.083C158.775 145.927 158.764 144.808 158.588 143.756C158.339 142.272 157.826 141.189 157.067 140.539C149.826 134.347 126.856 133.875 125.067 133.848H125.065Z" fill="#161616"/>
<path d="M151.551 116.961L154.027 120.241C155.992 123.776 159.151 126.118 162.649 128.147L164.067 128.969C164.976 129.496 166.034 129.707 167.075 129.567L167.234 129.545C168.825 129.333 170.439 129.712 171.769 130.611L168.243 131.962C166.093 132.785 163.7 132.752 161.593 131.825C159.573 130.937 155.024 129.85 152.878 127.352C148.382 122.116 147.992 120.952 147.992 120.952L151.551 116.962V116.961Z" fill="white"/>
<path d="M165.067 132.775C163.85 132.775 162.641 132.524 161.505 132.025C161.034 131.818 160.427 131.601 159.725 131.35C157.472 130.545 154.388 129.445 152.712 127.493C148.239 122.285 147.801 121.069 147.785 121.02C147.76 120.945 147.777 120.864 147.829 120.805L151.388 116.814C151.431 116.765 151.494 116.738 151.56 116.741C151.625 116.744 151.686 116.776 151.725 116.828L154.201 120.108C154.207 120.116 154.212 120.125 154.217 120.134C156.293 123.867 159.699 126.183 162.758 127.956L164.176 128.778C165.039 129.277 166.059 129.48 167.046 129.348L167.205 129.327C168.85 129.106 170.515 129.498 171.891 130.428C171.959 130.474 171.995 130.553 171.985 130.635C171.976 130.716 171.922 130.785 171.847 130.814L168.32 132.165C167.26 132.572 166.159 132.774 165.066 132.774L165.067 132.775ZM148.251 120.992C148.448 121.38 149.345 122.901 153.045 127.209C154.645 129.072 157.666 130.151 159.872 130.939C160.582 131.193 161.196 131.412 161.681 131.625C163.732 132.527 166.034 132.575 168.165 131.758L171.282 130.564C170.071 129.86 168.661 129.577 167.264 129.762L167.105 129.784C166.022 129.929 164.903 129.706 163.958 129.158L162.54 128.336C159.432 126.535 155.971 124.179 153.844 120.362L151.538 117.306L148.251 120.992Z" fill="#161616"/>
<path d="M175.229 131.102L157.008 132.491L167.019 114.393C167.392 113.712 168.097 113.261 168.888 113.201L183.675 112.074C184.615 112.002 185.262 112.965 184.818 113.775L175.228 131.101L175.229 131.102Z" fill="#161616"/>
<path d="M172.17 123.331C172.87 122.796 173.204 122.056 172.917 121.68C172.629 121.304 171.828 121.433 171.127 121.969C170.427 122.504 170.093 123.243 170.38 123.62C170.668 123.996 171.469 123.867 172.17 123.331Z" fill="white"/>
<path d="M174.338 132.275L145.754 134.454C145.164 134.499 144.648 134.056 144.603 133.465L144.555 133.305L175.278 130.964L175.326 131.124C175.371 131.715 174.928 132.231 174.337 132.276L174.338 132.275Z" fill="#161616"/>
<path d="M147.983 112.627C147.928 112.516 147.86 112.412 147.777 112.322C144.671 108.968 134.865 104.054 129.743 110.514C127.289 113.61 127.267 121.579 125.788 125.481C123.658 131.102 123.252 133.159 122.699 135.373C122.53 136.044 122.995 136.706 123.682 136.781C125.793 137.011 130.101 137.54 135.07 137.41C142.09 137.226 146.631 135.976 146.631 135.976C146.631 135.976 145.096 128.031 145.707 121.927C146.927 123.286 149.769 125.174 150.962 126.092C152.274 124.616 153.861 122.598 155.557 121.066C153.367 118.129 150.986 115.543 147.982 112.626L147.983 112.627Z" fill="white"/>
<path d="M133.508 137.649C129.519 137.649 126.074 137.267 124.12 137.05L123.659 136.999C123.267 136.957 122.914 136.746 122.689 136.425C122.464 136.103 122.391 135.701 122.486 135.32C122.55 135.066 122.612 134.813 122.674 134.558C123.152 132.605 123.693 130.391 125.583 125.404C126.162 123.878 126.514 121.724 126.887 119.443C127.461 115.927 128.055 112.292 129.571 110.379C131.19 108.336 133.376 107.248 136.066 107.145C140.878 106.964 145.902 109.974 147.937 112.173C148.022 112.266 148.096 112.371 148.161 112.494C151.411 115.653 153.676 118.179 155.733 120.936C155.801 121.026 155.788 121.153 155.704 121.229C154.468 122.346 153.276 123.74 152.224 124.969C151.839 125.421 151.475 125.847 151.126 126.238C151.049 126.325 150.919 126.337 150.829 126.266C150.525 126.032 150.116 125.737 149.642 125.394C148.45 124.533 146.867 123.389 145.882 122.424C145.402 128.359 146.83 135.857 146.845 135.935C146.867 136.047 146.799 136.157 146.689 136.187C146.643 136.2 142.042 137.447 135.076 137.629C134.546 137.643 134.023 137.649 133.508 137.649ZM136.494 107.574C136.356 107.574 136.219 107.577 136.082 107.582C133.526 107.68 131.451 108.712 129.914 110.65C128.468 112.474 127.884 116.052 127.319 119.512C126.943 121.815 126.587 123.99 125.993 125.559C124.112 130.521 123.574 132.72 123.099 134.662C123.036 134.919 122.974 135.171 122.91 135.427C122.845 135.685 122.895 135.957 123.047 136.175C123.199 136.393 123.439 136.536 123.705 136.564L124.167 136.615C126.362 136.859 130.449 137.314 135.063 137.192C141.175 137.032 145.44 136.05 146.377 135.816C146.145 134.534 144.935 127.431 145.488 121.905C145.497 121.819 145.556 121.746 145.637 121.72C145.72 121.693 145.81 121.717 145.868 121.782C146.759 122.774 148.572 124.084 149.897 125.04C150.295 125.327 150.646 125.581 150.931 125.796C151.236 125.449 151.555 125.077 151.889 124.685C152.908 123.494 154.057 122.15 155.261 121.039C153.244 118.356 151.012 115.875 147.828 112.784C147.81 112.766 147.795 112.746 147.784 112.725C147.734 112.624 147.678 112.542 147.613 112.471C145.692 110.396 141.031 107.574 136.491 107.574H136.494Z" fill="#161616"/>
<path d="M138.873 121.445C138.763 121.445 138.668 121.362 138.656 121.249L138.079 115.873C138.067 115.753 138.153 115.645 138.273 115.632C138.394 115.619 138.501 115.706 138.514 115.826L139.091 121.202C139.103 121.322 139.017 121.43 138.897 121.443C138.889 121.443 138.881 121.444 138.873 121.444V121.445Z" fill="#161616"/>
<path d="M131.766 124.398C131.687 124.398 131.612 124.356 131.572 124.281C130.319 121.889 128.737 115.625 128.703 114.285C128.7 114.164 128.796 114.064 128.917 114.061C129.04 114.052 129.138 114.154 129.141 114.275C129.172 115.55 130.759 121.783 131.96 124.077C132.016 124.184 131.975 124.316 131.867 124.372C131.835 124.389 131.801 124.397 131.766 124.397V124.398Z" fill="#161616"/>
<path d="M159.749 128.981L156.028 127.693C155.475 127.502 154.863 127.613 154.412 127.985L152.686 129.413C152.356 129.685 151.935 129.82 151.509 129.791C149.647 129.668 140.973 127.297 140.309 125.722C139.751 124.397 139.313 122.811 139.313 122.811L132.586 125.162C132.586 125.162 132.695 127.241 135.43 130.03C137.758 132.405 143.762 133.202 152.019 132.704C152.019 132.704 153.745 132.508 155.192 130.781C156.117 129.677 158.369 130.246 159.705 129.918C160.179 129.802 160.21 129.139 159.748 128.98L159.749 128.981Z" fill="white"/>
<path d="M147.639 133.064C141.372 133.064 137.137 132.085 135.274 130.185C132.513 127.369 132.372 125.264 132.367 125.175C132.363 125.078 132.422 124.989 132.514 124.957L139.241 122.605C139.298 122.585 139.361 122.589 139.415 122.618C139.469 122.646 139.508 122.695 139.524 122.754C139.528 122.769 139.965 124.342 140.512 125.637C141.108 127.05 149.523 129.441 151.524 129.573C151.898 129.597 152.261 129.48 152.547 129.244L154.273 127.816C154.78 127.397 155.48 127.27 156.101 127.486L159.822 128.773C160.126 128.878 160.313 129.154 160.298 129.475C160.283 129.797 160.072 130.055 159.759 130.132C159.267 130.253 158.685 130.257 158.068 130.262C157.001 130.272 155.898 130.281 155.362 130.921C153.876 132.696 152.12 132.913 152.046 132.921C150.483 133.015 149.012 133.063 147.64 133.063L147.639 133.064ZM132.826 125.311C132.917 125.839 133.378 127.625 135.586 129.878C137.766 132.102 143.444 133.005 152.006 132.486C152.011 132.486 153.657 132.275 155.025 130.641C155.691 129.845 156.897 129.835 158.063 129.825C158.653 129.82 159.211 129.815 159.653 129.707C159.797 129.671 159.854 129.553 159.858 129.456C159.863 129.358 159.818 129.236 159.676 129.187L155.955 127.9C155.478 127.734 154.939 127.832 154.55 128.154L152.824 129.582C152.451 129.89 151.977 130.041 151.493 130.011C149.774 129.896 140.855 127.584 140.106 125.808C139.673 124.779 139.308 123.583 139.165 123.094L132.825 125.311H132.826Z" fill="#161616"/>
<path d="M138.114 106.47C138.284 106.385 140.585 103.671 141.93 102.073C141.828 101.629 141.844 101.487 141.88 100.814C141.88 100.814 141.183 100.116 141.463 99.2092C141.789 98.1548 142.789 99.0007 142.789 99.0007C142.789 99.0007 143.252 98.1902 144.996 99.5879C146.74 100.986 148.581 99.285 148.581 99.285C148.581 99.285 148.581 100.332 147.66 101.603C147.151 102.306 147.066 103.232 147.042 104.099L146.065 103.958C145.527 104.594 145.128 104.907 144.389 105.213C144.389 105.213 143.805 105.106 143.199 104.604L142.129 107.043L143.199 108.796C143.199 108.796 143.467 109.146 140.599 109.528C137.732 109.911 135.438 107.616 135.438 107.616C135.438 107.616 136.967 107.043 138.114 106.469V106.47Z" fill="white"/>
<path d="M139.94 109.792C137.335 109.792 135.371 107.862 135.283 107.772C135.23 107.72 135.208 107.645 135.224 107.572C135.24 107.499 135.292 107.439 135.36 107.413C135.375 107.407 136.88 106.842 138.002 106.282C138.089 106.21 138.608 105.678 141.694 102.015C141.616 101.641 141.627 101.448 141.657 100.911V100.894C141.471 100.673 140.992 99.996 141.254 99.1452C141.363 98.7901 141.556 98.5707 141.826 98.4911C142.183 98.3868 142.559 98.5757 142.768 98.7143C142.849 98.6543 142.962 98.5963 143.114 98.5668C143.628 98.4694 144.308 98.7547 145.134 99.4166C146.712 100.683 148.364 99.1884 148.434 99.1245C148.498 99.0655 148.59 99.0498 148.67 99.0852C148.749 99.1206 148.8 99.1993 148.8 99.2858C148.8 99.3311 148.789 100.419 147.838 101.733C147.371 102.377 147.285 103.255 147.261 104.106C147.259 104.168 147.231 104.227 147.183 104.268C147.136 104.308 147.073 104.326 147.011 104.317L146.154 104.193C145.615 104.815 145.193 105.119 144.474 105.417C144.434 105.432 144.392 105.437 144.351 105.429C144.328 105.425 143.843 105.333 143.289 104.947L142.377 107.027L143.386 108.681C143.423 108.74 143.445 108.833 143.403 108.934C143.345 109.074 143.21 109.401 140.63 109.745C140.396 109.777 140.166 109.791 139.942 109.791L139.94 109.792ZM135.85 107.693C136.514 108.25 138.384 109.603 140.571 109.313C142.241 109.09 142.776 108.886 142.941 108.794L141.943 107.158C141.905 107.097 141.9 107.021 141.929 106.956L142.999 104.518C143.027 104.455 143.082 104.408 143.149 104.393C143.215 104.376 143.285 104.393 143.339 104.437C143.786 104.807 144.216 104.945 144.369 104.985C145.017 104.709 145.382 104.428 145.898 103.817C145.947 103.759 146.021 103.731 146.097 103.742L146.832 103.848C146.87 103.004 146.995 102.15 147.483 101.475C147.981 100.788 148.197 100.173 148.291 99.7717C147.6 100.214 146.201 100.833 144.86 99.758C143.914 98.9996 143.411 98.9553 143.196 98.9966C143.041 99.0262 142.98 99.1088 142.98 99.1098C142.947 99.1658 142.892 99.2052 142.828 99.217C142.763 99.2288 142.698 99.2101 142.649 99.1688C142.543 99.0803 142.187 98.8422 141.949 98.9121C141.83 98.9475 141.736 99.0694 141.673 99.275C141.435 100.047 142.03 100.655 142.036 100.662C142.08 100.706 142.103 100.766 142.1 100.828L142.094 100.934C142.063 101.515 142.056 101.636 142.145 102.024C142.161 102.091 142.143 102.161 142.099 102.214C138.449 106.549 138.29 106.628 138.213 106.666C137.393 107.076 136.371 107.489 135.851 107.693H135.85Z" fill="#161616"/>
<path d="M143.198 104.825C143.146 104.825 143.094 104.806 143.052 104.769L142.736 104.484C142.647 104.404 142.64 104.265 142.72 104.175C142.801 104.086 142.94 104.079 143.029 104.16L143.345 104.444C143.434 104.525 143.442 104.663 143.361 104.753C143.317 104.801 143.258 104.825 143.198 104.825Z" fill="#161616"/>
</g>
<rect width="387" height="244" rx="12" stroke="#F2F2F2"/>
<defs>
<clipPath id="clip0_1034_7943">
<rect width="181.38" height="180" fill="white" transform="translate(103 32)"/>
</clipPath>
</defs>
</svg>
