<svg width="386" height="244" viewBox="0 0 386 244" fill="none" xmlns="http://www.w3.org/2000/svg">
<g clip-path="url(#clip0_1034_8126)">
<path d="M125.173 146.977L127.56 147.662L128.863 145.283C129.445 145.343 130.023 145.354 130.593 145.317L131.811 147.737L134.221 147.136L134.16 144.423C134.686 144.186 135.192 143.905 135.672 143.585L137.94 145.074L139.726 143.349L138.32 141.033C138.654 140.57 138.951 140.073 139.209 139.549L141.917 139.705L142.601 137.318L140.223 136.015C140.283 135.434 140.294 134.855 140.256 134.285L142.676 133.067L142.075 130.657L139.362 130.718C139.125 130.192 138.845 129.686 138.524 129.206L140.013 126.939L138.288 125.153L135.973 126.56C135.509 126.225 135.013 125.928 134.488 125.67L134.644 122.962L132.257 122.278L130.953 124.656C130.372 124.596 129.794 124.585 129.223 124.623L128.006 122.203L125.596 122.804L125.657 125.517C125.13 125.754 124.625 126.034 124.145 126.355L121.877 124.866L120.09 126.591L121.497 128.906C121.163 129.37 120.866 129.866 120.608 130.391L117.9 130.235L117.215 132.622L119.594 133.926C119.534 134.507 119.523 135.085 119.56 135.656L117.141 136.874L117.742 139.283L120.454 139.222C120.691 139.749 120.972 140.254 121.292 140.734L119.803 143.002L121.528 144.789L123.844 143.382C124.307 143.717 124.804 144.014 125.328 144.271L125.173 146.979V146.977ZM123.763 133.208C124.737 129.814 128.277 127.852 131.671 128.826C135.065 129.8 137.027 133.34 136.053 136.734C135.08 140.128 131.54 142.09 128.145 141.116C124.752 140.142 122.789 136.602 123.763 133.208Z" fill="white"/>
<path d="M131.807 147.955C131.727 147.955 131.65 147.91 131.613 147.835L130.46 145.543C129.975 145.569 129.478 145.559 128.982 145.515L127.748 147.768C127.699 147.858 127.595 147.901 127.497 147.872L125.11 147.188C125.012 147.159 124.947 147.068 124.953 146.967L125.1 144.401C124.656 144.176 124.231 143.921 123.832 143.642L121.64 144.975C121.553 145.027 121.441 145.013 121.37 144.94L119.645 143.154C119.574 143.081 119.563 142.968 119.619 142.884L121.03 140.735C120.762 140.322 120.522 139.889 120.315 139.445L117.746 139.502C117.746 139.502 117.743 139.502 117.741 139.502C117.641 139.502 117.554 139.434 117.529 139.337L116.928 136.927C116.904 136.829 116.951 136.725 117.041 136.68L119.333 135.527C119.308 135.041 119.318 134.546 119.362 134.049L117.108 132.814C117.019 132.765 116.976 132.661 117.004 132.564L117.689 130.176C117.716 130.079 117.802 130.012 117.91 130.019L120.474 130.167C120.699 129.722 120.954 129.297 121.234 128.899L119.902 126.706C119.849 126.62 119.863 126.508 119.936 126.437L121.722 124.711C121.796 124.641 121.908 124.631 121.993 124.686L124.141 126.096C124.554 125.829 124.987 125.589 125.432 125.381L125.375 122.812C125.373 122.711 125.44 122.62 125.54 122.596L127.95 121.995C128.049 121.97 128.151 122.017 128.197 122.108L129.349 124.4C129.836 124.374 130.331 124.384 130.827 124.428L132.061 122.175C132.11 122.085 132.215 122.042 132.312 122.07L134.699 122.755C134.798 122.784 134.862 122.875 134.857 122.976L134.709 125.541C135.154 125.766 135.579 126.021 135.978 126.3L138.17 124.967C138.257 124.915 138.369 124.929 138.44 125.002L140.165 126.788C140.236 126.861 140.247 126.974 140.191 127.058L138.78 129.207C139.048 129.62 139.288 130.052 139.495 130.497L142.064 130.44C142.064 130.44 142.067 130.44 142.069 130.44C142.169 130.44 142.256 130.508 142.281 130.605L142.882 133.015C142.906 133.113 142.859 133.217 142.769 133.262L140.477 134.415C140.502 134.902 140.493 135.397 140.448 135.892L142.702 137.127C142.791 137.176 142.835 137.28 142.806 137.377L142.121 139.765C142.094 139.862 142.004 139.928 141.9 139.922L139.336 139.774C139.111 140.219 138.856 140.644 138.577 141.042L139.908 143.235C139.961 143.321 139.947 143.433 139.874 143.504L138.088 145.23C138.015 145.3 137.902 145.31 137.817 145.255L135.669 143.845C135.257 144.112 134.823 144.352 134.379 144.56L134.436 147.129C134.438 147.23 134.37 147.321 134.27 147.345L131.86 147.946C131.843 147.95 131.825 147.953 131.807 147.953V147.955ZM130.59 145.1C130.671 145.1 130.747 145.146 130.784 145.22L131.923 147.484L133.995 146.968L133.938 144.429C133.936 144.341 133.987 144.262 134.066 144.225C134.579 143.994 135.077 143.718 135.546 143.405C135.619 143.357 135.713 143.356 135.786 143.405L137.909 144.799L139.445 143.315L138.129 141.149C138.084 141.074 138.088 140.979 138.139 140.909C138.463 140.458 138.757 139.969 139.008 139.456C139.047 139.377 139.123 139.329 139.216 139.335L141.75 139.48L142.339 137.428L140.113 136.208C140.036 136.166 139.992 136.082 140.001 135.994C140.059 135.427 140.071 134.857 140.033 134.302C140.027 134.214 140.075 134.132 140.152 134.093L142.417 132.954L141.9 130.883L139.361 130.94C139.273 130.943 139.194 130.891 139.158 130.812C138.927 130.298 138.651 129.801 138.338 129.331C138.289 129.259 138.288 129.164 138.338 129.091L139.731 126.97L138.248 125.433L136.081 126.749C136.006 126.795 135.912 126.791 135.841 126.74C135.391 126.415 134.902 126.122 134.388 125.87C134.31 125.832 134.261 125.749 134.267 125.663L134.413 123.129L132.36 122.54L131.14 124.766C131.098 124.842 131.018 124.887 130.927 124.878C130.359 124.82 129.788 124.808 129.234 124.845C129.144 124.851 129.065 124.804 129.026 124.726L127.887 122.462L125.815 122.978L125.872 125.517C125.874 125.605 125.823 125.684 125.743 125.721C125.23 125.952 124.732 126.227 124.263 126.541C124.19 126.589 124.096 126.59 124.023 126.541L121.9 125.147L120.364 126.63L121.68 128.797C121.725 128.872 121.721 128.967 121.67 129.037C121.346 129.488 121.053 129.977 120.801 130.49C120.762 130.569 120.683 130.617 120.593 130.611L118.059 130.466L117.47 132.518L119.696 133.738C119.773 133.78 119.817 133.864 119.808 133.951C119.749 134.521 119.739 135.09 119.776 135.645C119.782 135.733 119.735 135.814 119.657 135.854L117.393 136.993L117.909 139.064L120.447 139.007C120.533 139.004 120.614 139.055 120.65 139.135C120.88 139.648 121.157 140.145 121.471 140.615C121.519 140.688 121.52 140.783 121.471 140.855L120.077 142.978L121.56 144.514L123.727 143.198C123.802 143.153 123.897 143.157 123.967 143.208C124.418 143.533 124.906 143.826 125.42 144.078C125.499 144.116 125.546 144.199 125.541 144.285L125.395 146.819L127.448 147.408L128.668 145.182C128.71 145.106 128.792 145.061 128.881 145.07C129.451 145.128 130.02 145.14 130.575 145.103C130.58 145.103 130.585 145.103 130.59 145.103V145.1ZM129.915 141.585C129.302 141.585 128.687 141.5 128.082 141.326C124.579 140.32 122.546 136.652 123.551 133.148C124.038 131.45 125.156 130.045 126.7 129.189C128.245 128.333 130.031 128.13 131.728 128.616C135.231 129.622 137.264 133.29 136.259 136.794C135.772 138.492 134.654 139.897 133.11 140.753C132.115 141.304 131.021 141.584 129.915 141.584V141.585ZM123.969 133.269C123.03 136.542 124.929 139.969 128.202 140.908C129.788 141.362 131.456 141.172 132.898 140.373C134.341 139.574 135.386 138.261 135.841 136.675C136.78 133.402 134.881 129.975 131.608 129.036C130.022 128.582 128.354 128.772 126.912 129.571C125.469 130.371 124.424 131.684 123.969 133.27V133.269Z" fill="#161616"/>
<path d="M124.961 194.221L129.046 195.392L131.275 191.322C132.27 191.424 133.259 191.444 134.236 191.379L136.319 195.52L140.443 194.492L140.338 189.85C141.238 189.445 142.104 188.965 142.925 188.417L146.806 190.966L149.863 188.014L147.456 184.052C148.028 183.258 148.536 182.409 148.976 181.511L153.61 181.778L154.782 177.693L150.712 175.463C150.814 174.469 150.834 173.479 150.769 172.504L154.91 170.42L153.882 166.297L149.24 166.401C148.835 165.501 148.356 164.636 147.807 163.814L150.355 159.934L147.404 156.877L143.442 159.284C142.648 158.711 141.799 158.204 140.901 157.763L141.168 153.129L137.083 151.958L134.853 156.028C133.858 155.926 132.869 155.906 131.892 155.971L129.809 151.83L125.686 152.858L125.79 157.5C124.89 157.905 124.024 158.385 123.203 158.933L119.323 156.384L116.266 159.336L118.673 163.298C118.1 164.092 117.593 164.941 117.152 165.839L112.518 165.572L111.347 169.657L115.417 171.887C115.314 172.881 115.295 173.871 115.36 174.847L111.219 176.931L112.247 181.054L116.888 180.95C117.294 181.85 117.774 182.715 118.321 183.537L115.773 187.417L118.725 190.474L122.687 188.067C123.48 188.64 124.329 189.147 125.227 189.588L124.961 194.222V194.221ZM122.549 170.658C124.215 164.851 130.273 161.493 136.081 163.159C141.889 164.825 145.247 170.884 143.58 176.692C141.914 182.499 135.856 185.857 130.048 184.191C124.241 182.525 120.883 176.466 122.549 170.658Z" fill="white"/>
<path d="M136.318 195.738C136.237 195.738 136.16 195.693 136.123 195.618L134.104 191.605C133.215 191.656 132.305 191.639 131.396 191.553L129.235 195.497C129.185 195.587 129.081 195.63 128.984 195.602L124.899 194.43C124.801 194.402 124.736 194.31 124.742 194.209L125 189.719C124.183 189.31 123.402 188.842 122.676 188.327L118.837 190.659C118.75 190.711 118.638 190.697 118.567 190.625L115.616 187.568C115.545 187.495 115.534 187.382 115.59 187.297L118.06 183.537C117.565 182.783 117.125 181.989 116.749 181.17L112.251 181.271C112.144 181.274 112.059 181.205 112.034 181.105L111.006 176.982C110.982 176.884 111.029 176.78 111.12 176.735L115.133 174.717C115.082 173.829 115.099 172.919 115.185 172.008L111.241 169.847C111.151 169.798 111.108 169.694 111.136 169.596L112.308 165.511C112.335 165.414 112.42 165.347 112.529 165.354L117.019 165.613C117.428 164.795 117.896 164.015 118.41 163.288L116.078 159.449C116.025 159.363 116.04 159.251 116.112 159.18L119.169 156.228C119.242 156.157 119.355 156.147 119.44 156.202L123.2 158.672C123.954 158.177 124.748 157.737 125.567 157.361L125.466 152.863C125.465 152.762 125.532 152.671 125.632 152.647L129.755 151.619C129.854 151.594 129.957 151.641 130.002 151.732L132.02 155.745C132.908 155.694 133.818 155.712 134.729 155.797L136.89 151.853C136.939 151.763 137.044 151.72 137.141 151.749L141.226 152.92C141.324 152.949 141.389 153.04 141.383 153.141L141.125 157.632C141.942 158.041 142.723 158.508 143.449 159.023L147.288 156.691C147.374 156.639 147.486 156.653 147.557 156.726L150.509 159.783C150.58 159.855 150.591 159.969 150.535 160.053L148.065 163.814C148.559 164.566 148.999 165.361 149.376 166.18L153.874 166.08C153.874 166.08 153.877 166.08 153.879 166.08C153.978 166.08 154.066 166.148 154.09 166.245L155.118 170.368C155.143 170.467 155.096 170.57 155.005 170.615L150.992 172.634C151.043 173.522 151.025 174.432 150.94 175.342L154.884 177.503C154.974 177.553 155.017 177.657 154.988 177.754L153.817 181.839C153.789 181.936 153.7 182.002 153.596 181.996L149.105 181.738C148.696 182.555 148.229 183.336 147.714 184.062L150.047 187.901C150.1 187.988 150.085 188.1 150.012 188.171L146.955 191.122C146.883 191.193 146.769 191.203 146.685 191.148L142.925 188.678C142.172 189.172 141.377 189.613 140.559 189.989L140.659 194.487C140.661 194.589 140.593 194.679 140.494 194.704L136.371 195.732C136.353 195.735 136.335 195.738 136.318 195.738ZM134.234 191.162C134.316 191.162 134.392 191.208 134.429 191.282L136.435 195.267L140.221 194.324L140.12 189.856C140.118 189.769 140.169 189.689 140.248 189.653C141.135 189.254 141.995 188.777 142.803 188.236C142.875 188.188 142.97 188.187 143.043 188.236L146.778 190.69L149.585 187.98L147.268 184.166C147.223 184.092 147.227 183.997 147.278 183.926C147.84 183.148 148.344 182.304 148.78 181.417C148.818 181.338 148.895 181.29 148.987 181.296L153.447 181.553L154.523 177.802L150.605 175.656C150.529 175.614 150.485 175.53 150.493 175.443C150.594 174.459 150.613 173.475 150.549 172.519C150.544 172.432 150.591 172.35 150.668 172.311L154.654 170.305L153.711 166.519L149.243 166.62C149.153 166.623 149.076 166.572 149.04 166.492C148.64 165.605 148.164 164.745 147.624 163.936C147.575 163.864 147.575 163.769 147.623 163.696L150.076 159.962L147.366 157.155L143.553 159.471C143.478 159.516 143.384 159.512 143.313 159.461C142.535 158.9 141.691 158.395 140.804 157.959C140.725 157.921 140.677 157.838 140.683 157.752L140.94 153.292L137.189 152.216L135.043 156.134C135.001 156.21 134.918 156.255 134.829 156.246C133.846 156.144 132.862 156.126 131.906 156.19C131.816 156.195 131.737 156.148 131.698 156.071L129.693 152.085L125.907 153.028L126.007 157.496C126.009 157.583 125.959 157.663 125.879 157.699C124.992 158.099 124.133 158.575 123.324 159.115C123.251 159.163 123.157 159.164 123.084 159.115L119.349 156.662L116.542 159.372L118.859 163.185C118.904 163.26 118.9 163.354 118.849 163.425C118.288 164.203 117.783 165.047 117.347 165.934C117.308 166.013 117.23 166.061 117.139 166.055L112.68 165.798L111.604 169.549L115.521 171.695C115.598 171.737 115.642 171.821 115.633 171.909C115.532 172.892 115.513 173.876 115.577 174.832C115.583 174.919 115.536 175.001 115.458 175.04L111.473 177.046L112.416 180.832L116.884 180.732C116.969 180.727 117.051 180.78 117.087 180.859C117.485 181.745 117.962 182.604 118.503 183.415C118.551 183.488 118.552 183.582 118.504 183.655L116.05 187.39L118.76 190.197L122.574 187.88C122.648 187.835 122.743 187.839 122.814 187.89C123.592 188.451 124.436 188.956 125.323 189.392C125.402 189.431 125.45 189.513 125.444 189.6L125.187 194.059L128.938 195.135L131.084 191.218C131.126 191.141 131.207 191.097 131.297 191.106C132.28 191.207 133.264 191.226 134.221 191.162C134.225 191.162 134.23 191.162 134.235 191.162H134.234ZM133.059 184.834C132.043 184.834 131.011 184.695 129.987 184.4C127.122 183.579 124.749 181.691 123.305 179.084C121.86 176.477 121.517 173.464 122.339 170.599C123.16 167.735 125.048 165.362 127.655 163.917C130.262 162.472 133.274 162.13 136.14 162.951C139.005 163.772 141.377 165.661 142.822 168.267C144.266 170.874 144.609 173.888 143.788 176.752C142.385 181.641 137.91 184.834 133.059 184.834ZM122.547 170.659L122.757 170.719C121.967 173.473 122.296 176.368 123.685 178.874C125.073 181.379 127.354 183.193 130.107 183.982C131.091 184.265 132.083 184.399 133.059 184.399C137.721 184.399 142.022 181.332 143.37 176.633C144.16 173.88 143.83 170.984 142.442 168.479C141.054 165.974 138.773 164.16 136.02 163.37C133.266 162.58 130.371 162.91 127.866 164.298C125.361 165.686 123.547 167.967 122.758 170.72L122.548 170.66L122.547 170.659Z" fill="#161616"/>
<path d="M210.334 138.23C212.088 135.898 200.52 131.726 200.676 123.536C200.818 116.054 210.579 114.132 210.291 107.277C209.983 99.9426 198.654 98.5076 198.649 91.0312C198.645 85.2692 205.372 84.4017 205.918 78.2384C206.574 70.8338 197.061 69.8492 193.97 60.0702C191.083 50.9374 197.722 46.5495 192.879 39.3181C192.248 38.3767 188.318 32.7515 182.743 32.6699C173.676 32.5361 161.962 47.0935 163.686 59.6886C165.138 70.2938 175.031 71.5735 175.61 82.8397C176.101 92.3895 169.123 93.9869 171.394 101.394C174.08 110.16 184.75 110.85 186.945 120.729C188.095 125.904 185.53 127.346 187.635 131.006C192.079 138.736 208.402 140.799 210.336 138.23H210.334Z" fill="white"/>
<path d="M206.181 139.496C205.76 139.496 205.316 139.482 204.848 139.453C199.594 139.128 190.624 136.639 187.448 131.115C186.278 129.08 186.508 127.683 186.775 126.066C187.001 124.689 187.259 123.128 186.735 120.777C185.6 115.668 182.109 113.012 178.734 110.443C175.662 108.106 172.485 105.689 171.188 101.458C169.998 97.5767 171.273 95.2849 172.749 92.6321C174.101 90.2026 175.632 87.4485 175.396 82.8511C175.099 77.0587 172.367 74.0085 169.474 70.7783C166.87 67.8708 164.178 64.8649 163.473 59.7177C162.391 51.8105 166.479 43.9406 170.666 39.2124C174.521 34.86 178.932 32.396 182.75 32.4521C188.32 32.5347 192.318 38.0852 193.063 39.1967C195.7 43.1331 194.987 46.3072 194.231 49.6672C193.554 52.6829 192.852 55.8019 194.181 60.0049C195.659 64.68 198.623 67.32 201.238 69.6501C204.055 72.1603 206.487 74.3272 206.139 78.2577C205.861 81.4013 204.033 83.1856 202.264 84.9108C200.519 86.6154 198.869 88.2256 198.871 91.0308C198.874 94.7105 201.658 96.8528 204.604 99.12C207.432 101.297 210.357 103.546 210.513 107.268C210.66 110.768 208.325 112.958 205.855 115.277C203.452 117.531 200.968 119.861 200.898 123.54C200.808 128.318 204.812 131.714 207.736 134.193C209.831 135.97 211.345 137.253 210.513 138.359C209.958 139.096 208.409 139.495 206.182 139.495L206.181 139.496ZM182.626 32.8859C179.005 32.8859 174.667 35.3498 170.992 39.5006C166.868 44.157 162.842 51.897 163.904 59.6587C164.59 64.6741 167.237 67.6298 169.798 70.4882C172.614 73.6318 175.525 76.8836 175.83 82.8285C176.073 87.5508 174.508 90.3619 173.129 92.8436C171.702 95.4098 170.468 97.6259 171.604 101.331C172.861 105.428 175.841 107.696 178.997 110.097C182.436 112.713 185.991 115.418 187.161 120.683C187.701 123.116 187.438 124.721 187.204 126.137C186.941 127.735 186.733 128.997 187.826 130.898C190.917 136.274 199.715 138.7 204.875 139.019C207.585 139.186 209.611 138.834 210.165 138.099C210.75 137.322 209.295 136.089 207.455 134.527C204.464 131.991 200.369 128.518 200.464 123.533C200.537 119.671 203.09 117.276 205.558 114.961C207.955 112.712 210.218 110.589 210.079 107.288C209.932 103.769 207.216 101.679 204.34 99.4662C201.439 97.2334 198.439 94.9259 198.436 91.0318C198.434 88.0416 200.227 86.2918 201.962 84.6C203.673 82.9298 205.443 81.2026 205.706 78.2203C206.035 74.5072 203.678 72.4072 200.948 69.9757C198.292 67.6082 195.281 64.9259 193.767 60.1367C192.403 55.8216 193.149 52.5019 193.807 49.5728C194.574 46.1646 195.235 43.2216 192.702 39.4406C191.978 38.3606 188.098 32.9675 182.745 32.8888C182.706 32.8888 182.667 32.8888 182.628 32.8888L182.626 32.8859Z" fill="#161616"/>
<path d="M206.648 136.907C206.626 136.907 206.604 136.904 206.583 136.897C199.574 134.725 195.151 131.666 193.438 127.804C192.136 124.87 192.875 122.503 193.657 119.997C194.443 117.479 195.256 114.875 194.093 111.399C192.863 107.722 190.654 106.069 188.519 104.471C186.445 102.92 184.487 101.454 183.616 98.3172C182.382 93.8802 184.69 90.7258 186.921 87.6756C189.081 84.7228 191.316 81.6687 190.456 77.3782C189.762 73.9179 187.504 71.8995 185.113 69.7631C182.527 67.4527 179.596 64.8333 178.224 59.9566C177.204 56.3291 177.311 52.4487 178.54 48.4218C178.575 48.3068 178.696 48.2418 178.812 48.2772C178.927 48.3127 178.992 48.4336 178.956 48.5487C177.751 52.494 177.646 56.2927 178.643 59.8386C179.98 64.5923 182.736 67.0553 185.402 69.4376C187.848 71.6241 190.159 73.6897 190.881 77.2917C191.778 81.77 189.488 84.9018 187.272 87.9313C185.001 91.0346 182.857 93.9658 184.035 98.1992C184.867 101.193 186.767 102.616 188.779 104.121C190.969 105.759 193.233 107.453 194.506 111.26C195.713 114.868 194.879 117.541 194.072 120.125C193.315 122.55 192.6 124.841 193.835 127.625C195.496 131.367 199.827 134.346 206.711 136.479C206.826 136.515 206.89 136.637 206.854 136.752C206.826 136.845 206.739 136.905 206.647 136.905L206.648 136.907Z" fill="#161616"/>
<path d="M214.498 170.051C215.288 168.249 205.259 165.555 196.827 152.864C191.722 145.179 189.759 137.675 187.976 130.631C183.564 113.2 187.185 109.785 182.506 101.673C176.89 91.9384 169.807 95.685 161.815 85.6601C151.956 73.2951 159.331 63.3332 149.226 52.1988C143.705 46.1142 133.894 40.7033 125.271 43.4771C120.052 45.1561 114.599 50.0486 114.456 55.3748C114.318 60.5151 119.23 62.2315 123.073 68.4912C129.936 79.6679 121.75 86.3643 126.124 97.6915C132.06 113.064 150.7 109.965 158.668 128.284C161.878 135.662 159.121 136.778 161.966 143.824C171.569 167.601 212.937 173.612 214.5 170.051H214.498Z" fill="white"/>
<path d="M210.472 171.215C210.347 171.215 210.223 171.214 210.101 171.212C204.318 171.127 194.217 169.122 184.688 164.836C176.62 161.208 166.093 154.631 161.761 143.905C160.369 140.458 160.303 138.386 160.24 136.383C160.17 134.2 160.105 132.138 158.466 128.371C154.371 118.956 147.498 115.274 140.85 111.711C134.659 108.393 128.81 105.259 125.92 97.7702C123.898 92.5355 124.533 88.2725 125.147 84.1503C125.877 79.2401 126.568 74.6014 122.886 68.6053C121.385 66.1601 119.72 64.4142 118.25 62.8739C115.961 60.4729 114.151 58.5765 114.237 55.3699C114.382 49.9581 119.927 44.9683 125.203 43.2706C133.826 40.4958 143.783 45.8781 149.387 52.0532C154.544 57.7365 155.178 63.0273 155.85 68.6299C156.488 73.9552 157.149 79.4624 161.984 85.5253C165.836 90.3578 169.402 91.9296 172.85 93.4502C176.41 95.0191 179.772 96.5014 182.693 101.565C185.18 105.875 185.344 108.822 185.593 113.282C185.818 117.315 186.099 122.333 188.186 130.577C189.889 137.306 191.819 144.933 197.008 152.744C202.332 160.759 208.23 164.723 211.753 167.092C213.885 168.525 215.058 169.314 214.696 170.139C214.311 171.016 212.266 171.216 210.473 171.216L210.472 171.215ZM130.114 42.9548C128.499 42.9548 126.893 43.183 125.334 43.6847C120.202 45.3362 114.81 50.1627 114.671 55.3817C114.59 58.4073 116.344 60.2457 118.564 62.5739C120.049 64.1299 121.73 65.8935 123.256 68.3781C127.021 74.5099 126.319 79.2243 125.576 84.2152C124.97 88.2814 124.345 92.4863 126.325 97.6139C129.159 104.953 134.937 108.049 141.055 111.327C147.769 114.924 154.71 118.644 158.865 128.197C160.537 132.041 160.607 134.241 160.674 136.369C160.736 138.334 160.801 140.367 162.165 143.743C169.631 162.231 197.525 170.592 210.107 170.777C212.921 170.819 214.112 170.384 214.297 169.964C214.513 169.472 213.253 168.625 211.509 167.453C207.959 165.067 202.016 161.072 196.644 152.985C191.414 145.112 189.474 137.447 187.763 130.685C185.666 122.399 185.385 117.358 185.158 113.306C184.912 108.909 184.75 106.003 182.316 101.782C179.466 96.8427 176.319 95.4548 172.674 93.8486C169.341 92.3791 165.562 90.7129 161.642 85.7968C156.731 79.6375 156.063 74.0673 155.417 68.6821C154.753 63.1503 154.127 57.9263 149.063 52.3463C144.57 47.3948 137.241 42.9558 130.115 42.9558L130.114 42.9548Z" fill="#161616"/>
<path d="M207.286 169.195C207.257 169.195 207.229 169.189 207.201 169.178C198.967 165.723 192.379 161.645 187.623 157.056C183.771 153.339 181.018 149.183 179.442 144.702C177.792 140.013 177.607 135.574 177.426 131.282C177.155 124.858 176.9 118.789 171.79 112.651C168.19 108.327 164.422 106.616 160.779 104.96C156.72 103.116 152.887 101.374 150.253 96.0939C148.422 92.4212 148.389 89.4713 148.351 86.0553C148.314 82.6825 148.271 78.8602 146.606 73.2448C144.959 67.6844 142.308 62.3916 138.73 57.512C138.659 57.4146 138.679 57.2789 138.777 57.208C138.874 57.1372 139.01 57.1579 139.082 57.2552C142.691 62.1752 145.363 67.5133 147.025 73.1218C148.707 78.7962 148.75 82.651 148.788 86.0513C148.827 89.552 148.859 92.3169 150.645 95.9002C153.209 101.041 156.801 102.673 160.961 104.564C164.476 106.161 168.461 107.972 172.126 112.373C177.331 118.623 177.589 124.763 177.862 131.264C178.041 135.524 178.226 139.929 179.854 144.557C183.324 154.424 192.582 162.573 207.371 168.777C207.483 168.823 207.535 168.951 207.488 169.062C207.453 169.145 207.371 169.196 207.287 169.196L207.286 169.195Z" fill="#161616"/>
<path d="M195.992 32H263.937C265.891 32 267.478 33.5866 267.478 35.541V168.216C267.478 169.892 266.117 171.252 264.441 171.252H195.992V32Z" fill="#161616"/>
<path d="M260.351 32.2383H194.54C192.973 32.2383 191.703 33.5083 191.703 35.075V168.535C191.703 170.101 192.973 171.371 194.54 171.371H260.351C261.918 171.371 263.188 170.101 263.188 168.535V35.075C263.188 33.5083 261.918 32.2383 260.351 32.2383Z" fill="white"/>
<path d="M212.963 76.1055H204.886C204.345 76.1055 203.906 76.5441 203.906 77.0851V84.4189C203.906 84.96 204.345 85.3986 204.886 85.3986H212.963C213.504 85.3986 213.943 84.96 213.943 84.4189V77.0851C213.943 76.5441 213.504 76.1055 212.963 76.1055Z" fill="#161616"/>
<path d="M225.695 76.1055H217.511C216.97 76.1055 216.531 76.5441 216.531 77.0851V84.4189C216.531 84.96 216.97 85.3986 217.511 85.3986H225.695C226.236 85.3986 226.674 84.96 226.674 84.4189V77.0851C226.674 76.5441 226.236 76.1055 225.695 76.1055Z" fill="#161616"/>
<path d="M238.357 76.2246H230.386C229.845 76.2246 229.406 76.6632 229.406 77.2043V84.5381C229.406 85.0791 229.845 85.5177 230.386 85.5177H238.357C238.898 85.5177 239.337 85.0791 239.337 84.5381V77.2043C239.337 76.6632 238.898 76.2246 238.357 76.2246Z" fill="#161616"/>
<path d="M250.865 76.2246H242.894C242.353 76.2246 241.914 76.6632 241.914 77.2043V84.5381C241.914 85.0791 242.353 85.5177 242.894 85.5177H250.865C251.406 85.5177 251.845 85.0791 251.845 84.5381V77.2043C251.845 76.6632 251.406 76.2246 250.865 76.2246Z" fill="#161616"/>
<path d="M212.963 88.7354H204.886C204.345 88.7354 203.906 89.174 203.906 89.715V97.0488C203.906 97.5899 204.345 98.0285 204.886 98.0285H212.963C213.504 98.0285 213.943 97.5899 213.943 97.0488V89.715C213.943 89.174 213.504 88.7354 212.963 88.7354Z" fill="#161616"/>
<path d="M225.695 88.7354H217.511C216.97 88.7354 216.531 89.174 216.531 89.715V97.0488C216.531 97.5899 216.97 98.0285 217.511 98.0285H225.695C226.236 98.0285 226.674 97.5899 226.674 97.0488V89.715C226.674 89.174 226.236 88.7354 225.695 88.7354Z" fill="#161616"/>
<path d="M238.357 88.8535H230.386C229.845 88.8535 229.406 89.2921 229.406 89.8332V97.167C229.406 97.708 229.845 98.1466 230.386 98.1466H238.357C238.898 98.1466 239.337 97.708 239.337 97.167V89.8332C239.337 89.2921 238.898 88.8535 238.357 88.8535Z" fill="#161616"/>
<path d="M250.865 88.8535H242.894C242.353 88.8535 241.914 89.2921 241.914 89.8332V97.167C241.914 97.708 242.353 98.1466 242.894 98.1466H250.865C251.406 98.1466 251.845 97.708 251.845 97.167V89.8332C251.845 89.2921 251.406 88.8535 250.865 88.8535Z" fill="#161616"/>
<path d="M213.221 101.365H205.144C204.603 101.365 204.164 101.804 204.164 102.345V109.679C204.164 110.22 204.603 110.658 205.144 110.658H213.221C213.762 110.658 214.201 110.22 214.201 109.679V102.345C214.201 101.804 213.762 101.365 213.221 101.365Z" fill="#161616"/>
<path d="M225.741 101.365H217.558C217.017 101.365 216.578 101.804 216.578 102.345V109.679C216.578 110.22 217.017 110.658 217.558 110.658H225.741C226.282 110.658 226.721 110.22 226.721 109.679V102.345C226.721 101.804 226.282 101.365 225.741 101.365Z" fill="#161616"/>
<path d="M238.607 101.484H230.636C230.095 101.484 229.656 101.923 229.656 102.464V109.798C229.656 110.339 230.095 110.777 230.636 110.777H238.607C239.148 110.777 239.587 110.339 239.587 109.798V102.464C239.587 101.923 239.148 101.484 238.607 101.484Z" fill="#161616"/>
<path d="M251.123 101.484H243.152C242.61 101.484 242.172 101.923 242.172 102.464V109.798C242.172 110.339 242.61 110.777 243.152 110.777H251.123C251.664 110.777 252.102 110.339 252.102 109.798V102.464C252.102 101.923 251.664 101.484 251.123 101.484Z" fill="#161616"/>
<path d="M213.221 113.995H205.144C204.603 113.995 204.164 114.434 204.164 114.975V122.309C204.164 122.85 204.603 123.288 205.144 123.288H213.221C213.762 123.288 214.201 122.85 214.201 122.309V114.975C214.201 114.434 213.762 113.995 213.221 113.995Z" fill="#161616"/>
<path d="M225.96 113.995H217.777C217.235 113.995 216.797 114.434 216.797 114.975V122.309C216.797 122.85 217.235 123.288 217.777 123.288H225.96C226.501 123.288 226.94 122.85 226.94 122.309V114.975C226.94 114.434 226.501 113.995 225.96 113.995Z" fill="#161616"/>
<path d="M238.607 114.114H230.636C230.095 114.114 229.656 114.553 229.656 115.094V122.428C229.656 122.969 230.095 123.407 230.636 123.407H238.607C239.148 123.407 239.587 122.969 239.587 122.428V115.094C239.587 114.553 239.148 114.114 238.607 114.114Z" fill="#161616"/>
<path d="M251.123 114.114H243.152C242.61 114.114 242.172 114.553 242.172 115.094V122.428C242.172 122.969 242.61 123.407 243.152 123.407H251.123C251.664 123.407 252.102 122.969 252.102 122.428V115.094C252.102 114.553 251.664 114.114 251.123 114.114Z" fill="#161616"/>
<path d="M211.97 76.4795H204.636C204.095 76.4795 203.656 76.9181 203.656 77.4592V84.7929C203.656 85.334 204.095 85.7726 204.636 85.7726H211.97C212.511 85.7726 212.949 85.334 212.949 84.7929V77.4592C212.949 76.9181 212.511 76.4795 211.97 76.4795Z" fill="white"/>
<path d="M211.968 85.9906H204.635C203.975 85.9906 203.438 85.4535 203.438 84.7935V77.4597C203.438 76.7997 203.975 76.2627 204.635 76.2627H211.968C212.628 76.2627 213.165 76.7997 213.165 77.4597V84.7935C213.165 85.4535 212.628 85.9906 211.968 85.9906ZM204.635 76.6975C204.215 76.6975 203.872 77.0397 203.872 77.4597V84.7935C203.872 85.2135 204.215 85.5558 204.635 85.5558H211.968C212.388 85.5558 212.731 85.2135 212.731 84.7935V77.4597C212.731 77.0397 212.388 76.6975 211.968 76.6975H204.635Z" fill="#161616"/>
<path d="M224.595 76.4795H217.261C216.72 76.4795 216.281 76.9181 216.281 77.4592V84.7929C216.281 85.334 216.72 85.7726 217.261 85.7726H224.595C225.136 85.7726 225.574 85.334 225.574 84.7929V77.4592C225.574 76.9181 225.136 76.4795 224.595 76.4795Z" fill="white"/>
<path d="M224.593 85.9906H217.26C216.6 85.9906 216.062 85.4535 216.062 84.7935V77.4597C216.062 76.7997 216.6 76.2627 217.26 76.2627H224.593C225.253 76.2627 225.79 76.7997 225.79 77.4597V84.7935C225.79 85.4535 225.253 85.9906 224.593 85.9906ZM217.26 76.6975C216.84 76.6975 216.497 77.0397 216.497 77.4597V84.7935C216.497 85.2135 216.84 85.5558 217.26 85.5558H224.593C225.013 85.5558 225.356 85.2135 225.356 84.7935V77.4597C225.356 77.0397 225.013 76.6975 224.593 76.6975H217.26Z" fill="#161616"/>
<path d="M237.47 76.5986H230.136C229.595 76.5986 229.156 77.0372 229.156 77.5783V84.9121C229.156 85.4531 229.595 85.8917 230.136 85.8917H237.47C238.011 85.8917 238.449 85.4531 238.449 84.9121V77.5783C238.449 77.0372 238.011 76.5986 237.47 76.5986Z" fill="white"/>
<path d="M237.468 86.1097H230.135C229.475 86.1097 228.938 85.5727 228.938 84.9127V77.5789C228.938 76.9189 229.475 76.3818 230.135 76.3818H237.468C238.128 76.3818 238.665 76.9189 238.665 77.5789V84.9127C238.665 85.5727 238.128 86.1097 237.468 86.1097ZM230.135 76.8166C229.715 76.8166 229.372 77.1589 229.372 77.5789V84.9127C229.372 85.3327 229.715 85.675 230.135 85.675H237.468C237.888 85.675 238.231 85.3327 238.231 84.9127V77.5789C238.231 77.1589 237.888 76.8166 237.468 76.8166H230.135Z" fill="#161616"/>
<path d="M249.978 76.5986H242.644C242.103 76.5986 241.664 77.0372 241.664 77.5783V84.9121C241.664 85.4531 242.103 85.8917 242.644 85.8917H249.978C250.519 85.8917 250.957 85.4531 250.957 84.9121V77.5783C250.957 77.0372 250.519 76.5986 249.978 76.5986Z" fill="white"/>
<path d="M249.976 86.1097H242.642C241.982 86.1097 241.445 85.5727 241.445 84.9127V77.5789C241.445 76.9189 241.982 76.3818 242.642 76.3818H249.976C250.636 76.3818 251.173 76.9189 251.173 77.5789V84.9127C251.173 85.5727 250.636 86.1097 249.976 86.1097ZM242.642 76.8166C242.222 76.8166 241.88 77.1589 241.88 77.5789V84.9127C241.88 85.3327 242.222 85.675 242.642 85.675H249.976C250.396 85.675 250.738 85.3327 250.738 84.9127V77.5789C250.738 77.1589 250.396 76.8166 249.976 76.8166H242.642Z" fill="#161616"/>
<path d="M211.97 89.1094H204.636C204.095 89.1094 203.656 89.548 203.656 90.089V97.4228C203.656 97.9639 204.095 98.4025 204.636 98.4025H211.97C212.511 98.4025 212.949 97.9639 212.949 97.4228V90.089C212.949 89.548 212.511 89.1094 211.97 89.1094Z" fill="white"/>
<path d="M211.968 98.6204H204.635C203.975 98.6204 203.438 98.0834 203.438 97.4234V90.0896C203.438 89.4296 203.975 88.8926 204.635 88.8926H211.968C212.628 88.8926 213.165 89.4296 213.165 90.0896V97.4234C213.165 98.0834 212.628 98.6204 211.968 98.6204ZM204.635 89.3273C204.215 89.3273 203.872 89.6696 203.872 90.0896V97.4234C203.872 97.8434 204.215 98.1857 204.635 98.1857H211.968C212.388 98.1857 212.731 97.8434 212.731 97.4234V90.0896C212.731 89.6696 212.388 89.3273 211.968 89.3273H204.635Z" fill="#161616"/>
<path d="M224.595 89.1094H217.261C216.72 89.1094 216.281 89.548 216.281 90.089V97.4228C216.281 97.9639 216.72 98.4025 217.261 98.4025H224.595C225.136 98.4025 225.574 97.9639 225.574 97.4228V90.089C225.574 89.548 225.136 89.1094 224.595 89.1094Z" fill="white"/>
<path d="M224.593 98.6204H217.26C216.6 98.6204 216.062 98.0834 216.062 97.4234V90.0896C216.062 89.4296 216.6 88.8926 217.26 88.8926H224.593C225.253 88.8926 225.79 89.4296 225.79 90.0896V97.4234C225.79 98.0834 225.253 98.6204 224.593 98.6204ZM217.26 89.3273C216.84 89.3273 216.497 89.6696 216.497 90.0896V97.4234C216.497 97.8434 216.84 98.1857 217.26 98.1857H224.593C225.013 98.1857 225.356 97.8434 225.356 97.4234V90.0896C225.356 89.6696 225.013 89.3273 224.593 89.3273H217.26Z" fill="#161616"/>
<path d="M237.47 89.2285H230.136C229.595 89.2285 229.156 89.6671 229.156 90.2082V97.542C229.156 98.083 229.595 98.5216 230.136 98.5216H237.47C238.011 98.5216 238.449 98.083 238.449 97.542V90.2082C238.449 89.6671 238.011 89.2285 237.47 89.2285Z" fill="white"/>
<path d="M237.468 98.7386H230.135C229.475 98.7386 228.938 98.2016 228.938 97.5416V90.2078C228.938 89.5478 229.475 89.0107 230.135 89.0107H237.468C238.128 89.0107 238.665 89.5478 238.665 90.2078V97.5416C238.665 98.2016 238.128 98.7386 237.468 98.7386ZM230.135 89.4455C229.715 89.4455 229.372 89.7878 229.372 90.2078V97.5416C229.372 97.9616 229.715 98.3039 230.135 98.3039H237.468C237.888 98.3039 238.231 97.9616 238.231 97.5416V90.2078C238.231 89.7878 237.888 89.4455 237.468 89.4455H230.135Z" fill="#161616"/>
<path d="M249.978 89.2275H242.644C242.103 89.2275 241.664 89.6662 241.664 90.2072V97.541C241.664 98.082 242.103 98.5207 242.644 98.5207H249.978C250.519 98.5207 250.957 98.082 250.957 97.541V90.2072C250.957 89.6662 250.519 89.2275 249.978 89.2275Z" fill="white"/>
<path d="M249.976 98.7386H242.642C241.982 98.7386 241.445 98.2016 241.445 97.5416V90.2078C241.445 89.5478 241.982 89.0107 242.642 89.0107H249.976C250.636 89.0107 251.173 89.5478 251.173 90.2078V97.5416C251.173 98.2016 250.636 98.7386 249.976 98.7386ZM242.642 89.4455C242.222 89.4455 241.88 89.7878 241.88 90.2078V97.5416C241.88 97.9616 242.222 98.3039 242.642 98.3039H249.976C250.396 98.3039 250.738 97.9616 250.738 97.5416V90.2078C250.738 89.7878 250.396 89.4455 249.976 89.4455H242.642Z" fill="#161616"/>
<path d="M212.204 101.74H204.87C204.329 101.74 203.891 102.179 203.891 102.72V110.054C203.891 110.595 204.329 111.033 204.87 111.033H212.204C212.745 111.033 213.184 110.595 213.184 110.054V102.72C213.184 102.179 212.745 101.74 212.204 101.74Z" fill="white"/>
<path d="M212.203 111.25H204.869C204.209 111.25 203.672 110.713 203.672 110.053V102.72C203.672 102.06 204.209 101.522 204.869 101.522H212.203C212.863 101.522 213.4 102.06 213.4 102.72V110.053C213.4 110.713 212.863 111.25 212.203 111.25ZM204.869 101.957C204.449 101.957 204.107 102.3 204.107 102.72V110.053C204.107 110.473 204.449 110.816 204.869 110.816H212.203C212.623 110.816 212.965 110.473 212.965 110.053V102.72C212.965 102.3 212.623 101.957 212.203 101.957H204.869Z" fill="#161616"/>
<path d="M224.829 101.74H217.495C216.954 101.74 216.516 102.179 216.516 102.72V110.054C216.516 110.595 216.954 111.033 217.495 111.033H224.829C225.37 111.033 225.809 110.595 225.809 110.054V102.72C225.809 102.179 225.37 101.74 224.829 101.74Z" fill="white"/>
<path d="M224.836 111.25H217.502C216.842 111.25 216.305 110.713 216.305 110.053V102.72C216.305 102.06 216.842 101.522 217.502 101.522H224.836C225.496 101.522 226.033 102.06 226.033 102.72V110.053C226.033 110.713 225.496 111.25 224.836 111.25ZM217.502 101.957C217.082 101.957 216.739 102.3 216.739 102.72V110.053C216.739 110.473 217.082 110.816 217.502 110.816H224.836C225.256 110.816 225.598 110.473 225.598 110.053V102.72C225.598 102.3 225.256 101.957 224.836 101.957H217.502Z" fill="#161616"/>
<path d="M237.704 101.859H230.37C229.829 101.859 229.391 102.298 229.391 102.839V110.173C229.391 110.714 229.829 111.152 230.37 111.152H237.704C238.245 111.152 238.684 110.714 238.684 110.173V102.839C238.684 102.298 238.245 101.859 237.704 101.859Z" fill="white"/>
<path d="M237.703 111.37H230.369C229.709 111.37 229.172 110.833 229.172 110.173V102.84C229.172 102.18 229.709 101.643 230.369 101.643H237.703C238.363 101.643 238.9 102.18 238.9 102.84V110.173C238.9 110.833 238.363 111.37 237.703 111.37ZM230.369 102.077C229.949 102.077 229.607 102.42 229.607 102.84V110.173C229.607 110.593 229.949 110.936 230.369 110.936H237.703C238.123 110.936 238.465 110.593 238.465 110.173V102.84C238.465 102.42 238.123 102.077 237.703 102.077H230.369Z" fill="#161616"/>
<path d="M250.22 101.859H242.886C242.345 101.859 241.906 102.298 241.906 102.839V110.173C241.906 110.714 242.345 111.152 242.886 111.152H250.22C250.761 111.152 251.199 110.714 251.199 110.173V102.839C251.199 102.298 250.761 101.859 250.22 101.859Z" fill="white"/>
<path d="M250.218 111.369H242.885C242.225 111.369 241.688 110.832 241.688 110.172V102.839C241.688 102.179 242.225 101.642 242.885 101.642H250.218C250.878 101.642 251.415 102.179 251.415 102.839V110.172C251.415 110.832 250.878 111.369 250.218 111.369ZM242.885 102.076C242.465 102.076 242.122 102.419 242.122 102.839V110.172C242.122 110.592 242.465 110.935 242.885 110.935H250.218C250.638 110.935 250.981 110.592 250.981 110.172V102.839C250.981 102.419 250.638 102.076 250.218 102.076H242.885Z" fill="#161616"/>
<path d="M212.204 114.37H204.87C204.329 114.37 203.891 114.809 203.891 115.35V122.684C203.891 123.225 204.329 123.663 204.87 123.663H212.204C212.745 123.663 213.184 123.225 213.184 122.684V115.35C213.184 114.809 212.745 114.37 212.204 114.37Z" fill="white"/>
<path d="M212.203 123.881H204.869C204.209 123.881 203.672 123.344 203.672 122.684V115.35C203.672 114.69 204.209 114.153 204.869 114.153H212.203C212.863 114.153 213.4 114.69 213.4 115.35V122.684C213.4 123.344 212.863 123.881 212.203 123.881ZM204.869 114.588C204.449 114.588 204.107 114.93 204.107 115.35V122.684C204.107 123.104 204.449 123.446 204.869 123.446H212.203C212.623 123.446 212.965 123.104 212.965 122.684V115.35C212.965 114.93 212.623 114.588 212.203 114.588H204.869Z" fill="#161616"/>
<path d="M224.837 114.37H217.503C216.962 114.37 216.523 114.809 216.523 115.35V122.684C216.523 123.225 216.962 123.663 217.503 123.663H224.837C225.378 123.663 225.817 123.225 225.817 122.684V115.35C225.817 114.809 225.378 114.37 224.837 114.37Z" fill="white"/>
<path d="M224.836 123.881H217.502C216.842 123.881 216.305 123.344 216.305 122.684V115.35C216.305 114.69 216.842 114.153 217.502 114.153H224.836C225.496 114.153 226.033 114.69 226.033 115.35V122.684C226.033 123.344 225.496 123.881 224.836 123.881ZM217.502 114.588C217.082 114.588 216.739 114.93 216.739 115.35V122.684C216.739 123.104 217.082 123.446 217.502 123.446H224.836C225.256 123.446 225.598 123.104 225.598 122.684V115.35C225.598 114.93 225.256 114.588 224.836 114.588H217.502Z" fill="#161616"/>
<path d="M237.704 114.489H230.37C229.829 114.489 229.391 114.928 229.391 115.469V122.803C229.391 123.344 229.829 123.782 230.37 123.782H237.704C238.245 123.782 238.684 123.344 238.684 122.803V115.469C238.684 114.928 238.245 114.489 237.704 114.489Z" fill="white"/>
<path d="M237.703 124H230.369C229.709 124 229.172 123.463 229.172 122.803V115.47C229.172 114.81 229.709 114.272 230.369 114.272H237.703C238.363 114.272 238.9 114.81 238.9 115.47V122.803C238.9 123.463 238.363 124 237.703 124ZM230.369 114.707C229.949 114.707 229.607 115.05 229.607 115.47V122.803C229.607 123.223 229.949 123.566 230.369 123.566H237.703C238.123 123.566 238.465 123.223 238.465 122.803V115.47C238.465 115.05 238.123 114.707 237.703 114.707H230.369Z" fill="#161616"/>
<path d="M250.22 114.489H242.886C242.345 114.489 241.906 114.928 241.906 115.469V122.803C241.906 123.344 242.345 123.782 242.886 123.782H250.22C250.761 123.782 251.199 123.344 251.199 122.803V115.469C251.199 114.928 250.761 114.489 250.22 114.489Z" fill="white"/>
<path d="M250.218 124H242.885C242.225 124 241.688 123.463 241.688 122.803V115.47C241.688 114.81 242.225 114.272 242.885 114.272H250.218C250.878 114.272 251.415 114.81 251.415 115.47V122.803C251.415 123.463 250.878 124 250.218 124ZM242.885 114.707C242.465 114.707 242.122 115.05 242.122 115.47V122.803C242.122 123.223 242.465 123.566 242.885 123.566H250.218C250.638 123.566 250.981 123.223 250.981 122.803V115.47C250.981 115.05 250.638 114.707 250.218 114.707H242.885Z" fill="#161616"/>
<path d="M234.4 126.783H222.289C221.948 126.783 221.672 127.059 221.672 127.4V132.343C221.672 132.683 221.948 132.959 222.289 132.959H234.4C234.74 132.959 235.016 132.683 235.016 132.343V127.4C235.016 127.059 234.74 126.783 234.4 126.783Z" fill="white"/>
<path d="M234.398 133.176H222.288C221.828 133.176 221.453 132.802 221.453 132.341V127.4C221.453 126.939 221.828 126.564 222.288 126.564H234.398C234.859 126.564 235.233 126.939 235.233 127.4V132.341C235.233 132.802 234.859 133.176 234.398 133.176ZM222.288 127C222.068 127 221.889 127.179 221.889 127.4V132.341C221.889 132.562 222.068 132.741 222.288 132.741H234.398C234.619 132.741 234.798 132.562 234.798 132.341V127.4C234.798 127.179 234.619 127 234.398 127H222.288Z" fill="#161616"/>
<path d="M260.351 171.588H194.538C192.855 171.588 191.484 170.218 191.484 168.534V35.0746C191.484 33.3907 192.855 32.0205 194.538 32.0205H260.351C262.035 32.0205 263.405 33.3907 263.405 35.0746V168.534C263.405 170.218 262.035 171.588 260.351 171.588ZM194.538 32.4562C193.095 32.4562 191.919 33.6307 191.919 35.0756V168.534C191.919 169.978 193.094 171.153 194.538 171.153H260.351C261.795 171.153 262.969 169.978 262.969 168.534V35.0746C262.969 33.6307 261.795 32.4553 260.351 32.4553H194.538V32.4562Z" fill="#161616"/>
<path d="M222.244 142.99H235.956C237.058 142.99 237.954 143.885 237.954 144.988V171.949C237.954 172.42 237.571 172.802 237.1 172.802H220.23C219.819 172.802 219.484 172.468 219.484 172.057V145.75C219.484 144.227 220.721 142.99 222.244 142.99Z" fill="white"/>
<path d="M237.098 173.02H220.229C219.697 173.02 219.266 172.589 219.266 172.057V145.751C219.266 144.109 220.601 142.772 222.244 142.772H235.955C237.177 142.772 238.171 143.766 238.171 144.989V171.949C238.171 172.54 237.69 173.021 237.098 173.021V173.02ZM222.243 143.208C220.841 143.208 219.7 144.349 219.7 145.751V172.057C219.7 172.349 219.937 172.586 220.229 172.586H237.098C237.45 172.586 237.735 172.3 237.735 171.949V144.989C237.735 144.007 236.936 143.208 235.954 143.208H222.243Z" fill="#161616"/>
<path d="M231.202 148.381H225.827C225.146 148.381 224.594 148.933 224.594 149.614V154.989C224.594 155.67 225.146 156.222 225.827 156.222H231.202C231.883 156.222 232.435 155.67 232.435 154.989V149.614C232.435 148.933 231.883 148.381 231.202 148.381Z" fill="#161616"/>
<path d="M251.655 40.3418H203.687C202.786 40.3418 202.055 41.0728 202.055 41.9746V70.1638C202.055 71.0655 202.786 71.7965 203.687 71.7965H251.655C252.557 71.7965 253.288 71.0655 253.288 70.1638V41.9746C253.288 41.0728 252.557 40.3418 251.655 40.3418Z" fill="white"/>
<path d="M251.655 72.0145H203.687C202.666 72.0145 201.836 71.1844 201.836 70.1634V41.9752C201.836 40.9542 202.666 40.124 203.687 40.124H251.655C252.676 40.124 253.506 40.9542 253.506 41.9752V70.1634C253.506 71.1844 252.676 72.0145 251.655 72.0145ZM203.688 40.5598C202.908 40.5598 202.273 41.1952 202.273 41.9752V70.1634C202.273 70.9434 202.907 71.5788 203.688 71.5788H251.656C252.436 71.5788 253.071 70.9434 253.071 70.1634V41.9752C253.071 41.1952 252.436 40.5598 251.656 40.5598H203.688Z" fill="#161616"/>
<path d="M213.911 59.5376C215.173 59.5376 216.197 58.5142 216.197 57.2517C216.197 55.9893 215.173 54.9658 213.911 54.9658C212.648 54.9658 211.625 55.9893 211.625 57.2517C211.625 58.5142 212.648 59.5376 213.911 59.5376Z" fill="#161616"/>
<path d="M221.098 59.4292C222.361 59.4292 223.384 58.4058 223.384 57.1433C223.384 55.8809 222.361 54.8574 221.098 54.8574C219.836 54.8574 218.812 55.8809 218.812 57.1433C218.812 58.4058 219.836 59.4292 221.098 59.4292Z" fill="#161616"/>
<path d="M228.387 59.3199C229.65 59.3199 230.673 58.2964 230.673 57.0339C230.673 55.7715 229.65 54.748 228.387 54.748C227.125 54.748 226.102 55.7715 226.102 57.0339C226.102 58.2964 227.125 59.3199 228.387 59.3199Z" fill="#161616"/>
<path d="M235.567 59.2124C236.83 59.2124 237.853 58.189 237.853 56.9265C237.853 55.6641 236.83 54.6406 235.567 54.6406C234.305 54.6406 233.281 55.6641 233.281 56.9265C233.281 58.189 234.305 59.2124 235.567 59.2124Z" fill="#161616"/>
<path d="M242.645 58.9937C243.908 58.9937 244.931 57.9702 244.931 56.7078C244.931 55.4453 243.908 54.4219 242.645 54.4219C241.383 54.4219 240.359 55.4453 240.359 56.7078C240.359 57.9702 241.383 58.9937 242.645 58.9937Z" fill="#161616"/>
<path d="M202.366 201.233C202.257 201.233 202.164 201.152 202.15 201.042C202.135 200.923 202.22 200.814 202.339 200.799C221.338 198.426 241.727 182.833 241.931 182.675C242.026 182.602 242.163 182.619 242.237 182.715C242.311 182.81 242.293 182.947 242.198 183.02C241.993 183.178 221.508 198.842 202.393 201.23C202.384 201.231 202.374 201.232 202.366 201.232V201.233Z" fill="#161616"/>
<path d="M200.725 204.629C200.609 204.629 200.513 204.538 200.508 204.422C200.502 204.302 200.596 204.199 200.716 204.195C215.563 203.51 234.836 191.492 235.029 191.371C235.131 191.307 235.265 191.338 235.329 191.44C235.393 191.541 235.362 191.676 235.26 191.74C235.066 191.862 215.696 203.94 200.734 204.63C200.731 204.63 200.727 204.63 200.724 204.63L200.725 204.629Z" fill="#161616"/>
<path d="M199.053 203.345C198.661 203.345 198.268 203.198 197.966 202.903C197.354 202.304 197.344 201.318 197.943 200.705C198.542 200.093 199.527 200.083 200.14 200.682C200.753 201.281 200.763 202.266 200.164 202.879C199.86 203.19 199.456 203.345 199.053 203.345ZM198.271 202.592C198.713 203.024 199.422 203.015 199.853 202.574C200.284 202.133 200.277 201.424 199.836 200.992C199.395 200.561 198.685 200.569 198.255 201.01C197.824 201.451 197.831 202.16 198.271 202.592Z" fill="#161616"/>
<path d="M245.984 182.119C245.984 182.119 245.975 182.119 245.971 182.119C245.893 182.115 245.823 182.068 245.789 181.999L243.897 178.16C243.866 178.097 243.868 178.02 243.902 177.958C243.938 177.895 244.002 177.854 244.072 177.848L248.733 177.431C248.814 177.423 248.896 177.464 248.938 177.535C248.982 177.607 248.98 177.696 248.934 177.766L246.166 182.021C246.125 182.083 246.056 182.12 245.984 182.12V182.119ZM244.427 178.252L246.01 181.462L248.326 177.904L244.427 178.252Z" fill="#161616"/>
<path d="M272.045 71.8147C271.989 71.8147 271.934 71.7931 271.892 71.7508C271.807 71.6662 271.807 71.5275 271.892 71.4429L272.651 70.6836C272.735 70.599 272.874 70.599 272.959 70.6836C273.043 70.7681 273.043 70.9068 272.959 70.9914L272.199 71.7508C272.157 71.7931 272.101 71.8147 272.046 71.8147H272.045Z" fill="#161616"/>
<path d="M274.92 68.9446C274.864 68.9446 274.809 68.923 274.767 68.8807C274.682 68.7961 274.682 68.6574 274.767 68.5728L275.526 67.8134C275.61 67.7289 275.749 67.7289 275.834 67.8134C275.918 67.898 275.918 68.0367 275.834 68.1213L275.074 68.8807C275.032 68.923 274.976 68.9446 274.921 68.9446H274.92Z" fill="#161616"/>
<path d="M275.679 71.8147C275.623 71.8147 275.568 71.7931 275.526 71.7508L274.767 70.9914C274.682 70.9068 274.682 70.7681 274.767 70.6836C274.851 70.599 274.99 70.599 275.074 70.6836L275.834 71.4429C275.918 71.5275 275.918 71.6662 275.834 71.7508C275.791 71.7931 275.735 71.8147 275.68 71.8147H275.679Z" fill="#161616"/>
<path d="M272.804 68.9446C272.748 68.9446 272.693 68.923 272.651 68.8807L271.892 68.1213C271.807 68.0367 271.807 67.898 271.892 67.8134C271.976 67.7289 272.115 67.7289 272.199 67.8134L272.959 68.5728C273.043 68.6574 273.043 68.7961 272.959 68.8807C272.916 68.923 272.86 68.9446 272.805 68.9446H272.804Z" fill="#161616"/>
<path d="M115.475 103.903C115.444 103.903 115.414 103.897 115.385 103.884C115.276 103.833 115.228 103.705 115.277 103.595L115.723 102.618C115.773 102.509 115.902 102.46 116.011 102.509C116.12 102.56 116.168 102.689 116.119 102.798L115.673 103.775C115.637 103.855 115.557 103.903 115.475 103.903Z" fill="#161616"/>
<path d="M117.154 100.211C117.124 100.211 117.093 100.205 117.065 100.191C116.956 100.141 116.908 100.012 116.957 99.903L117.402 98.9253C117.452 98.8161 117.581 98.7679 117.691 98.8171C117.8 98.8673 117.848 98.9961 117.799 99.1053L117.353 100.083C117.317 100.163 117.237 100.211 117.154 100.211Z" fill="#161616"/>
<path d="M118.867 102.633C118.836 102.633 118.806 102.627 118.777 102.613L117.799 102.168C117.69 102.117 117.642 101.989 117.691 101.879C117.741 101.77 117.87 101.722 117.979 101.771L118.957 102.217C119.066 102.267 119.114 102.396 119.065 102.505C119.029 102.585 118.949 102.633 118.867 102.633Z" fill="#161616"/>
<path d="M115.179 100.95C115.149 100.95 115.118 100.944 115.09 100.931L114.112 100.485C114.003 100.435 113.954 100.306 114.004 100.197C114.054 100.088 114.183 100.039 114.292 100.089L115.27 100.534C115.379 100.584 115.427 100.713 115.378 100.822C115.341 100.902 115.262 100.95 115.179 100.95Z" fill="#161616"/>
<path d="M125.254 115.834C124.391 115.834 123.688 115.132 123.688 114.267C123.688 113.402 124.39 112.7 125.254 112.7C126.119 112.7 126.821 113.402 126.821 114.267C126.821 115.132 126.119 115.834 125.254 115.834ZM125.254 113.137C124.631 113.137 124.123 113.644 124.123 114.268C124.123 114.892 124.631 115.399 125.254 115.399C125.878 115.399 126.386 114.892 126.386 114.268C126.386 113.644 125.878 113.137 125.254 113.137Z" fill="#161616"/>
<path d="M154.618 165.414C150.488 171.138 147.333 180.923 144.928 192.301C144.769 193.05 142.974 206.261 143.706 206.491C158.945 211.281 160.034 211.281 170.266 211.934C172.847 212.098 183.764 211.934 191.332 211.719C191.988 211.701 192.553 211.276 192.517 210.62C191.579 193.406 189.944 172.65 189.944 172.65L154.618 165.414Z" fill="white"/>
<path d="M192.514 210.836C192.399 210.836 192.303 210.747 192.296 210.631C191.412 194.417 189.892 174.819 189.737 172.831L154.71 165.656C151.004 170.857 147.783 179.836 145.137 192.347C144.908 193.429 143.367 205.395 143.821 206.309C143.901 206.361 143.939 206.461 143.91 206.557C143.873 206.671 143.751 206.736 143.636 206.699C143.383 206.62 143 206.5 143.762 199.568C144.131 196.221 144.624 192.666 144.71 192.257C147.389 179.594 150.661 170.52 154.437 165.288C154.488 165.219 154.574 165.185 154.658 165.203L189.984 172.439C190.079 172.459 190.15 172.539 190.157 172.635C190.174 172.843 191.803 193.589 192.73 210.609C192.737 210.729 192.645 210.831 192.525 210.838C192.521 210.838 192.517 210.838 192.513 210.838L192.514 210.836Z" fill="#161616"/>
<path d="M198.75 122.598C198.75 122.598 208.299 129.025 212.762 127.815C219.043 126.111 221.808 110.112 222.078 108.691C222.349 107.271 223.558 100.069 224.813 97.3819C225.993 94.856 226.711 92.2711 227.09 90.6816C227.318 89.7236 227.97 89.2603 228.617 89.3587C229.186 89.4452 229.562 89.8908 229.243 91.319C228.873 92.9715 228.544 94.6328 228.242 96.0462C228.147 96.4908 227.966 96.9118 228.28 96.5951C229.009 95.8593 230.188 95.04 231.377 94.6416C231.899 94.4665 236.063 89.9557 237.17 90.5095C238.16 91.0042 232.515 97.1872 232.742 97.9259C233.301 99.7485 232.981 102.184 232.097 104.381C230.592 108.123 228.186 107.703 227.77 109.465C227.354 111.226 225.184 133.576 223.447 137.667C220.95 143.55 197 139.256 197 139.256L198.751 122.597L198.75 122.598Z" fill="white"/>
<path d="M212.744 140.995C205.593 140.995 197.533 139.575 196.96 139.472C196.848 139.453 196.771 139.348 196.782 139.235L198.533 122.576C198.541 122.5 198.588 122.433 198.657 122.402C198.726 122.369 198.808 122.375 198.871 122.418C198.965 122.482 208.387 128.777 212.704 127.606C218.067 126.152 220.871 113.998 221.828 108.841L221.863 108.653C221.894 108.493 221.936 108.259 221.989 107.966C222.399 105.706 223.49 99.7011 224.616 97.2923C225.756 94.851 226.475 92.3241 226.878 90.6342C227.12 89.6201 227.832 89.0221 228.649 89.146C228.965 89.1942 229.204 89.3349 229.36 89.5641C229.613 89.9329 229.644 90.5241 229.455 91.37C229.223 92.4096 229.008 93.4405 228.802 94.4369C228.682 95.0152 228.567 95.5719 228.455 96.0952C228.452 96.111 228.448 96.1267 228.444 96.1424C229.141 95.5208 230.177 94.8165 231.307 94.4378C231.439 94.3837 232.023 93.8487 232.538 93.3765C234.631 91.4555 236.431 89.9005 237.266 90.3175C237.381 90.3746 237.458 90.4739 237.488 90.6028C237.636 91.2273 236.606 92.6674 234.89 94.9641C234.068 96.0657 232.942 97.5746 232.952 97.8785C233.492 99.6342 233.248 102.101 232.297 104.465C231.404 106.683 230.171 107.502 229.27 108.1C228.612 108.538 228.136 108.854 227.979 109.517C227.862 110.013 227.586 112.316 227.238 115.23C226.36 122.555 224.893 134.815 223.646 137.754C222.583 140.257 217.899 140.996 212.743 140.996L212.744 140.995ZM197.237 139.078C199.543 139.471 220.962 142.962 223.245 137.583C224.469 134.701 225.932 122.479 226.806 115.177C227.17 112.134 227.434 109.936 227.557 109.415C227.753 108.584 228.344 108.192 229.03 107.736C229.931 107.138 231.052 106.394 231.894 104.3C232.809 102.026 233.048 99.6677 232.534 97.9896C232.415 97.6021 232.99 96.7798 234.542 94.7015C235.552 93.348 237.243 91.0837 237.063 90.6952C236.437 90.3883 234.002 92.6211 232.833 93.6952C232.012 94.4477 231.641 94.7831 231.446 94.849C230.199 95.267 229.044 96.1336 228.434 96.7493C228.355 96.829 228.191 96.9952 228.011 96.8929C227.828 96.7887 227.88 96.591 227.958 96.2919C227.981 96.2024 228.008 96.1031 228.03 96.0018C228.141 95.4795 228.257 94.9237 228.377 94.3464C228.583 93.348 228.798 92.3152 229.031 91.2726C229.19 90.5614 229.18 90.0687 229.002 89.808C228.914 89.6792 228.781 89.6044 228.584 89.5749C228.002 89.4864 227.488 89.9516 227.302 90.7336C226.895 92.4431 226.167 95.0005 225.011 97.4752C223.909 99.8329 222.826 105.798 222.419 108.043C222.366 108.337 222.323 108.572 222.292 108.734L222.258 108.919C221.286 114.158 218.421 126.507 212.82 128.026C212.417 128.135 211.974 128.185 211.504 128.185C207.182 128.185 200.452 123.97 198.93 122.978L197.238 139.079L197.237 139.078Z" fill="#161616"/>
<path d="M158.562 113.901C170.073 108.766 192.319 109.83 207.926 126.579C209.761 128.548 204.46 143.404 199.733 142.382C195.556 141.479 192.151 140.433 191.832 142.852C191.391 146.193 194.388 172.97 190.025 180.522C182.23 194.013 158.981 191.998 147.018 185.421C143.86 183.685 147.176 178.906 149.499 163.316C151.229 151.703 152.236 142.081 150.095 145.793C149.043 147.614 138.045 136.659 139.193 133.388C141.711 126.212 146.14 119.443 158.563 113.9L158.562 113.901Z" fill="#161616"/>
<path d="M219.558 110.121L228.776 111.371C229.401 132.621 227.378 147.889 199.734 142.381L203.464 122.621C213.771 129.814 217.609 121.065 219.558 110.121Z" fill="#161616"/>
<path d="M141.743 128.09C128.306 147.62 136.03 187.557 154.243 187.855L153.774 170.59C152.249 168.661 151.48 149.604 154.36 143.559L141.743 128.091V128.09Z" fill="#161616"/>
<path d="M146.219 185.026C146.199 185.026 146.179 185.023 146.16 185.018C146.044 184.986 145.976 184.866 146.008 184.75C148.724 175.011 150.237 159.422 150.746 148.08C150.752 147.96 150.851 147.866 150.973 147.872C151.093 147.878 151.187 147.98 151.181 148.1C150.669 159.465 149.153 175.093 146.427 184.867C146.401 184.963 146.313 185.026 146.218 185.026H146.219Z" fill="white"/>
<path d="M165.532 112.143C165.656 111.686 170.183 107.932 168.997 99.4937C168.997 99.4937 162.873 91.1685 164.735 87.4967C166.597 83.8239 166.441 78.3963 172.695 78.3511C178.951 78.3068 182.63 81.1131 184.073 84.7613C185.516 88.4095 185.895 92.0665 186.029 94.1901C186.128 95.7619 185.917 99.2763 185.801 100.996C185.761 101.588 185.353 102.088 184.781 102.249L182.891 102.779C182.275 102.952 181.854 103.52 181.867 104.159L181.937 107.538C182.233 115.798 179.557 114.65 177.597 115.096C172.59 116.235 164.877 114.565 165.533 112.143H165.532Z" fill="white"/>
<path d="M173.962 115.683C170.554 115.683 167.043 114.843 165.77 113.518C165.343 113.073 165.187 112.577 165.32 112.085C165.351 111.971 165.454 111.846 165.681 111.571C166.691 110.345 169.759 106.62 168.787 99.5779C168.252 98.8421 162.69 91.0451 164.539 87.3979C164.981 86.5274 165.315 85.531 165.639 84.567C166.695 81.4215 167.788 78.1687 172.692 78.1333C178.388 78.0949 182.612 80.4792 184.273 84.6811C185.358 87.4244 186.021 90.6182 186.244 94.1759C186.342 95.731 186.143 99.1254 186.016 101.01C185.97 101.692 185.497 102.273 184.838 102.458L182.947 102.988C182.427 103.134 182.071 103.614 182.083 104.154L182.154 107.532C182.412 114.782 180.342 114.996 178.513 115.184C178.207 115.215 177.917 115.245 177.643 115.308C176.514 115.564 175.245 115.683 173.961 115.683H173.962ZM165.739 112.206C165.649 112.55 165.762 112.88 166.084 113.216C167.721 114.921 173.613 115.778 177.547 114.883C177.847 114.815 178.164 114.781 178.469 114.75C180.186 114.573 181.963 114.39 181.719 107.544L181.648 104.162C181.633 103.424 182.119 102.768 182.83 102.569L184.721 102.039C185.203 101.904 185.549 101.478 185.582 100.98C185.709 99.1067 185.907 95.7339 185.811 94.2034C185.59 90.692 184.937 87.5415 183.87 84.8415C182.278 80.8156 178.211 78.5336 172.697 78.569C168.104 78.6015 167.108 81.567 166.054 84.7057C165.725 85.6844 165.385 86.6956 164.93 87.5946C163.148 91.107 169.112 99.2828 169.173 99.3644C169.195 99.3939 169.208 99.4274 169.213 99.4628C170.235 106.731 167.062 110.582 166.019 111.847C165.895 111.998 165.767 112.153 165.741 112.205L165.739 112.206Z" fill="#161616"/>
<path d="M181.948 90.4029C182.705 90.0842 183.199 89.3495 183.216 88.5282C183.237 87.5446 182.637 85.2832 184.072 84.7619C187.927 83.3603 186.428 78.7255 184.135 77.0111C181.841 75.2967 172.85 72.4491 168.303 74.921C168.303 74.921 166.504 76.4288 166.909 77.921C166.909 77.921 163.29 78.0252 162.443 80.7065C161.597 83.3878 160.172 93.2337 169.196 100.685C169.196 100.685 171.525 100.959 174.116 100.273C175.622 99.875 176.725 98.5816 176.935 97.0373C177.255 94.6698 178.217 91.0423 178.872 89.9662C178.872 89.9662 178.454 88.2891 179.396 87.8573C180.006 87.577 180.751 88.2852 181.081 88.8705L181.948 90.4039V90.4029Z" fill="#161616"/>
<path d="M185.552 101.847C185.54 101.847 185.528 101.846 185.515 101.844C185.482 101.838 182.125 101.237 181.341 97.5879C181.315 97.4699 181.39 97.3548 181.508 97.3292C181.625 97.3037 181.741 97.3784 181.767 97.4964C182.49 100.86 185.557 101.409 185.588 101.415C185.706 101.435 185.787 101.547 185.767 101.666C185.749 101.772 185.657 101.848 185.553 101.848L185.552 101.847Z" fill="#161616"/>
<path d="M181.306 94.1273C181.306 94.1273 181.303 94.1273 181.301 94.1273C181.186 94.1244 178.473 94.0083 177.752 89.2054C177.735 89.0863 177.816 88.9752 177.935 88.9575C178.055 88.9398 178.165 89.0214 178.183 89.1404C178.846 93.5578 181.213 93.6886 181.313 93.6916C181.433 93.6955 181.527 93.7959 181.524 93.9149C181.521 94.0329 181.424 94.1263 181.306 94.1263V94.1273Z" fill="#161616"/>
<path d="M220.329 183.827L219.908 182.289L218.171 182.368C218.01 182.03 217.824 181.709 217.612 181.409L218.532 179.935L217.4 178.814L215.934 179.753C215.629 179.543 215.307 179.359 214.971 179.204L215.031 177.464L213.491 177.06L212.691 178.603C212.325 178.574 211.954 178.577 211.582 178.611L210.764 177.074L209.228 177.495L209.307 179.234C208.968 179.396 208.648 179.583 208.348 179.793L206.874 178.872L205.754 180.005L206.691 181.472C206.482 181.777 206.299 182.1 206.142 182.435L204.403 182.375L204 183.916L205.542 184.716C205.514 185.082 205.517 185.453 205.55 185.826L204.015 186.644L204.436 188.181L206.173 188.103C206.334 188.441 206.52 188.762 206.731 189.062L205.812 190.536L206.944 191.656L208.41 190.718C208.714 190.927 209.037 191.111 209.372 191.267L209.312 193.007L210.853 193.411L211.652 191.868C212.018 191.896 212.389 191.893 212.762 191.86L213.579 193.396L215.116 192.975L215.037 191.236C215.375 191.075 215.696 190.888 215.996 190.678L217.47 191.598L218.59 190.465L217.652 188.999C217.862 188.694 218.045 188.371 218.201 188.036L219.94 188.096L220.344 186.554L218.801 185.755C218.83 185.389 218.827 185.018 218.793 184.644L220.329 183.827ZM213.256 189.192C211.072 189.79 208.817 188.504 208.22 186.319C207.622 184.134 208.907 181.877 211.091 181.279C213.274 180.681 215.53 181.968 216.127 184.152C216.725 186.338 215.439 188.594 213.256 189.192Z" fill="#161616"/>
<path d="M145.583 78.439C153.586 78.439 160.073 71.9518 160.073 63.9495C160.073 55.9471 153.586 49.46 145.583 49.46C137.581 49.46 131.094 55.9471 131.094 63.9495C131.094 71.9518 137.581 78.439 145.583 78.439Z" fill="#161616"/>
<path d="M148.943 61.9076L148.87 57.3112C148.837 55.826 147.66 54.6103 146.175 54.5424C144.54 54.4676 143.182 55.8044 143.221 57.4421L143.253 58.8683C143.265 59.366 142.854 59.7693 142.356 59.7496C141.899 59.7309 141.536 59.3581 141.529 58.9008L141.509 57.5463C141.448 54.9171 143.553 52.7581 146.267 52.8683V52.8703C148.508 52.9617 150.56 54.9339 150.616 57.3358L150.674 61.9775L148.943 61.9067V61.9076Z" fill="white"/>
<path d="M150.673 62.1957C150.673 62.1957 150.667 62.1957 150.664 62.1957L148.933 62.1249C148.818 62.1199 148.727 62.0265 148.725 61.9104L148.652 57.314C148.62 55.9449 147.528 54.8216 146.164 54.7586C145.436 54.7252 144.75 54.9888 144.227 55.4993C143.708 56.0058 143.42 56.7121 143.437 57.435L143.469 58.8613C143.476 59.1583 143.358 59.4485 143.147 59.656C142.934 59.8645 142.64 59.9767 142.346 59.9649C141.773 59.9413 141.318 59.475 141.31 58.9016L141.29 57.5472C141.259 56.1957 141.765 54.9357 142.715 54.0013C143.658 53.0737 144.923 52.5937 146.274 52.6488C146.285 52.6488 146.296 52.6508 146.307 52.6527C148.707 52.7688 150.776 54.9032 150.832 57.3298L150.89 61.9744C150.89 62.0344 150.867 62.0914 150.825 62.1327C150.783 62.1721 150.729 62.1947 150.673 62.1947V62.1957ZM149.156 61.698L150.453 61.7511L150.398 57.3386C150.347 55.1245 148.45 53.177 146.257 53.0875C146.246 53.0875 146.236 53.0855 146.226 53.0836C145.006 53.0413 143.869 53.478 143.021 54.3131C142.157 55.1619 141.698 56.3078 141.726 57.5403L141.746 58.8967C141.751 59.239 142.022 59.5173 142.365 59.5311C142.546 59.539 142.714 59.4731 142.842 59.3472C142.969 59.2213 143.038 59.0531 143.034 58.8731L143.002 57.4468C142.982 56.6029 143.318 55.7806 143.923 55.1895C144.532 54.5934 145.333 54.2865 146.185 54.3249C147.776 54.3976 149.051 55.7078 149.087 57.3062L149.157 61.698H149.156Z" fill="#161616"/>
<path d="M147.027 74.545L145.088 74.6217C142.403 74.5548 140.031 71.3463 140.284 67.5742L140.691 61.5407L152.103 61.4492C153.116 61.4453 153.964 62.3482 153.894 63.3584L153.542 68.4535C153.311 71.8814 150.463 74.544 147.027 74.544V74.545Z" fill="white"/>
<path d="M145.156 74.4512C141.376 74.4512 138.385 71.2515 138.64 67.4804L139.036 61.6318H151.101C151.655 61.6318 152.095 62.102 152.058 62.6548L151.672 68.3607C151.44 71.7886 148.592 74.4512 145.157 74.4512H145.156Z" fill="white"/>
<path d="M145.155 74.6691C143.265 74.6691 141.515 73.9088 140.225 72.5288C138.935 71.1488 138.295 69.3508 138.422 67.4652L138.817 61.6167C138.825 61.5026 138.92 61.4141 139.035 61.4141H151.1C151.424 61.4141 151.738 61.5498 151.959 61.7868C152.181 62.0239 152.296 62.3455 152.274 62.6691L151.889 68.375C151.65 71.9042 148.693 74.6682 145.156 74.6682L145.155 74.6691ZM139.237 61.8498L138.856 67.4957C138.737 69.2593 139.336 70.9413 140.543 72.2327C141.75 73.5242 143.387 74.2344 145.155 74.2344C148.464 74.2344 151.231 71.6485 151.454 68.3475L151.839 62.6416C151.853 62.435 151.783 62.2373 151.642 62.0859C151.5 61.9344 151.307 61.8508 151.1 61.8508H139.237V61.8498Z" fill="#161616"/>
<path d="M145.002 70.7511C144.694 70.7511 144.45 70.4915 144.47 70.1836L144.76 65.6364C144.778 65.3551 145.011 65.1367 145.292 65.1367C145.6 65.1367 145.844 65.3964 145.824 65.7043L145.534 70.2515C145.516 70.5328 145.283 70.7511 145.002 70.7511Z" fill="#161616"/>
<path d="M145.191 68.0145C146.276 68.0145 147.155 67.135 147.155 66.0502C147.155 64.9654 146.276 64.0859 145.191 64.0859C144.106 64.0859 143.227 64.9654 143.227 66.0502C143.227 67.135 144.106 68.0145 145.191 68.0145Z" fill="#161616"/>
</g>
<rect x="0.5" y="0.5" width="385" height="243" rx="11.5" stroke="#F2F2F2"/>
<defs>
<clipPath id="clip0_1034_8126">
<rect width="164.898" height="180" fill="white" transform="translate(111 32)"/>
</clipPath>
</defs>
</svg>
