<svg width="386" height="244" viewBox="0 0 386 244" fill="none" xmlns="http://www.w3.org/2000/svg">
<path d="M162.581 94.5878C161.051 92.9312 158.777 92.5826 157.068 93.0498C154.906 93.641 153.814 95.5139 153.045 96.8356C151.685 99.1702 152.342 100.016 151.273 101.373C149.381 103.775 146.413 102.274 144.106 104.028C140.588 106.706 140.11 115.791 144.871 119.251C148.046 121.558 152.366 120.224 153.54 119.861C157.107 118.759 161.544 115.683 162.181 111.516C162.707 108.069 160.439 105.201 162.337 102.312C162.82 101.576 163.22 101.377 163.58 100.457C164.163 98.9635 164.294 96.4469 162.578 94.5892L162.581 94.5878Z" fill="#161616"/>
<path d="M157.965 94.9973C158.778 94.3372 158.263 92.3912 157.743 91.341C157.549 90.9469 156.676 89.187 155.53 89.2559C154.351 89.3262 153.224 91.3052 153.644 92.8736C154.17 94.8347 157.014 95.7705 157.965 94.9973Z" fill="#161616"/>
<path d="M167.47 138.961C168.212 139.221 169.159 139.48 169.159 139.48C169.159 139.48 169.232 140.682 167.153 142.001C165.485 143.057 159.518 146.064 149.835 143.957C147.164 143.375 144.332 141.204 145.998 138.604C148.221 135.136 157.973 135.835 157.973 135.835L167.468 138.961H167.47Z" fill="#161616"/>
<path d="M163.967 184.772V190.262L161.509 190.1L161.023 184.772H163.967Z" fill="white"/>
<path d="M163.967 190.598C163.961 190.598 163.952 190.598 163.945 190.598L161.485 190.437C161.32 190.426 161.188 190.296 161.173 190.132L160.689 184.803C160.681 184.709 160.712 184.615 160.776 184.546C160.839 184.476 160.93 184.438 161.024 184.438H163.967C164.154 184.438 164.304 184.588 164.304 184.774V190.263C164.304 190.355 164.265 190.445 164.198 190.508C164.136 190.566 164.053 190.599 163.967 190.599V190.598ZM161.816 189.785L163.631 189.903V185.109H161.392L161.816 189.785Z" fill="#161616"/>
<path d="M161.146 197.106C162.148 197.221 163.787 197.296 165.697 196.942C166.322 196.826 166.719 196.156 166.547 195.499C166.067 193.669 165.122 190.259 164.368 188.626L163.915 189.516L163.552 188.576C163.49 188.465 163.383 188.392 163.262 188.381L162.319 188.285C162.122 188.266 161.886 188.474 161.852 188.684L161.23 189.518L160.872 188.528L160.201 195.852C160.143 196.477 160.564 197.038 161.146 197.106Z" fill="white"/>
<path d="M162.855 197.538C162.172 197.538 161.579 197.494 161.108 197.44C160.35 197.353 159.792 196.627 159.866 195.822L160.537 188.498C160.551 188.341 160.672 188.216 160.829 188.196C160.986 188.176 161.134 188.267 161.188 188.416L161.334 188.819L161.542 188.541C161.648 188.192 162.009 187.919 162.354 187.955L163.296 188.05C163.525 188.074 163.732 188.21 163.846 188.417C163.854 188.431 163.86 188.445 163.867 188.46L163.959 188.698L164.071 188.478C164.13 188.363 164.249 188.296 164.377 188.294C164.505 188.297 164.621 188.373 164.676 188.49C165.477 190.228 166.48 193.915 166.874 195.418C166.983 195.836 166.915 196.281 166.687 196.639C166.47 196.978 166.142 197.204 165.759 197.276C164.69 197.473 163.703 197.54 162.857 197.54L162.855 197.538ZM161.184 196.771C162.192 196.887 163.783 196.953 165.635 196.612C165.832 196.576 166.003 196.456 166.117 196.275C166.246 196.073 166.284 195.821 166.222 195.585C165.878 194.269 165.063 191.267 164.34 189.423L164.214 189.67C164.154 189.788 164.028 189.859 163.897 189.853C163.765 189.846 163.649 189.762 163.601 189.638L163.249 188.73C163.243 188.722 163.234 188.716 163.226 188.716L162.283 188.621C162.257 188.628 162.187 188.7 162.181 188.738C162.173 188.792 162.151 188.841 162.119 188.884L161.498 189.718C161.425 189.817 161.302 189.868 161.179 189.849C161.148 189.845 161.117 189.835 161.088 189.823L160.533 195.883C160.492 196.326 160.784 196.726 161.182 196.771H161.184Z" fill="#161616"/>
<path d="M163.526 196.294C162.069 196.294 160.952 196 160.881 195.981C160.702 195.933 160.596 195.748 160.644 195.569C160.693 195.39 160.876 195.282 161.057 195.332C161.081 195.339 163.507 195.973 165.774 195.332C165.953 195.282 166.138 195.386 166.189 195.563C166.24 195.741 166.135 195.927 165.957 195.978C165.123 196.214 164.28 196.292 163.528 196.292L163.526 196.294Z" fill="#161616"/>
<path d="M164.363 193.443H162.118C161.931 193.443 161.781 193.293 161.781 193.107C161.781 192.921 161.931 192.771 162.118 192.771H164.363C164.549 192.771 164.699 192.921 164.699 193.107C164.699 193.293 164.549 193.443 164.363 193.443Z" fill="#161616"/>
<path d="M145.876 181.868L145.148 188.487L142.844 188.401V181.868H145.876Z" fill="white"/>
<path d="M145.15 188.822C145.15 188.822 145.141 188.822 145.137 188.822L142.832 188.736C142.651 188.729 142.508 188.581 142.508 188.4V181.868C142.508 181.681 142.658 181.531 142.844 181.531H145.876C145.971 181.531 146.062 181.573 146.127 181.643C146.19 181.715 146.221 181.808 146.211 181.903L145.483 188.523C145.464 188.694 145.321 188.822 145.15 188.822ZM143.18 188.076L144.849 188.138L145.501 182.202H143.18V188.075V188.076Z" fill="#161616"/>
<path d="M145.7 186.907C145.7 186.907 145.996 189.847 145.906 191.029C145.839 191.875 144.759 194.43 144.15 195.815C143.899 196.385 143.421 196.751 142.89 196.775C142.244 196.805 141.344 196.839 140.619 196.841C139.621 196.841 138.935 195.624 139.29 194.488C139.62 193.441 140.141 192.126 140.962 190.727C141.581 189.674 142.484 186.811 142.484 186.811H144.362L144.731 188.486L145.7 186.907Z" fill="white"/>
<path d="M140.616 197.177C140.105 197.177 139.621 196.918 139.289 196.467C138.869 195.895 138.746 195.099 138.969 194.388C139.385 193.063 139.957 191.773 140.673 190.556C141.265 189.548 142.155 186.737 142.164 186.71C142.208 186.569 142.337 186.476 142.483 186.476H144.362C144.519 186.476 144.655 186.586 144.69 186.739L144.88 187.6L145.413 186.731C145.489 186.608 145.634 186.547 145.775 186.579C145.915 186.611 146.02 186.729 146.034 186.872C146.046 186.994 146.331 189.855 146.239 191.054C146.173 191.9 145.233 194.184 144.456 195.95C144.154 196.635 143.56 197.081 142.905 197.111C142.268 197.141 141.355 197.176 140.619 197.177H140.617H140.616ZM142.729 187.147C142.496 187.862 141.783 189.991 141.251 190.897C140.562 192.07 140.01 193.311 139.61 194.589C139.45 195.099 139.534 195.667 139.83 196.069C140.037 196.35 140.316 196.506 140.616 196.506C141.34 196.506 142.242 196.47 142.872 196.441C143.27 196.423 143.641 196.131 143.84 195.682C144.894 193.288 145.524 191.582 145.568 191.004C145.623 190.294 145.531 188.904 145.453 187.949L145.015 188.663C144.943 188.78 144.808 188.841 144.673 188.818C144.538 188.795 144.431 188.693 144.4 188.559L144.09 187.148H142.727L142.729 187.147Z" fill="#161616"/>
<path d="M142.048 195.917H142.046L139.907 195.914C139.721 195.914 139.57 195.764 139.57 195.578C139.57 195.392 139.721 195.235 139.907 195.242L142.046 195.245H142.047C142.66 195.245 143.221 194.854 143.512 194.226C144.533 192.014 144.585 191.967 144.66 191.902C144.799 191.78 145.011 191.795 145.134 191.934C145.243 192.058 145.244 192.241 145.144 192.366C145.105 192.43 144.924 192.768 144.122 194.507C143.721 195.377 142.926 195.917 142.048 195.917Z" fill="#161616"/>
<path d="M142.947 193.525H140.891C140.705 193.525 140.555 193.375 140.555 193.189C140.555 193.003 140.705 192.853 140.891 192.853H142.947C143.133 192.853 143.283 193.003 143.283 193.189C143.283 193.375 143.133 193.525 142.947 193.525Z" fill="#161616"/>
<path d="M167.92 129.89C167.92 129.89 167.674 150.09 166.885 163.241C166.095 176.391 164.535 186.446 164.535 186.446C164.535 186.446 161.853 187.481 160.092 186.94C160.092 186.94 158.634 175.404 158.303 171.505C157.972 167.607 158.851 165.672 158.926 162.48C159 159.288 157.645 145.199 157.645 145.199C157.645 145.199 147.532 177.051 146.376 184.087C146.376 184.087 143.927 184.533 142.2 183.519C142.2 183.519 142.147 170.993 142.392 169.058C142.845 165.472 145.453 161.941 145.921 158.133C146.39 154.324 146.661 144.766 147.951 139.033C149.241 133.3 151.772 126.858 151.772 126.858L167.92 129.892V129.89Z" fill="#161616"/>
<path d="M150.962 139.503C150.839 139.503 150.72 139.435 150.661 139.318C150.577 139.153 150.645 138.95 150.81 138.867C153.947 137.285 154.72 133.859 154.727 133.825C154.765 133.644 154.945 133.528 155.126 133.567C155.308 133.606 155.423 133.785 155.384 133.967C155.351 134.12 154.532 137.743 151.112 139.468C151.064 139.493 151.011 139.504 150.96 139.504L150.962 139.503Z" fill="white"/>
<path d="M148.064 150.481C148.055 150.481 148.048 150.481 148.04 150.481C147.855 150.469 147.715 150.309 147.727 150.123C148.387 140.437 151.553 133.813 151.585 133.747C151.666 133.58 151.867 133.51 152.034 133.591C152.201 133.673 152.271 133.874 152.19 134.041C152.158 134.106 149.049 140.622 148.397 150.168C148.385 150.346 148.237 150.481 148.062 150.481H148.064Z" fill="white"/>
<path d="M176.423 91.454C176.504 90.8848 176.507 90.1048 176.464 89.763C176.314 88.5764 176.671 86.4306 176.686 85.7401C176.701 85.0414 176.558 84.6845 176.128 84.639C175.757 84.599 175.415 84.8471 175.323 85.2027C175.301 85.2881 175.275 85.4742 175.243 85.6919C175.083 86.7655 173.056 88.1175 173.056 88.1175C173.056 88.1175 172.871 88.3931 172.963 88.5323L173.87 89.8884C174.027 90.1558 173.982 91.0406 173.928 91.6773L176.424 91.454H176.423Z" fill="white"/>
<path d="M173.929 92.0128C173.841 92.0128 173.756 91.9783 173.692 91.9149C173.622 91.8446 173.586 91.7468 173.594 91.6489C173.706 90.3342 173.594 90.0819 173.581 90.0571L172.685 88.7189C172.482 88.4157 172.704 88.0381 172.777 87.9306C172.802 87.8948 172.832 87.8631 172.869 87.8383C173.605 87.3463 174.811 86.3154 174.91 85.6429L174.923 85.5602C174.953 85.3576 174.974 85.2115 174.999 85.1192C175.134 84.5982 175.635 84.2482 176.165 84.3061C177.054 84.4025 177.031 85.381 177.023 85.749C177.018 85.9805 176.981 86.3361 176.932 86.7854C176.834 87.6977 176.702 88.9477 176.799 89.7223C176.847 90.1026 176.841 90.9088 176.757 91.5015C176.735 91.6558 176.61 91.7743 176.454 91.7895L173.958 92.0128C173.949 92.0128 173.938 92.0128 173.928 92.0128H173.929ZM173.284 88.4047L174.151 89.7016C174.26 89.8862 174.361 90.2239 174.294 91.3071L176.123 91.1431C176.17 90.6318 176.165 90.053 176.133 89.8049C176.025 88.9519 176.163 87.6577 176.265 86.7123C176.309 86.2947 176.348 85.935 176.353 85.7325C176.37 85.002 176.198 84.9827 176.094 84.9717C175.892 84.951 175.703 85.0847 175.651 85.2859C175.633 85.3535 175.613 85.4913 175.59 85.6553L175.578 85.7393C175.412 86.8474 173.711 88.0753 173.309 88.351C173.299 88.3689 173.291 88.3868 173.286 88.4033L173.284 88.4047Z" fill="#161616"/>
<path d="M177.37 91.1434C177.43 91.1324 177.483 91.1737 177.489 91.233C177.581 92.3451 178.168 101.769 175.471 107.442C174.242 110.027 170.227 111.682 168.179 112.369C168.132 112.384 168.091 112.48 168.057 112.64L168.714 114.066C169.156 115.024 169.334 116.072 169.242 117.105C169.185 117.752 169.001 118.38 168.739 118.975L168.587 119.321C168.159 120.3 167.952 121.357 167.982 122.422C168.168 129.197 168.562 137.247 168.663 139.247C168.674 139.465 168.452 139.618 168.248 139.534L161.691 136.86C159.184 135.861 156.455 135.593 153.776 135.956C151.007 136.332 146.571 138.791 146.706 138.598C148.412 136.154 152.554 128.311 151.971 122.177C151.599 118.259 150.874 119.394 150.438 116.426C149.872 112.563 149.737 109.574 153.387 107.763C155.71 106.612 158.255 105.64 160.515 106.037C160.766 106.081 161.014 106.13 161.261 106.183C164.53 106.889 169.467 105.14 170.963 102.188C172.493 99.1726 172.714 92.7421 172.736 91.8959C172.737 91.8421 172.778 91.7994 172.832 91.7925L177.368 91.1406L177.37 91.1434Z" fill="white"/>
<path d="M168.363 139.893C168.281 139.893 168.199 139.877 168.119 139.845L161.562 137.173C159.196 136.23 156.518 135.924 153.82 136.291C151.852 136.558 148.992 137.918 147.618 138.572C146.685 139.015 146.63 139.042 146.445 138.825C146.347 138.709 146.342 138.532 146.428 138.406C148.365 135.632 152.186 128.022 151.634 122.21C151.434 120.112 151.145 119.534 150.839 118.922C150.577 118.401 150.308 117.86 150.104 116.477C149.527 112.537 149.39 109.371 153.237 107.464C155.347 106.418 158.086 105.272 160.571 105.708C160.826 105.752 161.08 105.803 161.331 105.857C164.349 106.51 169.185 104.951 170.662 102.039C172.166 99.0747 172.379 92.6166 172.399 91.8903C172.404 91.6671 172.571 91.4879 172.793 91.4617L177.316 90.8112C177.436 90.7919 177.557 90.8236 177.654 90.8967C177.75 90.9711 177.811 91.0841 177.82 91.2054C177.855 91.6243 178.636 101.56 175.771 107.586C174.481 110.3 170.308 111.995 168.423 112.64L169.015 113.926C169.477 114.929 169.67 116.039 169.573 117.136C169.517 117.772 169.339 118.438 169.044 119.112L168.893 119.458C168.482 120.398 168.288 121.393 168.315 122.415C168.5 129.11 168.883 136.98 168.995 139.232C169.006 139.448 168.906 139.652 168.729 139.777C168.618 139.856 168.49 139.896 168.359 139.896L168.363 139.893ZM156.031 135.468C158.05 135.468 160.017 135.833 161.814 136.548L168.325 139.201C168.208 136.87 167.83 129.073 167.647 122.43C167.615 121.309 167.829 120.216 168.281 119.185L168.432 118.839C168.698 118.233 168.858 117.639 168.908 117.074C168.995 116.094 168.822 115.101 168.409 114.206L167.751 112.779C167.721 112.713 167.713 112.639 167.728 112.567C167.758 112.426 167.822 112.133 168.073 112.049C169.802 111.469 173.956 109.845 175.169 107.295C177.71 101.95 177.276 93.1086 177.173 91.5099L173.068 92.0998C173.023 93.4242 172.742 99.4303 171.266 102.341C169.659 105.509 164.441 107.214 161.193 106.513C160.95 106.46 160.706 106.412 160.46 106.369C158.165 105.968 155.556 107.064 153.538 108.064C150.089 109.775 150.216 112.589 150.771 116.378C150.958 117.655 151.193 118.124 151.442 118.62C151.763 119.261 152.094 119.922 152.306 122.145C152.822 127.564 149.681 134.456 147.607 137.833C149.091 137.129 151.787 135.887 153.733 135.624C154.503 135.519 155.272 135.467 156.033 135.467L156.031 135.468ZM172.892 92.126H172.881C172.881 92.126 172.888 92.126 172.892 92.126Z" fill="#161616"/>
<path d="M151.87 109.158C150.005 110.572 149.206 114.372 149.086 117.382L149.479 124.918C149.414 126.56 150.627 127.984 152.279 128.202L172.436 130.706L173.01 125.536L157.256 122.333C156.711 122.226 156.339 121.727 156.397 121.183L156.99 115.703L151.868 109.16L151.87 109.158Z" fill="white"/>
<path d="M172.43 131.04C172.417 131.04 172.403 131.04 172.389 131.038L152.232 128.533C150.394 128.291 149.064 126.729 149.137 124.902L148.824 118.937C148.729 117.129 148.829 115.394 149.121 113.784C149.429 112.089 149.914 110.602 150.562 109.365C150.648 109.201 150.851 109.137 151.015 109.223C151.179 109.308 151.242 109.512 151.157 109.676C150.54 110.853 150.078 112.275 149.783 113.903C149.5 115.463 149.404 117.144 149.495 118.901L149.808 124.898C149.75 126.407 150.828 127.669 152.317 127.866L172.134 130.328L172.636 125.802L157.184 122.66C156.478 122.521 155.997 121.888 156.055 121.181L155.626 117.005C155.607 116.82 155.742 116.655 155.927 116.637C156.112 116.616 156.277 116.753 156.295 116.938L156.726 121.145C156.729 121.169 156.729 121.192 156.726 121.215C156.686 121.589 156.938 121.927 157.315 122.001L173.07 125.204C173.241 125.238 173.357 125.397 173.337 125.57L172.764 130.74C172.754 130.829 172.709 130.911 172.638 130.966C172.579 131.013 172.505 131.038 172.43 131.038V131.04Z" fill="#161616"/>
<path d="M162.961 118.51C162.903 118.51 162.845 118.495 162.793 118.465C162.631 118.373 162.578 118.166 162.67 118.006C163.58 116.436 163.128 113.96 163.122 113.935C163.088 113.753 163.208 113.576 163.389 113.542C163.571 113.508 163.748 113.627 163.782 113.809C163.803 113.921 164.285 116.557 163.252 118.342C163.19 118.45 163.077 118.51 162.961 118.51Z" fill="#161616"/>
<path d="M173.01 125.617L174.551 125.449C175.212 125.377 175.881 125.371 176.544 125.428L177.657 125.526C177.824 125.541 177.978 125.614 178.089 125.733L178.102 125.748C178.305 125.965 178.32 126.284 178.14 126.517C178.022 126.669 177.836 126.761 177.636 126.769L176.549 126.812C176.479 126.815 176.466 126.909 176.534 126.928L178.408 127.446C178.581 127.493 178.76 127.507 178.937 127.485L179.789 127.377C180.438 127.296 181.151 127.602 181.335 128.157C181.403 128.361 181.313 128.591 181.101 128.67C181.098 128.67 181.096 128.671 181.094 128.673L179.908 129.061C178.71 129.454 177.426 129.556 176.174 129.358L172.641 128.797L173.009 125.62L173.01 125.617Z" fill="white"/>
<path d="M177.426 129.788C176.99 129.788 176.554 129.753 176.122 129.686L172.589 129.125C172.405 129.096 172.28 128.924 172.309 128.74C172.338 128.557 172.51 128.433 172.693 128.461L176.227 129.022C177.422 129.212 178.658 129.114 179.802 128.739L180.989 128.35C181.03 128.335 181.023 128.28 181.016 128.261C180.892 127.889 180.361 127.641 179.829 127.708L178.978 127.816C178.755 127.843 178.533 127.828 178.318 127.769L176.443 127.251C176.253 127.198 176.132 127.019 176.154 126.825C176.176 126.63 176.336 126.483 176.534 126.475L177.622 126.433C177.721 126.429 177.815 126.384 177.872 126.311C177.952 126.207 177.946 126.074 177.856 125.977C177.787 125.904 177.711 125.868 177.626 125.86L176.512 125.762C175.873 125.707 175.224 125.714 174.586 125.783L173.045 125.951C172.859 125.97 172.695 125.838 172.674 125.653C172.653 125.469 172.787 125.303 172.972 125.283L174.513 125.114C175.195 125.04 175.887 125.033 176.57 125.092L177.684 125.19C177.935 125.212 178.165 125.323 178.331 125.502C178.659 125.853 178.684 126.359 178.402 126.721C178.309 126.84 178.194 126.934 178.061 126.998L178.497 127.118C178.625 127.154 178.761 127.164 178.895 127.147L179.747 127.04C180.607 126.932 181.427 127.364 181.654 128.047C181.782 128.433 181.591 128.844 181.216 128.982L180.01 129.377C179.178 129.65 178.301 129.788 177.423 129.788H177.426Z" fill="#161616"/>
<path d="M173.921 90.6682C173.752 90.6682 173.606 90.54 173.588 90.3663C173.568 90.1817 173.702 90.0163 173.887 89.997L175.338 89.8454C175.52 89.8275 175.688 89.9598 175.707 90.1444C175.727 90.3291 175.593 90.4945 175.408 90.5138L173.957 90.6654C173.945 90.6654 173.934 90.6668 173.923 90.6668L173.921 90.6682Z" fill="#161616"/>
<path d="M156.872 98.775C157.524 99.0314 157.849 98.9556 158.649 98.5366C160.208 97.7194 160.833 95.9636 161.28 96.7478C161.67 97.4313 161.524 97.9206 162.52 98.7089C162.615 98.7847 162.578 98.9432 162.497 99.0341L162.075 99.5606C161.984 99.6626 161.947 99.952 161.961 100.088C162.003 100.509 162.1 101.377 162.006 101.538C161.735 102.008 160.236 102.251 160.236 102.251L160.064 105.364C160.039 105.802 160.191 106.232 160.485 106.559L160.81 106.92C160.81 106.92 160.789 107.787 158.143 107.936C157.519 107.97 156.801 107.785 156.353 107.644C156.157 107.582 156.084 107.344 156.208 107.178C156.65 106.581 157.706 105.028 157.402 101.414C157.392 101.304 157.324 101.208 157.225 101.161C156.843 100.98 155.804 100.432 155.813 99.6626C155.821 98.8453 156.396 98.5876 156.87 98.775H156.872Z" fill="white"/>
<path d="M157.991 108.276C157.377 108.276 156.719 108.11 156.259 107.964C156.065 107.902 155.912 107.751 155.85 107.556C155.786 107.361 155.822 107.144 155.946 106.977C156.3 106.501 157.378 105.047 157.075 101.441C156.486 101.178 155.475 100.565 155.484 99.658C155.49 99.166 155.672 98.7746 155.997 98.5554C156.284 98.3625 156.659 98.3267 157 98.4617C157.52 98.6657 157.745 98.6326 158.498 98.2371C159.156 97.8925 159.64 97.362 160.027 96.9361C160.429 96.4951 160.72 96.174 161.091 96.2167C161.289 96.2388 161.453 96.3614 161.577 96.5805C161.712 96.8176 161.791 97.0367 161.86 97.2283C162.006 97.6376 162.122 97.9601 162.735 98.4438C162.841 98.5265 162.906 98.6492 162.917 98.787C162.931 98.951 162.87 99.126 162.754 99.2555L162.344 99.7682C162.319 99.8123 162.294 99.9763 162.302 100.052L162.31 100.139C162.417 101.174 162.415 101.51 162.304 101.703C162.033 102.172 161.096 102.424 160.564 102.531L160.407 105.382C160.388 105.727 160.511 106.075 160.742 106.332L161.067 106.694C161.125 106.757 161.156 106.841 161.153 106.926C161.149 107.124 160.982 108.112 158.169 108.27C158.11 108.273 158.051 108.274 157.991 108.274V108.276ZM156.514 107.34C156.896 107.458 157.57 107.633 158.132 107.6C159.758 107.509 160.276 107.147 160.427 106.987L160.243 106.783C159.892 106.393 159.707 105.869 159.736 105.346L159.908 102.231C159.917 102.074 160.034 101.943 160.19 101.918C160.879 101.807 161.569 101.563 161.708 101.388C161.741 101.189 161.667 100.456 161.641 100.209L161.631 100.121C161.615 99.9557 161.641 99.5463 161.83 99.3369L162.199 98.8752C161.536 98.3184 161.379 97.8801 161.226 97.4557C161.161 97.2738 161.099 97.1015 160.993 96.9154C160.876 96.9995 160.675 97.22 160.522 97.3895C160.121 97.8305 159.571 98.4342 158.809 98.8338C157.939 99.29 157.521 99.3906 156.754 99.0874C156.616 99.0337 156.477 99.0433 156.371 99.1136C156.234 99.2059 156.157 99.4016 156.154 99.6662C156.15 100.049 156.606 100.495 157.375 100.857C157.583 100.955 157.724 101.157 157.743 101.386C158.06 105.154 156.932 106.773 156.513 107.34H156.514Z" fill="#161616"/>
<path d="M105.444 183.301L102.833 191.892L99.0156 190.793L101.791 181.764L105.444 183.301Z" fill="white"/>
<path d="M102.835 192.09C102.817 192.09 102.798 192.087 102.78 192.082L98.963 190.982C98.9123 190.968 98.8697 190.933 98.8439 190.886C98.819 190.839 98.8136 190.784 98.8287 190.734L101.605 181.704C101.621 181.651 101.659 181.607 101.71 181.583C101.76 181.56 101.818 181.559 101.87 181.581L105.522 183.119C105.616 183.158 105.664 183.261 105.634 183.358L103.023 191.949C102.997 192.033 102.919 192.088 102.835 192.088V192.09ZM99.2645 190.659L102.703 191.65L105.207 183.415L101.919 182.03L99.2654 190.659H99.2645Z" fill="#161616"/>
<path d="M103.191 190.598L99.3831 189.391C99.1127 189.306 98.8183 189.39 98.6369 189.607C98.0392 190.322 96.7425 192.022 96.2586 193.872C96.1261 194.377 96.416 194.897 96.9141 195.056L102.324 196.771C103.513 197.149 104.739 197.395 105.981 197.508C105.981 197.508 109.978 197.929 110.026 196.657C110.093 194.828 107.399 194.463 107.038 194.093C105.654 192.677 104.205 191.354 103.674 190.875C103.534 190.749 103.371 190.656 103.192 190.599L103.191 190.598Z" fill="white"/>
<path d="M107.388 197.774C106.688 197.774 106.096 197.717 105.961 197.702C104.71 197.589 103.466 197.339 102.266 196.958L96.8562 195.242C96.2559 195.052 95.9108 194.428 96.07 193.82C96.5707 191.911 97.9279 190.149 98.4883 189.479C98.7222 189.201 99.0975 189.091 99.4453 189.202L103.253 190.408C103.46 190.474 103.647 190.581 103.807 190.726C104.362 191.226 105.802 192.542 107.18 193.953C107.244 194.019 107.53 194.127 107.781 194.222C108.715 194.576 110.278 195.17 110.224 196.661C110.216 196.883 110.119 197.076 109.936 197.235C109.432 197.672 108.316 197.774 107.389 197.774L107.388 197.774ZM99.1722 189.555C99.0263 189.555 98.8858 189.618 98.7898 189.733C98.2463 190.382 96.9309 192.089 96.4506 193.922C96.3448 194.325 96.5752 194.741 96.9754 194.868L102.386 196.584C103.559 196.955 104.775 197.201 106 197.311C106.808 197.396 109.037 197.495 109.678 196.94C109.778 196.853 109.826 196.761 109.831 196.649C109.875 195.441 108.531 194.931 107.642 194.593C107.284 194.457 107.024 194.358 106.899 194.231C105.529 192.829 104.096 191.519 103.544 191.021C103.425 190.915 103.287 190.835 103.134 190.787L99.327 189.58C99.2763 189.564 99.2247 189.556 99.174 189.556L99.1722 189.555Z" fill="#161616"/>
<path d="M103.025 194.371C102.967 194.371 102.91 194.346 102.871 194.297C102.804 194.212 102.817 194.088 102.901 194.02L105.143 192.224C105.227 192.156 105.352 192.169 105.42 192.254C105.488 192.338 105.474 192.463 105.39 192.531L103.149 194.327C103.112 194.357 103.069 194.371 103.026 194.371H103.025Z" fill="#161616"/>
<path d="M104.22 195.704C104.163 195.704 104.106 195.679 104.067 195.63C103.999 195.544 104.012 195.421 104.097 195.352L106.338 193.556C106.423 193.488 106.547 193.502 106.615 193.586C106.682 193.671 106.669 193.795 106.584 193.864L104.343 195.66C104.307 195.689 104.263 195.704 104.22 195.704Z" fill="#161616"/>
<path d="M127.069 185.456L126.887 191.587L122.57 191.585L122.873 185.184L127.069 185.456Z" fill="white"/>
<path d="M126.888 191.784L122.572 191.782C122.518 191.782 122.467 191.76 122.429 191.721C122.392 191.682 122.373 191.629 122.375 191.576L122.678 185.174C122.68 185.121 122.703 185.072 122.743 185.036C122.783 185.001 122.833 184.985 122.888 184.986L127.084 185.259C127.19 185.266 127.271 185.355 127.268 185.461L127.085 191.593C127.082 191.7 126.995 191.784 126.889 191.784H126.888ZM122.778 191.388L126.697 191.39L126.868 185.64L123.062 185.393L122.778 191.388Z" fill="#161616"/>
<path d="M126.719 191.493L122.711 191.491C122.427 191.491 122.17 191.663 122.063 191.928C121.707 192.8 120.982 194.839 121.079 196.773C121.106 197.302 121.541 197.716 122.065 197.716L133.824 197.721C134.365 197.721 134.776 197.222 134.668 196.687C134.538 196.047 134.092 195.204 132.802 194.446C130.715 193.218 128.092 191.992 127.265 191.612C127.093 191.533 126.907 191.493 126.719 191.493Z" fill="white"/>
<path d="M133.826 197.918L122.066 197.914C121.434 197.914 120.915 197.418 120.884 196.784C120.784 194.788 121.548 192.672 121.882 191.855C122.021 191.516 122.346 191.296 122.712 191.296L126.72 191.298C126.938 191.298 127.149 191.344 127.348 191.436C128.117 191.789 130.792 193.037 132.903 194.279C134.291 195.095 134.734 196.019 134.862 196.651C134.925 196.963 134.845 197.285 134.643 197.531C134.441 197.779 134.143 197.92 133.826 197.92V197.918ZM122.712 191.689C122.506 191.689 122.324 191.813 122.246 192.004C121.922 192.796 121.18 194.847 121.276 196.765C121.297 197.188 121.643 197.52 122.065 197.52L133.825 197.524C134.024 197.524 134.21 197.435 134.337 197.281C134.464 197.125 134.514 196.924 134.475 196.727C134.315 195.934 133.702 195.205 132.702 194.617C130.607 193.385 127.947 192.144 127.182 191.792C127.035 191.725 126.879 191.691 126.718 191.691L122.711 191.689H122.712Z" fill="#161616"/>
<path d="M127.642 195.196C127.605 195.196 127.568 195.186 127.534 195.163C127.443 195.103 127.418 194.981 127.478 194.89L129.078 192.47C129.138 192.38 129.26 192.355 129.351 192.414C129.441 192.475 129.466 192.597 129.407 192.687L127.807 195.107C127.769 195.164 127.706 195.195 127.642 195.195V195.196Z" fill="#161616"/>
<path d="M129.189 196.119C129.152 196.119 129.114 196.108 129.081 196.086C128.99 196.026 128.965 195.904 129.025 195.813L130.625 193.393C130.685 193.302 130.807 193.277 130.898 193.337C130.988 193.398 131.013 193.519 130.954 193.61L129.354 196.03C129.315 196.087 129.253 196.118 129.189 196.118V196.119Z" fill="#161616"/>
<path d="M108.978 133.293C108.978 133.293 107.007 138.214 106.625 143.257C106.242 148.301 101.006 178.744 99.4375 186.415C99.4375 186.415 102.952 188.382 104.954 188.059C104.954 188.059 116.268 165.527 118.11 148.742C119.953 131.958 119.415 133.298 119.415 133.298L108.977 133.293H108.978Z" fill="#161616"/>
<path d="M112.451 135.183C112.451 135.183 111.816 144.277 114.97 150.704C118.123 157.132 121.911 182.12 121.647 188.474C121.647 188.474 125.641 189.531 127.536 188.79C127.536 188.79 133.273 152.772 125.966 135.062L112.45 135.185L112.451 135.183Z" fill="#161616"/>
<path d="M116.89 157.704C116.797 157.704 116.714 157.637 116.696 157.543C116.692 157.517 116.197 154.898 115.007 152.796C113.214 149.627 112.54 145.689 112.534 145.65C112.516 145.543 112.588 145.441 112.696 145.423C112.803 145.406 112.905 145.478 112.923 145.585C112.929 145.623 113.592 149.494 115.351 152.602C116.574 154.763 117.064 157.362 117.084 157.471C117.104 157.578 117.033 157.681 116.926 157.701C116.913 157.702 116.902 157.704 116.889 157.704H116.89Z" fill="white"/>
<path d="M112.758 113.019L110.882 110.937C110.072 108.871 107.818 107.082 105.925 105.925C98.0735 101.125 99.1763 92.0144 99.1301 88.3252L96.1417 88.7886C96.1417 88.7886 88.7864 107.922 106.896 117.067L112.758 113.019Z" fill="white"/>
<path d="M106.898 117.264C106.867 117.264 106.837 117.257 106.809 117.243C97.3712 112.477 94.9236 104.97 94.5323 99.5119C94.1089 93.6098 95.9402 88.7653 95.9589 88.7172C95.9846 88.6514 96.0425 88.6043 96.1127 88.5927L99.1011 88.1294C99.158 88.1205 99.2149 88.1365 99.2585 88.1738C99.3021 88.2112 99.3279 88.2645 99.3279 88.3215C99.3332 88.7155 99.3252 89.1593 99.3154 89.6725C99.2425 93.8144 99.1055 101.524 106.028 105.755C107.511 106.663 110.13 108.524 111.052 110.83L112.905 112.886C112.943 112.928 112.961 112.984 112.954 113.041C112.948 113.097 112.917 113.147 112.871 113.18L107.009 117.228C106.975 117.251 106.936 117.262 106.897 117.262L106.898 117.264ZM96.2879 88.9654C96.0256 89.7018 94.5403 94.1613 94.9263 99.4985C95.3114 104.83 97.7021 112.156 106.882 116.839L112.463 112.985L110.736 111.071C110.72 111.053 110.708 111.032 110.699 111.01C109.831 108.795 107.271 106.979 105.822 106.093C98.7071 101.744 98.8467 93.8873 98.9214 89.6671C98.9286 89.2536 98.9348 88.8862 98.9348 88.5554L96.287 88.9654H96.2879Z" fill="#161616"/>
<path d="M97.1935 89.1547C97.0246 89.1023 96.8511 89.0258 96.6741 88.9235C95.8212 88.4308 94.721 86.8539 95.1639 85.8257C95.7981 84.3538 99.1814 84.6624 99.8137 85.9698C100.58 87.5529 98.9056 89.6875 97.1935 89.1538V89.1547Z" fill="white"/>
<path d="M97.7332 89.4336C97.5322 89.4336 97.3303 89.4033 97.1338 89.3428C96.9479 89.285 96.7593 89.2014 96.5744 89.0947C95.6182 88.5424 94.5038 86.857 94.9814 85.7488C95.2669 85.0871 96.0772 84.6779 97.1489 84.6539C98.2544 84.6353 99.5832 85.0444 99.9896 85.8849C100.391 86.712 100.209 87.7588 99.5272 88.5504C99.0353 89.1214 98.3834 89.4336 97.7332 89.4336ZM97.2512 88.9657C98.0632 89.2192 98.8058 88.7843 99.2292 88.2925C99.8082 87.6201 99.9683 86.7414 99.6357 86.0556C99.3448 85.4562 98.2829 85.0204 97.1578 85.047C96.2444 85.0675 95.5658 85.3877 95.3434 85.9035C94.9645 86.7823 95.9509 88.2782 96.7718 88.7523C96.931 88.8448 97.0929 88.9159 97.2512 88.9657Z" fill="#161616"/>
<path d="M142.59 106.59C150.777 111.938 146.146 128.756 133.484 122.882L132.648 114.36C143.592 119.08 142.841 112.605 140 105.63L142.59 106.59Z" fill="white"/>
<path d="M138.473 124.311C136.894 124.311 135.198 123.894 133.402 123.061C133.339 123.031 133.296 122.971 133.289 122.902L132.454 114.38C132.447 114.311 132.478 114.243 132.534 114.201C132.59 114.16 132.664 114.152 132.728 114.18C136.86 115.962 139.58 116.254 140.812 115.047C142.145 113.741 141.811 110.598 139.819 105.705C139.79 105.633 139.806 105.549 139.86 105.493C139.914 105.437 139.997 105.419 140.07 105.446L142.66 106.407C142.673 106.412 142.687 106.418 142.699 106.426C147.266 109.408 147.857 115.877 145.543 120.047C144.465 121.99 142.868 123.338 140.924 123.946C140.143 124.189 139.325 124.311 138.472 124.311H138.473ZM133.671 122.75C138.633 125.011 142.937 123.933 145.199 119.856C147.424 115.847 146.869 109.636 142.503 106.769L140.351 105.971C142.286 110.855 142.527 113.919 141.088 115.329C139.745 116.646 137.058 116.431 132.879 114.673L133.671 122.751V122.75Z" fill="#161616"/>
<path d="M140.796 106.703C140.611 106.646 140.421 106.562 140.227 106.451C139.292 105.911 138.087 104.183 138.572 103.058C139.266 101.445 142.973 101.783 143.666 103.215C144.507 104.949 142.672 107.289 140.795 106.703H140.796Z" fill="white"/>
<path d="M141.386 106.991C141.167 106.991 140.948 106.958 140.735 106.892C140.532 106.829 140.328 106.739 140.127 106.622C139.085 106.02 137.87 104.185 138.39 102.98C138.699 102.261 139.581 101.817 140.747 101.792C141.946 101.759 143.4 102.216 143.843 103.129C144.278 104.029 144.081 105.168 143.338 106.03C142.803 106.651 142.094 106.991 141.387 106.991H141.386ZM140.856 102.185C140.822 102.185 140.788 102.185 140.755 102.186C139.747 102.208 138.998 102.563 138.751 103.136C138.333 104.107 139.419 105.758 140.323 106.28C140.499 106.382 140.677 106.461 140.852 106.516C141.751 106.797 142.572 106.316 143.039 105.773C143.679 105.03 143.855 104.06 143.488 103.301C143.175 102.656 142.055 102.184 140.857 102.184L140.856 102.185Z" fill="#161616"/>
<path d="M134.593 114.569C134.583 114.342 134.476 114.131 134.299 113.988C133.663 113.471 131.361 112.321 129.381 111.188C127.195 109.937 125.258 109.152 122.739 109.183L114.214 108.721C111.837 108.71 110.471 108.265 108.496 107.095C106.188 105.728 104.725 103.797 104.144 103.16C104.037 103.044 103.848 103.07 103.776 103.21L98.8047 112.721C98.8047 112.721 102.648 116.229 107.716 120.128C107.877 120.253 108.09 124.132 108.068 124.333L106.48 138.8C106.349 139.805 128.851 141.422 128.786 140.375C128.576 136.997 127.393 134.19 127.892 123.559C127.909 123.177 128.258 122.9 128.632 122.972C129.713 123.182 131.885 123.595 134.08 123.968C134.583 124.053 135.036 123.65 135.011 123.141L134.592 114.57L134.593 114.569Z" fill="white"/>
<path d="M125.804 140.892C119.938 140.892 107.65 139.88 106.457 139.082C106.296 138.975 106.275 138.855 106.286 138.773L107.874 124.31C107.897 124.002 107.687 120.675 107.562 120.256C102.562 116.407 98.7119 112.899 98.6737 112.865C98.6079 112.804 98.5901 112.707 98.6319 112.628L103.603 103.118C103.668 102.994 103.788 102.91 103.926 102.892C104.063 102.875 104.199 102.925 104.291 103.026C104.378 103.121 104.484 103.245 104.61 103.391C105.326 104.224 106.658 105.775 108.598 106.924C110.649 108.138 111.962 108.512 114.217 108.522L122.751 108.984C125.335 108.943 127.31 109.772 129.481 111.015C130.207 111.43 130.962 111.841 131.694 112.238C132.936 112.912 134.009 113.495 134.425 113.833C134.644 114.011 134.778 114.275 134.791 114.557L135.21 123.128C135.225 123.432 135.103 123.722 134.876 123.923C134.649 124.124 134.347 124.21 134.049 124.159C131.846 123.785 129.687 123.373 128.597 123.161C128.474 123.138 128.352 123.167 128.254 123.244C128.156 123.321 128.096 123.438 128.091 123.563C127.728 131.287 128.26 134.904 128.65 137.546C128.799 138.558 128.927 139.431 128.985 140.357C128.99 140.424 128.972 140.549 128.808 140.643C128.509 140.816 127.391 140.89 125.805 140.89L125.804 140.892ZM106.684 138.762C107.148 139.098 111.059 139.69 117.596 140.156C124.117 140.621 128.066 140.587 128.586 140.32C128.527 139.434 128.403 138.584 128.258 137.605C127.866 134.948 127.33 131.308 127.695 123.547C127.706 123.307 127.82 123.085 128.009 122.936C128.195 122.79 128.437 122.731 128.67 122.776C129.758 122.988 131.913 123.398 134.113 123.771C134.293 123.802 134.475 123.75 134.612 123.628C134.749 123.506 134.822 123.331 134.814 123.148L134.395 114.577C134.387 114.406 134.306 114.247 134.173 114.139C133.785 113.824 132.728 113.25 131.502 112.585C130.769 112.187 130.012 111.775 129.281 111.357C127.206 110.17 125.317 109.377 122.88 109.377C122.834 109.377 122.787 109.377 122.74 109.378L114.202 108.916C111.903 108.906 110.489 108.504 108.393 107.262C106.398 106.08 105.038 104.498 104.307 103.648C104.184 103.506 104.081 103.385 103.996 103.291C103.993 103.289 103.987 103.281 103.972 103.282C103.965 103.283 103.954 103.287 103.948 103.299L99.0472 112.674C99.7179 113.279 103.307 116.487 107.834 119.969C108.133 120.2 108.265 124.315 108.261 124.352L106.68 138.761L106.684 138.762ZM106.678 138.815V138.82C106.678 138.82 106.678 138.816 106.678 138.815Z" fill="#161616"/>
<path d="M116.35 102.727L115.658 109.565C115.561 110.402 116.196 111.145 117.039 111.178L119.079 111.257C119.904 111.289 120.588 110.625 120.581 109.799L120.531 103.269L116.349 102.727L116.35 102.727Z" fill="white"/>
<path d="M119.139 111.456C119.117 111.456 119.095 111.456 119.073 111.454L117.033 111.375C116.577 111.357 116.145 111.148 115.848 110.802C115.551 110.455 115.411 109.996 115.464 109.542L116.155 102.707C116.16 102.654 116.187 102.606 116.229 102.573C116.271 102.54 116.324 102.525 116.376 102.532L120.558 103.075C120.656 103.087 120.729 103.17 120.73 103.268L120.78 109.798C120.783 110.252 120.606 110.676 120.281 110.992C119.971 111.293 119.568 111.456 119.139 111.456ZM116.528 102.95L115.856 109.587C115.815 109.94 115.918 110.28 116.148 110.547C116.376 110.815 116.697 110.97 117.049 110.983L119.089 111.062C119.434 111.076 119.76 110.951 120.008 110.711C120.255 110.471 120.39 110.149 120.388 109.804L120.34 103.445L116.529 102.951L116.528 102.95Z" fill="#161616"/>
<path d="M119.648 94.3093C118.008 94.5308 117.784 96.3816 115.826 96.5977C114.928 96.6973 114.478 96.3638 113.682 96.7454C113.156 96.998 112.389 97.6072 112.311 98.413C112.21 99.4394 113.336 99.6617 114.486 101.638C115.292 103.026 115.341 103.955 115.983 104.056C116.633 104.158 116.923 103.261 117.641 103.319C118.57 103.394 118.691 104.945 119.671 105.407C120.289 105.699 121.582 105.638 123.41 104.271C123.706 104.05 123.802 103.648 123.637 103.317C123.427 102.893 123.157 102.358 122.857 101.869C121.426 99.5372 120.415 99.1441 120.614 98.429C120.92 97.3341 122.93 97.5378 123.085 96.6564C123.246 95.7412 121.332 94.0816 119.648 94.3093H119.648Z" fill="#161616"/>
<path d="M117.391 98.7678C117.391 98.7678 118.831 101.794 119.383 102.55C119.936 103.306 122.408 101.772 122.408 101.772L122.468 101.227L122.763 101.035C122.855 100.975 122.915 100.877 122.926 100.768C122.937 100.66 122.899 100.551 122.821 100.475C122.225 99.8831 120.961 98.5419 120.346 97.2363C120.346 97.2363 118.675 96.8111 117.391 98.7687V98.7678Z" fill="white"/>
<path d="M119.909 102.955C119.621 102.955 119.377 102.875 119.226 102.667C118.669 101.905 117.274 98.9772 117.214 98.8536C117.185 98.7913 117.19 98.7184 117.228 98.6606C118.574 96.6096 120.323 97.0259 120.397 97.0454C120.454 97.0597 120.502 97.0988 120.527 97.1522C121.137 98.4498 122.433 99.8097 122.962 100.334C123.083 100.455 123.141 100.62 123.124 100.788C123.108 100.957 123.016 101.107 122.874 101.2L122.656 101.341L122.605 101.794C122.599 101.854 122.564 101.908 122.513 101.94C122.18 102.147 120.819 102.955 119.908 102.955L119.909 102.955ZM117.619 98.7851C117.874 99.3161 119.065 101.779 119.545 102.435C119.84 102.838 121.286 102.223 122.225 101.655L122.275 101.206C122.281 101.147 122.314 101.095 122.363 101.063L122.658 100.871C122.7 100.843 122.727 100.8 122.732 100.75C122.738 100.7 122.72 100.651 122.684 100.615C122.024 99.9609 120.841 98.6873 120.213 97.4119C119.878 97.3621 118.646 97.2962 117.618 98.786L117.619 98.7851Z" fill="#161616"/>
<path d="M117.915 101.228C117.915 101.228 116.778 99.8358 116.254 100.487C115.73 101.138 117.02 102.638 117.915 101.228Z" fill="white"/>
<path d="M255.031 181.758L254.573 186.127L251.619 186.473V181.294L255.031 181.758Z" fill="white"/>
<path d="M251.617 186.639C251.623 186.639 251.629 186.639 251.636 186.638L254.59 186.292C254.667 186.283 254.728 186.222 254.736 186.144L255.194 181.776C255.204 181.686 255.141 181.606 255.052 181.594L251.64 181.129C251.592 181.122 251.544 181.137 251.508 181.168C251.472 181.199 251.451 181.245 251.451 181.293V186.473C251.451 186.521 251.471 186.565 251.507 186.597C251.538 186.624 251.577 186.638 251.617 186.638L251.617 186.639ZM254.419 185.977L251.783 186.287V181.484L254.847 181.902L254.419 185.978V185.977Z" fill="#161616"/>
<path d="M251.153 194.079C252.384 194.252 254.402 194.404 256.771 194.076C257.548 193.969 258.063 193.215 257.876 192.454C257.354 190.333 256.455 186.311 254.912 184.447L254.529 185.458L254 184.506C253.927 184.375 253.797 184.287 253.649 184.269L252.489 184.122C252.247 184.091 252.022 184.252 251.972 184.49L251.788 185.368L251.384 184.216L250.035 192.6C249.941 193.317 250.439 193.978 251.154 194.079H251.153Z" fill="white"/>
<path d="M253.944 194.435C254.807 194.435 255.767 194.382 256.793 194.24C257.211 194.182 257.586 193.949 257.823 193.6C258.058 193.254 258.136 192.821 258.035 192.414L257.923 191.956C257.391 189.768 256.5 186.107 255.038 184.34C255 184.295 254.941 184.273 254.883 184.282C254.825 184.292 254.776 184.332 254.755 184.387L254.498 185.064L254.143 184.424C254.045 184.248 253.868 184.128 253.668 184.103L252.509 183.956C252.185 183.915 251.875 184.134 251.808 184.456L251.746 184.752L251.539 184.16C251.514 184.089 251.442 184.043 251.367 184.05C251.292 184.057 251.23 184.114 251.218 184.189L249.87 192.573C249.763 193.383 250.328 194.13 251.13 194.242C251.853 194.344 252.817 194.435 253.945 194.435H253.944ZM254.961 184.781C256.271 186.567 257.099 189.967 257.601 192.035L257.713 192.493C257.792 192.814 257.733 193.141 257.547 193.414C257.364 193.685 257.072 193.866 256.747 193.911C254.418 194.233 252.43 194.09 251.174 193.914C250.552 193.826 250.113 193.246 250.196 192.622L251.44 184.888L251.628 185.422C251.653 185.493 251.722 185.538 251.796 185.533C251.871 185.528 251.932 185.474 251.947 185.402L252.132 184.524C252.164 184.371 252.31 184.266 252.467 184.286L253.626 184.433C253.722 184.445 253.806 184.503 253.853 184.587L254.382 185.539C254.413 185.595 254.475 185.628 254.539 185.624C254.604 185.619 254.659 185.578 254.683 185.517L254.961 184.782V184.781Z" fill="#161616"/>
<path d="M254.57 193.03C255.357 193.03 256.209 192.96 257.058 192.767C257.148 192.747 257.204 192.657 257.183 192.568C257.163 192.478 257.074 192.422 256.984 192.443C254.09 193.102 251.059 192.254 251.029 192.246C250.941 192.22 250.849 192.272 250.824 192.36C250.798 192.448 250.85 192.54 250.938 192.565C251.029 192.591 252.596 193.029 254.57 193.029V193.03Z" fill="#161616"/>
<path d="M255.28 189.782C255.369 189.782 255.442 189.711 255.445 189.622C255.448 189.53 255.377 189.453 255.285 189.45L252.516 189.358C252.425 189.358 252.348 189.427 252.345 189.519C252.342 189.61 252.413 189.687 252.505 189.69L255.274 189.782C255.274 189.782 255.277 189.782 255.28 189.782Z" fill="#161616"/>
<path d="M241.195 179.435L240.752 185.809H237.199L237.033 179.435H241.195Z" fill="white"/>
<path d="M237.197 185.975H240.751C240.838 185.975 240.91 185.907 240.916 185.821L241.359 179.446C241.362 179.4 241.346 179.355 241.315 179.321C241.284 179.288 241.24 179.269 241.194 179.269H237.031C236.987 179.269 236.943 179.286 236.912 179.319C236.881 179.351 236.864 179.394 236.865 179.439L237.031 185.813C237.033 185.903 237.107 185.975 237.197 185.975ZM240.596 185.643H237.359L237.203 179.601H241.017L240.597 185.643H240.596Z" fill="#161616"/>
<path d="M241.687 189.407C241.696 190.01 241.284 190.54 240.697 190.676C238.653 191.152 234.051 192.21 232.738 192.406C231.034 192.659 228.94 192.137 228.039 191.141C227.138 190.144 230.055 187.764 231.439 186.898C233.495 185.612 235.471 183.069 236.299 182.955C237.127 182.841 238.673 185.244 238.673 185.244L241.201 184.182C241.201 184.182 241.641 186.348 241.687 189.407L241.687 189.407Z" fill="white"/>
<path d="M231.845 192.636C232.154 192.636 232.462 192.615 232.761 192.571C234.087 192.373 238.778 191.294 240.732 190.838C241.391 190.685 241.861 190.082 241.851 189.405C241.806 186.366 241.367 184.171 241.362 184.15C241.353 184.101 241.321 184.059 241.277 184.036C241.233 184.013 241.181 184.01 241.136 184.03L238.736 185.038C238.345 184.446 237.097 182.677 236.275 182.791C235.807 182.856 235.136 183.493 234.208 184.373C233.342 185.194 232.362 186.125 231.35 186.757C230.239 187.453 227.888 189.292 227.713 190.54C227.674 190.821 227.742 191.06 227.915 191.251C228.674 192.092 230.283 192.635 231.845 192.635V192.636ZM241.074 184.416C241.18 185.018 241.482 186.927 241.52 189.41C241.527 189.932 241.165 190.397 240.658 190.515C238.707 190.969 234.027 192.046 232.712 192.242C231.004 192.496 229.005 191.964 228.162 191.03C228.057 190.913 228.017 190.768 228.043 190.587C228.19 189.528 230.385 187.754 231.527 187.04C232.567 186.39 233.56 185.447 234.437 184.615C235.22 183.872 235.959 183.171 236.321 183.121C236.847 183.048 237.958 184.44 238.533 185.335C238.577 185.403 238.663 185.43 238.738 185.398L241.075 184.417L241.074 184.416Z" fill="#161616"/>
<path d="M231.872 191.468C235.566 191.468 240.531 189.462 240.811 189.347C240.896 189.312 240.936 189.215 240.902 189.131C240.868 189.046 240.77 189.005 240.686 189.04C240.595 189.077 231.594 192.714 228.944 190.321C228.876 190.26 228.771 190.265 228.709 190.333C228.648 190.401 228.653 190.506 228.721 190.568C229.447 191.223 230.582 191.468 231.872 191.468Z" fill="#161616"/>
<path d="M235.818 187.605C235.863 187.605 235.908 187.586 235.942 187.55C236.003 187.482 235.998 187.377 235.93 187.316L234.122 185.685C234.053 185.624 233.949 185.629 233.887 185.697C233.826 185.765 233.831 185.87 233.899 185.931L235.707 187.562C235.739 187.59 235.779 187.604 235.818 187.604V187.605Z" fill="#161616"/>
<path d="M256.035 137.877C256.035 137.877 257.136 157.805 257.713 164.684C258.289 171.563 256.365 182.621 256.365 182.621L250.879 182.333C250.879 182.333 250.503 168.888 250.095 165.154C250.095 165.154 247.778 160.092 247.091 155.578C246.404 151.064 244.065 143.933 244.065 143.933C244.065 143.933 242.165 179.522 241.982 182.318C241.982 182.318 237.68 182.51 236.138 181.539C236.138 181.539 233.405 168.563 233.798 161.502C234.19 154.442 233.759 136.9 233.759 136.9L256.035 137.877Z" fill="#161616"/>
<path d="M251.11 165.319H252.787C252.879 165.319 252.953 165.244 252.953 165.153C252.953 165.061 252.879 164.986 252.787 164.986H251.11C251.019 164.986 250.944 165.061 250.944 165.153C250.944 165.244 251.019 165.319 251.11 165.319Z" fill="white"/>
<path d="M239.162 175.669C239.162 175.669 239.164 175.669 239.165 175.669C239.257 175.668 239.33 175.592 239.328 175.5C239.268 172.211 235.657 166.313 235.504 166.064C235.456 165.986 235.353 165.962 235.276 166.01C235.197 166.058 235.174 166.16 235.221 166.238C235.258 166.298 238.937 172.308 238.996 175.506C238.998 175.597 239.072 175.669 239.163 175.669H239.162Z" fill="white"/>
<path d="M232.054 104.974C231.666 104.875 229.054 108.499 223.036 107.294C217.019 106.088 213.332 98.4888 213.332 98.4888C213.332 98.4888 211.849 94.6091 210.484 93.0633C209.118 91.5183 208.898 91.3073 208.898 91.3073C208.898 91.3073 208.288 91.8839 208.65 92.7481C209.013 93.6123 210.134 95.3058 210.134 95.3058C210.134 95.3058 208.48 95.8754 208.865 97.7207C209.307 99.8428 211.543 100.063 211.543 100.063C211.543 100.063 212.613 120.68 232.76 114.435L232.054 104.973L232.054 104.974Z" fill="white"/>
<path d="M223.112 115.562C225.925 116.046 229.169 115.724 232.813 114.594C232.887 114.571 232.935 114.5 232.929 114.424L232.224 104.962C232.218 104.891 232.168 104.831 232.099 104.813C231.938 104.773 231.786 104.893 231.417 105.185C230.326 106.049 227.769 108.073 223.072 107.132C217.203 105.956 213.521 98.4923 213.484 98.4172C213.429 98.2708 211.981 94.5044 210.611 92.9549C209.257 91.4217 209.025 91.1974 209.016 91.189C208.953 91.1281 208.851 91.1273 208.787 91.1882C208.759 91.2151 208.098 91.8548 208.5 92.8143C208.802 93.5341 209.6 94.7871 209.892 95.2358C209.441 95.4648 208.378 96.1859 208.705 97.7557C209.101 99.655 210.875 100.114 211.389 100.207C211.482 101.358 212.336 109.523 218.078 113.529C219.559 114.562 221.24 115.24 223.11 115.562L223.112 115.562ZM232.589 114.316C226.682 116.12 221.866 115.765 218.271 113.258C212.25 109.058 211.717 100.145 211.713 100.055C211.708 99.9734 211.644 99.9071 211.563 99.8985C211.477 99.8897 209.442 99.6616 209.031 97.6877C208.682 96.0128 210.131 95.485 210.193 95.4639C210.241 95.4472 210.279 95.4084 210.295 95.3598C210.312 95.3112 210.305 95.2577 210.276 95.215C210.266 95.1981 209.16 93.5253 208.808 92.6848C208.586 92.1573 208.777 91.753 208.911 91.5575C209.086 91.7449 209.488 92.1839 210.363 93.174C211.694 94.6796 213.166 98.5099 213.181 98.5481C213.224 98.638 216.98 106.249 223.008 107.457C223.134 107.482 223.26 107.505 223.384 107.526C227.993 108.319 230.526 106.314 231.625 105.444C231.726 105.364 231.829 105.283 231.911 105.223L232.589 114.315L232.589 114.316Z" fill="#161616"/>
<path d="M262.438 115.21C262.438 115.21 260.597 103.328 254.093 100.405C247.589 97.4813 238.79 97.8884 236.363 99.348C233.937 100.808 227.613 107.409 227.613 107.409L233.201 115.21C233.201 115.21 231.924 136.212 232.933 141.757C232.933 141.757 239.15 142.482 241.787 141.443C244.424 140.405 253.094 138.95 257.238 140.854L256.485 114.264L262.437 115.21H262.438Z" fill="white"/>
<path d="M237.319 142.172C238.971 142.172 240.717 142.042 241.847 141.598C244.443 140.576 253.025 139.102 257.167 141.005C257.219 141.029 257.28 141.025 257.328 140.992C257.376 140.961 257.404 140.907 257.403 140.849L256.655 114.46L262.41 115.375C262.462 115.383 262.515 115.366 262.553 115.328C262.59 115.291 262.608 115.237 262.6 115.185C262.524 114.696 260.67 103.181 254.159 100.254C247.75 97.3726 238.892 97.632 236.276 99.2057C233.859 100.66 227.75 107.024 227.492 107.294C227.436 107.352 227.43 107.441 227.477 107.506L233.031 115.26C232.957 116.499 231.794 136.431 232.769 141.786C232.782 141.858 232.841 141.913 232.913 141.921C233.059 141.938 235.103 142.172 237.319 142.172ZM251.603 139.759C247.672 139.759 243.427 140.618 241.724 141.288C239.358 142.22 233.957 141.698 233.074 141.605C232.119 135.963 233.353 115.428 233.365 115.22C233.368 115.182 233.357 115.144 233.335 115.114L227.826 107.424C228.628 106.593 234.229 100.824 236.447 99.4897C238.731 98.1158 247.515 97.6305 254.023 100.556C259.88 103.189 261.935 113.36 262.233 115.01L256.51 114.101C256.461 114.093 256.411 114.107 256.374 114.14C256.337 114.173 256.317 114.22 256.317 114.27L257.063 140.598C255.592 139.991 253.64 139.76 251.603 139.76V139.759Z" fill="#161616"/>
<path d="M251.522 135.54C251.601 135.54 251.671 135.483 251.685 135.403C251.701 135.313 251.641 135.226 251.55 135.21C241.665 133.463 238.779 126.619 238.752 126.55C238.717 126.465 238.62 126.424 238.535 126.458C238.45 126.493 238.409 126.59 238.444 126.675C238.472 126.745 241.418 133.757 251.493 135.537C251.502 135.538 251.512 135.539 251.522 135.539V135.54Z" fill="#161616"/>
<path d="M261.316 115.256L254.911 112.393C254.911 112.393 255.813 123.245 242.854 118.234C242.854 118.234 243.332 116.839 243.264 115.211C243.196 113.582 242.222 115.158 242.086 116.482C241.949 117.806 238.907 117.268 237.078 116.746C235.25 116.224 232.85 116.566 237.078 118.898C241.307 121.231 242.233 120.19 242.233 120.19C242.233 120.19 247.633 127.747 254.352 126.141C262.616 124.167 261.316 115.255 261.316 115.255V115.256Z" fill="white"/>
<path d="M252.481 126.528C253.105 126.528 253.743 126.458 254.394 126.302C258.741 125.264 260.437 122.304 261.096 120.004C261.806 117.523 261.498 115.324 261.485 115.232C261.476 115.176 261.44 115.127 261.388 115.104L254.983 112.241C254.929 112.217 254.867 112.223 254.819 112.257C254.771 112.292 254.744 112.348 254.749 112.406C254.752 112.446 255.045 116.387 252.463 118.317C250.466 119.81 247.303 119.749 243.063 118.135C243.185 117.725 243.49 116.551 243.434 115.204C243.425 114.996 243.399 114.362 243.014 114.351C243.011 114.351 243.008 114.351 243.005 114.351C242.504 114.351 242.013 115.608 241.925 116.465C241.906 116.645 241.82 116.784 241.662 116.891C240.903 117.405 238.745 117.049 237.128 116.587C236.28 116.345 234.842 116.184 234.596 116.783C234.385 117.295 235.172 118.035 237.002 119.045C240.467 120.956 241.784 120.656 242.203 120.422C242.898 121.33 247.118 126.53 252.481 126.53V126.528ZM261.167 115.369C261.216 115.807 261.388 117.784 260.774 119.923C259.851 123.139 257.677 125.177 254.317 125.98C253.692 126.129 253.077 126.196 252.477 126.196C246.805 126.196 242.42 120.161 242.372 120.094C242.343 120.053 242.296 120.028 242.246 120.025C242.193 120.022 242.147 120.042 242.113 120.08C242.107 120.085 241.158 120.956 237.162 118.753C234.771 117.433 234.882 116.958 234.902 116.908C235.004 116.66 235.979 116.604 237.036 116.905C237.894 117.15 240.774 117.892 241.848 117.165C242.089 117.002 242.226 116.777 242.254 116.498C242.353 115.535 242.841 114.709 243.003 114.682C243 114.688 243.083 114.776 243.102 115.216C243.167 116.793 242.705 118.165 242.7 118.18C242.671 118.264 242.714 118.356 242.797 118.388C247.225 120.101 250.545 120.165 252.663 118.581C255.013 116.823 255.118 113.618 255.093 112.654L261.166 115.369H261.167Z" fill="#161616"/>
<path d="M244.217 94.9891C244.771 95.4961 245.852 96.1141 246.699 95.6876C247.33 95.3701 247.682 94.5478 247.659 93.6055C247.951 93.6294 248.334 93.6085 248.607 93.3677C249.027 92.9964 248.948 92.3128 248.932 91.8633C248.856 89.7901 250.061 89.4718 249.766 88.065C249.534 86.9595 248.666 86.3005 248.503 86.1775C247.683 85.5557 247.128 85.7563 245.749 85.3947C243.429 84.7871 243.356 83.7874 241.827 83.7822C241.739 83.7822 239.659 83.8046 238.953 85.2419C238.379 86.4108 239.049 87.831 239.743 88.5772C240.641 89.5433 241.285 89.0662 242.187 89.8766C243.769 91.2997 242.574 93.4832 244.218 94.9876L244.217 94.9891Z" fill="#161616"/>
<path d="M239.592 91.2903L239.684 91.2113C240.143 90.8155 240.621 90.3563 240.743 89.7628C241.261 87.2394 243.572 86.3232 243.679 88.6401C243.706 89.2246 245.842 89.1948 245.588 89.8083C244.928 91.4089 244.913 90.978 245.845 91.5677C245.951 91.5721 246.056 91.5953 246.155 91.6415C246.633 91.8644 246.803 92.5137 246.533 93.0914C246.369 93.4426 246.081 93.6834 245.774 93.7713V96.3C245.774 97.2475 246.347 98.1011 247.225 98.4604L248.078 98.8093C248.078 98.8093 244.097 101.407 240.057 98.5551L240.596 98.3136C241.545 97.8879 242.169 96.9568 242.201 95.9168L242.206 95.4226C241.935 95.4464 241.671 95.4285 241.428 95.3577C240.298 95.029 239.923 93.7266 240.115 92.1081L239.655 91.8606C239.44 91.7451 239.408 91.4506 239.592 91.2911V91.2903Z" fill="white"/>
<path d="M244.14 100.049C246.439 100.049 248.14 98.965 248.167 98.9478C248.218 98.9143 248.247 98.8546 248.241 98.7928C248.235 98.7316 248.196 98.6779 248.139 98.6548L247.286 98.306C246.467 97.9712 245.939 97.184 245.939 96.2998V93.8897C246.256 93.7622 246.523 93.5028 246.682 93.1613C246.99 92.5016 246.784 91.7516 246.223 91.4907C246.122 91.443 246.012 91.4147 245.896 91.4042C245.742 91.3081 245.615 91.241 245.512 91.1858C245.394 91.1232 245.283 91.0635 245.28 91.0337C245.273 90.9584 245.365 90.746 245.493 90.4515C245.561 90.295 245.643 90.1049 245.74 89.8715C245.786 89.7604 245.784 89.6486 245.735 89.548C245.607 89.2848 245.194 89.1693 244.717 89.0351C244.372 88.9382 243.851 88.7921 243.843 88.6325C243.784 87.3562 243.117 87.1669 242.833 87.1445C242.017 87.0812 240.923 88.0503 240.579 89.7291C240.466 90.2786 240.001 90.7176 239.574 91.0852L239.482 91.1642C239.354 91.2745 239.288 91.4408 239.307 91.6092C239.325 91.7777 239.425 91.9253 239.574 92.0058L239.936 92.1997C239.75 93.9881 240.274 95.1935 241.38 95.5156C241.583 95.5745 241.804 95.6013 242.037 95.5969L242.034 95.9144C242.003 96.8806 241.411 97.764 240.526 98.1613L239.987 98.4029C239.933 98.4275 239.896 98.4789 239.89 98.5385C239.884 98.5982 239.911 98.6556 239.959 98.6899C241.414 99.7172 242.869 100.049 244.14 100.049H244.14ZM247.696 98.833C246.747 99.331 243.597 100.67 240.394 98.584L240.661 98.464C241.662 98.0152 242.33 97.017 242.365 95.9211L242.369 95.4232C242.369 95.3762 242.351 95.3315 242.316 95.2994C242.281 95.2673 242.235 95.2517 242.188 95.2562C241.927 95.2793 241.686 95.2599 241.471 95.1973C240.513 94.9185 240.078 93.7995 240.276 92.1266C240.284 92.0588 240.25 91.9932 240.189 91.9611L239.729 91.7136C239.676 91.6845 239.641 91.6338 239.635 91.5735C239.628 91.5131 239.65 91.4557 239.697 91.4162L239.788 91.3371C240.257 90.9338 240.768 90.4478 240.901 89.7962C241.2 88.3425 242.128 87.4226 242.805 87.4755C243.22 87.5083 243.476 87.9355 243.509 88.6482C243.528 89.0478 244.061 89.1976 244.625 89.3556C244.94 89.4436 245.372 89.5651 245.435 89.6941C245.438 89.7015 245.444 89.7135 245.431 89.7455C245.336 89.9766 245.254 90.1652 245.186 90.3203C244.874 91.0389 244.809 91.1888 245.354 91.4803C245.46 91.5369 245.592 91.6078 245.753 91.7091C245.778 91.7248 245.806 91.7337 245.835 91.7345C245.924 91.7382 246.006 91.7576 246.081 91.7926C246.475 91.9768 246.609 92.5277 246.379 93.0219C246.244 93.3134 245.998 93.5341 245.725 93.6124C245.654 93.6325 245.605 93.6981 245.605 93.7719V96.2998C245.605 97.3197 246.214 98.2277 247.158 98.6138L247.696 98.8338L247.696 98.833Z" fill="#161616"/>
<path d="M242.202 95.5874C242.21 95.5874 242.219 95.5874 242.227 95.5852C243.856 95.3354 244.588 94.0919 244.619 94.0398C244.664 93.9607 244.637 93.8594 244.557 93.8131C244.478 93.7677 244.377 93.7945 244.331 93.8735C244.324 93.8847 243.643 95.032 242.177 95.2571C242.086 95.2713 242.024 95.3555 242.038 95.4465C242.051 95.5285 242.122 95.5874 242.202 95.5874H242.202Z" fill="#161616"/>
<path d="M244.227 158.485C244.227 183.068 224.298 202.997 199.715 202.997C175.132 202.997 155.203 183.068 155.203 158.485C155.203 133.902 175.132 113.974 199.715 113.974C224.298 113.974 244.227 133.902 244.227 158.485Z" fill="white" stroke="#161616" stroke-width="0.5"/>
<path d="M232.207 144.759C230.43 140.559 227.888 136.789 224.651 133.55C221.412 130.313 217.643 127.769 213.442 125.995C209.094 124.155 204.476 123.224 199.715 123.224C194.955 123.224 190.338 124.155 185.988 125.995C181.788 127.771 178.018 130.313 174.78 133.55C171.543 136.787 168.999 140.559 167.224 144.759C165.385 149.107 164.453 153.725 164.453 158.486C164.453 163.246 165.385 167.863 167.224 172.213C169.001 176.413 171.543 180.183 174.78 183.422C178.018 186.659 181.788 189.203 185.988 190.977C190.336 192.817 194.955 193.748 199.715 193.748C204.476 193.748 209.092 192.815 213.442 190.977C217.643 189.201 221.412 186.659 224.651 183.422C227.888 180.185 230.432 176.413 232.207 172.213C234.046 167.865 234.978 163.246 234.978 158.486C234.978 153.725 234.044 149.109 232.207 144.759ZM182.578 157.398C182.578 154.637 182.893 151.935 183.515 149.314H197.943V166.087H183.63C182.931 163.233 182.578 160.325 182.578 157.398ZM208.571 134.213C211.117 137.192 213.146 140.434 214.597 143.853C214.866 144.482 215.11 145.12 215.339 145.763H201.492V127.674C203.154 128.868 205.861 131.043 208.571 134.213ZM197.943 128.022V145.763H184.563C184.782 145.146 185.019 144.532 185.274 143.926C186.713 140.517 188.722 137.282 191.248 134.31C193.733 131.385 196.242 129.287 197.943 128.022ZM197.943 169.633V188.674C196.255 187.209 193.82 184.868 191.384 181.732C188.821 178.43 186.778 174.923 185.317 171.309C185.092 170.752 184.881 170.194 184.684 169.633H197.943ZM201.492 189.072V169.633H215.219C215.029 170.172 214.828 170.709 214.613 171.244C213.164 174.848 211.137 178.345 208.591 181.641C205.907 185.115 203.197 187.636 201.492 189.072ZM201.492 166.085V149.312H216.389C217.011 151.933 217.327 154.635 217.327 157.396C217.327 160.323 216.973 163.231 216.277 166.085H201.494H201.492ZM220.027 149.312H230.091C230.973 152.249 231.431 155.332 231.431 158.484C231.431 161.079 231.119 163.627 230.517 166.085H219.918C220.554 163.227 220.874 160.321 220.874 157.396C220.874 154.643 220.587 151.943 220.025 149.312H220.027ZM222.143 136.059C224.985 138.901 227.219 142.189 228.786 145.763H219.085C218.73 144.648 218.325 143.549 217.866 142.465C216.273 138.711 214.052 135.159 211.269 131.906C209.831 130.222 208.394 128.799 207.085 127.629C212.74 128.969 217.931 131.847 222.143 136.061V136.059ZM177.292 136.059C181.66 131.691 187.08 128.756 192.977 127.485C191.627 128.683 190.131 130.153 188.633 131.904C185.85 135.159 183.632 138.711 182.037 142.463C181.577 143.545 181.172 144.646 180.817 145.761H170.647C172.212 142.187 174.448 138.899 177.29 136.057L177.292 136.059ZM169.344 149.312H179.878C179.315 151.943 179.029 154.645 179.029 157.396C179.029 160.321 179.349 163.227 179.984 166.085H168.916C168.314 163.627 168.002 161.079 168.002 158.484C168.002 155.332 168.46 152.249 169.342 149.312H169.344ZM177.292 180.909C174.037 177.655 171.58 173.818 170.013 169.633H180.945C181.267 170.644 181.626 171.647 182.029 172.639C183.614 176.557 185.818 180.349 188.584 183.909C190.39 186.234 192.19 188.149 193.735 189.635C187.544 188.459 181.847 185.462 177.294 180.909H177.292ZM222.143 180.909C217.735 185.316 212.256 188.265 206.294 189.516C207.81 188.048 209.564 186.173 211.321 183.909C214.086 180.349 216.291 176.557 217.875 172.639C218.278 171.645 218.637 170.642 218.959 169.633H229.422C227.853 173.818 225.395 177.655 222.143 180.909Z" fill="#161616"/>
<path d="M275.558 84.627L275.558 84.6272C275.559 84.6314 275.559 84.6355 275.557 84.6389L275.544 84.6444C272.8 85.7835 269.925 86.3592 267.002 86.3592C260.71 86.3592 255.854 84.3484 251.668 80.0266C249.339 77.5913 247.618 74.8135 246.54 71.7623L246.422 71.4289H246.068H241.041C241.038 71.4289 241.036 71.4284 241.034 71.4278C241.033 71.427 241.031 71.4257 241.029 71.4238C241.027 71.4218 241.025 71.4197 241.025 71.418C241.024 71.4166 241.023 71.4147 241.023 71.4114V65.6487C241.023 65.6454 241.024 65.6435 241.025 65.6421C241.025 65.6404 241.027 65.6383 241.029 65.6364C241.031 65.6344 241.033 65.6331 241.034 65.6324C241.036 65.6318 241.038 65.6312 241.041 65.6312H244.732H245.262L245.231 65.1018C245.205 64.6622 245.183 64.166 245.183 63.6622C245.183 63.0703 245.208 62.4456 245.262 61.767L245.304 61.228H244.763H241.041C241.038 61.228 241.036 61.2274 241.034 61.2268C241.033 61.2261 241.031 61.2248 241.029 61.2228C241.027 61.2209 241.025 61.2188 241.025 61.2171C241.024 61.2157 241.023 61.2137 241.023 61.2104V55.4478C241.023 55.4445 241.024 55.4426 241.025 55.4412C241.025 55.4394 241.027 55.4374 241.029 55.4354C241.031 55.4335 241.033 55.4322 241.034 55.4314C241.036 55.4308 241.038 55.4303 241.041 55.4303H246.234H246.58L246.702 55.1068C247.602 52.7215 248.914 50.4484 250.609 48.3478C254.954 42.9902 260.301 40.5 267.504 40.5C270.362 40.5 272.425 41.1301 274.872 42.1687C274.877 42.1709 274.88 42.1732 274.881 42.1747C274.882 42.1753 274.882 42.1759 274.883 42.1765C274.883 42.1773 274.884 42.1781 274.884 42.179C274.885 42.182 274.886 42.1875 274.882 42.1952C274.882 42.1952 274.882 42.1953 274.882 42.1953L272.288 47.885L272.288 47.8858C272.287 47.8878 272.286 47.889 272.285 47.8899C272.284 47.891 272.282 47.8923 272.28 47.8933C272.278 47.8943 272.275 47.8947 272.273 47.8948C272.273 47.8948 272.272 47.8948 272.272 47.8947C272.27 47.8947 272.269 47.8943 272.267 47.8936C270.562 47.2607 268.81 46.9372 267.059 46.9372C264.781 46.9372 262.822 47.275 261.061 48.0242C259.298 48.7738 257.761 49.9241 256.312 51.5131C255.407 52.4934 254.629 53.5572 253.987 54.6849L253.563 55.432H254.422H265.393C265.397 55.432 265.398 55.4326 265.4 55.4332C265.401 55.4335 265.402 55.434 265.403 55.4347C265.404 55.4353 265.405 55.4361 265.406 55.4372C265.408 55.4391 265.409 55.4412 265.41 55.4429C265.41 55.4443 265.411 55.4462 265.411 55.4495V61.2122C265.411 61.2155 265.41 61.2174 265.41 61.2188C265.409 61.2206 265.408 61.2226 265.406 61.2246C265.404 61.2265 265.402 61.2278 265.4 61.2286C265.399 61.2288 265.398 61.2291 265.397 61.2293C265.396 61.2296 265.395 61.2297 265.393 61.2297H252.354H251.901L251.856 61.6801C251.787 62.3759 251.754 62.9973 251.754 63.6065C251.754 64.1031 251.778 64.6203 251.822 65.1746L251.859 65.6347H252.321H265.393C265.397 65.6347 265.398 65.6353 265.4 65.6359C265.402 65.6366 265.404 65.6379 265.406 65.6398C265.408 65.6418 265.409 65.6439 265.41 65.6456C265.41 65.647 265.411 65.6489 265.411 65.6522V71.4149C265.411 71.4182 265.41 71.4201 265.41 71.4215C265.409 71.4232 265.408 71.4253 265.406 71.4273C265.404 71.4292 265.402 71.4305 265.4 71.4312C265.398 71.4318 265.397 71.4324 265.393 71.4324H254.298H253.449L253.861 72.1752C254.528 73.376 255.351 74.5001 256.312 75.5245L256.662 75.1967L256.312 75.5245C259.247 78.6502 262.497 79.9847 267.089 79.9847C269.329 79.9847 271.285 79.6027 272.884 78.8273C273.311 78.6413 273.733 78.4293 274.159 78.1904L274.159 78.1904C274.162 78.1887 274.167 78.1877 274.173 78.1905L274.178 78.1925C274.178 78.1926 274.178 78.1931 274.18 78.1944C274.181 78.1965 274.183 78.1996 274.184 78.2036C274.184 78.2037 274.184 78.2037 274.184 78.2038L275.558 84.627Z" fill="white" stroke="#161616"/>
<path d="M178.213 72.3149H177.713V72.8149V87.6894C177.713 87.6927 177.713 87.6946 177.712 87.696C177.712 87.6978 177.71 87.6998 177.708 87.7018C177.708 87.7023 177.707 87.7028 177.707 87.7033C177.705 87.7044 177.704 87.7053 177.702 87.7058C177.701 87.7064 177.699 87.707 177.696 87.707H171.499C171.496 87.707 171.494 87.7064 171.493 87.7058C171.491 87.705 171.489 87.7038 171.487 87.7018C171.485 87.6998 171.484 87.6978 171.483 87.696C171.482 87.6946 171.482 87.6927 171.482 87.6894V72.8149V72.3149H170.982H158.848C158.845 72.3149 158.843 72.3143 158.842 72.3137C158.84 72.313 158.838 72.3117 158.836 72.3098C158.834 72.3078 158.833 72.3057 158.832 72.304C158.831 72.3026 158.831 72.3007 158.831 72.2974V67.6134C158.831 67.6101 158.831 67.6082 158.832 67.6068C158.833 67.605 158.834 67.603 158.836 67.601C158.838 67.599 158.84 67.5977 158.842 67.597C158.843 67.5964 158.845 67.5958 158.848 67.5958H170.053H170.899L170.491 66.8548L168.405 63.063L168.263 62.804H167.967H158.848C158.845 62.804 158.843 62.8035 158.842 62.8029C158.84 62.8021 158.838 62.8008 158.836 62.7989C158.834 62.7969 158.833 62.7948 158.832 62.7931C158.831 62.7917 158.831 62.7898 158.831 62.7865V58.1025C158.831 58.0992 158.831 58.0973 158.832 58.0959C158.833 58.0941 158.834 58.0921 158.836 58.0901C158.838 58.0881 158.84 58.0868 158.842 58.0861C158.843 58.0855 158.845 58.0849 158.848 58.0849H164.829H165.674L165.267 57.3442L157.721 43.6061C157.721 43.606 157.721 43.6059 157.721 43.6058C157.72 43.6032 157.719 43.5999 157.719 43.596C157.719 43.592 157.72 43.5887 157.721 43.5863L157.721 43.5863L157.723 43.5842C157.724 43.5822 157.725 43.581 157.727 43.5801C157.728 43.5791 157.731 43.5781 157.735 43.5781H164.959C164.961 43.5781 164.963 43.5784 164.966 43.5804C164.97 43.5824 164.972 43.5852 164.974 43.5882C164.974 43.5883 164.974 43.5883 164.974 43.5883L174.147 60.381L174.583 61.1808L175.023 60.3826L184.278 43.5878L184.279 43.5866C184.28 43.5843 184.282 43.5822 184.285 43.5805C184.288 43.5788 184.29 43.5781 184.293 43.5781H191.518C191.52 43.5781 191.524 43.5788 191.527 43.5808C191.531 43.5828 191.532 43.585 191.533 43.5863C191.536 43.5917 191.536 43.5982 191.534 43.6024L191.533 43.6035L183.96 57.3436L183.551 58.0849H184.398H190.404C190.408 58.0849 190.41 58.0855 190.411 58.0861C190.413 58.0868 190.415 58.0881 190.417 58.0901C190.419 58.0921 190.42 58.0941 190.421 58.0959C190.421 58.0973 190.422 58.0992 190.422 58.1025V62.7865C190.422 62.7898 190.421 62.7917 190.421 62.7931C190.421 62.7934 190.42 62.7938 190.42 62.7941C190.419 62.7956 190.418 62.7973 190.417 62.7989C190.415 62.8008 190.413 62.8021 190.411 62.8029C190.41 62.8035 190.408 62.804 190.404 62.804H181.256H180.962L180.819 63.061L178.71 66.8528L178.297 67.5958H179.147H190.404C190.405 67.5958 190.405 67.5958 190.406 67.5959C190.408 67.596 190.41 67.5965 190.411 67.597C190.413 67.5977 190.415 67.599 190.417 67.601C190.419 67.603 190.42 67.605 190.421 67.6068C190.421 67.6082 190.422 67.6101 190.422 67.6134V72.2974C190.422 72.3007 190.421 72.3026 190.421 72.304C190.42 72.3057 190.419 72.3078 190.417 72.3098C190.415 72.3117 190.413 72.313 190.411 72.3137C190.41 72.3143 190.408 72.3149 190.404 72.3149H178.213Z" fill="white" stroke="#161616"/>
<path d="M216.751 66.9749L216.752 66.9744C218.169 67.8452 219.228 68.6862 219.924 69.4686L219.924 69.4687L219.93 69.4762C221.923 71.6266 222.939 74.3331 222.939 77.3403C222.939 80.358 222.023 83.0453 220.218 85.3454L220.217 85.3459C218.506 87.5312 216.215 89.0581 213.387 89.8843L213.027 89.9894V90.3642V95.4874C213.027 95.4907 213.027 95.4926 213.026 95.494C213.026 95.4957 213.024 95.4978 213.022 95.4998C213.02 95.5017 213.018 95.503 213.017 95.5037C213.015 95.5043 213.013 95.5049 213.01 95.5049H208.347C208.343 95.5049 208.342 95.5043 208.34 95.5037C208.338 95.503 208.336 95.5017 208.334 95.4998C208.332 95.4978 208.331 95.4957 208.33 95.494C208.33 95.4926 208.329 95.4907 208.329 95.4874V90.5664V90.149L207.919 90.0744C204.62 89.4751 202.096 88.2754 200.367 86.5465C198.567 84.7465 197.191 81.9145 196.313 78.0676C196.312 78.0633 196.312 78.0599 196.313 78.0576C196.313 78.0551 196.314 78.0531 196.315 78.0513C196.318 78.0468 196.322 78.045 196.324 78.0445L196.326 78.0441L202.188 76.8191L202.189 76.8188C202.192 76.8183 202.193 76.8184 202.194 76.8186C202.196 76.8188 202.198 76.8194 202.2 76.8207C202.202 76.8219 202.203 76.8234 202.205 76.825C202.206 76.8263 202.207 76.8281 202.208 76.8311C202.986 79.4633 203.958 81.4306 205.134 82.6062L205.142 82.6145L205.151 82.6224C206.353 83.7166 208.023 84.253 209.945 84.253C211.894 84.253 213.51 83.639 214.836 82.3658C216.147 81.1075 216.775 79.5168 216.775 77.5547C216.775 75.8165 216.257 74.4142 215.155 73.3298L215.156 73.3297L215.146 73.321C214.597 72.807 213.771 72.2214 212.721 71.5871L212.721 71.5868C211.647 70.9395 210.26 70.2268 208.605 69.4693L208.602 69.4678C205.06 67.8797 202.871 66.4767 201.805 65.2016L201.8 65.1956L201.795 65.1897C200.089 63.2748 199.217 60.9377 199.217 58.2367C199.217 56.9559 199.425 55.7538 199.831 54.6608L199.831 54.6602C200.237 53.5629 200.834 52.5517 201.605 51.6575L201.605 51.6574C202.372 50.7681 203.336 49.9803 204.474 49.3224L204.224 48.8896L204.474 49.3224C205.504 48.727 206.676 48.2421 207.965 47.8773L208.329 47.7744V47.3962V42.5693C208.329 42.566 208.33 42.5641 208.33 42.5627C208.331 42.5609 208.332 42.5589 208.334 42.5569C208.336 42.5549 208.338 42.5537 208.34 42.5529C208.342 42.5523 208.343 42.5518 208.347 42.5518H213.01C213.013 42.5518 213.015 42.5523 213.017 42.5529C213.018 42.5537 213.02 42.5549 213.022 42.5569C213.024 42.5589 213.026 42.5609 213.026 42.5627C213.027 42.5641 213.027 42.566 213.027 42.5693V47.3579V47.7722L213.435 47.8491C215.354 48.2121 216.937 48.8924 218.164 49.8575L218.164 49.8576C219.472 50.8866 220.76 52.5006 221.978 54.6849L221.978 54.6855C221.979 54.6864 221.979 54.6872 221.979 54.688C221.98 54.6895 221.98 54.6908 221.98 54.6918C221.981 54.6937 221.98 54.6961 221.98 54.6988C221.979 54.7015 221.978 54.7035 221.977 54.705C221.976 54.7055 221.976 54.706 221.975 54.7065C221.974 54.7073 221.973 54.7081 221.972 54.709L216.778 57.6122C216.778 57.6123 216.778 57.6124 216.778 57.6125C216.775 57.6141 216.771 57.6151 216.768 57.6154C216.765 57.6158 216.764 57.6154 216.763 57.6152C216.757 57.6135 216.754 57.6102 216.752 57.607C215.216 54.8161 213.218 53.3524 210.638 53.3524C209.089 53.3524 207.806 53.7955 206.76 54.7329L206.76 54.7333C205.731 55.6575 205.221 56.8 205.221 58.1844C205.221 59.4351 205.627 60.4737 206.468 61.3156C207.309 62.1557 209.002 63.1296 211.418 64.216C213.569 65.1935 215.359 66.1214 216.751 66.9749ZM222.216 55.1454C222.465 55.0059 222.554 54.6905 222.414 54.4414C221.177 52.2231 219.851 50.5485 218.473 49.4646L222.216 55.1454Z" fill="white" stroke="#161616"/>
<path d="M127.532 80.2647L127.531 80.2643L122.22 77.0667L122.219 77.0665C122.216 77.0644 122.211 77.0638 122.208 77.0648C122.206 77.0652 122.204 77.0658 122.203 77.0667C122.202 77.0673 122.201 77.0679 122.2 77.0687C122.197 77.0706 122.195 77.0727 122.194 77.0745C121.724 77.8819 121.288 78.572 120.898 79.1268L120.898 79.1275C120.52 79.6628 120.16 80.0985 119.83 80.4091L119.83 80.4095C119.225 80.9775 118.517 81.2612 117.699 81.2612C116.598 81.2612 114.875 80.7671 112.614 79.8606C112.516 79.8251 112.415 79.7887 112.312 79.7515C111.978 79.6307 111.62 79.5013 111.236 79.3638L111.236 79.3636C110.741 79.1853 110.193 78.9945 109.588 78.7855L109.156 78.636L109.266 78.1924C109.754 76.229 109.978 74.9052 109.978 74.1116C109.978 73.4557 109.797 72.3466 109.395 70.6923L109.244 70.0742H109.881H115.901C115.904 70.0742 115.906 70.0736 115.908 70.073C115.909 70.0726 115.91 70.072 115.911 70.0712C115.912 70.0706 115.913 70.0699 115.913 70.069C115.915 70.0671 115.917 70.065 115.917 70.0633C115.918 70.0619 115.919 70.06 115.919 70.0567V65.4023C115.919 65.399 115.918 65.3971 115.917 65.3957C115.917 65.3947 115.916 65.3937 115.916 65.3927C115.915 65.3918 115.914 65.3908 115.913 65.3899C115.911 65.3879 115.909 65.3867 115.908 65.3859C115.906 65.3853 115.904 65.3847 115.901 65.3847H107.606H107.308L107.166 65.1218C107.156 65.1031 107.155 65.1008 107.153 65.0977C107.151 65.0944 107.148 65.0902 107.134 65.0635C107.086 64.9786 107.049 64.9157 107.018 64.8693L107.007 64.8528L106.997 64.8354C105.035 61.315 103.982 58.5016 103.982 56.5222C103.982 54.2055 104.703 52.3256 106.206 50.8218C107.707 49.3028 109.579 48.5728 111.876 48.5728C113.408 48.5728 114.733 48.8727 115.84 49.5093C116.949 50.1477 117.806 51.1053 118.43 52.3635C119.095 53.6768 119.398 55.9536 119.398 59.0367C119.398 59.0385 119.399 59.0411 119.4 59.0446C119.402 59.0477 119.405 59.0507 119.408 59.0531C119.412 59.0558 119.417 59.0558 119.42 59.0545L119.421 59.0541L125.961 56.6267L125.961 56.6267C125.965 56.6254 125.968 56.6232 125.97 56.6197C125.973 56.6163 125.973 56.6134 125.973 56.6111C125.973 52.396 124.627 48.948 122.002 46.3228L121.998 46.319L121.998 46.319C119.384 43.648 116.002 42.2871 111.905 42.2871C107.808 42.2871 104.326 43.633 101.442 46.2905C98.5882 48.954 97.1527 52.2068 97.1527 55.982C97.1527 58.376 97.9469 61.293 99.5626 64.6726L99.9047 65.3882H99.1115H94.7725C94.7692 65.3882 94.7673 65.3888 94.7659 65.3894C94.7642 65.3901 94.7621 65.3914 94.7601 65.3934C94.7582 65.3954 94.7569 65.3974 94.7561 65.3991C94.7555 65.4006 94.755 65.4025 94.755 65.4058V70.0601C94.755 70.0635 94.7555 70.0654 94.7561 70.0668C94.7569 70.0685 94.7582 70.0706 94.7601 70.0725C94.7621 70.0745 94.7642 70.0758 94.7659 70.0765C94.7673 70.0771 94.7692 70.0777 94.7725 70.0777H101.997H102.308L102.446 70.3564C103.007 71.494 103.295 72.6811 103.295 73.8868C103.295 75.069 103.093 76.2821 102.708 77.636L102.619 77.9508L102.294 77.9946C100.389 78.2524 98.8666 78.8539 97.7413 79.7497L97.7335 79.7559L97.7334 79.7558C96.7074 80.5394 95.3254 82.2956 93.5029 85.2151L93.0787 84.9503M127.532 80.2647L110.285 86.5413C107.162 85.3441 104.977 84.7412 103.771 84.7412C102.851 84.7412 102.124 84.9521 101.612 85.3685M127.532 80.2647L127.54 80.2699L127.542 80.2707C127.543 80.2716 127.544 80.2724 127.545 80.2731C127.545 80.2736 127.546 80.2741 127.546 80.2745C127.547 80.2756 127.548 80.2771 127.548 80.2789C127.549 80.2808 127.549 80.2826 127.549 80.2842C127.549 80.2855 127.549 80.2874 127.547 80.2902L127.547 80.2911C126.257 83.0431 124.843 84.9557 123.371 86.0374L123.368 86.0401C121.862 87.1682 119.985 87.7542 117.764 87.7542C116.181 87.7542 113.804 87.2187 110.455 86.0712L127.532 80.2647ZM93.0787 84.9503L93.5038 85.2137C93.4993 85.2208 93.5001 85.2252 93.5001 85.2253L93.5016 85.2307L93.5016 85.2307C93.5018 85.2311 93.5023 85.2321 93.5036 85.2337C93.5055 85.236 93.5085 85.2386 93.5122 85.2406C93.5124 85.2407 93.5126 85.2408 93.5128 85.2409L99.2201 88.1224C99.2202 88.1225 99.2203 88.1225 99.2204 88.1226C99.2257 88.1251 99.2293 88.1254 99.23 88.1254L99.2301 88.1263L99.2354 88.1244L99.2354 88.1244C99.242 88.1222 99.2442 88.1187 99.2449 88.1174L99.2456 88.1158C99.9695 86.5968 100.653 85.5036 101.297 84.9806C101.297 84.9805 101.297 84.9805 101.297 84.9804L101.612 85.3685M93.0787 84.9503C94.8997 82.0333 96.3234 80.2036 97.4299 79.3585L93.2844 85.6857C93.1554 85.6195 93.0578 85.5027 93.0195 85.3633C92.9794 85.2239 93.0021 85.074 93.0787 84.9503ZM101.612 85.3685C101.065 85.8129 100.422 86.8096 99.697 88.3309C99.6377 88.4564 99.5297 88.5522 99.3973 88.5975L101.612 85.3685Z" fill="white" stroke="#161616"/>
<path d="M292.83 127.788C292.83 127.788 293.808 131.145 279.21 131.963C264.612 132.781 267.054 128.629 267.054 128.629L282.38 124.159L292.83 127.788Z" fill="#161616"/>
<path d="M278.233 180.436L278.419 187.331L280.851 187.595L282.055 180.174L278.233 180.436Z" fill="white"/>
<path d="M280.858 187.955C281.033 187.955 281.185 187.828 281.213 187.652L282.417 180.231C282.435 180.123 282.402 180.012 282.327 179.93C282.253 179.849 282.146 179.805 282.036 179.814L278.213 180.075C278.021 180.089 277.872 180.251 277.878 180.445L278.062 187.341C278.067 187.522 278.204 187.671 278.383 187.69L280.817 187.953C280.83 187.953 280.843 187.955 280.855 187.955H280.858ZM281.633 180.564L280.556 187.199L278.777 187.007L278.61 180.772L281.633 180.565V180.564Z" fill="#161616"/>
<path d="M264.424 182.7L264.035 188.192L267.251 188.456L268.398 182.7H264.424Z" fill="white"/>
<path d="M267.257 188.817C267.428 188.817 267.577 188.697 267.611 188.527L268.759 182.771C268.779 182.665 268.753 182.555 268.683 182.472C268.615 182.39 268.513 182.341 268.405 182.341H264.431C264.241 182.341 264.085 182.487 264.071 182.677L263.684 188.169C263.67 188.365 263.817 188.537 264.014 188.553L267.229 188.817C267.24 188.817 267.249 188.817 267.259 188.817H267.257ZM267.966 183.061L266.968 188.071L264.428 187.863L264.767 183.061H267.966Z" fill="#161616"/>
<path d="M268.119 190.822C268.342 190.674 268.477 190.423 268.484 190.155C268.505 189.349 268.508 187.633 268.183 186.987C267.752 186.13 265.974 187.324 265.974 187.324C265.974 187.324 264.934 185.88 264.325 185.577C264.01 185.42 262.165 186.649 260.305 188.325C258.266 190.162 257.346 190.748 256.907 192.331C256.701 193.073 257.246 193.822 258.015 193.877C259.887 194.011 263.665 193.786 268.119 190.821V190.822Z" fill="white"/>
<path d="M258.844 194.267C260.93 194.267 264.374 193.754 268.324 191.122C268.644 190.909 268.841 190.551 268.851 190.165C268.881 189.009 268.847 187.491 268.511 186.825C268.391 186.586 268.188 186.423 267.928 186.355C267.327 186.198 266.518 186.586 266.072 186.845C265.721 186.388 265.008 185.513 264.492 185.256C263.672 184.849 260.436 187.729 260.069 188.059C259.748 188.348 259.455 188.606 259.188 188.842C257.754 190.105 256.963 190.8 256.565 192.236C256.439 192.689 256.525 193.173 256.799 193.562C257.078 193.957 257.513 194.204 257.994 194.239C258.244 194.257 258.528 194.269 258.843 194.269L258.844 194.267ZM267.62 187.038C267.666 187.038 267.709 187.043 267.746 187.053C267.807 187.07 267.841 187.096 267.867 187.151C268.07 187.553 268.168 188.674 268.131 190.148C268.126 190.3 268.049 190.441 267.925 190.523C263.556 193.433 259.861 193.65 258.047 193.52C257.784 193.501 257.544 193.365 257.389 193.147C257.24 192.936 257.194 192.676 257.26 192.431C257.602 191.201 258.248 190.633 259.664 189.384C259.933 189.148 260.229 188.887 260.551 188.596C262.399 186.93 263.851 186.022 264.224 185.934C264.622 186.178 265.322 187.031 265.687 187.537C265.801 187.694 266.018 187.734 266.18 187.626C266.572 187.364 267.231 187.04 267.617 187.04L267.62 187.038Z" fill="#161616"/>
<path d="M259.757 192.795C261.732 192.795 264.899 192.316 268.021 189.82C268.176 189.696 268.202 189.47 268.077 189.313C267.953 189.158 267.727 189.132 267.57 189.257C262.874 193.008 257.975 191.918 257.926 191.907C257.734 191.861 257.538 191.983 257.492 192.177C257.447 192.37 257.568 192.564 257.762 192.61C257.842 192.629 258.59 192.796 259.756 192.796L259.757 192.795Z" fill="#161616"/>
<path d="M277.277 189.008L277.313 185.231C277.313 185.231 278.069 184.086 279.105 185.017C279.105 185.017 280.064 183.671 281.843 185.348C281.843 185.348 284.348 190.021 285.455 192.799C285.753 193.543 285.222 194.358 284.422 194.377C283.272 194.404 281.786 194.341 281.139 193.904C280.128 193.219 278.395 191.061 277.641 190.087C277.401 189.778 277.273 189.398 277.277 189.006V189.008Z" fill="white"/>
<path d="M283.975 194.745C284.124 194.745 284.278 194.743 284.438 194.739C284.929 194.727 285.383 194.475 285.655 194.066C285.929 193.651 285.982 193.129 285.799 192.666C284.695 189.9 282.194 185.225 282.169 185.179C282.151 185.145 282.127 185.114 282.098 185.087C281.372 184.402 280.669 184.089 280 184.155C279.586 184.197 279.279 184.379 279.08 184.54C278.773 184.342 278.455 184.262 278.132 184.303C277.461 184.389 277.061 184.969 277.018 185.034C276.98 185.092 276.959 185.16 276.959 185.229L276.924 189.005C276.919 189.476 277.076 189.94 277.363 190.312C278.261 191.468 279.92 193.512 280.944 194.205C281.475 194.564 282.493 194.746 283.975 194.746V194.745ZM281.561 185.572C281.839 186.094 284.102 190.363 285.129 192.934C285.226 193.18 285.2 193.447 285.053 193.668C284.91 193.884 284.68 194.012 284.422 194.018C282.886 194.052 281.795 193.907 281.349 193.607C280.373 192.946 278.635 190.773 277.934 189.868C277.745 189.624 277.643 189.32 277.646 189.011L277.68 185.356C277.774 185.245 277.975 185.049 278.228 185.018C278.431 184.992 278.647 185.083 278.872 185.285C278.949 185.353 279.051 185.386 279.153 185.376C279.255 185.364 279.348 185.31 279.407 185.226C279.415 185.216 279.65 184.908 280.083 184.871C280.514 184.834 281.022 185.075 281.561 185.572Z" fill="#161616"/>
<path d="M279.108 187.415C279.308 187.415 279.469 187.254 279.469 187.054V185.019C279.469 184.819 279.309 184.658 279.109 184.658C278.91 184.658 278.748 184.819 278.748 185.019V187.054C278.748 187.254 278.908 187.415 279.108 187.415Z" fill="#161616"/>
<path d="M263.444 183.01C263.444 183.01 262.527 169.145 264.031 156.674C265.537 144.203 271.135 126.392 271.135 126.392C271.135 126.392 277.16 126.119 281.544 126.709C285.93 127.299 287.665 126.693 287.665 126.693C287.665 126.693 290.938 130.445 290.672 137.499C290.404 144.554 282.766 174.311 283.056 181.294C283.056 181.294 280.487 182.587 277.16 181.944L278.539 141.839C278.539 141.839 275.685 150.095 274.345 155.751C273.253 160.361 271.359 163.345 271.359 163.345C271.359 163.345 271.439 174.063 268.982 182.959C268.982 182.959 266.08 183.868 263.442 183.009L263.444 183.01Z" fill="#161616"/>
<path d="M265.976 183.744C267.672 183.744 269.015 183.331 269.098 183.306C269.215 183.269 269.305 183.176 269.338 183.057C271.651 174.684 271.727 164.587 271.728 163.45C272.058 162.905 273.703 160.065 274.704 155.838C275.59 152.098 277.157 147.168 278.101 144.303L276.806 181.935C276.8 182.112 276.925 182.267 277.098 182.301C280.506 182.96 283.115 181.674 283.224 181.62C283.352 181.556 283.428 181.424 283.423 181.282C283.266 177.51 285.442 167.054 287.546 156.941C289.28 148.612 290.916 140.744 291.039 137.515C291.308 130.399 288.08 126.615 287.943 126.457C287.847 126.346 287.691 126.305 287.552 126.354C287.538 126.358 285.811 126.922 281.599 126.354C277.232 125.766 271.185 126.033 271.125 126.034C270.974 126.042 270.842 126.142 270.796 126.286C270.74 126.465 265.17 144.269 263.679 156.631C262.186 168.992 263.08 182.895 263.089 183.034C263.099 183.18 263.196 183.307 263.337 183.353C264.229 183.645 265.143 183.742 265.973 183.742L265.976 183.744ZM268.696 182.67C268.053 182.837 265.853 183.324 263.796 182.741C263.683 180.818 263.022 168.106 264.396 156.719C265.785 145.207 270.739 128.923 271.412 126.746C272.597 126.703 277.706 126.558 281.504 127.07C285.047 127.546 286.902 127.254 287.538 127.105C288.144 127.911 290.546 131.5 290.318 137.489C290.199 140.659 288.567 148.497 286.841 156.796C284.772 166.742 282.633 177.021 282.696 181.068C282.063 181.33 280.037 182.046 277.538 181.649L278.907 141.858C278.913 141.679 278.787 141.524 278.612 141.491C278.436 141.459 278.263 141.559 278.206 141.728C278.177 141.811 275.33 150.066 274.002 155.675C272.937 160.175 271.08 163.129 271.061 163.158C271.024 163.217 271.005 163.285 271.005 163.353C271.005 163.46 271.055 173.966 268.695 182.673L268.696 182.67Z" fill="#161616"/>
<path d="M268.27 168.31C268.386 168.31 268.498 168.255 268.568 168.153L270.671 165.088C270.784 164.924 270.742 164.699 270.578 164.587C270.414 164.474 270.189 164.516 270.077 164.68L267.973 167.745C267.861 167.909 267.902 168.134 268.066 168.246C268.128 168.289 268.199 168.31 268.27 168.31Z" fill="#161616"/>
<path d="M282.418 160.857C283.178 160.857 284.147 160.708 284.956 160.107C285.116 159.989 285.15 159.762 285.03 159.603C284.911 159.443 284.685 159.409 284.525 159.529C283.234 160.487 281.323 160.021 281.305 160.017C281.113 159.97 280.916 160.085 280.867 160.277C280.819 160.47 280.936 160.666 281.128 160.715C281.172 160.727 281.703 160.859 282.418 160.859V160.857Z" fill="#161616"/>
<path d="M272.398 114.997C272.398 114.997 269.02 122.605 263.51 124.16C258 125.715 254.163 121.018 254.188 116.17L256.061 115.548C256.061 115.548 257.983 120.517 262.269 119.224C266.556 117.931 268.545 107.824 268.545 107.824L272.398 114.998V114.997Z" fill="white"/>
<path d="M261.398 124.826C262.077 124.826 262.815 124.732 263.614 124.505C269.221 122.924 272.592 115.459 272.734 115.142C272.78 115.04 272.776 114.923 272.722 114.826L268.869 107.652C268.797 107.517 268.649 107.445 268.498 107.465C268.347 107.488 268.227 107.603 268.198 107.752C268.178 107.851 266.201 117.661 262.171 118.877C258.249 120.059 256.477 115.607 256.403 115.416C256.333 115.237 256.135 115.142 255.953 115.204L254.08 115.826C253.934 115.874 253.833 116.012 253.833 116.166C253.819 119.035 255.108 121.807 257.198 123.397C258.133 124.109 259.539 124.826 261.399 124.826H261.398ZM272 115.008C271.481 116.095 268.266 122.445 263.418 123.812C260.713 124.575 258.781 123.696 257.635 122.824C255.783 121.415 254.619 118.982 254.557 116.428L255.87 115.991C256.406 117.107 258.488 120.741 262.379 119.568C266.063 118.457 268.067 111.447 268.692 108.848L272 115.008Z" fill="#161616"/>
<path d="M268.048 107.124C267.954 107.206 267.893 107.273 267.855 107.32L270.776 113.245L270.815 113.325L270.796 113.411L267.332 128.524C267.401 128.57 267.5 128.631 267.631 128.702C267.927 128.862 268.383 129.068 269.013 129.241C270.272 129.587 272.232 129.804 274.998 129.254C277.806 128.696 281.621 128.075 285.056 127.689C286.772 127.496 288.398 127.362 289.756 127.324C290.859 127.294 291.807 127.326 292.487 127.451L289.034 113.273L289.008 113.169L289.066 113.079L292.518 107.677C292.506 107.664 292.494 107.651 292.481 107.637C292.376 107.524 292.212 107.36 291.986 107.166C291.534 106.776 290.829 106.261 289.828 105.77C287.828 104.788 284.634 103.895 279.891 104.305C274.188 104.798 271.142 105.607 269.529 106.281C268.724 106.618 268.283 106.919 268.048 107.124Z" fill="white" stroke="#161616" stroke-width="0.5"/>
<path d="M256.056 121.966H270.781L261.124 104.463H246.399L256.056 121.966Z" fill="white"/>
<path d="M256.063 122.326H270.788C270.915 122.326 271.033 122.258 271.098 122.149C271.164 122.039 271.165 121.903 271.103 121.791L261.445 104.288C261.382 104.173 261.261 104.102 261.13 104.102H246.405C246.278 104.102 246.16 104.17 246.095 104.279C246.03 104.389 246.028 104.525 246.09 104.637L255.748 122.14C255.811 122.255 255.933 122.326 256.063 122.326ZM270.177 121.604H256.276L247.016 104.822H260.917L270.177 121.604Z" fill="#161616"/>
<path d="M255.729 121.413C255.729 121.413 256.005 119.962 255.729 118.993C255.452 118.025 253.736 115.145 253.247 114.543C252.756 113.941 252.34 120.375 255.729 121.413Z" fill="white"/>
<path d="M255.734 121.773C255.799 121.773 255.863 121.755 255.921 121.721C256.008 121.668 256.07 121.581 256.089 121.48C256.101 121.418 256.379 119.933 256.082 118.893C255.792 117.878 254.073 114.978 253.532 114.314C253.406 114.158 253.217 114.102 253.042 114.167C252.692 114.297 252.532 114.973 252.567 116.174C252.634 118.441 253.473 121.096 255.629 121.757C255.663 121.767 255.699 121.773 255.734 121.773ZM253.316 115.254C253.993 116.281 255.174 118.343 255.388 119.091C255.551 119.659 255.501 120.432 255.444 120.909C254.755 120.566 254.214 119.911 253.832 118.955C253.288 117.593 253.24 116.047 253.316 115.254Z" fill="#161616"/>
<path d="M286.537 117.655L275.199 112.185L269.309 113.23C269.309 113.23 269.722 113.844 270.559 113.7C271.396 113.557 272.51 113.796 273.211 114.568C273.912 115.34 275.094 114.849 275.094 114.849C275.094 114.849 281.506 123.097 287.265 124.162C291.946 125.027 292.461 108.217 292.461 108.217L286.83 113.216L286.537 117.657V117.655Z" fill="white"/>
<path d="M287.617 124.554C288.126 124.554 288.606 124.373 289.053 124.014C292.389 121.323 292.812 108.761 292.828 108.227C292.832 108.083 292.751 107.95 292.621 107.889C292.491 107.829 292.337 107.851 292.229 107.946L286.598 112.945C286.527 113.009 286.484 113.096 286.478 113.191L286.221 117.097L275.365 111.859C275.297 111.827 275.22 111.815 275.146 111.83L269.255 112.874C269.135 112.895 269.033 112.976 268.985 113.089C268.938 113.201 268.95 113.33 269.018 113.43C269.04 113.463 269.573 114.235 270.627 114.056C271.333 113.935 272.325 114.121 272.951 114.812C273.594 115.52 274.522 115.392 274.974 115.27C276.019 116.572 281.816 123.521 287.207 124.517C287.346 124.542 287.484 124.555 287.62 124.555L287.617 124.554ZM292.068 109.052C291.912 111.944 291.211 121.347 288.6 123.452C288.203 123.773 287.788 123.888 287.336 123.805C281.78 122.779 275.448 114.708 275.384 114.627C275.285 114.498 275.111 114.454 274.961 114.516C274.952 114.519 274.003 114.898 273.483 114.325C272.806 113.58 271.809 113.293 270.972 113.302L275.153 112.561L286.386 117.98C286.494 118.032 286.621 118.027 286.725 117.967C286.828 117.906 286.895 117.798 286.904 117.678L287.186 113.386L292.069 109.052H292.068Z" fill="#161616"/>
<path d="M273.559 97.1998C276.929 100.377 282.957 103.184 286.581 100.337C290.206 97.4912 290.773 90.8912 287.403 87.7139C284.033 84.5367 277.738 83.8711 274.113 86.717C270.487 89.5629 270.188 94.0211 273.558 97.1983L273.559 97.1998Z" fill="#161616"/>
<path d="M287.984 90.4868C288.37 90.8507 289.028 90.8773 289.451 90.5445C289.874 90.2117 289.904 89.6466 289.518 89.2813C289.132 88.9174 288.474 88.8908 288.051 89.2236C287.627 89.5564 287.598 90.1215 287.984 90.4868Z" fill="#161616"/>
<path d="M290.087 91.141C290.674 91.6942 290.63 92.5536 289.987 93.0595C289.343 93.5653 288.346 93.5269 287.758 92.9722C287.17 92.419 287.215 91.5596 287.858 91.0537C288.502 90.5478 289.498 90.5863 290.087 91.141Z" fill="#161616"/>
<path d="M288.843 92.8102C289.886 92.8502 290.694 93.6119 290.646 94.5083C290.599 95.4062 289.716 96.0999 288.672 96.0599C287.629 96.02 286.821 95.2582 286.869 94.3619C286.916 93.464 287.799 92.7703 288.843 92.8102Z" fill="#161616"/>
<path d="M288.939 95.9549C289.737 96.7078 289.677 97.8748 288.801 98.5626C287.927 99.2504 286.569 99.1972 285.77 98.4443C284.972 97.6914 285.032 96.5243 285.908 95.8365C286.782 95.1487 288.14 95.202 288.939 95.9549Z" fill="#161616"/>
<path d="M287.418 97.9135C288.196 98.8173 287.974 100.094 286.924 100.762C285.874 101.431 284.392 101.242 283.614 100.336C282.836 99.4326 283.058 98.1561 284.108 97.4875C285.158 96.8189 286.64 97.0083 287.418 97.9135Z" fill="#161616"/>
<path d="M284.941 88.7125C285.66 89.3899 286.881 89.4372 287.668 88.819C288.455 88.2007 288.511 87.149 287.791 86.4715C287.072 85.7941 285.85 85.7467 285.063 86.365C284.277 86.9833 284.22 88.035 284.941 88.7125Z" fill="#161616"/>
<path d="M283.926 88.5743C285.083 88.6187 286.063 87.8495 286.115 86.8541C286.167 85.8586 285.272 85.0155 284.115 84.9696C282.959 84.9252 281.978 85.6944 281.926 86.6899C281.874 87.6853 282.769 88.5285 283.926 88.5743Z" fill="#161616"/>
<path d="M286.902 89.6273C287.349 90.0474 288.106 90.077 288.594 89.6939C289.082 89.3093 289.118 88.657 288.671 88.2369C288.224 87.8168 287.467 87.7873 286.979 88.1704C286.491 88.5549 286.455 89.2073 286.902 89.6273Z" fill="#161616"/>
<path d="M273.146 97.3825C273.751 97.952 274.779 97.9919 275.44 97.4713C276.102 96.9506 276.149 96.0661 275.544 95.4966C274.939 94.9271 273.911 94.8872 273.25 95.4078C272.589 95.9285 272.541 96.813 273.146 97.3825Z" fill="#161616"/>
<path d="M282.052 101.606C282.657 102.176 283.685 102.216 284.346 101.695C285.009 101.174 285.055 100.29 284.45 99.7202C283.845 99.1507 282.817 99.1108 282.156 99.6315C281.493 100.152 281.447 101.037 282.052 101.606Z" fill="#161616"/>
<path d="M272.952 96.8363C272.002 96.8363 271.231 96.1734 271.231 95.3556C271.231 94.5379 272.002 93.875 272.952 93.875C273.902 93.875 274.672 94.5379 274.672 95.3556C274.672 96.1734 273.902 96.8363 272.952 96.8363Z" fill="#161616"/>
<path d="M271.14 94.6497C271.817 95.2887 272.969 95.333 273.712 94.7502C274.454 94.1675 274.506 93.1764 273.829 92.5374C273.151 91.8984 271.999 91.854 271.256 92.4368C270.514 93.0196 270.462 94.0107 271.14 94.6497Z" fill="#161616"/>
<path d="M273.545 90.4394C274.181 91.0384 274.133 91.9658 273.436 92.5131C272.741 93.0604 271.661 93.0175 271.026 92.42C270.39 91.8209 270.439 90.8935 271.136 90.3462C271.831 89.7989 272.911 89.8418 273.545 90.4394Z" fill="#161616"/>
<path d="M271.531 90.1081C271.966 90.5178 272.706 90.5474 273.182 90.1717C273.658 89.7975 273.692 89.1614 273.257 88.7502C272.822 88.3405 272.083 88.3109 271.607 88.6866C271.13 89.0608 271.096 89.6969 271.531 90.1081Z" fill="#161616"/>
<path d="M272.582 88.8335C273.133 89.3512 274.066 89.3882 274.668 88.9149C275.27 88.4416 275.311 87.6384 274.763 87.1207C274.212 86.603 273.279 86.566 272.677 87.0393C272.075 87.5126 272.034 88.3158 272.582 88.8335Z" fill="#161616"/>
<path d="M276.019 88.8946C274.916 88.8946 274.022 88.1251 274.022 87.1758C274.022 86.2266 274.916 85.457 276.019 85.457C277.122 85.457 278.016 86.2266 278.016 87.1758C278.016 88.1251 277.122 88.8946 276.019 88.8946Z" fill="#161616"/>
<path d="M276.614 84.7487C275.886 85.3212 275.836 86.2915 276.5 86.9172C277.164 87.5429 278.293 87.5872 279.021 87.0148C279.749 86.4424 279.799 85.4721 279.135 84.8464C278.471 84.2207 277.342 84.1763 276.614 84.7487Z" fill="#161616"/>
<path d="M278.471 84.2243C277.679 84.8455 277.624 85.9016 278.346 86.5835C279.07 87.264 280.296 87.3128 281.087 86.69C281.879 86.0688 281.933 85.0127 281.211 84.3308C280.488 83.6504 279.262 83.6015 278.471 84.2243Z" fill="#161616"/>
<path d="M281.755 85.7194C282.246 86.1824 283.079 86.215 283.617 85.7919C284.156 85.3689 284.193 84.6515 283.702 84.19C283.211 83.727 282.378 83.6945 281.839 84.1175C281.302 84.5405 281.264 85.2579 281.755 85.7194Z" fill="#161616"/>
<path d="M273.777 99.1295C273.65 98.9284 274.253 97.8368 274.274 97.4389C274.295 97.041 273.984 96.7082 273.854 96.291C273.724 95.8739 273.869 95.1299 273.869 95.1299C274.046 90.1496 279.466 91.3314 279.466 91.3314C280.71 91.7086 281.443 93.1079 281.683 94.0383C282.148 95.8399 281.291 98.0187 281.291 98.0187C281.328 98.1 282.216 103.932 282.256 104.008C282.819 105.091 279.044 105.801 277.858 104.709C277.457 104.341 277.97 101.631 277.858 101.628C277.413 101.616 276.868 102.094 276.308 101.944C275.482 101.725 274.861 99.6547 274.743 99.5008C274.687 99.4283 274.494 99.3854 274.295 99.3396C274.073 99.2893 273.844 99.2346 273.775 99.1281L273.777 99.1295Z" fill="white"/>
<path d="M279.775 105.612C280.756 105.612 281.754 105.358 282.254 104.975C282.649 104.673 282.778 104.269 282.603 103.888C282.553 103.63 282.308 102.068 282.109 100.804C281.819 98.9533 281.716 98.301 281.67 98.051C281.837 97.5851 282.472 95.6385 282.037 93.9493C281.751 92.8399 280.935 91.3992 279.576 90.988C279.437 90.9569 276.783 90.3978 275.011 91.7734C274.076 92.4997 273.573 93.615 273.514 95.0912C273.484 95.2569 273.372 95.9447 273.514 96.3988C273.573 96.5866 273.659 96.7552 273.736 96.9046C273.838 97.1014 273.925 97.2715 273.918 97.4209C273.912 97.5392 273.779 97.8735 273.681 98.1175C273.428 98.7521 273.314 99.0687 273.476 99.3231C273.623 99.5568 273.927 99.6263 274.218 99.6929C274.305 99.7136 274.412 99.7372 274.474 99.7579C274.49 99.8008 274.52 99.8778 274.557 99.9695C274.993 101.064 275.498 102.102 276.219 102.295C276.662 102.413 277.067 102.252 277.394 102.123C277.425 102.111 277.456 102.098 277.487 102.086C277.48 102.162 277.471 102.241 277.462 102.317C277.292 103.9 277.274 104.66 277.617 104.975C278.108 105.426 278.934 105.612 279.772 105.612H279.775ZM280.951 98.1175C280.985 98.2803 281.206 99.6795 281.398 100.915C281.895 104.083 281.899 104.092 281.942 104.173C281.96 104.209 281.991 104.266 281.817 104.401C281.123 104.932 278.873 105.145 278.11 104.444C277.988 104.218 278.13 102.892 278.184 102.394C278.261 101.675 278.275 101.545 278.142 101.394C278.076 101.318 277.975 101.271 277.875 101.268C277.611 101.264 277.37 101.358 277.132 101.452C276.869 101.555 276.62 101.653 276.407 101.597C275.935 101.471 275.404 100.14 275.23 99.7017C275.125 99.4384 275.089 99.3526 275.036 99.2831C274.903 99.1086 274.669 99.0553 274.4 98.9947C274.332 98.9784 274.23 98.9562 274.153 98.9326C274.197 98.7802 274.292 98.5421 274.356 98.3838C274.502 98.0155 274.629 97.696 274.643 97.4593C274.66 97.1147 274.512 96.8277 274.382 96.5748C274.313 96.4402 274.248 96.313 274.208 96.1843C274.123 95.9151 274.199 95.3693 274.233 95.2006C274.236 95.1829 274.239 95.1637 274.239 95.1444C274.283 93.8783 274.694 92.936 275.458 92.3429C276.965 91.1729 279.374 91.6802 279.398 91.6862C280.518 92.0264 281.151 93.3842 281.343 94.1312C281.772 95.7953 280.973 97.869 280.966 97.8898C280.938 97.9637 280.933 98.0436 280.954 98.119L280.951 98.1175Z" fill="#161616"/>
<path d="M272.422 91.5255C272.967 90.9738 273.521 91.5255 275.685 91.2208C277.486 90.9679 278.006 90.459 279.368 90.6839C279.752 90.7475 280.436 90.8599 281.112 91.3554C282.114 92.0891 282.485 93.1186 282.683 93.8863C283.069 95.3846 282.586 97.1315 282.368 97.7927C282.315 97.9554 282.157 98.059 281.985 98.0442C281.531 98.0057 281.129 97.9465 280.771 97.8681C280.601 97.8312 280.504 97.6522 280.57 97.491C280.587 97.4466 280.604 97.4007 280.617 97.3534C280.797 96.7218 280.494 96.0813 279.942 95.9231C279.389 95.7648 278.796 96.1508 278.616 96.7824C278.604 96.8268 278.593 96.8697 278.586 96.9141C277.79 96.3121 277.382 95.6287 276.647 95.2619C276.558 95.2175 276.172 95.0415 275.583 95.0208C274.305 94.9749 273.881 95.7337 273.276 95.5873C272.22 95.3314 271.445 92.518 272.422 91.5255Z" fill="#161616"/>
<path d="M277.741 101.99C277.777 101.99 277.814 101.984 277.849 101.973C279.894 101.33 280.213 99.9498 280.226 99.8921C280.268 99.6969 280.145 99.5061 279.95 99.4632C279.756 99.4218 279.565 99.5431 279.522 99.7368C279.51 99.7856 279.249 100.778 277.633 101.287C277.444 101.346 277.338 101.549 277.398 101.74C277.447 101.893 277.589 101.993 277.741 101.993V101.99Z" fill="#161616"/>
<rect width="386" height="244" rx="12" stroke="#F2F2F2"/>
</svg>
