<svg xmlns="http://www.w3.org/2000/svg" width="1205" height="726" fill="#fff" opacity=".1"><path d="M102 0h1v5h-1V0z"/><path d="M100 3V2h5v1h-5zm202-3h1v5h-1V0z"/><path d="M300 3V2h5v1h-5zm202-3h1v5h-1V0z"/><path d="M500 3V2h5v1h-5zm202-3h1v5h-1V0z"/><path d="M700 3V2h5v1h-5zm202-3h1v5h-1V0z"/><path d="M900 3V2h5v1h-5zm202-3h1v5h-1V0z"/><path d="M1100 3V2h5v1h-5zM2 0h1v5H2V0z"/><path d="M0 3V2h5v1H0zm202-3h1v5h-1V0z"/><path d="M200 3V2h5v1h-5zm202-3h1v5h-1V0z"/><path d="M400 3V2h5v1h-5zm202-3h1v5h-1V0z"/><path d="M600 3V2h5v1h-5zm202-3h1v5h-1V0z"/><path d="M800 3V2h5v1h-5zm202-3h1v5h-1V0z"/><path d="M1000 3V2h5v1h-5zm202-3h1v5h-1V0z"/><path d="M1200 3V2h5v1h-5zM102 72h1v5h-1v-5z"/><path d="M100 75v-1h5v1h-5zm202-3h1v5h-1v-5z"/><path d="M300 75v-1h5v1h-5zm202-3h1v5h-1v-5z"/><path d="M500 75v-1h5v1h-5zm202-3h1v5h-1v-5z"/><path d="M700 75v-1h5v1h-5zm202-3h1v5h-1v-5z"/><path d="M900 75v-1h5v1h-5zm202-3h1v5h-1v-5z"/><path d="M1100 75v-1h5v1h-5zM2 72h1v5H2v-5z"/><path d="M0 75v-1h5v1H0zm202-3h1v5h-1v-5z"/><path d="M200 75v-1h5v1h-5zm202-3h1v5h-1v-5z"/><path d="M400 75v-1h5v1h-5zm202-3h1v5h-1v-5z"/><path d="M600 75v-1h5v1h-5zm202-3h1v5h-1v-5z"/><path d="M800 75v-1h5v1h-5zm202-3h1v5h-1v-5z"/><path d="M1000 75v-1h5v1h-5zm202-3h1v5h-1v-5z"/><path d="M1200 75v-1h5v1h-5zM102 144h1v5h-1v-5z"/><path d="M100 147v-1h5v1h-5zm202-3h1v5h-1v-5z"/><path d="M300 147v-1h5v1h-5zm202-3h1v5h-1v-5z"/><path d="M500 147v-1h5v1h-5zm202-3h1v5h-1v-5z"/><path d="M700 147v-1h5v1h-5zm202-3h1v5h-1v-5z"/><path d="M900 147v-1h5v1h-5zm202-3h1v5h-1v-5z"/><path d="M1100 147v-1h5v1h-5zM2 144h1v5H2v-5z"/><path d="M0 147v-1h5v1H0zm202-3h1v5h-1v-5z"/><path d="M200 147v-1h5v1h-5zm202-3h1v5h-1v-5z"/><path d="M400 147v-1h5v1h-5zm202-3h1v5h-1v-5z"/><path d="M600 147v-1h5v1h-5zm202-3h1v5h-1v-5z"/><path d="M800 147v-1h5v1h-5zm202-3h1v5h-1v-5z"/><path d="M1000 147v-1h5v1h-5zm202-3h1v5h-1v-5z"/><path d="M1200 147v-1h5v1h-5zM102 216h1v5h-1v-5z"/><path d="M100 219v-1h5v1h-5zm202-3h1v5h-1v-5z"/><path d="M300 219v-1h5v1h-5zm202-3h1v5h-1v-5z"/><path d="M500 219v-1h5v1h-5zm202-3h1v5h-1v-5z"/><path d="M700 219v-1h5v1h-5zm202-3h1v5h-1v-5z"/><path d="M900 219v-1h5v1h-5zm202-3h1v5h-1v-5z"/><path d="M1100 219v-1h5v1h-5zM2 216h1v5H2v-5z"/><path d="M0 219v-1h5v1H0zm202-3h1v5h-1v-5z"/><path d="M200 219v-1h5v1h-5zm202-3h1v5h-1v-5z"/><path d="M400 219v-1h5v1h-5zm202-3h1v5h-1v-5z"/><path d="M600 219v-1h5v1h-5zm202-3h1v5h-1v-5z"/><path d="M800 219v-1h5v1h-5zm202-3h1v5h-1v-5z"/><path d="M1000 219v-1h5v1h-5zm202-3h1v5h-1v-5z"/><path d="M1200 219v-1h5v1h-5zM102 288h1v5h-1v-5z"/><path d="M100 291v-1h5v1h-5zm202-3h1v5h-1v-5z"/><path d="M300 291v-1h5v1h-5zm202-3h1v5h-1v-5z"/><path d="M500 291v-1h5v1h-5zm202-3h1v5h-1v-5z"/><path d="M700 291v-1h5v1h-5zm202-3h1v5h-1v-5z"/><path d="M900 291v-1h5v1h-5zm202-3h1v5h-1v-5z"/><path d="M1100 291v-1h5v1h-5zM2 288h1v5H2v-5z"/><path d="M0 291v-1h5v1H0zm202-3h1v5h-1v-5z"/><path d="M200 291v-1h5v1h-5zm202-3h1v5h-1v-5z"/><path d="M400 291v-1h5v1h-5zm202-3h1v5h-1v-5z"/><path d="M600 291v-1h5v1h-5zm202-3h1v5h-1v-5z"/><path d="M800 291v-1h5v1h-5zm202-3h1v5h-1v-5z"/><path d="M1000 291v-1h5v1h-5zm202-3h1v5h-1v-5z"/><path d="M1200 291v-1h5v1h-5zM102 360h1v5h-1v-5z"/><path d="M100 363v-1h5v1h-5zm202-3h1v5h-1v-5z"/><path d="M300 363v-1h5v1h-5zm202-3h1v5h-1v-5z"/><path d="M500 363v-1h5v1h-5zm202-3h1v5h-1v-5z"/><path d="M700 363v-1h5v1h-5zm202-3h1v5h-1v-5z"/><path d="M900 363v-1h5v1h-5zm202-3h1v5h-1v-5z"/><path d="M1100 363v-1h5v1h-5zM2 360h1v5H2v-5z"/><path d="M0 363v-1h5v1H0zm202-3h1v5h-1v-5z"/><path d="M200 363v-1h5v1h-5zm202-3h1v5h-1v-5z"/><path d="M400 363v-1h5v1h-5zm202-3h1v5h-1v-5z"/><path d="M600 363v-1h5v1h-5zm202-3h1v5h-1v-5z"/><path d="M800 363v-1h5v1h-5zm202-3h1v5h-1v-5z"/><path d="M1000 363v-1h5v1h-5zm202-3h1v5h-1v-5z"/><path d="M1200 363v-1h5v1h-5zM102 432h1v5h-1v-5z"/><path d="M100 435v-1h5v1h-5zm202-3h1v5h-1v-5z"/><path d="M300 435v-1h5v1h-5zm202-3h1v5h-1v-5z"/><path d="M500 435v-1h5v1h-5zm202-3h1v5h-1v-5z"/><path d="M700 435v-1h5v1h-5zm202-3h1v5h-1v-5z"/><path d="M900 435v-1h5v1h-5zm202-3h1v5h-1v-5z"/><path d="M1100 435v-1h5v1h-5zM2 432h1v5H2v-5z"/><path d="M0 435v-1h5v1H0zm202-3h1v5h-1v-5z"/><path d="M200 435v-1h5v1h-5zm202-3h1v5h-1v-5z"/><path d="M400 435v-1h5v1h-5zm202-3h1v5h-1v-5z"/><path d="M600 435v-1h5v1h-5zm202-3h1v5h-1v-5z"/><path d="M800 435v-1h5v1h-5zm202-3h1v5h-1v-5z"/><path d="M1000 435v-1h5v1h-5zm202-3h1v5h-1v-5z"/><path d="M1200 435v-1h5v1h-5zM102 504h1v5h-1v-5z"/><path d="M100 507v-1h5v1h-5zm202-3h1v5h-1v-5z"/><path d="M300 507v-1h5v1h-5zm202-3h1v5h-1v-5z"/><path d="M500 507v-1h5v1h-5zm202-3h1v5h-1v-5z"/><path d="M700 507v-1h5v1h-5zm202-3h1v5h-1v-5z"/><path d="M900 507v-1h5v1h-5zm202-3h1v5h-1v-5z"/><path d="M1100 507v-1h5v1h-5zM2 504h1v5H2v-5z"/><path d="M0 507v-1h5v1H0zm202-3h1v5h-1v-5z"/><path d="M200 507v-1h5v1h-5zm202-3h1v5h-1v-5z"/><path d="M400 507v-1h5v1h-5zm202-3h1v5h-1v-5z"/><path d="M600 507v-1h5v1h-5zm202-3h1v5h-1v-5z"/><path d="M800 507v-1h5v1h-5zm202-3h1v5h-1v-5z"/><path d="M1000 507v-1h5v1h-5zm202-3h1v5h-1v-5z"/><path d="M1200 507v-1h5v1h-5zM102 576h1v5h-1v-5z"/><path d="M100 579v-1h5v1h-5zm202-3h1v5h-1v-5z"/><path d="M300 579v-1h5v1h-5zm202-3h1v5h-1v-5z"/><path d="M500 579v-1h5v1h-5zm202-3h1v5h-1v-5z"/><path d="M700 579v-1h5v1h-5zm202-3h1v5h-1v-5z"/><path d="M900 579v-1h5v1h-5zm202-3h1v5h-1v-5z"/><path d="M1100 579v-1h5v1h-5zM2 576h1v5H2v-5z"/><path d="M0 579v-1h5v1H0zm202-3h1v5h-1v-5z"/><path d="M200 579v-1h5v1h-5zm202-3h1v5h-1v-5z"/><path d="M400 579v-1h5v1h-5zm202-3h1v5h-1v-5z"/><path d="M600 579v-1h5v1h-5zm202-3h1v5h-1v-5z"/><path d="M800 579v-1h5v1h-5zm202-3h1v5h-1v-5z"/><path d="M1000 579v-1h5v1h-5zm202-3h1v5h-1v-5z"/><path d="M1200 579v-1h5v1h-5zM102 648h1v5h-1v-5z"/><path d="M100 651v-1h5v1h-5zm202-3h1v5h-1v-5z"/><path d="M300 651v-1h5v1h-5zm202-3h1v5h-1v-5z"/><path d="M500 651v-1h5v1h-5zm202-3h1v5h-1v-5z"/><path d="M700 651v-1h5v1h-5zm202-3h1v5h-1v-5z"/><path d="M900 651v-1h5v1h-5zm202-3h1v5h-1v-5z"/><path d="M1100 651v-1h5v1h-5zM2 648h1v5H2v-5z"/><path d="M0 651v-1h5v1H0zm202-3h1v5h-1v-5z"/><path d="M200 651v-1h5v1h-5zm202-3h1v5h-1v-5z"/><path d="M400 651v-1h5v1h-5zm202-3h1v5h-1v-5z"/><path d="M600 651v-1h5v1h-5zm202-3h1v5h-1v-5z"/><path d="M800 651v-1h5v1h-5zm202-3h1v5h-1v-5z"/><path d="M1000 651v-1h5v1h-5zm202-3h1v5h-1v-5z"/><path d="M1200 651v-1h5v1h-5zM102 721h1v5h-1v-5z"/><path d="M100 724v-1h5v1h-5zm202-3h1v5h-1v-5z"/><path d="M300 724v-1h5v1h-5zm202-3h1v5h-1v-5z"/><path d="M500 724v-1h5v1h-5zm202-3h1v5h-1v-5z"/><path d="M700 724v-1h5v1h-5zm202-3h1v5h-1v-5z"/><path d="M900 724v-1h5v1h-5zm202-3h1v5h-1v-5z"/><path d="M1100 724v-1h5v1h-5zM2 721h1v5H2v-5z"/><path d="M0 724v-1h5v1H0zm202-3h1v5h-1v-5z"/><path d="M200 724v-1h5v1h-5zm202-3h1v5h-1v-5z"/><path d="M400 724v-1h5v1h-5zm202-3h1v5h-1v-5z"/><path d="M600 724v-1h5v1h-5zm202-3h1v5h-1v-5z"/><path d="M800 724v-1h5v1h-5zm202-3h1v5h-1v-5z"/><path d="M1000 724v-1h5v1h-5zm202-3h1v5h-1v-5z"/><path d="M1200 724v-1h5v1h-5z"/></svg>