<svg width="588" height="588" viewBox="0 0 588 588" fill="none" xmlns="http://www.w3.org/2000/svg">
<g clip-path="url(#clip0_1034_9272)">
<path d="M178.127 212.841V213.841H177.127H174.386C169.402 213.841 165.369 209.788 165.369 204.795V154.834C165.369 149.841 169.402 145.788 174.386 145.788H177.127H178.127V146.788V212.841ZM180.082 213.832H179.082V212.832V193.568V192.568H180.082H199.592H200.592V193.568V212.832V213.832H199.592H180.082ZM180.082 191.499H179.082V190.499V169.121V168.121H180.082H199.592H200.592V169.121V190.499V191.499H199.592H180.082ZM179.082 146.788V145.788H180.082H199.592H200.592V146.788V166.155V167.155H199.592H180.082H179.082V166.155V146.788ZM201.547 146.788V145.788H202.547H205.288C210.271 145.788 214.304 149.841 214.304 154.834V204.786C214.304 209.779 210.271 213.832 205.288 213.832H202.547H201.547V212.832V146.788ZM292.819 437.167H291.819V437.159H278.688C276.007 437.159 273.893 434.893 273.893 432.351V143.926C273.893 141.262 276.025 139.118 278.688 139.118H292.819C295.482 139.118 297.614 141.262 297.614 143.926V432.359C297.614 434.902 295.499 437.167 292.819 437.167ZM106.414 134.186L106.414 441.987C106.414 449.488 112.517 455.592 119.863 455.592H301.675C309.136 455.592 315.227 449.484 315.227 441.987V134.186C315.227 126.797 309.141 120.685 301.675 120.685L119.863 120.685C112.505 120.685 106.414 126.8 106.414 134.186ZM139.213 254.643C139.213 250.277 142.827 246.655 147.176 246.655H192.843C197.296 246.655 200.909 250.278 200.909 254.643V418.597C200.909 422.972 197.295 426.585 192.843 426.585H147.176C142.816 426.585 139.213 422.953 139.213 418.597L139.213 254.643ZM257.481 359.897H243.666C241.012 359.897 238.761 357.769 238.761 354.977L238.761 298.355C238.761 295.681 241.005 293.435 243.666 293.435H257.481C260.274 293.435 262.387 295.71 262.387 298.355V354.977C262.387 357.752 260.255 359.897 257.481 359.897ZM238.761 221.196C238.761 218.522 241.005 216.276 243.666 216.276H257.481C260.274 216.276 262.387 218.551 262.387 221.196V277.827C262.387 280.482 260.272 282.747 257.481 282.747H243.666C240.994 282.747 238.761 280.489 238.761 277.827V221.196ZM238.769 144.037C238.769 141.364 241.014 139.118 243.675 139.118H257.49C260.282 139.118 262.395 141.393 262.395 144.037V200.66C262.395 203.315 260.281 205.58 257.49 205.58H243.675C241.002 205.58 238.769 203.322 238.769 200.66V144.037ZM262.395 432.144C262.395 434.885 260.297 437.167 257.49 437.167H243.675C240.987 437.167 238.769 434.903 238.769 432.144V375.625C238.769 372.865 240.997 370.602 243.675 370.602H257.49C260.297 370.602 262.395 372.884 262.395 375.625V432.144Z" fill="white" stroke="#161616" stroke-width="2"/>
</g>
<path d="M186.816 343.39H187.816V342.39V339.639C187.816 334.646 183.783 330.594 178.8 330.594H129.021C124.038 330.594 120.005 334.646 120.005 339.639V342.39V343.39H121.005H186.816ZM187.808 345.356V344.356H186.808H167.614H166.614V345.356V364.938V365.938H167.614H186.808H187.808V364.938V345.356ZM165.556 345.356V344.356H164.556H143.256H142.256V345.356V364.938V365.938H143.256H164.556H165.556V364.938V345.356ZM121.005 344.356H120.005V345.356V364.938V365.938H121.005H140.301H141.301V364.938V345.356V344.356H140.301H121.005ZM121.005 366.903H120.005V367.903V370.654C120.005 375.647 124.038 379.7 129.021 379.7H178.791C183.775 379.7 187.808 375.647 187.808 370.654V367.903V366.903H186.808H121.005ZM410.328 458.506V457.506H410.32V444.323C410.32 441.642 408.068 439.515 405.526 439.515H118.153C115.49 439.515 113.358 441.659 113.358 444.323V458.506C113.358 461.17 115.49 463.314 118.153 463.314H405.534C408.077 463.314 410.328 461.187 410.328 458.506ZM108.449 271.415H415.127C422.592 271.415 428.678 277.536 428.678 284.917V467.395C428.678 474.892 422.588 481 415.127 481H108.449C101.095 481 95 474.896 95 467.395V284.917C95 277.523 101.099 271.415 108.449 271.415ZM228.467 304.341C224.107 304.341 220.503 307.974 220.503 312.33V358.164C220.503 362.624 224.108 366.256 228.467 366.256H391.822C396.19 366.256 399.785 362.623 399.785 358.164V312.33C399.785 307.963 396.171 304.341 391.822 304.341H228.467ZM333.34 423.039V409.173C333.34 406.519 331.225 404.254 328.434 404.254H272.018C269.346 404.254 267.113 406.511 267.113 409.173V423.039C267.113 425.833 269.374 427.959 272.018 427.959H328.434C331.208 427.959 333.34 425.814 333.34 423.039ZM195.141 404.254C192.468 404.254 190.236 406.511 190.236 409.173V423.039C190.236 425.833 192.497 427.959 195.141 427.959H251.566C254.22 427.959 256.471 425.831 256.471 423.039V409.173C256.471 406.5 254.227 404.254 251.566 404.254H195.141ZM118.264 404.262C115.591 404.262 113.358 406.52 113.358 409.182V423.047C113.358 425.841 115.62 427.967 118.264 427.967H174.68C177.334 427.967 179.585 425.84 179.585 423.047V409.182C179.585 406.508 177.341 404.262 174.68 404.262H118.264ZM405.32 427.967C408.06 427.967 410.328 425.856 410.328 423.047V409.182C410.328 406.493 408.077 404.262 405.32 404.262H349.007C346.248 404.262 343.999 406.503 343.999 409.182V423.047C343.999 425.856 346.267 427.967 349.007 427.967H405.32Z" fill="#161616" stroke="#161616" stroke-width="2"/>
<path d="M442.642 358.665C442.642 358.665 452.169 377.965 462.873 387.241C464.679 388.805 467.49 387.942 468.164 385.647C468.553 384.319 468.935 382.55 469.249 380.193C470.427 371.381 462.53 348.436 462.53 348.436L459.013 347.298C457.779 346.899 456.472 347.656 456.198 348.93L455.831 350.649L451.602 346.912C450.64 346.062 449.161 346.189 448.366 347.2C446.75 349.254 444.242 353.09 442.641 358.665H442.642Z" fill="white"/>
<path d="M464.986 388.446C464.121 388.446 463.275 388.139 462.601 387.553C451.956 378.329 442.366 359.042 442.27 358.849C442.223 358.755 442.214 358.651 442.244 358.55C443.826 353.037 446.269 349.196 448.042 346.943C448.495 346.367 449.147 346.013 449.877 345.946C450.609 345.879 451.321 346.112 451.872 346.6L455.575 349.871L455.796 348.84C455.95 348.12 456.403 347.495 457.039 347.126C457.674 346.757 458.441 346.677 459.138 346.902L462.655 348.04C462.777 348.079 462.876 348.176 462.917 348.297C463.24 349.237 470.833 371.436 469.655 380.244C469.365 382.403 468.997 384.259 468.557 385.76C468.198 386.985 467.255 387.93 466.034 388.292C465.688 388.394 465.337 388.443 464.988 388.443L464.986 388.446ZM443.078 358.625C443.975 360.405 453.1 378.231 463.138 386.929C463.881 387.574 464.852 387.783 465.8 387.503C466.751 387.221 467.485 386.485 467.765 385.53C468.195 384.069 468.555 382.254 468.837 380.138C469.933 371.949 462.963 351.012 462.203 348.765L458.884 347.691C458.406 347.536 457.882 347.592 457.447 347.844C457.013 348.096 456.703 348.523 456.599 349.015L456.231 350.734C456.201 350.878 456.097 350.993 455.958 351.04C455.818 351.085 455.666 351.055 455.556 350.958L451.328 347.221C450.945 346.884 450.455 346.723 449.95 346.768C449.448 346.813 448.998 347.057 448.686 347.454C446.977 349.628 444.623 353.324 443.078 358.625Z" fill="#161616"/>
<path d="M465.849 385.339C465.743 385.339 465.637 385.298 465.557 385.217C454.673 374.246 445.561 357.074 445.47 356.902C445.364 356.701 445.44 356.451 445.641 356.345C445.841 356.238 446.09 356.315 446.196 356.516C446.287 356.688 455.344 373.752 466.139 384.636C466.299 384.798 466.299 385.059 466.139 385.219C466.059 385.299 465.953 385.34 465.849 385.34V385.339Z" fill="#161616"/>
<path d="M461.208 370.27C461.035 370.27 460.873 370.16 460.817 369.986C460.747 369.77 460.864 369.537 461.079 369.464L466.772 367.583C466.987 367.51 467.219 367.629 467.292 367.846C467.362 368.062 467.245 368.295 467.03 368.368L461.338 370.249C461.295 370.264 461.252 370.27 461.209 370.27H461.208Z" fill="#161616"/>
<path d="M457.458 364.166C457.285 364.166 457.123 364.056 457.067 363.883C456.997 363.666 457.114 363.433 457.329 363.36L464.482 360.996C464.697 360.925 464.929 361.043 465.002 361.259C465.072 361.475 464.955 361.708 464.74 361.781L457.588 364.145C457.545 364.16 457.502 364.166 457.459 364.166H457.458Z" fill="#161616"/>
<path d="M440.716 270.891C440.604 271.069 440.512 271.217 440.439 271.333L351.505 248.067L365.239 214.069C365.254 214.061 365.27 214.052 365.287 214.043C365.399 213.982 365.561 213.9 365.772 213.796C366.194 213.59 366.798 213.307 367.565 212.956C369.1 212.256 371.279 211.291 373.942 210.139C379.268 207.835 386.524 204.785 394.423 201.608C410.236 195.25 428.582 188.404 439.204 186.008L439.094 185.521L439.204 186.008C449.888 183.597 457.113 182.411 462.562 183.309C467.935 184.194 471.627 187.119 475.207 193.154C476.021 194.525 476.182 196.756 475.725 199.731C475.272 202.681 474.231 206.258 472.767 210.234C469.84 218.183 465.254 227.654 460.433 236.759C455.613 245.86 450.566 254.582 446.723 261.029C444.801 264.252 443.181 266.906 442.042 268.754C441.472 269.678 441.023 270.4 440.716 270.891ZM365.149 214.124C365.149 214.124 365.15 214.123 365.153 214.121C365.15 214.123 365.149 214.124 365.149 214.124Z" fill="white" stroke="#161616"/>
<path d="M415.396 239.528C415.34 239.528 415.282 239.517 415.228 239.493C415.02 239.4 414.928 239.155 415.02 238.946C425.056 216.464 441.625 200.401 441.791 200.24C441.954 200.082 442.214 200.087 442.372 200.253C442.53 200.417 442.524 200.68 442.359 200.837C442.194 200.995 425.738 216.954 415.771 239.284C415.702 239.437 415.552 239.528 415.396 239.528Z" fill="white"/>
<path d="M397.914 273.049C397.874 272.55 397.874 272.55 397.873 272.55L397.871 272.551L397.863 272.551L397.829 272.554L397.694 272.565C397.575 272.574 397.398 272.588 397.168 272.606C396.706 272.642 396.028 272.693 395.163 272.758C393.433 272.886 390.956 273.064 387.967 273.262C381.988 273.657 373.963 274.131 365.776 274.447C357.586 274.764 349.243 274.921 342.624 274.685C339.314 274.566 336.448 274.35 334.254 274.008C333.157 273.837 332.24 273.637 331.525 273.407C330.798 273.173 330.333 272.924 330.089 272.689L330.089 272.689C328.877 271.519 327.776 269.16 326.817 266.168C325.867 263.203 325.084 259.71 324.462 256.361C323.841 253.014 323.383 249.823 323.08 247.468C322.929 246.291 322.816 245.324 322.742 244.651C322.709 244.355 322.683 244.116 322.665 243.941L349.423 230.563L349.525 230.566C349.674 230.57 349.896 230.576 350.186 230.585C350.766 230.603 351.619 230.631 352.708 230.671C354.887 230.751 358.012 230.879 361.796 231.073C369.365 231.461 379.568 232.112 390.108 233.163C400.651 234.213 411.518 235.663 420.421 237.645C424.872 238.637 428.819 239.759 431.983 241.025C435.161 242.297 437.488 243.692 438.764 245.197C440.062 246.728 441.469 249.53 442.933 253.325C444.391 257.104 445.888 261.815 447.381 267.121C450.369 277.731 453.337 290.687 455.968 303.251C458.599 315.813 460.891 327.976 462.526 337C463.343 341.511 463.995 345.237 464.444 347.835C464.668 349.134 464.841 350.151 464.958 350.843C464.998 351.078 465.031 351.275 465.057 351.433L418.723 361.473C417.5 359.706 416.339 356.688 415.241 352.757C414.093 348.647 413.031 343.603 412.034 338.086C410.543 329.838 409.202 320.564 407.938 311.812C407.51 308.854 407.091 305.955 406.678 303.175C405.04 292.159 402.966 284.579 401.296 279.744C400.461 277.327 399.727 275.596 399.2 274.465C398.936 273.9 398.724 273.485 398.576 273.209C398.503 273.071 398.445 272.968 398.405 272.899C398.401 272.891 398.397 272.883 398.393 272.876C398.379 272.852 398.368 272.833 398.359 272.819L398.347 272.798L398.343 272.792L398.342 272.79L398.342 272.789C398.342 272.789 398.341 272.789 397.914 273.049ZM397.914 273.049L397.874 272.55L398.181 272.526L398.341 272.789L397.914 273.049Z" fill="white" stroke="#161616"/>
<path d="M409.369 163.97C407.697 162.743 405.343 163.17 404.206 164.908C398.334 173.891 382.09 198.773 381.898 199.389L390.039 200.541L410.281 168.868C411.314 167.251 410.915 165.105 409.369 163.972V163.97Z" fill="white"/>
<path d="M390.036 200.953C390.018 200.953 389.997 200.953 389.979 200.949L381.838 199.797C381.719 199.78 381.612 199.711 381.548 199.609C381.483 199.506 381.467 199.381 381.504 199.266C381.691 198.667 393.765 180.128 403.86 164.682C404.471 163.746 405.411 163.121 406.509 162.922C407.607 162.722 408.709 162.976 409.61 163.638C411.328 164.898 411.774 167.292 410.624 169.09L390.382 200.763C390.306 200.882 390.174 200.953 390.036 200.953ZM382.553 199.064L389.832 200.094L409.931 168.642C410.845 167.212 410.49 165.305 409.123 164.302C408.406 163.776 407.529 163.573 406.654 163.731C405.781 163.89 405.034 164.387 404.546 165.131C392.13 184.126 384.12 196.486 382.552 199.061L382.553 199.064Z" fill="#161616"/>
<path d="M298.709 238.964C298.709 238.964 290.254 227.104 293.715 200.538C297.178 173.972 305.647 160.181 314.511 157.03C323.372 153.879 359.825 159.633 362.671 204.269L298.709 238.964Z" fill="#161616"/>
<path d="M298.696 239.378C298.568 239.378 298.442 239.316 298.362 239.204C298.276 239.085 289.851 226.906 293.296 200.483C296.454 176.257 304.132 160.278 314.361 156.64C319.098 154.956 331.149 155.805 341.972 162.972C350.767 168.797 361.566 180.684 363.069 204.242C363.08 204.402 362.995 204.555 362.853 204.632L298.891 239.327C298.83 239.361 298.761 239.378 298.696 239.378ZM319.806 156.717C317.664 156.717 315.884 156.976 314.636 157.42C310.103 159.03 305.887 163.448 302.441 170.192C298.549 177.812 295.746 188.039 294.111 200.591C291.007 224.407 297.593 236.411 298.834 238.421L362.231 204.033C360.687 180.989 350.126 169.364 341.519 163.664C333.817 158.562 325.52 156.718 319.806 156.718V156.717Z" fill="#161616"/>
<path d="M324.167 220.19C323.954 220.19 323.773 220.025 323.757 219.806L322.001 194.892C321.984 194.665 322.155 194.467 322.382 194.45C322.609 194.434 322.806 194.605 322.82 194.833L324.576 219.747C324.593 219.974 324.422 220.172 324.195 220.189C324.186 220.189 324.175 220.189 324.165 220.189L324.167 220.19Z" fill="#161616"/>
<path d="M295.625 232.131C295.625 232.131 298.696 254.442 329.765 246.975C360.832 239.507 377.03 210.521 377.03 210.521C377.03 210.521 395.119 206.641 394.504 194.86C394.504 194.86 388.449 196.49 383.3 194.86C378.15 193.231 372.579 194.898 370.435 196.915C355.746 210.743 308.822 214.889 295.625 232.131Z" fill="white"/>
<path d="M318.024 248.922C312.243 248.922 307.385 247.588 303.504 244.928C296.37 240.037 295.259 232.504 295.215 232.185C295.2 232.075 295.23 231.965 295.296 231.878C302.558 222.391 319.756 216.879 336.386 211.548C350.342 207.075 363.524 202.85 370.151 196.611C372.577 194.327 378.34 192.858 383.421 194.465C388.398 196.039 394.335 194.477 394.394 194.46C394.515 194.428 394.642 194.452 394.744 194.525C394.844 194.598 394.905 194.713 394.913 194.838C395.511 206.331 379.308 210.42 377.294 210.883C376.642 212.003 372.571 218.777 365.341 226.234C358.066 233.737 346.004 243.494 329.86 247.374C325.568 248.405 321.619 248.92 318.026 248.92L318.024 248.922ZM296.058 232.239C296.264 233.369 297.717 239.968 303.98 244.255C310.073 248.424 318.715 249.203 329.665 246.572C360.204 239.231 376.504 210.607 376.666 210.318C376.724 210.215 376.824 210.141 376.939 210.116C377.114 210.079 394.159 206.287 394.103 195.381C392.526 195.737 387.571 196.645 383.172 195.254C378.104 193.651 372.679 195.364 370.712 197.216C363.95 203.581 350.682 207.834 336.635 212.335C320.209 217.601 303.227 223.043 296.056 232.239H296.058Z" fill="#161616"/>
<path d="M383.425 200.31C382.924 200.31 382.405 200.299 381.863 200.278C381.636 200.269 381.46 200.077 381.469 199.85C381.478 199.622 381.655 199.445 381.896 199.454C390.962 199.822 394.055 196.808 394.085 196.779C394.245 196.618 394.505 196.616 394.667 196.775C394.828 196.935 394.832 197.194 394.674 197.357C394.55 197.483 391.702 200.312 383.425 200.312V200.31Z" fill="#161616"/>
<path d="M382.483 204.627C382.283 204.627 382.08 204.627 381.872 204.622C381.645 204.618 381.463 204.43 381.469 204.2C381.473 203.973 381.666 203.792 381.889 203.796C389.792 203.941 392.342 201.129 392.366 201.101C392.517 200.93 392.775 200.911 392.948 201.062C393.119 201.211 393.137 201.473 392.987 201.646C392.879 201.771 390.299 204.629 382.485 204.629L382.483 204.627Z" fill="#161616"/>
<path d="M328.642 136.357C328.408 136.786 318.47 153.834 318.47 153.834L311.617 158.456C314.146 160.384 318.612 163.285 324.857 164.948C331.229 166.643 336.639 166.298 339.805 165.858C339.53 164.989 339.067 163.858 338.265 162.676C337 160.811 335.491 159.702 334.527 159.109C336.572 155.583 338.618 152.059 340.663 148.533L328.642 136.357Z" fill="white"/>
<path d="M334.551 166.635C331.25 166.635 327.969 166.205 324.742 165.347C319.873 164.051 315.37 161.843 311.357 158.786C311.251 158.705 311.192 158.579 311.195 158.444C311.199 158.312 311.268 158.187 311.378 158.114L318.153 153.544C318.9 152.263 328.051 136.562 328.272 136.159C328.335 136.045 328.447 135.967 328.575 135.949C328.703 135.93 328.833 135.975 328.924 136.066L340.946 148.241C341.077 148.374 341.102 148.579 341.009 148.739L335.073 158.97C336.476 159.895 337.661 161.062 338.595 162.44C339.281 163.451 339.816 164.556 340.188 165.729C340.225 165.845 340.208 165.972 340.143 166.074C340.078 166.177 339.972 166.246 339.851 166.262C338.083 166.509 336.314 166.632 334.549 166.632L334.551 166.635ZM312.318 158.474C316.126 161.288 320.375 163.331 324.954 164.549C329.637 165.794 334.442 166.119 339.246 165.513C338.911 164.59 338.465 163.715 337.917 162.906C336.974 161.513 335.757 160.354 334.304 159.459C334.113 159.341 334.051 159.093 334.165 158.899L340.141 148.598L328.722 137.032C327.124 139.791 319.188 153.408 318.818 154.042C318.786 154.096 318.744 154.141 318.692 154.176L312.319 158.474H312.318Z" fill="#161616"/>
<path d="M358.724 125.466C354.143 121.69 348.742 125.632 343.394 121.002C340.943 118.88 340.719 116.878 337.776 115.716C335.827 114.948 332.361 114.418 330.053 116.186C327.114 118.437 329.277 121.944 326.893 129.81C325.219 135.335 322.899 137.738 324.201 139.676C325.518 141.635 328.58 140.205 330.18 142.238C332.249 144.867 328.474 148.982 329.65 152.696C330.458 155.248 334.324 158.894 344.042 160.113C344.579 158.549 345.868 155.452 346.708 152.424C349.337 142.946 347.904 139.319 350.267 138.094C353.888 136.219 358.256 142.012 360.946 140.263C363.74 138.447 363.426 129.34 358.722 125.464L358.724 125.466Z" fill="#161616"/>
<path d="M339.737 130.105L340.653 132.889C340.653 132.889 337.096 141.647 336.459 144.954C335.823 148.262 345.881 151.014 345.881 151.014L347.46 149.84L350.269 150.544C350.269 150.544 350.184 140.905 352.757 134.478C352.757 134.478 348.008 128.696 339.736 130.105H339.737Z" fill="white"/>
<path d="M340.08 130.317C340.444 131.157 340.767 131.928 341.035 132.759C341.066 132.856 341.061 132.957 341.026 133.044C340.26 134.943 339.525 136.857 338.819 138.78C338.129 140.702 337.429 142.643 336.952 144.593L336.87 144.957C336.838 145.084 336.849 145.157 336.833 145.257C336.849 145.447 336.875 145.641 336.974 145.832C337.148 146.214 337.462 146.572 337.819 146.889C338.542 147.523 339.419 148.028 340.314 148.477C342.116 149.363 344.046 150.055 345.98 150.616L345.627 150.683L347.204 149.508L347.23 149.492C347.327 149.425 347.446 149.41 347.55 149.439L350.327 150.265L349.973 150.547C349.963 149.171 350.013 147.808 350.097 146.441C350.182 145.076 350.311 143.712 350.482 142.352C350.664 140.993 350.892 139.639 351.184 138.295C351.494 136.954 351.871 135.625 352.363 134.325L352.428 134.741C351.687 133.908 350.76 133.147 349.789 132.524C348.813 131.894 347.762 131.379 346.66 131.02C345.562 130.658 344.422 130.402 343.262 130.346C342.685 130.279 342.105 130.318 341.525 130.328C341.206 130.324 341.026 130.376 340.795 130.367C340.574 130.367 340.34 130.337 340.078 130.317H340.08ZM339.374 129.891C339.703 129.798 340.061 129.699 340.433 129.627C340.795 129.558 341.206 129.494 341.484 129.504C342.098 129.492 342.711 129.453 343.322 129.522C344.548 129.584 345.761 129.852 346.924 130.236C348.092 130.619 349.205 131.161 350.234 131.829C351.271 132.5 352.215 133.261 353.064 134.215C353.162 134.325 353.185 134.476 353.138 134.605L353.129 134.631C352.637 135.871 352.248 137.159 351.925 138.467C351.618 139.779 351.373 141.109 351.173 142.445C350.983 143.786 350.836 145.132 350.73 146.484C350.626 147.834 350.556 149.193 350.545 150.541C350.545 150.702 350.413 150.832 350.253 150.83C350.231 150.83 350.208 150.827 350.188 150.823L347.349 150.239L347.695 150.17L346.116 151.345L346.11 151.349C346.006 151.425 345.876 151.444 345.761 151.412C343.764 150.832 341.823 150.139 339.946 149.218C339.014 148.748 338.094 148.227 337.273 147.508C336.868 147.144 336.478 146.727 336.221 146.173C336.086 145.902 336.023 145.582 336.008 145.261C336.023 145.108 336.03 144.92 336.062 144.797L336.149 144.409C336.649 142.367 337.351 140.437 338.046 138.496C338.755 136.563 339.493 134.644 340.262 132.733L340.253 133.018C339.909 131.993 339.621 130.906 339.374 129.891Z" fill="#161616"/>
<path d="M336.344 137.838C336.344 137.838 337.225 131.437 334.238 131.652C331.25 131.866 330.459 138.937 336.344 137.838Z" fill="white"/>
<path d="M335.159 138.369C333.611 138.369 332.74 137.727 332.261 137.12C331.313 135.919 331.397 134.229 331.899 133.085C332.376 131.998 333.238 131.308 334.204 131.239C334.862 131.192 335.412 131.403 335.843 131.867C337.336 133.469 336.771 137.714 336.747 137.895C336.723 138.072 336.589 138.212 336.415 138.244C335.954 138.33 335.538 138.369 335.161 138.369H335.159ZM334.375 132.059C334.338 132.059 334.301 132.059 334.262 132.063C333.595 132.111 333.008 132.604 332.651 133.417C332.248 134.334 332.172 135.675 332.906 136.605C333.517 137.379 334.57 137.679 335.967 137.479C336.105 136.178 336.179 133.433 335.241 132.428C335.008 132.178 334.724 132.055 334.375 132.055V132.059Z" fill="#161616"/>
<path d="M487.788 338.732C487.632 338.919 487.392 339.029 487.136 339.009C486.718 338.974 486.41 338.605 486.449 338.184C487.305 329.025 487.711 319.718 487.662 310.522C487.66 310.098 488.001 309.75 488.418 309.743C488.835 309.736 489.182 310.075 489.182 310.497C489.235 319.741 488.825 329.1 487.964 338.309C487.948 338.472 487.884 338.618 487.786 338.735L487.788 338.732Z" fill="black"/>
<path d="M483.545 352.75C483.444 352.91 483.285 353.033 483.084 353.081C482.676 353.181 482.264 352.932 482.163 352.525L481.187 348.585C481.087 348.175 481.335 347.762 481.741 347.66C482.149 347.56 482.561 347.809 482.662 348.216L483.638 352.156C483.689 352.364 483.648 352.579 483.542 352.748L483.545 352.75Z" fill="black"/>
<path d="M486.959 366.541C486.858 366.701 486.699 366.824 486.498 366.872C486.09 366.972 485.678 366.723 485.577 366.316L484.601 362.376C484.501 361.966 484.749 361.553 485.155 361.451C485.563 361.351 485.975 361.6 486.076 362.007L487.052 365.947C487.103 366.155 487.062 366.37 486.956 366.539L486.959 366.541Z" fill="black"/>
<path d="M479.906 358.816C479.803 358.979 479.64 359.104 479.436 359.15L475.557 360.061C475.147 360.156 474.739 359.901 474.644 359.491C474.549 359.08 474.803 358.67 475.213 358.575L479.092 357.664C479.501 357.569 479.909 357.824 480.004 358.234C480.053 358.441 480.011 358.65 479.906 358.816Z" fill="black"/>
<path d="M493.492 355.62C493.389 355.783 493.226 355.908 493.022 355.954L489.142 356.865C488.733 356.96 488.325 356.705 488.23 356.295C488.135 355.884 488.389 355.474 488.798 355.379L492.678 354.468C493.087 354.373 493.495 354.627 493.59 355.038C493.639 355.244 493.596 355.454 493.492 355.62Z" fill="black"/>
<path d="M241.869 245.966C241.213 245.746 240.506 245.626 239.76 245.626H238.035V240.736H208.078V258.267C208.078 265.196 213.673 270.813 220.574 270.813H225.539C232.108 270.813 237.487 265.723 237.993 259.259H239.762C243.47 259.259 246.22 256.054 246.22 252.332V252.28C246.22 249.308 244.468 246.839 241.873 245.966H241.869ZM239.509 255.365H238.033V249.522H239.509C241.098 249.522 242.385 250.849 242.385 252.444C242.385 254.039 241.096 255.367 239.509 255.367V255.365Z" fill="white"/>
<path d="M225.544 271.256H220.578C213.444 271.256 207.641 265.429 207.641 258.267V240.736C207.641 240.492 207.838 240.294 208.081 240.294H238.037C238.28 240.294 238.478 240.492 238.478 240.736V245.181H239.762C240.541 245.181 241.298 245.303 242.013 245.543C244.837 246.495 246.661 249.137 246.661 252.278V252.33C246.661 256.394 243.566 259.7 239.762 259.7H238.396C237.679 266.21 232.11 271.254 225.54 271.254L225.544 271.256ZM208.525 241.179V258.267C208.525 264.941 213.932 270.37 220.58 270.37H225.546C231.796 270.37 237.071 265.475 237.559 259.226C237.577 258.996 237.769 258.818 238 258.818H239.768C243.142 258.818 245.785 255.97 245.785 252.334V252.282C245.785 249.529 244.196 247.214 241.738 246.387C241.115 246.177 240.451 246.071 239.768 246.071H238.043C237.8 246.071 237.603 245.873 237.603 245.629V241.183H208.529L208.525 241.179ZM239.515 255.808H238.039C237.796 255.808 237.599 255.61 237.599 255.366V249.523C237.599 249.279 237.796 249.081 238.039 249.081H239.515C241.346 249.081 242.833 250.591 242.833 252.446C242.833 254.301 241.346 255.81 239.515 255.81V255.808ZM238.482 254.922H239.515C240.858 254.922 241.951 253.811 241.951 252.444C241.951 251.076 240.858 249.965 239.515 249.965H238.482V254.922Z" fill="#161616"/>
<path d="M225.544 271.257H220.578C213.444 271.257 207.641 265.43 207.641 258.268V240.737C207.641 240.493 207.838 240.295 208.081 240.295C208.324 240.295 208.521 240.493 208.521 240.737V258.268C208.521 264.942 213.928 270.371 220.576 270.371H225.542C231.792 270.371 237.067 265.476 237.555 259.227C237.573 258.997 237.765 258.819 237.996 258.819H239.764C243.138 258.819 245.781 255.971 245.781 252.335V252.283C245.781 251.011 245.438 249.802 244.789 248.784C244.658 248.579 244.717 248.305 244.923 248.173C245.128 248.041 245.401 248.101 245.532 248.307C246.273 249.466 246.663 250.841 246.663 252.283V252.335C246.663 256.399 243.568 259.705 239.764 259.705H238.398C237.681 266.215 232.112 271.259 225.542 271.259L225.544 271.257ZM239.392 255.809H238.444C237.978 255.809 237.599 255.429 237.599 254.961V249.928C237.599 249.46 237.978 249.08 238.444 249.08H239.515C240.445 249.08 241.342 249.484 241.971 250.19C242.61 250.905 242.917 251.863 242.811 252.816C242.626 254.521 241.154 255.809 239.39 255.809H239.392ZM238.482 254.923H239.392C240.684 254.923 241.802 253.956 241.935 252.72C242.013 252.015 241.786 251.309 241.314 250.781C240.85 250.264 240.194 249.966 239.513 249.966H238.48V254.923H238.482ZM241.875 246.41C241.83 246.41 241.782 246.402 241.736 246.386C241.113 246.176 240.449 246.07 239.766 246.07H238.446C237.98 246.07 237.601 245.69 237.601 245.222V241.182H213.287C213.044 241.182 212.847 240.985 212.847 240.741C212.847 240.497 213.044 240.299 213.287 240.299H237.637C238.103 240.299 238.482 240.679 238.482 241.146V245.186H239.766C240.545 245.186 241.302 245.308 242.017 245.548C242.248 245.626 242.371 245.876 242.296 246.108C242.234 246.294 242.063 246.41 241.877 246.41H241.875Z" fill="#161616"/>
<path d="M223.086 260.261C226.163 260.253 228.65 257.742 228.641 254.653C228.633 251.564 226.132 249.067 223.055 249.075C219.978 249.084 217.491 251.595 217.5 254.684C217.509 257.773 220.01 260.27 223.086 260.261Z" fill="white"/>
<path d="M223.06 260.725C219.744 260.725 217.047 258.016 217.047 254.688C217.047 251.36 219.744 248.651 223.06 248.651C226.376 248.651 229.073 251.36 229.073 254.688C229.073 258.016 226.376 260.725 223.06 260.725ZM223.06 249.539C220.232 249.539 217.929 251.85 217.929 254.69C217.929 257.531 220.23 259.842 223.06 259.842C225.89 259.842 228.19 257.531 228.19 254.69C228.19 251.85 225.89 249.539 223.06 249.539Z" fill="#161616"/>
<path d="M224.177 235.967C224.096 235.967 224.014 235.945 223.94 235.897C223.871 235.853 222.235 234.778 221.831 232.801C221.56 231.472 221.909 230.076 222.871 228.651C225.48 224.783 224.627 223.076 223.723 221.269L223.649 221.121C223.54 220.903 223.63 220.637 223.847 220.527C224.066 220.417 224.329 220.507 224.438 220.725L224.512 220.871C225.444 222.736 226.502 224.851 223.602 229.149C222.781 230.364 222.476 231.532 222.693 232.615C223.018 234.224 224.404 235.146 224.418 235.154C224.621 235.288 224.681 235.562 224.548 235.765C224.464 235.897 224.321 235.967 224.177 235.967Z" fill="#161616"/>
<rect x="0.5" y="0.5" width="587" height="587" rx="11.5" stroke="#F2F2F2"/>
<defs>
<clipPath id="clip0_1034_9272">
<rect width="211.21" height="162.828" fill="white" transform="translate(105.234 120.12)"/>
</clipPath>
</defs>
</svg>
