<svg xmlns="http://www.w3.org/2000/svg" width="384" height="64" fill="none"><path d="M24.098 0L3.667 14.569l-1.048.52L0 51.512l17.288 11.447 28.813-2.081h25.67L103.203 64l31.957-5.203h35.099l33.528 4.163 28.289-4.683 11.526.52 28.289 2.602 22.003-1.041 23.05-2.081 19.383 3.122 20.432-2.081 22.002 1.561L384 42.667V27.577l-4.191-13.528-14.668-3.122-24.099 2.081-14.144-4.683-12.573 3.642-4.191-7.805-22.527-.52-3.667 8.846-28.813-1.041-13.097-7.805h-25.146l-31.432 7.805-34.576-4.163-23.051 4.163-33.528-1.041-6.286 5.203-26.194-4.683L39.291.52 24.098 0z" fill="#fff"/></svg>