<svg width="82" height="82" viewBox="0 0 82 82" fill="none" xmlns="http://www.w3.org/2000/svg">
<rect width="82" height="82" fill="#F5F8F6"/>
<rect x="82" y="1" width="6" height="1" transform="rotate(180 82 1)" fill="#C0CFC8"/>
<rect width="6" height="1" transform="matrix(-1 0 0 1 82 81)" fill="#C0CFC8"/>
<rect width="6" height="1" transform="matrix(1 0 0 -1 0 1)" fill="#C0CFC8"/>
<rect y="81" width="6" height="1" fill="#C0CFC8"/>
<rect x="82" width="6" height="1" transform="rotate(90 82 0)" fill="#C0CFC8"/>
<rect width="6" height="1" transform="matrix(0 -1 -1 0 82 82)" fill="#C0CFC8"/>
<rect width="6" height="1" transform="matrix(0 1 1 0 0 0)" fill="#C0CFC8"/>
<rect y="82" width="6" height="1" transform="rotate(-90 0 82)" fill="#C0CFC8"/>
<path d="M62.0762 47.124C63.7994 44.5458 61.6525 40.0871 57.2809 37.1651C52.9093 34.2432 47.9684 33.9645 46.2452 36.5427C44.522 39.1209 46.6689 43.5796 51.0405 46.5016C55.4121 49.4235 60.3529 49.7022 62.0762 47.124Z" fill="#C9FFE8"/>
<path d="M40.4994 58.1088C40.5314 57.9494 40.5424 57.7602 40.4237 57.6496C40.272 57.508 40.0286 57.5917 39.8383 57.6754C38.1379 58.4206 36.1977 58.5119 34.3751 58.1608C32.5521 57.8097 30.8339 57.0361 29.2249 56.11C28.6383 55.7724 28.0594 55.4107 27.5664 54.9467C27.0176 54.43 26.5901 53.8002 26.1822 53.1663C25.6051 52.2694 25.0586 51.3528 24.5433 50.4187C24.4611 50.2699 24.3483 50.1003 24.178 50.0996C23.9797 50.0985 23.868 50.3219 23.8054 50.5104C23.4182 51.6795 23.122 52.9895 23.6267 54.1131C23.7872 54.4704 24.0215 54.7888 24.2559 55.1028C25.1928 56.3596 26.1727 57.6143 27.4321 58.5483C28.8013 59.5639 30.4344 60.1515 32.0511 60.6926C32.6715 60.9 33.2988 61.1042 33.9487 61.1777C34.7517 61.2683 35.5632 61.1566 36.3619 61.0321C37.4127 60.8684 38.5087 60.661 39.3416 59.9998C39.9332 59.5304 40.351 58.8482 40.4994 58.1088Z" fill="#C9FFE8"/>
<path d="M24.9939 38.2449C23.5853 38.2449 22.3271 37.9072 21.3552 37.2682C20.8545 36.9415 20.428 36.5339 20.0893 36.0584C19.002 34.5323 18.8943 32.4757 19.7858 30.2663C20.6325 28.1682 22.2972 26.1589 24.4732 24.6088C26.7881 22.9594 29.4684 22.0137 31.8259 22.0137C33.9826 22.0137 35.7244 22.7913 36.7305 24.2038C37.0689 24.6787 37.3149 25.2146 37.4608 25.7972C38.2464 28.8908 36.1407 32.944 32.3397 35.6519C30.0266 37.2999 27.3496 38.2449 24.9939 38.2449ZM31.8259 23.4619C29.7624 23.4619 27.3889 24.3097 25.3134 25.7885C23.3597 27.1803 21.8737 28.9632 21.1288 30.8084C20.4288 32.5426 20.4786 34.1087 21.2689 35.2182C21.5022 35.546 21.7984 35.828 22.1488 36.0569C22.886 36.5412 23.8692 36.7967 24.9942 36.7967C27.0552 36.7967 29.4266 35.9496 31.5003 34.4726C34.7729 32.1409 36.6894 28.6416 36.057 26.1516C35.9548 25.7433 35.7848 25.3711 35.5516 25.0444C34.8242 24.0237 33.5015 23.4619 31.8259 23.4619Z" fill="#0F5251"/>
<path d="M26.6811 40.6226C24.5245 40.6226 22.7826 39.8443 21.7762 38.4314L20.0874 36.0608C19.8556 35.7355 19.9313 35.2832 20.257 35.051C20.5827 34.8189 21.0346 34.8953 21.2667 35.2206L21.2689 35.2235C21.5022 35.5499 21.7973 35.8312 22.1466 36.0593C22.8838 36.5436 23.867 36.7991 24.992 36.7991C27.053 36.7994 29.4244 35.952 31.4981 34.475C34.7707 32.1433 36.6872 28.644 36.0548 26.154C35.9526 25.7465 35.7834 25.375 35.5508 25.0486L35.5494 25.0464C35.3176 24.7207 35.3933 24.2688 35.719 24.0366C36.045 23.8049 36.4969 23.8805 36.7287 24.2062L38.4174 26.5772C40.5872 29.6224 38.6186 34.7599 34.0295 38.0293C31.716 39.6773 29.0376 40.6226 26.6819 40.623L26.6811 40.6226ZM23.3972 38.0904C24.1631 38.7938 25.3032 39.1744 26.6811 39.1744C28.7432 39.174 31.1153 38.3266 33.1893 36.8493C36.7614 34.3044 38.6161 30.4309 37.5645 27.9977C37.2156 30.642 35.2867 33.553 32.3375 35.6543C30.0244 37.3023 27.347 38.2473 24.992 38.2473C24.4342 38.2469 23.8997 38.1941 23.3972 38.0904Z" fill="#0F5251"/>
<path d="M30.9279 30.6815C30.9805 30.7535 31.0215 30.8181 31.0511 30.8754C31.0788 30.93 31.0959 30.9786 31.1025 31.021C31.1118 31.0616 31.1118 31.0951 31.1026 31.1215C31.0934 31.1479 31.0769 31.1698 31.053 31.1872L27.8607 33.5174C27.8368 33.5348 27.8109 33.5439 27.7829 33.5446C27.755 33.5453 27.7218 33.536 27.6833 33.5168C27.6476 33.4956 27.6079 33.4635 27.5642 33.4205C27.5187 33.3749 27.4697 33.3161 27.4172 33.2441C27.3628 33.1695 27.3204 33.1059 27.29 33.0532C27.2605 32.996 27.2411 32.9471 27.2318 32.9065C27.2252 32.8641 27.2265 32.8296 27.2357 32.8032C27.2475 32.7749 27.2654 32.752 27.2893 32.7345L27.7112 32.4266L26.7091 31.0537L26.2872 31.3617C26.2633 31.3791 26.2384 31.3895 26.2123 31.3927C26.1843 31.3934 26.1521 31.3855 26.1155 31.3688C26.0797 31.3476 26.04 31.3155 25.9964 31.2725C25.9528 31.2295 25.9038 31.1707 25.8493 31.0961C25.7968 31.0241 25.7553 30.9618 25.725 30.9091C25.6973 30.8544 25.6798 30.8081 25.6724 30.7701C25.6658 30.7277 25.6671 30.6932 25.6763 30.6668C25.6881 30.6384 25.706 30.6156 25.7299 30.5981L26.1518 30.2901L25.8928 29.9354C25.6639 29.6217 25.5027 29.3256 25.4092 29.0471C25.3138 28.766 25.2817 28.5018 25.3127 28.2545C25.3437 28.0073 25.437 27.7757 25.5925 27.5597C25.7462 27.3411 25.9557 27.135 26.2211 26.9413C26.3378 26.8561 26.4559 26.7837 26.5751 26.7242C26.6952 26.6602 26.8116 26.6107 26.9243 26.5757C27.0352 26.5382 27.1415 26.5138 27.2432 26.5026C27.3456 26.487 27.4249 26.4842 27.4812 26.4944C27.5401 26.5026 27.5846 26.5135 27.6148 26.5269C27.6457 26.5359 27.6773 26.5542 27.7097 26.5818C27.7402 26.6068 27.7736 26.6415 27.8101 26.6858C27.8491 26.7282 27.8931 26.7829 27.9419 26.8497C27.9944 26.9217 28.0345 26.985 28.0622 27.0397C28.0926 27.0924 28.1124 27.139 28.1216 27.1796C28.129 27.2175 28.1281 27.2497 28.1189 27.2761C28.1097 27.3025 28.0945 27.3235 28.0733 27.339C28.0361 27.3661 27.9805 27.3791 27.9065 27.378C27.8351 27.3749 27.7486 27.3789 27.6469 27.3901C27.546 27.3968 27.4347 27.417 27.3129 27.4507C27.1911 27.4844 27.0638 27.5497 26.9311 27.6466C26.7984 27.7434 26.7016 27.8476 26.6406 27.9591C26.5778 28.068 26.5472 28.1849 26.5489 28.3098C26.5487 28.4321 26.5794 28.5634 26.641 28.7036C26.7008 28.8412 26.787 28.9871 26.8996 29.1414L27.1867 29.5347L28.2575 28.7532C28.2813 28.7358 28.3073 28.7267 28.3352 28.726C28.3658 28.7233 28.399 28.7326 28.4348 28.7538C28.4687 28.7724 28.5075 28.8032 28.5511 28.8462C28.5947 28.8893 28.6428 28.9468 28.6953 29.0188C28.7498 29.0933 28.7908 29.1579 28.8185 29.2126C28.8462 29.2672 28.8634 29.3158 28.87 29.3583C28.8773 29.3962 28.8764 29.4284 28.8672 29.4548C28.8562 29.4787 28.8387 29.4993 28.8148 29.5167L27.7441 30.2983L28.7461 31.6712L30.4816 30.4044C30.5055 30.387 30.5314 30.3779 30.5594 30.3772C30.59 30.3746 30.6232 30.3838 30.659 30.405C30.6948 30.4262 30.7354 30.4595 30.7809 30.5051C30.8245 30.5482 30.8735 30.607 30.9279 30.6815Z" fill="#0F5251"/>
<path d="M36.4233 59.3753C34.4679 59.3753 32.388 58.8681 30.4082 57.9082C26.2117 55.8738 23.4615 52.2293 23.7199 49.0454C23.7665 48.4497 23.9193 47.8803 24.174 47.3545C25.1332 45.3758 27.3699 44.2412 30.3103 44.2412C32.2647 44.2412 34.3435 44.7484 36.3229 45.708C38.727 46.8735 40.7039 48.5771 41.8901 50.5052C43.1389 52.5353 43.3766 54.5817 42.5589 56.2679C42.3042 56.7933 41.952 57.2663 41.511 57.6735C40.3313 58.7706 38.524 59.3753 36.4233 59.3753ZM30.3103 45.6891C27.9462 45.6891 26.1847 46.5263 25.477 47.9862C25.3016 48.3482 25.1961 48.7437 25.1637 49.1607C24.9556 51.7239 27.427 54.8535 31.0399 56.6055C32.8239 57.4701 34.6855 57.9275 36.4233 57.9275C38.1568 57.9275 39.6141 57.4603 40.5267 56.6117C40.8356 56.3265 41.0805 55.9986 41.2563 55.6366C41.8505 54.411 41.6373 52.8584 40.657 51.2643C39.6134 49.5683 37.8501 48.0579 35.6912 47.011C33.9075 46.1461 32.0474 45.6891 30.3103 45.6891Z" fill="#0F5251"/>
<path d="M35.156 62.0007C33.2002 62.0007 31.1199 61.4934 29.1394 60.5332C26.7357 59.3681 24.7591 57.6648 23.5744 55.737C22.327 53.7077 22.0901 51.6617 22.9077 49.9755L24.1766 47.3582C24.1769 47.3574 24.1769 47.3571 24.1777 47.3563C24.3523 46.9968 24.7857 46.8466 25.1448 47.0208C25.5047 47.1951 25.655 47.6281 25.4803 47.988C25.3049 48.3501 25.1994 48.7456 25.167 49.1626C24.9589 51.7257 27.4303 54.8554 31.0432 56.6074C32.8272 57.4719 34.6888 57.9293 36.4266 57.9293C38.1601 57.9293 39.6174 57.4621 40.53 56.6136C40.8389 56.3283 41.0838 56.0004 41.2596 55.6384C41.4342 55.2789 41.868 55.1286 42.2267 55.3029C42.5866 55.4772 42.7369 55.9102 42.5622 56.2701C42.5619 56.2712 42.5611 56.2723 42.5608 56.273L41.2927 58.8892C40.3342 60.8665 38.0972 62.0007 35.156 62.0007ZM23.9844 51.2308C23.7061 52.3399 23.9881 53.6448 24.8082 54.9783C25.8504 56.674 27.613 58.1837 29.7711 59.2302C31.5559 60.0955 33.4178 60.5525 35.156 60.5525C37.1977 60.5525 38.79 59.9288 39.6422 58.8194C38.7037 59.1843 37.6118 59.3768 36.4266 59.3768C34.4712 59.3768 32.3913 58.8696 30.4115 57.9097C27.1545 56.3308 24.7682 53.7816 23.9844 51.2308Z" fill="#0F5251"/>
<path d="M34.0849 54.1457C34.0439 54.2248 34.0044 54.2904 33.9663 54.3424C33.9298 54.3915 33.894 54.4285 33.8589 54.4534C33.8267 54.4798 33.7968 54.4947 33.7691 54.4983C33.7413 54.5018 33.7143 54.4968 33.6881 54.4832L30.1785 52.6657C30.1522 52.6521 30.1326 52.6329 30.1195 52.6082C30.1064 52.5835 30.0998 52.5497 30.0999 52.5067C30.1029 52.4652 30.1139 52.4154 30.1329 52.3571C30.1535 52.2961 30.1842 52.226 30.2252 52.1468C30.2677 52.0649 30.3057 51.9986 30.3393 51.9479C30.3774 51.8959 30.4125 51.8567 30.4446 51.8303C30.4797 51.8055 30.5111 51.7913 30.5388 51.7877C30.5695 51.7857 30.5979 51.7915 30.6242 51.8051L31.0881 52.0453L31.8697 50.536L31.4058 50.2958C31.3796 50.2822 31.3592 50.2644 31.3446 50.2426C31.3315 50.2178 31.3242 50.1854 31.3228 50.1453C31.3258 50.1038 31.3368 50.0539 31.3559 49.9957C31.3749 49.9375 31.4057 49.8674 31.4481 49.7854C31.4891 49.7063 31.5264 49.6414 31.5601 49.5907C31.5966 49.5415 31.6303 49.5052 31.661 49.4816C31.696 49.4568 31.7274 49.4426 31.7552 49.439C31.7858 49.437 31.8143 49.4427 31.8405 49.4563L32.3044 49.6966L32.5064 49.3065C32.685 48.9617 32.878 48.6853 33.0856 48.4774C33.2946 48.2666 33.5167 48.12 33.7519 48.0374C33.987 47.9549 34.2359 47.9351 34.4986 47.9779C34.7628 48.0179 35.0407 48.1135 35.3324 48.2646C35.4608 48.331 35.5782 48.4044 35.6847 48.4846C35.7955 48.5635 35.8917 48.6456 35.9733 48.7309C36.0564 48.8133 36.1256 48.8976 36.181 48.9836C36.2407 49.0683 36.2786 49.1381 36.2946 49.1929C36.3135 49.2493 36.3236 49.294 36.325 49.327C36.3308 49.3587 36.3286 49.3952 36.3183 49.4364C36.3095 49.4749 36.2934 49.5203 36.2699 49.5727C36.2494 49.6266 36.2201 49.6903 36.1821 49.7638C36.1411 49.8429 36.1023 49.907 36.0658 49.9562C36.0321 50.0069 35.9992 50.0454 35.9671 50.0718C35.9364 50.0953 35.9072 50.1089 35.8794 50.1124C35.8517 50.116 35.8262 50.1117 35.8028 50.0996C35.762 50.0785 35.7255 50.0345 35.6935 49.9677C35.6644 49.9025 35.6222 49.8269 35.5668 49.7408C35.5159 49.6535 35.4481 49.5629 35.3636 49.4689C35.2791 49.375 35.1639 49.2902 35.018 49.2147C34.8721 49.1391 34.7357 49.0989 34.6087 49.0941C34.4832 49.0865 34.3649 49.1112 34.2539 49.1684C34.1443 49.2228 34.0406 49.3089 33.9426 49.4266C33.8461 49.5415 33.7539 49.6838 33.6661 49.8533L33.4422 50.2858L34.6193 50.8954C34.6456 50.909 34.6652 50.9281 34.6783 50.9528C34.6944 50.9791 34.7009 51.0129 34.6979 51.0544C34.6964 51.093 34.6861 51.1415 34.6671 51.1997C34.648 51.2579 34.618 51.3266 34.577 51.4058C34.5345 51.4877 34.495 51.5533 34.4585 51.6025C34.4219 51.6516 34.3861 51.6886 34.351 51.7135C34.3203 51.737 34.2911 51.7506 34.2634 51.7541C34.2371 51.7549 34.2108 51.7484 34.1846 51.7348L33.0074 51.1252L32.2258 52.6345L34.1338 53.6226C34.16 53.6362 34.1797 53.6553 34.1928 53.68C34.2088 53.7062 34.2153 53.7401 34.2124 53.7816C34.2094 53.823 34.1976 53.8743 34.1771 53.9354C34.1581 53.9936 34.1273 54.0637 34.0849 54.1457Z" fill="#0F5251"/>
<path d="M57.4621 50.0353C55.0126 50.0353 52.246 48.9812 49.8718 47.1433C46.184 44.2884 44.2431 40.1559 45.1517 37.0935C45.3201 36.5194 45.5869 35.9936 45.9442 35.5322C46.9434 34.2419 48.5917 33.5312 50.5857 33.5312C53.0335 33.5312 55.7985 34.585 58.1721 36.4222C62.6273 39.8713 64.3895 45.0831 62.1004 48.0399C61.7431 48.502 61.3003 48.8921 60.7854 49.1995C59.8772 49.7461 58.7273 50.0353 57.4621 50.0353ZM50.5857 34.9791C49.4992 34.9791 48.0102 35.2287 47.0893 36.4186C46.8433 36.7362 46.6584 37.1012 46.5406 37.5033C45.8092 39.9681 47.583 43.5399 50.7585 45.9982C52.8839 47.6436 55.3273 48.5871 57.4625 48.5871C58.4642 48.5871 59.3561 48.3695 60.0409 47.9573C60.4022 47.7415 60.709 47.4715 60.9557 47.1531C62.7557 44.8276 61.1096 40.527 57.2857 37.5666C55.161 35.9226 52.7191 34.9791 50.5857 34.9791Z" fill="#0F5251"/>
<path d="M55.6993 52.3421C53.2497 52.3421 50.4828 51.2876 48.1079 49.4494C43.6548 46.0021 41.894 40.7914 44.1831 37.8346L45.965 35.5328C46.2095 35.2166 46.664 35.1587 46.9809 35.4036C47.2972 35.6485 47.355 36.103 47.1101 36.4195L47.1079 36.4224C46.8627 36.7394 46.6789 37.1036 46.5614 37.5042C45.83 39.9691 47.6039 43.5408 50.7794 45.9991C52.9048 47.6446 55.3482 48.5881 57.4834 48.5881C58.4851 48.5881 59.3769 48.3705 60.0617 47.9582C60.422 47.7432 60.7283 47.4735 60.9743 47.1563L60.9761 47.1537C61.2207 46.8375 61.6755 46.7796 61.9921 47.0245C62.3083 47.2694 62.3661 47.7239 62.1213 48.0405L60.3394 50.3419C59.3409 51.6319 57.6929 52.3421 55.6993 52.3421ZM44.9778 39.2817C43.7894 41.6898 45.4618 45.5698 48.9942 48.3043C51.12 49.9501 53.5641 50.8939 55.6989 50.8939C56.6202 50.8939 57.8301 50.7145 58.738 49.9355C58.3366 50.0021 57.9164 50.0363 57.4826 50.0363C55.033 50.0363 52.2665 48.9822 49.8923 47.1442C47.029 44.9275 45.2187 41.9402 44.9778 39.2817Z" fill="#0F5251"/>
<path d="M54.7589 45.2447C54.7051 45.3157 54.655 45.3736 54.6087 45.4184C54.5643 45.4606 54.5227 45.491 54.4839 45.5095C54.4478 45.53 54.4157 45.5397 54.3878 45.5385C54.3598 45.5372 54.3341 45.5277 54.3105 45.5098L51.161 43.1221C51.1375 43.1043 51.1213 43.0821 51.1126 43.0555C51.1039 43.0289 51.1032 42.9945 51.1106 42.9521C51.1206 42.9117 51.1399 42.8645 51.1686 42.8103C51.1992 42.7537 51.2414 42.6898 51.2953 42.6188C51.351 42.5452 51.3998 42.4863 51.4416 42.4421C51.4879 42.3974 51.5291 42.3647 51.5653 42.3442C51.6041 42.3257 51.6374 42.317 51.6654 42.3182C51.6959 42.3214 51.723 42.3319 51.7466 42.3498L52.1628 42.6654L53.1897 41.311L52.7734 40.9954C52.7498 40.9775 52.7327 40.9566 52.7221 40.9325C52.7134 40.9059 52.7117 40.8727 52.7172 40.8329C52.7272 40.7926 52.7465 40.7453 52.7752 40.6912C52.8039 40.637 52.8461 40.5732 52.9019 40.4996C52.9557 40.4286 53.0035 40.371 53.0453 40.3268C53.0897 40.2845 53.129 40.2544 53.1632 40.2364C53.202 40.2179 53.2354 40.2093 53.2633 40.2105C53.2939 40.2137 53.3209 40.2242 53.3445 40.2421L53.7608 40.5576L54.0261 40.2076C54.2607 39.8982 54.498 39.6586 54.7379 39.489C54.9797 39.3169 55.2235 39.2101 55.4692 39.1688C55.715 39.1274 55.9636 39.1501 56.2152 39.237C56.4687 39.3214 56.7264 39.4628 56.9882 39.6613C57.1034 39.7486 57.2066 39.8408 57.2978 39.938C57.3937 40.0346 57.4745 40.1318 57.5405 40.2298C57.6083 40.3251 57.6622 40.4199 57.7021 40.5141C57.7466 40.6077 57.772 40.6829 57.7785 40.7397C57.7875 40.7985 57.7899 40.8442 57.7857 40.877C57.786 40.9092 57.7776 40.9448 57.7605 40.9837C57.7452 41.0201 57.7216 41.0621 57.6896 41.1097C57.6603 41.1594 57.6206 41.2171 57.5706 41.2831C57.5167 41.3541 57.4676 41.4107 57.4232 41.453C57.3815 41.4972 57.3425 41.5296 57.3063 41.5501C57.2721 41.568 57.241 41.5764 57.2131 41.5752C57.1851 41.574 57.1607 41.5655 57.1397 41.5496C57.1031 41.5218 57.0746 41.4723 57.0544 41.4011C57.0369 41.3318 57.0081 41.2501 56.9682 41.1559C56.9328 41.0612 56.8814 40.9604 56.8141 40.8534C56.7468 40.7464 56.6477 40.6433 56.5168 40.5441C56.3859 40.4448 56.2583 40.3821 56.1339 40.3557C56.0115 40.3268 55.8908 40.3311 55.7716 40.3686C55.6544 40.4036 55.5376 40.4708 55.421 40.5701C55.3064 40.6669 55.1914 40.7915 55.076 40.9436L54.7818 41.3317L55.8382 42.1326C55.8617 42.1504 55.8779 42.1726 55.8866 42.1992C55.8979 42.2278 55.8986 42.2622 55.8886 42.3026C55.8805 42.3404 55.8622 42.3864 55.8335 42.4406C55.8048 42.4947 55.7635 42.5573 55.7097 42.6283C55.6539 42.7019 55.6039 42.7598 55.5595 42.802C55.5151 42.8442 55.4735 42.8746 55.4347 42.8931C55.4005 42.9111 55.3694 42.9195 55.3414 42.9183C55.3154 42.9145 55.2906 42.9037 55.2671 42.8859L54.2107 42.085L53.1839 43.4395L54.896 44.7375C54.9196 44.7554 54.9357 44.7776 54.9445 44.8042C54.9558 44.8327 54.9565 44.8672 54.9465 44.9075C54.9365 44.9479 54.9162 44.9964 54.8856 45.0531C54.8569 45.1073 54.8147 45.1711 54.7589 45.2447Z" fill="#0F5251"/>
</svg>
