<svg xmlns="http://www.w3.org/2000/svg" width="82" height="82" fill="none"><path fill="#f5f8f6" d="M0 0h82v82H0z"/><g fill="#c0cfc8"><path d="M82 1h-6V0h6zm0 80h-6v1h6zM0 1h6V0H0zm0 80h6v1H0z"/><path d="M82 0v6h-1V0zm0 82v-6h-1v6zM0 0v6h1V0zm0 82v-6h1v6z"/></g><path d="M62.076 47.124c1.723-2.578-.424-7.037-4.795-9.959s-9.312-3.201-11.036-.622.424 7.037 4.795 9.959 9.312 3.201 11.036.622zM40.499 58.109c.032-.159.043-.349-.076-.459-.152-.142-.395-.058-.585.026-1.7.745-3.641.836-5.463.485s-3.541-1.125-5.15-2.051c-.587-.338-1.166-.699-1.658-1.163-.549-.517-.976-1.147-1.384-1.78l-1.639-2.748c-.082-.149-.195-.318-.365-.319-.198-.001-.31.222-.373.411-.387 1.169-.683 2.479-.179 3.603.16.357.395.676.629.99.937 1.257 1.917 2.511 3.176 3.445 1.369 1.016 3.002 1.603 4.619 2.144.62.207 1.248.412 1.898.485.803.091 1.614-.021 2.413-.146 1.051-.164 2.147-.371 2.98-1.032.592-.469 1.009-1.152 1.158-1.891z" fill="#c9ffe8"/><g fill="#0f5251"><path d="M24.994 38.245c-1.409 0-2.667-.338-3.639-.977-.501-.327-.927-.734-1.266-1.21-1.087-1.526-1.195-3.583-.304-5.792.847-2.098 2.511-4.107 4.687-5.658 2.315-1.649 4.995-2.595 7.353-2.595 2.157 0 3.899.778 4.905 2.19a4.7 4.7 0 0 1 .73 1.593c.786 3.094-1.32 7.147-5.121 9.855-2.313 1.648-4.99 2.593-7.346 2.593zm6.832-14.783c-2.064 0-4.437.848-6.512 2.327-1.954 1.392-3.44 3.175-4.185 5.02-.7 1.734-.65 3.3.14 4.41a3.26 3.26 0 0 0 .88.839c.737.484 1.72.74 2.845.74 2.061 0 4.432-.847 6.506-2.324 3.273-2.332 5.189-5.831 4.557-8.321-.102-.408-.272-.78-.505-1.107-.727-1.021-2.05-1.582-3.726-1.582zm-5.896 4.231l.778-.554.326.457c.917-.553 1.702-.64 2.358-.261l-.871 1.043c-.483-.236-.943-.198-1.382.114-.219.156-.364.325-.436.505s-.064.332.023.454.221.175.397.15.509-.137 1.001-.339l1.303-.469c.332-.091.635-.108.912-.051a1.03 1.03 0 0 1 .657.424c.247.346.29.75.131 1.211s-.529.93-1.109 1.405l.422.593-.778.554-.42-.59c-1.065.658-1.964.73-2.695.215l1.06-1.057c.419.353.942.306 1.569-.141.293-.209.476-.409.548-.599s.062-.351-.032-.482-.239-.189-.426-.16-.557.159-1.109.389c-.496.21-.897.355-1.203.434s-.594.089-.863.029-.482-.2-.64-.421c-.206-.29-.258-.647-.156-1.07s.424-.865.963-1.327l-.326-.458z"/><path d="M26.681 40.623c-2.157 0-3.899-.778-4.905-2.191l-1.689-2.371c-.232-.325-.156-.778.17-1.01s.778-.156 1.01.17l.002.003a3.26 3.26 0 0 0 .878.836c.737.484 1.72.74 2.845.74 2.061 0 4.432-.847 6.506-2.324 3.273-2.332 5.189-5.831 4.557-8.321a3.26 3.26 0 0 0-.504-1.105l-.001-.002c-.232-.326-.156-.778.17-1.01s.778-.156 1.01.17l1.689 2.371c2.17 3.045.201 8.183-4.388 11.452-2.313 1.648-4.992 2.593-7.348 2.594h-.001zm-3.284-2.532c.766.703 1.906 1.084 3.284 1.084 2.062 0 4.434-.848 6.508-2.325 3.572-2.545 5.427-6.418 4.375-8.852-.349 2.644-2.278 5.555-5.227 7.657-2.313 1.648-4.99 2.593-7.345 2.593a7.88 7.88 0 0 1-1.595-.157zm13.026 21.284c-1.955 0-4.035-.507-6.015-1.467-4.196-2.034-6.947-5.679-6.688-8.863.047-.596.199-1.165.454-1.691.959-1.979 3.196-3.113 6.136-3.113 1.954 0 4.033.507 6.013 1.467 2.404 1.166 4.381 2.869 5.567 4.797 1.249 2.03 1.487 4.076.669 5.763a4.7 4.7 0 0 1-1.048 1.406c-1.18 1.097-2.987 1.702-5.088 1.702zM30.31 45.689c-2.364 0-4.126.837-4.833 2.297a3.26 3.26 0 0 0-.313 1.175c-.208 2.563 2.263 5.693 5.876 7.445 1.784.865 3.646 1.322 5.383 1.322s3.191-.467 4.103-1.316a3.27 3.27 0 0 0 .73-.975c.594-1.226.381-2.778-.599-4.372-1.044-1.696-2.807-3.206-4.966-4.253-1.784-.865-3.644-1.322-5.381-1.322zm4.003 2.78l.86.417-.245.505c.924.539 1.378 1.187 1.36 1.944l-1.334-.264c-.025-.537-.279-.922-.763-1.157-.242-.118-.46-.164-.652-.14s-.322.103-.388.238-.047.278.059.42.365.38.777.716l1.037.918c.239.246.4.504.483.775s.064.53-.057.78c-.185.382-.518.614-.999.696s-1.069-.018-1.765-.299l-.317.655-.86-.417.316-.651c-1.089-.619-1.582-1.373-1.482-2.263l1.436.423c-.108.537.183.973.876 1.309.324.156.587.222.788.193s.338-.115.409-.259c.073-.15.051-.3-.064-.452s-.406-.413-.874-.786c-.422-.333-.741-.616-.958-.847s-.363-.478-.439-.743-.056-.519.063-.763c.155-.321.444-.537.863-.651s.962-.043 1.627.208l.246-.506z"/><path d="M35.156 62.001c-1.956 0-4.036-.507-6.017-1.468-2.404-1.165-4.38-2.868-5.565-4.796-1.247-2.029-1.484-4.075-.667-5.762l1.269-2.617c.176-.361.609-.512.968-.337s.51.607.335.967-.281.758-.313 1.175c-.208 2.563 2.263 5.693 5.876 7.445 1.784.864 3.646 1.322 5.383 1.322s3.191-.467 4.103-1.316a3.27 3.27 0 0 0 .73-.975c.175-.359.608-.51.967-.335s.51.607.335.967l-1.269 2.619c-.959 1.977-3.196 3.111-6.137 3.111zm-11.172-10.77c-.278 1.109.004 2.414.824 3.747 1.042 1.696 2.805 3.205 4.963 4.252 1.785.865 3.647 1.322 5.385 1.322 2.042 0 3.634-.624 4.486-1.733-.939.365-2.03.557-3.216.557-1.955 0-4.035-.507-6.015-1.467-3.257-1.579-5.643-4.128-6.427-6.679zm33.478-1.196c-2.45 0-5.216-1.054-7.59-2.892-3.688-2.855-5.629-6.987-4.72-10.05.168-.574.435-1.1.793-1.561.999-1.29 2.648-2.001 4.642-2.001 2.448 0 5.213 1.054 7.586 2.891 4.455 3.449 6.217 8.661 3.928 11.618a4.7 4.7 0 0 1-1.315 1.16c-.908.547-2.058.836-3.323.836zm-6.876-15.056c-1.087 0-2.576.25-3.496 1.439-.246.318-.431.683-.549 1.085-.731 2.465 1.042 6.037 4.218 8.495 2.125 1.645 4.569 2.589 6.704 2.589 1.002 0 1.894-.218 2.578-.63.361-.216.668-.486.915-.804 1.8-2.326.154-6.626-3.67-9.586-2.125-1.644-4.567-2.587-6.7-2.587zm5.059 3.731l.756.584-.344.445c.794.718 1.104 1.446.931 2.182l-1.251-.533c.086-.53-.083-.96-.508-1.289-.213-.164-.416-.255-.61-.272s-.337.035-.429.154-.104.262-.029.423.279.447.613.86l.826 1.112c.183.291.287.576.313.858a1.03 1.03 0 0 1-.216.75c-.26.335-.634.494-1.121.476s-1.043-.238-1.665-.657l-.446.576-.756-.585.443-.573c-.938-.83-1.266-1.669-.984-2.519l1.318.71c-.217.503-.021.99.588 1.461.285.22.529.338.732.352s.355-.043.453-.17.112-.283.03-.455-.313-.488-.693-.95c-.344-.413-.599-.755-.763-1.026a1.83 1.83 0 0 1-.277-.817c-.02-.274.052-.52.219-.734.218-.282.544-.434.979-.459s.951.155 1.549.538l.344-.444z"/><path d="M55.699 52.342c-2.45 0-5.217-1.055-7.591-2.893-4.453-3.447-6.214-8.658-3.925-11.615l1.782-2.302c.244-.316.699-.374 1.016-.129s.374.699.129 1.016l-.002.003c-.245.317-.429.681-.547 1.082-.731 2.465 1.043 6.037 4.218 8.495 2.125 1.645 4.569 2.589 6.704 2.589 1.002 0 1.893-.218 2.578-.63a3.26 3.26 0 0 0 .913-.802l.002-.003c.245-.316.699-.374 1.016-.129s.374.699.129 1.016l-1.782 2.301c-.998 1.29-2.646 2-4.64 2zm-10.721-13.06c-1.188 2.408.484 6.288 4.016 9.023 2.126 1.646 4.57 2.59 6.705 2.59.921 0 2.131-.179 3.039-.958-.401.067-.822.101-1.255.101-2.45 0-5.216-1.054-7.59-2.892-2.863-2.217-4.674-5.204-4.914-7.862z"/></g></svg>