<svg xmlns="http://www.w3.org/2000/svg" width="82" height="82" fill="none"><path fill="#f2f2f2" d="M0 0h82v82H0z"/><g stroke="#161616" stroke-width="2" stroke-linejoin="round"><path d="M67.104 13H27.945v23.059h39.158V13z"/><path d="M47.53 31.118c3.604 0 6.526-2.95 6.526-6.588s-2.922-6.588-6.526-6.588-6.526 2.95-6.526 6.588 2.922 6.588 6.526 6.588z"/><g stroke-linecap="round"><path d="M63.841 19.588c-1.909 0-3.263-1.367-3.263-3.294M31.215 29.471c1.909 0 3.263 1.367 3.263 3.294"/><path d="M31.215 19.588c1.909 0 3.263-1.367 3.263-3.294m29.363 13.177c-1.909 0-3.263 1.367-3.263 3.294m-4.766 19.286L68.571 49.3c1.256-.313 2.757.313 3.263 1.565.555 1.351-.392 2.701-1.632 3.377l-22.271 9.471c-3.606 1.367-7.962 1.993-11.829 1.993-2.627 0-4.715-.247-7.261-.889l-2.529-.758"/></g><path d="M26.316 65.706L21.421 69 10 47.588l4.895-3.294 11.421 21.412z"/><path d="M36.107 55.823h15.5c2.252 0 4.079-1.845 4.079-4.118s-1.827-4.118-4.079-4.118H41.001l-1.387-1.054c-3.328-2.52-7.391-3.887-11.552-3.887-2.627 0-5.238.543-7.652 1.598l-3.883 1.697" stroke-linecap="round"/></g></svg>