<svg width="590" height="520" viewBox="0 0 590 520" fill="none" xmlns="http://www.w3.org/2000/svg">
<path d="M287.434 497.126C275.484 497.126 263.503 495.754 251.712 493.003C251.373 492.924 251.166 492.585 251.243 492.25C251.322 491.912 251.661 491.704 251.997 491.781C280.693 498.482 310.519 496.93 338.256 487.289C338.586 487.175 338.942 487.348 339.056 487.675C339.17 488.002 338.996 488.36 338.669 488.474C322.105 494.231 304.798 497.126 287.431 497.126H287.434Z" fill="#161616"/>
<path d="M338.471 488.512C338.212 488.512 337.967 488.35 337.879 488.091C337.765 487.764 337.938 487.406 338.266 487.293C339.592 486.832 340.925 486.349 342.231 485.855C342.556 485.736 342.92 485.895 343.042 486.219C343.165 486.543 343.003 486.904 342.678 487.029C341.36 487.526 340.016 488.015 338.681 488.478C338.613 488.5 338.545 488.512 338.474 488.512H338.471Z" fill="#161616"/>
<path d="M291.535 506.579C273.909 506.579 256.212 503.996 239.102 498.805C238.769 498.703 238.584 498.353 238.683 498.024C238.786 497.694 239.136 497.506 239.466 497.606C277.912 509.273 319.352 507.676 356.158 493.108C356.477 492.98 356.847 493.139 356.972 493.46C357.1 493.781 356.941 494.145 356.619 494.273C335.933 502.459 313.79 506.579 291.532 506.579H291.535Z" fill="#161616"/>
<path d="M349.129 487.226C349.103 487.226 349.074 487.226 349.046 487.22C348.841 487.194 348.664 487.069 348.571 486.885L345.53 480.989C345.428 480.79 345.439 480.551 345.562 480.363C345.681 480.176 345.886 480.062 346.12 480.076L354.176 480.466C354.418 480.477 354.634 480.628 354.725 480.852C354.819 481.077 354.773 481.335 354.608 481.514L349.593 487.021C349.473 487.152 349.302 487.226 349.129 487.226ZM347.144 481.381L349.274 485.509L352.784 481.656L347.144 481.383V481.381Z" fill="#161616"/>
<path d="M221.777 87.8914C221.618 87.8914 221.455 87.8289 221.333 87.7095L218.552 84.9419C218.307 84.6975 218.304 84.2997 218.552 84.0553C218.797 83.811 219.195 83.811 219.44 84.0553L222.221 86.823C222.466 87.0674 222.469 87.4652 222.221 87.7095C222.099 87.8317 221.936 87.8942 221.777 87.8942V87.8914Z" fill="#161616"/>
<path d="M231.519 97.577C231.36 97.577 231.198 97.5144 231.075 97.3951L228.294 94.6275C228.049 94.3831 228.046 93.9853 228.294 93.7409C228.539 93.4965 228.937 93.4965 229.182 93.7409L231.963 96.5085C232.208 96.7529 232.211 97.1507 231.963 97.3951C231.841 97.5173 231.679 97.5798 231.519 97.5798V97.577Z" fill="#161616"/>
<path d="M219.003 97.5759C218.84 97.5759 218.681 97.5134 218.559 97.3912C218.314 97.1468 218.314 96.749 218.559 96.5046L221.34 93.737C221.585 93.4926 221.983 93.4926 222.228 93.737C222.473 93.9814 222.473 94.3792 222.228 94.6235L219.447 97.3912C219.324 97.5134 219.165 97.5731 219.003 97.5731V97.5759Z" fill="#161616"/>
<path d="M228.737 87.8923C228.575 87.8923 228.415 87.8298 228.293 87.7076C228.048 87.4632 228.048 87.0654 228.293 86.821L231.074 84.0534C231.319 83.809 231.717 83.809 231.962 84.0534C232.207 84.2978 232.207 84.6956 231.962 84.94L229.181 87.7076C229.059 87.8298 228.896 87.8895 228.737 87.8895V87.8923Z" fill="#161616"/>
<path d="M505.101 140.315C503.772 140.315 502.443 139.815 501.424 138.809C500.433 137.832 499.881 136.528 499.875 135.135C499.869 133.743 500.405 132.433 501.389 131.444C503.419 129.407 506.733 129.39 508.779 131.41C509.77 132.387 510.322 133.692 510.328 135.084C510.334 136.476 509.798 137.786 508.813 138.772C507.794 139.798 506.448 140.312 505.101 140.312V140.315ZM505.101 131.16C504.079 131.16 503.055 131.552 502.28 132.331C501.535 133.081 501.125 134.075 501.13 135.132C501.136 136.187 501.552 137.178 502.306 137.92C503.86 139.454 506.382 139.443 507.922 137.894C508.668 137.144 509.078 136.15 509.072 135.093C509.067 134.038 508.651 133.047 507.897 132.305C507.125 131.541 506.112 131.16 505.101 131.16Z" fill="#161616"/>
<path d="M514.465 442.781L197.993 459.666C187.871 460.205 179.664 452.209 179.664 441.804V219.505C179.664 209.1 187.871 200.228 197.993 199.688L514.465 182.804C524.587 182.264 532.794 190.26 532.794 200.666V422.962C532.794 433.367 524.587 442.238 514.465 442.778V442.781Z" fill="white"/>
<path d="M197.026 460.318C192.426 460.318 188.111 458.616 184.786 455.47C181.08 451.964 179.039 447.11 179.039 441.805V219.51C179.039 208.794 187.527 199.625 197.963 199.068L514.435 182.183C519.416 181.922 524.113 183.63 527.68 187.005C531.386 190.512 533.427 195.365 533.427 200.67V422.966C533.427 433.681 524.939 442.851 514.503 443.408L198.031 460.292C197.695 460.309 197.362 460.318 197.029 460.318H197.026ZM515.434 183.411C515.124 183.411 514.813 183.419 514.5 183.436L198.028 200.321C188.251 200.844 180.294 209.451 180.294 219.512V441.808C180.294 446.766 182.196 451.296 185.649 454.564C188.962 457.698 193.332 459.292 197.96 459.042L514.432 442.158C524.21 441.635 532.166 433.028 532.166 422.969V200.67C532.166 195.712 530.264 191.182 526.812 187.915C523.72 184.991 519.712 183.411 515.434 183.411Z" fill="#161616"/>
<path d="M491.82 60.6329C508.433 50.2897 517.044 36.7697 521.249 9.76953C524.104 19.2773 524.983 26.3555 523.56 33.8401L532.598 28.8163C532.809 36.1417 531.383 44.9903 525.242 50.5852L536.592 45.3511C530.967 57.7658 524.4 80.9356 499.597 70.6777L491.82 60.63V60.6329Z" fill="white"/>
<path d="M510.865 73.8412C507.511 73.8412 503.702 73.0598 499.353 71.2611C499.25 71.2185 499.162 71.1503 499.097 71.065L491.32 61.0174C491.211 60.8782 491.166 60.6992 491.197 60.523C491.229 60.3496 491.334 60.1962 491.482 60.1024C508.667 49.4012 516.563 35.7363 520.623 9.67384C520.668 9.38401 520.907 9.16521 521.201 9.14532C521.488 9.13111 521.761 9.31013 521.844 9.59144C524.688 19.0651 525.453 25.8706 524.397 32.6561L532.288 28.2716C532.479 28.1665 532.712 28.1665 532.903 28.2745C533.094 28.3825 533.213 28.5814 533.222 28.803C533.393 34.7929 532.527 42.7634 527.859 48.6909L536.325 44.7866C536.561 44.6786 536.843 44.7269 537.031 44.9116C537.218 45.0963 537.27 45.3776 537.162 45.6163C536.601 46.8552 536.031 48.1993 535.428 49.6229C531.175 59.6563 525.16 73.8441 510.867 73.8441L510.865 73.8412ZM499.988 70.1671C521.605 79.0128 528.923 61.7448 534.269 49.1313C534.637 48.2646 534.992 47.4264 535.343 46.6222L525.502 51.1601C525.223 51.288 524.887 51.1942 524.716 50.9385C524.545 50.6799 524.588 50.3361 524.816 50.1287C530.745 44.7269 532.029 36.3331 531.986 29.8799L523.862 34.3951C523.649 34.5116 523.387 34.4974 523.19 34.3554C522.991 34.2133 522.894 33.9689 522.94 33.7302C524.15 27.368 523.714 21.111 521.411 12.6376C517.238 36.7479 509.043 50.4498 492.737 60.8043L499.99 70.1728L499.988 70.1671Z" fill="#161616"/>
<path d="M438.858 67.542C422.245 57.1989 413.634 43.6789 409.429 16.6787C406.574 26.1865 405.694 33.2647 407.118 40.7493L398.08 35.7255C397.869 43.0509 399.295 51.8994 405.435 57.4944L394.086 52.2603C399.711 64.6749 406.278 87.8448 431.081 77.5868L438.858 67.5392V67.542Z" fill="white"/>
<path d="M419.803 80.751C405.508 80.751 399.496 66.5633 395.243 56.5298C394.639 55.1062 394.07 53.7622 393.509 52.5233C393.401 52.2846 393.452 52.0033 393.64 51.8186C393.825 51.6339 394.11 51.5856 394.346 51.6936L402.812 55.5978C398.141 49.6704 397.275 41.6999 397.449 35.71C397.455 35.4912 397.577 35.2923 397.768 35.1814C397.958 35.0735 398.192 35.0706 398.383 35.1786L406.273 39.5631C405.214 32.7775 405.983 25.972 408.827 16.4984C408.912 16.2171 409.177 16.0409 409.47 16.0523C409.763 16.0722 410.002 16.291 410.048 16.5808C414.104 42.6433 422.004 56.3082 439.186 67.0094C439.337 67.1032 439.439 67.2566 439.471 67.4299C439.502 67.6033 439.456 67.7851 439.348 67.9244L431.571 77.972C431.506 78.0572 431.415 78.1254 431.315 78.1681C426.965 79.9667 423.157 80.7482 419.803 80.7482V80.751ZM395.325 53.5292C395.675 54.3333 396.031 55.1716 396.398 56.0382C401.744 68.6518 409.063 85.9197 430.68 77.0741L437.933 67.7056C421.628 57.3539 413.433 43.6492 409.259 19.5388C406.957 28.0123 406.521 34.2693 407.731 40.6315C407.776 40.8702 407.68 41.1145 407.48 41.2566C407.284 41.3987 407.019 41.4129 406.808 41.2964L398.684 36.7812C398.642 43.2343 399.925 51.631 405.855 57.0299C406.083 57.2374 406.125 57.5812 405.955 57.8398C405.784 58.0984 405.448 58.1921 405.169 58.0614L395.328 53.5235L395.325 53.5292Z" fill="#161616"/>
<path d="M466.579 119.628C488.257 119.628 505.831 102.128 505.831 80.5402C505.831 58.9525 488.257 41.4521 466.579 41.4521C444.901 41.4521 427.328 58.9525 427.328 80.5402C427.328 102.128 444.901 119.628 466.579 119.628Z" fill="#161616"/>
<path d="M468.11 117.128C489.145 117.128 506.197 100.147 506.197 79.1992C506.197 58.2518 489.145 41.2705 468.11 41.2705C447.076 41.2705 430.023 58.2518 430.023 79.1992C430.023 100.147 447.076 117.128 468.11 117.128Z" fill="white"/>
<path d="M468.082 117.757C448.657 117.757 431.865 103.183 429.639 83.5165C428.481 73.2813 431.396 63.211 437.843 55.1609C444.291 47.1109 453.502 42.0416 463.778 40.8879C484.991 38.5096 504.194 53.7601 506.582 74.8868C507.74 85.122 504.825 95.1924 498.378 103.242C491.931 111.292 482.719 116.362 472.443 117.515C470.98 117.68 469.522 117.76 468.082 117.76V117.757ZM468.139 41.8967C466.744 41.8967 465.335 41.9734 463.918 42.1325C453.975 43.2464 445.062 48.1509 438.825 55.9424C432.586 63.731 429.767 73.4746 430.889 83.3745C433.2 103.814 451.777 118.57 472.306 116.265C482.249 115.151 491.162 110.247 497.399 102.455C503.636 94.6667 506.457 84.9231 505.335 75.0232C503.183 55.9963 486.932 41.8938 468.139 41.8938V41.8967Z" fill="#161616"/>
<path d="M468.12 111.032C485.773 111.032 500.084 96.782 500.084 79.2039C500.084 61.6258 485.773 47.376 468.12 47.376C450.467 47.376 436.156 61.6258 436.156 79.2039C436.156 96.782 450.467 111.032 468.12 111.032Z" fill="white"/>
<path d="M496.753 93.9661C496.659 93.9661 496.562 93.9462 496.474 93.9008C496.163 93.7473 496.035 93.3694 496.192 93.0597C497.527 90.3858 498.463 87.5443 498.982 84.6175C499.041 84.2765 499.366 84.0464 499.71 84.1089C500.052 84.1686 500.28 84.4953 500.22 84.8363C499.682 87.8824 498.705 90.8376 497.319 93.6195C497.208 93.8411 496.986 93.9661 496.756 93.9661H496.753Z" fill="#161616"/>
<path d="M440.37 64.0197C440.265 64.0197 440.157 63.9941 440.057 63.9373C439.755 63.7639 439.653 63.3803 439.827 63.082C444.979 54.134 454.19 48.1014 464.469 46.9506C476.986 45.5526 488.938 51.2612 495.676 61.8629C495.861 62.1556 495.776 62.5421 495.483 62.7296C495.189 62.9143 494.802 62.8291 494.614 62.5364C488.136 52.341 476.644 46.8483 464.609 48.198C454.726 49.3062 445.87 55.103 440.917 63.7071C440.8 63.9088 440.59 64.0225 440.37 64.0225V64.0197Z" fill="#161616"/>
<path d="M468.091 111.66C451.74 111.66 437.601 99.3901 435.728 82.8354C435.104 77.3086 435.913 71.6994 438.071 66.6074C438.204 66.2892 438.574 66.1386 438.893 66.275C439.212 66.4085 439.363 66.7779 439.226 67.0962C437.154 71.9893 436.374 77.3825 436.975 82.6933C438.908 99.7908 454.447 112.14 471.621 110.208C471.965 110.174 472.276 110.418 472.315 110.762C472.355 111.106 472.105 111.415 471.76 111.455C470.528 111.592 469.301 111.66 468.088 111.66H468.091Z" fill="#161616"/>
<path d="M467.729 101.86L467.14 96.6602C463.44 96.9102 459.756 96.3249 457.53 95.3559L458.455 88.7664C460.906 89.7666 464.279 90.5509 467.852 90.1502C470.986 89.7979 472.993 88.3544 472.745 86.1636C472.509 84.0836 470.602 82.9669 466.38 82.0547C460.277 80.7448 455.953 78.4574 455.352 73.1494C454.809 68.333 457.789 64.173 463.539 62.3658L462.95 57.1658L468.336 56.5605L468.879 61.3769C472.58 61.1269 475.142 61.6156 477.055 62.2891L476.161 68.6541C474.664 68.2136 471.994 67.2362 468.037 67.6823C464.464 68.0829 463.482 69.7452 463.656 71.2768C463.861 73.084 465.913 74.016 470.784 75.2436C477.584 76.8093 480.562 79.5229 481.12 84.4501C481.672 89.3205 478.677 93.8698 472.48 95.6742L473.112 101.258L467.727 101.863L467.729 101.86Z" fill="#161616"/>
<path d="M403.472 187.824C424.032 175.022 434.684 158.294 439.888 124.881C443.42 136.648 444.508 145.405 442.748 154.669L453.933 148.451C454.192 157.519 452.43 168.467 444.829 175.389L458.874 168.913C451.914 184.277 443.787 212.948 413.093 200.255L403.469 187.821L403.472 187.824Z" fill="white"/>
<path d="M427.155 204.064C422.802 204.064 418.051 202.987 412.856 200.838C412.754 200.796 412.666 200.728 412.6 200.642L402.976 188.208C402.868 188.069 402.822 187.89 402.853 187.713C402.885 187.537 402.99 187.387 403.138 187.293C424.171 174.196 434.302 156.673 439.267 124.785C439.312 124.495 439.551 124.276 439.844 124.256C440.138 124.245 440.405 124.421 440.491 124.702C444.046 136.546 444.971 145.008 443.596 153.481L453.628 147.906C453.818 147.801 454.052 147.801 454.242 147.909C454.433 148.017 454.553 148.216 454.561 148.438C454.777 155.993 453.659 166.101 447.556 173.446L458.615 168.348C458.851 168.24 459.133 168.289 459.321 168.473C459.508 168.658 459.56 168.939 459.452 169.178C458.757 170.713 458.051 172.378 457.305 174.139C454.012 181.908 449.916 191.575 443.192 197.721C438.561 201.955 433.255 204.066 427.16 204.066L427.155 204.064ZM413.491 199.744C440.408 210.778 449.5 189.322 456.144 173.648C456.653 172.446 457.143 171.289 457.627 170.184L445.094 175.964C444.812 176.094 444.479 175.998 444.308 175.742C444.137 175.483 444.18 175.14 444.407 174.932C451.863 168.144 453.417 157.565 453.326 149.512L443.055 155.22C442.842 155.337 442.58 155.323 442.384 155.181C442.187 155.039 442.088 154.794 442.133 154.556C443.662 146.5 443.072 138.581 440.061 127.74C434.926 158.005 424.766 175.103 404.393 187.992L413.491 199.747V199.744Z" fill="#161616"/>
<path d="M341.131 177.058C316.295 161.594 303.426 141.385 297.141 101.021C292.874 115.235 291.559 125.817 293.685 137.007L280.172 129.496C279.859 140.448 281.988 153.678 291.171 162.04L274.203 154.218C282.612 172.776 292.427 207.414 329.506 192.081L341.131 177.061V177.058Z" fill="white"/>
<path d="M312.522 196.54C305.189 196.54 298.807 194.002 293.239 188.91C285.138 181.505 280.196 169.841 276.222 160.47C275.32 158.341 274.466 156.329 273.626 154.474C273.518 154.235 273.569 153.954 273.757 153.769C273.945 153.585 274.224 153.536 274.463 153.644L288.357 160.049C280.674 151.172 279.277 138.732 279.541 129.474C279.547 129.255 279.67 129.056 279.86 128.946C280.051 128.838 280.284 128.835 280.475 128.943L292.832 135.811C291.11 125.507 292.211 115.247 296.538 100.837C296.624 100.556 296.891 100.38 297.182 100.391C297.475 100.411 297.714 100.63 297.759 100.92C303.763 139.479 316.017 160.677 341.463 176.521C341.613 176.615 341.716 176.769 341.747 176.942C341.779 177.115 341.733 177.297 341.625 177.436L330 192.457C329.931 192.542 329.843 192.61 329.743 192.653C323.487 195.241 317.762 196.537 312.525 196.537L312.522 196.54ZM275.451 155.483C276.077 156.912 276.715 158.415 277.378 159.981C285.428 178.974 296.447 204.968 329.106 191.562L340.207 177.22C315.417 161.583 303.134 140.815 296.96 103.872C293.179 117.278 292.416 126.996 294.295 136.888C294.341 137.126 294.244 137.371 294.045 137.513C293.848 137.655 293.584 137.669 293.373 137.553L280.771 130.548C280.635 140.329 282.479 153.278 291.588 161.572C291.816 161.779 291.858 162.126 291.688 162.382C291.517 162.64 291.181 162.734 290.902 162.604L275.451 155.48V155.483Z" fill="#161616"/>
<path d="M365.703 243.502C396.122 243.502 420.781 218.945 420.781 188.652C420.781 158.359 396.122 133.802 365.703 133.802C335.284 133.802 310.625 158.359 310.625 188.652C310.625 218.945 335.284 243.502 365.703 243.502Z" fill="#161616"/>
<path d="M368.054 240.239C397.57 240.239 421.498 216.412 421.498 187.02C421.498 157.628 397.57 133.801 368.054 133.801C338.537 133.801 314.609 157.628 314.609 187.02C314.609 216.412 338.537 240.239 368.054 240.239Z" fill="white"/>
<path d="M368.055 240.868C338.24 240.868 313.984 216.712 313.984 187.021C313.984 157.33 338.24 133.174 368.055 133.174C397.87 133.174 422.125 157.33 422.125 187.021C422.125 216.712 397.87 240.868 368.055 240.868ZM368.055 134.427C338.932 134.427 315.24 158.02 315.24 187.021C315.24 216.021 338.932 239.615 368.055 239.615C397.178 239.615 420.87 216.021 420.87 187.021C420.87 158.02 397.178 134.427 368.055 134.427Z" fill="#161616"/>
<path d="M368.053 231.687C392.824 231.687 412.904 211.69 412.904 187.023C412.904 162.357 392.824 142.36 368.053 142.36C343.283 142.36 323.203 162.357 323.203 187.023C323.203 211.69 343.283 231.687 368.053 231.687Z" fill="white"/>
<path d="M405.77 211.844C405.653 211.844 405.534 211.813 405.428 211.745C405.138 211.557 405.053 211.168 405.24 210.878C407.535 207.337 409.303 203.501 410.492 199.475C410.589 199.145 410.937 198.952 411.272 199.052C411.605 199.148 411.796 199.498 411.697 199.83C410.473 203.97 408.656 207.917 406.297 211.557C406.177 211.742 405.975 211.844 405.767 211.844H405.77Z" fill="#161616"/>
<path d="M408.424 168.169C408.19 168.169 407.968 168.038 407.857 167.817C400.391 152.501 385.139 142.987 368.054 142.987C354.018 142.987 340.679 149.725 332.367 161.011C332.162 161.29 331.769 161.349 331.49 161.145C331.211 160.94 331.151 160.548 331.356 160.27C339.902 148.662 353.622 141.731 368.057 141.731C385.629 141.731 401.313 151.515 408.99 167.265C409.141 167.575 409.013 167.953 408.7 168.104C408.612 168.146 408.518 168.166 408.427 168.166L408.424 168.169Z" fill="#161616"/>
<path d="M368.064 232.314C342.988 232.314 322.586 211.997 322.586 187.025C322.586 179.268 324.59 171.613 328.379 164.89C328.55 164.589 328.931 164.481 329.233 164.651C329.535 164.822 329.643 165.202 329.472 165.504C325.788 172.039 323.841 179.481 323.841 187.025C323.841 211.306 343.679 231.061 368.064 231.061C368.411 231.061 368.693 231.342 368.693 231.689C368.693 232.035 368.411 232.317 368.064 232.317V232.314Z" fill="#161616"/>
<path d="M378.066 228.813C378.429 228.805 378.739 228.537 378.803 228.173L380.507 218.584C380.549 218.345 380.479 218.099 380.313 217.927C380.149 217.752 379.913 217.669 379.676 217.702C378.986 217.797 378.321 217.859 377.665 217.882C375.216 218.076 372.476 217.574 369.526 216.388C363.512 213.97 360.03 210.513 357.886 204.828C357.178 202.953 356.707 201.019 356.481 199.067L371.423 205.074C371.807 205.229 372.248 205.035 372.406 204.642L375.595 196.709C375.753 196.316 375.569 195.872 375.185 195.717L357.579 188.639C357.821 187.867 358.07 187.161 358.336 186.499C358.663 185.686 359.04 184.871 359.508 183.97L377.069 191.03C377.454 191.185 377.894 190.991 378.052 190.598L381.241 182.665C381.4 182.272 381.216 181.828 380.831 181.673L366.056 175.733C367.499 174.563 369.089 173.55 370.802 172.715C376.311 169.984 381.221 169.846 387.222 172.258C389.496 173.172 391.604 174.519 393.49 176.258C393.78 176.525 394.228 176.516 394.514 176.238L401.158 169.809C401.306 169.665 401.393 169.468 401.398 169.261C401.402 169.054 401.323 168.858 401.18 168.711C398.419 165.915 395.909 163.859 391.936 162.261C382.042 158.284 373.233 158.824 364.216 163.962C360.706 165.972 357.617 168.439 355.029 171.297L348.036 168.485C347.651 168.33 347.211 168.524 347.053 168.917L343.863 176.85C343.705 177.243 343.889 177.688 344.274 177.842L349.287 179.858C348.832 180.778 348.444 181.642 348.108 182.477C347.822 183.189 347.572 183.899 347.361 184.525L342.391 182.527C342.006 182.372 341.565 182.566 341.407 182.959L338.218 190.891C338.06 191.285 338.244 191.729 338.629 191.884L345.399 194.606C345.157 199.499 345.957 204.359 347.782 209.067C351.105 217.477 356.68 223.015 365.328 226.492C369.355 228.111 373.64 228.892 378.06 228.807L378.066 228.813Z" fill="#161616"/>
<path d="M522.807 205.066H196.016C185.609 205.066 177.172 213.488 177.172 223.877V446.23C177.172 456.619 185.609 465.041 196.016 465.041H522.807C533.214 465.041 541.651 456.619 541.651 446.23V223.877C541.651 213.488 533.214 205.066 522.807 205.066Z" fill="white"/>
<path d="M522.8 465.667H196.012C185.275 465.667 176.539 456.946 176.539 446.228V223.878C176.539 213.16 185.275 204.439 196.012 204.439H522.8C533.537 204.439 542.273 213.16 542.273 223.878V446.228C542.273 456.946 533.537 465.667 522.8 465.667ZM196.012 205.693C185.967 205.693 177.794 213.851 177.794 223.878V446.228C177.794 456.256 185.967 464.414 196.012 464.414H522.8C532.846 464.414 541.018 456.256 541.018 446.228V223.878C541.018 213.851 532.846 205.693 522.8 205.693H196.012Z" fill="#161616"/>
<path d="M518.88 456.875H511.342C510.995 456.875 510.713 456.594 510.713 456.247C510.713 455.9 510.995 455.619 511.342 455.619H518.88C519.677 455.619 520.477 455.548 521.254 455.409C521.598 455.346 521.923 455.574 521.983 455.915C522.045 456.256 521.818 456.582 521.476 456.642C520.625 456.796 519.751 456.872 518.88 456.872V456.875ZM503.805 456.875H496.267C495.92 456.875 495.638 456.594 495.638 456.247C495.638 455.9 495.92 455.619 496.267 455.619H503.805C504.152 455.619 504.434 455.9 504.434 456.247C504.434 456.594 504.152 456.875 503.805 456.875ZM488.729 456.875H481.192C480.844 456.875 480.562 456.594 480.562 456.247C480.562 455.9 480.844 455.619 481.192 455.619H488.729C489.077 455.619 489.358 455.9 489.358 456.247C489.358 456.594 489.077 456.875 488.729 456.875ZM473.654 456.875H466.116C465.769 456.875 465.487 456.594 465.487 456.247C465.487 455.9 465.769 455.619 466.116 455.619H473.654C474.001 455.619 474.283 455.9 474.283 456.247C474.283 456.594 474.001 456.875 473.654 456.875ZM458.578 456.875H451.041C450.694 456.875 450.412 456.594 450.412 456.247C450.412 455.9 450.694 455.619 451.041 455.619H458.578C458.926 455.619 459.208 455.9 459.208 456.247C459.208 456.594 458.926 456.875 458.578 456.875ZM443.503 456.875H435.965C435.618 456.875 435.336 456.594 435.336 456.247C435.336 455.9 435.618 455.619 435.965 455.619H443.503C443.85 455.619 444.132 455.9 444.132 456.247C444.132 456.594 443.85 456.875 443.503 456.875ZM428.428 456.875H420.89C420.543 456.875 420.261 456.594 420.261 456.247C420.261 455.9 420.543 455.619 420.89 455.619H428.428C428.775 455.619 429.057 455.9 429.057 456.247C429.057 456.594 428.775 456.875 428.428 456.875ZM413.352 456.875H405.815C405.467 456.875 405.186 456.594 405.186 456.247C405.186 455.9 405.467 455.619 405.815 455.619H413.352C413.7 455.619 413.981 455.9 413.981 456.247C413.981 456.594 413.7 456.875 413.352 456.875ZM398.277 456.875H390.739C390.392 456.875 390.11 456.594 390.11 456.247C390.11 455.9 390.392 455.619 390.739 455.619H398.277C398.624 455.619 398.906 455.9 398.906 456.247C398.906 456.594 398.624 456.875 398.277 456.875ZM383.202 456.875H375.664C375.317 456.875 375.035 456.594 375.035 456.247C375.035 455.9 375.317 455.619 375.664 455.619H383.202C383.549 455.619 383.831 455.9 383.831 456.247C383.831 456.594 383.549 456.875 383.202 456.875ZM368.126 456.875H360.589C360.241 456.875 359.96 456.594 359.96 456.247C359.96 455.9 360.241 455.619 360.589 455.619H368.126C368.474 455.619 368.755 455.9 368.755 456.247C368.755 456.594 368.474 456.875 368.126 456.875ZM353.051 456.875H345.513C345.166 456.875 344.884 456.594 344.884 456.247C344.884 455.9 345.166 455.619 345.513 455.619H353.051C353.398 455.619 353.68 455.9 353.68 456.247C353.68 456.594 353.398 456.875 353.051 456.875ZM337.976 456.875H330.438C330.091 456.875 329.809 456.594 329.809 456.247C329.809 455.9 330.091 455.619 330.438 455.619H337.976C338.323 455.619 338.605 455.9 338.605 456.247C338.605 456.594 338.323 456.875 337.976 456.875ZM322.9 456.875H315.362C315.015 456.875 314.733 456.594 314.733 456.247C314.733 455.9 315.015 455.619 315.362 455.619H322.9C323.247 455.619 323.529 455.9 323.529 456.247C323.529 456.594 323.247 456.875 322.9 456.875ZM307.825 456.875H300.287C299.94 456.875 299.658 456.594 299.658 456.247C299.658 455.9 299.94 455.619 300.287 455.619H307.825C308.172 455.619 308.454 455.9 308.454 456.247C308.454 456.594 308.172 456.875 307.825 456.875ZM292.749 456.875H285.212C284.864 456.875 284.583 456.594 284.583 456.247C284.583 455.9 284.864 455.619 285.212 455.619H292.749C293.097 455.619 293.379 455.9 293.379 456.247C293.379 456.594 293.097 456.875 292.749 456.875ZM277.674 456.875H270.136C269.789 456.875 269.507 456.594 269.507 456.247C269.507 455.9 269.789 455.619 270.136 455.619H277.674C278.021 455.619 278.303 455.9 278.303 456.247C278.303 456.594 278.021 456.875 277.674 456.875ZM262.599 456.875H255.061C254.714 456.875 254.432 456.594 254.432 456.247C254.432 455.9 254.714 455.619 255.061 455.619H262.599C262.946 455.619 263.228 455.9 263.228 456.247C263.228 456.594 262.946 456.875 262.599 456.875ZM247.523 456.875H239.986C239.638 456.875 239.357 456.594 239.357 456.247C239.357 455.9 239.638 455.619 239.986 455.619H247.523C247.871 455.619 248.152 455.9 248.152 456.247C248.152 456.594 247.871 456.875 247.523 456.875ZM232.448 456.875H224.91C224.563 456.875 224.281 456.594 224.281 456.247C224.281 455.9 224.563 455.619 224.91 455.619H232.448C232.795 455.619 233.077 455.9 233.077 456.247C233.077 456.594 232.795 456.875 232.448 456.875ZM217.373 456.875H209.835C209.488 456.875 209.206 456.594 209.206 456.247C209.206 455.9 209.488 455.619 209.835 455.619H217.373C217.72 455.619 218.002 455.9 218.002 456.247C218.002 456.594 217.72 456.875 217.373 456.875ZM202.297 456.852C202.297 456.852 202.274 456.852 202.26 456.852C199.621 456.705 197.074 455.841 194.893 454.355C194.606 454.159 194.532 453.769 194.728 453.482C194.925 453.195 195.315 453.124 195.602 453.317C197.595 454.676 199.92 455.463 202.331 455.599C202.679 455.619 202.943 455.915 202.923 456.261C202.906 456.594 202.627 456.852 202.297 456.852ZM528.086 453.423C527.912 453.423 527.738 453.352 527.613 453.209C527.385 452.948 527.411 452.553 527.67 452.326C529.489 450.732 530.838 448.68 531.573 446.393C531.678 446.063 532.031 445.881 532.361 445.986C532.691 446.091 532.874 446.444 532.768 446.773C531.966 449.277 530.491 451.524 528.501 453.266C528.382 453.371 528.234 453.423 528.086 453.423ZM190.438 448.791C190.202 448.791 189.974 448.657 189.866 448.427C188.981 446.512 188.531 444.466 188.531 442.341V440.826C188.531 440.479 188.813 440.198 189.16 440.198C189.508 440.198 189.789 440.479 189.789 440.826V442.341C189.789 444.281 190.199 446.154 191.008 447.902C191.153 448.217 191.016 448.589 190.7 448.734C190.615 448.774 190.527 448.791 190.438 448.791ZM532.831 439.752C532.484 439.752 532.202 439.471 532.202 439.124V431.6C532.202 431.253 532.484 430.972 532.831 430.972C533.178 430.972 533.46 431.253 533.46 431.6V439.124C533.46 439.471 533.178 439.752 532.831 439.752ZM189.16 433.927C188.813 433.927 188.531 433.646 188.531 433.299V425.775C188.531 425.428 188.813 425.147 189.16 425.147C189.508 425.147 189.789 425.428 189.789 425.775V433.299C189.789 433.646 189.508 433.927 189.16 433.927ZM532.831 424.7C532.484 424.7 532.202 424.419 532.202 424.072V416.548C532.202 416.201 532.484 415.92 532.831 415.92C533.178 415.92 533.46 416.201 533.46 416.548V424.072C533.46 424.419 533.178 424.7 532.831 424.7ZM189.16 418.875C188.813 418.875 188.531 418.594 188.531 418.247V410.723C188.531 410.376 188.813 410.095 189.16 410.095C189.508 410.095 189.789 410.376 189.789 410.723V418.247C189.789 418.594 189.508 418.875 189.16 418.875ZM532.831 409.649C532.484 409.649 532.202 409.368 532.202 409.021V401.497C532.202 401.15 532.484 400.869 532.831 400.869C533.178 400.869 533.46 401.15 533.46 401.497V409.021C533.46 409.368 533.178 409.649 532.831 409.649ZM189.16 403.824C188.813 403.824 188.531 403.542 188.531 403.196V395.671C188.531 395.325 188.813 395.043 189.16 395.043C189.508 395.043 189.789 395.325 189.789 395.671V403.196C189.789 403.542 189.508 403.824 189.16 403.824ZM532.831 394.597C532.484 394.597 532.202 394.316 532.202 393.969V386.445C532.202 386.098 532.484 385.817 532.831 385.817C533.178 385.817 533.46 386.098 533.46 386.445V393.969C533.46 394.316 533.178 394.597 532.831 394.597ZM189.16 388.772C188.813 388.772 188.531 388.491 188.531 388.144V380.62C188.531 380.273 188.813 379.992 189.16 379.992C189.508 379.992 189.789 380.273 189.789 380.62V388.144C189.789 388.491 189.508 388.772 189.16 388.772ZM532.831 379.546C532.484 379.546 532.202 379.264 532.202 378.918V371.393C532.202 371.047 532.484 370.765 532.831 370.765C533.178 370.765 533.46 371.047 533.46 371.393V378.918C533.46 379.264 533.178 379.546 532.831 379.546ZM189.16 373.721C188.813 373.721 188.531 373.439 188.531 373.093V365.568C188.531 365.222 188.813 364.94 189.16 364.94C189.508 364.94 189.789 365.222 189.789 365.568V373.093C189.789 373.439 189.508 373.721 189.16 373.721ZM532.831 364.494C532.484 364.494 532.202 364.213 532.202 363.866V356.342C532.202 355.995 532.484 355.714 532.831 355.714C533.178 355.714 533.46 355.995 533.46 356.342V363.866C533.46 364.213 533.178 364.494 532.831 364.494ZM189.16 358.669C188.813 358.669 188.531 358.388 188.531 358.041V350.517C188.531 350.17 188.813 349.889 189.16 349.889C189.508 349.889 189.789 350.17 189.789 350.517V358.041C189.789 358.388 189.508 358.669 189.16 358.669ZM532.831 349.443C532.484 349.443 532.202 349.161 532.202 348.815V341.29C532.202 340.944 532.484 340.662 532.831 340.662C533.178 340.662 533.46 340.944 533.46 341.29V348.815C533.46 349.161 533.178 349.443 532.831 349.443ZM189.16 343.617C188.813 343.617 188.531 343.336 188.531 342.99V335.465C188.531 335.118 188.813 334.837 189.16 334.837C189.508 334.837 189.789 335.118 189.789 335.465V342.99C189.789 343.336 189.508 343.617 189.16 343.617ZM532.831 334.391C532.484 334.391 532.202 334.11 532.202 333.763V326.239C532.202 325.892 532.484 325.611 532.831 325.611C533.178 325.611 533.46 325.892 533.46 326.239V333.763C533.46 334.11 533.178 334.391 532.831 334.391ZM189.16 328.566C188.813 328.566 188.531 328.285 188.531 327.938V320.414C188.531 320.067 188.813 319.786 189.16 319.786C189.508 319.786 189.789 320.067 189.789 320.414V327.938C189.789 328.285 189.508 328.566 189.16 328.566ZM532.831 319.339C532.484 319.339 532.202 319.058 532.202 318.712V311.187C532.202 310.84 532.484 310.559 532.831 310.559C533.178 310.559 533.46 310.84 533.46 311.187V318.712C533.46 319.058 533.178 319.339 532.831 319.339ZM189.16 313.514C188.813 313.514 188.531 313.233 188.531 312.886V305.362C188.531 305.015 188.813 304.734 189.16 304.734C189.508 304.734 189.789 305.015 189.789 305.362V312.886C189.789 313.233 189.508 313.514 189.16 313.514ZM532.831 304.288C532.484 304.288 532.202 304.007 532.202 303.66V296.136C532.202 295.789 532.484 295.508 532.831 295.508C533.178 295.508 533.46 295.789 533.46 296.136V303.66C533.46 304.007 533.178 304.288 532.831 304.288ZM189.16 298.463C188.813 298.463 188.531 298.181 188.531 297.835V290.31C188.531 289.964 188.813 289.682 189.16 289.682C189.508 289.682 189.789 289.964 189.789 290.31V297.835C189.789 298.181 189.508 298.463 189.16 298.463ZM532.831 289.236C532.484 289.236 532.202 288.955 532.202 288.608V281.084C532.202 280.737 532.484 280.456 532.831 280.456C533.178 280.456 533.46 280.737 533.46 281.084V288.608C533.46 288.955 533.178 289.236 532.831 289.236ZM189.16 283.411C188.813 283.411 188.531 283.13 188.531 282.783V275.259C188.531 274.912 188.813 274.631 189.16 274.631C189.508 274.631 189.789 274.912 189.789 275.259V282.783C189.789 283.13 189.508 283.411 189.16 283.411ZM532.831 274.185C532.484 274.185 532.202 273.903 532.202 273.557V266.032C532.202 265.686 532.484 265.404 532.831 265.404C533.178 265.404 533.46 265.686 533.46 266.032V273.557C533.46 273.903 533.178 274.185 532.831 274.185ZM189.16 268.36C188.813 268.36 188.531 268.078 188.531 267.732V260.207C188.531 259.861 188.813 259.579 189.16 259.579C189.508 259.579 189.789 259.861 189.789 260.207V267.732C189.789 268.078 189.508 268.36 189.16 268.36ZM532.831 259.133C532.484 259.133 532.202 258.852 532.202 258.505V250.981C532.202 250.634 532.484 250.353 532.831 250.353C533.178 250.353 533.46 250.634 533.46 250.981V258.505C533.46 258.852 533.178 259.133 532.831 259.133ZM189.16 253.308C188.813 253.308 188.531 253.027 188.531 252.68V245.156C188.531 244.809 188.813 244.528 189.16 244.528C189.508 244.528 189.789 244.809 189.789 245.156V252.68C189.789 253.027 189.508 253.308 189.16 253.308ZM532.831 244.082C532.484 244.082 532.202 243.8 532.202 243.454V235.929C532.202 235.583 532.484 235.301 532.831 235.301C533.178 235.301 533.46 235.583 533.46 235.929V243.454C533.46 243.8 533.178 244.082 532.831 244.082ZM189.16 238.257C188.813 238.257 188.531 237.975 188.531 237.629V230.104C188.531 229.757 188.813 229.476 189.16 229.476C189.508 229.476 189.789 229.757 189.789 230.104V237.629C189.789 237.975 189.508 238.257 189.16 238.257ZM532.831 229.03C532.484 229.03 532.202 228.749 532.202 228.402V228.135C532.202 225.808 531.593 223.52 530.434 221.517C530.261 221.216 530.363 220.832 530.665 220.662C530.966 220.488 531.351 220.591 531.522 220.892C532.788 223.086 533.457 225.592 533.457 228.138V228.405C533.457 228.752 533.175 229.033 532.828 229.033L532.831 229.03ZM190.253 223.356C190.171 223.356 190.088 223.338 190.009 223.307C189.69 223.174 189.539 222.804 189.676 222.486C190.7 220.062 192.371 217.959 194.509 216.399C194.788 216.195 195.181 216.255 195.386 216.536C195.591 216.814 195.528 217.206 195.249 217.411C193.296 218.835 191.771 220.758 190.834 222.975C190.732 223.213 190.501 223.358 190.256 223.358L190.253 223.356ZM525.678 216.613C525.575 216.613 525.47 216.587 525.373 216.533C523.406 215.436 521.166 214.857 518.897 214.857H518.444C518.097 214.857 517.815 214.575 517.815 214.229C517.815 213.882 518.097 213.601 518.444 213.601H518.897C521.379 213.601 523.83 214.234 525.985 215.436C526.287 215.604 526.398 215.987 526.227 216.289C526.113 216.493 525.897 216.61 525.678 216.61V216.613ZM201.845 214.911C201.523 214.911 201.25 214.666 201.218 214.339C201.187 213.993 201.443 213.692 201.788 213.66C202.218 213.623 202.656 213.603 203.091 213.603H209.379C209.727 213.603 210.009 213.885 210.009 214.231C210.009 214.578 209.727 214.859 209.379 214.859H203.091C202.693 214.859 202.292 214.876 201.899 214.911C201.879 214.911 201.862 214.911 201.842 214.911H201.845ZM510.907 214.857H503.369C503.022 214.857 502.74 214.575 502.74 214.229C502.74 213.882 503.022 213.601 503.369 213.601H510.907C511.254 213.601 511.536 213.882 511.536 214.229C511.536 214.575 511.254 214.857 510.907 214.857ZM495.831 214.857H488.294C487.946 214.857 487.665 214.575 487.665 214.229C487.665 213.882 487.946 213.601 488.294 213.601H495.831C496.179 213.601 496.46 213.882 496.46 214.229C496.46 214.575 496.179 214.857 495.831 214.857ZM480.756 214.857H473.218C472.871 214.857 472.589 214.575 472.589 214.229C472.589 213.882 472.871 213.601 473.218 213.601H480.756C481.103 213.601 481.385 213.882 481.385 214.229C481.385 214.575 481.103 214.857 480.756 214.857ZM465.681 214.857H458.143C457.796 214.857 457.514 214.575 457.514 214.229C457.514 213.882 457.796 213.601 458.143 213.601H465.681C466.028 213.601 466.31 213.882 466.31 214.229C466.31 214.575 466.028 214.857 465.681 214.857ZM450.605 214.857H443.068C442.72 214.857 442.439 214.575 442.439 214.229C442.439 213.882 442.72 213.601 443.068 213.601H450.605C450.953 213.601 451.234 213.882 451.234 214.229C451.234 214.575 450.953 214.857 450.605 214.857ZM435.53 214.857H427.992C427.645 214.857 427.363 214.575 427.363 214.229C427.363 213.882 427.645 213.601 427.992 213.601H435.53C435.877 213.601 436.159 213.882 436.159 214.229C436.159 214.575 435.877 214.857 435.53 214.857ZM420.455 214.857H412.917C412.57 214.857 412.288 214.575 412.288 214.229C412.288 213.882 412.57 213.601 412.917 213.601H420.455C420.802 213.601 421.084 213.882 421.084 214.229C421.084 214.575 420.802 214.857 420.455 214.857ZM405.379 214.857H397.841C397.494 214.857 397.212 214.575 397.212 214.229C397.212 213.882 397.494 213.601 397.841 213.601H405.379C405.726 213.601 406.008 213.882 406.008 214.229C406.008 214.575 405.726 214.857 405.379 214.857ZM390.304 214.857H382.766C382.419 214.857 382.137 214.575 382.137 214.229C382.137 213.882 382.419 213.601 382.766 213.601H390.304C390.651 213.601 390.933 213.882 390.933 214.229C390.933 214.575 390.651 214.857 390.304 214.857ZM375.228 214.857H367.691C367.343 214.857 367.062 214.575 367.062 214.229C367.062 213.882 367.343 213.601 367.691 213.601H375.228C375.576 213.601 375.858 213.882 375.858 214.229C375.858 214.575 375.576 214.857 375.228 214.857ZM360.153 214.857H352.615C352.268 214.857 351.986 214.575 351.986 214.229C351.986 213.882 352.268 213.601 352.615 213.601H360.153C360.5 213.601 360.782 213.882 360.782 214.229C360.782 214.575 360.5 214.857 360.153 214.857ZM345.078 214.857H337.54C337.193 214.857 336.911 214.575 336.911 214.229C336.911 213.882 337.193 213.601 337.54 213.601H345.078C345.425 213.601 345.707 213.882 345.707 214.229C345.707 214.575 345.425 214.857 345.078 214.857ZM330.002 214.857H322.465C322.117 214.857 321.836 214.575 321.836 214.229C321.836 213.882 322.117 213.601 322.465 213.601H330.002C330.35 213.601 330.631 213.882 330.631 214.229C330.631 214.575 330.35 214.857 330.002 214.857ZM314.927 214.857H307.389C307.042 214.857 306.76 214.575 306.76 214.229C306.76 213.882 307.042 213.601 307.389 213.601H314.927C315.274 213.601 315.556 213.882 315.556 214.229C315.556 214.575 315.274 214.857 314.927 214.857ZM299.852 214.857H292.314C291.967 214.857 291.685 214.575 291.685 214.229C291.685 213.882 291.967 213.601 292.314 213.601H299.852C300.199 213.601 300.481 213.882 300.481 214.229C300.481 214.575 300.199 214.857 299.852 214.857ZM284.776 214.857H277.239C276.891 214.857 276.609 214.575 276.609 214.229C276.609 213.882 276.891 213.601 277.239 213.601H284.776C285.123 213.601 285.405 213.882 285.405 214.229C285.405 214.575 285.123 214.857 284.776 214.857ZM269.701 214.857H262.163C261.816 214.857 261.534 214.575 261.534 214.229C261.534 213.882 261.816 213.601 262.163 213.601H269.701C270.048 213.601 270.33 213.882 270.33 214.229C270.33 214.575 270.048 214.857 269.701 214.857ZM254.625 214.857H247.088C246.741 214.857 246.459 214.575 246.459 214.229C246.459 213.882 246.741 213.601 247.088 213.601H254.625C254.973 213.601 255.255 213.882 255.255 214.229C255.255 214.575 254.973 214.857 254.625 214.857ZM239.55 214.857H232.012C231.665 214.857 231.383 214.575 231.383 214.229C231.383 213.882 231.665 213.601 232.012 213.601H239.55C239.897 213.601 240.179 213.882 240.179 214.229C240.179 214.575 239.897 214.857 239.55 214.857ZM224.475 214.857H216.937C216.59 214.857 216.308 214.575 216.308 214.229C216.308 213.882 216.59 213.601 216.937 213.601H224.475C224.822 213.601 225.104 213.882 225.104 214.229C225.104 214.575 224.822 214.857 224.475 214.857Z" fill="#161616"/>
<path d="M542.948 309.928H472.872C466.626 309.928 461.562 314.982 461.562 321.217V348.874C461.562 355.109 466.626 360.163 472.872 360.163H542.948C549.194 360.163 554.258 355.109 554.258 348.874V321.217C554.258 314.982 549.194 309.928 542.948 309.928Z" fill="white"/>
<path d="M542.945 360.791H472.868C466.287 360.791 460.93 355.446 460.93 348.874V321.217C460.93 314.648 466.284 309.3 472.868 309.3H542.945C549.526 309.3 554.883 314.645 554.883 321.217V348.874C554.883 355.443 549.529 360.791 542.945 360.791ZM472.868 310.556C466.979 310.556 462.188 315.338 462.188 321.217V348.874C462.188 354.753 466.979 359.535 472.868 359.535H542.945C548.834 359.535 553.625 354.753 553.625 348.874V321.217C553.625 315.338 548.834 310.556 542.945 310.556H472.868Z" fill="#161616"/>
<path d="M481.737 345.1C487.309 345.1 491.825 340.602 491.825 335.053C491.825 329.503 487.309 325.005 481.737 325.005C476.165 325.005 471.648 329.503 471.648 335.053C471.648 340.602 476.165 345.1 481.737 345.1Z" fill="#161616"/>
<path d="M362.254 380.296C362.114 380.296 361.975 380.25 361.858 380.156C361.588 379.937 361.548 379.543 361.764 379.275L386.729 348.448C386.945 348.181 387.341 348.135 387.611 348.354C387.882 348.57 387.922 348.968 387.705 349.235L362.74 380.063C362.615 380.216 362.436 380.296 362.251 380.296H362.254Z" fill="#161616"/>
<path d="M391.754 343.873C391.614 343.873 391.475 343.827 391.358 343.734C391.088 343.515 391.048 343.12 391.264 342.853L421.145 305.955C421.361 305.685 421.757 305.643 422.027 305.862C422.298 306.078 422.338 306.475 422.121 306.743L392.24 343.64C392.115 343.793 391.936 343.873 391.751 343.873H391.754Z" fill="#161616"/>
<path d="M426.129 301.429C425.989 301.429 425.85 301.384 425.733 301.29C425.463 301.071 425.423 300.676 425.639 300.409L434.831 289.06C435.047 288.79 435.443 288.747 435.713 288.966C435.984 289.185 436.023 289.58 435.807 289.847L426.615 301.196C426.49 301.349 426.311 301.429 426.126 301.429H426.129Z" fill="#161616"/>
<path d="M263.246 377.16C263.106 377.16 262.967 377.115 262.85 377.021C262.58 376.802 262.54 376.407 262.756 376.14L280.22 354.576C280.439 354.306 280.832 354.263 281.103 354.482C281.373 354.698 281.413 355.096 281.197 355.363L263.733 376.927C263.607 377.08 263.428 377.16 263.243 377.16H263.246Z" fill="#161616"/>
<path d="M284.136 351.372C283.997 351.372 283.857 351.327 283.741 351.233C283.47 351.014 283.43 350.619 283.647 350.352L304.131 325.06C304.35 324.79 304.743 324.747 305.014 324.966C305.284 325.182 305.324 325.58 305.107 325.847L284.623 351.139C284.498 351.293 284.319 351.372 284.134 351.372H284.136Z" fill="#161616"/>
<path d="M311.176 317.986C311.036 317.986 310.897 317.941 310.78 317.847C310.509 317.628 310.47 317.233 310.686 316.966L332.283 290.298C332.5 290.028 332.895 289.986 333.166 290.204C333.436 290.423 333.476 290.818 333.26 291.085L311.662 317.753C311.537 317.906 311.358 317.986 311.173 317.986H311.176Z" fill="#161616"/>
<path d="M345.902 439.59C345.763 439.59 345.623 439.544 345.506 439.451C345.236 439.232 345.196 438.837 345.412 438.57L376.816 399.791C377.033 399.521 377.428 399.479 377.699 399.698C377.969 399.916 378.009 400.311 377.793 400.578L346.389 439.357C346.264 439.51 346.084 439.59 345.899 439.59H345.902Z" fill="#161616"/>
<path d="M380.652 396.692C380.513 396.692 380.373 396.646 380.256 396.552C379.986 396.337 379.946 395.939 380.162 395.672L406.995 362.539C407.214 362.269 407.607 362.227 407.877 362.446C408.148 362.664 408.187 363.059 407.971 363.326L381.139 396.459C381.014 396.612 380.834 396.692 380.649 396.692H380.652Z" fill="#161616"/>
<path d="M342.781 41.8156C357.009 55.2304 362.759 70.1797 361.509 97.4754C366.198 88.7178 368.469 81.955 368.563 74.3368L376.423 81.0429C378.085 73.9021 378.449 64.9484 373.542 58.2538L383.627 65.6219C380.581 52.3434 378.754 28.3382 352.403 33.4984L342.781 41.8127V41.8156Z" fill="white"/>
<path d="M361.51 98.1033C361.456 98.1033 361.399 98.0948 361.345 98.0806C361.061 98.0039 360.87 97.7396 360.884 97.447C362.091 71.1003 357.07 56.1482 342.353 42.2702C342.225 42.148 342.153 41.9775 342.156 41.8013C342.162 41.6252 342.239 41.4575 342.373 41.341L351.994 33.0267C352.077 32.9557 352.176 32.9074 352.285 32.8846C376.606 28.1222 380.657 48.0356 383.338 61.2118C383.646 62.7263 383.939 64.1556 384.241 65.4826C384.301 65.7384 384.192 66.0026 383.973 66.1447C383.754 66.2896 383.469 66.2811 383.256 66.1276L375.732 60.6321C379.134 67.3637 378.397 75.3484 377.036 81.1849C376.988 81.398 376.828 81.5713 376.62 81.6395C376.413 81.7077 376.182 81.6623 376.017 81.5202L369.154 75.6667C368.841 82.5261 366.737 89.0474 362.063 97.7737C361.952 97.9812 361.735 98.1062 361.508 98.1062L361.51 98.1033ZM343.716 41.8383C357.639 55.1991 362.945 70.2507 362.242 94.7049C366.185 86.8537 367.856 80.8041 367.935 74.3311C367.938 74.0868 368.08 73.868 368.305 73.7685C368.527 73.6691 368.786 73.706 368.971 73.8623L376.037 79.8892C377.363 73.5724 377.773 65.0876 373.036 58.626C372.854 58.376 372.88 58.0321 373.099 57.8133C373.318 57.5945 373.666 57.569 373.913 57.7508L382.658 64.1386C382.476 63.2804 382.294 62.3882 382.106 61.4647C379.373 48.047 375.633 29.6822 352.689 34.0866L343.716 41.8383Z" fill="#161616"/>
<path d="M292.535 24.8159C273.656 30.0415 261.549 40.5722 249.827 65.2793C249.799 55.3567 250.971 48.321 254.467 41.544L244.367 43.8087C246.252 36.7248 250.14 28.6406 257.624 25.012L245.25 26.8249C254.179 16.5101 267.078 -3.85508 287.94 12.9895L292.535 24.8216V24.8159Z" fill="white"/>
<path d="M249.822 65.9064C249.776 65.9064 249.731 65.9008 249.685 65.8922C249.397 65.8297 249.195 65.574 249.193 65.2813C249.164 55.3928 250.368 48.6498 253.314 42.444L244.499 44.4188C244.288 44.4671 244.06 44.3989 243.909 44.2426C243.758 44.0835 243.699 43.859 243.756 43.6459C245.298 37.8549 248.398 30.4555 254.564 26.091L245.335 27.4407C245.074 27.4776 244.82 27.3526 244.692 27.1224C244.567 26.8923 244.595 26.6081 244.769 26.4092C245.66 25.3806 246.591 24.2525 247.573 23.0562C256.135 12.6619 269.076 -3.05174 288.327 12.4943C288.412 12.5625 288.478 12.6534 288.518 12.7557L293.112 24.5878C293.175 24.7526 293.166 24.9373 293.086 25.0964C293.007 25.2556 292.864 25.3721 292.694 25.4204C273.166 30.8249 261.7 41.7023 250.385 65.5456C250.28 65.7672 250.055 65.9036 249.819 65.9036L249.822 65.9064ZM254.461 40.9152C254.652 40.9152 254.837 41.0033 254.96 41.1596C255.108 41.3528 255.133 41.6142 255.022 41.8302C252.053 47.59 250.687 53.7134 250.479 62.4881C261.35 40.5487 273.112 29.7224 291.694 24.4003L287.41 13.3694C269.201 -1.21896 257.265 13.2728 248.546 23.8575C247.946 24.585 247.368 25.2897 246.804 25.9603L257.53 24.3889C257.835 24.3406 258.131 24.5281 258.222 24.8236C258.313 25.1192 258.173 25.4374 257.894 25.5738C250.67 29.0774 247.046 36.7637 245.25 42.9639L254.325 40.9294C254.37 40.918 254.416 40.9152 254.461 40.9152Z" fill="#161616"/>
<path d="M316.304 84.215C339.573 84.215 358.436 65.431 358.436 42.2598C358.436 19.0886 339.573 0.304688 316.304 0.304688C293.035 0.304688 274.172 19.0886 274.172 42.2598C274.172 65.431 293.035 84.215 316.304 84.215Z" fill="#161616"/>
<path d="M318.296 82.049C340.875 82.049 359.179 63.8223 359.179 41.3385C359.179 18.8547 340.875 0.62793 318.296 0.62793C295.718 0.62793 277.414 18.8547 277.414 41.3385C277.414 63.8223 295.718 82.049 318.296 82.049Z" fill="white"/>
<path d="M318.323 82.6822C315.967 82.6822 313.581 82.4804 311.181 82.0656C300.259 80.1703 290.729 74.1547 284.35 65.1244C277.971 56.094 275.506 45.1285 277.407 34.2512C281.332 11.7974 302.869 -3.29109 325.423 0.616011C336.345 2.51131 345.875 8.52682 352.254 17.5572C358.634 26.5876 361.099 37.553 359.197 48.4304C355.687 68.4973 338.113 82.6822 318.323 82.6822ZM318.284 1.25251C299.089 1.25251 282.05 15.0055 278.648 34.4643C276.804 45.012 279.195 55.645 285.38 64.3998C291.566 73.1574 300.806 78.991 311.401 80.8295C313.726 81.233 316.043 81.4291 318.326 81.4291C337.521 81.4291 354.56 67.6761 357.962 48.2173C359.806 37.6695 357.415 27.0365 351.23 18.2818C345.044 9.5242 335.804 3.69054 325.209 1.85207C322.884 1.44858 320.567 1.25251 318.284 1.25251Z" fill="#161616"/>
<path d="M318.291 75.5051C337.238 75.5051 352.598 60.2095 352.598 41.3414C352.598 22.4733 337.238 7.17773 318.291 7.17773C299.344 7.17773 283.984 22.4733 283.984 41.3414C283.984 60.2095 299.344 75.5051 318.291 75.5051Z" fill="white"/>
<path d="M343.519 65.1279C343.365 65.1279 343.211 65.0739 343.092 64.9602C342.838 64.7244 342.821 64.3265 343.058 64.0737C345.244 61.7152 347.071 59.0669 348.492 56.2026C348.646 55.8929 349.021 55.765 349.334 55.9185C349.645 56.0719 349.773 56.447 349.619 56.7596C348.145 59.7318 346.249 62.4796 343.98 64.9261C343.858 65.0597 343.687 65.1279 343.519 65.1279Z" fill="#161616"/>
<path d="M351.286 32.5647C351.012 32.5647 350.762 32.3857 350.682 32.1101C347.09 19.6471 336.893 10.5258 324.073 8.30377C313.54 6.47951 302.646 9.79841 294.929 17.1864C294.679 17.4251 294.28 17.4165 294.041 17.1693C293.802 16.9193 293.811 16.5215 294.058 16.2828C302.063 8.61917 313.364 5.17809 324.286 7.07054C337.383 9.34092 348.217 19.0362 351.886 31.7663C351.983 32.0987 351.789 32.4454 351.456 32.542C351.399 32.559 351.34 32.5676 351.283 32.5676L351.286 32.5647Z" fill="#161616"/>
<path d="M312.405 75.626C312.37 75.626 312.333 75.6231 312.296 75.6174C303.102 74.0233 295.083 68.9597 289.714 61.3587C284.345 53.7576 282.27 44.5283 283.87 35.3729C284.898 29.5023 287.426 23.9727 291.183 19.3808C291.402 19.1137 291.798 19.0739 292.068 19.2927C292.336 19.5115 292.376 19.9065 292.157 20.1764C288.536 24.6007 286.096 29.9314 285.108 35.5917C283.565 44.4175 285.567 53.3114 290.742 60.6397C295.917 67.968 303.648 72.8498 312.513 74.3871C312.854 74.4467 313.085 74.7707 313.025 75.1116C312.971 75.4157 312.706 75.6316 312.407 75.6316L312.405 75.626Z" fill="#161616"/>
<path d="M325.684 61.5969L322.627 56.1495C322.559 56.0279 322.444 55.94 322.309 55.9065C322.175 55.873 322.031 55.8958 321.911 55.9688C321.106 56.464 320.393 56.867 319.792 57.1697C319.211 57.461 318.713 57.6631 318.315 57.7709C317.625 57.9569 316.997 57.884 316.394 57.5512C315.524 57.07 314.312 55.862 312.781 53.9467C312.489 53.6071 312.168 53.2332 311.816 52.8257C311.469 52.4231 311.083 51.9843 310.658 51.5036C312.062 49.9713 312.956 48.8473 313.384 48.0722C313.743 47.4227 314.149 46.2834 314.621 44.5983L319.889 47.5095C320.139 47.6477 320.457 47.5511 320.6 47.2938L322.915 43.1032C323.058 42.8458 322.97 42.5251 322.72 42.3869L315.462 38.376C315.462 38.3497 315.462 38.325 315.462 38.3027C315.463 38.1967 315.462 38.1057 315.456 38.029C315.491 33.9173 315.973 30.9926 316.888 29.3358C317.983 27.3542 319.448 26.1092 321.368 25.526C323.295 24.9278 325.158 25.1506 327.065 26.2038C329.634 27.6237 330.81 29.6232 330.66 32.3218C330.596 33.6929 329.786 35.7954 328.252 38.5708C328.168 38.723 328.163 38.9063 328.234 39.0607C328.308 39.2159 328.452 39.3223 328.62 39.3456L335.551 40.3225C335.765 40.3527 335.98 40.2443 336.088 40.0498C338.242 36.1509 338.81 32.256 337.779 28.4771C336.783 24.6641 334.407 21.6984 330.715 19.6584C327.024 17.6184 323.177 17.127 319.203 18.1588C315.249 19.2119 312.256 21.535 310.306 25.0635C309.063 27.3118 308.297 30.4067 308.026 34.2714L304.229 32.1732C303.979 32.035 303.661 32.1316 303.519 32.389L301.203 36.5796C301.061 36.8369 301.149 37.1577 301.399 37.2958L307.721 40.7894C307.65 42.012 307.332 43.1427 306.773 44.1547C306.213 45.1667 305.466 46.1236 304.478 47.1324C302.621 46.4195 300.897 46.204 299.355 46.4868C297.966 46.7126 295.81 47.6716 292.766 49.4175C292.637 49.4918 292.542 49.6158 292.508 49.7607C292.472 49.9047 292.5 50.057 292.58 50.179L296.143 55.5377C296.189 55.6061 296.25 55.6621 296.32 55.7009C296.369 55.7278 296.423 55.7478 296.48 55.7566C296.618 55.7799 296.761 55.7458 296.875 55.6615C298.266 54.6424 299.325 54.0559 300.025 53.9204C300.68 53.7931 301.421 53.9546 302.226 54.3996C303.281 54.9826 304.893 56.5822 307.03 59.17C309.397 61.8317 311.259 63.5199 312.723 64.3288C314.746 65.447 316.789 65.8569 318.792 65.5504C320.736 65.2708 323.005 64.1781 325.536 62.2997C325.755 62.138 325.821 61.8385 325.689 61.6058L325.684 61.5969Z" fill="#161616"/>
<path d="M173.386 472.839C173.386 472.839 177.602 485.706 181.818 489.635C186.034 493.562 202.803 501.286 203.036 509.682C203.31 519.435 197.619 521.239 182.387 517.715C171.382 515.172 162.298 508.469 159.053 504.644C156.187 501.266 157.787 498.393 158.487 494.432C159.347 489.573 159.512 484.62 159.512 479.687V471.62L173.386 472.839Z" fill="white"/>
<path d="M193.846 520.004C190.869 520.004 187.074 519.444 182.244 518.327C170.999 515.727 161.756 508.805 158.571 505.052C156.077 502.111 156.712 499.417 157.384 496.564C157.552 495.845 157.729 495.104 157.865 494.325C158.759 489.267 158.879 484.087 158.879 479.688V471.621C158.879 471.445 158.953 471.277 159.084 471.158C159.214 471.039 159.391 470.979 159.565 470.996L173.439 472.215C173.69 472.238 173.903 472.405 173.98 472.644C174.023 472.772 178.196 485.403 182.246 489.176C183.368 490.222 185.469 491.583 187.903 493.16C194.478 497.419 203.485 503.253 203.664 509.664C203.778 513.747 202.887 516.418 200.858 518.074C199.281 519.362 197.032 520.001 193.846 520.001V520.004ZM160.14 472.306V479.688C160.14 484.141 160.017 489.386 159.106 494.541C158.961 495.356 158.785 496.115 158.611 496.848C157.936 499.71 157.45 501.781 159.533 504.239C162.613 507.871 171.583 514.574 182.531 517.103C191.982 519.288 197.39 519.288 200.066 517.103C201.769 515.713 202.514 513.36 202.412 509.698C202.252 503.946 193.565 498.32 187.222 494.211C184.74 492.603 182.594 491.213 181.392 490.094C177.478 486.445 173.681 475.67 172.921 473.428L160.142 472.306H160.14Z" fill="#161616"/>
<path d="M202.439 514.351C202.425 514.351 202.408 514.351 202.394 514.351L196.977 513.961C182.966 512.953 169.86 506.943 160.076 497.043C158.761 495.713 158.041 494.881 158.012 494.846C157.784 494.585 157.816 494.187 158.078 493.963C158.339 493.738 158.735 493.767 158.963 494.028C158.969 494.037 159.689 494.866 160.97 496.162C170.54 505.846 183.361 511.722 197.068 512.711L202.485 513.1C202.832 513.126 203.091 513.424 203.065 513.771C203.043 514.101 202.767 514.354 202.439 514.354V514.351Z" fill="#161616"/>
<path d="M169.744 493.656C169.442 493.656 169.177 493.44 169.126 493.133C169.069 492.792 169.299 492.468 169.641 492.412C169.712 492.4 176.723 491.198 179.334 487.808C179.544 487.533 179.94 487.482 180.213 487.692C180.49 487.902 180.541 488.297 180.33 488.57C177.418 492.352 170.156 493.597 169.849 493.648C169.815 493.653 169.781 493.656 169.746 493.656H169.744Z" fill="#161616"/>
<path d="M176.191 498.014C175.901 498.014 175.639 497.812 175.576 497.517C175.505 497.179 175.721 496.846 176.06 496.775C176.128 496.761 182.744 495.337 184.682 492.067C184.859 491.768 185.243 491.669 185.542 491.848C185.841 492.024 185.938 492.408 185.761 492.706C183.538 496.451 176.609 497.94 176.316 498.003C176.273 498.011 176.231 498.017 176.188 498.017L176.191 498.014Z" fill="#161616"/>
<path d="M183.113 502.129C182.856 502.129 182.617 501.972 182.523 501.72C182.404 501.396 182.569 501.035 182.893 500.913C182.947 500.893 188.347 498.858 189.919 495.582C190.07 495.269 190.443 495.139 190.756 495.286C191.069 495.437 191.2 495.809 191.052 496.122C189.261 499.858 183.571 501.998 183.329 502.086C183.258 502.112 183.184 502.126 183.11 502.126L183.113 502.129Z" fill="#161616"/>
<path d="M140.892 441.19C140.379 441.19 133.047 440.465 128.811 440.042C127.165 439.877 125.697 441.067 125.517 442.704L124.683 450.351C124.39 453.053 123.843 455.724 123.078 458.333C121.689 463.072 119.639 471.233 120.761 474.958C121.962 478.942 125.714 484.492 128.19 487.651C129.335 489.109 131.265 489.689 133.024 489.098C136.172 488.046 141.202 486.023 144.154 483.085C148.689 478.57 143.793 469.9 143.793 469.9L140.892 441.187V441.19Z" fill="white"/>
<path d="M131.636 489.953C130.124 489.953 128.655 489.268 127.693 488.041C124.957 484.554 121.342 479.084 120.155 475.143C119.039 471.435 120.799 463.859 122.472 458.159C123.238 455.548 123.77 452.899 124.055 450.285L124.886 442.639C125.103 440.667 126.887 439.223 128.866 439.419C136.022 440.132 140.514 440.561 140.884 440.564C141.206 440.564 141.476 440.809 141.511 441.127L144.4 469.716C145.009 470.841 149.168 478.979 144.593 483.534C141.642 486.475 136.777 488.509 133.218 489.697C132.697 489.87 132.165 489.956 131.636 489.956V489.953ZM128.504 440.655C127.306 440.655 126.267 441.562 126.136 442.772L125.305 450.419C125.012 453.104 124.465 455.826 123.677 458.509C122.347 463.044 120.275 471.185 121.357 474.779C122.421 478.311 125.8 483.596 128.678 487.265C129.654 488.507 131.317 489.01 132.817 488.504C135.627 487.566 140.776 485.554 143.702 482.642C147.85 478.51 143.284 470.292 143.236 470.21C143.193 470.136 143.167 470.051 143.159 469.966L140.309 441.778C138.542 441.636 133.23 441.113 128.735 440.664C128.655 440.655 128.576 440.652 128.499 440.652L128.504 440.655Z" fill="#161616"/>
<path d="M134.988 488.691C134.792 488.691 134.598 488.6 134.476 488.427C125.506 475.865 126.115 472.574 127.445 465.365C127.718 463.885 128.028 462.208 128.282 460.25C128.956 455.036 130.983 440.701 131.003 440.559C131.051 440.215 131.37 439.973 131.712 440.024C132.056 440.073 132.295 440.391 132.247 440.732C132.227 440.877 130.203 455.204 129.528 460.41C129.269 462.399 128.956 464.095 128.68 465.59C127.416 472.441 126.838 475.566 135.498 487.697C135.7 487.978 135.634 488.37 135.35 488.572C135.239 488.651 135.111 488.688 134.985 488.688L134.988 488.691Z" fill="#161616"/>
<path d="M133.776 466.788C133.468 466.788 133.201 466.563 133.155 466.251C133.104 465.907 133.343 465.589 133.685 465.54L141.949 464.33C142.302 464.276 142.612 464.517 142.66 464.858C142.711 465.202 142.472 465.52 142.131 465.569L133.867 466.779C133.836 466.785 133.804 466.785 133.776 466.785V466.788Z" fill="#161616"/>
<path d="M134.635 472.721C134.328 472.721 134.06 472.497 134.015 472.184C133.963 471.84 134.203 471.522 134.544 471.474L142.808 470.263C143.161 470.206 143.471 470.451 143.52 470.792C143.571 471.135 143.332 471.454 142.99 471.502L134.726 472.712C134.695 472.718 134.664 472.718 134.635 472.718V472.721Z" fill="#161616"/>
<path d="M143.616 475.452C148.435 478.763 158.632 483.022 175.768 477.902L168.393 275.116L136.112 268.976C136.112 268.976 131.409 341.727 135.987 385.026C140.166 424.549 140.336 458.238 140.265 468.94C140.248 471.525 141.478 473.983 143.616 475.449V475.452Z" fill="#161616"/>
<path d="M143.758 259.853L199.095 241.534L217.669 345.062C215.753 370.562 186.405 438.06 175.369 445.615C157.959 457.536 143.758 259.853 143.758 259.853Z" fill="#161616"/>
<path d="M175.465 446.762H175.448C175.101 446.753 174.828 446.466 174.836 446.119L178.414 304.56C178.423 304.219 178.702 303.949 179.043 303.949H179.061C179.408 303.958 179.681 304.245 179.673 304.591L176.094 446.151C176.086 446.492 175.807 446.762 175.468 446.762H175.465Z" fill="white"/>
<path d="M253.045 137.312C252.607 137.227 252.294 136.846 252.305 136.402C252.353 134.098 252.837 127.185 256.731 124.011C261.445 120.169 265.445 111.349 268.303 112.204C271.161 113.059 264.876 120.74 265.587 121.592C266.302 122.445 271.3 117.609 272.872 114.764C274.443 111.92 276.345 106.351 278.628 106.541C281.759 106.799 282.445 111.494 278.3 120.74C274.358 129.54 261.101 131.899 260.073 137.744C259.985 138.241 259.501 138.565 259.003 138.468L253.042 137.315L253.045 137.312Z" fill="white"/>
<path d="M259.187 139.112C259.087 139.112 258.987 139.104 258.888 139.084L252.93 137.93C252.19 137.788 251.663 137.14 251.68 136.393C251.74 133.617 252.315 126.805 256.337 123.526C258.267 121.955 260.137 119.437 261.786 117.215C264.37 113.734 266.414 110.981 268.487 111.603C268.993 111.754 269.358 112.075 269.545 112.532C270.086 113.865 269.013 115.965 267.433 118.789C267.06 119.457 266.591 120.298 266.34 120.861C267.766 120.02 271.037 116.798 272.327 114.465C272.688 113.811 273.072 113.001 273.477 112.143C274.965 108.995 276.486 105.724 278.683 105.917C279.759 106.005 280.61 106.534 281.151 107.449C282.546 109.802 281.738 114.615 278.877 120.997C276.727 125.797 272.002 128.692 267.835 131.247C264.239 133.452 261.134 135.356 260.695 137.853C260.624 138.257 260.399 138.606 260.058 138.842C259.796 139.021 259.494 139.115 259.184 139.115L259.187 139.112ZM267.894 112.771C266.645 112.771 264.689 115.408 262.793 117.96C261.1 120.241 259.181 122.824 257.129 124.495C253.408 127.527 252.975 134.387 252.933 136.415C252.93 136.552 253.027 136.668 253.166 136.697L259.124 137.85C259.229 137.867 259.306 137.831 259.346 137.805C259.389 137.777 259.443 137.723 259.457 137.634C259.995 134.58 263.323 132.54 267.177 130.175C271.191 127.715 275.74 124.924 277.729 120.483C281.493 112.083 280.619 109.015 280.069 108.083C279.736 107.52 279.25 107.219 278.578 107.165C278.555 107.165 278.535 107.165 278.512 107.165C277.217 107.165 275.711 110.344 274.61 112.677C274.194 113.553 273.804 114.379 273.423 115.07C272.099 117.465 267.675 122.151 265.95 122.316C265.483 122.367 265.219 122.134 265.105 121.998C264.581 121.372 265.071 120.435 266.332 118.181C267.231 116.576 268.731 113.885 268.375 113.007C268.347 112.939 268.301 112.862 268.122 112.808C268.048 112.785 267.971 112.777 267.894 112.777V112.771Z" fill="#161616"/>
<path d="M259.872 136.471L253.237 135.15C251.774 134.857 250.339 135.761 249.983 137.204C247.894 145.663 240.968 172.149 235.671 174.3C229.357 176.86 224.213 170.342 213.456 164.986C207.717 162.13 198.95 161.062 192.019 160.686C185.958 160.36 179.887 160.88 173.966 162.212L155.073 166.46C152.776 166.853 145.053 168.31 136.633 172.931C137.163 173.797 128.361 177.074 128.822 177.952C135.438 190.531 136.018 208.828 134.649 222.978C141.179 232.461 151.794 236.311 147.638 242.713C139.263 255.622 136.713 263.555 136.454 275.129C147.282 267.207 163.684 257.25 185.437 250.82C197.592 247.225 208.688 245.54 217.968 244.81C216.254 241.92 213.789 237.138 212.326 230.844C210.165 221.543 211.942 216.477 210.618 205.767C210.128 201.815 209.07 195.89 206.436 188.741C218.608 199.9 234.615 204.83 246.655 199.917C264.327 192.708 275.002 163.67 259.866 136.474L259.872 136.471Z" fill="white"/>
<path d="M136.459 275.757C136.359 275.757 136.26 275.734 136.168 275.686C135.955 275.575 135.827 275.353 135.83 275.115C136.1 263.084 138.841 255.127 147.116 242.372C149.354 238.925 146.948 236.45 142.143 232.014C139.533 229.605 136.576 226.874 134.136 223.333C134.053 223.211 134.014 223.064 134.028 222.919C134.856 214.351 135.952 192.852 128.269 178.241C128.17 178.054 128.153 177.832 128.221 177.622C128.44 176.943 129.553 176.335 132.445 174.888C133.703 174.26 135.565 173.328 136.009 172.899C136.009 172.854 136.018 172.808 136.029 172.766C136.075 172.601 136.183 172.459 136.334 172.379C144.059 168.14 151.326 166.463 154.97 165.841L173.831 161.598C179.835 160.249 185.969 159.729 192.055 160.058C198.665 160.416 207.794 161.465 213.737 164.423C217.284 166.188 220.202 168.066 222.781 169.722C228.024 173.092 231.485 175.32 235.434 173.718C239.436 172.095 245.26 153.713 249.373 137.053C249.809 135.283 251.557 134.175 253.358 134.533L259.994 135.854C260.176 135.891 260.33 136.005 260.421 136.164C268.169 150.087 269.846 165.926 265.026 179.625C261.508 189.622 254.901 197.228 246.9 200.49C235.451 205.162 220.333 201.349 207.833 190.792C209.49 195.734 210.637 200.732 211.249 205.685C211.839 210.453 211.819 214.033 211.799 217.5C211.773 221.833 211.753 225.575 212.943 230.696C214.059 235.492 215.932 240.133 218.514 244.483C218.625 244.671 218.63 244.901 218.531 245.091C218.431 245.281 218.238 245.409 218.021 245.426C207.034 246.29 196.131 248.305 185.619 251.413C168.144 256.579 151.728 264.729 136.826 275.629C136.715 275.709 136.587 275.751 136.456 275.751L136.459 275.757ZM135.3 222.811C137.637 226.147 140.481 228.775 142.997 231.097C147.518 235.268 151.087 238.561 148.172 243.057C140.342 255.127 137.555 262.805 137.128 273.87C151.867 263.263 168.058 255.306 185.266 250.217C195.545 247.177 206.194 245.176 216.934 244.264C214.546 240.053 212.792 235.592 211.722 230.986C210.498 225.72 210.521 221.725 210.543 217.497C210.563 214.073 210.583 210.53 210.002 205.844C209.308 200.226 207.913 194.543 205.855 188.957C205.755 188.687 205.855 188.38 206.094 188.221C206.336 188.059 206.655 188.084 206.868 188.28C219.146 199.539 235.044 203.983 246.424 199.34C254.093 196.211 260.441 188.877 263.842 179.219C268.516 165.943 266.917 150.582 259.464 137.036L253.114 135.772C251.975 135.545 250.871 136.244 250.594 137.36C247.99 147.908 241.343 172.68 235.909 174.885C231.352 176.732 227.472 174.238 222.1 170.782C219.55 169.143 216.661 167.284 213.176 165.551C207.423 162.687 198.477 161.667 191.987 161.317C186.009 160.99 179.997 161.505 174.107 162.829L155.215 167.077C151.662 167.685 144.683 169.293 137.225 173.325C136.963 173.988 135.815 174.613 133.006 176.016C131.808 176.616 130.06 177.488 129.522 177.937C137.142 192.708 136.129 214.042 135.297 222.816L135.3 222.811Z" fill="#161616"/>
<path d="M184.119 246.225C184.025 246.225 183.931 246.205 183.843 246.16C183.533 246.006 183.405 245.631 183.555 245.321L199.77 212.411C199.924 212.101 200.302 211.973 200.61 212.124C200.92 212.277 201.048 212.652 200.897 212.962L184.683 245.873C184.575 246.094 184.35 246.222 184.119 246.222V246.225Z" fill="#161616"/>
<path d="M198.298 235.358C198.218 235.358 198.136 235.343 198.059 235.309C197.74 235.176 197.586 234.809 197.72 234.491L202.164 223.778C202.298 223.457 202.665 223.307 202.984 223.44C203.302 223.574 203.456 223.94 203.322 224.259L198.879 234.971C198.779 235.213 198.546 235.358 198.298 235.358Z" fill="#161616"/>
<path d="M136.636 172.931C136.636 172.931 72.2438 202.929 90.4789 239.238C104.732 267.622 140.735 233.501 140.735 233.501L132.639 219.498C132.639 219.498 117.225 231.301 115.768 225.212C114.336 219.233 121.529 211.851 141.706 215.684L146.149 220.768C146.149 220.768 153.109 204.429 138.122 175.559L136.639 172.934L136.636 172.931Z" fill="white"/>
<path d="M134.656 222.977L143.62 213.415C151.71 213.799 157.825 215.609 162.587 218.396C163.882 219.155 163.572 221.093 162.101 221.377C159.41 221.897 155.459 222.795 150.649 224.284C141.366 227.154 139.353 229.14 139.353 229.14L134.659 222.977H134.656Z" fill="white"/>
<path d="M139.354 229.767C139.34 229.767 139.326 229.767 139.309 229.767C139.13 229.755 138.962 229.665 138.853 229.522L134.159 223.359C133.974 223.115 133.991 222.774 134.199 222.552L143.163 212.988C143.289 212.854 143.465 212.775 143.653 212.789C151.413 213.155 157.709 214.815 162.907 217.858C163.73 218.341 164.16 219.253 164.001 220.188C163.844 221.106 163.144 221.816 162.221 221.995C159.736 222.476 155.745 223.368 150.835 224.885C141.948 227.633 139.816 229.571 139.799 229.591C139.679 229.707 139.522 229.773 139.357 229.773L139.354 229.767ZM135.48 223.018L139.474 228.258C140.576 227.502 143.536 225.823 150.465 223.683C155.432 222.149 159.472 221.245 161.985 220.759C162.603 220.64 162.739 220.126 162.765 219.972C162.822 219.643 162.722 219.199 162.275 218.935C157.322 216.034 151.305 214.437 143.886 214.053L135.483 223.018H135.48Z" fill="#161616"/>
<path d="M174.863 358.341L160.726 368.44L149.602 324.882L146.328 276.673L152.531 280.799L174.863 358.341Z" fill="white"/>
<path d="M160.721 369.068C160.65 369.068 160.576 369.056 160.505 369.031C160.309 368.96 160.163 368.798 160.112 368.596L148.988 325.038C148.979 325.001 148.973 324.964 148.971 324.925L145.697 276.715C145.68 276.477 145.802 276.249 146.01 276.13C146.215 276.011 146.474 276.019 146.673 276.15L152.876 280.276C153.001 280.358 153.09 280.48 153.132 280.625L175.467 358.168C175.541 358.423 175.444 358.696 175.228 358.853L161.091 368.951C160.983 369.028 160.855 369.068 160.727 369.068H160.721ZM150.217 324.783L161.103 367.397L174.132 358.091L151.985 281.194L147.038 277.9L150.22 324.783H150.217Z" fill="#161616"/>
<path d="M72.6953 374.433L91.8669 278.258L146.316 276.673L160.714 368.44L72.6953 374.433Z" fill="white"/>
<path d="M72.6916 375.061C72.5123 375.061 72.3387 374.984 72.2191 374.848C72.091 374.7 72.0369 374.504 72.0739 374.311L91.2455 278.136C91.3024 277.849 91.5501 277.639 91.8433 277.631L146.292 276.045C146.597 276.039 146.881 276.264 146.933 276.576L161.331 368.344C161.356 368.517 161.311 368.693 161.2 368.832C161.089 368.969 160.926 369.054 160.753 369.068L72.7343 375.061C72.7201 375.061 72.7059 375.061 72.6916 375.061ZM92.3813 278.872L73.4659 373.754L159.981 367.863L145.774 277.318L92.3784 278.875L92.3813 278.872Z" fill="#161616"/>
<path d="M136.8 282.882C136.487 282.882 136.214 282.646 136.177 282.328L131.309 241.429C131.269 241.086 131.514 240.773 131.858 240.733C132.208 240.691 132.516 240.938 132.556 241.282L137.423 282.18C137.463 282.524 137.219 282.836 136.874 282.876C136.848 282.879 136.823 282.882 136.8 282.882Z" fill="#161616"/>
<path d="M102.628 282.383C102.608 282.383 102.585 282.383 102.565 282.381C102.227 282.347 101.976 282.06 102.002 281.719C102.136 279.98 117.029 232.128 122.07 223.41C123.109 221.615 124.954 221.919 125.842 222.064C125.993 222.089 126.198 222.135 126.264 222.118C126.602 222.041 126.921 222.251 127.001 222.589C127.081 222.927 126.853 223.265 126.514 223.345C126.264 223.402 125.987 223.356 125.637 223.3C124.61 223.132 123.716 223.069 123.158 224.036C118.205 232.597 103.522 279.758 103.251 281.824C103.212 282.139 102.938 282.381 102.625 282.381L102.628 282.383Z" fill="#161616"/>
<path d="M114.717 346.951L95.5078 354.782L101.756 323.596L115.716 284.241L118.116 287.992L114.717 346.951Z" fill="white"/>
<path d="M95.505 355.408C95.3627 355.408 95.2204 355.359 95.1037 355.266C94.9243 355.118 94.8418 354.885 94.8873 354.658L101.136 323.472C101.141 323.443 101.15 323.415 101.158 323.387L115.118 284.034C115.198 283.807 115.4 283.648 115.639 283.622C115.881 283.591 116.112 283.707 116.24 283.906L118.64 287.657C118.711 287.768 118.745 287.899 118.736 288.029L115.337 346.988C115.323 347.23 115.172 347.44 114.947 347.534L95.7385 355.362C95.6616 355.394 95.5819 355.408 95.5022 355.408H95.505ZM102.363 323.762L96.3505 353.757L114.111 346.519L117.475 288.157L115.875 285.66L102.36 323.762H102.363Z" fill="#161616"/>
<path d="M76.0032 266.093L115.73 284.242L95.522 354.78L35.75 319.798C35.75 319.798 65.915 288.501 76.0032 266.096V266.093Z" fill="white"/>
<path d="M95.5154 355.408C95.4044 355.408 95.2962 355.379 95.1966 355.322L35.4274 320.338C35.2623 320.241 35.1484 320.073 35.1228 319.883C35.0972 319.693 35.1598 319.502 35.2908 319.363C35.5925 319.05 65.4956 287.887 75.4244 265.837C75.4927 265.684 75.6208 265.567 75.7774 265.507C75.9339 265.451 76.1076 265.454 76.2584 265.525L115.985 283.673C116.267 283.801 116.412 284.117 116.327 284.415L96.1189 354.953C96.0648 355.141 95.9282 355.291 95.7488 355.362C95.672 355.394 95.5951 355.408 95.5154 355.408ZM36.7454 319.656L95.134 353.831L114.969 284.588L76.3068 266.925C66.8136 287.455 40.853 315.317 36.7425 319.656H36.7454Z" fill="#161616"/>
<path d="M107.16 289.228C107.1 289.228 107.041 289.22 106.981 289.203C106.648 289.103 106.46 288.754 106.557 288.422L118.641 247.827C118.74 247.498 119.087 247.307 119.423 247.404C119.756 247.504 119.944 247.853 119.848 248.185L107.764 288.78C107.681 289.052 107.433 289.228 107.16 289.228Z" fill="#161616"/>
<path d="M82.6659 276.572C82.5464 276.572 82.4268 276.537 82.3187 276.466C82.0311 276.276 81.9514 275.884 82.145 275.597C83.4972 273.571 115.294 225.941 118.767 222.23C120.714 220.15 123.133 219.247 125.083 219.877C126.507 220.338 127.438 221.523 127.64 223.128C127.682 223.472 127.44 223.785 127.096 223.83C126.746 223.87 126.438 223.631 126.393 223.287C126.251 222.168 125.65 221.381 124.696 221.074C123.535 220.696 121.611 221.031 119.686 223.088C116.282 226.726 83.5228 275.799 83.1897 276.293C83.0702 276.475 82.8709 276.572 82.6659 276.572Z" fill="#161616"/>
<path d="M107.236 251.146C106.064 251.146 104.902 251.053 103.758 250.854C97.8285 249.817 93.1715 246.003 89.915 239.516C86.095 231.912 85.5769 223.996 88.3665 215.983C97.1083 190.892 135.978 172.541 136.368 172.359C136.684 172.212 137.057 172.348 137.202 172.663C137.35 172.976 137.213 173.351 136.897 173.496C136.51 173.675 98.116 191.807 89.5507 216.397C86.8749 224.075 87.3759 231.665 91.0366 238.953C94.1052 245.066 98.4576 248.654 103.971 249.618C105.025 249.802 106.098 249.888 107.185 249.888C121.136 249.888 137.322 235.745 139.935 233.376L132.445 220.421C129.884 222.322 120.783 228.764 116.889 227.38C115.992 227.062 115.392 226.363 115.15 225.354C114.598 223.052 115.221 220.728 116.903 218.804C118.85 216.576 123.951 213.022 136.194 214.238C136.539 214.272 136.792 214.579 136.758 214.923C136.724 215.269 136.408 215.514 136.072 215.485C127.535 214.636 120.894 216.147 117.851 219.625C116.445 221.234 115.921 223.163 116.374 225.058C116.516 225.658 116.815 226.019 117.31 226.195C120.416 227.298 129.149 221.367 132.252 218.992C132.394 218.881 132.582 218.841 132.756 218.875C132.932 218.909 133.086 219.02 133.177 219.176L141.273 233.179C141.418 233.43 141.372 233.748 141.162 233.947C140.367 234.697 122.824 251.141 107.233 251.141L107.236 251.146Z" fill="#161616"/>
<path d="M172.615 151.415C172.615 151.415 170.534 153.697 166.188 152.895L172.615 151.415Z" fill="white"/>
<path d="M167.988 153.695C167.401 153.695 166.761 153.641 166.069 153.513C165.727 153.451 165.503 153.124 165.565 152.783C165.628 152.442 165.952 152.215 166.297 152.28C170.256 153.01 172.129 151.016 172.147 150.993C172.38 150.737 172.778 150.717 173.035 150.953C173.291 151.186 173.311 151.584 173.075 151.84C172.995 151.928 171.335 153.695 167.988 153.695Z" fill="#161616"/>
<path d="M179.331 120.129C179.331 140.409 165.793 163.551 145.429 163.551C125.065 163.551 104.336 146.078 104.336 125.798C104.336 105.518 121.469 85.9883 141.834 85.9883C162.198 85.9883 179.331 99.8492 179.331 120.129Z" fill="#161616"/>
<path d="M112.796 137.085C112.796 139.412 110.903 141.299 108.566 141.299C106.229 141.299 104.336 139.412 104.336 137.085C104.336 134.758 106.229 132.871 108.566 132.871C110.903 132.871 112.796 134.758 112.796 137.085Z" fill="#161616"/>
<path d="M114.99 151.504C118.54 151.504 121.418 148.639 121.418 145.105C121.418 141.571 118.54 138.706 114.99 138.706C111.44 138.706 108.562 141.571 108.562 145.105C108.562 148.639 111.44 151.504 114.99 151.504Z" fill="#161616"/>
<path d="M117.593 146.352C114.584 149.347 114.584 154.203 117.593 157.198C120.601 160.193 125.478 160.193 128.484 157.198C131.493 154.203 131.493 149.347 128.484 146.352C125.475 143.357 120.599 143.357 117.593 146.352Z" fill="#161616"/>
<path d="M126.062 156.051C126.062 160.859 129.977 164.755 134.802 164.755C139.627 164.755 143.541 160.859 143.541 156.051C143.541 151.243 139.627 147.348 134.802 147.348C129.977 147.348 126.062 151.243 126.062 156.051Z" fill="#161616"/>
<path d="M147.222 165.653C152.549 165.653 156.867 161.353 156.867 156.049C156.867 150.744 152.549 146.444 147.222 146.444C141.896 146.444 137.578 150.744 137.578 156.049C137.578 161.353 141.896 165.653 147.222 165.653Z" fill="#161616"/>
<path d="M108.451 130.385C112.795 130.385 116.316 126.879 116.316 122.554C116.316 118.229 112.795 114.723 108.451 114.723C104.107 114.723 100.586 118.229 100.586 122.554C100.586 126.879 104.107 130.385 108.451 130.385Z" fill="#161616"/>
<path d="M118.919 119.306C115.583 122.627 110.174 122.627 106.838 119.306C103.502 115.984 103.502 110.599 106.838 107.275C110.174 103.953 115.583 103.953 118.919 107.275C122.255 110.596 122.255 115.981 118.919 119.306Z" fill="#161616"/>
<path d="M108.452 135.964C111.148 135.964 113.334 133.787 113.334 131.102C113.334 128.417 111.148 126.24 108.452 126.24C105.756 126.24 103.57 128.417 103.57 131.102C103.57 133.787 105.756 135.964 108.452 135.964Z" fill="#161616"/>
<path d="M174.892 127.902C178.547 127.902 181.51 124.951 181.51 121.312C181.51 117.673 178.547 114.723 174.892 114.723C171.237 114.723 168.273 117.673 168.273 121.312C168.273 124.951 171.237 127.902 174.892 127.902Z" fill="#161616"/>
<path d="M175.282 119.824C179.152 119.824 182.29 116.699 182.29 112.845C182.29 108.991 179.152 105.866 175.282 105.866C171.411 105.866 168.273 108.991 168.273 112.845C168.273 116.699 171.411 119.824 175.282 119.824Z" fill="#161616"/>
<path d="M170.408 111.893C174.503 111.893 177.823 108.587 177.823 104.508C177.823 100.429 174.503 97.123 170.408 97.123C166.312 97.123 162.992 100.429 162.992 104.508C162.992 108.587 166.312 111.893 170.408 111.893Z" fill="#161616"/>
<path d="M165.144 102.393C168.982 102.393 172.093 99.2937 172.093 95.4708C172.093 91.6479 168.982 88.5488 165.144 88.5488C161.306 88.5488 158.195 91.6479 158.195 95.4708C158.195 99.2937 161.306 102.393 165.144 102.393Z" fill="#161616"/>
<path d="M156.333 95.4733C158.963 95.4733 161.095 93.35 161.095 90.7308C161.095 88.1116 158.963 85.9883 156.333 85.9883C153.703 85.9883 151.57 88.1116 151.57 90.7308C151.57 93.35 153.703 95.4733 156.333 95.4733Z" fill="#161616"/>
<path d="M147.84 95.1558C151.161 95.1558 153.852 92.4753 153.852 89.1687C153.852 85.8622 151.161 83.1816 147.84 83.1816C144.52 83.1816 141.828 85.8622 141.828 89.1687C141.828 92.4753 144.52 95.1558 147.84 95.1558Z" fill="#161616"/>
<path d="M138.229 100.898C142.723 100.898 146.365 97.2707 146.365 92.7965C146.365 88.3223 142.723 84.6953 138.229 84.6953C133.736 84.6953 130.094 88.3223 130.094 92.7965C130.094 97.2707 133.736 100.898 138.229 100.898Z" fill="#161616"/>
<path d="M128.681 100.463C132.695 100.463 135.949 97.2227 135.949 93.2257C135.949 89.2286 132.695 85.9883 128.681 85.9883C124.668 85.9883 121.414 89.2286 121.414 93.2257C121.414 97.2227 124.668 100.463 128.681 100.463Z" fill="#161616"/>
<path d="M121.413 104.994C125.779 104.994 129.318 101.47 129.318 97.123C129.318 92.7759 125.779 89.252 121.413 89.252C117.047 89.252 113.508 92.7759 113.508 97.123C113.508 101.47 117.047 104.994 121.413 104.994Z" fill="#161616"/>
<path d="M110.955 108.784C113.92 108.784 116.323 106.39 116.323 103.437C116.323 100.483 113.92 98.0889 110.955 98.0889C107.99 98.0889 105.586 100.483 105.586 103.437C105.586 106.39 107.99 108.784 110.955 108.784Z" fill="#161616"/>
<path d="M167.956 120.772C169.516 121.625 170.356 121.793 171.651 122.639C174.287 124.361 177.439 130.329 181.432 130.928C182.227 132.923 180.613 133.477 180.203 134.75C180.863 135.679 182.537 140.274 183.906 143.022C184.384 143.982 184.071 145.161 183.166 145.741C181.64 146.721 179.861 147.508 177.806 148.057C177.806 148.057 169.613 165.515 182.067 171.781L155.656 169.516L162.756 146.417C162.414 146.36 157.942 145.559 156.846 142.209C156.442 140.979 156.337 138.918 157.396 138.276C158.429 137.648 160.507 138.41 162.138 140.561C162.289 139.947 162.374 139.18 162.445 138.299C162.542 137.094 162.528 135.739 162.073 135.142C171.933 130.365 160.666 122.077 167.956 120.772Z" fill="white"/>
<path d="M182.063 172.407C182.046 172.407 182.026 172.407 182.009 172.407L155.598 170.142C155.41 170.125 155.237 170.026 155.131 169.87C155.026 169.713 154.995 169.515 155.051 169.335L161.949 146.89C160.469 146.518 157.218 145.381 156.244 142.406C155.786 141.008 155.629 138.616 157.064 137.743C158.274 137.007 160.141 137.616 161.73 139.158C161.764 138.852 161.792 138.545 161.815 138.252C161.977 136.237 161.667 135.655 161.567 135.524C161.454 135.374 161.414 135.18 161.456 134.998C161.499 134.817 161.624 134.663 161.792 134.581C166.723 132.194 165.934 129.06 165.171 126.033C164.756 124.383 164.363 122.823 165.131 121.635C165.621 120.879 166.506 120.396 167.841 120.157C167.981 120.132 168.129 120.157 168.254 120.225C168.909 120.583 169.427 120.814 169.931 121.038C170.594 121.334 171.217 121.612 171.995 122.118C173.031 122.794 174.101 124.036 175.234 125.349C177.101 127.514 179.219 129.966 181.525 130.31C181.747 130.344 181.932 130.492 182.015 130.699C182.678 132.364 181.924 133.325 181.371 134.024C181.192 134.251 181.021 134.47 180.902 134.697C181.26 135.337 181.756 136.507 182.467 138.212C183.102 139.735 183.822 141.457 184.463 142.742C185.089 143.998 184.673 145.515 183.501 146.268C181.955 147.26 180.19 148.038 178.254 148.581C177.326 150.743 171.388 165.707 182.345 171.219C182.612 171.353 182.749 171.66 182.667 171.95C182.59 172.222 182.342 172.407 182.063 172.407ZM156.48 168.958L179.518 170.932C169.968 163.607 177.15 147.959 177.229 147.791C177.309 147.623 177.457 147.498 177.637 147.45C179.564 146.939 181.306 146.186 182.82 145.214C183.455 144.805 183.677 143.983 183.338 143.301C182.681 141.98 181.952 140.235 181.309 138.695C180.662 137.147 179.994 135.547 179.686 135.115C179.572 134.953 179.538 134.748 179.601 134.561C179.772 134.03 180.096 133.615 180.384 133.251C180.842 132.666 181.164 132.256 180.953 131.478C178.357 130.89 176.196 128.386 174.28 126.164C173.207 124.92 172.191 123.746 171.306 123.164C170.617 122.712 170.062 122.465 169.421 122.18C168.969 121.979 168.462 121.754 167.853 121.43C167.002 121.609 166.458 121.899 166.19 122.311C165.718 123.038 166.031 124.283 166.395 125.721C167.13 128.639 168.126 132.6 162.902 135.419C163.122 136.095 163.176 137.061 163.073 138.346C163.011 139.11 162.925 139.988 162.749 140.707C162.692 140.943 162.504 141.122 162.265 141.173C162.029 141.221 161.784 141.13 161.636 140.937C160.133 138.951 158.365 138.417 157.722 138.809C157.087 139.193 157.05 140.818 157.443 142.011C158.433 145.032 162.678 145.765 162.857 145.796C163.036 145.825 163.193 145.93 163.29 146.086C163.386 146.24 163.409 146.427 163.355 146.6L156.486 168.958H156.48Z" fill="#161616"/>
<path d="M168.992 148.42C168.992 148.42 172.969 149.94 177.469 148.158L168.992 148.42Z" fill="white"/>
<path d="M172.858 149.656C170.507 149.656 168.87 149.048 168.762 149.006C168.438 148.881 168.278 148.52 168.401 148.199C168.523 147.875 168.884 147.713 169.212 147.835C169.249 147.849 173.029 149.242 177.234 147.576C177.552 147.449 177.922 147.608 178.048 147.929C178.176 148.25 178.016 148.614 177.695 148.741C175.941 149.435 174.27 149.656 172.855 149.656H172.858Z" fill="#161616"/>
<path d="M179.034 305.2C178.906 305.2 178.775 305.16 178.664 305.081C178.385 304.876 178.322 304.484 178.527 304.205L186.29 293.575C186.495 293.297 186.885 293.234 187.167 293.439C187.445 293.644 187.508 294.036 187.303 294.314L179.54 304.944C179.418 305.112 179.227 305.203 179.034 305.203V305.2Z" fill="white"/>
</svg>
