<svg width="28" height="28" viewBox="0 0 28 28" fill="none" xmlns="http://www.w3.org/2000/svg">
<path d="M10.22 5H17.78C20.66 5 23 7.34 23 10.22V17.78C23 19.1644 22.45 20.4922 21.4711 21.4711C20.4922 22.45 19.1644 23 17.78 23H10.22C7.34 23 5 20.66 5 17.78V10.22C5 8.83557 5.54996 7.50784 6.5289 6.5289C7.50784 5.54996 8.83557 5 10.22 5ZM10.04 6.8C9.1807 6.8 8.35659 7.14136 7.74897 7.74897C7.14136 8.35659 6.8 9.1807 6.8 10.04V17.96C6.8 19.751 8.249 21.2 10.04 21.2H17.96C18.8193 21.2 19.6434 20.8586 20.251 20.251C20.8586 19.6434 21.2 18.8193 21.2 17.96V10.04C21.2 8.249 19.751 6.8 17.96 6.8H10.04ZM18.725 8.15C19.0234 8.15 19.3095 8.26853 19.5205 8.4795C19.7315 8.69048 19.85 8.97663 19.85 9.275C19.85 9.57337 19.7315 9.85952 19.5205 10.0705C19.3095 10.2815 19.0234 10.4 18.725 10.4C18.4266 10.4 18.1405 10.2815 17.9295 10.0705C17.7185 9.85952 17.6 9.57337 17.6 9.275C17.6 8.97663 17.7185 8.69048 17.9295 8.4795C18.1405 8.26853 18.4266 8.15 18.725 8.15ZM14 9.5C15.1935 9.5 16.3381 9.97411 17.182 10.818C18.0259 11.6619 18.5 12.8065 18.5 14C18.5 15.1935 18.0259 16.3381 17.182 17.182C16.3381 18.0259 15.1935 18.5 14 18.5C12.8065 18.5 11.6619 18.0259 10.818 17.182C9.97411 16.3381 9.5 15.1935 9.5 14C9.5 12.8065 9.97411 11.6619 10.818 10.818C11.6619 9.97411 12.8065 9.5 14 9.5ZM14 11.3C13.2839 11.3 12.5972 11.5845 12.0908 12.0908C11.5845 12.5972 11.3 13.2839 11.3 14C11.3 14.7161 11.5845 15.4028 12.0908 15.9092C12.5972 16.4155 13.2839 16.7 14 16.7C14.7161 16.7 15.4028 16.4155 15.9092 15.9092C16.4155 15.4028 16.7 14.7161 16.7 14C16.7 13.2839 16.4155 12.5972 15.9092 12.0908C15.4028 11.5845 14.7161 11.3 14 11.3Z" fill="white"/>
</svg>
