<svg xmlns="http://www.w3.org/2000/svg" width="28" height="28" fill="none"><path d="M10.22 5h7.56C20.66 5 23 7.34 23 10.22v7.56A5.22 5.22 0 0 1 17.78 23h-7.56C7.34 23 5 20.66 5 17.78v-7.56A5.22 5.22 0 0 1 10.22 5zm-.18 1.8a3.24 3.24 0 0 0-3.24 3.24v7.92a3.24 3.24 0 0 0 3.24 3.24h7.92a3.24 3.24 0 0 0 3.24-3.24v-7.92a3.24 3.24 0 0 0-3.24-3.24h-7.92zm8.685 1.35c.298 0 .584.119.795.329s.33.497.33.796-.119.585-.33.795-.497.33-.795.33-.585-.119-.796-.33-.329-.497-.329-.795.118-.585.329-.796.497-.329.796-.329zM14 9.5a4.5 4.5 0 0 1 4.5 4.5 4.5 4.5 0 0 1-4.5 4.5A4.5 4.5 0 0 1 9.5 14 4.5 4.5 0 0 1 14 9.5zm0 1.8a2.7 2.7 0 0 0-2.7 2.7 2.7 2.7 0 0 0 2.7 2.7 2.7 2.7 0 0 0 2.7-2.7 2.7 2.7 0 0 0-2.7-2.7z" fill="#66fecb"/></svg>