<svg width="28" height="28" viewBox="0 0 28 28" fill="none" xmlns="http://www.w3.org/2000/svg">
<path d="M8.09635 5.83255C8.09605 6.45139 7.84992 7.04476 7.41211 7.48212C6.97431 7.91949 6.38069 8.16502 5.76185 8.16471C5.14302 8.1644 4.54965 7.91827 4.11228 7.48047C3.67491 7.04267 3.42938 6.44905 3.42969 5.83021C3.43 5.21138 3.67613 4.61801 4.11393 4.18064C4.55173 3.74327 5.14535 3.49774 5.76419 3.49805C6.38303 3.49836 6.9764 3.74449 7.41376 4.18229C7.85113 4.62009 8.09666 5.21371 8.09635 5.83255ZM8.16635 9.89255H3.49969V24.4992H8.16635V9.89255ZM15.5397 9.89255H10.8964V24.4992H15.493V16.8342C15.493 12.5642 21.058 12.1675 21.058 16.8342V24.4992H25.6664V15.2475C25.6664 8.04921 17.4297 8.31755 15.493 11.8525L15.5397 9.89255Z" fill="white"/>
</svg>
