<svg width="16" height="16" viewBox="0 0 16 16" fill="none" xmlns="http://www.w3.org/2000/svg">
<path d="M7.9974 1.33398C5.06406 1.33398 2.66406 3.73398 2.66406 6.66732C2.66406 10.2673 7.33073 14.334 7.53073 14.534C7.66406 14.6006 7.86406 14.6673 7.9974 14.6673C8.13073 14.6673 8.33073 14.6006 8.46406 14.534C8.66406 14.334 13.3307 10.2673 13.3307 6.66732C13.3307 3.73398 10.9307 1.33398 7.9974 1.33398ZM7.9974 13.134C6.5974 11.8007 3.9974 8.93398 3.9974 6.66732C3.9974 4.46732 5.7974 2.66732 7.9974 2.66732C10.1974 2.66732 11.9974 4.46732 11.9974 6.66732C11.9974 8.86732 9.3974 11.8007 7.9974 13.134ZM7.9974 4.00065C6.53073 4.00065 5.33073 5.20065 5.33073 6.66732C5.33073 8.13398 6.53073 9.33398 7.9974 9.33398C9.46406 9.33398 10.6641 8.13398 10.6641 6.66732C10.6641 5.20065 9.46406 4.00065 7.9974 4.00065ZM7.9974 8.00065C7.26406 8.00065 6.66406 7.40065 6.66406 6.66732C6.66406 5.93398 7.26406 5.33398 7.9974 5.33398C8.73073 5.33398 9.33073 5.93398 9.33073 6.66732C9.33073 7.40065 8.73073 8.00065 7.9974 8.00065Z" fill="white"/>
</svg>
