<svg xmlns="http://www.w3.org/2000/svg" width="349" height="37" fill="#ffffff"><path d="M335.672.84v.52h2.15v6.06h.53V1.36h2.15V.84h-4.83zm6.01 0v6.57h.52V1.54l2.57 5.16h.31l2.59-5.16.02 5.87h.5V.84h-.74l-2.51 5.05-2.53-5.05h-.74.01zM39.273 9.97c-2-1.73-4.44-2.6-7.3-2.6s-5.35.97-7.46 2.91-3.16 4.55-3.16 7.83l.01.27c-.32-1.31-.91-2.4-1.83-3.22-1.42-1.27-3.42-2.21-5.99-2.85-2.57-.63-4.21-1.18-4.92-1.65-.71-.46-1.07-1.09-1.07-1.88s.29-1.42.87-1.9 1.38-.72 2.38-.72c2.51 0 4.93.89 7.28 2.67l3.06-4.42c-1.34-1.14-2.92-2.01-4.73-2.63s-3.62-.93-5.43-.93c-2.76 0-5.07.7-6.92 2.09s-2.77 3.38-2.77 5.95.73 4.46 2.19 5.66 3.76 2.18 6.92 2.93c1.99.49 3.32.98 3.99 1.45a2.26 2.26 0 0 1 1.01 1.94c0 .82-.32 1.46-.95 1.94s-1.5.72-2.62.72c-2.48 0-5.18-1.28-8.1-3.84l-3.6 4.42c3.44 3.18 7.3 4.77 11.59 4.77 2.97 0 5.37-.76 7.19-2.27 1.77-1.47 2.67-3.37 2.72-5.7.44 2 1.36 3.69 2.8 5.05 2.07 1.95 4.68 2.93 7.85 2.93s5.92-1.11 8.27-3.33l-3.26-3.53c-1.32 1.37-3 2.05-5.04 2.05-1.27 0-2.4-.36-3.41-1.08s-1.6-1.65-1.78-2.79h15.19v-3.1c0-3.02-1-5.4-3-7.13l.02-.01zm-12.03 6.08c.15-1.19.71-2.13 1.67-2.83.95-.7 2.01-1.05 3.16-1.05s2.12.34 2.93 1.01c.8.67 1.27 1.63 1.4 2.87h-9.14-.02zM136.821.84v9.2c-1.6-1.78-3.67-2.67-6.2-2.67s-4.74.99-6.63 2.96c-1.44 1.51-2.33 3.36-2.67 5.53-.23-2.46-1.21-4.44-2.94-5.94-2-1.73-4.44-2.6-7.3-2.6s-5.35.97-7.46 2.91-3.16 4.55-3.16 7.83 1.03 5.9 3.1 7.85 4.68 2.93 7.85 2.93 5.92-1.11 8.27-3.33l-3.25-3.53c-1.32 1.37-3 2.05-5.04 2.05-1.27 0-2.4-.36-3.41-1.08s-1.6-1.65-1.78-2.79h15.15a10.58 10.58 0 0 0 2.73 5.58c1.94 2.09 4.14 3.14 6.61 3.14s4.51-1.02 6.14-3.06v3.06h5.81V.84h-5.81-.01zm-30.47 15.17c.15-1.19.71-2.13 1.67-2.83.95-.7 2.01-1.05 3.16-1.05s2.12.34 2.93 1.01c.8.67 1.27 1.63 1.4 2.87h-9.14-.02zm29.13 6.3c-.94 1.07-2.09 1.61-3.43 1.61s-2.52-.54-3.53-1.61-1.51-2.45-1.51-4.13.49-3.09 1.47-4.22c.98-1.14 2.16-1.71 3.53-1.71s2.53.56 3.47 1.69c.94 1.12 1.41 2.53 1.41 4.22s-.47 3.07-1.41 4.15zm-34.886.56c-.65.61-1.39.94-2.25.94-.57 0-1.06-.23-1.47-.68s-.62-1.08-.62-1.88v-9.11h5.04V7.37h-5.04V1.48.84h-5.85v6.53h-2.44v2.97a11.46 11.46 0 0 0-3.3-2.04c-1.54-.62-3.05-.93-4.55-.93-3 0-5.59 1-7.77 3-1.54 1.41-2.52 3.12-2.98 5.13-.3-2.27-1.26-4.12-2.89-5.53-2-1.73-4.44-2.6-7.3-2.6s-5.35.97-7.46 2.91-3.16 4.55-3.16 7.83 1.03 5.9 3.1 7.85 4.68 2.93 7.85 2.93 5.92-1.11 8.27-3.33l-3.26-3.53c-1.32 1.37-3 2.05-5.04 2.05-1.27 0-2.4-.36-3.41-1.08s-1.6-1.65-1.78-2.79h14.95c.37 2.27 1.39 4.18 3.07 5.72 2.16 1.98 4.8 2.96 7.92 2.96s6.03-1.4 8.72-4.19l-3.45-3.87c-1.55 1.94-3.29 2.91-5.23 2.91-1.47 0-2.76-.49-3.86-1.47s-1.65-2.36-1.65-4.13.55-3.15 1.65-4.15c1.1-.99 2.41-1.49 3.93-1.49.95 0 1.92.22 2.89.66a6.86 6.86 0 0 1 2.46 1.86l2.19-2.87h2.52v9.38c0 2.27.69 4.07 2.07 5.39s3.07 1.98 5.08 1.98 3.8-.8 5.57-2.37c-.02-.02-.04-.04-.07-.06a10.19 10.19 0 0 1-2.46-3.59l.01-.01zm-46.15-6.81a4.01 4.01 0 0 1 1.67-2.83c.95-.7 2.01-1.05 3.16-1.05s2.12.34 2.93 1.01 1.27 1.63 1.4 2.87h-9.14-.02zM48.31.84H42.5v28.04h5.81V.84zm121.56 2.54c-2.06-1.67-4.9-2.5-8.53-2.5H151v28h2.1v-9.16h8.24c3.63 0 6.47-.83 8.53-2.5s3.09-3.97 3.09-6.9-1.03-5.27-3.09-6.94zm-1.48 12.54c-1.62 1.31-3.97 1.96-7.05 1.96h-8.24V2.72h8.24c3.08 0 5.42.66 7.05 1.98 1.62 1.32 2.43 3.19 2.43 5.62s-.81 4.29-2.43 5.6zm21.901-6.54c-1.43-1.34-3.47-2.01-6.14-2.01-1.65 0-3.23.26-4.74.79s-2.8 1.26-3.87 2.21l1.03 1.46c.91-.81 2.01-1.46 3.32-1.95 1.3-.49 2.67-.73 4.1-.73 2.09 0 3.67.51 4.76 1.54 1.08 1.03 1.63 2.53 1.63 4.5v1.7h-7.38c-2.8 0-4.84.55-6.12 1.64s-1.92 2.52-1.92 4.28.69 3.27 2.08 4.38 3.28 1.66 5.67 1.66c1.84 0 3.42-.35 4.74-1.03 1.32-.69 2.32-1.66 3.01-2.9v3.94h1.98V15.27c0-2.6-.71-4.57-2.14-5.9l-.01.01zm.08 13.09c-.63 1.54-1.57 2.72-2.82 3.53s-2.77 1.22-4.55 1.22c-1.9 0-3.37-.4-4.41-1.2s-1.57-1.89-1.57-3.27.47-2.37 1.42-3.12c.95-.76 2.48-1.14 4.59-1.14h7.33v3.98h.01zm25.601-15.1l-11.04 24.36c-.82 1.89-1.78 3.23-2.86 4.03-1.08.79-2.37 1.19-3.85 1.19-.99 0-1.92-.16-2.78-.49a5.85 5.85 0 0 1-2.2-1.44l1.03-1.56a5.39 5.39 0 0 0 4 1.68c1.04 0 1.94-.29 2.68-.86.74-.58 1.43-1.56 2.06-2.96l1.15-2.59-9.68-21.37h2.18l8.61 19.19 8.61-19.19h2.1l-.01.01zm35.055 2.33c1.52 1.55 2.29 3.79 2.29 6.71v12.47h-2.06V16.57c0-2.4-.59-4.22-1.77-5.48-1.18-1.25-2.83-1.88-4.94-1.88-2.42 0-4.33.75-5.75 2.25-1.41 1.5-2.12 3.52-2.12 6.05v11.37h-2.06V16.57c0-2.4-.59-4.22-1.77-5.48-1.18-1.25-2.83-1.88-4.94-1.88-2.42 0-4.33.75-5.75 2.25s-2.12 3.52-2.12 6.05v11.37h-2.06V7.37h1.98v4.74a7.95 7.95 0 0 1 3.19-3.5c1.41-.83 3.1-1.25 5.05-1.25s3.6.44 4.96 1.31 2.33 2.15 2.9 3.84c.71-1.58 1.83-2.83 3.36-3.76 1.52-.93 3.3-1.39 5.34-1.39 2.66 0 4.76.78 6.28 2.33l-.01.01zm24.853 8.259c0-2.07-.45-3.93-1.34-5.56a9.71 9.71 0 0 0-3.67-3.82c-1.55-.91-3.3-1.37-5.25-1.37s-3.71.46-5.27 1.39c-1.57.93-2.79 2.22-3.69 3.86-.89 1.65-1.34 3.51-1.34 5.58s.47 3.97 1.42 5.6c.95 1.64 2.26 2.92 3.93 3.84 1.67.93 3.58 1.39 5.73 1.39 1.65 0 3.18-.3 4.59-.9s2.59-1.46 3.52-2.58l-1.19-1.35a7.55 7.55 0 0 1-2.99 2.23c-1.19.51-2.49.76-3.89.76-1.7 0-3.23-.35-4.59-1.06s-2.44-1.71-3.23-3.01c-.8-1.29-1.22-2.77-1.28-4.44h18.5l.04-.57v.01zm-18.5-1.02c.11-1.53.53-2.9 1.26-4.11s1.7-2.15 2.91-2.82 2.57-1 4.08-1 2.87.34 4.08 1.02 2.18 1.62 2.93 2.82c.74 1.2 1.15 2.56 1.24 4.09H257.4h-.02zM294.771 9.7c1.57 1.55 2.35 3.79 2.35 6.71v12.47h-2.06V16.57c0-2.4-.61-4.22-1.83-5.48-1.22-1.25-2.93-1.88-5.13-1.88-2.53 0-4.52.75-5.97 2.25s-2.18 3.52-2.18 6.05v11.37h-2.06V7.37h1.98v4.78c.74-1.5 1.85-2.67 3.32-3.52s3.21-1.27 5.21-1.27c2.69 0 4.82.78 6.39 2.33l-.02.01zm18.558 17.67c-.52.49-1.17.87-1.96 1.13s-1.6.39-2.45.39c-1.87 0-3.31-.51-4.33-1.54-1.02-1.02-1.52-2.45-1.52-4.28V9.11h-3.96V7.38h3.96V.87h2.06v6.51h6.84v1.73h-6.84v13.76c0 1.39.34 2.45 1.01 3.17s1.67 1.08 2.99 1.08 2.46-.4 3.34-1.19l.87 1.43-.01.01zm4.872.74c-1.57-.51-2.79-1.16-3.67-1.95l.95-1.62c.88.73 2.01 1.34 3.4 1.83s2.84.73 4.35.73c2.17 0 3.77-.35 4.8-1.05s1.54-1.68 1.54-2.92c0-.89-.28-1.6-.84-2.11s-1.26-.89-2.08-1.14-1.96-.5-3.42-.77c-1.7-.3-3.08-.62-4.12-.97s-1.94-.92-2.68-1.7-1.11-1.87-1.11-3.25c0-1.68.71-3.06 2.12-4.16s3.43-1.64 6.04-1.64c1.37 0 2.73.19 4.08.57s2.44.88 3.3 1.5l-.95 1.62c-.88-.62-1.88-1.1-3.01-1.42a12.63 12.63 0 0 0-3.46-.49c-2 0-3.52.37-4.53 1.1-1.02.73-1.52 1.69-1.52 2.88 0 .95.29 1.68.86 2.21.58.53 1.28.92 2.12 1.18s2.01.53 3.52.83c1.68.3 3.03.62 4.06.95 1.03.34 1.9.89 2.62 1.64.71.76 1.07 1.8 1.07 3.12 0 1.76-.74 3.16-2.22 4.22s-3.57 1.58-6.26 1.58c-1.73 0-3.38-.26-4.94-.77h-.02z"/></svg>
