<svg xmlns="http://www.w3.org/2000/svg" width="231" height="28" fill="none"><g clip-path="url(#A)" fill="#fff"><path d="M223.161 5.24v.329h1.362v3.84h.336V5.57h1.362v-.33h-3.06zm3.808 0v4.163h.329V5.684l1.629 3.27h.196l1.641-3.27.013 3.719h.317V5.24h-.469l-1.591 3.2-1.603-3.2h-.469.007zM29.464 11.023c-1.267-1.096-2.813-1.647-4.626-1.647s-3.39.615-4.727 1.844-2.002 2.883-2.002 4.961l.006.171c-.203-.83-.577-1.521-1.16-2.04-.9-.805-2.167-1.4-3.795-1.806-1.628-.399-2.668-.748-3.117-1.045-.45-.292-.678-.691-.678-1.191s.184-.9.551-1.204.874-.456 1.508-.456c1.59 0 3.124.564 4.613 1.692l1.94-2.802c-.849-.722-1.85-1.274-2.997-1.666a10.56 10.56 0 0 0-3.441-.589c-1.749 0-3.213.444-4.385 1.324s-1.755 2.142-1.755 3.77.463 2.826 1.388 3.586 2.382 1.381 4.385 1.856c1.261.31 2.104.621 2.528.919a1.43 1.43 0 0 1 .64 1.229 1.46 1.46 0 0 1-.602 1.229c-.399.304-.95.456-1.66.456-1.572 0-3.282-.811-5.133-2.433l-2.281 2.801c2.18 2.015 4.626 3.022 7.344 3.022 1.882 0 3.403-.482 4.556-1.438 1.121-.931 1.692-2.135 1.723-3.612.279 1.267.862 2.338 1.774 3.2 1.312 1.235 2.965 1.856 4.974 1.856s3.751-.703 5.24-2.11l-2.066-2.237c-.836.868-1.901 1.299-3.193 1.299-.805 0-1.521-.228-2.161-.684s-1.014-1.046-1.128-1.768h9.625v-1.964c0-1.914-.634-3.422-1.901-4.518l.013-.006zm-7.623 3.853a2.52 2.52 0 0 1 1.058-1.793c.602-.444 1.274-.665 2.002-.665s1.343.215 1.857.64c.507.425.805 1.033.887 1.819h-5.791-.013zm69.435-9.638v5.829c-1.014-1.128-2.325-1.692-3.928-1.692s-3.003.627-4.201 1.876c-.912.957-1.476 2.129-1.692 3.504-.146-1.559-.767-2.813-1.863-3.764-1.267-1.096-2.813-1.647-4.626-1.647s-3.39.615-4.727 1.844-2.002 2.883-2.002 4.961.653 3.739 1.964 4.974 2.965 1.857 4.974 1.857 3.751-.703 5.24-2.11l-2.059-2.237c-.836.868-1.901 1.299-3.193 1.299-.805 0-1.521-.228-2.161-.684s-1.014-1.046-1.128-1.768h9.6c.228 1.362.805 2.541 1.73 3.536 1.229 1.324 2.623 1.99 4.188 1.99s2.858-.646 3.891-1.939v1.939h3.681V5.238h-3.681-.006zM71.969 14.85a2.52 2.52 0 0 1 1.058-1.793c.602-.444 1.274-.665 2.002-.665s1.343.216 1.857.64c.507.425.805 1.033.887 1.819h-5.791-.013zm18.458 3.992c-.596.678-1.324 1.02-2.173 1.02s-1.597-.342-2.237-1.02-.957-1.552-.957-2.617.31-1.958.931-2.674c.621-.722 1.369-1.084 2.237-1.084s1.603.355 2.199 1.071c.596.71.893 1.603.893 2.674s-.298 1.945-.893 2.63z"/><path d="M68.319 19.191c-.412.386-.881.596-1.426.596a1.22 1.22 0 0 1-.931-.431c-.26-.285-.393-.684-.393-1.191v-5.772h3.194V9.37H65.57V5.638v-.406h-3.707V9.37h-1.546v1.882a7.26 7.26 0 0 0-2.091-1.293c-.976-.393-1.933-.589-2.883-.589-1.901 0-3.542.634-4.923 1.901a6.16 6.16 0 0 0-1.888 3.25c-.19-1.438-.798-2.61-1.831-3.504-1.267-1.096-2.813-1.647-4.626-1.647s-3.39.615-4.727 1.844-2.002 2.883-2.002 4.961.653 3.738 1.964 4.974 2.965 1.857 4.974 1.857 3.751-.703 5.24-2.11l-2.066-2.237c-.836.868-1.901 1.299-3.194 1.299-.805 0-1.521-.228-2.161-.684s-1.014-1.046-1.128-1.768h9.473a6.11 6.11 0 0 0 1.945 3.624c1.369 1.255 3.041 1.875 5.018 1.875s3.821-.887 5.525-2.655l-2.186-2.452c-.982 1.229-2.085 1.844-3.314 1.844-.931 0-1.749-.31-2.446-.931s-1.046-1.495-1.046-2.617.349-1.996 1.046-2.63a3.6 3.6 0 0 1 2.49-.944c.602 0 1.217.139 1.831.418a4.35 4.35 0 0 1 1.559 1.179l1.388-1.819h1.597v5.944c0 1.438.437 2.579 1.312 3.415s1.945 1.255 3.219 1.255 2.408-.507 3.529-1.502c-.013-.013-.025-.025-.044-.038a6.46 6.46 0 0 1-1.559-2.275l.006-.006zm-29.242-4.315a2.54 2.54 0 0 1 1.058-1.793c.602-.444 1.274-.665 2.002-.665s1.343.215 1.857.64.805 1.033.887 1.819H39.09h-.013zm-3.884-9.638h-3.681v17.767h3.681V5.238zm82.911 1.604c-1.305-1.058-3.105-1.584-5.405-1.584h-6.552V23h1.331v-5.804h5.221c2.3 0 4.1-.526 5.405-1.584s1.958-2.515 1.958-4.372-.653-3.339-1.958-4.397zm-.938 7.946c-1.026.83-2.516 1.242-4.467 1.242h-5.221V6.424h5.221c1.951 0 3.434.418 4.467 1.255 1.027.836 1.54 2.021 1.54 3.561s-.513 2.718-1.54 3.548zm13.877-4.137c-.906-.849-2.199-1.274-3.891-1.274a9 9 0 0 0-3.003.501c-.957.336-1.774.798-2.452 1.4l.652.925c.577-.513 1.274-.925 2.104-1.236.824-.31 1.692-.463 2.598-.463 1.324 0 2.325.323 3.016.976.684.653 1.033 1.603 1.033 2.851v1.077h-4.676c-1.775 0-3.067.348-3.878 1.039s-1.217 1.597-1.217 2.712.437 2.072 1.318 2.775 2.078 1.052 3.593 1.052c1.166 0 2.167-.222 3.003-.653a4.52 4.52 0 0 0 1.907-1.838v2.497h1.255v-8.611c0-1.647-.45-2.896-1.356-3.738l-.006.006zm.05 8.294c-.399.976-.994 1.723-1.786 2.237s-1.756.773-2.883.773c-1.204 0-2.136-.253-2.795-.76s-.995-1.198-.995-2.072.298-1.502.9-1.977c.602-.482 1.572-.722 2.909-.722h4.644v2.522h.006zm16.221-9.568l-6.995 15.435c-.519 1.198-1.128 2.047-1.812 2.554-.684.501-1.502.754-2.44.754a4.88 4.88 0 0 1-1.761-.311c-.551-.209-1.014-.513-1.394-.912l.653-.989c.697.71 1.539 1.065 2.534 1.065.659 0 1.229-.184 1.698-.545.469-.367.906-.988 1.306-1.876l.728-1.641-6.133-13.541h1.381l5.456 12.16 5.455-12.16h1.331l-.007.006zm22.216 1.477c.963.982 1.451 2.402 1.451 4.252v7.902h-1.305v-7.8c0-1.521-.374-2.674-1.122-3.472-.748-.792-1.793-1.191-3.13-1.191-1.534 0-2.744.475-3.644 1.426-.893.95-1.343 2.23-1.343 3.834v7.205h-1.305v-7.8c0-1.521-.374-2.674-1.122-3.472-.747-.792-1.793-1.191-3.13-1.191-1.533 0-2.744.475-3.643 1.426s-1.344 2.23-1.344 3.834v7.205h-1.305V9.377h1.255v3.003a5.04 5.04 0 0 1 2.021-2.218c.893-.526 1.964-.792 3.2-.792s2.281.279 3.143.83 1.476 1.362 1.837 2.433c.45-1.001 1.16-1.793 2.129-2.383.963-.589 2.091-.881 3.384-.881 1.685 0 3.016.494 3.979 1.476l-.006.006zm15.746 5.233c0-1.312-.285-2.49-.849-3.523a6.16 6.16 0 0 0-2.326-2.421c-.982-.577-2.091-.868-3.326-.868s-2.351.291-3.34.881-1.767 1.407-2.338 2.446c-.564 1.046-.849 2.224-.849 3.536s.298 2.515.9 3.548c.602 1.039 1.432 1.85 2.49 2.433 1.058.589 2.269.881 3.631.881 1.045 0 2.015-.19 2.908-.57s1.641-.925 2.231-1.635l-.754-.855a4.79 4.79 0 0 1-1.895 1.413c-.754.323-1.578.482-2.465.482-1.077 0-2.046-.222-2.908-.672a5.12 5.12 0 0 1-2.047-1.907c-.507-.817-.773-1.755-.811-2.813h11.722l.026-.361v.006zm-11.723-.646c.07-.969.336-1.838.799-2.604a4.9 4.9 0 0 1 1.844-1.787c.767-.425 1.628-.634 2.585-.634s1.818.215 2.585.646a5.11 5.11 0 0 1 1.857 1.787c.469.76.728 1.622.785 2.592h-10.442-.013zm23.692-4.587c.995.982 1.489 2.402 1.489 4.252v7.902h-1.305v-7.8c0-1.521-.386-2.674-1.159-3.472-.773-.792-1.857-1.191-3.251-1.191-1.603 0-2.864.475-3.783 1.426s-1.381 2.23-1.381 3.834v7.205h-1.305V9.377h1.254v3.029c.469-.95 1.172-1.692 2.104-2.23s2.034-.805 3.301-.805c1.705 0 3.054.494 4.049 1.476l-.013.006zm11.76 11.189c-.329.311-.741.551-1.241.716s-1.014.247-1.553.247c-1.185 0-2.097-.323-2.744-.976-.646-.646-.963-1.552-.963-2.712v-8.846h-2.509V9.377h2.509V5.252h1.306v4.125h4.334v1.096h-4.334v8.719c0 .881.215 1.552.64 2.009s1.058.684 1.894.684 1.559-.253 2.117-.754l.551.906-.007.006zm3.086.469c-.995-.323-1.768-.735-2.325-1.236l.601-1.026c.558.462 1.274.849 2.155 1.159s1.799.463 2.756.463c1.375 0 2.389-.222 3.042-.665a2.11 2.11 0 0 0 .975-1.85c0-.564-.177-1.014-.532-1.337s-.798-.564-1.318-.722-1.242-.317-2.167-.488c-1.077-.19-1.951-.393-2.61-.615a4.13 4.13 0 0 1-1.699-1.077c-.469-.494-.703-1.185-.703-2.059 0-1.065.45-1.939 1.343-2.636s2.174-1.039 3.828-1.039a9.5 9.5 0 0 1 2.585.361c.855.241 1.546.558 2.091.95l-.602 1.027c-.558-.393-1.191-.697-1.907-.9s-1.445-.31-2.193-.31c-1.267 0-2.23.234-2.87.697-.646.462-.963 1.071-.963 1.825 0 .602.183 1.064.545 1.4a3.47 3.47 0 0 0 1.343.748c.532.165 1.274.336 2.23.526 1.065.19 1.92.393 2.573.602.653.215 1.204.564 1.66 1.039.45.482.678 1.141.678 1.977 0 1.115-.469 2.002-1.407 2.674s-2.262 1-3.966 1a10.02 10.02 0 0 1-3.13-.488h-.013z"/></g><defs><clipPath id="A"><path fill="#fff" d="M0 0h231v28H0z"/></clipPath></defs></svg>