<svg xmlns="http://www.w3.org/2000/svg" width="215" height="28" fill="#fff"><path d="M207.539 5.24v.329h1.296v3.84h.32V5.57h1.296v-.33h-2.912zm3.623 0v4.163h.313V5.684l1.55 3.27h.186l1.562-3.27.012 3.719h.301V5.24h-.446l-1.513 3.2-1.525-3.2h-.446.006zM91.351.133h-.898v27.975h.898V.133zm-68.078 10.89c-1.206-1.096-2.676-1.647-4.4-1.647s-3.225.615-4.497 1.844-1.905 2.883-1.905 4.961l.006.171c-.193-.83-.549-1.521-1.103-2.04-.856-.805-2.062-1.4-3.611-1.806-1.549-.399-2.538-.748-2.966-1.045-.428-.292-.645-.691-.645-1.191s.175-.9.524-1.204.832-.456 1.435-.456c1.513 0 2.972.564 4.388 1.692L12.344 7.5c-.808-.722-1.76-1.274-2.851-1.666s-2.182-.589-3.273-.589c-1.664 0-3.056.444-4.171 1.324S.379 8.71.379 10.339s.44 2.826 1.32 3.586 2.267 1.381 4.171 1.856c1.2.31 2.001.621 2.405.919.404.304.609.71.609 1.229s-.193.925-.573 1.229-.904.456-1.579.456c-1.495 0-3.122-.811-4.883-2.433l-2.17 2.801c2.074 2.015 4.4 3.022 6.986 3.022 1.79 0 3.237-.482 4.334-1.438 1.067-.931 1.61-2.135 1.64-3.612.265 1.267.82 2.338 1.688 3.2 1.248 1.235 2.821 1.856 4.732 1.856s3.569-.703 4.985-2.11l-1.965-2.237c-.796.868-1.808 1.299-3.038 1.299-.766 0-1.447-.228-2.056-.684s-.964-1.046-1.073-1.768h9.156v-1.964c0-1.914-.603-3.422-1.808-4.518l.012-.006zm-7.252 3.853c.09-.754.428-1.35 1.007-1.793.573-.444 1.212-.665 1.905-.665s1.278.215 1.766.64c.482.425.765 1.033.844 1.819h-5.51-.012zm66.053-9.638v5.829c-.965-1.128-2.212-1.692-3.737-1.692s-2.857.627-3.997 1.876c-.868.957-1.404 2.129-1.609 3.504-.139-1.559-.729-2.813-1.772-3.764-1.206-1.096-2.676-1.647-4.4-1.647s-3.225.615-4.497 1.844-1.905 2.883-1.905 4.961.621 3.739 1.869 4.974 2.821 1.857 4.732 1.857 3.569-.703 4.985-2.11l-1.959-2.237c-.796.868-1.808 1.299-3.038 1.299a3.33 3.33 0 0 1-2.055-.684c-.608-.456-.965-1.046-1.073-1.768h9.132c.217 1.362.766 2.541 1.646 3.536 1.169 1.324 2.495 1.99 3.984 1.99s2.719-.646 3.701-1.939v1.939h3.502V5.238H82.08h-.006zM63.707 14.85c.09-.754.428-1.35 1.007-1.793.573-.444 1.212-.665 1.905-.665s1.278.216 1.766.64c.482.425.766 1.033.844 1.819h-5.51-.012zm17.559 3.992c-.567.678-1.26 1.02-2.067 1.02s-1.519-.342-2.128-1.02-.91-1.552-.91-2.617.295-1.958.886-2.674c.591-.722 1.302-1.084 2.128-1.084s1.525.355 2.092 1.071c.567.71.85 1.603.85 2.674s-.283 1.945-.85 2.63z"/><path d="M60.237 19.191c-.392.386-.838.596-1.356.596-.344 0-.639-.146-.886-.431s-.374-.684-.374-1.191v-5.772h3.038V9.37h-3.038V5.638v-.406h-3.526V9.37h-1.471v1.882a6.88 6.88 0 0 0-1.989-1.293c-.928-.393-1.838-.589-2.743-.589-1.808 0-3.37.634-4.684 1.901a6.24 6.24 0 0 0-1.796 3.25c-.181-1.438-.76-2.61-1.742-3.504-1.206-1.096-2.676-1.647-4.4-1.647s-3.225.615-4.497 1.844-1.905 2.883-1.905 4.961.621 3.738 1.869 4.974 2.821 1.857 4.732 1.857 3.569-.703 4.985-2.11l-1.965-2.237c-.796.868-1.808 1.299-3.038 1.299-.766 0-1.447-.228-2.056-.684s-.965-1.046-1.073-1.768h9.012c.223 1.438.838 2.649 1.851 3.624 1.302 1.255 2.893 1.875 4.774 1.875s3.635-.887 5.256-2.655l-2.08-2.452c-.934 1.229-1.983 1.844-3.153 1.844-.886 0-1.664-.31-2.327-.931s-.995-1.495-.995-2.617.332-1.996.995-2.63a3.33 3.33 0 0 1 2.369-.944c.573 0 1.157.139 1.742.418s1.079.672 1.483 1.179l1.32-1.819h1.519v5.944c0 1.438.416 2.579 1.248 3.415s1.851 1.255 3.062 1.255 2.291-.507 3.358-1.502c-.012-.013-.024-.025-.042-.038a6.48 6.48 0 0 1-1.483-2.275l.006-.006zm-27.819-4.315c.096-.754.428-1.35 1.007-1.793.573-.444 1.212-.665 1.905-.665s1.278.215 1.766.64.766 1.033.844 1.819h-5.51-.012zm-3.697-9.638h-3.502v17.767h3.502V5.238zm78.873 1.606c-1.242-1.058-2.954-1.584-5.142-1.584h-6.233v17.742h1.266v-5.804h4.967c2.188 0 3.9-.526 5.142-1.584s1.862-2.516 1.862-4.372-.621-3.339-1.862-4.397zm-.893 7.946c-.976.83-2.393 1.242-4.249 1.242h-4.967V6.426h4.967c1.856 0 3.267.418 4.249 1.255s1.465 2.021 1.465 3.561-.488 2.718-1.465 3.548zm13.204-4.137c-.862-.849-2.092-1.274-3.701-1.274-.995 0-1.947.165-2.857.501s-1.688.798-2.333 1.4l.621.925c.548-.513 1.211-.925 2.001-1.236a6.65 6.65 0 0 1 2.471-.463c1.26 0 2.213.323 2.87.976.651.653.982 1.603.982 2.851v1.077h-4.448c-1.688 0-2.918.349-3.69 1.039s-1.157 1.597-1.157 2.712.416 2.072 1.254 2.775 1.977 1.052 3.418 1.052c1.109 0 2.061-.222 2.857-.653a4.41 4.41 0 0 0 1.814-1.838v2.497h1.194v-8.611c0-1.647-.428-2.896-1.29-3.738l-.006.006zm.048 8.294c-.38.976-.946 1.724-1.7 2.237s-1.669.773-2.742.773c-1.146 0-2.032-.254-2.659-.76s-.946-1.198-.946-2.072.283-1.502.856-1.977c.572-.482 1.495-.722 2.767-.722h4.418v2.522h.006zm15.428-9.57l-6.655 15.435c-.494 1.198-1.073 2.047-1.724 2.554-.651.501-1.428.754-2.32.754-.597 0-1.158-.101-1.676-.311-.525-.209-.965-.513-1.326-.912l.621-.989c.663.71 1.464 1.065 2.411 1.065.627 0 1.169-.184 1.615-.545.446-.367.862-.988 1.242-1.876l.693-1.641-5.835-13.541h1.314l5.19 12.16 5.19-12.16h1.266l-.006.006zm21.135 1.477c.916.982 1.381 2.402 1.381 4.252v7.902h-1.242v-7.8c0-1.521-.356-2.674-1.067-3.472-.711-.792-1.706-1.191-2.978-1.191-1.459 0-2.61.475-3.466 1.426-.85.95-1.278 2.23-1.278 3.834v7.205h-1.242v-7.8c0-1.521-.355-2.674-1.067-3.472-.711-.792-1.706-1.191-2.977-1.191-1.459 0-2.611.475-3.467 1.426s-1.277 2.23-1.277 3.834v7.205h-1.242V9.377h1.193v3.003c.428-.95 1.073-1.686 1.923-2.218.85-.526 1.869-.792 3.044-.792s2.17.279 2.99.83 1.405 1.362 1.748 2.433a5.19 5.19 0 0 1 2.026-2.383c.916-.589 1.989-.881 3.219-.881 1.603 0 2.869.494 3.785 1.476l-.006.006zm14.979 5.235c0-1.312-.271-2.49-.808-3.523-.536-1.039-1.278-1.844-2.212-2.42s-1.989-.868-3.165-.868-2.236.291-3.176.881c-.947.589-1.682 1.407-2.225 2.446-.536 1.046-.807 2.224-.807 3.536s.283 2.516.856 3.548a6.22 6.22 0 0 0 2.369 2.433c1.006.589 2.158.881 3.454.881.994 0 1.916-.19 2.766-.57a5.54 5.54 0 0 0 2.122-1.635l-.717-.855c-.482.621-1.079 1.096-1.802 1.413a5.65 5.65 0 0 1-2.345.481c-1.025 0-1.947-.222-2.767-.672a4.97 4.97 0 0 1-1.947-1.907c-.482-.817-.736-1.755-.772-2.813h11.152l.024-.361v.006zm-11.152-.646c.067-.969.32-1.838.76-2.604a4.77 4.77 0 0 1 1.754-1.787c.729-.425 1.549-.634 2.459-.634s1.73.215 2.46.646 1.314 1.027 1.766 1.787c.446.76.693 1.622.747 2.592h-9.934-.012zm22.535-4.589c.947.982 1.417 2.402 1.417 4.252v7.902h-1.242v-7.8c0-1.521-.368-2.674-1.103-3.472-.735-.792-1.766-1.191-3.092-1.191-1.525 0-2.725.475-3.599 1.426s-1.314 2.23-1.314 3.834v7.205h-1.242V9.377h1.194v3.029a5.08 5.08 0 0 1 2.001-2.23c.886-.539 1.935-.805 3.14-.805 1.622 0 2.906.494 3.852 1.476l-.012.006zm11.194 11.191c-.314.31-.706.551-1.182.716a4.46 4.46 0 0 1-1.477.247c-1.127 0-1.995-.323-2.61-.976-.615-.646-.916-1.552-.916-2.712v-8.845H185.5V9.379h2.387V5.254h1.242v4.125h4.123v1.096h-4.123v8.719c0 .881.205 1.552.609 2.009s1.006.684 1.802.684 1.483-.253 2.013-.754l.525.906-.006.006zm2.937.469c-.946-.323-1.682-.735-2.212-1.236l.573-1.026c.53.463 1.211.849 2.049 1.16a7.47 7.47 0 0 0 2.622.462c1.308 0 2.273-.222 2.894-.665s.928-1.065.928-1.85c0-.564-.169-1.014-.506-1.337s-.76-.564-1.254-.722-1.182-.317-2.062-.488c-1.025-.19-1.856-.393-2.483-.615a3.91 3.91 0 0 1-1.616-1.077c-.446-.494-.669-1.185-.669-2.059 0-1.065.428-1.939 1.278-2.636s2.068-1.039 3.641-1.039a8.62 8.62 0 0 1 2.459.361c.814.241 1.471.558 1.99.95l-.573 1.026c-.531-.393-1.133-.697-1.815-.9a7.26 7.26 0 0 0-2.085-.31c-1.206 0-2.122.234-2.731.697-.615.463-.916 1.071-.916 1.825 0 .602.175 1.065.518 1.4a3.27 3.27 0 0 0 1.278.748c.506.165 1.212.336 2.122.526 1.013.19 1.827.393 2.447.602.621.215 1.146.564 1.58 1.039.428.482.645 1.141.645 1.977 0 1.115-.446 2.002-1.339 2.674s-2.151 1.001-3.773 1.001a9.11 9.11 0 0 1-2.978-.488h-.012z"/></svg>