<svg xmlns="http://www.w3.org/2000/svg" width="82" height="82" fill="none" xmlns:v="https://vecta.io/nano"><path fill="#fafafa" d="M0 0h82v82H0z"/><g fill="#d0d0d0"><path d="M82 1h-6V0h6zm0 80h-6v1h6zM0 1h6V0H0zm0 80h6v1H0z"/><path d="M82 0v6h-1V0zm0 82v-6h-1v6zM0 0v6h1V0zm0 82v-6h1v6z"/></g><g stroke="#161616" stroke-width="2" stroke-linejoin="round"><path d="M72 28.076H10v36.923h62V28.076z"/><path d="M10 22.539h62M10 17h62" stroke-linecap="round"/><path d="M41 57.615c6.043 0 10.941-4.959 10.941-11.077S47.042 35.461 41 35.461 30.059 40.42 30.059 46.538 34.957 57.615 41 57.615z"/><path d="M15.473 35.461h5.471m40.115 22.154h5.471m5.25-18.885c-5.817 0-10.522-4.763-10.522-10.652M10 54.145c5.817 0 10.522 4.763 10.522 10.652" stroke-linecap="round"/></g></svg>