<svg xmlns="http://www.w3.org/2000/svg" width="82" height="82" fill="none"><path fill="#effefb" d="M0 0h82v82H0z"/><path d="M45.279 46.654c.369-2.274-1.175-4.417-3.45-4.786s-4.417 1.175-4.786 3.45 1.175 4.417 3.45 4.786 4.417-1.175 4.786-3.45z" fill="#00b17e"/><path d="M62.145 34.186H20.176a2.44 2.44 0 0 0-2.442 2.442v18.727a2.44 2.44 0 0 0 2.442 2.442h41.968a2.44 2.44 0 0 0 2.442-2.442V36.627a2.44 2.44 0 0 0-2.442-2.442zm-.603 17.182c0 .287-.153.552-.401.696l-4.748 2.752a.8.8 0 0 1-.403.108H26.485c-.142 0-.281-.038-.403-.108l-4.747-2.752c-.248-.144-.401-.409-.401-.696V40.451c0-.287.153-.552.401-.696l4.747-2.752a.8.8 0 0 1 .403-.108h29.504c.142 0 .281.038.403.108l4.748 2.752c.248.144.401.409.401.696v10.917z" fill="#66fecb"/><path d="M62.557 58.621H19.91c-1.605 0-2.91-1.305-2.91-2.91V36.108c0-1.605 1.305-2.91 2.91-2.91h42.647c1.605 0 2.91 1.305 2.91 2.91v19.603c0 1.605-1.305 2.91-2.91 2.91zM19.91 34.807c-.717 0-1.301.583-1.301 1.301v19.603c0 .717.584 1.301 1.301 1.301h42.647c.717 0 1.301-.584 1.301-1.301V36.108c0-.717-.584-1.301-1.301-1.301H19.91zm21.319 16.449c-2.948 0-5.346-2.398-5.346-5.347s2.398-5.346 5.346-5.346 5.347 2.399 5.347 5.346-2.398 5.347-5.347 5.347zm0-9.083a3.74 3.74 0 0 0-3.737 3.737 3.74 3.74 0 0 0 3.737 3.737 3.74 3.74 0 0 0 3.737-3.737 3.74 3.74 0 0 0-3.737-3.737zm12.003 6.859c-1.722 0-3.123-1.401-3.123-3.122s1.401-3.122 3.123-3.122 3.122 1.401 3.122 3.122-1.401 3.122-3.122 3.122zm0-4.636c-.835 0-1.514.679-1.514 1.513s.679 1.513 1.514 1.513 1.513-.679 1.513-1.513-.679-1.513-1.513-1.513zm-24.015 4.636c-1.722 0-3.123-1.401-3.123-3.122s1.401-3.122 3.123-3.122 3.122 1.401 3.122 3.122-1.401 3.122-3.122 3.122zm0-4.636c-.834 0-1.513.679-1.513 1.513s.679 1.513 1.513 1.513 1.513-.679 1.513-1.513-.679-1.513-1.513-1.513zm26.776 10.529H26.489a.81.81 0 0 1-.403-.108l-4.747-2.752c-.248-.144-.401-.409-.401-.696V40.451c0-.287.153-.552.401-.696l4.747-2.752a.8.8 0 0 1 .403-.108h29.504a.81.81 0 0 1 .404.108l4.748 2.752c.248.144.401.409.401.696v10.917c0 .287-.153.552-.401.696l-4.748 2.752c-.123.071-.261.108-.404.108zm-29.288-1.609h29.071l4.16-2.411v-9.989l-4.16-2.411H26.705l-4.159 2.411v9.99l4.159 2.411zm32.011-21.648H23.758c-.444 0-.805-.36-.805-.805s.36-.805.805-.805h34.958c.444 0 .805.36.805.805s-.36.805-.805.805zm-4.715-2.95H28.445c-.444 0-.805-.36-.805-.805s.36-.805.805-.805h25.556c.445 0 .805.36.805.805s-.36.805-.805.805zm-4.775-2.949H33.242c-.444 0-.805-.36-.805-.805s.36-.805.805-.805h15.984c.444 0 .805.36.805.805s-.36.805-.805.805z" fill="#0c6362"/></svg>