<svg xmlns="http://www.w3.org/2000/svg" width="82" height="82" fill="none"><path fill="#f2f2f2" d="M0 0h82v82H0z"/><g stroke="#161616" stroke-width="2" stroke-linejoin="round"><path d="M72 28.077H10V65h62V28.077z"/><path d="M10 22.538h62M10 17h62" stroke-linecap="round"/><path d="M41 57.616c6.043 0 10.941-4.959 10.941-11.077S47.042 35.462 41 35.462s-10.941 4.959-10.941 11.077S34.957 57.616 41 57.616z"/><path d="M15.473 35.462h5.471m40.115 22.153h5.471m5.25-18.885c-5.817 0-10.522-4.763-10.522-10.652M10 54.145c5.817 0 10.522 4.763 10.522 10.652" stroke-linecap="round"/></g></svg>