<svg width="488" height="412" viewBox="0 0 488 412" fill="none" xmlns="http://www.w3.org/2000/svg">
<path d="M302.038 296.832C302.064 296.832 302.088 296.832 302.114 296.826C327.282 292.877 342.988 284.51 348.798 271.956C351.183 266.801 351.722 261.437 352.198 256.704C352.813 250.573 353.3 245.73 357.351 243.583C360.629 241.846 363.965 243.18 367.828 244.727C372.201 246.476 377.159 248.46 383.582 246.902C393.059 244.604 401.229 236.037 401.796 227.801C402.262 221.035 397.515 215.996 393.698 211.946C390.642 208.702 388.001 205.9 388.933 203.274C389.968 200.359 394.519 200.167 400.816 199.904C408.106 199.599 418.09 199.179 427.892 194.082C434.576 190.607 440.779 185.185 445.361 178.817C450.521 171.642 453.486 163.501 453.934 155.278C454.655 141.976 449.515 125.393 436.404 118.334C421.239 110.168 399.934 117.339 388.096 128.989C383.417 133.594 380.982 138.114 378.833 142.101C376.081 147.207 373.907 151.239 368.178 153.316C362.585 155.343 358.327 153.721 354.206 152.153C350.259 150.649 346.529 149.232 341.965 150.985C334.627 153.805 332.986 161.898 331.084 171.271C329.106 181.019 326.865 192.068 317.788 200.301C310.77 206.669 303.599 207.679 297.272 208.569C291.555 209.374 286.156 210.135 281.998 214.712C277.264 219.925 275.884 228.258 277.896 239.479C280.433 253.623 288.412 272.837 301.614 296.582C301.701 296.737 301.864 296.83 302.038 296.83V296.832ZM360.683 241.793C359.418 241.793 358.164 242.064 356.895 242.738C352.387 245.127 351.854 250.448 351.235 256.609C350.768 261.266 350.237 266.546 347.92 271.557C342.28 283.748 326.932 291.912 302.299 295.826C278.975 253.802 272.387 226.728 282.717 215.354C286.641 211.035 291.631 210.333 297.409 209.519C303.875 208.607 311.202 207.576 318.442 201.007C327.749 192.563 330.025 181.35 332.031 171.461C333.877 162.366 335.47 154.509 342.315 151.879C346.531 150.257 350.089 151.614 353.858 153.047C358.145 154.677 362.577 156.366 368.508 154.216C374.586 152.013 376.948 147.629 379.685 142.554C381.802 138.624 384.201 134.174 388.777 129.669C400.362 118.265 421.172 111.223 435.941 119.176C448.683 126.035 453.673 142.226 452.967 155.227C451.947 174.013 438.58 187.443 427.442 193.233C417.831 198.231 407.972 198.644 400.775 198.946C394.098 199.226 389.272 199.428 388.02 202.955C386.894 206.128 389.718 209.127 392.989 212.599C396.869 216.718 401.266 221.384 400.829 227.734C400.299 235.451 392.294 243.8 383.349 245.97C377.231 247.454 372.427 245.53 368.189 243.837C365.513 242.766 363.076 241.793 360.683 241.793Z" fill="#161616"/>
<path d="M306.056 257.399C287.253 203.663 292.153 181.234 301.387 170.923C304.143 167.845 310.495 162.219 314.92 151.943C320.655 138.614 317.571 130.421 318.972 119.089C321.712 96.9249 339.861 76.9644 358.894 68.1742C372.189 62.0334 397.287 56.0929 411.34 69.0207C417.283 74.4874 422.851 84.7983 419.463 91.6413C414.619 101.433 395.06 94.2734 384.379 107.106C379.855 112.543 381.327 116.241 379.284 121.079C378.528 122.871 377.687 123.935 376.419 125.609C373.045 130.063 370.034 134.782 366.608 139.198C356.689 151.977 365.359 171.621 353.916 181.594C345.451 188.971 333.724 184.305 331.051 190.965C328.942 196.223 336.388 199.43 336.066 207.753C335.674 217.861 325.993 221.323 316.107 235.601C310.563 243.607 307.885 251.396 306.056 257.397V257.399Z" fill="white"/>
<path d="M306.052 257.881H306.06C306.27 257.876 306.455 257.739 306.516 257.54C308.468 251.141 311.182 243.561 316.502 235.876C320.403 230.242 324.207 226.369 327.562 222.955C332.637 217.788 336.304 214.055 336.548 207.776C336.716 203.445 334.886 200.509 333.271 197.92C331.744 195.471 330.54 193.536 331.498 191.146C332.733 188.065 336.121 187.605 340.41 187.021C344.859 186.416 349.902 185.728 354.232 181.955C360.35 176.624 360.848 168.784 361.378 160.482C361.846 153.112 362.332 145.491 366.989 139.492C368.828 137.123 370.573 134.631 372.261 132.221C373.725 130.129 375.239 127.967 376.806 125.899L376.999 125.642C378.154 124.12 378.988 123.021 379.729 121.268C380.502 119.437 380.786 117.761 381.06 116.139C381.531 113.369 381.973 110.752 384.75 107.414C390.257 100.795 398.233 99.6015 405.267 98.5461C411.826 97.5639 417.488 96.7131 419.893 91.8538C423.555 84.4529 417.286 73.8427 411.665 68.6711C397.157 55.3232 371.536 61.8065 358.683 67.7406C341.388 75.7274 321.434 95.1859 318.484 119.032C318.007 122.888 318.046 126.407 318.083 129.81C318.157 136.602 318.227 143.016 314.467 151.757C310.761 160.364 305.618 165.755 302.544 168.977C301.956 169.593 301.449 170.125 301.017 170.608C295.536 176.729 292.743 185.905 292.717 197.879C292.685 212.974 297.018 233.052 305.592 257.558C305.66 257.752 305.845 257.881 306.049 257.881H306.052ZM388.519 61.7785C396.804 61.7785 404.925 63.7795 411.005 69.3733C417.262 75.1307 422.109 85.2003 419.024 91.4338C416.841 95.8429 411.41 96.6571 405.123 97.5983C397.915 98.6796 389.746 99.903 384.003 106.804C381.062 110.339 380.574 113.208 380.106 115.98C379.84 117.546 379.566 119.168 378.836 120.897C378.141 122.541 377.378 123.547 376.226 125.067L376.032 125.324C374.455 127.407 372.937 129.576 371.466 131.676C369.784 134.077 368.048 136.559 366.223 138.911C361.386 145.142 360.892 152.911 360.413 160.424C359.896 168.521 359.411 176.169 353.594 181.238C349.483 184.82 344.595 185.485 340.282 186.073C335.862 186.674 332.045 187.193 330.601 190.792C329.463 193.629 330.847 195.85 332.45 198.422C333.992 200.894 335.74 203.699 335.583 207.739C335.354 213.65 331.797 217.273 326.871 222.287C323.49 225.731 319.656 229.632 315.707 235.336C310.698 242.568 307.973 249.692 306.03 255.852C297.813 232.079 293.663 212.579 293.693 197.879C293.717 186.146 296.429 177.184 301.749 171.241C302.17 170.769 302.673 170.244 303.257 169.632C306.374 166.365 311.591 160.894 315.365 152.129C319.205 143.206 319.133 136.692 319.059 129.797C319.022 126.424 318.983 122.937 319.453 119.146C322.357 95.662 342.04 76.4855 359.099 68.6065C366.295 65.283 377.555 61.7742 388.523 61.7742L388.519 61.7785Z" fill="#161616"/>
<path d="M305.894 252.521C306.16 252.521 306.375 252.31 306.377 252.047C306.787 207.534 317.875 161.134 336.039 127.929C360.03 84.0728 391.015 73.3226 391.326 73.2192C391.579 73.1352 391.716 72.8638 391.631 72.6118C391.546 72.3598 391.272 72.2262 391.017 72.3102C390.938 72.3361 383.017 75.0307 372.234 83.1531C362.303 90.6337 347.812 104.395 335.187 127.472C326.97 142.496 319.89 161.076 314.719 181.206C308.761 204.393 305.628 228.227 305.41 252.038C305.408 252.303 305.624 252.519 305.889 252.521H305.894Z" fill="#161616"/>
<path d="M183.021 16.135C183.021 16.135 174.038 18.176 173.629 27.9757C173.221 37.7753 171.18 110.863 174.446 191.302C177.713 271.74 185.062 362.385 186.287 370.96C187.511 379.535 194.453 379.943 196.903 381.168C199.352 382.393 236.918 385.251 258.966 385.251C281.015 385.251 316.947 381.168 321.438 379.943C325.93 378.719 327.971 370.144 329.196 364.019C330.42 357.895 330.012 349.32 330.012 349.32L336.137 216.209C336.137 216.209 338.586 125.563 338.586 94.9392C338.586 64.3156 338.994 31.2414 337.361 24.7087C335.728 18.176 327.97 13.6844 327.97 13.6844C327.97 13.6844 323.478 10.8256 316.945 9.60098C310.413 8.37635 302.654 10.0092 302.654 10.0092L212.008 10.4174C212.008 10.4174 210.375 8.37634 205.067 9.19277C199.759 10.0092 189.551 10.8256 186.284 12.4598C183.021 14.0926 183.021 16.135 183.021 16.135Z" fill="white" stroke="#161616" stroke-miterlimit="10" stroke-linecap="round" stroke-linejoin="round"/>
<path d="M193.596 72.0026C190.254 72.0418 187.589 74.8043 187.669 78.1455L189.971 174.489C189.972 174.537 189.973 174.553 189.973 174.601C189.973 176.109 190.001 219.975 191.606 225.192C193.238 230.5 200.997 232.541 204.672 233.359C208.347 234.175 230.396 237.034 262.244 236.626C294.093 236.218 313.692 234.585 319.816 229.277C325.941 223.969 325.533 218.253 325.533 212.945C325.533 208.311 326.155 103.168 326.313 76.5316C326.333 73.1764 323.597 70.4747 320.242 70.5142L193.596 72.0026Z" stroke="#161616" stroke-miterlimit="10" stroke-linecap="round" stroke-linejoin="round"/>
<path d="M310.128 108.415H204.125C200.811 108.415 198.125 111.101 198.125 114.415V193.878C198.125 197.191 200.811 199.878 204.125 199.878H310.128C313.442 199.878 316.128 197.191 316.128 193.878V114.415C316.128 111.101 313.442 108.415 310.128 108.415Z" fill="white" stroke="#161616" stroke-miterlimit="10" stroke-linecap="round" stroke-linejoin="round"/>
<path d="M196.912 18.5844L186.691 52.4156C186.196 53.8211 186.196 55.3544 186.693 56.7599C187.679 59.5541 190.404 61.1559 193.367 61.0978C210.206 60.7697 231.916 60.5062 258.963 60.5126C284.404 60.5191 306.24 59.8215 314.69 60.6444C318.732 61.0371 322.539 58.6925 324.02 54.9101L323.577 56.2006C324.317 54.3094 324.848 50.9403 324.264 48.9962C321.722 40.5206 316.818 19.2316 314.81 17.56C312.361 15.5189 305.011 13.8848 303.786 13.8848C302.561 13.8848 216.511 14.5023 210.795 15.3187C205.079 16.1351 200.587 14.0927 196.912 18.5844Z" fill="white" stroke="#161616" stroke-miterlimit="10" stroke-linecap="round" stroke-linejoin="round"/>
<path d="M290.781 211.969C290.781 211.969 294.179 221.877 295.31 224.425C296.442 226.972 300.405 228.105 302.104 228.105C303.803 228.105 315.408 226.406 317.107 224.708C318.806 223.009 319.089 217.065 318.523 214.234C317.957 211.403 317.674 211.403 315.125 211.403C312.578 211.402 290.781 211.969 290.781 211.969Z" fill="white" stroke="#161616" stroke-miterlimit="10" stroke-linecap="round" stroke-linejoin="round"/>
<path d="M193.68 210.553C193.68 210.553 192.831 223.008 196.228 225.273C199.625 227.537 221.988 229.802 221.705 228.386C221.422 226.97 216.893 211.967 214.628 211.401C212.364 210.836 193.68 210.553 193.68 210.553Z" fill="white" stroke="#161616" stroke-miterlimit="10" stroke-linecap="round" stroke-linejoin="round"/>
<path d="M223.969 213.1C223.969 213.1 228.215 225.838 231.045 227.82C233.876 229.802 236.14 230.085 238.122 230.085C240.103 230.085 271.241 230.65 276.62 230.65C281.998 230.65 287.377 228.669 287.377 227.82C287.377 226.971 281.432 214.233 280.018 213.1C278.602 211.967 276.055 211.967 274.923 211.967C273.791 211.967 227.649 211.684 226.235 211.401C224.817 211.118 223.969 211.401 223.969 213.1Z" fill="white" stroke="#161616" stroke-miterlimit="10" stroke-linecap="round" stroke-linejoin="round"/>
<path d="M247.461 228.954L264.161 212.535" stroke="#161616" stroke-miterlimit="10" stroke-linecap="round" stroke-linejoin="round"/>
<path d="M274.937 216.499L270.125 221.028H277.486L274.937 216.499Z" fill="#161616" stroke="#161616" stroke-miterlimit="10" stroke-linecap="round" stroke-linejoin="round"/>
<path d="M234.992 221.875L238.955 226.687L243.767 222.442L234.992 221.875Z" fill="#161616" stroke="#161616" stroke-miterlimit="10" stroke-linecap="round" stroke-linejoin="round"/>
<path d="M312.871 217.352H300.133V219.605H312.871V217.352Z" fill="#161616"/>
<path d="M211.223 217.352H198.484V219.605H211.223V217.352Z" fill="#161616"/>
<path d="M203.115 242.54C203.115 242.54 202.286 242.416 201.135 242.404C199.279 242.387 196.587 242.665 195.189 244.237C192.924 246.785 194.341 257.299 195.755 259.24C198.147 262.527 223.779 264.618 226.044 264.052C228.308 263.486 229.724 262.921 230.007 259.806C230.29 256.693 231.139 248.766 228.591 246.502C226.045 244.238 203.115 242.54 203.115 242.54Z" stroke="#161616" stroke-miterlimit="10" stroke-linecap="round" stroke-linejoin="round"/>
<path d="M203.115 269.088C203.115 269.088 202.286 268.963 201.135 268.952C199.279 268.935 196.587 269.213 195.189 270.785C192.924 273.332 194.341 283.846 195.755 285.788C198.147 289.074 223.779 291.166 226.044 290.6C228.308 290.034 229.724 289.468 230.007 286.354C230.29 283.239 231.139 275.314 228.591 273.049C226.045 270.786 203.115 269.088 203.115 269.088Z" stroke="#161616" stroke-miterlimit="10" stroke-linecap="round" stroke-linejoin="round"/>
<path d="M204.115 295.136C204.115 295.136 203.286 295.012 202.135 295.001C200.279 294.984 197.587 295.262 196.189 296.834C193.924 299.381 195.341 309.895 196.755 311.837C199.147 315.123 224.779 317.216 227.044 316.649C229.308 316.083 230.724 315.517 231.007 312.403C231.29 309.289 232.139 301.363 229.591 299.098C227.044 296.835 204.115 295.136 204.115 295.136Z" stroke="#161616" stroke-miterlimit="10" stroke-linecap="round" stroke-linejoin="round"/>
<path d="M204.787 320.157C204.787 320.157 203.958 320.033 202.807 320.021C200.951 320.004 198.259 320.282 196.861 321.854C194.596 324.402 196.013 334.916 197.427 336.857C199.819 340.144 225.451 342.235 227.716 341.669C229.98 341.104 231.396 340.538 231.679 337.423C231.962 334.31 232.812 326.383 230.263 324.119C227.717 321.854 204.787 320.157 204.787 320.157Z" stroke="#161616" stroke-miterlimit="10" stroke-linecap="round" stroke-linejoin="round"/>
<path d="M309.256 242.541C309.256 242.541 310.086 242.417 311.237 242.405C313.093 242.388 315.785 242.666 317.183 244.238C319.447 246.786 318.03 257.3 316.617 259.241C314.225 262.527 288.592 264.619 286.328 264.053C284.063 263.487 282.648 262.922 282.365 259.807C282.082 256.694 281.233 248.767 283.781 246.503C286.327 244.239 309.256 242.541 309.256 242.541Z" stroke="#161616" stroke-miterlimit="10" stroke-linecap="round" stroke-linejoin="round"/>
<path d="M309.256 269.136C309.256 269.136 310.086 269.012 311.237 269.001C313.093 268.984 315.785 269.262 317.183 270.834C319.447 273.381 318.03 283.895 316.617 285.837C314.225 289.123 288.592 291.215 286.328 290.649C284.063 290.083 282.648 289.517 282.365 286.403C282.082 283.288 281.233 275.363 283.781 273.098C286.327 270.835 309.256 269.136 309.256 269.136Z" stroke="#161616" stroke-miterlimit="10" stroke-linecap="round" stroke-linejoin="round"/>
<path d="M307.256 294.897C307.256 294.897 308.086 294.773 309.237 294.761C311.093 294.745 313.785 295.022 315.183 296.595C317.447 299.142 316.03 309.656 314.617 311.598C312.225 314.884 286.592 316.977 284.328 316.41C282.063 315.844 280.648 315.278 280.365 312.163C280.082 309.05 279.233 301.124 281.781 298.859C284.328 296.596 307.256 294.897 307.256 294.897Z" stroke="#161616" stroke-miterlimit="10" stroke-linecap="round" stroke-linejoin="round"/>
<path d="M306.811 320.157C306.811 320.157 307.64 320.033 308.791 320.021C310.648 320.004 313.34 320.282 314.738 321.854C317.002 324.402 315.585 334.916 314.172 336.857C311.779 340.144 286.147 342.235 283.883 341.669C281.618 341.104 280.202 340.538 279.919 337.423C279.636 334.31 278.788 326.383 281.335 324.119C283.881 321.854 306.811 320.157 306.811 320.157Z" stroke="#161616" stroke-miterlimit="10" stroke-linecap="round" stroke-linejoin="round"/>
<path d="M247.353 246.119C247.353 246.119 241.998 245.775 240.271 246.464C238.544 247.156 237.853 248.365 238.026 249.574C238.199 250.783 238.198 258.275 238.371 260.974C238.549 263.746 240.178 264.924 242.171 265.119C243.756 265.274 269.29 265.637 272.226 264.601C275.163 263.565 274.818 259.42 274.818 258.038C274.818 256.656 275.163 250.115 274.3 248.388C273.436 246.661 270.672 245.97 269.29 246.143C267.908 246.316 250.289 245.775 247.353 246.119Z" stroke="#161616" stroke-miterlimit="10" stroke-linecap="round" stroke-linejoin="round"/>
<path d="M269.712 271.231C269.712 271.231 245.298 270.646 242.879 271.337C240.461 272.028 237.87 273.237 238.043 275.829C238.216 278.42 237.525 285.502 238.734 287.574C239.943 289.646 240.461 290.337 242.017 290.855C243.572 291.373 269.48 291.546 271.208 290.682C272.935 289.818 274.144 288.782 274.49 286.537C274.835 284.292 275.241 276.24 274.203 273.995C273.166 271.749 269.712 271.231 269.712 271.231Z" stroke="#161616" stroke-miterlimit="10" stroke-linecap="round" stroke-linejoin="round"/>
<path d="M269.942 297.377C269.942 297.377 245.298 296.594 242.879 297.285C240.461 297.976 237.87 299.185 238.043 301.777C238.216 304.368 237.525 311.45 238.734 313.522C239.943 315.594 240.461 316.285 242.017 316.803C243.571 317.321 269.48 317.494 271.208 316.63C272.935 315.767 274.144 314.73 274.49 312.484C274.835 310.239 275.471 302.385 274.433 300.14C273.396 297.895 269.942 297.377 269.942 297.377Z" stroke="#161616" stroke-miterlimit="10" stroke-linecap="round" stroke-linejoin="round"/>
<path d="M269.134 323.307C269.134 323.307 245.298 322.616 242.879 323.307C240.461 323.998 237.87 325.207 238.043 327.799C238.216 330.39 237.525 337.472 238.734 339.544C239.943 341.617 240.461 342.307 242.017 342.826C243.571 343.344 269.48 343.517 271.208 342.653C272.935 341.789 274.144 340.753 274.49 338.508C274.835 336.263 274.663 328.317 273.626 326.072C272.589 323.825 269.134 323.307 269.134 323.307Z" stroke="#161616" stroke-miterlimit="10" stroke-linecap="round" stroke-linejoin="round"/>
<path d="M228.409 347.365C228.409 347.365 207.706 345.224 204.613 344.986C201.52 344.748 198.902 346.89 199.14 349.27C199.378 351.649 199.378 359.74 200.805 361.881C202.233 364.023 207.468 364.736 215.082 365.213C222.697 365.688 226.98 366.403 228.884 365.213C230.788 364.023 231.501 363.071 231.739 360.216C231.977 357.361 231.977 352.601 231.501 350.698C231.027 348.794 228.409 347.365 228.409 347.365Z" fill="white" stroke="#161616" stroke-miterlimit="10" stroke-linecap="round" stroke-linejoin="round"/>
<path d="M283.636 347.365C283.636 347.365 304.339 345.224 307.431 344.986C310.525 344.748 313.142 346.89 312.905 349.27C312.667 351.649 312.667 359.74 311.24 361.881C309.812 364.023 304.576 364.736 296.962 365.213C289.347 365.688 285.065 366.403 283.161 365.213C281.257 364.023 280.544 363.071 280.305 360.216C280.067 357.361 280.067 352.601 280.542 350.698C281.019 348.794 283.636 347.365 283.636 347.365Z" fill="white" stroke="#161616" stroke-miterlimit="10" stroke-linecap="round" stroke-linejoin="round"/>
<path d="M239.772 350.272C239.772 350.272 238.772 360.969 239.857 362.958C240.942 364.947 241.485 365.853 243.656 366.034C245.826 366.215 265.002 366.757 268.078 365.853C271.154 364.949 272.42 363.502 272.6 362.235C272.781 360.969 272.647 352.116 272.285 350.669C271.924 349.222 270.658 347.593 268.305 347.412C265.954 347.232 248.721 347.039 246.007 347.039C243.293 347.039 240.229 348.441 239.772 350.272Z" fill="white" stroke="#161616" stroke-miterlimit="10" stroke-linecap="round" stroke-linejoin="round"/>
<path d="M283.289 152.836L270.908 146.376C269.835 145.816 268.511 146.227 267.944 147.298C267.453 148.226 267.684 149.37 268.496 150.033L279.553 159.063C279.553 159.063 282.458 165.289 284.742 165.705C287.025 166.12 288.894 166.328 288.894 166.328" stroke="#161616" stroke-miterlimit="10" stroke-linecap="round" stroke-linejoin="round"/>
<path d="M276.661 149.843L277.589 145.377C277.822 144.257 277.104 143.161 275.984 142.928L268.469 141.365C267.349 141.132 266.253 141.851 266.02 142.971L264.677 149.434C264.444 150.554 265.162 151.65 266.282 151.883L272.664 153.21C272.664 153.21 270.433 154.784 271.518 155.734C272.603 156.683 274.502 158.718 275.994 159.532C277.486 160.346 279.559 159.06 279.559 159.06" stroke="#161616" stroke-miterlimit="10" stroke-linecap="round" stroke-linejoin="round"/>
<path d="M277.578 145.379C277.578 145.379 282.898 145.429 284.119 146.514C285.339 147.6 295.511 162.789 295.511 162.789" stroke="#161616" stroke-miterlimit="10" stroke-linecap="round" stroke-linejoin="round"/>
<path d="M273.819 158.041C273.819 158.041 271.648 159.669 272.734 160.618C273.819 161.568 274.497 161.975 276.667 162.517C278.837 163.06 279.109 163.331 279.787 163.06C280.465 162.788 281.279 162.381 281.279 162.381" stroke="#161616" stroke-miterlimit="10" stroke-linecap="round" stroke-linejoin="round"/>
<path d="M277.644 162.901C272.243 169.198 262.535 173.397 251.458 173.397C234.499 173.397 220.75 163.554 220.75 151.412C220.75 139.27 234.499 129.427 251.458 129.427C265.692 129.427 277.663 136.361 281.143 145.768" stroke="#161616" stroke-miterlimit="10" stroke-linecap="round" stroke-linejoin="round"/>
<path d="M256.04 166.928C255.829 166.928 255.616 166.869 255.427 166.746C254.905 166.406 254.757 165.709 255.097 165.188C257.644 161.27 258.991 156.716 258.991 152.022C258.991 147.538 257.755 143.16 255.417 139.363C255.09 138.834 255.255 138.14 255.785 137.813C256.315 137.486 257.008 137.652 257.335 138.181C259.893 142.335 261.244 147.119 261.244 152.022C261.244 157.153 259.772 162.13 256.985 166.415C256.769 166.747 256.408 166.928 256.04 166.928Z" fill="#161616"/>
<path d="M250.313 163.968C250.091 163.968 249.865 163.902 249.669 163.765C249.158 163.408 249.034 162.705 249.391 162.196C251.481 159.205 252.587 155.686 252.587 152.022C252.587 148.595 251.612 145.269 249.764 142.402C249.427 141.879 249.578 141.181 250.101 140.844C250.626 140.508 251.322 140.658 251.658 141.181C253.739 144.412 254.84 148.161 254.84 152.021C254.84 156.15 253.595 160.114 251.238 163.486C251.019 163.8 250.669 163.968 250.313 163.968Z" fill="#161616"/>
<path d="M244.492 160.882C244.246 160.882 243.998 160.802 243.791 160.636C243.305 160.248 243.225 159.54 243.613 159.054C245.221 157.039 246.071 154.608 246.071 152.024C246.071 149.478 245.243 147.074 243.676 145.074C243.292 144.584 243.379 143.877 243.868 143.493C244.359 143.109 245.066 143.194 245.45 143.685C247.331 146.086 248.325 148.97 248.325 152.025C248.325 155.08 247.278 158.076 245.375 160.461C245.151 160.737 244.823 160.882 244.492 160.882Z" fill="#161616"/>
<path d="M238.566 158.741C238.205 158.741 237.849 158.567 237.631 158.245C237.282 157.73 237.418 157.029 237.935 156.681C239.485 155.633 240.411 153.892 240.411 152.022C240.411 150.552 239.848 149.164 238.823 148.109C238.391 147.664 238.401 146.949 238.847 146.517C239.292 146.083 240.005 146.094 240.439 146.54C241.875 148.016 242.664 149.963 242.664 152.024C242.664 154.642 241.367 157.081 239.195 158.549C239.002 158.678 238.782 158.741 238.566 158.741Z" fill="#161616"/>
<path d="M211.5 258.944V250.224C211.4 250.278 211.289 250.333 211.163 250.387C211.036 250.441 210.904 250.497 210.765 250.555C210.625 250.614 210.49 250.67 210.359 250.724C210.229 250.778 210.11 250.831 210 250.886V249.21C210.099 249.154 210.239 249.081 210.42 248.987C210.601 248.892 210.793 248.786 211.002 248.669C211.209 248.552 211.403 248.432 211.584 248.31C211.765 248.188 211.899 248.082 211.989 247.993H213.759V258.943H211.5V258.944Z" fill="#161616"/>
<path d="M253.028 261.716V260.121L255.651 256.092C255.848 255.795 256.036 255.507 256.211 255.228C256.386 254.949 256.531 254.664 256.644 254.376C256.757 254.088 256.812 253.786 256.812 253.469C256.812 253.154 256.75 252.92 256.624 252.767C256.498 252.614 256.326 252.537 256.109 252.537C255.867 252.537 255.677 252.605 255.542 252.741C255.407 252.877 255.315 253.056 255.265 253.281C255.215 253.507 255.191 253.76 255.191 254.038V254.579H253V253.998C253 253.348 253.103 252.769 253.311 252.26C253.518 251.751 253.847 251.35 254.298 251.056C254.748 250.763 255.339 250.617 256.069 250.617C257.051 250.617 257.793 250.872 258.293 251.381C258.792 251.89 259.043 252.6 259.043 253.51C259.043 253.951 258.972 254.361 258.834 254.739C258.693 255.118 258.51 255.485 258.28 255.841C258.05 256.198 257.804 256.569 257.542 256.957L255.541 259.944H258.746V261.715H253.028V261.716Z" fill="#161616"/>
<path d="M300.015 259.601C299.249 259.601 298.647 259.457 298.21 259.169C297.772 258.881 297.462 258.476 297.278 257.958C297.093 257.44 297 256.843 297 256.167V255.775H299.257C299.257 255.784 299.257 255.833 299.257 255.924C299.257 256.014 299.257 256.095 299.257 256.167C299.257 256.527 299.279 256.82 299.324 257.045C299.369 257.27 299.451 257.434 299.568 257.538C299.684 257.643 299.847 257.695 300.055 257.695C300.262 257.695 300.418 257.64 300.521 257.532C300.625 257.425 300.696 257.261 300.731 257.046C300.767 256.829 300.786 256.561 300.786 256.235C300.786 255.694 300.711 255.282 300.563 254.997C300.414 254.713 300.105 254.567 299.637 254.558C299.628 254.558 299.578 254.558 299.488 254.558C299.398 254.558 299.307 254.558 299.217 254.558V253.004C299.28 253.004 299.343 253.004 299.407 253.004C299.469 253.004 299.528 253.004 299.582 253.004C300.06 253.004 300.379 252.874 300.542 252.611C300.705 252.35 300.786 251.945 300.786 251.396C300.786 250.972 300.729 250.648 300.617 250.422C300.503 250.196 300.294 250.083 299.989 250.083C299.691 250.083 299.496 250.209 299.4 250.462C299.306 250.714 299.258 251.038 299.258 251.435C299.258 251.525 299.258 251.617 299.258 251.712C299.258 251.807 299.258 251.904 299.258 252.003H297.001V251.34C297.001 250.683 297.12 250.127 297.36 249.671C297.599 249.215 297.942 248.872 298.387 248.637C298.834 248.403 299.368 248.285 299.991 248.285C300.621 248.285 301.161 248.399 301.612 248.622C302.063 248.848 302.41 249.179 302.653 249.617C302.897 250.054 303.019 250.598 303.019 251.245C303.019 251.885 302.888 252.42 302.627 252.854C302.365 253.287 302.05 253.553 301.682 253.651C301.933 253.742 302.161 253.885 302.364 254.084C302.566 254.282 302.727 254.55 302.843 254.889C302.96 255.226 303.019 255.656 303.019 256.179C303.019 256.847 302.922 257.436 302.728 257.95C302.534 258.465 302.216 258.868 301.775 259.161C301.331 259.454 300.745 259.601 300.015 259.601Z" fill="#161616"/>
<path d="M212.374 285.424V282.964H209.008V281.301L211.86 274.475H214.483V281.288H215.495V282.964H214.483V285.424H212.374ZM210.725 281.288H212.374V276.731L210.725 281.288Z" fill="#161616"/>
<path d="M255.867 287.153C255.064 287.153 254.458 287.011 254.049 286.727C253.638 286.443 253.362 286.045 253.217 285.531C253.072 285.017 253 284.421 253 283.747H255.177C255.177 284.162 255.199 284.499 255.244 284.76C255.289 285.022 255.373 285.208 255.494 285.32C255.616 285.434 255.789 285.486 256.015 285.477C256.249 285.468 256.416 285.373 256.515 285.193C256.614 285.012 256.675 284.752 256.697 284.415C256.72 284.078 256.731 283.669 256.731 283.192C256.731 282.831 256.71 282.512 256.67 282.232C256.629 281.954 256.547 281.73 256.426 281.563C256.304 281.396 256.122 281.313 255.879 281.313C255.653 281.313 255.469 281.395 255.325 281.556C255.181 281.719 255.077 281.971 255.014 282.313H253.067L253.27 276H258.38V277.892H255.082L254.961 280.149C255.051 280.024 255.223 279.913 255.475 279.819C255.727 279.724 255.997 279.664 256.286 279.636C256.846 279.574 257.316 279.675 257.7 279.941C258.083 280.206 258.371 280.61 258.565 281.15C258.759 281.692 258.856 282.354 258.856 283.139C258.856 283.724 258.82 284.262 258.749 284.753C258.676 285.245 258.537 285.668 258.33 286.024C258.122 286.381 257.821 286.659 257.424 286.856C257.025 287.054 256.506 287.153 255.867 287.153Z" fill="#161616"/>
<path d="M300.028 285.259C299.316 285.259 298.737 285.104 298.291 284.794C297.845 284.483 297.518 284.057 297.311 283.515C297.103 282.975 297 282.358 297 281.664V277.702C297 276.991 297.084 276.356 297.249 275.797C297.416 275.238 297.716 274.8 298.148 274.479C298.581 274.159 299.204 274 300.014 274C300.717 274 301.271 274.107 301.678 274.323C302.082 274.54 302.37 274.855 302.542 275.27C302.714 275.685 302.799 276.197 302.799 276.81C302.799 276.846 302.8 276.881 302.805 276.912C302.809 276.943 302.812 276.972 302.812 276.998H300.689C300.689 276.556 300.656 276.23 300.587 276.019C300.52 275.807 300.333 275.701 300.027 275.701C299.82 275.701 299.665 275.763 299.562 275.891C299.457 276.018 299.387 276.237 299.351 276.554C299.315 276.869 299.297 277.311 299.297 277.878V278.852C299.404 278.663 299.581 278.516 299.824 278.413C300.067 278.309 300.342 278.253 300.649 278.244C301.225 278.226 301.688 278.357 302.034 278.635C302.382 278.914 302.631 279.296 302.785 279.778C302.937 280.26 303.015 280.797 303.015 281.393C303.015 282.159 302.924 282.833 302.743 283.413C302.563 283.996 302.258 284.448 301.825 284.772C301.393 285.098 300.794 285.259 300.028 285.259ZM300.055 283.597C300.262 283.597 300.414 283.527 300.509 283.388C300.603 283.248 300.666 283.04 300.698 282.765C300.729 282.491 300.746 282.15 300.746 281.746C300.746 281.385 300.735 281.074 300.713 280.813C300.689 280.551 300.629 280.347 300.531 280.198C300.431 280.048 300.264 279.975 300.031 279.975C299.923 279.975 299.819 279.997 299.721 280.042C299.621 280.087 299.536 280.143 299.463 280.211C299.392 280.278 299.338 280.344 299.302 280.407V282.191C299.302 282.434 299.321 282.664 299.363 282.881C299.403 283.097 299.48 283.27 299.593 283.402C299.701 283.532 299.857 283.597 300.055 283.597Z" fill="#161616"/>
<path d="M211.608 310.951L213.987 301.717H211V300H216.19V301.554L213.812 310.949L211.608 310.951Z" fill="#161616"/>
<path d="M256.001 312.275C255.262 312.275 254.67 312.128 254.23 311.834C253.789 311.541 253.473 311.137 253.284 310.618C253.096 310.1 253 309.508 253 308.841C253.009 308.57 253.039 308.306 253.088 308.051C253.137 307.794 253.213 307.555 253.318 307.334C253.421 307.114 253.552 306.92 253.709 306.752C253.867 306.586 254.054 306.449 254.27 306.34C253.991 306.134 253.743 305.834 253.526 305.441C253.31 305.05 253.192 304.551 253.174 303.947C253.164 303.334 253.267 302.807 253.478 302.365C253.69 301.924 254.008 301.585 254.431 301.351C254.855 301.118 255.378 301 256 301C256.63 301 257.156 301.119 257.574 301.358C257.993 301.597 258.307 301.935 258.513 302.372C258.721 302.809 258.816 303.333 258.798 303.947C258.789 304.56 258.681 305.063 258.475 305.454C258.267 305.847 258.019 306.141 257.731 306.34C257.946 306.449 258.134 306.587 258.291 306.752C258.449 306.919 258.579 307.113 258.683 307.334C258.786 307.555 258.865 307.794 258.919 308.051C258.973 308.308 259 308.571 259 308.841C259.019 309.508 258.929 310.1 258.737 310.618C258.543 311.137 258.225 311.541 257.784 311.834C257.343 312.128 256.749 312.275 256.001 312.275ZM256.001 310.612C256.244 310.612 256.419 310.523 256.528 310.342C256.635 310.162 256.704 309.947 256.731 309.7C256.758 309.452 256.771 309.225 256.771 309.017C256.78 308.739 256.768 308.468 256.738 308.206C256.706 307.945 256.636 307.73 256.528 307.564C256.419 307.397 256.244 307.314 256.001 307.314C255.767 307.314 255.595 307.398 255.487 307.564C255.38 307.73 255.308 307.942 255.276 308.199C255.245 308.455 255.228 308.729 255.228 309.017C255.228 309.225 255.243 309.455 255.27 309.707C255.297 309.959 255.367 310.173 255.48 310.349C255.593 310.525 255.766 310.612 256.001 310.612ZM256.001 305.529C256.153 305.529 256.28 305.468 256.379 305.347C256.479 305.225 256.554 305.043 256.603 304.799C256.652 304.556 256.677 304.254 256.677 303.894C256.677 303.524 256.62 303.231 256.509 303.014C256.395 302.798 256.227 302.691 256.001 302.691C255.775 302.691 255.602 302.798 255.48 303.014C255.359 303.231 255.298 303.519 255.298 303.879C255.298 304.24 255.323 304.543 255.372 304.791C255.421 305.041 255.501 305.226 255.609 305.346C255.717 305.468 255.846 305.529 256.001 305.529Z" fill="#161616"/>
<path d="M297.998 311.318C297.296 311.318 296.741 311.211 296.336 310.995C295.93 310.778 295.642 310.461 295.47 310.042C295.3 309.623 295.214 309.107 295.214 308.494C295.214 308.469 295.214 308.439 295.214 308.407C295.214 308.376 295.214 308.346 295.214 308.32H297.324C297.324 308.762 297.363 309.089 297.439 309.299C297.516 309.511 297.708 309.617 298.014 309.617C298.222 309.617 298.374 309.555 298.474 309.427C298.573 309.302 298.639 309.078 298.67 308.758C298.702 308.438 298.718 307.998 298.718 307.44V306.466C298.602 306.655 298.423 306.8 298.184 306.899C297.945 307 297.677 307.058 297.379 307.075C296.803 307.084 296.338 306.939 295.987 306.642C295.636 306.344 295.384 305.943 295.23 305.438C295.077 304.933 295 304.384 295 303.788C295 303.022 295.097 302.362 295.291 301.808C295.484 301.254 295.802 300.824 296.244 300.516C296.684 300.21 297.271 300.058 298.001 300.058C298.722 300.058 299.303 300.201 299.745 300.49C300.187 300.778 300.51 301.183 300.712 301.701C300.915 302.219 301.016 302.83 301.016 303.533V307.615C301.016 308.326 300.933 308.961 300.767 309.52C300.6 310.079 300.3 310.519 299.868 310.838C299.432 311.159 298.81 311.318 297.998 311.318ZM298.025 305.344C298.206 305.344 298.35 305.295 298.458 305.195C298.565 305.096 298.652 305.001 298.714 304.911V303.127C298.714 302.875 298.696 302.643 298.66 302.431C298.624 302.22 298.556 302.048 298.457 301.917C298.357 301.786 298.205 301.72 297.997 301.72C297.799 301.72 297.651 301.791 297.551 301.929C297.452 302.07 297.386 302.277 297.355 302.552C297.324 302.827 297.307 303.167 297.307 303.571C297.307 303.923 297.319 304.233 297.341 304.498C297.364 304.764 297.425 304.97 297.523 305.119C297.625 305.27 297.792 305.344 298.025 305.344Z" fill="#161616"/>
<path d="M207.422 336.527V325.577H212.154V327.213H209.843V329.969H211.857V331.659H209.843V336.527H207.422Z" fill="#161616"/>
<path d="M255.987 338.315C255.329 338.315 254.779 338.182 254.337 337.917C253.895 337.651 253.562 337.284 253.337 336.815C253.111 336.346 253 335.802 253 335.18V330.218C253 329.577 253.106 329.016 253.316 328.535C253.528 328.053 253.855 327.677 254.297 327.406C254.737 327.136 255.302 327 255.987 327C256.673 327 257.233 327.136 257.67 327.406C258.107 327.677 258.431 328.053 258.644 328.535C258.854 329.016 258.962 329.577 258.962 330.218V335.18C258.962 335.792 258.848 336.335 258.623 336.807C258.397 337.28 258.064 337.65 257.623 337.916C257.182 338.182 256.636 338.315 255.987 338.315ZM255.987 336.301C256.204 336.301 256.359 336.231 256.453 336.092C256.547 335.952 256.605 335.791 256.629 335.606C256.651 335.421 256.662 335.261 256.662 335.125V330.272C256.662 330.12 256.652 329.945 256.635 329.752C256.617 329.558 256.56 329.386 256.466 329.237C256.372 329.089 256.211 329.014 255.987 329.014C255.761 329.014 255.602 329.089 255.507 329.237C255.413 329.386 255.356 329.558 255.338 329.752C255.32 329.945 255.312 330.118 255.312 330.272V335.125C255.312 335.261 255.325 335.421 255.354 335.606C255.38 335.791 255.442 335.952 255.536 336.092C255.63 336.231 255.78 336.301 255.987 336.301Z" fill="#161616"/>
<path d="M291.5 336.454V334.373H293.582V336.454H291.5Z" fill="#161616"/>
<path d="M295.145 336.454L295.563 332.817H294.82L294.86 331.45H295.753L295.942 329.882H294.875L294.902 328.477H296.187L296.524 325.503H297.957L297.605 328.477H298.66L298.998 325.503H300.418L300.065 328.477H300.782L300.742 329.882H299.822L299.647 331.45H300.715L300.675 332.817H299.458L299.012 336.454H297.607L298.04 332.817H296.985L296.553 336.454H295.145ZM297.16 331.452H298.228L298.418 329.883H297.364L297.16 331.452Z" fill="#161616"/>
<path d="M303.687 330.369L302.402 329.599L303.375 328.221L301.93 327.666L302.415 326.355L303.727 327.085L303.551 325.504H305.201L305.025 327.085L306.35 326.355L306.836 327.679L305.376 328.234L306.363 329.599L305.052 330.369L304.376 328.936L303.687 330.369Z" fill="#161616"/>
<path d="M97.3302 368.361C97.3302 368.361 100.406 377.764 103.482 380.637C106.557 383.507 118.792 389.151 118.962 395.288C119.161 402.416 115.01 403.735 103.897 401.159C95.8681 399.301 89.2411 394.402 86.8735 391.606C84.7822 389.137 85.9494 387.037 86.4603 384.142C87.0874 380.591 87.2079 376.971 87.2079 373.366V367.47L97.3302 368.361Z" fill="white"/>
<path d="M112.268 402.831C110.096 402.831 107.327 402.422 103.803 401.606C95.5997 399.706 88.8563 394.647 86.5324 391.903C84.7131 389.754 85.1762 387.785 85.6664 385.7C85.7889 385.174 85.9177 384.632 86.0173 384.063C86.6695 380.367 86.7567 376.581 86.7567 373.366V367.47C86.7567 367.341 86.8107 367.218 86.9062 367.131C87.0017 367.044 87.1305 367 87.2572 367.013L97.3795 367.904C97.5622 367.92 97.718 368.043 97.7741 368.217C97.8052 368.311 100.85 377.542 103.805 380.3C104.623 381.064 106.156 382.059 107.932 383.212C112.729 386.325 119.3 390.589 119.431 395.274C119.514 398.258 118.864 400.21 117.383 401.421C116.233 402.362 114.592 402.829 112.268 402.829V402.831ZM87.6767 367.97V373.366C87.6767 376.62 87.5874 380.454 86.9228 384.221C86.8169 384.817 86.6881 385.372 86.5615 385.908C86.0693 387.999 85.7141 389.513 87.2343 391.309C89.4814 393.963 96.0254 398.863 104.013 400.711C110.908 402.308 114.854 402.308 116.806 400.711C118.048 399.695 118.592 397.976 118.517 395.299C118.401 391.095 112.062 386.983 107.435 383.98C105.624 382.805 104.058 381.789 103.182 380.971C100.326 378.304 97.556 370.429 97.0015 368.791L87.6788 367.97H87.6767Z" fill="#161616"/>
<path d="M118.532 398.699C118.521 398.699 118.509 398.699 118.498 398.699L114.546 398.415C104.324 397.677 94.7628 393.285 87.6249 386.049C86.6654 385.077 86.14 384.469 86.1192 384.444C85.953 384.253 85.9759 383.962 86.167 383.798C86.358 383.634 86.6467 383.655 86.8128 383.846C86.817 383.852 87.3424 384.458 88.277 385.405C95.2592 392.483 104.613 396.778 114.613 397.501L118.565 397.785C118.818 397.804 119.007 398.022 118.989 398.275C118.972 398.516 118.771 398.701 118.532 398.701V398.699Z" fill="#161616"/>
<path d="M94.6757 383.576C94.4556 383.576 94.2624 383.418 94.225 383.194C94.1835 382.944 94.3517 382.708 94.6009 382.666C94.6529 382.658 99.768 381.779 101.672 379.302C101.826 379.1 102.115 379.063 102.314 379.217C102.516 379.37 102.553 379.659 102.399 379.858C100.275 382.623 94.9768 383.532 94.7526 383.57C94.7276 383.574 94.7027 383.576 94.6778 383.576H94.6757Z" fill="#161616"/>
<path d="M99.3803 386.759C99.1685 386.759 98.9774 386.612 98.9318 386.396C98.8798 386.149 99.0377 385.906 99.2848 385.854C99.3347 385.843 104.161 384.803 105.575 382.413C105.704 382.195 105.985 382.122 106.203 382.253C106.421 382.381 106.491 382.662 106.363 382.88C104.741 385.617 99.6856 386.705 99.4717 386.751C99.4406 386.757 99.4094 386.761 99.3783 386.761L99.3803 386.759Z" fill="#161616"/>
<path d="M104.427 389.766C104.24 389.766 104.066 389.652 103.997 389.467C103.91 389.23 104.03 388.966 104.267 388.877C104.307 388.863 108.246 387.376 109.393 384.981C109.503 384.753 109.775 384.657 110.003 384.765C110.232 384.875 110.327 385.147 110.219 385.376C108.913 388.107 104.761 389.67 104.585 389.735C104.533 389.754 104.479 389.764 104.425 389.764L104.427 389.766Z" fill="#161616"/>
<path d="M73.5712 345.232C73.1974 345.232 67.8476 344.702 64.7573 344.393C63.5569 344.273 62.4853 345.143 62.3545 346.339L61.746 351.928C61.5321 353.903 61.1333 355.855 60.5746 357.761C59.5612 361.225 58.0659 367.19 58.8841 369.913C59.7605 372.824 62.4978 376.88 64.3046 379.19C65.1394 380.255 66.5475 380.679 67.831 380.247C70.1279 379.478 73.7976 378 75.9512 375.852C79.2596 372.552 75.6875 366.216 75.6875 366.216L73.5712 345.23V345.232Z" fill="white"/>
<path d="M66.8346 380.871C65.7318 380.871 64.6602 380.37 63.9582 379.473C61.9624 376.925 59.3249 372.927 58.4589 370.046C57.6448 367.336 58.9282 361.799 60.1494 357.633C60.708 355.725 61.0964 353.789 61.3041 351.879L61.9105 346.29C62.0683 344.849 63.3705 343.794 64.8139 343.937C70.0349 344.458 73.3121 344.772 73.5821 344.774C73.8168 344.774 74.0141 344.952 74.039 345.185L76.1469 366.08C76.5914 366.902 79.6256 372.85 76.2882 376.179C74.1345 378.329 70.5853 379.816 67.9893 380.684C67.6092 380.81 67.2209 380.873 66.8346 380.873V380.871ZM64.5501 344.84C63.6758 344.84 62.9178 345.503 62.8222 346.387L62.2158 351.976C62.0019 353.939 61.6031 355.928 61.0279 357.889C60.058 361.203 58.5461 367.153 59.3353 369.78C60.112 372.362 62.5772 376.225 64.6768 378.906C65.3891 379.813 66.602 380.181 67.6965 379.811C69.7463 379.126 73.5032 377.656 75.6381 375.527C78.664 372.507 75.3328 366.501 75.2975 366.441C75.2664 366.387 75.2477 366.325 75.2414 366.262L73.1626 345.661C71.8729 345.557 67.9976 345.175 64.7183 344.846C64.6602 344.84 64.602 344.838 64.546 344.838L64.5501 344.84Z" fill="#161616"/>
<path d="M69.3038 379.946C69.1605 379.946 69.0193 379.88 68.93 379.753C62.386 370.572 62.8304 368.167 63.8003 362.898C63.9997 361.816 64.226 360.591 64.4109 359.16C64.9031 355.349 66.3818 344.871 66.3963 344.768C66.4316 344.516 66.6642 344.34 66.9134 344.377C67.1647 344.412 67.3392 344.645 67.3038 344.894C67.2893 345 65.8127 355.471 65.3205 359.276C65.1315 360.73 64.9031 361.97 64.7016 363.062C63.7795 368.069 63.3579 370.354 69.6755 379.219C69.823 379.425 69.7752 379.712 69.5676 379.859C69.4866 379.917 69.3931 379.944 69.3017 379.944L69.3038 379.946Z" fill="#161616"/>
<path d="M68.3953 363.939C68.171 363.939 67.9758 363.775 67.9425 363.546C67.9052 363.295 68.0796 363.062 68.3288 363.027L74.3578 362.142C74.6153 362.103 74.8417 362.279 74.877 362.529C74.9143 362.78 74.7399 363.012 74.4907 363.048L68.4617 363.932C68.4389 363.937 68.4161 363.937 68.3953 363.937V363.939Z" fill="#161616"/>
<path d="M69.0281 368.273C68.8038 368.273 68.6086 368.109 68.5754 367.881C68.538 367.629 68.7124 367.397 68.9616 367.361L74.9906 366.477C75.2481 366.435 75.4745 366.614 75.5098 366.863C75.5472 367.114 75.3727 367.347 75.1235 367.382L69.0946 368.267C69.0717 368.271 69.0489 368.271 69.0281 368.271V368.273Z" fill="#161616"/>
<path d="M75.597 370.267C79.113 372.686 86.5521 375.799 99.0544 372.057L93.6734 223.846L70.1226 219.358C70.1226 219.358 66.6917 272.531 70.0312 304.177C73.0799 333.063 73.2045 357.685 73.1526 365.507C73.1402 367.396 74.0373 369.193 75.597 370.265V370.267Z" fill="#161616"/>
<path d="M75.6953 212.693L116.068 199.304L129.619 274.97C128.222 293.607 106.81 342.939 98.7581 348.461C86.0564 357.173 75.6953 212.693 75.6953 212.693Z" fill="#161616"/>
<path d="M98.8263 349.298H98.8138C98.5605 349.291 98.3611 349.082 98.3673 348.828L100.978 245.366C100.984 245.117 101.188 244.92 101.437 244.92H101.449C101.703 244.926 101.902 245.136 101.896 245.389L99.2853 348.851C99.279 349.1 99.0755 349.298 98.8284 349.298H98.8263Z" fill="white"/>
<path d="M155.439 123.137C155.119 123.074 154.89 122.796 154.899 122.472C154.934 120.788 155.287 115.735 158.128 113.415C161.567 110.607 164.485 104.161 166.57 104.786C168.655 105.411 164.07 111.025 164.589 111.648C165.11 112.271 168.757 108.736 169.903 106.657C171.05 104.578 172.437 100.508 174.103 100.647C176.387 100.836 176.888 104.267 173.864 111.025C170.988 117.457 161.316 119.18 160.566 123.452C160.502 123.816 160.149 124.053 159.785 123.982L155.437 123.139L155.439 123.137Z" fill="white"/>
<path d="M159.93 124.452C159.857 124.452 159.785 124.445 159.712 124.431L155.365 123.588C154.825 123.484 154.441 123.01 154.453 122.464C154.497 120.435 154.917 115.457 157.851 113.06C159.259 111.912 160.624 110.072 161.826 108.448C163.712 105.904 165.203 103.891 166.715 104.346C167.084 104.456 167.35 104.691 167.487 105.025C167.882 105.999 167.099 107.534 165.946 109.598C165.674 110.086 165.332 110.701 165.149 111.112C166.189 110.498 168.576 108.143 169.516 106.438C169.78 105.96 170.061 105.368 170.355 104.741C171.442 102.44 172.551 100.049 174.154 100.191C174.939 100.255 175.56 100.641 175.954 101.31C176.972 103.03 176.382 106.548 174.295 111.212C172.727 114.72 169.28 116.836 166.239 118.703C163.616 120.315 161.35 121.706 161.031 123.532C160.979 123.827 160.815 124.082 160.565 124.254C160.374 124.385 160.154 124.454 159.928 124.454L159.93 124.452ZM166.283 105.2C165.371 105.2 163.944 107.127 162.561 108.992C161.326 110.66 159.926 112.547 158.428 113.769C155.714 115.985 155.398 120.998 155.367 122.481C155.365 122.58 155.436 122.666 155.538 122.686L159.884 123.53C159.961 123.542 160.017 123.515 160.046 123.496C160.077 123.476 160.117 123.436 160.127 123.372C160.52 121.139 162.948 119.648 165.759 117.92C168.688 116.122 172.006 114.082 173.458 110.836C176.204 104.697 175.566 102.454 175.165 101.773C174.922 101.362 174.567 101.142 174.077 101.102C174.06 101.102 174.046 101.102 174.029 101.102C173.084 101.102 171.986 103.426 171.182 105.131C170.879 105.771 170.594 106.375 170.316 106.88C169.35 108.631 166.123 112.055 164.864 112.176C164.524 112.213 164.331 112.043 164.248 111.943C163.865 111.486 164.223 110.801 165.143 109.154C165.799 107.981 166.893 106.014 166.634 105.372C166.613 105.322 166.58 105.266 166.449 105.227C166.395 105.21 166.339 105.204 166.283 105.204V105.2Z" fill="#161616"/>
<path d="M160.398 122.52L155.557 121.554C154.489 121.34 153.442 122 153.183 123.055C151.659 129.238 146.606 148.596 142.741 150.168C138.134 152.039 134.382 147.275 126.533 143.36C122.347 141.273 115.95 140.492 110.893 140.218C106.472 139.979 102.042 140.359 97.7221 141.333L83.9384 144.438C82.2624 144.725 76.6281 145.79 70.4849 149.167C70.8712 149.8 64.4498 152.195 64.7862 152.837C69.6127 162.031 70.0364 175.403 69.0374 185.745C73.8016 192.676 81.546 195.49 78.5138 200.169C72.4039 209.604 70.5431 215.402 70.3541 223.861C78.2542 218.071 90.2207 210.794 106.092 206.094C114.959 203.467 123.055 202.235 129.825 201.701C128.575 199.589 126.776 196.094 125.709 191.494C124.133 184.697 125.429 180.994 124.463 173.166C124.106 170.278 123.333 165.947 121.412 160.722C130.292 168.878 141.97 172.481 150.755 168.89C163.648 163.621 171.436 142.399 160.394 122.522L160.398 122.52Z" fill="white"/>
<path d="M70.3684 224.317C70.2957 224.317 70.223 224.301 70.1566 224.266C70.0008 224.185 69.9074 224.023 69.9094 223.848C70.1067 215.055 72.1067 209.24 78.1439 199.917C79.7763 197.398 78.0214 195.589 74.5158 192.347C72.6113 190.586 70.4536 188.59 68.6737 186.003C68.6135 185.913 68.5844 185.805 68.5948 185.699C69.1992 179.438 69.9987 163.725 64.3935 153.046C64.3208 152.909 64.3083 152.747 64.3582 152.593C64.5181 152.097 65.3301 151.653 67.4401 150.595C68.3581 150.136 69.7163 149.455 70.0403 149.142C70.0403 149.108 70.0465 149.075 70.0548 149.044C70.088 148.924 70.167 148.82 70.277 148.762C75.9134 145.663 81.2155 144.438 83.8738 143.983L97.6346 140.882C102.015 139.896 106.49 139.516 110.93 139.757C115.753 140.018 122.413 140.785 126.749 142.947C129.337 144.236 131.466 145.609 133.347 146.82C137.173 149.283 139.698 150.911 142.579 149.74C145.499 148.554 149.748 135.119 152.749 122.943C153.066 121.649 154.342 120.839 155.656 121.101L160.497 122.067C160.63 122.094 160.742 122.177 160.809 122.293C166.462 132.469 167.685 144.045 164.169 154.057C161.602 161.364 156.782 166.923 150.944 169.307C142.591 172.722 131.561 169.935 122.442 162.219C123.651 165.831 124.488 169.484 124.934 173.104C125.364 176.589 125.349 179.205 125.335 181.739C125.316 184.906 125.302 187.641 126.17 191.384C126.984 194.889 128.35 198.281 130.234 201.46C130.315 201.597 130.319 201.766 130.247 201.905C130.174 202.044 130.033 202.137 129.875 202.15C121.858 202.781 113.904 204.254 106.235 206.526C93.4852 210.301 81.5083 216.257 70.6363 224.224C70.5553 224.282 70.4619 224.313 70.3663 224.313L70.3684 224.317ZM69.5232 185.621C71.2282 188.059 73.3029 189.98 75.1388 191.677C78.4368 194.725 81.0411 197.132 78.9144 200.418C73.2012 209.24 71.168 214.851 70.8565 222.938C81.6101 215.186 93.4229 209.371 105.977 205.651C113.476 203.429 121.246 201.967 129.081 201.3C127.339 198.223 126.06 194.962 125.279 191.596C124.386 187.747 124.402 184.827 124.419 181.737C124.434 179.234 124.448 176.645 124.024 173.22C123.518 169.114 122.5 164.961 120.999 160.878C120.926 160.68 120.999 160.456 121.173 160.34C121.35 160.221 121.582 160.24 121.738 160.383C130.695 168.612 142.294 171.86 150.597 168.466C156.192 166.18 160.823 160.82 163.305 153.76C166.715 144.058 165.548 132.831 160.111 122.93L155.478 122.006C154.647 121.84 153.841 122.351 153.64 123.167C151.739 130.876 146.89 148.982 142.925 150.593C139.6 151.943 136.77 150.12 132.851 147.594C130.99 146.396 128.882 145.038 126.34 143.771C122.143 141.678 115.616 140.932 110.88 140.677C106.519 140.438 102.133 140.814 97.8361 141.782L84.0524 144.886C81.4606 145.331 76.3683 146.506 70.9271 149.453C70.736 149.937 69.8991 150.394 67.8493 151.42C66.9749 151.858 65.6998 152.496 65.3073 152.824C70.8668 163.619 70.1275 179.212 69.5211 185.625L69.5232 185.621Z" fill="#161616"/>
<path d="M105.137 202.733C105.069 202.733 105 202.719 104.936 202.686C104.709 202.574 104.616 202.299 104.726 202.073L116.555 178.02C116.667 177.793 116.944 177.7 117.168 177.81C117.394 177.922 117.488 178.196 117.378 178.422L105.548 202.476C105.469 202.638 105.305 202.731 105.137 202.731V202.733Z" fill="#161616"/>
<path d="M115.496 194.792C115.438 194.792 115.378 194.781 115.321 194.756C115.089 194.659 114.977 194.391 115.074 194.158L118.316 186.329C118.414 186.094 118.682 185.984 118.914 186.081C119.147 186.179 119.259 186.447 119.161 186.68L115.92 194.509C115.847 194.686 115.677 194.792 115.496 194.792Z" fill="#161616"/>
<path d="M70.4934 149.166C70.4934 149.166 23.5142 171.091 36.8181 197.628C47.2167 218.373 73.484 193.435 73.484 193.435L67.5775 183.201C67.5775 183.201 56.3317 191.828 55.2684 187.377C54.2238 183.007 59.4718 177.612 74.1921 180.413L77.434 184.129C77.434 184.129 82.5118 172.187 71.5775 151.087L70.4954 149.168L70.4934 149.166Z" fill="white"/>
<path d="M69.0469 185.747L75.5867 178.759C81.489 179.039 85.9499 180.362 89.4244 182.399C90.3693 182.954 90.143 184.37 89.0693 184.578C87.1067 184.958 84.2241 185.614 80.7143 186.703C73.9419 188.8 72.4736 190.252 72.4736 190.252L69.049 185.747H69.0469Z" fill="white"/>
<path d="M72.4852 190.707C72.4748 190.707 72.4644 190.707 72.452 190.707C72.3211 190.699 72.1986 190.632 72.1197 190.528L68.6951 186.024C68.5601 185.845 68.5725 185.596 68.7241 185.434L75.264 178.443C75.3553 178.346 75.4841 178.288 75.6212 178.298C81.2825 178.566 85.8764 179.779 89.6686 182.003C90.2688 182.356 90.5824 183.023 90.4661 183.706C90.3519 184.377 89.841 184.896 89.1681 185.027C87.3551 185.378 84.4434 186.03 80.8609 187.139C74.3772 189.147 72.8217 190.564 72.8092 190.578C72.722 190.663 72.6077 190.711 72.4873 190.711L72.4852 190.707ZM69.6587 185.775L72.5724 189.604C73.3762 189.052 75.536 187.824 80.5909 186.261C84.2149 185.139 87.1619 184.479 88.9957 184.123C89.4464 184.036 89.5461 183.66 89.5648 183.548C89.6063 183.307 89.5336 182.983 89.2076 182.79C85.5939 180.67 81.2036 179.503 75.7915 179.222L69.6608 185.775H69.6587Z" fill="#161616"/>
<path d="M49.0547 206.333C48.1991 206.333 47.3518 206.264 46.5169 206.119C42.1909 205.361 38.7933 202.574 36.4175 197.833C33.6304 192.275 33.2524 186.489 35.2877 180.633C41.6655 162.294 70.0241 148.883 70.3087 148.75C70.5392 148.642 70.8112 148.741 70.9172 148.972C71.0252 149.2 70.9255 149.474 70.6949 149.58C70.4125 149.711 42.4007 162.963 36.1516 180.936C34.1994 186.547 34.565 192.094 37.2357 197.421C39.4745 201.889 42.6499 204.512 46.6727 205.216C47.4411 205.351 48.224 205.413 49.0174 205.413C59.1957 205.413 71.0044 195.077 72.9109 193.345L67.4468 183.877C65.5777 185.266 58.9382 189.974 56.0972 188.963C55.443 188.73 55.0048 188.219 54.8282 187.482C54.4253 185.8 54.8801 184.101 56.1075 182.695C57.5281 181.067 61.2497 178.469 70.182 179.357C70.4333 179.382 70.6181 179.607 70.5932 179.858C70.5683 180.111 70.3377 180.29 70.0927 180.269C63.8644 179.648 59.0192 180.753 56.7991 183.295C55.7732 184.47 55.391 185.881 55.7213 187.266C55.8251 187.704 56.0432 187.968 56.4045 188.097C58.6703 188.902 65.0419 184.568 67.3056 182.832C67.4095 182.751 67.5465 182.722 67.6732 182.747C67.802 182.772 67.9141 182.853 67.9806 182.967L73.887 193.201C73.9929 193.384 73.9597 193.617 73.806 193.762C73.2266 194.31 60.4273 206.329 49.0527 206.329L49.0547 206.333Z" fill="#161616"/>
<path d="M96.7207 133.441C96.7207 133.441 95.2025 135.109 92.0312 134.523L96.7207 133.441Z" fill="white"/>
<path d="M93.3609 135.107C92.9331 135.107 92.4658 135.068 91.9612 134.974C91.7119 134.929 91.5479 134.69 91.5936 134.441C91.6393 134.191 91.876 134.025 92.1273 134.073C95.0161 134.607 96.3827 133.149 96.3951 133.132C96.5654 132.945 96.8562 132.931 97.0431 133.103C97.23 133.273 97.2445 133.564 97.0722 133.751C97.014 133.815 95.8032 135.107 93.3609 135.107Z" fill="#161616"/>
<path d="M101.653 110.571C101.653 125.393 91.7755 142.306 76.9181 142.306C62.0607 142.306 46.9375 129.536 46.9375 114.714C46.9375 99.892 59.4377 85.6182 74.2951 85.6182C89.1525 85.6182 101.653 95.7488 101.653 110.571Z" fill="#161616"/>
<path d="M53.1097 122.964C53.1097 124.665 51.7287 126.044 50.0236 126.044C48.3186 126.044 46.9375 124.665 46.9375 122.964C46.9375 121.263 48.3186 119.884 50.0236 119.884C51.7287 119.884 53.1097 121.263 53.1097 122.964Z" fill="#161616"/>
<path d="M54.7206 133.502C57.3105 133.502 59.4101 131.408 59.4101 128.825C59.4101 126.242 57.3105 124.148 54.7206 124.148C52.1308 124.148 50.0312 126.242 50.0312 128.825C50.0312 131.408 52.1308 133.502 54.7206 133.502Z" fill="#161616"/>
<path d="M56.6229 129.735C54.4278 131.924 54.4278 135.474 56.6229 137.663C58.8181 139.852 62.3757 139.852 64.5688 137.663C66.7639 135.474 66.7639 131.924 64.5688 129.735C62.3736 127.547 58.816 127.547 56.6229 129.735Z" fill="#161616"/>
<path d="M62.7969 136.822C62.7969 140.336 65.6525 143.183 69.1726 143.183C72.6928 143.183 75.5484 140.336 75.5484 136.822C75.5484 133.308 72.6928 130.461 69.1726 130.461C65.6525 130.461 62.7969 133.308 62.7969 136.822Z" fill="#161616"/>
<path d="M78.2393 143.842C82.1253 143.842 85.2755 140.699 85.2755 136.822C85.2755 132.945 82.1253 129.803 78.2393 129.803C74.3533 129.803 71.2031 132.945 71.2031 136.822C71.2031 140.699 74.3533 143.842 78.2393 143.842Z" fill="#161616"/>
<path d="M49.9491 118.067C53.1182 118.067 55.6873 115.505 55.6873 112.344C55.6873 109.183 53.1182 106.62 49.9491 106.62C46.78 106.62 44.2109 109.183 44.2109 112.344C44.2109 115.505 46.78 118.067 49.9491 118.067Z" fill="#161616"/>
<path d="M57.5769 109.967C55.1429 112.395 51.197 112.395 48.763 109.967C46.329 107.54 46.329 103.604 48.763 101.174C51.197 98.7466 55.1429 98.7466 57.5769 101.174C60.0109 103.602 60.0109 107.538 57.5769 109.967Z" fill="#161616"/>
<path d="M49.9367 122.143C51.9038 122.143 53.4984 120.552 53.4984 118.59C53.4984 116.627 51.9038 115.036 49.9367 115.036C47.9696 115.036 46.375 116.627 46.375 118.59C46.375 120.552 47.9696 122.143 49.9367 122.143Z" fill="#161616"/>
<path d="M98.4457 116.252C101.112 116.252 103.274 114.096 103.274 111.436C103.274 108.776 101.112 106.62 98.4457 106.62C95.779 106.62 93.6172 108.776 93.6172 111.436C93.6172 114.096 95.779 116.252 98.4457 116.252Z" fill="#161616"/>
<path d="M98.7303 110.346C101.554 110.346 103.843 108.062 103.843 105.245C103.843 102.428 101.554 100.145 98.7303 100.145C95.9064 100.145 93.6172 102.428 93.6172 105.245C93.6172 108.062 95.9064 110.346 98.7303 110.346Z" fill="#161616"/>
<path d="M95.1522 104.551C98.1401 104.551 100.562 102.134 100.562 99.1534C100.562 96.1724 98.1401 93.7559 95.1522 93.7559C92.1643 93.7559 89.7422 96.1724 89.7422 99.1534C89.7422 102.134 92.1643 104.551 95.1522 104.551Z" fill="#161616"/>
<path d="M91.3116 97.6084C94.1114 97.6084 96.3811 95.3434 96.3811 92.5493C96.3811 89.7553 94.1114 87.4902 91.3116 87.4902C88.5119 87.4902 86.2422 89.7553 86.2422 92.5493C86.2422 95.3434 88.5119 97.6084 91.3116 97.6084Z" fill="#161616"/>
<path d="M84.8807 92.5505C86.7996 92.5505 88.3552 90.9986 88.3552 89.0843C88.3552 87.17 86.7996 85.6182 84.8807 85.6182C82.9618 85.6182 81.4062 87.17 81.4062 89.0843C81.4062 90.9986 82.9618 92.5505 84.8807 92.5505Z" fill="#161616"/>
<path d="M78.6909 92.318C81.1133 92.318 83.0771 90.3589 83.0771 87.9422C83.0771 85.5255 81.1133 83.5664 78.6909 83.5664C76.2685 83.5664 74.3047 85.5255 74.3047 87.9422C74.3047 90.3589 76.2685 92.318 78.6909 92.318Z" fill="#161616"/>
<path d="M71.6699 96.5128C74.9479 96.5128 77.6053 93.8619 77.6053 90.5918C77.6053 87.3218 74.9479 84.6709 71.6699 84.6709C68.3918 84.6709 65.7344 87.3218 65.7344 90.5918C65.7344 93.8619 68.3918 96.5128 71.6699 96.5128Z" fill="#161616"/>
<path d="M64.7083 96.1974C67.6365 96.1974 70.0104 93.8291 70.0104 90.9078C70.0104 87.9864 67.6365 85.6182 64.7083 85.6182C61.7801 85.6182 59.4062 87.9864 59.4062 90.9078C59.4062 93.8291 61.7801 96.1974 64.7083 96.1974Z" fill="#161616"/>
<path d="M59.4079 99.5064C62.5931 99.5064 65.1751 96.9308 65.1751 93.7537C65.1751 90.5766 62.5931 88.001 59.4079 88.001C56.2227 88.001 53.6406 90.5766 53.6406 93.7537C53.6406 96.9308 56.2227 99.5064 59.4079 99.5064Z" fill="#161616"/>
<path d="M51.7684 102.277C53.9316 102.277 55.6852 100.527 55.6852 98.3685C55.6852 96.2099 53.9316 94.46 51.7684 94.46C49.6052 94.46 47.8516 96.2099 47.8516 98.3685C47.8516 100.527 49.6052 102.277 51.7684 102.277Z" fill="#161616"/>
<path d="M93.341 111.042C94.4791 111.665 95.0918 111.788 96.0367 112.406C97.9598 113.665 100.259 118.026 103.173 118.464C103.752 119.922 102.574 120.327 102.275 121.258C102.757 121.937 103.978 125.295 104.977 127.303C105.326 128.005 105.098 128.867 104.437 129.291C103.324 130.007 102.026 130.583 100.527 130.983C100.527 130.983 94.5497 143.743 103.636 148.323L84.3672 146.667L89.5467 129.785C89.2975 129.744 86.0349 129.158 85.2353 126.709C84.9404 125.81 84.8635 124.304 85.6361 123.835C86.39 123.376 87.906 123.933 89.0961 125.505C89.2061 125.056 89.2684 124.495 89.3203 123.852C89.391 122.971 89.3806 121.98 89.0483 121.544C96.2423 118.053 88.0224 111.995 93.341 111.042Z" fill="white"/>
<path d="M103.649 148.779C103.637 148.779 103.622 148.779 103.61 148.779L84.3411 147.124C84.204 147.112 84.0773 147.039 84.0005 146.925C83.9236 146.81 83.9008 146.665 83.9423 146.534L88.9744 130.13C87.8945 129.858 85.5228 129.027 84.8125 126.852C84.4781 125.831 84.3639 124.082 85.4106 123.444C86.2933 122.906 87.6556 123.351 88.8145 124.479C88.8394 124.254 88.8602 124.03 88.8768 123.816C88.9952 122.344 88.7688 121.918 88.6961 121.822C88.613 121.712 88.584 121.571 88.6151 121.438C88.6463 121.305 88.7377 121.193 88.8602 121.133C92.4572 119.388 91.8819 117.098 91.3253 114.886C91.0221 113.679 90.7355 112.539 91.2963 111.671C91.6535 111.119 92.2994 110.766 93.2734 110.591C93.3751 110.572 93.4831 110.591 93.5745 110.641C94.0522 110.903 94.4301 111.071 94.7977 111.235C95.2816 111.451 95.7365 111.654 96.3034 112.024C97.0594 112.518 97.8402 113.426 98.6668 114.385C100.029 115.968 101.574 117.76 103.257 118.011C103.419 118.036 103.554 118.144 103.614 118.296C104.098 119.513 103.547 120.215 103.144 120.726C103.014 120.892 102.889 121.052 102.802 121.218C103.063 121.685 103.425 122.541 103.944 123.787C104.407 124.9 104.933 126.159 105.4 127.097C105.857 128.015 105.553 129.124 104.698 129.675C103.57 130.4 102.283 130.969 100.87 131.365C100.193 132.946 95.8611 143.882 103.855 147.911C104.05 148.009 104.15 148.233 104.089 148.445C104.033 148.644 103.853 148.779 103.649 148.779ZM84.9849 146.258L101.792 147.701C94.8247 142.347 100.064 130.91 100.123 130.788C100.181 130.665 100.289 130.574 100.42 130.539C101.826 130.165 103.097 129.615 104.201 128.904C104.665 128.605 104.827 128.005 104.579 127.507C104.1 126.541 103.568 125.266 103.099 124.14C102.627 123.008 102.139 121.839 101.915 121.523C101.832 121.405 101.807 121.255 101.853 121.118C101.977 120.73 102.214 120.427 102.424 120.161C102.758 119.733 102.993 119.434 102.839 118.865C100.945 118.435 99.3688 116.605 97.9711 114.981C97.1881 114.072 96.4467 113.214 95.8008 112.788C95.2983 112.458 94.8933 112.277 94.426 112.07C94.0958 111.922 93.7261 111.758 93.2817 111.521C92.6607 111.652 92.2641 111.864 92.0688 112.165C91.7241 112.697 91.9525 113.607 92.2184 114.657C92.7542 116.79 93.4811 119.685 89.6701 121.746C89.83 122.24 89.8695 122.946 89.7947 123.885C89.7491 124.443 89.6867 125.085 89.558 125.61C89.5164 125.783 89.3794 125.914 89.2049 125.951C89.0326 125.986 88.854 125.92 88.746 125.779C87.6494 124.327 86.3597 123.937 85.8904 124.223C85.4272 124.504 85.4002 125.691 85.6868 126.564C86.4096 128.771 89.5061 129.307 89.6369 129.33C89.7677 129.351 89.882 129.428 89.9526 129.542C90.0232 129.654 90.0398 129.791 90.0003 129.918L84.989 146.258H84.9849Z" fill="#161616"/>
<path d="M94.0859 131.249C94.0859 131.249 96.9872 132.36 100.271 131.058L94.0859 131.249Z" fill="white"/>
<path d="M96.9229 132.152C95.2075 132.152 94.0133 131.708 93.9344 131.677C93.6976 131.585 93.5814 131.321 93.6707 131.087C93.76 130.85 94.0237 130.732 94.2625 130.821C94.2895 130.831 97.0475 131.849 100.115 130.632C100.348 130.538 100.618 130.655 100.709 130.889C100.802 131.124 100.686 131.39 100.451 131.483C99.1721 131.99 97.953 132.152 96.9208 132.152H96.9229Z" fill="#161616"/>
<path d="M101.442 245.836C101.349 245.836 101.253 245.807 101.172 245.749C100.969 245.6 100.923 245.313 101.072 245.109L106.736 237.34C106.885 237.137 107.17 237.091 107.376 237.24C107.579 237.39 107.625 237.677 107.475 237.88L101.812 245.649C101.723 245.772 101.583 245.838 101.442 245.838V245.836Z" fill="white"/>
<path d="M349.352 342.483C349.162 342.546 348.951 342.459 348.863 342.275C348.768 342.075 348.852 341.834 349.052 341.739C380.938 326.514 407.556 287.33 407.821 286.936C407.945 286.751 408.195 286.703 408.38 286.827C408.565 286.951 408.613 287.2 408.489 287.383C408.223 287.78 381.479 327.143 349.398 342.462C349.383 342.469 349.366 342.476 349.351 342.481L349.352 342.483Z" fill="#161616"/>
<path d="M348.437 349.385C348.234 349.452 348.012 349.348 347.936 349.148C347.856 348.941 347.96 348.708 348.167 348.629C373.767 338.78 400.513 306.507 400.78 306.183C400.922 306.012 401.174 305.987 401.346 306.129C401.517 306.269 401.542 306.523 401.4 306.695C401.132 307.021 374.25 339.455 348.453 349.381C348.448 349.383 348.441 349.385 348.436 349.387L348.437 349.385Z" fill="#161616"/>
<path d="M344.764 348.112C344.076 348.341 343.303 348.311 342.603 347.97C341.181 347.278 340.589 345.558 341.281 344.136C341.974 342.716 343.693 342.123 345.115 342.815C346.537 343.506 347.129 345.226 346.437 346.649C346.085 347.37 345.47 347.877 344.764 348.112ZM342.955 347.248C343.98 347.747 345.217 347.318 345.715 346.296C346.212 345.273 345.787 344.035 344.764 343.536C343.739 343.037 342.502 343.466 342.005 344.488C341.507 345.511 341.932 346.749 342.955 347.248Z" fill="#161616"/>
<path d="M414.565 283.6C414.565 283.6 414.55 283.605 414.543 283.607C414.404 283.644 414.255 283.604 414.154 283.501L408.605 277.883C408.513 277.789 408.472 277.654 408.496 277.525C408.521 277.394 408.609 277.285 408.73 277.233L416.647 273.788C416.786 273.726 416.953 273.751 417.068 273.85C417.186 273.951 417.234 274.109 417.196 274.258L414.827 283.322C414.792 283.454 414.693 283.559 414.566 283.602L414.565 283.6ZM409.587 277.734L414.229 282.434L416.21 274.853L409.587 277.734Z" fill="#161616"/>
</svg>
