<svg width="488" height="412" viewBox="0 0 488 412" fill="none" xmlns="http://www.w3.org/2000/svg">
<path d="M230.27 221.081C249.923 164.914 244.802 141.471 235.149 130.694C232.269 127.476 225.629 121.596 221.005 110.855C215.009 96.9231 218.234 88.3588 216.769 76.5144C213.905 53.3479 194.935 32.4844 175.041 23.2966C161.145 16.878 134.911 10.6687 120.222 24.1814C114.011 29.8954 108.191 40.6727 111.732 47.8253C116.796 58.06 137.238 50.5764 148.403 63.9901C153.132 69.6725 151.593 73.5381 153.728 78.5947C154.519 80.4678 155.398 81.58 156.723 83.3293C160.25 87.9851 163.397 92.9179 166.978 97.5332C177.345 110.891 168.283 131.423 180.244 141.847C189.093 149.558 201.35 144.681 204.143 151.643C206.348 157.138 198.565 160.49 198.902 169.19C199.312 179.755 209.431 183.373 219.764 198.298C225.559 206.666 228.357 214.807 230.27 221.079V221.081Z" fill="white"/>
<path d="M230.273 221.584H230.263C230.045 221.579 229.851 221.435 229.788 221.228C227.747 214.539 224.91 206.617 219.35 198.584C215.272 192.694 211.296 188.646 207.79 185.078C202.484 179.677 198.652 175.775 198.397 169.212C198.222 164.685 200.134 161.616 201.822 158.91C203.418 156.35 204.677 154.329 203.675 151.83C202.384 148.61 198.843 148.128 194.36 147.518C189.71 146.886 184.439 146.168 179.912 142.223C173.518 136.651 172.997 128.456 172.444 119.779C171.954 112.075 171.446 104.11 166.578 97.8397C164.656 95.3632 162.832 92.7584 161.068 90.2391C159.538 88.053 157.955 85.7926 156.318 83.6313L156.115 83.3634C154.909 81.7717 154.036 80.6235 153.262 78.7909C152.454 76.8772 152.158 75.1257 151.871 73.4304C151.379 70.5351 150.917 67.7997 148.014 64.3101C142.258 57.3916 133.921 56.1444 126.569 55.0412C119.713 54.0146 113.795 53.1253 111.281 48.0462C107.454 40.3105 114.007 29.2203 119.881 23.8148C135.046 9.86305 161.826 16.6397 175.26 22.8422C193.337 31.1902 214.195 51.5291 217.278 76.454C217.776 80.4839 217.735 84.1626 217.697 87.7198C217.619 94.8184 217.546 101.523 221.477 110.659C225.35 119.655 230.726 125.291 233.939 128.659C234.553 129.303 235.084 129.859 235.535 130.363C241.264 136.761 244.183 146.352 244.21 158.867C244.244 174.645 239.715 195.632 230.753 221.246C230.682 221.449 230.489 221.584 230.275 221.584H230.273ZM144.075 16.6104C135.415 16.6104 126.927 18.7019 120.571 24.5487C114.032 30.5666 108.966 41.0918 112.19 47.6072C114.471 52.2158 120.148 53.0668 126.719 54.0506C134.254 55.1808 142.793 56.4596 148.795 63.673C151.869 67.3674 152.379 70.3663 152.868 73.2638C153.146 74.9005 153.433 76.5958 154.196 78.4036C154.922 80.1214 155.719 81.1728 156.924 82.7623L157.126 83.0302C158.775 85.2073 160.362 87.4744 161.899 89.6695C163.657 92.1798 165.472 94.7733 167.38 97.2318C172.435 103.745 172.951 111.866 173.452 119.718C173.992 128.181 174.5 136.176 180.579 141.473C184.876 145.217 189.986 145.913 194.494 146.528C199.114 147.156 203.103 147.698 204.613 151.46C205.802 154.426 204.356 156.747 202.68 159.435C201.068 162.019 199.242 164.951 199.406 169.174C199.645 175.352 203.363 179.139 208.511 184.38C212.045 187.98 216.053 192.057 220.181 198.019C225.416 205.579 228.264 213.024 230.295 219.463C238.884 194.615 243.222 174.233 243.19 158.867C243.165 146.604 240.33 137.236 234.77 131.025C234.33 130.532 233.804 129.982 233.194 129.343C229.936 125.928 224.482 120.209 220.538 111.048C216.524 101.721 216.599 94.9129 216.677 87.7063C216.715 84.1807 216.756 80.5357 216.264 76.5733C213.229 52.0266 192.657 31.9827 174.825 23.7472C167.305 20.2734 155.535 16.6059 144.07 16.6059L144.075 16.6104Z" fill="#161616"/>
<path d="M230.439 215.983C230.161 215.983 229.936 215.762 229.933 215.487C229.505 168.961 217.915 120.462 198.93 85.7547C173.853 39.9147 141.468 28.6781 141.142 28.5701C140.878 28.4823 140.734 28.1986 140.823 27.9352C140.912 27.6718 141.199 27.5322 141.465 27.62C141.547 27.647 149.826 30.4635 161.098 38.9534C171.478 46.7724 186.625 61.1563 199.82 85.2775C208.409 100.981 215.809 120.401 221.215 141.442C227.442 165.678 230.717 190.59 230.944 215.478C230.947 215.755 230.721 215.981 230.444 215.983H230.439Z" fill="#161616"/>
<path d="M193.196 261.516C223.562 207.026 222.07 185.6 213.812 176.529C204.836 166.668 190.484 174.291 176.353 161.501C157.524 144.461 166.389 115.889 151.185 110.06C141.599 106.384 135.337 116.695 123.736 112.498C112.786 108.538 113.824 97.8981 102.685 86.9587C91.3048 75.783 69.0859 67.0927 52.6778 75.909C38.3737 83.5952 33.9085 101.678 34.5802 114.052C35.5753 132.337 48.2832 147.286 61.59 154.189C80.719 164.111 100.087 156.888 102.647 164.073C105.028 170.764 88.3356 177.311 89.1986 189.837C89.802 198.584 98.7506 207.134 107.895 209.348C120.569 212.412 127.93 201.925 135.492 205.923C143.423 210.115 139.003 223.59 144.673 235.81C149.348 245.889 161.557 256.565 193.198 261.516H193.196Z" fill="white"/>
<path d="M193.193 262.019C193.165 262.019 193.14 262.019 193.113 262.012C166.748 257.886 150.294 249.141 144.208 236.02C141.71 230.633 141.145 225.027 140.646 220.081C140.002 213.673 139.492 208.612 135.248 206.368C131.814 204.553 128.319 205.947 124.273 207.563C119.691 209.391 114.497 211.465 107.769 209.837C97.8412 207.435 89.2819 198.481 88.6876 189.874C88.2003 182.803 93.1733 177.537 97.1717 173.304C100.373 169.913 103.14 166.984 102.163 164.24C101.079 161.194 96.311 160.994 89.7146 160.719C82.0775 160.399 71.6193 159.96 61.35 154.633C54.3482 151.002 47.8497 145.335 43.0498 138.68C37.6442 131.181 34.5383 122.673 34.0693 114.08C33.3133 100.177 38.6984 82.8464 52.4333 75.4687C68.3199 66.9337 90.639 74.4285 103.04 86.6039C107.942 91.4173 110.492 96.1407 112.744 100.308C115.627 105.644 117.904 109.858 123.906 112.029C129.765 114.147 134.225 112.452 138.542 110.813C142.678 109.241 146.585 107.76 151.367 109.593C159.054 112.54 160.773 120.998 162.765 130.794C164.837 140.981 167.185 152.528 176.694 161.133C184.046 167.788 191.558 168.844 198.186 169.774C204.175 170.616 209.831 171.411 214.187 176.195C219.146 181.643 220.592 190.351 218.483 202.079C215.826 216.861 207.467 236.941 193.637 261.758C193.546 261.92 193.375 262.017 193.193 262.017V262.019ZM131.757 204.497C133.082 204.497 134.396 204.78 135.726 205.485C140.448 207.982 141.006 213.543 141.655 219.982C142.145 224.849 142.7 230.367 145.128 235.604C151.036 248.344 167.114 256.877 192.919 260.968C217.354 217.048 224.256 188.753 213.433 176.866C209.323 172.352 204.095 171.618 198.043 170.767C191.269 169.814 183.593 168.736 176.008 161.872C166.258 153.046 163.874 141.328 161.772 130.992C159.839 121.487 158.17 113.276 151 110.527C146.583 108.832 142.855 110.25 138.907 111.747C134.417 113.451 129.774 115.217 123.56 112.97C117.193 110.667 114.718 106.085 111.852 100.781C109.634 96.6743 107.12 92.0229 102.327 87.3153C90.1904 75.3966 68.3905 68.0369 52.9183 76.3489C39.5705 83.5173 34.3425 100.439 35.0826 114.026C36.1505 133.66 50.154 147.695 61.8213 153.746C71.8902 158.97 82.2187 159.402 89.7578 159.717C96.7528 160.01 101.808 160.221 103.119 163.907C104.299 167.223 101.341 170.357 97.914 173.986C93.8496 178.291 89.2432 183.167 89.7009 189.804C90.2565 197.869 98.6427 206.595 108.013 208.862C114.422 210.413 119.454 208.403 123.895 206.633C126.698 205.514 129.25 204.497 131.757 204.497Z" fill="#161616"/>
<path d="M389.769 398.721H198.431C190.186 398.721 184.345 392.154 185.386 384.051L232.499 17.1911C233.54 9.09069 241.067 2.52121 249.312 2.52121L431.044 0.429688C451.904 0.429688 454.734 9.09069 453.693 17.1911L406.58 384.053C405.539 392.154 398.012 398.723 389.767 398.723L389.769 398.721Z" fill="#161616"/>
<path d="M378.259 398.722H186.923C178.678 398.722 172.837 392.121 173.878 383.978L220.989 15.2442C222.03 7.10101 229.557 0.5 237.802 0.5H429.141C437.386 0.5 443.226 7.10101 442.186 15.2442L395.072 383.98C394.032 392.123 386.504 398.724 378.259 398.724V398.722Z" fill="white"/>
<path d="M378.259 399.224H186.923C182.806 399.224 179.129 397.643 176.57 394.77C173.985 391.873 172.851 388.016 173.375 383.917L220.488 15.181C221.556 6.81038 229.325 0 237.803 0H429.141C433.258 0 436.935 1.58046 439.494 4.4532C442.079 7.35071 443.213 11.2051 442.689 15.307L395.576 384.043C394.506 392.413 386.739 399.224 378.259 399.224ZM237.803 1.00186C229.817 1.00186 222.499 7.41825 221.492 15.307L174.379 384.043C173.892 387.854 174.939 391.429 177.328 394.111C179.694 396.763 183.1 398.224 186.921 398.224H378.259C386.245 398.224 393.563 391.805 394.569 383.919L441.685 15.181C442.172 11.3694 441.125 7.79423 438.736 5.1151C436.37 2.46299 432.964 1.00186 429.143 1.00186H237.803Z" fill="#161616"/>
<path d="M184.777 384.513L229.762 35.2583C230.001 33.3942 231.741 31.8813 233.644 31.8813H426.012C426.963 31.8813 429.525 31.5391 429.525 31.5391C429.525 31.5391 429.143 34.3263 429.022 35.2583L384.038 384.515C383.798 386.379 382.059 387.892 380.155 387.892H187.79C185.886 387.892 184.538 386.381 184.777 384.515V384.513Z" fill="white"/>
<path d="M194.112 382.855L236.635 33.0809C236.863 31.2145 238.505 29.6993 240.303 29.6993H422.142C422.142 29.6993 422.16 29.6993 422.169 29.6993C423.882 29.6858 425.23 31.1402 425.02 32.8197C425.009 32.9165 424.998 33.0043 424.988 33.0809L382.465 382.855C382.238 384.722 380.596 386.237 378.797 386.237H196.959C195.16 386.237 193.885 384.724 194.112 382.855Z" fill="white"/>
<path d="M378.795 386.737H196.957C195.973 386.737 195.085 386.35 194.452 385.645C193.785 384.902 193.477 383.864 193.607 382.797L236.13 33.0225C236.388 30.9152 238.257 29.1997 240.302 29.1997H422.14C423.135 29.1839 424.067 29.5981 424.709 30.3118C425.342 31.0143 425.638 31.9508 425.522 32.8829L425.49 33.1395L382.967 382.914C382.71 385.021 380.84 386.737 378.795 386.737ZM240.302 30.2015C238.753 30.2015 237.332 31.5208 237.134 33.1418L194.611 382.916C194.516 383.711 194.728 384.445 195.208 384.981C195.645 385.469 196.265 385.737 196.954 385.737H378.793C380.342 385.737 381.762 384.418 381.961 382.797L424.518 32.7613C424.6 32.1062 424.399 31.4735 423.955 30.9805C423.507 30.4807 422.844 30.2038 422.172 30.2038H240.302V30.2015Z" fill="#161616"/>
<path d="M362.1 175.479H264.867L274.579 217.942C275.282 221.015 278.265 223.192 281.772 223.192H342.581C346.088 223.192 349.191 221.015 350.063 217.942L362.1 175.479Z" fill="white"/>
<path d="M342.58 223.692H281.771C278.005 223.692 274.842 221.373 274.084 218.05L264.372 175.587C264.338 175.438 264.372 175.283 264.47 175.164C264.566 175.044 264.712 174.975 264.866 174.975H362.099C362.258 174.975 362.406 175.049 362.502 175.173C362.597 175.299 362.629 175.459 362.586 175.609L350.55 218.073C349.612 221.38 346.335 223.69 342.58 223.69V223.692ZM265.499 175.979L275.072 217.829C275.725 220.691 278.481 222.69 281.771 222.69H342.58C345.882 222.69 348.758 220.682 349.573 217.805L361.429 175.979H265.499Z" fill="#161616"/>
<path d="M362.52 172.564H264.604C262.573 172.564 260.97 170.936 261.025 168.925C261.079 166.917 262.771 165.287 264.802 165.287H362.718C364.749 165.287 366.352 166.915 366.297 168.925C366.243 170.934 364.551 172.564 362.52 172.564Z" fill="white"/>
<path d="M362.518 173.063H264.602C263.482 173.063 262.439 172.631 261.667 171.847C260.895 171.062 260.485 170.019 260.517 168.912C260.579 166.638 262.501 164.787 264.803 164.787H362.718C363.838 164.787 364.881 165.219 365.653 166.003C366.425 166.789 366.835 167.831 366.803 168.939C366.742 171.213 364.82 173.063 362.518 173.063ZM264.803 165.787C263.045 165.787 261.578 167.201 261.531 168.936C261.508 169.772 261.815 170.557 262.396 171.147C262.977 171.737 263.76 172.061 264.605 172.061H362.52C364.278 172.061 365.744 170.647 365.792 168.912C365.815 168.076 365.507 167.291 364.927 166.701C364.346 166.111 363.563 165.787 362.718 165.787H264.803Z" fill="#161616"/>
<path d="M294.704 216.434H291.869C290.259 216.434 288.913 215.455 288.597 214.05L282.317 186.23C282.128 185.392 282.344 184.51 282.913 183.807C283.574 182.992 284.632 182.506 285.748 182.506H295.721C296.689 182.506 297.607 182.875 298.238 183.517C298.791 184.082 299.085 184.814 299.062 185.574L298.203 213.395C298.151 215.07 296.584 216.432 294.708 216.432L294.704 216.434ZM285.746 183.508C284.935 183.508 284.173 183.854 283.703 184.433C283.323 184.904 283.182 185.462 283.305 186.009L289.585 213.829C289.794 214.757 290.755 215.43 291.869 215.43H294.704C296.038 215.43 297.151 214.502 297.188 213.363L298.046 185.543C298.062 185.054 297.871 184.582 297.509 184.212C297.067 183.762 296.416 183.505 295.721 183.505H285.748L285.746 183.508Z" fill="#161616"/>
<path d="M333.849 216.434H331.005C330.032 216.434 329.112 216.064 328.479 215.418C327.926 214.853 327.635 214.124 327.657 213.365L328.518 185.545C328.571 183.87 330.142 182.508 332.025 182.508H342.03C343.146 182.508 344.179 182.992 344.801 183.805C345.343 184.516 345.516 185.41 345.27 186.259L337.246 214.079C336.845 215.466 335.449 216.434 333.849 216.434ZM332.025 183.507C330.686 183.507 329.566 184.435 329.531 185.574L328.671 213.394C328.655 213.881 328.846 214.351 329.208 214.72C329.652 215.171 330.306 215.43 331.007 215.43H333.851C334.983 215.43 336.003 214.745 336.276 213.8L344.3 185.979C344.459 185.428 344.35 184.87 343.997 184.403C343.567 183.841 342.834 183.503 342.034 183.503H332.029L332.025 183.507Z" fill="#161616"/>
<path d="M317.067 216.434H309.421C308.811 216.434 308.224 216.179 307.768 215.72C307.192 215.137 306.871 214.281 306.892 213.37L307.506 185.549C307.543 183.872 308.729 182.508 310.15 182.508H317.796C318.406 182.508 318.994 182.762 319.449 183.222C320.025 183.805 320.346 184.662 320.326 185.572L319.711 213.392C319.675 215.069 318.488 216.434 317.067 216.434ZM310.148 183.507C309.273 183.507 308.542 184.433 308.517 185.57L307.903 213.39C307.889 214.031 308.103 214.626 308.49 215.018C308.677 215.207 308.989 215.432 309.419 215.432H317.065C317.94 215.432 318.67 214.506 318.695 213.37L319.31 185.549C319.324 184.908 319.11 184.313 318.723 183.922C318.536 183.733 318.224 183.507 317.794 183.507H310.148Z" fill="#161616"/>
<path d="M277.359 171.959C279.491 169.88 279.559 166.531 277.512 164.479C275.465 162.427 272.077 162.449 269.946 164.528C267.814 166.608 267.745 169.956 269.793 172.008C271.84 174.06 275.227 174.038 277.359 171.959Z" fill="#161616"/>
<path d="M273.59 170.367C273.064 170.367 272.542 170.175 272.139 169.793C271.301 168.991 271.297 167.652 272.13 166.803L309.532 128.613C310.365 127.762 311.72 127.721 312.558 128.523C313.396 129.324 313.401 130.664 312.567 131.513L275.165 169.703C274.733 170.144 274.159 170.369 273.587 170.369L273.59 170.367Z" fill="white"/>
<path d="M273.589 170.866C272.911 170.866 272.271 170.612 271.786 170.15C271.292 169.677 271.012 169.038 271 168.351C270.989 167.642 271.26 166.967 271.765 166.451L309.167 128.261C310.192 127.214 311.872 127.169 312.911 128.158C313.405 128.631 313.685 129.27 313.696 129.959C313.708 130.668 313.437 131.343 312.931 131.859L275.529 170.049C275.019 170.569 274.313 170.866 273.589 170.866ZM311.11 128.446C310.672 128.446 310.231 128.617 309.896 128.959L272.494 167.149C272.178 167.473 272.007 167.894 272.016 168.336C272.023 168.757 272.191 169.144 272.492 169.432C273.109 170.02 274.186 169.984 274.803 169.353L312.205 131.163C312.521 130.839 312.692 130.418 312.683 129.977C312.676 129.556 312.508 129.169 312.207 128.88C311.904 128.59 311.508 128.446 311.107 128.446H311.11Z" fill="#161616"/>
<path d="M357.406 171.959C359.537 169.88 359.606 166.531 357.559 164.479C355.512 162.427 352.124 162.449 349.992 164.528C347.861 166.608 347.792 169.956 349.839 172.008C351.887 174.06 355.274 174.038 357.406 171.959Z" fill="#161616"/>
<path d="M353.645 170.367C354.171 170.367 354.703 170.175 355.127 169.793C356.01 168.991 356.088 167.652 355.3 166.803L319.988 128.613C319.203 127.762 317.848 127.721 316.967 128.523C316.083 129.324 316.006 130.664 316.794 131.513L352.105 169.703C352.515 170.144 353.075 170.369 353.645 170.369V170.367Z" fill="white"/>
<path d="M353.643 170.866C352.915 170.866 352.215 170.565 351.728 170.038L316.417 131.848C315.442 130.794 315.535 129.137 316.621 128.151C317.157 127.665 317.844 127.413 318.564 127.446C319.258 127.476 319.896 127.771 320.36 128.273L355.672 166.463C356.647 167.516 356.553 169.173 355.467 170.159C354.966 170.616 354.317 170.866 353.643 170.866ZM318.445 128.446C318.026 128.446 317.623 128.601 317.307 128.889C316.631 129.504 316.567 130.528 317.166 131.175L352.477 169.365C353.056 169.99 354.13 170.017 354.784 169.423C355.46 168.808 355.524 167.784 354.925 167.138L319.613 128.948C319.331 128.644 318.944 128.466 318.518 128.446C318.493 128.446 318.468 128.446 318.445 128.446Z" fill="#161616"/>
<path d="M310.932 251.114C292.063 251.114 274.521 243.849 261.537 230.659C248.547 217.461 241.673 199.914 242.183 181.248C243.237 142.738 275.782 111.408 314.73 111.408C333.6 111.408 351.142 118.673 364.125 131.864C377.115 145.062 383.99 162.609 383.48 181.275C382.425 219.784 349.88 251.114 310.932 251.114ZM314.73 112.41C276.326 112.41 244.237 143.303 243.196 181.275C242.693 199.668 249.465 216.959 262.264 229.961C275.056 242.956 292.34 250.113 310.932 250.113C349.336 250.113 381.426 219.219 382.466 181.248C382.969 162.854 376.198 145.566 363.399 132.562C350.607 119.567 333.322 112.41 314.728 112.41H314.73Z" fill="#161616"/>
<path d="M331.072 19.2542C327.982 19.2542 325.796 16.7822 326.186 13.7316C326.575 10.681 329.396 8.20898 332.484 8.20898C335.571 8.20898 337.76 10.681 337.37 13.7316C336.981 16.7822 334.16 19.2542 331.072 19.2542Z" fill="white"/>
<path d="M361.867 74.0871L364.638 74.3888C373.006 75.3006 379.874 70.0819 379.979 62.7334L380.174 49.0316L347.055 48.793L346.907 59.1357C346.803 66.4842 353.499 73.1798 361.867 74.0893V74.0871Z" fill="white"/>
<path d="M366.499 74.9919C365.866 74.9919 365.226 74.9581 364.582 74.8884L361.81 74.5867C353.203 73.6501 346.29 66.7159 346.4 59.1265L346.548 48.786C346.552 48.5114 346.778 48.293 347.053 48.293H347.058L380.177 48.5316C380.311 48.5316 380.441 48.5879 380.534 48.6825C380.628 48.777 380.68 48.9053 380.678 49.0404L380.482 62.7422C380.434 66.1305 378.981 69.2419 376.395 71.5023C373.806 73.7649 370.274 74.9942 366.496 74.9942L366.499 74.9919ZM347.552 49.2971L347.411 59.14C347.308 66.2251 353.818 72.709 361.92 73.5893L364.691 73.891C368.894 74.348 372.913 73.2021 375.725 70.7481C378.096 68.6768 379.425 65.8289 379.469 62.7265L379.658 49.529L347.552 49.2971Z" fill="#161616"/>
<path d="M328.969 74.3027L331.74 74.6044C340.108 75.5162 346.975 70.2976 347.08 62.9491L347.276 49.2473L314.098 48.4863L314.009 59.3492C313.904 66.6976 320.601 73.3932 328.969 74.3027Z" fill="#161616"/>
<path d="M333.6 75.2082C332.967 75.2082 332.327 75.1744 331.683 75.1046L328.912 74.8029C320.305 73.8664 313.392 66.9299 313.501 59.3428L313.59 48.4822C313.59 48.3471 313.647 48.221 313.745 48.1265C313.843 48.0319 313.97 47.9801 314.109 47.9846L347.287 48.7456C347.565 48.7524 347.786 48.9797 347.781 49.2522L347.586 62.954C347.538 66.3423 346.085 69.4537 343.498 71.7118C340.907 73.9744 337.376 75.2059 333.6 75.2059V75.2082ZM329.024 73.8056L331.795 74.1073C335.996 74.562 340.017 73.4183 342.829 70.9643C345.199 68.8953 346.529 66.0451 346.572 62.9427L346.761 49.7362L314.599 48.9978L314.515 59.3518C314.412 66.4413 320.922 72.923 329.024 73.8056Z" fill="#161616"/>
<path d="M296.073 74.5198L298.844 74.8215C307.212 75.7333 314.079 70.5147 314.184 63.1662L314.414 48.9961L281.259 49.2235L281.111 59.5663C281.006 66.9147 287.702 73.6103 296.07 74.5198H296.073Z" fill="white"/>
<path d="M300.71 75.4224C300.077 75.4224 299.437 75.3887 298.792 75.3189L296.021 75.0172C287.414 74.0806 280.501 67.1464 280.611 59.5593L280.759 49.2165C280.763 48.9441 280.986 48.7257 281.262 48.7235L314.417 48.4961H314.422C314.556 48.4961 314.686 48.5501 314.782 48.6447C314.877 48.7415 314.93 48.8698 314.927 49.0049L314.697 63.175C314.649 66.5633 313.197 69.6724 310.61 71.9328C308.021 74.1954 304.49 75.4247 300.712 75.4247L300.71 75.4224ZM281.763 49.7186L281.622 59.5706C281.521 66.6556 288.029 73.1373 296.131 74.0198L298.902 74.3215C303.103 74.7763 307.126 73.6326 309.936 71.1786C312.306 69.1096 313.636 66.2594 313.679 63.157L313.903 49.498L281.763 49.7186Z" fill="#161616"/>
<path d="M263.18 74.7362L265.951 75.0379C274.319 75.9497 281.186 70.731 281.291 63.3826L281.498 48.9355L248.368 49.4399L248.22 59.7826C248.115 67.1311 254.812 73.8267 263.18 74.7362Z" fill="#161616"/>
<path d="M267.811 75.6388C267.178 75.6388 266.538 75.605 265.894 75.5352L263.123 75.2336C254.516 74.297 247.603 67.3605 247.712 59.7734L247.86 49.4329C247.865 49.1627 248.086 48.9444 248.359 48.9399L281.489 48.4355C281.637 48.4468 281.758 48.4873 281.856 48.5819C281.954 48.6787 282.006 48.8093 282.004 48.9444L281.797 63.3914C281.749 66.7797 280.296 69.8911 277.709 72.1514C275.12 74.4141 271.589 75.6433 267.811 75.6433V75.6388ZM248.867 49.9327L248.725 59.7869C248.625 66.872 255.133 73.3537 263.235 74.2362L266.006 74.5379C270.207 74.9949 274.228 73.849 277.04 71.395C279.41 69.3237 280.74 66.4757 280.783 63.3734L280.981 49.4419L248.864 49.9305L248.867 49.9327Z" fill="#161616"/>
<path d="M230.281 74.9537L233.053 75.2554C241.42 76.1672 248.288 70.9485 248.393 63.6001L248.602 48.8806L215.485 48.5137L215.322 60.0001C215.217 67.3486 221.913 74.0442 230.281 74.9537Z" fill="white"/>
<path d="M234.913 75.8586C234.28 75.8586 233.64 75.8248 232.996 75.755L230.225 75.4533C221.617 74.5168 214.704 67.5803 214.814 59.9932L214.978 48.5067C214.982 48.2321 215.208 48.0137 215.483 48.0137H215.49L248.607 48.3806C248.741 48.3806 248.869 48.4369 248.964 48.5315C249.058 48.626 249.11 48.7544 249.108 48.8872L248.898 63.6066C248.85 66.9949 247.398 70.1063 244.811 72.3644C242.22 74.6271 238.688 75.8563 234.911 75.8586H234.913ZM215.984 49.02L215.827 60.0067C215.727 67.0917 222.235 73.5734 230.336 74.456L233.107 74.7576C237.308 75.2147 241.332 74.0687 244.142 71.6147C246.512 69.5457 247.842 66.6955 247.885 63.5931L248.088 49.3757L215.984 49.02Z" fill="#161616"/>
<path d="M197.391 75.1684L200.162 75.4701C208.53 76.3819 215.397 71.1632 215.502 63.8148L215.709 49.2777L182.59 49.0391L182.431 60.2148C182.326 67.5633 189.023 74.2589 197.391 75.1684Z" fill="#161616"/>
<path d="M202.022 76.0733C201.389 76.0733 200.749 76.0395 200.105 75.9697L197.334 75.668C188.727 74.7315 181.814 67.7972 181.923 60.2079L182.083 49.0321C182.087 48.7574 182.313 48.5391 182.588 48.5391H182.593L215.712 48.7777C215.846 48.7777 215.976 48.834 216.069 48.9285C216.162 49.0231 216.215 49.1514 216.212 49.2865L216.005 63.8236C215.957 67.2119 214.505 70.3233 211.918 72.5814C209.329 74.844 205.797 76.0733 202.02 76.0733H202.022ZM183.089 49.5432L182.936 60.2214C182.836 67.3064 189.344 73.7904 197.445 74.6707L200.217 74.9724C204.418 75.4271 208.441 74.2834 211.251 71.8294C213.621 69.7604 214.951 66.9102 214.994 63.8078L215.195 49.7751L183.089 49.5432Z" fill="#161616"/>
<path d="M427.948 2.45898L380.247 49.5215L346.984 49.481L394.644 2.45898H427.948Z" fill="white"/>
<path d="M380.251 50.0211L346.989 49.9806C346.784 49.9806 346.6 49.859 346.522 49.6722C346.445 49.4853 346.488 49.2692 346.632 49.1273L394.291 2.10532C394.387 2.01302 394.515 1.95898 394.649 1.95898H427.952C428.157 1.95898 428.342 2.08056 428.421 2.26742C428.499 2.45428 428.456 2.67042 428.312 2.81225L380.611 49.8748C380.516 49.9671 380.388 50.0211 380.254 50.0211H380.251ZM348.212 48.981L380.042 49.0193L426.727 2.96084H394.856L348.21 48.9833L348.212 48.981Z" fill="#161616"/>
<path d="M394.482 2.45898L347.091 49.2199L313.828 49.1793L361.183 2.45898H394.482Z" fill="#161616"/>
<path d="M347.095 49.7217L313.833 49.6812C313.628 49.6812 313.443 49.5596 313.366 49.3728C313.289 49.1859 313.332 48.9698 313.475 48.8279L360.83 2.10532C360.926 2.01302 361.053 1.95898 361.188 1.95898H394.486C394.691 1.95898 394.876 2.08056 394.955 2.26742C395.033 2.45428 394.99 2.67042 394.846 2.81225L347.455 49.5731C347.359 49.6654 347.232 49.7195 347.097 49.7195L347.095 49.7217ZM315.056 48.6816L346.886 48.7199L393.261 2.96084H361.397L315.056 48.6816Z" fill="#161616"/>
<path d="M314.345 48.9294L313.997 49.2739L280.734 49.2334L328.141 2.45898H361.447L314.345 48.9294Z" fill="white"/>
<path d="M314.001 49.7735L280.739 49.733C280.534 49.733 280.35 49.6114 280.272 49.4245C280.195 49.2377 280.238 49.0215 280.382 48.8797L327.789 2.10532C327.884 2.01302 328.012 1.95898 328.146 1.95898H361.45C361.654 1.95898 361.839 2.08056 361.919 2.26742C361.996 2.45428 361.953 2.67042 361.809 2.81225L314.359 49.6272C314.263 49.7195 314.136 49.7735 314.001 49.7735ZM281.962 48.7334L313.792 48.7716L313.992 48.5735L360.227 2.96084H328.358L281.962 48.7334Z" fill="#161616"/>
<path d="M328.426 2.45898L280.903 49.3257L247.641 49.2851L295.102 2.45898H328.426Z" fill="#161616"/>
<path d="M280.9 49.8253L247.638 49.7848C247.433 49.7848 247.248 49.6632 247.171 49.4763C247.093 49.2895 247.137 49.0733 247.28 48.9315L294.742 2.10532C294.837 2.01302 294.965 1.95898 295.099 1.95898H328.423C328.628 1.95898 328.813 2.08056 328.892 2.26742C328.97 2.45428 328.926 2.67042 328.781 2.81225L281.257 49.6789C281.162 49.7713 281.034 49.8253 280.9 49.8253ZM248.86 48.7852L280.69 48.8234L327.198 2.96084H295.309L248.86 48.7874V48.7852Z" fill="#161616"/>
<path d="M295.364 2.45898L247.809 49.3775L214.547 49.3369L262.061 2.45898H295.364Z" fill="white"/>
<path d="M247.806 49.8771L214.544 49.8365C214.339 49.8365 214.154 49.715 214.077 49.5281C214 49.3412 214.043 49.1251 214.186 48.9833L261.7 2.10532C261.796 2.01302 261.924 1.95898 262.058 1.95898H295.361C295.566 1.95898 295.751 2.08056 295.83 2.26742C295.908 2.45428 295.865 2.67042 295.721 2.81225L248.166 49.7307C248.07 49.823 247.943 49.8771 247.808 49.8771H247.806ZM215.767 48.8369L247.597 48.8752L294.136 2.96084H262.267L215.767 48.8392V48.8369Z" fill="#161616"/>
<path d="M262.735 2.45898L215.044 49.4653L181.781 49.427L229.386 2.45898H262.735Z" fill="#161616"/>
<path d="M215.048 49.9671L181.786 49.9266C181.581 49.9266 181.397 49.805 181.319 49.6181C181.242 49.4313 181.285 49.2152 181.428 49.0733L229.031 2.10532C229.127 2.01302 229.255 1.95898 229.389 1.95898H262.736C262.94 1.95898 263.125 2.08056 263.205 2.26742C263.282 2.45428 263.239 2.67042 263.093 2.81225L215.404 49.8185C215.308 49.9131 215.18 49.9649 215.046 49.9649L215.048 49.9671ZM183.009 48.927L214.839 48.9653L261.51 2.96084H229.598L183.006 48.927H183.009Z" fill="#161616"/>
<path d="M183.67 49.8297C183.389 49.8297 183.164 49.6068 183.164 49.3299C183.164 49.0529 183.389 48.8278 183.67 48.8278L216.224 48.8008C216.504 48.8008 216.729 49.0237 216.729 49.3006C216.729 49.5775 216.504 49.8026 216.224 49.8026L183.67 49.8297Z" fill="white"/>
<path d="M248.216 49.775C247.936 49.775 247.711 49.5521 247.711 49.2752C247.711 48.9982 247.936 48.7731 248.216 48.7731L281.263 48.7461C281.543 48.7461 281.768 48.969 281.768 49.2459C281.768 49.5228 281.543 49.748 281.263 49.748L248.216 49.775Z" fill="white"/>
<path d="M314.005 49.7242C313.725 49.7242 313.5 49.5013 313.5 49.2244C313.5 48.9475 313.725 48.7223 314.005 48.7223L347.282 48.6953C347.562 48.6953 347.787 48.9182 347.787 49.1951C347.787 49.472 347.562 49.6972 347.282 49.6972L314.005 49.7242Z" fill="white"/>
<path d="M373.999 330.339L372.173 323.744L364.624 324.084C363.925 322.632 363.115 321.254 362.199 319.969L366.196 313.642L361.277 308.834L354.911 312.859C353.585 311.961 352.185 311.173 350.728 310.502L350.987 303.036L344.295 301.303L340.823 307.924C339.236 307.8 337.624 307.814 336.003 307.958L332.453 301.366L325.779 303.171L326.123 310.632C324.654 311.324 323.26 312.125 321.958 313.03L315.555 309.081L310.689 313.942L314.76 320.234C313.852 321.545 313.053 322.927 312.376 324.368L304.824 324.111L303.07 330.726L309.772 334.159C309.646 335.728 309.66 337.32 309.806 338.923L303.136 342.431L304.963 349.025L312.511 348.685C313.21 350.137 314.02 351.515 314.936 352.8L310.94 359.127L315.858 363.936L322.224 359.91C323.55 360.809 324.95 361.597 326.407 362.267L326.148 369.733L332.84 371.467L336.312 364.845C337.899 364.969 339.511 364.956 341.133 364.812L344.682 371.404L351.356 369.598L351.012 362.137C352.481 361.446 353.875 360.644 355.177 359.739L361.58 363.688L366.446 358.827L362.375 352.535C363.283 351.225 364.082 349.842 364.759 348.401L372.312 348.658L374.065 342.043L367.364 338.61C367.489 337.041 367.475 335.449 367.329 333.846L373.999 330.339ZM343.268 353.359C333.782 355.925 323.985 350.407 321.386 341.03C318.788 331.656 324.374 321.973 333.86 319.406C343.346 316.839 353.144 322.357 355.742 331.734C358.34 341.109 352.754 350.792 343.268 353.359Z" fill="white"/>
<path d="M332.838 371.963C332.794 371.963 332.751 371.959 332.71 371.948L326.018 370.214C325.788 370.153 325.631 369.946 325.64 369.712L325.888 362.577C324.618 361.976 323.386 361.283 322.216 360.508L316.129 364.356C315.929 364.482 315.669 364.455 315.501 364.291L310.582 359.482C310.414 359.317 310.384 359.058 310.509 358.86L314.33 352.813C313.542 351.679 312.827 350.465 312.201 349.198L304.985 349.522C304.749 349.54 304.537 349.38 304.473 349.155L302.647 342.56C302.586 342.335 302.688 342.097 302.897 341.986L309.273 338.632C309.161 337.225 309.15 335.822 309.241 334.449L302.836 331.169C302.627 331.061 302.519 330.824 302.579 330.597L304.332 323.982C304.391 323.757 304.614 323.595 304.84 323.608L312.06 323.854C312.668 322.6 313.372 321.382 314.155 320.225L310.264 314.209C310.136 314.011 310.163 313.754 310.33 313.588L315.196 308.727C315.362 308.56 315.624 308.531 315.824 308.655L321.942 312.43C323.092 311.651 324.322 310.945 325.601 310.325L325.274 303.195C325.262 302.961 325.417 302.752 325.645 302.689L332.319 300.883C332.549 300.822 332.788 300.924 332.899 301.131L336.292 307.432C337.713 307.322 339.134 307.311 340.525 307.401L343.845 301.072C343.954 300.865 344.193 300.762 344.423 300.818L351.115 302.551C351.345 302.61 351.502 302.819 351.493 303.054L351.245 310.188C352.513 310.789 353.747 311.483 354.918 312.257L361.004 308.41C361.205 308.283 361.464 308.31 361.633 308.475L366.551 313.284C366.719 313.448 366.749 313.707 366.624 313.905L362.805 319.952C363.593 321.089 364.308 322.303 364.934 323.568L372.15 323.244C372.385 323.224 372.599 323.386 372.662 323.611L374.489 330.205C374.55 330.43 374.448 330.669 374.238 330.779L367.862 334.134C367.974 335.538 367.985 336.943 367.894 338.317L374.3 341.597C374.509 341.705 374.616 341.941 374.557 342.169L372.804 348.783C372.744 349.011 372.523 349.189 372.296 349.157L365.075 348.912C364.467 350.166 363.764 351.384 362.981 352.541L366.872 358.556C366.999 358.755 366.972 359.011 366.806 359.178L361.94 364.039C361.774 364.205 361.512 364.234 361.312 364.111L355.191 360.335C354.043 361.112 352.814 361.819 351.532 362.44L351.86 369.57C351.871 369.804 351.716 370.014 351.489 370.077L344.815 371.882C344.585 371.943 344.346 371.842 344.234 371.635L340.841 365.335C339.42 365.446 337.997 365.457 336.608 365.367L333.289 371.695C333.2 371.864 333.024 371.966 332.84 371.966L332.838 371.963ZM326.665 369.347L332.574 370.878L335.859 364.613C335.953 364.435 336.148 364.333 336.349 364.345C337.899 364.464 339.491 364.453 341.083 364.311C341.281 364.291 341.479 364.396 341.575 364.574L344.935 370.813L350.828 369.219L350.503 362.159C350.494 361.958 350.607 361.769 350.792 361.684C352.238 361.004 353.613 360.211 354.884 359.329C355.05 359.214 355.271 359.207 355.444 359.313L361.503 363.05L365.797 358.759L361.942 352.804C361.833 352.635 361.835 352.417 361.951 352.25C362.842 350.967 363.63 349.6 364.294 348.189C364.381 348.007 364.563 347.892 364.77 347.901L371.92 348.144L373.468 342.304L367.127 339.055C366.947 338.963 366.84 338.771 366.856 338.571C366.977 337.04 366.965 335.464 366.822 333.89C366.804 333.69 366.908 333.499 367.088 333.404L373.4 330.083L371.786 324.261L364.643 324.583C364.44 324.59 364.251 324.48 364.162 324.297C363.475 322.87 362.673 321.51 361.781 320.254C361.664 320.09 361.658 319.871 361.765 319.7L365.547 313.714L361.205 309.468L355.177 313.277C355.007 313.385 354.786 313.381 354.617 313.268C353.317 312.388 351.935 311.609 350.507 310.954C350.323 310.868 350.207 310.683 350.213 310.483L350.459 303.418L344.551 301.887L341.265 308.153C341.171 308.333 340.98 308.437 340.775 308.421C339.227 308.301 337.633 308.313 336.041 308.455C335.839 308.475 335.645 308.369 335.55 308.191L332.189 301.953L326.296 303.547L326.619 310.607C326.628 310.807 326.514 310.994 326.33 311.082C324.889 311.76 323.511 312.552 322.238 313.437C322.072 313.552 321.851 313.558 321.678 313.453L315.619 309.715L311.322 314.006L315.177 319.961C315.287 320.13 315.284 320.349 315.168 320.515C314.278 321.798 313.49 323.165 312.825 324.577C312.739 324.759 312.552 324.883 312.349 324.865L305.2 324.622L303.651 330.462L309.993 333.71C310.172 333.803 310.279 333.994 310.264 334.194C310.143 335.725 310.154 337.299 310.298 338.875C310.316 339.075 310.211 339.267 310.031 339.361L303.719 342.682L305.332 348.504L312.475 348.184C312.675 348.169 312.866 348.288 312.955 348.47C313.643 349.898 314.444 351.258 315.337 352.514C315.453 352.678 315.46 352.897 315.353 353.068L311.571 359.056L315.913 363.302L321.94 359.493C322.111 359.385 322.332 359.389 322.5 359.502C323.798 360.382 325.182 361.161 326.61 361.816C326.795 361.902 326.911 362.087 326.904 362.287L326.658 369.352L326.665 369.347ZM338.569 354.486C330.52 354.486 323.124 349.198 320.897 341.162C319.606 336.5 320.228 331.617 322.65 327.416C325.073 323.215 329.008 320.198 333.726 318.921C343.467 316.285 353.561 321.974 356.229 331.601C357.523 336.263 356.899 341.147 354.476 345.348C352.053 349.549 348.119 352.566 343.401 353.842C341.789 354.279 340.165 354.486 338.569 354.486ZM338.56 319.279C337.05 319.279 335.518 319.475 333.994 319.889C329.536 321.096 325.82 323.944 323.532 327.913C321.243 331.882 320.653 336.493 321.874 340.899C324.395 349.994 333.933 355.369 343.132 352.876C347.59 351.67 351.306 348.822 353.595 344.852C355.883 340.883 356.473 336.272 355.252 331.866C353.151 324.277 346.16 319.279 338.558 319.279H338.56Z" fill="#161616"/>
<path d="M262.477 411.5H47.2893C40.3741 411.5 34.8524 405.804 35.1438 398.971L40.472 274.713C40.7179 268.999 45.4723 264.492 51.2582 264.492H267.748C274.663 264.492 280.185 270.188 279.894 277.021L274.62 399.991C274.345 406.425 268.989 411.5 262.475 411.5H262.477Z" fill="white"/>
<path d="M262.475 411.999H47.2878C43.804 411.999 40.557 410.63 38.1457 408.143C35.7343 405.655 34.4888 402.39 34.6368 398.95L39.965 274.693C40.2223 268.693 45.1816 263.992 51.2566 263.992H267.747C271.231 263.992 274.478 265.361 276.889 267.849C279.3 270.337 280.546 273.601 280.398 277.041L275.126 400.011C274.837 406.733 269.281 411.999 262.475 411.999ZM51.2566 264.992C45.7258 264.992 41.2105 269.272 40.976 274.733L35.6478 398.991C35.5112 402.156 36.6588 405.162 38.8766 407.449C41.0944 409.737 44.0818 410.997 47.2855 410.997H262.475C268.737 410.997 273.849 406.152 274.113 399.968L279.384 276.998C279.521 273.833 278.373 270.827 276.156 268.54C273.938 266.253 270.95 264.992 267.747 264.992H51.2566Z" fill="#161616"/>
<path d="M123.457 397.882H53.4436C51.3692 397.882 49.6797 396.211 49.6797 394.16V394.106C49.6797 392.053 51.3692 390.385 53.4436 390.385H123.457C125.531 390.385 127.221 392.055 127.221 394.106V394.16C127.221 396.214 125.531 397.882 123.457 397.882ZM53.4436 391.387C51.9271 391.387 50.693 392.607 50.693 394.106V394.16C50.693 395.66 51.9271 396.88 53.4436 396.88H123.457C124.973 396.88 126.207 395.66 126.207 394.16V394.106C126.207 392.607 124.973 391.387 123.457 391.387H53.4436Z" fill="#161616"/>
<path d="M255.499 397.882H235.155C233.08 397.882 231.391 396.211 231.391 394.16V394.106C231.391 392.053 233.08 390.385 235.155 390.385H255.499C257.574 390.385 259.263 392.055 259.263 394.106V394.16C259.263 396.214 257.574 397.882 255.499 397.882ZM235.155 391.387C233.638 391.387 232.404 392.607 232.404 394.106V394.16C232.404 395.66 233.638 396.88 235.155 396.88H255.499C257.016 396.88 258.25 395.66 258.25 394.16V394.106C258.25 392.607 257.016 391.387 255.499 391.387H235.155Z" fill="#161616"/>
<path d="M93.4592 365.205H60.4154C57.4735 365.205 55.0781 362.839 55.0781 359.928V358.478C55.0781 355.567 57.4735 353.201 60.4154 353.201H93.4592C96.4011 353.201 98.7965 355.567 98.7965 358.478V359.928C98.7965 362.839 96.4011 365.205 93.4592 365.205ZM60.4154 354.203C58.0314 354.203 56.0914 356.121 56.0914 358.478V359.928C56.0914 362.285 58.0314 364.204 60.4154 364.204H93.4592C95.8432 364.204 97.7832 362.285 97.7832 359.928V358.478C97.7832 356.121 95.8432 354.203 93.4592 354.203H60.4154Z" fill="#161616"/>
<path d="M147.701 365.205H114.658C111.716 365.205 109.32 362.839 109.32 359.928V358.478C109.32 355.567 111.716 353.201 114.658 353.201H147.701C150.643 353.201 153.039 355.567 153.039 358.478V359.928C153.039 362.839 150.643 365.205 147.701 365.205ZM114.658 354.203C112.274 354.203 110.334 356.121 110.334 358.478V359.928C110.334 362.285 112.274 364.204 114.658 364.204H147.701C150.085 364.204 152.025 362.285 152.025 359.928V358.478C152.025 356.121 150.085 354.203 147.701 354.203H114.658Z" fill="#161616"/>
<path d="M201.944 365.205H168.9C165.958 365.205 163.562 362.839 163.562 359.928V358.478C163.562 355.567 165.958 353.201 168.9 353.201H201.944C204.885 353.201 207.281 355.567 207.281 358.478V359.928C207.281 362.839 204.885 365.205 201.944 365.205ZM168.9 354.203C166.516 354.203 164.576 356.121 164.576 358.478V359.928C164.576 362.285 166.516 364.204 168.9 364.204H201.944C204.328 364.204 206.268 362.285 206.268 359.928V358.478C206.268 356.121 204.328 354.203 201.944 354.203H168.9Z" fill="#161616"/>
<path d="M256.178 365.205H223.134C220.192 365.205 217.797 362.839 217.797 359.928V358.478C217.797 355.567 220.19 353.201 223.134 353.201H256.178C259.12 353.201 261.515 355.567 261.515 358.478V359.928C261.515 362.839 259.12 365.205 256.178 365.205ZM223.134 354.203C220.75 354.203 218.81 356.121 218.81 358.478V359.928C218.81 362.285 220.75 364.204 223.134 364.204H256.178C258.562 364.204 260.502 362.285 260.502 359.928V358.478C260.502 356.121 258.562 354.203 256.178 354.203H223.134Z" fill="#161616"/>
<path d="M254.359 292.891H216.156C212.207 292.891 208.992 289.714 208.992 285.808V285.698C208.992 281.794 212.205 278.617 216.156 278.617H254.359C258.307 278.617 261.52 281.794 261.52 285.698V285.808C261.52 289.712 258.307 292.891 254.359 292.891ZM216.156 279.619C212.765 279.619 210.005 282.348 210.005 285.7V285.81C210.005 289.163 212.765 291.891 216.156 291.891H254.359C257.75 291.891 260.509 289.163 260.509 285.81V285.7C260.509 282.348 257.75 279.619 254.359 279.619H216.156Z" fill="#161616"/>
<path d="M88.0138 303.682H64.8909C61.1283 303.682 58.0781 306.697 58.0781 310.418V328.28C58.0781 332 61.1283 335.016 64.8909 335.016H88.0138C91.7764 335.016 94.8266 332 94.8266 328.28V310.418C94.8266 306.697 91.7764 303.682 88.0138 303.682Z" fill="#161616"/>
<path d="M81.3749 327.198H71.6157C69.4707 327.198 67.7266 325.473 67.7266 323.353V316.707C67.7266 314.586 69.4707 312.861 71.6157 312.861H81.3749C83.5198 312.861 85.264 314.586 85.264 316.707V323.353C85.264 325.473 83.5198 327.198 81.3749 327.198ZM71.6157 313.863C70.0309 313.863 68.7398 315.14 68.7398 316.707V323.353C68.7398 324.92 70.0309 326.196 71.6157 326.196H81.3749C82.9597 326.196 84.2507 324.92 84.2507 323.353V316.707C84.2507 315.14 82.9597 313.863 81.3749 313.863H71.6157Z" fill="white"/>
<path d="M67.9788 319.457C67.9788 319.457 67.9629 319.457 67.956 319.457L58.124 319.027C57.8439 319.016 57.6276 318.782 57.6412 318.505C57.6549 318.228 57.8985 318.019 58.1695 318.028L68.0016 318.458C68.2816 318.469 68.498 318.703 68.4843 318.98C68.4729 319.248 68.2475 319.459 67.9788 319.459V319.457Z" fill="white"/>
<path d="M67.9825 323.546H67.9712L57.7543 323.33C57.4742 323.323 57.2533 323.096 57.2579 322.819C57.2647 322.542 57.5015 322.324 57.7748 322.328L67.9916 322.544C68.2717 322.551 68.4926 322.778 68.488 323.055C68.4812 323.328 68.2558 323.546 67.9825 323.546Z" fill="white"/>
<path d="M84.7556 319.458C84.4801 319.458 84.2547 319.242 84.2502 318.967C84.2433 318.691 84.4665 318.461 84.7465 318.456L94.9634 318.24C95.2435 318.249 95.4758 318.454 95.4803 318.731C95.4871 319.008 95.264 319.238 94.9839 319.242L84.767 319.458H84.7556Z" fill="white"/>
<path d="M94.3942 323.546H94.3828L84.7443 323.33C84.4642 323.323 84.2433 323.093 84.2502 322.819C84.257 322.542 84.487 322.337 84.767 322.33L94.4056 322.546C94.6856 322.553 94.9065 322.783 94.8997 323.057C94.8928 323.33 94.6674 323.546 94.3942 323.546Z" fill="white"/>
<path d="M73.1831 313.433C72.9212 313.433 72.7004 313.235 72.6799 312.971L71.908 303.504C71.8852 303.23 72.0924 302.987 72.3725 302.964C72.6457 302.946 72.8962 303.146 72.9167 303.423L73.6886 312.89C73.7113 313.165 73.5041 313.408 73.2241 313.431C73.2104 313.431 73.1967 313.431 73.1831 313.431V313.433Z" fill="white"/>
<path d="M78.3977 313.219C78.3772 313.219 78.3544 313.219 78.334 313.215C78.0562 313.181 77.8603 312.929 77.8945 312.654L79.0512 303.62C79.0876 303.345 79.3427 303.154 79.6182 303.185C79.896 303.219 80.0918 303.471 80.0576 303.746L78.9009 312.78C78.869 313.033 78.6505 313.217 78.4 313.217L78.3977 313.219Z" fill="white"/>
<path d="M72.4128 335.593C72.3946 335.593 72.3741 335.593 72.3559 335.589C72.0781 335.557 71.8777 335.31 71.9096 335.035L72.8728 326.644C72.9046 326.37 73.1597 326.169 73.4329 326.203C73.7107 326.234 73.9111 326.482 73.8792 326.757L72.916 335.148C72.8864 335.402 72.6678 335.591 72.4128 335.591V335.593Z" fill="white"/>
<path d="M78.585 335.592C78.3208 335.592 78.0977 335.39 78.0795 335.126L77.5011 326.736C77.4829 326.459 77.6924 326.22 77.9724 326.202C78.248 326.186 78.4939 326.391 78.5121 326.668L79.0904 335.059C79.1087 335.336 78.8992 335.574 78.6191 335.592C78.6077 335.592 78.5963 335.592 78.585 335.592Z" fill="white"/>
<path d="M139.825 143.551C135.888 139.339 130.034 138.452 125.634 139.641C120.067 141.145 117.26 145.906 115.279 149.265C111.779 155.202 113.468 157.354 110.718 160.804C105.845 166.912 98.2081 163.093 92.2696 167.558C83.2118 174.366 81.9799 197.467 94.237 206.265C102.411 212.132 113.53 208.74 116.556 207.817C125.737 205.016 137.161 197.197 138.8 186.597C140.155 177.833 134.314 170.541 139.203 163.195C140.449 161.324 141.48 160.817 142.405 158.476C143.905 154.678 144.244 148.279 139.827 143.554L139.825 143.551Z" fill="#161616"/>
<path d="M127.95 144.591C130.043 142.914 128.717 137.966 127.379 135.295C126.878 134.296 124.632 129.818 121.679 129.991C118.646 130.169 115.743 135.203 116.825 139.19C118.177 144.175 125.498 146.557 127.95 144.589V144.591Z" fill="#161616"/>
<path d="M169.496 321.144C167.59 314.928 167.914 311.002 169.642 306.916L172.552 301.19L163.799 297.719L161.117 304.236C160.254 306.335 159.004 308.26 157.43 309.908L155.984 311.425L169.496 321.146V321.144Z" fill="white"/>
<path d="M169.496 321.645C169.391 321.645 169.286 321.613 169.198 321.548L155.686 311.826C155.568 311.741 155.492 311.61 155.479 311.469C155.465 311.324 155.515 311.183 155.615 311.079L157.061 309.562C158.598 307.952 159.805 306.095 160.648 304.046L163.33 297.528C163.435 297.274 163.728 297.148 163.988 297.251L172.741 300.723C172.873 300.775 172.975 300.88 173.025 301.011C173.075 301.142 173.069 301.288 173.005 301.414L170.095 307.139C168.583 310.717 167.977 314.458 169.981 320.999C170.045 321.203 169.967 321.426 169.79 321.552C169.701 321.613 169.598 321.645 169.496 321.645ZM156.747 311.351L168.606 319.884C167.217 314.704 167.399 310.915 169.175 306.72L171.853 301.45L164.079 298.366L161.586 304.422C160.695 306.588 159.42 308.546 157.799 310.248L156.747 311.351Z" fill="#161616"/>
<path d="M159.944 308.243C159.726 307.567 158.829 307.403 158.339 307.918C156.955 309.375 154.53 311.811 152.69 313.069C150.975 314.242 150.44 316.503 151.41 318.313C154.156 323.433 161.108 334.539 168.433 343.013C168.934 343.594 170.179 344.368 171.974 343.571C177.999 340.892 172.272 328.786 169.004 316.181C168.877 315.686 168.472 315.307 167.964 315.215L166.145 314.884C162.781 314.222 161.37 312.657 159.944 308.245V308.243Z" fill="#161616"/>
<path d="M153.102 312.791C153.102 312.791 152.824 312.978 152.69 313.07C150.975 314.243 150.44 316.504 151.41 318.314C154.156 323.433 161.108 334.539 168.433 343.013C168.934 343.594 170.179 344.369 171.974 343.572C172.522 343.326 173.353 342.66 173.353 342.66L172.862 342.041C165.844 333.206 159.493 323.872 153.865 314.115L153.102 312.793V312.791Z" fill="white"/>
<path d="M170.491 344.408C169.4 344.408 168.542 343.908 168.047 343.336C160.731 334.873 153.821 323.873 150.963 318.546C149.866 316.5 150.483 313.969 152.402 312.657L152.819 312.375C152.935 312.296 153.078 312.272 153.217 312.301C153.354 312.332 153.472 312.42 153.543 312.542L154.306 313.863C159.905 323.567 166.283 332.941 173.262 341.726L173.754 342.345C173.924 342.562 173.89 342.87 173.674 343.043C173.583 343.115 172.774 343.759 172.182 344.023C171.577 344.293 171.008 344.403 170.491 344.403V344.408ZM152.933 313.51C151.471 314.539 151.006 316.493 151.856 318.076C154.695 323.364 161.553 334.283 168.817 342.685C168.999 342.895 169.992 343.901 171.766 343.111C172.016 343.001 172.36 342.769 172.638 342.566L172.46 342.343C165.452 333.518 159.044 324.103 153.42 314.356L152.93 313.508L152.933 313.51Z" fill="#161616"/>
<path d="M171.495 326.105C171.468 326.105 171.438 326.105 171.411 326.098L165.377 325.099C165.101 325.054 164.914 324.795 164.96 324.522C165.006 324.25 165.265 324.065 165.543 324.11L171.577 325.11C171.852 325.155 172.039 325.414 171.994 325.686C171.953 325.932 171.739 326.105 171.495 326.105Z" fill="white"/>
<path d="M172.478 329.504C172.452 329.504 172.427 329.504 172.402 329.499L167.47 328.776C167.195 328.736 167.004 328.481 167.045 328.207C167.086 327.932 167.345 327.75 167.621 327.786L172.55 328.508C172.828 328.549 173.017 328.803 172.976 329.078C172.94 329.328 172.723 329.506 172.475 329.506L172.478 329.504Z" fill="white"/>
<path d="M138.126 343.99L139.317 349.582C140.909 357.723 134.891 361.888 134.891 361.888L152.681 364.029C152.681 364.029 148.796 361.694 149.589 350.388L150.606 340.928L138.126 343.992V343.99Z" fill="white"/>
<path d="M152.68 364.528C152.659 364.528 152.639 364.528 152.618 364.523L134.828 362.382C134.621 362.358 134.45 362.209 134.398 362.006C134.348 361.806 134.425 361.594 134.598 361.475C134.833 361.311 140.325 357.384 138.817 349.676L137.629 344.092C137.572 343.829 137.738 343.568 138.002 343.502L150.483 340.438C150.644 340.4 150.813 340.438 150.938 340.546C151.063 340.654 151.127 340.814 151.109 340.976L150.091 350.437C149.33 361.295 152.908 363.576 152.944 363.598C153.147 363.72 153.238 363.967 153.16 364.19C153.09 364.393 152.896 364.528 152.682 364.528H152.68ZM136.085 361.525L151.341 363.362C150.171 361.763 148.54 358.096 149.082 350.351L150.025 341.584L138.722 344.36L139.813 349.48C141.058 355.853 137.759 359.928 136.087 361.527L136.085 361.525Z" fill="#161616"/>
<path d="M137.756 354.358C136.29 356.026 133.633 359.163 131.593 362.195C130.311 364.1 131.078 366.295 132.451 368.119C135.252 371.84 139.095 374.704 143.611 377.651C147.557 380.224 151.967 382.939 157.273 385.339C158.714 385.992 161.961 386.884 164.133 385.812C170.691 382.577 159.757 372.448 151.154 360.777C150.817 360.32 150.243 360.095 149.681 360.205L147.668 360.601C145.653 360.998 143.601 360.16 142.461 358.476L139.753 354.475C139.291 353.793 138.303 353.737 137.756 354.358Z" fill="#161616"/>
<path d="M132.65 360.785C132.65 360.785 131.694 362.048 131.594 362.195C131.273 362.67 131.084 363.228 130.979 363.796C130.642 365.628 131.287 367.506 132.589 368.852C132.903 369.176 133.331 369.593 133.828 370.061C138.99 374.917 144.791 379.058 151.044 382.435C154.216 384.148 161.256 387.669 164.132 385.809C165.02 385.235 165.564 383.486 165.564 383.486C165.564 383.486 163.884 384.483 158.822 381.998C150.272 377.797 144.482 373.08 137.423 367.443C136.034 366.333 135.075 365.315 134.087 364.106C133.306 363.152 132.805 362.001 132.648 360.783L132.65 360.785Z" fill="white"/>
<path d="M161.971 386.841C159.425 386.841 155.684 385.517 150.8 382.878C144.427 379.434 138.598 375.246 133.477 370.428C132.946 369.928 132.523 369.516 132.22 369.203C130.774 367.706 130.123 365.653 130.478 363.71C130.606 363.014 130.838 362.413 131.168 361.92C131.27 361.767 132.081 360.7 132.24 360.486C132.363 360.324 132.575 360.25 132.776 360.301C132.976 360.353 133.122 360.52 133.149 360.722C133.295 361.846 133.757 362.909 134.481 363.793C135.583 365.14 136.526 366.085 137.742 367.056L138.422 367.6C145.076 372.918 150.823 377.511 159.045 381.552C163.681 383.83 165.3 383.061 165.316 383.054C165.496 382.961 165.724 382.982 165.881 383.11C166.038 383.241 166.106 383.446 166.047 383.637C165.986 383.835 165.419 385.578 164.408 386.233C163.779 386.638 162.966 386.841 161.969 386.841H161.971ZM132.386 361.97C132.19 362.231 132.042 362.429 132.013 362.474C131.76 362.85 131.578 363.327 131.475 363.888C131.177 365.516 131.728 367.242 132.953 368.51C133.245 368.812 133.657 369.212 134.176 369.701C139.233 374.46 144.989 378.598 151.288 381.998C157.547 385.379 162.012 386.584 163.857 385.393C164.205 385.168 164.517 384.652 164.745 384.177C163.681 384.242 161.755 383.999 158.597 382.448C150.274 378.357 144.488 373.733 137.787 368.379L137.106 367.835C135.834 366.817 134.845 365.829 133.695 364.424C133.099 363.694 132.655 362.859 132.388 361.97H132.386Z" fill="#161616"/>
<path d="M149.553 369.403C149.318 369.403 149.109 369.243 149.058 369.007C148.999 368.737 149.172 368.471 149.446 368.413L156.083 366.997C156.356 366.936 156.625 367.109 156.684 367.381C156.743 367.652 156.57 367.917 156.295 367.976L149.657 369.392C149.621 369.399 149.584 369.403 149.55 369.403H149.553Z" fill="white"/>
<path d="M153.224 372.35C152.994 372.35 152.787 372.194 152.732 371.965C152.668 371.697 152.837 371.427 153.108 371.361L158.491 370.105C158.762 370.042 159.035 370.209 159.099 370.479C159.162 370.747 158.994 371.017 158.723 371.082L153.34 372.338C153.301 372.347 153.263 372.352 153.224 372.352V372.35Z" fill="white"/>
<path d="M120.186 230.876C120.186 230.876 180.934 217.703 199.449 228.132C202.238 229.703 204.884 232.995 205.467 236.117C207.245 245.62 201.892 266.328 172.626 305.257C172.214 305.806 171.476 306.02 170.829 305.777L161.544 302.294C160.79 302.013 160.382 301.207 160.603 300.441L172.999 257.541C173.322 256.425 172.387 255.344 171.221 255.486L113.328 262.521L120.184 230.876H120.186Z" fill="white"/>
<path d="M171.377 306.377C171.133 306.377 170.889 306.334 170.653 306.246L161.367 302.763C160.36 302.385 159.823 301.329 160.119 300.305L172.515 257.405C172.622 257.036 172.538 256.66 172.287 256.369C172.037 256.079 171.673 255.939 171.288 255.984L113.395 263.02C113.231 263.04 113.07 262.982 112.96 262.86C112.849 262.741 112.805 262.576 112.84 262.416L119.696 230.771C119.737 230.58 119.889 230.429 120.083 230.386C122.571 229.846 181.234 217.292 199.705 227.696C202.754 229.414 205.388 232.917 205.971 236.026C207.41 243.719 205.047 262.982 173.039 305.555C172.643 306.082 172.019 306.377 171.381 306.377H171.377ZM171.427 254.973C172.051 254.973 172.645 255.241 173.057 255.716C173.526 256.259 173.688 256.993 173.49 257.68L161.094 300.579C160.943 301.099 161.217 301.635 161.727 301.829L171.012 305.312C171.447 305.474 171.944 305.33 172.221 304.961C204.001 262.691 206.381 243.744 204.971 236.211C204.439 233.367 202.011 230.154 199.199 228.569C181.748 218.74 125.386 230.296 120.613 231.3L113.976 261.941L171.163 254.994C171.251 254.982 171.34 254.978 171.427 254.978V254.973Z" fill="#161616"/>
<path d="M159.493 248.047C141.794 233.082 84.8396 232.609 84.8396 232.609C84.8396 232.609 77.7262 240.998 81.1212 257.867C82.2415 263.431 86.2194 268.422 92.5085 268.422L127.449 268.715C130.008 268.737 132.042 270.844 131.944 273.375C131.295 290.076 130.714 324.602 135.544 348.129C135.74 349.084 136.466 349.843 137.415 350.097C139.647 350.696 144.021 351.664 148.762 351.601C150.24 351.581 151.478 350.48 151.674 349.032L163.262 263.473C163.61 260.896 163.619 258.275 163.182 255.708C162.717 252.966 161.693 249.909 159.491 248.047H159.493Z" fill="white"/>
<path d="M148.316 352.104C143.671 352.104 139.434 351.158 137.282 350.58C136.136 350.273 135.28 349.373 135.046 348.229C130.273 324.984 130.735 291.342 131.437 273.356C131.48 272.268 131.084 271.235 130.326 270.449C129.567 269.663 128.543 269.224 127.445 269.215L92.5046 268.923C85.3662 268.923 81.6433 263.019 80.6255 257.965C77.2214 241.053 84.1549 232.637 84.4532 232.288C84.5511 232.174 84.6922 232.09 84.8448 232.11C87.1787 232.131 142.186 232.754 159.824 247.667C161.769 249.311 163.069 251.99 163.686 255.626C164.112 258.132 164.139 260.795 163.768 263.54L152.18 349.098C151.95 350.787 150.486 352.079 148.772 352.102C148.621 352.102 148.471 352.104 148.321 352.104H148.316ZM85.0839 233.117C84.1139 234.423 78.5808 242.696 81.616 257.774C82.5587 262.457 85.9765 267.925 92.5069 267.925L127.452 268.218C128.827 268.229 130.109 268.778 131.059 269.762C132.008 270.746 132.502 272.038 132.45 273.398C131.751 291.339 131.289 324.889 136.041 348.033C136.198 348.803 136.776 349.409 137.548 349.616C139.718 350.199 144.074 351.174 148.756 351.102C149.971 351.086 151.01 350.168 151.174 348.968L162.761 263.409C163.119 260.764 163.094 258.202 162.686 255.795C162.11 252.398 160.924 249.919 159.166 248.431C142.403 234.258 89.228 233.178 85.0884 233.117H85.0839Z" fill="#161616"/>
<path d="M146.387 194.463L152.118 201.971C156.667 210.063 163.981 215.423 172.078 220.065L175.361 221.948C177.465 223.154 179.915 223.636 182.324 223.316L182.693 223.267C186.375 222.781 190.112 223.65 193.19 225.707L185.027 228.798C180.05 230.683 174.512 230.606 169.632 228.486C164.958 226.453 154.427 223.965 149.458 218.246C139.05 206.262 138.148 203.599 138.148 203.599L146.387 194.465V194.463Z" fill="white"/>
<path d="M177.673 230.661C174.857 230.661 172.058 230.087 169.428 228.943C168.338 228.47 166.933 227.973 165.307 227.399C160.093 225.557 152.952 223.038 149.074 218.571C138.718 206.65 137.705 203.867 137.666 203.755C137.609 203.584 137.648 203.397 137.769 203.262L146.007 194.128C146.107 194.015 146.253 193.955 146.406 193.961C146.556 193.968 146.697 194.04 146.788 194.16L152.519 201.668C152.533 201.686 152.547 201.706 152.558 201.726C157.362 210.27 165.248 215.572 172.329 219.629L175.613 221.511C177.609 222.655 179.971 223.119 182.255 222.817L182.623 222.768C186.433 222.263 190.286 223.159 193.471 225.289C193.628 225.393 193.712 225.575 193.69 225.762C193.669 225.947 193.544 226.106 193.369 226.172L185.206 229.265C182.751 230.195 180.203 230.659 177.671 230.659L177.673 230.661ZM138.746 203.69C139.201 204.579 141.278 208.059 149.844 217.92C153.548 222.185 160.541 224.654 165.648 226.458C167.292 227.039 168.713 227.541 169.836 228.029C174.583 230.094 179.914 230.202 184.846 228.333L192.062 225.6C189.259 223.988 185.993 223.34 182.76 223.765L182.391 223.815C179.884 224.146 177.295 223.637 175.107 222.383L171.824 220.501C164.631 216.378 156.618 210.986 151.693 202.249L146.355 195.254L138.746 203.69Z" fill="#161616"/>
<path d="M201.189 226.831L159.008 230.01L182.183 188.587C183.046 187.027 184.679 185.996 186.509 185.858L220.742 183.278C222.916 183.114 224.415 185.318 223.388 187.171L201.187 226.829L201.189 226.831Z" fill="#161616"/>
<path d="M194.114 209.043C195.735 207.817 196.509 206.125 195.843 205.264C195.177 204.403 193.322 204.699 191.701 205.925C190.08 207.151 189.306 208.843 189.972 209.704C190.638 210.565 192.492 210.269 194.114 209.043Z" fill="white"/>
<path d="M199.135 229.517L132.963 234.503C131.597 234.607 130.404 233.594 130.299 232.241L130.188 231.874L201.31 226.516L201.421 226.883C201.526 228.236 200.501 229.415 199.133 229.519L199.135 229.517Z" fill="#161616"/>
<path d="M138.128 184.544C138.001 184.29 137.844 184.053 137.65 183.846C130.462 176.169 107.76 164.921 95.9035 179.708C90.2224 186.795 90.1723 205.034 86.7477 213.965C81.8157 226.831 80.8776 231.539 79.5957 236.607C79.2063 238.142 80.281 239.66 81.8727 239.831C86.7591 240.358 96.7324 241.567 108.236 241.269C124.487 240.848 134.997 237.987 134.997 237.987C134.997 237.987 131.445 219.803 132.859 205.831C135.683 208.942 142.263 213.262 145.023 215.365C148.06 211.986 151.736 207.366 155.661 203.861C150.59 197.138 145.08 191.219 138.126 184.542L138.128 184.544Z" fill="white"/>
<path d="M104.626 241.816C95.3906 241.816 87.4165 240.942 82.8921 240.445L81.8242 240.328C80.918 240.231 80.1005 239.749 79.5791 239.013C79.0599 238.277 78.8892 237.356 79.11 236.485C79.258 235.904 79.4015 235.325 79.5449 234.74C80.6516 230.271 81.9039 225.203 86.2803 213.789C87.6192 210.295 88.4343 205.364 89.2973 200.143C90.6271 192.097 92.0024 183.776 95.5112 179.397C99.2592 174.721 104.319 172.231 110.546 171.994C121.685 171.58 133.316 178.472 138.027 183.503C138.225 183.717 138.396 183.958 138.546 184.24C146.07 191.469 151.314 197.25 156.075 203.561C156.232 203.768 156.202 204.058 156.009 204.232C153.147 206.789 150.387 209.979 147.953 212.794C147.06 213.827 146.218 214.802 145.409 215.698C145.232 215.896 144.931 215.923 144.722 215.761C144.018 215.225 143.071 214.55 141.976 213.766C139.216 211.794 135.55 209.176 133.271 206.967C132.16 220.552 135.466 237.714 135.5 237.892C135.55 238.149 135.393 238.401 135.138 238.47C135.033 238.5 124.381 241.354 108.256 241.771C107.028 241.802 105.817 241.816 104.626 241.816ZM111.537 172.978C111.218 172.978 110.901 172.985 110.585 172.996C104.667 173.219 99.8626 175.583 96.3059 180.018C92.9587 184.192 91.6062 192.383 90.2969 200.303C89.4271 205.574 88.6028 210.551 87.2275 214.142C82.8739 225.5 81.6284 230.534 80.5286 234.979C80.3829 235.566 80.2394 236.145 80.0914 236.73C79.9411 237.32 80.0573 237.944 80.4079 238.441C80.7609 238.941 81.3164 239.267 81.9312 239.333L83.0014 239.45C88.0837 240.008 97.5446 241.048 108.226 240.769C122.373 240.404 132.246 238.155 134.416 237.619C133.879 234.686 131.078 218.429 132.358 205.781C132.378 205.583 132.515 205.416 132.704 205.355C132.895 205.294 133.104 205.348 133.239 205.497C135.299 207.769 139.498 210.767 142.565 212.956C143.485 213.613 144.298 214.194 144.959 214.685C145.664 213.892 146.402 213.039 147.176 212.143C149.535 209.417 152.195 206.341 154.982 203.797C150.314 197.655 145.145 191.978 137.775 184.901C137.734 184.861 137.699 184.816 137.674 184.766C137.558 184.537 137.428 184.348 137.278 184.186C132.831 179.437 122.041 172.978 111.53 172.978H111.537Z" fill="#161616"/>
<path d="M117.044 204.726C116.789 204.726 116.568 204.535 116.54 204.278L115.206 191.972C115.176 191.698 115.377 191.45 115.655 191.421C115.935 191.392 116.183 191.59 116.212 191.864L117.547 204.17C117.576 204.445 117.376 204.693 117.098 204.722C117.08 204.722 117.062 204.724 117.044 204.724V204.726Z" fill="#161616"/>
<path d="M100.591 211.485C100.409 211.485 100.233 211.388 100.142 211.217C97.2413 205.742 93.5776 191.405 93.5002 188.339C93.4933 188.062 93.7142 187.832 93.9943 187.825C94.2789 187.805 94.5066 188.037 94.5134 188.314C94.5863 191.234 98.2591 205.501 101.039 210.751C101.169 210.997 101.073 211.298 100.825 211.427C100.75 211.465 100.67 211.483 100.591 211.483V211.485Z" fill="#161616"/>
<path d="M165.374 221.974L156.76 219.027C155.48 218.591 154.062 218.843 153.019 219.696L149.023 222.963C148.26 223.586 147.285 223.895 146.297 223.83C141.987 223.548 121.908 218.12 120.371 214.516C119.078 211.483 118.065 207.852 118.065 207.852L102.492 213.235C102.492 213.235 102.745 217.992 109.075 224.377C114.465 229.811 128.363 231.637 147.479 230.496C147.479 230.496 151.475 230.048 154.824 226.094C156.965 223.568 162.179 224.87 165.271 224.12C166.369 223.854 166.439 222.337 165.371 221.972L165.374 221.974Z" fill="white"/>
<path d="M137.338 231.32C122.831 231.32 113.026 229.08 108.714 224.731C102.322 218.285 101.996 213.467 101.985 213.264C101.974 213.041 102.11 212.839 102.324 212.765L117.897 207.381C118.029 207.336 118.174 207.345 118.3 207.411C118.425 207.476 118.516 207.586 118.552 207.721C118.562 207.757 119.573 211.357 120.839 214.322C122.218 217.555 141.698 223.028 146.332 223.33C147.197 223.386 148.037 223.119 148.7 222.578L152.696 219.309C153.869 218.35 155.49 218.06 156.927 218.553L165.541 221.5C166.244 221.741 166.677 222.371 166.643 223.107C166.609 223.843 166.119 224.433 165.395 224.609C164.256 224.886 162.908 224.897 161.481 224.908C159.01 224.931 156.458 224.951 155.217 226.417C151.776 230.478 147.712 230.976 147.539 230.994C143.92 231.21 140.516 231.318 137.34 231.318L137.338 231.32ZM103.046 213.575C103.258 214.784 104.324 218.872 109.435 224.028C114.483 229.118 127.626 231.185 147.448 229.999C147.459 229.999 151.268 229.515 154.436 225.775C155.977 223.954 158.769 223.931 161.469 223.907C162.836 223.895 164.127 223.884 165.149 223.636C165.484 223.555 165.616 223.285 165.625 223.062C165.636 222.839 165.531 222.56 165.204 222.448L156.59 219.501C155.485 219.12 154.238 219.345 153.336 220.081L149.34 223.35C148.477 224.055 147.379 224.402 146.259 224.332C142.281 224.071 121.633 218.778 119.9 214.712C118.896 212.357 118.052 209.619 117.721 208.5L103.044 213.575H103.046Z" fill="#161616"/>
<path d="M115.282 170.453C115.676 170.257 121.001 164.045 124.116 160.387C123.88 159.372 123.916 159.047 124 157.507C124 157.507 122.386 155.909 123.035 153.833C123.789 151.42 126.104 153.356 126.104 153.356C126.104 153.356 127.177 151.501 131.214 154.7C135.251 157.899 139.513 154.007 139.513 154.007C139.513 154.007 139.513 156.402 137.38 159.313C136.203 160.92 136.005 163.041 135.95 165.025L133.689 164.703C132.443 166.159 131.519 166.875 129.809 167.576C129.809 167.576 128.456 167.33 127.054 166.182L124.576 171.763L127.054 175.777C127.054 175.777 127.673 176.576 121.036 177.452C114.398 178.328 109.086 173.076 109.086 173.076C109.086 173.076 112.627 171.763 115.282 170.451V170.453Z" fill="white"/>
<path d="M119.508 178.056C113.476 178.056 108.931 173.639 108.726 173.434C108.603 173.315 108.553 173.141 108.59 172.975C108.626 172.808 108.747 172.671 108.906 172.612C108.94 172.599 112.424 171.304 115.022 170.023C115.223 169.859 116.425 168.641 123.568 160.257C123.388 159.399 123.413 158.958 123.481 157.728V157.69C123.051 157.184 121.942 155.635 122.55 153.687C122.803 152.874 123.249 152.372 123.873 152.19C124.7 151.951 125.569 152.384 126.054 152.701C126.241 152.564 126.503 152.431 126.856 152.363C128.044 152.141 129.62 152.793 131.531 154.309C135.185 157.206 139.008 153.786 139.17 153.64C139.318 153.505 139.532 153.469 139.716 153.55C139.901 153.631 140.019 153.811 140.019 154.009C140.019 154.113 139.992 156.603 137.79 159.611C136.711 161.085 136.51 163.093 136.456 165.043C136.451 165.185 136.385 165.32 136.276 165.412C136.166 165.505 136.021 165.545 135.877 165.525L133.892 165.241C132.644 166.664 131.667 167.36 130.003 168.042C129.912 168.078 129.814 168.089 129.718 168.071C129.666 168.062 128.543 167.851 127.261 166.968L125.148 171.727L127.484 175.514C127.571 175.649 127.621 175.861 127.525 176.093C127.391 176.413 127.077 177.162 121.104 177.95C120.562 178.022 120.032 178.054 119.513 178.054L119.508 178.056ZM110.04 173.252C111.577 174.528 115.906 177.624 120.968 176.96C124.834 176.451 126.073 175.982 126.455 175.773L124.144 172.027C124.057 171.887 124.046 171.714 124.112 171.565L126.589 165.984C126.653 165.84 126.781 165.734 126.936 165.698C127.088 165.66 127.252 165.698 127.375 165.8C128.411 166.646 129.406 166.961 129.761 167.054C131.26 166.423 132.107 165.779 133.3 164.381C133.414 164.248 133.584 164.183 133.76 164.208L135.463 164.451C135.549 162.519 135.839 160.565 136.97 159.021C138.122 157.447 138.621 156.04 138.84 155.121C137.241 156.134 134.001 157.551 130.898 155.09C128.707 153.354 127.543 153.253 127.045 153.347C126.687 153.415 126.546 153.604 126.544 153.606C126.469 153.735 126.341 153.825 126.193 153.852C126.043 153.879 125.893 153.836 125.779 153.741C125.533 153.539 124.709 152.994 124.158 153.154C123.882 153.235 123.666 153.514 123.52 153.984C122.969 155.752 124.347 157.143 124.36 157.159C124.463 157.26 124.515 157.397 124.508 157.539L124.495 157.782C124.422 159.111 124.406 159.388 124.613 160.277C124.649 160.43 124.608 160.59 124.506 160.711C116.056 170.633 115.687 170.816 115.51 170.901C113.611 171.84 111.245 172.786 110.042 173.252H110.04Z" fill="#161616"/>
<path d="M127.049 166.686C126.929 166.686 126.808 166.643 126.71 166.557L125.979 165.907C125.772 165.722 125.756 165.405 125.943 165.2C126.129 164.995 126.45 164.979 126.658 165.164L127.389 165.814C127.596 165.999 127.614 166.317 127.425 166.521C127.325 166.632 127.188 166.686 127.049 166.686Z" fill="#161616"/>
</svg>
