<svg xmlns="http://www.w3.org/2000/svg" width="82" height="82" fill="none"><path fill="#f5f5f5" d="M.5.5h81v81H.5z"/><path stroke="#f2f2f2" d="M.5.5h81v81H.5z"/><path d="M24.508 39.5V17h27l6 6v16.5m-9-18V26h4.5M18.506 47.001l10.5 4.5m23.97-.735l10.53-3.765M18.971 58.026c4.86 4.32 12.6 6.975 22.05 6.975 9.465 0 17.19-2.655 22.05-6.975 1.065-.945 1.86-3.555 1.92-6.135.03-1.47-.18-4.44-.72-5.565-1.095-2.25-2.37-3.225-4.665-2.475l-5.475 1.68c-1.335.405-1.665 1.44-1.395 3.27.615 3.99.27 5.265-2.865 6.18-2.925.855-5.505.945-8.88.945s-5.955-.105-8.88-.945c-3.135-.915-3.48-2.19-2.865-6.18.285-1.815-.06-2.85-1.395-3.27l-5.475-1.68c-2.295-.75-3.585.21-4.665 2.475-.54 1.14-.75 4.095-.705 5.565.075 2.58.9 5.19 1.95 6.135h.015zM30.508 27.5h12m-12 6h19.5m-19.5 6h19.5" stroke="#161616" stroke-width="2" stroke-linecap="round" stroke-linejoin="round"/></svg>