<svg xmlns="http://www.w3.org/2000/svg" width="82" height="82" fill="none"><style><![CDATA[.B{stroke:#0c6362}.C{stroke-width:1.5}.D{stroke-linecap:round}.E{stroke-linejoin:round}]]></style><path fill="#effefb" d="M0 0h82v82H0z"/><path d="M26.414 40.217V20.998H49.48l5.126 5.125v14.094" class="B C D E"/><path d="M46.906 24.842v3.844h3.844" fill="#00b17e"/><path d="M46.906 24.842v3.844h3.844" class="B C D E"/><path d="M21.684 56.042c4.152 3.69 10.764 5.958 18.837 5.958 8.086 0 14.685-2.268 18.837-5.958.91-.807 1.589-3.037 1.64-5.24.026-1.256-.154-3.793-.615-4.754-.936-1.922-2.025-2.755-3.985-2.114l-4.677 1.435c-1.14.346-1.422 1.23-1.192 2.793.525 3.408.231 4.497-2.448 5.279-2.499.73-4.703.807-7.586.807s-5.087-.09-7.586-.807c-2.678-.781-2.973-1.871-2.448-5.279.244-1.55-.051-2.434-1.192-2.793l-4.677-1.435c-1.961-.641-3.063.179-3.985 2.114-.461.974-.641 3.498-.602 4.754.064 2.204.769 4.433 1.666 5.24h.013zm-.397-9.417l8.97 3.844-8.97-3.844zm29.448 3.216l8.996-3.216-8.996 3.216z" fill="#66fecb"/><path d="M21.287 46.624l8.97 3.844m20.478-.628l8.996-3.216m-38.046 9.417c4.152 3.69 10.764 5.958 18.837 5.958 8.086 0 14.685-2.268 18.837-5.958.91-.807 1.589-3.037 1.64-5.24.026-1.256-.154-3.793-.615-4.754-.936-1.922-2.025-2.755-3.985-2.114l-4.677 1.435c-1.14.346-1.422 1.23-1.192 2.793.525 3.408.231 4.497-2.448 5.279-2.499.73-4.703.807-7.586.807s-5.087-.09-7.586-.807c-2.678-.781-2.973-1.871-2.448-5.279.244-1.55-.051-2.434-1.192-2.793l-4.677-1.435c-1.961-.641-3.063.179-3.985 2.114-.461.974-.641 3.498-.602 4.754.064 2.204.769 4.433 1.666 5.24h.013zm9.846-26.073h10.252m-10.252 5.124H48.19m-16.659 5.127H48.19" class="B C D E"/></svg>