<svg xmlns="http://www.w3.org/2000/svg" width="82" height="82" fill="none"><path fill="#fafafa" d="M0 0h82v82H0z"/><g fill="#d0d0d0"><path d="M82 1h-6V0h6zm0 80h-6v1h6zM0 1h6V0H0zm0 80h6v1H0z"/><path d="M82 0v6h-1V0zm0 82v-6h-1v6zM0 0v6h1V0zm0 82v-6h1v6z"/></g><path d="M24.508 39.5V17h27.004l6.001 6v16.5m-9.001-18V26h4.5M18.506 47.001l10.501 4.5m23.973-.735l10.531-3.765m-44.54 11.025c4.861 4.32 12.602 6.975 22.053 6.975 9.466 0 17.192-2.655 22.053-6.975 1.065-.945 1.86-3.555 1.92-6.135.03-1.47-.18-4.44-.72-5.565-1.095-2.25-2.37-3.225-4.666-2.475l-5.476 1.68c-1.335.405-1.665 1.44-1.395 3.27.615 3.99.27 5.265-2.865 6.18-2.925.855-5.506.945-8.881.945s-5.956-.105-8.881-.945c-3.135-.915-3.481-2.19-2.865-6.18.285-1.815-.06-2.85-1.395-3.27l-5.476-1.68c-2.295-.75-3.585.21-4.666 2.475-.54 1.14-.75 4.095-.705 5.565.075 2.58.9 5.19 1.95 6.135h.015zM30.508 27.5H42.51m-12.002 6H50.01m-19.502 6H50.01" stroke="#161616" stroke-width="2" stroke-linecap="round" stroke-linejoin="round"/></svg>