<svg xmlns="http://www.w3.org/2000/svg" xmlns:xlink="http://www.w3.org/1999/xlink" width="82" height="82" fill="none"><path fill="#f5f5f5" d="M.5.5h81v81H.5z"/><path stroke="#f2f2f2" d="M.5.5h81v81H.5z"/><g fill="#161616" stroke="#161616" stroke-width=".2"><path d="M48.475 30.879H30.722a2.91 2.91 0 0 0-2.907 2.907v9.738a2.91 2.91 0 0 0 2.907 2.907h17.753a2.91 2.91 0 0 0 2.907-2.907v-9.738a2.91 2.91 0 0 0-2.907-2.907zm1.365 12.646c0 .753-.613 1.365-1.365 1.365H30.722c-.753 0-1.365-.612-1.365-1.365v-9.738c0-.753.613-1.365 1.365-1.365h17.753c.753 0 1.365.613 1.365 1.365v9.738zM35.343 15.338h8.582a.771.771 0 1 0 0-1.542h-8.582a.771.771 0 1 0 0 1.542zm8.583 2.385h-4.329a.771.771 0 1 0 0 1.543h4.329a.771.771 0 1 0 0-1.543zm-8.583 5.472h8.582a.771.771 0 1 0 0-1.543h-8.582a.771.771 0 1 0 0 1.543zm22.971 3.293c0-1.815-1.1-3.444-2.735-4.152v-.082c0-2.498-2.032-4.53-4.53-4.53h-2.332v-6.631c0-1.21-.984-2.193-2.193-2.193H32.811c-1.21 0-2.193.984-2.193 2.193v6.631h-2.332c-2.498 0-4.53 2.032-4.53 4.53V68.57c0 2.498 2.032 4.53 4.53 4.53H51.05c2.498 0 4.53-2.032 4.53-4.53v-.082c1.635-.708 2.735-2.337 2.735-4.152V26.488zM32.16 17.824v-6.731a.65.65 0 0 1 .651-.651h13.713a.65.65 0 0 1 .651.651v15.786H32.161v-9.055zM54.037 68.57a2.99 2.99 0 0 1-2.988 2.988H28.286a2.99 2.99 0 0 1-2.988-2.988V22.254a2.99 2.99 0 0 1 2.988-2.987h2.332v7.613h-2.033a.771.771 0 1 0 0 1.543H50.61a.771.771 0 1 0 0-1.543h-1.892v-7.613h2.333a2.99 2.99 0 0 1 2.987 2.987V68.57zm2.735-4.234c0 .953-.46 1.831-1.193 2.384V24.104c.733.553 1.193 1.431 1.193 2.384v37.849zm-24.74-15.929h-1.27c-1.625 0-2.948 1.323-2.948 2.948v.684c0 1.625 1.323 2.948 2.948 2.948h1.27a2.95 2.95 0 0 0 2.948-2.948v-.684a2.95 2.95 0 0 0-2.948-2.948zm1.406 3.632a1.41 1.41 0 0 1-1.406 1.406h-1.27a1.41 1.41 0 0 1-1.406-1.406v-.684a1.41 1.41 0 0 1 1.406-1.406h1.27a1.41 1.41 0 0 1 1.406 1.406v.684zm6.79-3.632h-1.27a2.95 2.95 0 0 0-2.948 2.948v.684a2.95 2.95 0 0 0 2.948 2.948h1.27a2.95 2.95 0 0 0 2.948-2.948v-.684a2.95 2.95 0 0 0-2.948-2.948zm1.406 3.632a1.41 1.41 0 0 1-1.406 1.406h-1.27a1.41 1.41 0 0 1-1.406-1.406v-.684a1.41 1.41 0 0 1 1.406-1.406h1.27a1.41 1.41 0 0 1 1.406 1.406v.684zm6.797-3.988h-1.27a2.95 2.95 0 0 0-2.948 2.948v.684a2.95 2.95 0 0 0 2.948 2.948h1.27a2.95 2.95 0 0 0 2.948-2.948V51a2.95 2.95 0 0 0-2.948-2.948zm1.406 3.632a1.41 1.41 0 0 1-1.406 1.406h-1.27a1.41 1.41 0 0 1-1.406-1.406V51a1.41 1.41 0 0 1 1.406-1.406h1.27A1.41 1.41 0 0 1 49.837 51v.684z"/><use xlink:href="#B"/><path d="M40.228 55.642h-1.27a2.95 2.95 0 0 0-2.948 2.948v.684a2.95 2.95 0 0 0 2.948 2.948h1.27c1.626 0 2.948-1.322 2.948-2.948v-.684c0-1.626-1.323-2.948-2.948-2.948zm1.406 3.632a1.41 1.41 0 0 1-1.406 1.406h-1.27a1.41 1.41 0 0 1-1.406-1.406v-.684a1.41 1.41 0 0 1 1.406-1.406h1.27a1.41 1.41 0 0 1 1.406 1.406v.684z"/><use xlink:href="#C"/><use xlink:href="#B" y="7.235"/><path d="M40.228 62.877h-1.27a2.95 2.95 0 0 0-2.948 2.948v.684a2.95 2.95 0 0 0 2.948 2.948h1.27c1.626 0 2.948-1.323 2.948-2.948v-.684c0-1.626-1.323-2.948-2.948-2.948zm1.406 3.632a1.41 1.41 0 0 1-1.406 1.406h-1.27a1.41 1.41 0 0 1-1.406-1.406v-.684a1.41 1.41 0 0 1 1.406-1.406h1.27a1.41 1.41 0 0 1 1.406 1.406v.684z"/><use xlink:href="#C" y="7.413"/></g><defs ><path id="B" d="M32.032 55.642h-1.27a2.95 2.95 0 0 0-2.948 2.948v.684a2.95 2.95 0 0 0 2.948 2.948h1.27a2.95 2.95 0 0 0 2.948-2.948v-.684c0-1.626-1.323-2.948-2.948-2.948zm1.406 3.632a1.41 1.41 0 0 1-1.406 1.406h-1.27a1.41 1.41 0 0 1-1.406-1.406v-.684a1.41 1.41 0 0 1 1.406-1.406h1.27a1.41 1.41 0 0 1 1.406 1.406v.684z"/><path id="C" d="M48.431 55.464h-1.27c-1.626 0-2.948 1.322-2.948 2.948v.684c0 1.626 1.323 2.948 2.948 2.948h1.27a2.95 2.95 0 0 0 2.948-2.948v-.684a2.95 2.95 0 0 0-2.948-2.948zm1.406 3.632a1.41 1.41 0 0 1-1.406 1.406h-1.27a1.41 1.41 0 0 1-1.406-1.406v-.684a1.41 1.41 0 0 1 1.406-1.406h1.27a1.41 1.41 0 0 1 1.406 1.406v.684z"/></defs></svg>