<svg xmlns="http://www.w3.org/2000/svg" xmlns:xlink="http://www.w3.org/1999/xlink" width="82" height="82" fill="none"><path fill="#fafafa" d="M0 0h82v82H0z"/><g fill="#d0d0d0"><path d="M82 1h-6V0h6zm0 80h-6v1h6zM0 1h6V0H0zm0 80h6v1H0z"/><path d="M82 0v6h-1V0zm0 82v-6h-1v6zM0 0v6h1V0zm0 82v-6h1v6z"/></g><g fill="#161616" stroke="#161616" stroke-width=".2"><path d="M48.619 30.879H30.866a2.91 2.91 0 0 0-2.907 2.907v9.738a2.91 2.91 0 0 0 2.907 2.907h17.753a2.91 2.91 0 0 0 2.907-2.907v-9.738a2.91 2.91 0 0 0-2.907-2.907zm1.365 12.646c0 .753-.613 1.365-1.365 1.365H30.866c-.753 0-1.365-.612-1.365-1.365v-9.738c0-.753.613-1.365 1.365-1.365h17.753c.753 0 1.365.613 1.365 1.365v9.738zM35.488 15.337h8.582a.771.771 0 1 0 0-1.543h-8.582a.771.771 0 1 0 0 1.543zm8.583 2.387h-4.329a.771.771 0 1 0 0 1.543h4.329a.771.771 0 1 0 0-1.543zm-8.583 5.471h8.582a.771.771 0 1 0 0-1.543h-8.582a.771.771 0 1 0 0 1.543zm22.971 3.293c0-1.815-1.1-3.444-2.735-4.152v-.082c0-2.498-2.032-4.53-4.53-4.53h-2.332v-6.631c0-1.21-.984-2.193-2.193-2.193H32.955c-1.209 0-2.193.984-2.193 2.193v6.631H28.43c-2.498 0-4.53 2.032-4.53 4.53V68.57c0 2.498 2.032 4.53 4.53 4.53h22.764c2.498 0 4.53-2.032 4.53-4.53v-.082c1.635-.708 2.735-2.337 2.735-4.152V26.488zm-26.154-8.664v-6.731a.65.65 0 0 1 .651-.651h13.713a.65.65 0 0 1 .651.651v15.786H32.305v-9.055zM54.182 68.57a2.99 2.99 0 0 1-2.988 2.988H28.43a2.99 2.99 0 0 1-2.988-2.988V22.254a2.99 2.99 0 0 1 2.988-2.987h2.332v7.613h-2.033a.771.771 0 1 0 0 1.543h22.025a.771.771 0 1 0 0-1.543h-1.892v-7.613h2.332a2.99 2.99 0 0 1 2.988 2.987V68.57zm2.735-4.234c0 .953-.46 1.831-1.193 2.384V24.104c.733.553 1.193 1.431 1.193 2.384v37.849z"/><use xlink:href="#B"/><use xlink:href="#C"/><path d="M48.575 48.052h-1.27c-1.626 0-2.948 1.323-2.948 2.948v.684c0 1.626 1.323 2.948 2.948 2.948h1.27a2.95 2.95 0 0 0 2.948-2.948V51c0-1.626-1.323-2.948-2.948-2.948zm1.406 3.632a1.41 1.41 0 0 1-1.406 1.406h-1.27a1.41 1.41 0 0 1-1.406-1.406V51a1.41 1.41 0 0 1 1.406-1.406h1.27A1.41 1.41 0 0 1 49.981 51v.684z"/><use xlink:href="#B" y="7.236"/><use xlink:href="#C" y="7.236"/><path d="M48.575 55.465h-1.27c-1.626 0-2.948 1.322-2.948 2.948v.684c0 1.625 1.323 2.948 2.948 2.948h1.27a2.95 2.95 0 0 0 2.948-2.948v-.684c0-1.626-1.323-2.948-2.948-2.948zm1.406 3.632a1.41 1.41 0 0 1-1.406 1.406h-1.27a1.41 1.41 0 0 1-1.406-1.406v-.684a1.41 1.41 0 0 1 1.406-1.406h1.27a1.41 1.41 0 0 1 1.406 1.406v.684z"/><use xlink:href="#B" y="14.471"/><use xlink:href="#C" y="14.471"/><path d="M48.575 62.877h-1.27c-1.626 0-2.948 1.322-2.948 2.948v.684c0 1.626 1.323 2.948 2.948 2.948h1.27a2.95 2.95 0 0 0 2.948-2.948v-.684c0-1.626-1.323-2.948-2.948-2.948zm1.406 3.632a1.41 1.41 0 0 1-1.406 1.406h-1.27a1.41 1.41 0 0 1-1.406-1.406v-.684a1.41 1.41 0 0 1 1.406-1.406h1.27a1.41 1.41 0 0 1 1.406 1.406v.684z"/></g><defs ><path id="B" d="M32.177 48.406h-1.27a2.95 2.95 0 0 0-2.948 2.948v.684a2.95 2.95 0 0 0 2.948 2.948h1.27a2.95 2.95 0 0 0 2.948-2.948v-.684a2.95 2.95 0 0 0-2.948-2.948zm1.406 3.632a1.41 1.41 0 0 1-1.406 1.406h-1.27a1.41 1.41 0 0 1-1.406-1.406v-.684a1.41 1.41 0 0 1 1.406-1.406h1.27a1.41 1.41 0 0 1 1.406 1.406v.684z"/><path id="C" d="M40.372 48.406h-1.27a2.95 2.95 0 0 0-2.948 2.948v.684c0 1.626 1.323 2.948 2.948 2.948h1.27a2.95 2.95 0 0 0 2.948-2.948v-.684a2.95 2.95 0 0 0-2.948-2.948zm1.406 3.632a1.41 1.41 0 0 1-1.406 1.406h-1.27a1.41 1.41 0 0 1-1.406-1.406v-.684a1.41 1.41 0 0 1 1.406-1.406h1.27a1.41 1.41 0 0 1 1.406 1.406v.684z"/></defs></svg>