<svg xmlns="http://www.w3.org/2000/svg" width="82" height="82" fill="none"><path fill="#effefb" d="M0 0h82v82H0z"/><path d="M16.672 26.8c1.295.22 9.331 2.003 9.746 12.067 2.923-1.783 7.678-5.301 7.678-5.301s-.065-8.891-9.673-11.822L16.672 26.8z" fill="#66fecb"/><path d="M36.611 35.845l-5.048 4.299 2.931 2.313 5.553-4.397-3.436-2.215z" fill="#00b17e"/><path d="M40.199 44.137a.78.78 0 0 0-1.093-.126.78.78 0 0 0-.125 1.093l.084.106a.78.78 0 0 0 .61.294c.169 0 .34-.055.483-.169a.78.78 0 0 0 .125-1.093l-.084-.106zm1.954-1.453a.78.78 0 0 0-1.092-.127.78.78 0 0 0-.128 1.093l.084.106c.153.194.381.295.61.295.169 0 .339-.055.482-.168a.78.78 0 0 0 .128-1.092l-.084-.107zm1.911-.255a.78.78 0 0 0 .125-1.093l-.084-.106a.78.78 0 0 0-1.093-.125.78.78 0 0 0-.125 1.093l.084.106a.78.78 0 0 0 .61.294c.169 0 .34-.055.483-.169zm.86-1.577c.154.194.38.294.61.294a.78.78 0 0 0 .608-1.261l-.084-.106a.78.78 0 0 0-1.093-.126.78.78 0 0 0-.125 1.093l.084.105zm-.193 5.412a.78.78 0 0 0-1.093-.125.78.78 0 0 0-.125 1.093l.084.106c.154.193.38.294.61.294.169 0 .34-.055.483-.169a.78.78 0 0 0 .125-1.093l-.084-.106zm1.96-1.454a.78.78 0 0 0-1.093-.125.78.78 0 0 0-.126 1.093l.084.106c.154.194.38.294.61.294a.78.78 0 0 0 .609-1.261l-.084-.106zm1.912-.255a.78.78 0 0 0 .125-1.092l-.084-.106a.78.78 0 0 0-1.093-.125c-.336.267-.392.756-.125 1.092l.084.106a.78.78 0 0 0 .61.294c.169 0 .34-.055.483-.169zm1.947-1.453a.78.78 0 0 0 .124-1.093l-.084-.106a.78.78 0 0 0-1.093-.123.78.78 0 0 0-.124 1.093l.084.106c.154.193.38.293.609.293.17 0 .341-.056.484-.17zm-1.406 5.445c-.267-.336-.757-.392-1.093-.123a.78.78 0 0 0-.124 1.093l.084.106c.154.193.38.293.609.293a.77.77 0 0 0 .484-.17.78.78 0 0 0 .124-1.093l-.084-.106zm1.954-1.452a.78.78 0 0 0-1.093-.125.78.78 0 0 0-.125 1.093l.084.106c.154.194.38.294.61.294a.78.78 0 0 0 .608-1.261l-.084-.106zm1.954-1.452a.78.78 0 0 0-1.092-.127.78.78 0 0 0-.128 1.093l.084.106c.154.194.381.295.611.295.169 0 .339-.055.482-.168a.78.78 0 0 0 .128-1.093l-.084-.106zm2.036-1.347l-.084-.106a.78.78 0 0 0-1.093-.125.78.78 0 0 0-.126 1.093l.084.106c.154.194.38.294.61.294a.78.78 0 0 0 .609-1.261zm9.066 1.614L34.037 30.379c-.875-3.216-3.272-8.362-9.741-9.37-.196-.03-.392.014-.555.124l-7.399 4.995a.78.78 0 0 0-.323.819c.072.313.329.55.648.595 3.78.542 6.433 2.687 7.9 6.374l-5.47 3.479c-.023.014-.04.034-.061.051-.031.025-.063.047-.09.076-.02.021-.034.047-.052.069-.022.03-.046.059-.064.092-.014.026-.022.055-.034.083-.014.034-.029.067-.037.103-.007.03-.008.06-.012.091s-.012.06-.012.091v6.272a4.07 4.07 0 0 0 .933 2.593c.753.908 2.169 2.251 4.639 3.487 2.14 1.07 4.305 1.294 5.743 1.294.748 0 1.326-.06 1.639-.102l19.929 9.332c.029.014.06.021.09.031.019.006.038.015.058.02a.77.77 0 0 0 .598-.099l11.929-7.59a1.81 1.81 0 0 0 .836-1.531v-4.234c.002-.682-.374-1.3-.98-1.614zm-11.952 7.706l-.463-.233-29.536-14.85-1.114-.56 3.992-2.539c.573 2.066.581 3.741.581 3.76a.78.78 0 0 0 1.224.637l7.416-5.201a.78.78 0 0 0 .331-.657c-.001-.038-.02-.666-.171-1.624l28.332 14.61-10.591 6.657zM18.72 26.4l5.634-3.803c5.306.964 7.425 5.139 8.268 8.506.275 1.09.385 2.005.428 2.504l-5.934 4.162a17.9 17.9 0 0 0-.863-3.793l-.008-.021c-.991-2.817-3.09-6.241-7.525-7.554zm13.088 23.614a.79.79 0 0 0-.142.013c-.015.002-3.366.634-6.661-1.014-2.229-1.115-3.48-2.295-4.138-3.088a2.51 2.51 0 0 1-.575-1.6v-5.011l3.203 1.61 27.54 13.847c.084.044.137.132.137.231v3.999l-19.034-8.913c-.103-.049-.216-.073-.33-.073zm31.653 1.966L52.73 58.806V55.12l10.85-6.82v3.458c0 .091-.046.174-.119.221zM40.41 37.867a1.95 1.95 0 0 0-.95-1.576l-1.553-.925c-.668-.398-1.549-.352-2.17.113l-3.922 2.934a1.95 1.95 0 0 0 .17 3.241l1.553.926a1.96 1.96 0 0 0 1.001.276 1.94 1.94 0 0 0 1.17-.389l3.921-2.934c.523-.39.815-1.013.781-1.665zm-1.712.42l-3.922 2.934a.4.4 0 0 1-.442.022l-1.554-.925a.39.39 0 0 1-.194-.321c-.004-.079.011-.229.159-.339l3.922-2.934a.39.39 0 0 1 .238-.079.39.39 0 0 1 .204.057l1.553.925a.39.39 0 0 1 .194.321.39.39 0 0 1-.158.339z" fill="#0c6362"/></svg>