<svg xmlns="http://www.w3.org/2000/svg" width="82" height="82" fill="none"><path fill="#f5f5f5" d="M.5.5h81v81H.5z"/><path stroke="#f2f2f2" d="M.5.5h81v81H.5z"/><g stroke="#161616" stroke-width="2" stroke-linejoin="round"><path d="M21 62.383V19.6a3.61 3.61 0 0 1 3.6-3.6h27.717L61 24.683V62.4a3.61 3.61 0 0 1-3.6 3.6H24.6a3.61 3.61 0 0 1-3.6-3.6v-.017z"/><path d="M38.667 33H32v6.667h6.667V33zm0 10H32v6.667h6.667V43zm11-10H43v6.667h6.667V33zm0 10H43v6.667h6.667V43z"/><g stroke-linecap="round"><path d="M33 53h-4v-4m4-19h-4v4m20 19h4v-4"/><path d="M49 30h4v4"/></g></g></svg>