<svg xmlns="http://www.w3.org/2000/svg" width="82" height="82" fill="none"><path fill="#fafafa" d="M0 0h82v82H0z"/><g fill="#d0d0d0"><path d="M82 1h-6V0h6zm0 80h-6v1h6zM0 1h6V0H0zm0 80h6v1H0z"/><path d="M82 0v6h-1V0zm0 82v-6h-1v6zM0 0v6h1V0zm0 82v-6h1v6z"/></g><g stroke="#161616" stroke-width="2" stroke-linejoin="round"><path d="M21 62.383V19.6a3.61 3.61 0 0 1 3.6-3.6h27.717L61 24.683V62.4a3.61 3.61 0 0 1-3.6 3.6H24.6a3.61 3.61 0 0 1-3.6-3.6v-.017z"/><path d="M38.667 33H32v6.667h6.667V33zm0 10H32v6.667h6.667V43zm11-10H43v6.667h6.667V33zm0 10H43v6.667h6.667V43z"/><g stroke-linecap="round"><path d="M33 53h-4v-4m4-19h-4v4m20 19h4v-4"/><path d="M49 30h4v4"/></g></g></svg>