<svg xmlns="http://www.w3.org/2000/svg" xmlns:xlink="http://www.w3.org/1999/xlink" width="82" height="82" fill="none"><path fill="#f5f8f6" d="M0 0h82v82H0z"/><g fill="#c0cfc8"><path d="M82 1h-6V0h6zm0 80h-6v1h6zM0 1h6V0H0zm0 80h6v1H0z"/><path d="M82 0v6h-1V0zm0 82v-6h-1v6zM0 0v6h1V0zm0 82v-6h1v6z"/></g><g stroke="#0f5251" stroke-width="1.5" stroke-linejoin="round"><use xlink:href="#B"/><use xlink:href="#B" y="-7"/><use xlink:href="#B" x="7" y="-7"/><use xlink:href="#B" x="7"/><use xlink:href="#C" fill="#c9ffe8"/><use xlink:href="#C" y="-15" fill="#0f5251"/><use xlink:href="#C" x="-15" y="-15" fill="#c9ffe8"/><g stroke-linecap="round"><path d="M27 60h-5v-5m5-33h-5v5m33 33h5v-5"/><path d="M55 22h5v5"/></g></g><defs ><path id="B" d="M31.75 51a.75.75 0 0 0-.75-.75h-2a.75.75 0 0 0-.75.75v2a.75.75 0 0 0 .75.75h2a.75.75 0 0 0 .75-.75v-2z"/><path id="C" d="M53.75 44a.75.75 0 0 0-.75-.75h-9a.75.75 0 0 0-.75.75v9a.75.75 0 0 0 .75.75h9a.75.75 0 0 0 .75-.75v-9z"/></defs></svg>