<svg xmlns="http://www.w3.org/2000/svg" xmlns:xlink="http://www.w3.org/1999/xlink" width="82" height="82" fill="none"><path fill="#f5f8f6" d="M0 0h82v82H0z"/><g fill="#c0cfc8"><path d="M82 1h-6V0h6zm0 80h-6v1h6zM0 1h6V0H0zm0 80h6v1H0z"/><path d="M82 0v6h-1V0zm0 82v-6h-1v6zM0 0v6h1V0zm0 82v-6h1v6z"/></g><path d="M53.474 46.171c0 1.466-1.189 2.655-2.655 2.655s-2.655-1.189-2.655-2.655 1.189-2.655 2.655-2.655 2.655 1.188 2.655 2.655z" fill="#c9ffe8"/><g fill="#0f5251"><path d="M28.926 30.323h-3.989v31.48h3.989v-31.48zm29.936 32.538H42.751a.84.84 0 0 1-.837-.837V30.323a.84.84 0 0 1 .837-.837h16.111a.84.84 0 0 1 .837.837v31.701a.84.84 0 0 1-.837.837zm-15.274-1.674h14.436V31.159H43.588v30.027zm7.228-11.106c-2.156 0-3.909-1.754-3.909-3.909s1.754-3.909 3.909-3.909 3.909 1.754 3.909 3.909-1.753 3.909-3.909 3.909zm0-6.145a2.24 2.24 0 0 0-2.235 2.235 2.24 2.24 0 0 0 2.235 2.236 2.24 2.24 0 0 0 2.235-2.236 2.24 2.24 0 0 0-2.235-2.235zm-.004 12.759a2.41 2.41 0 0 1-2.405-2.405 2.41 2.41 0 0 1 2.405-2.405 2.41 2.41 0 0 1 2.405 2.405 2.41 2.41 0 0 1-2.405 2.405zm0-3.137a.73.73 0 0 0-.731.731c0 .403.328.732.731.732a.732.732 0 1 0 0-1.463zm0-13.097a2.41 2.41 0 0 1-2.405-2.405 2.41 2.41 0 0 1 2.405-2.405 2.41 2.41 0 0 1 2.405 2.405 2.41 2.41 0 0 1-2.405 2.405zm0-3.137a.731.731 0 1 0 0 1.462.731.731 0 1 0 0-1.462zm3.686 22.877h-7.386a.84.84 0 0 1-.724-.417l-1.861-3.211c-.074-.128-.113-.272-.113-.419V36.192a.83.83 0 0 1 .113-.419l1.861-3.211a.84.84 0 0 1 .724-.417h7.386a.84.84 0 0 1 .724.417l1.862 3.211c.074.128.113.272.113.419v19.961a.83.83 0 0 1-.113.419l-1.862 3.211a.84.84 0 0 1-.724.417zm-6.903-1.674h6.421l1.507-2.599V36.417l-1.507-2.599h-6.421l-1.507 2.599v19.511l1.507 2.599z"/><path d="M38.915 63.019H24.06c-1.136 0-2.06-.924-2.06-2.06V31.388c0-1.138.924-2.064 2.06-2.064h14.855c.205 0 .402.03.586.089.853.23 1.474 1.046 1.474 1.975v29.567c0 1.138-.924 2.064-2.06 2.064zM24.06 30.999a.39.39 0 0 0-.386.39V60.96c0 .212.173.386.386.386h14.855a.39.39 0 0 0 .386-.39V31.388c0-.174-.112-.326-.273-.369a.33.33 0 0 0-.113-.02H24.06zm11.267 27.826h-.032c-1.334 0-2.42-1.085-2.42-2.42v-1.511c0-1.334 1.086-2.42 2.42-2.42a2.43 2.43 0 0 1 2.452 2.42v1.511c0 1.334-1.086 2.42-2.421 2.42zm0-4.677c-.443 0-.778.335-.778.746v1.511c0 .411.334.746.746.746h.032a.75.75 0 0 0 .747-.746v-1.511a.75.75 0 0 0-.746-.746z"/><use xlink:href="#B"/><use xlink:href="#B" y="6.352"/><use xlink:href="#C"/><use xlink:href="#C" y="6.35"/><path d="M50.877 23.308a.84.84 0 0 0-1.177.133l-.526.661a8.09 8.09 0 0 0-1.458-2.991c-.597-.767-1.32-1.413-2.15-1.923-1.27-.777-2.73-1.188-4.22-1.188-3.772 0-6.94 2.599-7.831 6.098l-.523-.658a.84.84 0 0 0-1.177-.133.84.84 0 0 0-.134 1.177l1.769 2.222c.024.03.053.053.079.079.019.018.035.038.054.054.031.025.065.043.099.063.021.012.04.028.062.038.038.018.078.029.117.041.02.006.039.016.059.02a.85.85 0 0 0 .185.021.84.84 0 0 0 .267-.044c.032-.011.059-.033.09-.048.052-.025.105-.045.152-.081l.011-.008h0 0l2.335-1.794c.367-.282.435-.807.154-1.174s-.808-.435-1.174-.154l-.751.577c.779-2.665 3.24-4.62 6.154-4.62a6.41 6.41 0 0 1 3.345.941c.658.404 1.231.917 1.706 1.527.499.636.867 1.372 1.094 2.144l-.741-.569c-.366-.281-.891-.214-1.174.154s-.213.892.154 1.174l2.335 1.794h0 0l.011.008c.048.036.101.057.153.081.03.014.058.037.089.048a.83.83 0 0 0 .267.044.85.85 0 0 0 .185-.021c.02-.005.038-.014.058-.02.04-.012.08-.023.119-.041.022-.01.04-.026.062-.038.034-.02.068-.038.1-.063.019-.015.035-.035.053-.053.027-.026.056-.05.081-.08l1.769-2.222a.84.84 0 0 0-.133-1.176z"/></g><defs ><path id="B" d="M26.931 39.035a.84.84 0 0 1-.837-.837v-3.575c0-.462.375-.837.837-.837s.837.375.837.837v3.575c0 .462-.375.837-.837.837z"/><path id="C" d="M26.931 51.735a.84.84 0 0 1-.837-.837v-3.574c0-.462.375-.837.837-.837s.837.375.837.837v3.574c0 .462-.375.837-.837.837z"/></defs></svg>