<svg xmlns="http://www.w3.org/2000/svg" width="82" height="82" fill="none" xmlns:v="https://vecta.io/nano"><style><![CDATA[.B{stroke-linejoin:round}.C{stroke-linecap:round}]]></style><path fill="#fafafa" d="M0 0h82v82H0z"/><g fill="#d0d0d0"><path d="M82 1h-6V0h6zm0 80h-6v1h6zM0 1h6V0H0zm0 80h6v1H0z"/><path d="M82 0v6h-1V0zm0 82v-6h-1v6zM0 0v6h1V0zm0 82v-6h1v6z"/></g><g stroke="#161616" stroke-width="2" class="B"><g class="C"><path d="M63.18 45.59a13.75 13.75 0 0 1-5.594 4.143M38.367 27.906l-.705-.479c-2.1-1.423-4.495-2.212-6.905-2.396"/><path d="M56.323 50.254a2.69 2.69 0 0 0 1.987-1.17l.056-.099c.831-1.226.507-2.889-.719-3.72l-5.933-5.58m-34.218 5.018a13.52 13.52 0 0 0 2.931 3.96m22.983-6.386l12.119 8.173c1.226.831 1.55 2.494.719 3.72l-.07.099c-.831 1.226-2.494 1.55-3.72.719l-12.203-8.229m.001.014l11.245 7.581c1.226.831 1.55 2.494.719 3.72l-.07.099c-.831 1.226-2.494 1.55-3.72.719l-10.061-6.764"/><path d="M39.901 59.752l2.086 1.409c1.226.831 2.889.507 3.72-.719l.07-.099c.831-1.226.507-2.889-.719-3.72l-6.679-4.481M54.09 23.495a14.18 14.18 0 0 0-7.004.916l-2.212.888-13.359 5.355c1.127 2.804 4.312 4.171 7.116 3.044L43 31.978l2.508 4.044c2.17 3.467 6.722 4.523 10.188 2.353"/></g><path d="M25.265 51.481l3.734-5.115a2.73 2.73 0 0 0-4.425-3.213l-3.734 5.115a2.73 2.73 0 0 0 4.425 3.213z"/><path d="M29.682 54.694l5.256-7.215a2.734 2.734 0 1 0-4.425-3.213l-5.256 7.215a2.734 2.734 0 0 0 4.425 3.213zm4.426 3.226l3.734-5.115a2.734 2.734 0 1 0-4.425-3.213l-3.734 5.115a2.734 2.734 0 0 0 4.425 3.213zm4.426 3.227l2.241-3.072a2.734 2.734 0 1 0-4.425-3.213l-2.241 3.072a2.734 2.734 0 0 0 4.425 3.213z"/><path d="M24.092 20l6.849 4.777-13.838 20.517L10 39.728M62.149 20l-8.004 3.044 9.202 22.983 8.652-3.481" class="C"/></g></svg>