<svg xmlns="http://www.w3.org/2000/svg" width="82" height="82" fill="none" xmlns:v="https://vecta.io/nano"><path fill="#fafafa" d="M0 0h82v82H0z"/><g fill="#d0d0d0"><path d="M82 1h-6V0h6zm0 80h-6v1h6zM0 1h6V0H0zm0 80h6v1H0z"/><path d="M82 0v6h-1V0zm0 82v-6h-1v6zM0 0v6h1V0zm0 82v-6h1v6z"/></g><g stroke="#161616" stroke-width="2" stroke-linejoin="round"><path d="M46.063 15.434v20.503h20.503c0-11.323-9.18-20.503-20.503-20.503z"/><path d="M54.869 18.709l-8.826 8.809m14.33-5.149l-14.31 13.568m17.785-7.863l-7.864 7.864" stroke-linecap="round"/><path d="M41 14c-14.917 0-27 12.083-27 27s12.083 27 27 27 27-12.083 27-27H41V14z"/></g></svg>