<svg xmlns="http://www.w3.org/2000/svg" width="82" height="82" fill="none"><path fill="#f5f8f6" d="M0 0h82v82H0z"/><g fill="#c0cfc8"><path d="M82 1h-6V0h6zm0 80h-6v1h6zM0 1h6V0H0zm0 80h6v1H0z"/><path d="M82 0v6h-1V0zm0 82v-6h-1v6zM0 0v6h1V0zm0 82v-6h1v6z"/></g><path d="M41.898 21.043v17.964l15.78 9.579s5.9-7.305.504-18.536c-3.398-4.479-6.361-8.64-16.284-9.006z" fill="#0f5251"/><path d="M39.331 21.898v18.709l-17.83 4.703c-.93-2.791-1.531-11.265 3.411-16.538s10.181-7.132 14.419-6.874z" fill="#c9ffe8"/><path d="M57.807 49.515a.82.82 0 0 1-.426-.119l-15.86-9.619c-.246-.149-.396-.416-.396-.704V20.529c0-.454.368-.823.823-.823 10.679 0 19.367 8.688 19.367 19.367a19.33 19.33 0 0 1-2.804 10.047.82.82 0 0 1-.704.395zM42.77 38.609l14.745 8.943c1.412-2.588 2.154-5.502 2.154-8.48 0-9.496-7.507-17.271-16.899-17.703v17.239zm-21.409 7.433c-.363 0-.695-.241-.794-.608-.438-1.622-.661-3.313-.661-5.027 0-10.679 8.688-19.367 19.367-19.367.454 0 .823.368.823.823v18.544c0 .372-.25.698-.609.795l-17.912 4.812a.83.83 0 0 1-.214.029zm17.09-23.337c-9.392.431-16.899 8.207-16.899 17.703 0 1.289.137 2.563.409 3.799l16.49-4.43V22.704zM41.508 62a19.39 19.39 0 0 1-18.706-14.342c-.117-.439.143-.89.581-1.008l17.912-4.812a.83.83 0 0 1 .64.091l15.86 9.619a.82.82 0 0 1 .276 1.131C54.522 58.516 48.33 62 41.508 62zM24.622 48.021c2.324 7.302 9.153 12.333 16.886 12.333a17.6 17.6 0 0 0 14.713-7.835l-14.839-9-16.76 4.503z" fill="#0f5251"/></svg>