<svg xmlns="http://www.w3.org/2000/svg" width="82" height="82" fill="none"><path fill="#effefb" d="M0 0h82v82H0z"/><path d="M41.906 21.043v17.964l15.78 9.579s5.9-7.305.504-18.536c-3.398-4.479-6.361-8.64-16.284-9.006z" fill="#00b17e"/><path d="M39.339 21.898v18.709l-17.83 4.703c-.93-2.791-1.532-11.265 3.411-16.538s10.181-7.132 14.419-6.874z" fill="#66fecb"/><path d="M57.815 49.515a.82.82 0 0 1-.426-.119l-15.86-9.619c-.246-.149-.396-.416-.396-.704V20.529c0-.454.368-.823.823-.823 10.679 0 19.367 8.688 19.367 19.367a19.33 19.33 0 0 1-2.804 10.047.82.82 0 0 1-.704.395zM42.778 38.609l14.745 8.943c1.412-2.588 2.154-5.502 2.154-8.48 0-9.496-7.507-17.271-16.899-17.703v17.239zm-21.409 7.433c-.363 0-.695-.241-.794-.608a19.27 19.27 0 0 1-.661-5.027c0-10.679 8.688-19.367 19.367-19.367.454 0 .823.368.823.823v18.544c0 .372-.25.698-.609.795l-17.912 4.812a.83.83 0 0 1-.214.029zm17.09-23.337c-9.392.431-16.899 8.207-16.899 17.703 0 1.289.137 2.563.409 3.799l16.49-4.43V22.704zM41.516 62a19.39 19.39 0 0 1-18.707-14.342c-.117-.439.143-.89.581-1.008l17.912-4.812a.83.83 0 0 1 .64.091l15.86 9.619a.82.82 0 0 1 .276 1.131C54.529 58.516 48.338 62 41.516 62zM24.63 48.021c2.324 7.302 9.153 12.333 16.886 12.333a17.6 17.6 0 0 0 14.713-7.835l-14.839-9-16.76 4.503z" fill="#0c6362"/></svg>