<svg width="28" height="28" viewBox="0 0 28 28" fill="none" xmlns="http://www.w3.org/2000/svg">
<path d="M22.8735 8.16018C22.7849 7.81252 22.5329 7.55002 22.2447 7.46952C21.7337 7.32602 19.2499 6.99935 13.9999 6.99935C8.74987 6.99935 6.2672 7.32602 5.7527 7.46952C5.46803 7.54885 5.21603 7.81135 5.1262 8.16018C4.99903 8.65485 4.66653 10.7268 4.66653 13.9993C4.66653 17.2707 4.99903 19.3427 5.1262 19.8397C5.21486 20.1862 5.46686 20.4487 5.75386 20.528C6.2672 20.6727 8.7487 20.9993 13.9987 20.9993C19.2487 20.9993 21.7325 20.6727 22.2459 20.5292C22.5305 20.4498 22.7825 20.1873 22.8724 19.8385C23.0007 19.3438 23.332 17.266 23.332 13.9993C23.332 10.7327 23.0007 8.65602 22.8735 8.16018ZM25.1334 7.58035C25.6665 9.65935 25.6665 13.9993 25.6665 13.9993C25.6665 13.9993 25.6665 18.3393 25.1334 20.4183C24.837 21.5675 23.9702 22.4717 22.8724 22.7773C20.8785 23.3327 13.9987 23.3327 13.9987 23.3327C13.9987 23.3327 7.12353 23.3327 5.1262 22.7773C4.0237 22.467 3.15803 21.564 2.8652 20.4183C2.33203 18.3393 2.33203 13.9993 2.33203 13.9993C2.33203 13.9993 2.33203 9.65935 2.8652 7.58035C3.16153 6.43118 4.02836 5.52702 5.1262 5.22135C7.1247 4.66602 13.9999 4.66602 13.9999 4.66602C13.9999 4.66602 20.8785 4.66602 22.8724 5.22135C23.9737 5.53168 24.8405 6.43468 25.1334 7.58035ZM11.6665 18.0827V9.91602L18.6665 13.9993L11.6665 18.0827Z" fill="white"/>
</svg>
