<svg xmlns="http://www.w3.org/2000/svg" width="28" height="28" fill="none"><path d="M22.87 8.16c-.089-.348-.341-.61-.629-.691-.511-.144-2.995-.47-8.245-.47s-7.733.327-8.247.47c-.285.079-.537.342-.626.691-.127.495-.46 2.567-.46 5.839s.332 5.343.46 5.84c.089.346.341.609.628.688.513.145 2.995.471 8.245.471s7.734-.327 8.247-.47c.285-.079.537-.342.627-.691.128-.495.46-2.573.46-5.839s-.331-5.343-.459-5.839zm2.26-.58c.533 2.079.533 6.419.533 6.419s0 4.34-.533 6.419c-.296 1.149-1.163 2.053-2.261 2.359-1.994.555-8.874.555-8.874.555s-6.875 0-8.873-.555c-1.102-.31-1.968-1.213-2.261-2.359-.533-2.079-.533-6.419-.533-6.419s0-4.34.533-6.419c.296-1.149 1.163-2.053 2.261-2.359 1.999-.555 8.874-.555 8.874-.555s6.879 0 8.873.555c1.101.31 1.968 1.213 2.261 2.359zM11.663 18.083V9.916l7 4.083-7 4.083z" fill="#66fecb"/></svg>